<?xml version="1.0" standalone="no"?>
<!DOCTYPE svg PUBLIC "-//W3C//DTD SVG 1.1//EN" "http://www.w3.org/Graphics/SVG/1.1/DTD/svg11.dtd" >
<svg xmlns="http://www.w3.org/2000/svg">
<metadata>
This is a custom SVG webfont generated by Font Squirrel.
Copyright   : Copyright URW copyright 1999 by URW Design  Development Cyrillic glyphs added by Valek Filippov copyright 20012002 Vietnamese characters were added by Han The Thanh copyright 2006 2008 for TeX Gyre extensions by B Jackowski and JM Nowacki on behalf of TeX users groups This work is released under the GUST Font License   see httptugorgfontslicensesGUSTFONTLICENSEtxt for details
</metadata>
<defs>
<font id="webfontpsSOjyAh" horiz-adv-x="933" >
<font-face units-per-em="2048" ascent="1624" descent="-424" />
<missing-glyph horiz-adv-x="466" />
<glyph unicode="IJ" horiz-adv-x="1218" d="M31 0l256 1470h162l-256 -1470h-162zM385 246q0 41 6 82l27 145h151l-16 -102q-10 -66 -8 -86q0 -154 147 -154q190 0 236 254l190 1085h162l-186 -1073q-37 -209 -147.5 -322.5t-276.5 -113.5q-137 0 -211 74t-74 211z" />
<glyph unicode="ij" horiz-adv-x="745" d="M31 0l186 1071h148l-187 -1071h-147zM190 -424l27 156h31q70 0 92 22.5t39 108.5l211 1208h147l-213 -1229q-25 -139 -90 -205.5t-178 -66.5q-31 0 -66 6zM233 1243l35 197h176l-34 -197h-177zM606 1243l35 197h176l-35 -197h-176z" />
<glyph unicode="fk" horiz-adv-x="1306" d="M63 0l160 922h-121l27 149h121l31 184q18 115 86.5 175.5t179.5 60.5q25 0 69 -4l-28 -162q-53 4 -60 4q-88 0 -108 -125l-23 -133h148l-27 -149h-147l-160 -922h-148zM498 0l256 1470h143l-149 -852l456 453h189l-406 -399l240 -672h-191l-178 541l-147 -135l-70 -406 h-143z" />
<glyph unicode="&#xfb00;" horiz-adv-x="897" d="M63 0l160 922h-121l27 149h121l31 184q18 115 86.5 175.5t179.5 60.5q25 0 69 -4l-28 -162q-53 4 -60 4q-88 0 -108 -125l-23 -133h287l31 184q18 115 86.5 175.5t179.5 60.5q25 0 70 -4l-29 -162q-53 4 -59 4q-88 0 -109 -125l-23 -133h148l-27 -149h-147l-160 -922 h-147l159 922h-286l-160 -922h-148z" />
<glyph unicode="&#xfb01;" horiz-adv-x="839" d="M63 0l160 922h-121l27 149h121l31 184q18 115 86.5 175.5t179.5 60.5q25 0 69 -4l-28 -162q-53 4 -60 4q-88 0 -108 -125l-23 -133h148l-27 -149h-147l-160 -922h-148zM498 0l186 1071h147l-186 -1071h-147zM700 1243l35 197h176l-34 -197h-177z" />
<glyph unicode="&#xfb02;" horiz-adv-x="839" d="M63 0l160 922h-121l27 149h121l31 184q18 115 86.5 175.5t179.5 60.5q25 0 69 -4l-28 -162q-53 4 -60 4q-88 0 -108 -125l-23 -133h148l-27 -149h-147l-160 -922h-148zM498 0l256 1470h147l-256 -1470h-147z" />
<glyph unicode="&#xfb03;" horiz-adv-x="1273" d="M63 0l160 922h-121l27 149h121l31 184q18 115 86.5 175.5t179.5 60.5q25 0 69 -4l-28 -162q-53 4 -60 4q-88 0 -108 -125l-23 -133h287l31 184q18 115 86.5 175.5t179.5 60.5q25 0 70 -4l-29 -162q-53 4 -59 4q-88 0 -109 -125l-23 -133h148l-27 -149h-147l-160 -922 h-147l159 922h-286l-160 -922h-148zM932 0l186 1071h148l-187 -1071h-147zM1135 1243l34 197h177l-35 -197h-176z" />
<glyph unicode="&#xfb04;" horiz-adv-x="1273" d="M63 0l160 922h-121l27 149h121l31 184q18 115 86.5 175.5t179.5 60.5q25 0 69 -4l-28 -162q-53 4 -60 4q-88 0 -108 -125l-23 -133h287l31 184q18 115 86.5 175.5t179.5 60.5q25 0 70 -4l-29 -162q-53 4 -59 4q-88 0 -109 -125l-23 -133h148l-27 -149h-147l-160 -922 h-147l159 922h-286l-160 -922h-148zM932 0l256 1470h147l-256 -1470h-147z" />
<glyph unicode=" "  horiz-adv-x="466" />
<glyph unicode="&#x09;" horiz-adv-x="466" />
<glyph unicode="&#xa0;" horiz-adv-x="466" />
<glyph unicode="!" horiz-adv-x="466" d="M70 0l36 209h162l-37 -209h-161zM170 350l72 635l84 485h161l-84 -485l-151 -635h-82z" />
<glyph unicode="&#x22;" horiz-adv-x="595" d="M201 948l90 522h123l-90 -522h-123zM440 948l90 522h123l-90 -522h-123z" />
<glyph unicode="#" d="M41 430l37 129h174l82 291h-172l37 129h172l125 430h112l-125 -430h209l123 430h113l-123 -430h172l-37 -129h-174l-84 -291h174l-39 -129h-172l-123 -430h-112l125 430h-211l-123 -430h-111l123 430h-172zM362 559h209l82 291h-207z" />
<glyph unicode="$" d="M35 272q0 49 14 164h148q-8 -98 -9 -131q0 -86 39 -129t138 -65l94 542q-162 49 -224.5 118t-62.5 194q0 193 121 336t305 155l23 131h79l-22 -131q145 -23 210.5 -93.5t65.5 -195.5q0 -27 -4 -100h-143q2 18 2 47q0 82 -36 125t-122 68l-86 -490q190 -72 248.5 -129 t58.5 -180q0 -225 -124.5 -378t-331.5 -169l-33 -197h-80l35 197q-164 18 -233.5 95t-69.5 216zM326 1020q0 -141 166 -182l79 469q-109 -6 -177 -90t-68 -197zM442 111q121 6 196 97t75 214q0 59 -25.5 107.5t-69.5 66.5l-86 35z" />
<glyph unicode="%" horiz-adv-x="1492" d="M164 909q0 205 91 359.5t241 154.5q201 0 200 -252q0 -209 -92 -361.5t-242 -152.5q-198 0 -198 252zM279 -39l921 1479h92l-921 -1479h-92zM281 911q0 -145 100 -145q90 0 144.5 123t54.5 280q0 145 -101 146q-88 0 -143 -122t-55 -282zM879 238q0 205 91 359.5 t240 154.5q201 0 201 -252q0 -205 -92 -359.5t-240 -154.5q-200 0 -200 252zM995 240q0 -145 103 -146q88 0 142 123t54 281q0 145 -100 145q-90 0 -144.5 -121.5t-54.5 -281.5z" />
<glyph unicode="&#x26;" horiz-adv-x="1120" d="M47 272q0 188 96 324q39 57 94.5 102t168.5 119q-78 158 -78 250q0 164 104.5 283.5t247.5 119.5q102 0 161.5 -63.5t59.5 -171.5q0 -129 -63.5 -231.5t-227.5 -221.5l166 -319q49 102 88 229h140q-45 -184 -162 -375l157 -317h-190l-84 168q-100 -111 -186 -155 t-197 -44q-141 0 -218 79t-77 224zM199 317q0 -84 52 -138t132 -54q147 0 285 164l-201 405q-174 -121 -221 -196t-47 -181zM477 1118q0 -94 78 -219q104 78 151.5 146.5t47.5 152.5q0 55 -29 86t-80 31q-72 0 -120 -57.5t-48 -139.5z" />
<glyph unicode="'" horiz-adv-x="321" d="M182 948l90 522h123l-90 -522h-123z" />
<glyph unicode="(" horiz-adv-x="559" d="M100 252q0 311 105.5 597t372.5 652h102q-143 -233 -207.5 -364t-110.5 -281q-113 -356 -112 -659q0 -217 96 -621h-98q-86 233 -117 375.5t-31 300.5z" />
<glyph unicode=")" horiz-adv-x="559" d="M-96 -424q143 233 207.5 364.5t109.5 280.5q113 360 113 660q0 215 -96 620h98q86 -233 116.5 -375.5t30.5 -300.5q0 -309 -105.5 -595.5t-371.5 -653.5h-102z" />
<glyph unicode="*" horiz-adv-x="653" d="M195 1210l53 113l162 -78l41 225h100l-39 -225l188 78l15 -113l-193 -69l78 -189l-94 -69l-74 192l-143 -192l-70 69l146 189z" />
<glyph unicode="+" horiz-adv-x="980" d="M125 453v118h319v320h119v-320h318v-118h-318v-318h-119v318h-319z" />
<glyph unicode="," horiz-adv-x="466" d="M12 -301l17 94q88 12 125 207h-88l36 217h174l-34 -201q-52 -282 -230 -317z" />
<glyph unicode="-" horiz-adv-x="559" d="M76 475l33 184h409l-33 -184h-409z" />
<glyph unicode="." horiz-adv-x="466" d="M63 0l39 217h174l-38 -217h-175z" />
<glyph unicode="/" horiz-adv-x="466" d="M-117 -39l682 1548h111l-680 -1548h-113z" />
<glyph unicode="0" d="M76 406q0 252 65.5 484t196.5 391t299 159q303 0 303 -451q0 -180 -47 -383t-121 -352q-150 -293 -393 -293q-147 0 -225 114t-78 331zM233 408q0 -137 45.5 -211t129.5 -74q111 0 199.5 139t131.5 335t43 394q0 137 -45 212t-129 75q-82 0 -154.5 -80t-119.5 -206 t-74 -279t-27 -305z" />
<glyph unicode="1" d="M266 1022l25 143q168 12 235.5 63.5t128.5 211.5h117l-250 -1440h-160l179 1022h-275z" />
<glyph unicode="2" d="M-39 0q41 201 130 337t247 234l176 111q104 66 148.5 102.5t72.5 83.5q57 92 58 207q0 96 -51.5 149.5t-141.5 53.5q-115 0 -186.5 -84t-112.5 -270h-149q106 516 491 516q143 0 227 -89t84 -239q0 -193 -104 -340q-45 -63 -108.5 -112.5t-196.5 -131.5l-135 -82 q-213 -127 -252 -276h641l-29 -170h-809z" />
<glyph unicode="3" d="M43 297q0 68 8 143h154q-8 -59 -8 -112q0 -98 53 -151.5t149 -53.5q133 0 224.5 100.5t91.5 245.5q0 98 -59.5 147.5t-157.5 49.5h-23q-29 -2 -65 -2l26 155q45 -4 78 -4q119 0 194.5 79t75.5 206q0 84 -48 131t-136 47q-111 0 -176.5 -72.5t-106.5 -236.5h-145 q96 471 459 471q145 0 228 -79t83 -218q0 -133 -57.5 -235.5t-157.5 -145.5q82 -41 117 -97.5t35 -146.5q0 -225 -146.5 -391t-363.5 -166q-154 0 -240 88t-86 248z" />
<glyph unicode="4" d="M20 350l31 176l701 914h122l-163 -934h174l-27 -156h-174l-61 -350h-148l62 350h-517zM184 506h379l115 659z" />
<glyph unicode="5" d="M31 285q0 45 2 73h153q-2 -14 -2 -41q0 -92 54.5 -146t146.5 -54q131 0 226.5 120.5t95.5 290.5q0 109 -57.5 173.5t-153.5 64.5q-125 0 -244 -137l-127 8l223 772h613l-31 -176h-502l-119 -395q119 90 244 90q139 0 228 -99.5t89 -255.5q0 -244 -148.5 -428t-371.5 -184 q-152 0 -235.5 85t-83.5 239z" />
<glyph unicode="6" d="M70 389q0 150 37.5 332t97.5 321q82 193 200.5 295.5t260.5 102.5q127 0 205.5 -82t78.5 -213q0 -18 -4 -88h-145q0 115 -38 168t-122 53q-129 0 -226.5 -139.5t-152.5 -405.5q125 184 309 185q137 0 221.5 -94.5t84.5 -245.5q0 -244 -147.5 -430.5t-344.5 -186.5 q-152 0 -233.5 111.5t-81.5 316.5zM223 360q0 -109 53.5 -173t143.5 -64q121 0 210 121t89 286q0 109 -50.5 167.5t-142.5 58.5q-127 0 -215 -116t-88 -280z" />
<glyph unicode="7" d="M147 0q92 307 273.5 626.5t425.5 606.5h-651l30 176h817l-26 -158q-461 -504 -705 -1251h-164z" />
<glyph unicode="8" d="M41 289q0 334 272 475q-117 72 -116 209q0 182 126 324.5t306 142.5q143 0 225 -80t82 -217q0 -258 -211 -377q141 -92 141 -262q0 -215 -139 -379t-342 -164q-156 0 -250 90.5t-94 237.5zM205 338q0 -104 53 -159.5t156 -55.5q131 0 211 95t80 251q0 96 -53.5 151.5 t-147.5 55.5q-127 0 -213 -97.5t-86 -240.5zM352 1006q0 -76 48.5 -125.5t123.5 -49.5q104 0 180 82t76 195q0 80 -49 125t-133 45q-106 0 -176 -77.5t-70 -194.5z" />
<glyph unicode="9" d="M55 258q0 33 6 88h148q-2 -25 -2 -59q0 -82 43 -129t119 -47q117 0 202.5 114.5t178.5 440.5q-113 -184 -310 -185q-137 0 -217 92.5t-80 249.5q0 246 139.5 431.5t340.5 185.5q154 0 235.5 -104.5t81.5 -303.5q0 -172 -50 -382t-130 -367q-162 -322 -418 -322 q-131 0 -209 81t-78 216zM299 850q0 -207 186 -207q131 0 215 122t84 296q0 102 -49 159.5t-139 57.5q-125 0 -211 -124t-86 -304z" />
<glyph unicode=":" horiz-adv-x="466" d="M63 0l39 217h174l-36 -217h-177zM211 840l37 217h176l-39 -217h-174z" />
<glyph unicode=";" horiz-adv-x="466" d="M12 -301l17 94q88 12 125 207h-88l36 217h177l-37 -201q-52 -282 -230 -317zM211 840l39 217h174l-37 -217h-176z" />
<glyph unicode="&#x3c;" horiz-adv-x="980" d="M195 471v82l573 604v-172l-449 -473l449 -473v-172z" />
<glyph unicode="=" horiz-adv-x="980" d="M125 268v119h756v-119h-756zM125 637v119h756v-119h-756z" />
<glyph unicode="&#x3e;" horiz-adv-x="980" d="M195 39l448 473l-448 473v172l573 -604v-82l-573 -604v172z" />
<glyph unicode="?" d="M188 1010q29 137 60 206.5t88 131.5q135 141 311 141q135 0 215 -84t80 -225q0 -129 -43 -212t-182 -218q-117 -113 -153 -176.5t-58 -198.5h-148q29 160 70 237.5t166 202.5q117 119 145 168q43 74 43 170q0 86 -44 133t-124 47q-111 0 -178 -78.5t-100 -244.5h-148z M289 0l37 209h163l-36 -209h-164z" />
<glyph unicode="@" horiz-adv-x="1703" d="M279 573q0 238 110.5 455t293.5 349t382 132q205 0 339 -144t134 -368q0 -166 -80 -334.5t-201.5 -276t-236.5 -107.5q-37 0 -60.5 26.5t-23.5 69.5q0 20 2 35q-129 -131 -233 -131q-82 0 -136.5 69.5t-54.5 177.5q0 139 70.5 290t187.5 253t236 102q66 0 104.5 -36.5 t58.5 -122.5l56 127h114l-137 -336l-69 -168q-27 -63 -41.5 -102t-18.5 -56.5t-4 -32.5q0 -33 27 -32q109 0 218 186t109 373q0 182 -106.5 296.5t-276.5 114.5q-166 0 -314 -111.5t-237.5 -295.5t-89.5 -389q0 -219 118 -358.5t304 -139.5q231 0 451 234h112 q-260 -360 -589 -361q-227 0 -372.5 172t-145.5 440zM655 569q0 -66 30 -104.5t79 -38.5q96 0 212 152.5t116 300.5q0 63 -30 102t-79 43q-104 0 -216 -151.5t-112 -303.5z" />
<glyph unicode="A" horiz-adv-x="1120" d="M-59 0l710 1470h185l180 -1470h-178l-45 428h-484l-200 -428h-168zM391 604h375l-68 653z" />
<glyph unicode="B" horiz-adv-x="1120" d="M43 0l256 1470h530q133 0 208 -76.5t75 -211.5q0 -258 -221 -389q90 -49 127 -108.5t37 -156.5q0 -221 -143.5 -374.5t-350.5 -153.5h-518zM236 170h346q137 0 222 92t85 238q0 186 -244 186h-319zM352 848h295q145 0 221 79t76 216q0 158 -217 157h-295z" />
<glyph unicode="C" horiz-adv-x="1212" d="M98 496q0 420 207 716.5t512 296.5q188 0 300 -115.5t112 -312.5q0 -31 -2 -53h-158q-12 305 -281 305q-221 0 -370.5 -234.5t-149.5 -576.5q0 -186 78 -285.5t225 -99.5q139 0 243 94.5t183 309.5h158q-63 -176 -117.5 -268.5t-136.5 -163.5q-170 -147 -375 -148 q-201 0 -314.5 142.5t-113.5 392.5z" />
<glyph unicode="D" horiz-adv-x="1212" d="M53 0l256 1470h490q188 0 294.5 -133t106.5 -370q0 -246 -83 -466t-237.5 -360.5t-342.5 -140.5h-484zM246 170h315q201 0 335 229.5t134 544.5q0 172 -72.5 264t-209.5 92h-306z" />
<glyph unicode="E" horiz-adv-x="1120" d="M63 0l256 1470h879l-31 -176h-714l-80 -450h661l-30 -176h-662l-84 -492h727l-31 -176h-891z" />
<glyph unicode="F" horiz-adv-x="1026" d="M63 0l256 1470h834l-31 -176h-671l-78 -450h590l-31 -176h-590l-117 -668h-162z" />
<glyph unicode="G" horiz-adv-x="1306" d="M104 504q0 262 98.5 493.5t266.5 371.5t360.5 140t311.5 -120.5t119 -315.5v-49h-158q-23 309 -299 309q-221 0 -374 -236.5t-153 -580.5q0 -385 320 -385q168 0 291 120t168 365h-375l29 170h528l-135 -786h-107l-6 190q-195 -229 -446 -229q-211 0 -325 158t-114 385z " />
<glyph unicode="H" horiz-adv-x="1212" d="M47 0l256 1470h164l-107 -608h631l105 608h164l-256 -1470h-164l121 686h-631l-119 -686h-164z" />
<glyph unicode="I" horiz-adv-x="466" d="M72 0l256 1470h161l-256 -1470h-161z" />
<glyph unicode="J" horiz-adv-x="839" d="M-2 246q0 41 6 82l27 145h151l-16 -102q-10 -66 -8 -86q0 -154 147 -154q190 0 236 254l190 1085h162l-186 -1073q-37 -209 -147.5 -322.5t-276.5 -113.5q-137 0 -211 74t-74 211z" />
<glyph unicode="K" horiz-adv-x="1120" d="M45 0l256 1470h164l-125 -712l709 712h225l-606 -593l362 -877h-211l-293 737l-229 -221l-88 -516h-164z" />
<glyph unicode="L" d="M45 0l256 1470h164l-225 -1294h610l-31 -176h-774z" />
<glyph unicode="M" horiz-adv-x="1398" d="M41 0l256 1470h233l129 -1249l562 1249h231l-256 -1470h-158l152 868l70 379l-562 -1247h-159l-127 1245l-47 -282q-8 -45 -15 -95l-151 -868h-158z" />
<glyph unicode="N" horiz-adv-x="1212" d="M45 0l256 1470h195l397 -1194l209 1194h158l-256 -1470h-185l-407 1194l-209 -1194h-158z" />
<glyph unicode="O" horiz-adv-x="1306" d="M94 535q0 250 95.5 473t267.5 362t377 139q223 0 347 -150.5t124 -424.5q0 -246 -94.5 -468t-266.5 -363.5t-379 -141.5q-225 0 -348 151t-123 423zM264 561q0 -199 88 -311.5t242 -112.5q223 0 382 229.5t159 544.5q0 197 -88.5 309.5t-243.5 112.5q-223 0 -381 -226.5 t-158 -545.5z" />
<glyph unicode="P" horiz-adv-x="1120" d="M63 0l256 1470h543q135 0 214 -83.5t79 -229.5q0 -215 -127 -375.5t-315 -160.5h-379l-109 -621h-162zM365 791h323q143 0 220 92t77 241q0 176 -203 176h-329z" />
<glyph unicode="Q" horiz-adv-x="1306" d="M94 535q0 248 94.5 471t266.5 363t379 140q227 0 349 -151.5t122 -423.5q0 -442 -293 -774l137 -156l-102 -119l-154 174q-156 -98 -328 -98q-227 0 -349 152t-122 422zM264 561q0 -199 88 -311.5t244 -112.5q92 0 186 47l-106 119l104 123l127 -145q227 252 228 626 q0 199 -88.5 312.5t-241.5 113.5q-223 0 -382 -226.5t-159 -545.5z" />
<glyph unicode="R" horiz-adv-x="1212" d="M66 0l256 1470h559q164 0 250 -74.5t86 -217.5q0 -293 -238 -455q59 -35 80.5 -72t21.5 -112q0 -45 -6 -93l-37 -266q-6 -43 -6 -69q0 -43 41 -78l-6 -33h-201v35q0 117 37 334q10 68 10 102q0 160 -180 160h-395l-109 -631h-163zM369 801h376q145 0 221 89t76 240 q0 170 -180 170h-407z" />
<glyph unicode="S" horiz-adv-x="1120" d="M70 322q0 68 14 153h154q-8 -49 -9 -94q0 -117 76 -183.5t209 -66.5q166 0 263 85t97 228q0 74 -47 116t-172 79l-233 70q-205 61 -205 264q0 219 146.5 377.5t369.5 158.5q180 0 280.5 -91t100.5 -253q0 -59 -8 -125h-154q4 53 4 68q0 106 -67.5 168.5t-183.5 62.5 q-141 0 -231.5 -85t-90.5 -218q0 -109 115 -141l325 -96q215 -61 215 -295q0 -242 -156.5 -392.5t-406.5 -150.5q-190 0 -297.5 100.5t-107.5 260.5z" />
<glyph unicode="T" horiz-adv-x="1026" d="M168 1294l31 176h979l-31 -176h-408l-225 -1294h-164l225 1294h-407z" />
<glyph unicode="U" horiz-adv-x="1212" d="M125 360q0 76 10 129l172 981h162l-160 -925q-12 -66 -12 -131q0 -133 64.5 -205t185.5 -72q150 0 249 105.5t134 298.5l164 929h161l-165 -954q-45 -254 -202 -404.5t-378 -150.5q-184 0 -284.5 104.5t-100.5 294.5z" />
<glyph unicode="V" horiz-adv-x="1120" d="M209 1470h182l125 -1259l563 1259h183l-697 -1470h-172z" />
<glyph unicode="W" horiz-adv-x="1585" d="M201 0v1470h192v-1204l484 1204h239v-1204l436 1204h181l-574 -1470h-235v1227l-494 -1227h-229z" />
<glyph unicode="X" horiz-adv-x="1120" d="M-49 0l561 754l-279 716h205l207 -563l404 563h194l-528 -716l291 -754h-201l-219 604l-439 -604h-196z" />
<glyph unicode="Y" horiz-adv-x="1120" d="M199 1470h190l221 -706l471 706h191l-608 -878l-103 -592h-164l103 592z" />
<glyph unicode="Z" horiz-adv-x="1026" d="M-43 0l29 166l936 1128h-684l30 176h893l-31 -172l-935 -1122h741l-31 -176h-948z" />
<glyph unicode="[" horiz-adv-x="466" d="M-47 -401l328 1880h315l-25 -146h-182l-278 -1589h182l-25 -145h-315z" />
<glyph unicode="\" horiz-adv-x="466" d="M154 1509h110l144 -1548h-113z" />
<glyph unicode="]" horiz-adv-x="466" d="M-104 -401l24 145h182l277 1589h-182l26 146h314l-328 -1880h-313z" />
<glyph unicode="^" horiz-adv-x="788" d="M-10 541l508 868h120l205 -868h-129l-164 704l-409 -704h-131z" />
<glyph unicode="_" d="M-127 -256l18 102h934l-18 -102h-934z" />
<glyph unicode="`" horiz-adv-x="559" d="M180 1485h203l80 -289h-113z" />
<glyph unicode="a" d="M20 207q0 162 91.5 274.5t240.5 132.5l250 37q102 16 103 168q0 133 -177 133q-96 0 -151 -47t-90 -160h-135q80 356 413 357q137 0 214 -62.5t77 -173.5q0 -33 -6 -63l-111 -639q0 -41 39 -41q18 0 53 8l-24 -131l-19 -6q-39 -14 -69 -14q-127 0 -127 114q0 12 4 49 q-166 -174 -342 -174q-109 0 -171.5 63.5t-62.5 174.5zM178 248q0 -129 129 -129q113 0 207 74.5t113 177.5l30 176q-39 -33 -256 -68q-117 -20 -170 -75.5t-53 -155.5z" />
<glyph unicode="b" d="M16 0l256 1470h148l-94 -538q74 90 141.5 130t148.5 40q131 0 207 -100.5t76 -274.5q0 -184 -62.5 -357t-180 -287t-259.5 -114q-84 0 -134 39t-83 131l-24 -139h-140zM231 367q0 -111 51.5 -176.5t137.5 -65.5q141 0 233 178t92 410q0 109 -48 168t-138 59 q-100 0 -177 -92t-114 -220t-37 -261z" />
<glyph unicode="c" horiz-adv-x="839" d="M43 352q0 301 153.5 525.5t383.5 224.5q125 0 196.5 -81t71.5 -222q0 -18 -4 -88h-144q-4 125 -41.5 177t-126.5 52q-143 0 -236 -171t-93 -400q0 -244 180 -244q168 0 260 254h143q-127 -410 -430 -410q-145 0 -229 101.5t-84 281.5z" />
<glyph unicode="d" d="M59 379q0 301 137.5 512t335.5 211q90 0 145.5 -45t88.5 -148l98 561h148l-256 -1470h-140l27 154q-66 -100 -131.5 -142.5t-155.5 -42.5q-143 0 -220 106.5t-77 303.5zM211 381q0 -121 46 -188.5t128 -67.5q139 0 232.5 154.5t93.5 404.5q0 256 -181 256 q-102 0 -176.5 -85t-108.5 -208t-34 -266z" />
<glyph unicode="e" d="M59 352q0 301 153 525.5t380 224.5q152 0 224.5 -106.5t72.5 -270.5q0 -90 -23 -248h-641q-12 -76 -12 -127q0 -104 53 -164.5t148 -60.5q90 0 165.5 59.5t102.5 151.5h147q-57 -174 -175.5 -270.5t-272.5 -96.5t-238 100.5t-84 282.5zM250 621h489q4 74 4 96 q0 102 -50 162.5t-136 60.5q-106 0 -190 -88t-117 -231z" />
<glyph unicode="f" horiz-adv-x="466" d="M63 0l160 922h-121l27 149h121l31 184q18 115 86.5 175.5t179.5 60.5q25 0 69 -4l-28 -162q-53 4 -60 4q-88 0 -108 -125l-23 -133h148l-27 -149h-147l-160 -922h-148z" />
<glyph unicode="g" d="M-12 -131h147q4 -90 44 -130t124 -40q133 0 208 83t110 294l8 43q-111 -150 -269 -150q-139 0 -216.5 107.5t-77.5 300.5q0 303 138 514t335 211q88 0 141 -42t94 -147l29 158h139l-172 -983q-47 -279 -170 -409t-328 -130q-143 0 -213.5 72t-70.5 227v21zM217 379 q0 -119 46 -186.5t130 -67.5q139 0 232.5 154.5t93.5 404.5q0 256 -182 256q-152 0 -236 -167t-84 -394z" />
<glyph unicode="h" d="M27 0l256 1470h149l-96 -546q82 100 147.5 139t153.5 39q115 0 179.5 -68.5t64.5 -193.5q0 -45 -11 -111l-127 -729h-147l121 700q10 55 10 99q0 141 -139 141q-119 0 -201 -93t-111 -263l-102 -584h-147z" />
<glyph unicode="i" horiz-adv-x="372" d="M31 0l186 1071h148l-187 -1071h-147zM233 1243l35 197h176l-34 -197h-177z" />
<glyph unicode="j" horiz-adv-x="372" d="M-182 -424l26 156h31q70 0 92.5 22.5t38.5 108.5l211 1208h148l-213 -1229q-25 -139 -90.5 -205.5t-178.5 -66.5q-30 0 -65 6zM233 1243l35 197h176l-34 -197h-177z" />
<glyph unicode="k" horiz-adv-x="839" d="M31 0l256 1470h143l-149 -852l456 453h189l-406 -399l240 -672h-191l-178 541l-147 -135l-70 -406h-143z" />
<glyph unicode="l" horiz-adv-x="372" d="M31 0l256 1470h147l-256 -1470h-147z" />
<glyph unicode="m" horiz-adv-x="1398" d="M27 0l186 1071h141l-28 -158q76 100 146.5 144.5t158.5 44.5q82 0 129 -41t71 -133q96 102 156 138t139 36q104 0 164 -67.5t60 -186.5q0 -49 -11 -107l-129 -741h-147l121 692q8 43 8 101q0 147 -125 147q-88 0 -163 -83t-97 -204l-115 -653h-147l129 741q6 31 6 64 q0 135 -107 135q-109 0 -188.5 -96t-108.5 -260l-102 -584h-147z" />
<glyph unicode="n" d="M27 0l186 1071h139l-26 -158q78 100 150.5 144.5t162.5 44.5q113 0 177.5 -69.5t64.5 -192.5q0 -45 -11 -111l-127 -729h-147l115 659q10 68 10 123q0 158 -141 158q-113 0 -194 -95t-110 -261l-102 -584h-147z" />
<glyph unicode="o" d="M57 387q0 279 152.5 497t368.5 218q150 0 235.5 -109.5t85.5 -304.5q0 -279 -152.5 -498t-367.5 -219q-152 0 -237 110.5t-85 305.5zM211 406q0 -135 50 -207t147 -72q141 0 239 166t98 373q0 135 -51 207.5t-145 72.5q-141 0 -239.5 -164.5t-98.5 -375.5z" />
<glyph unicode="p" d="M-59 -424l260 1495h141l-29 -158q80 106 146.5 147.5t156.5 41.5q131 0 207 -100.5t76 -274.5q0 -184 -62.5 -357t-180 -287t-259.5 -114q-158 0 -213 150l-96 -543h-147zM231 365q0 -109 51.5 -174.5t137.5 -65.5q137 0 231 176t94 412q0 109 -48 168t-138 59 q-102 0 -180 -96t-113 -224t-35 -255z" />
<glyph unicode="q" d="M59 379q0 301 137.5 512t335.5 211q88 0 140.5 -42t95.5 -147l27 158h139l-260 -1495h-148l95 543q-111 -150 -267 -150q-141 0 -218 107.5t-77 302.5zM211 381q0 -121 46 -188.5t128 -67.5q143 0 234.5 156.5t91.5 404.5q0 254 -181 254q-150 0 -234.5 -163t-84.5 -396z " />
<glyph unicode="r" horiz-adv-x="559" d="M47 0l186 1071h140l-33 -184q80 117 145.5 166t143.5 49q18 0 37 -6l-33 -187h-55q-96 0 -175 -80.5t-100 -205.5l-108 -623h-148z" />
<glyph unicode="s" horiz-adv-x="839" d="M25 238q0 49 8 106h143q-4 -45 -4 -59q0 -76 50 -118t143 -42q104 0 171.5 55.5t67.5 143.5q0 43 -33.5 70.5t-117.5 54.5l-162 51q-162 51 -162 200q0 168 115.5 285t283.5 117q129 0 204 -70.5t75 -195.5q0 -12 -4 -70h-144q4 37 5 45q0 63 -45.5 99t-124.5 36 q-94 0 -153.5 -51t-59.5 -133q0 -41 27.5 -63.5t107.5 -47.5l141 -45q106 -35 154.5 -87t48.5 -132q0 -174 -124 -296t-300 -122q-150 0 -230.5 71t-80.5 198z" />
<glyph unicode="t" horiz-adv-x="466" d="M90 129q0 47 8 86l123 707h-119l27 149h119l51 299h150l-54 -299h142l-27 -149h-141l-121 -697q-2 -8 -2 -24q0 -59 76 -60h53l-25 -141q-115 -14 -123 -14q-137 0 -137 143z" />
<glyph unicode="u" d="M76 211q0 49 8 90l133 770h150l-125 -711q-6 -39 -6 -81q0 -154 137 -154q111 0 192.5 96t110.5 260l102 590h148l-187 -1071h-139l29 166q-78 -111 -146.5 -154t-165.5 -43q-115 0 -178 63.5t-63 178.5z" />
<glyph unicode="v" horiz-adv-x="839" d="M119 1071h172l76 -878l403 878h162l-520 -1071h-160z" />
<glyph unicode="w" horiz-adv-x="1212" d="M129 1071h182v-850l320 850h190v-850l328 850h147l-442 -1071h-186v838l-320 -838h-151z" />
<glyph unicode="x" horiz-adv-x="839" d="M-63 0l405 551l-205 520h191l137 -377l270 377h180l-387 -520l213 -551h-188l-147 403l-283 -403h-186z" />
<glyph unicode="y" horiz-adv-x="839" d="M-57 -422l28 164q43 -18 86 -18q47 0 74 26.5t70 110.5l55 110l-133 1100h168l82 -878l389 878h164l-500 -1051q-84 -172 -127 -251.5t-91 -133t-86 -63.5t-108 -10q-27 0 -59 12z" />
<glyph unicode="z" horiz-adv-x="839" d="M-31 0l25 141l665 781h-489l27 149h680l-27 -147l-657 -774h538l-26 -150h-736z" />
<glyph unicode="{" horiz-adv-x="561" d="M72 479l20 123q59 2 110.5 75t71.5 185l62 352q20 115 81.5 190t135.5 75h113l-23 -133h-74q-78 0 -106 -168l-62 -349q-16 -94 -77.5 -181t-124.5 -107q106 -57 106 -224q0 -39 -6 -71l-59 -346q-8 -41 -9 -80q0 -88 56 -88h73l-22 -133h-113q-57 0 -94 53t-37 137 q0 37 6 74l62 350q6 43 6 92q0 160 -96 174z" />
<glyph unicode="|" horiz-adv-x="436" d="M172 -401v1880h119v-1880h-119z" />
<glyph unicode="}" horiz-adv-x="561" d="M-82 -401l23 133h75q78 0 107 168l59 346q16 100 75.5 185t129.5 110q-109 49 -108 223q0 31 6 65l61 349q4 20 6 51l2 31q0 86 -57 86h-74l23 133h112q59 0 96.5 -53.5t37.5 -137.5q0 -37 -7 -74l-61 -352q-10 -49 -8 -88q0 -158 98 -172l-20 -123q-59 -2 -110.5 -75.5 t-74.5 -190.5l-61 -350q-20 -113 -82 -188.5t-135 -75.5h-113z" />
<glyph unicode="~" horiz-adv-x="980" d="M104 483q111 176 240 176q41 0 82 -17t137 -75q76 -47 119 -47q57 0 139 105l72 -78q-70 -96 -125 -136t-119 -40q-66 0 -157 67q-98 72 -177 72q-74 0 -143 -100z" />
<glyph unicode="&#xa1;" horiz-adv-x="466" d="M2 -399l84 485l152 635h81l-71 -635l-84 -485h-162zM221 862l37 209h162l-37 -209h-162z" />
<glyph unicode="&#xa2;" d="M78 346q0 201 66.5 373t189.5 277.5t274 105.5q43 0 72 -12l76 186h65l-78 -205q156 -74 156 -295q0 -41 -2 -69h-137q-4 92 -21.5 139t-56.5 69l-324 -790q25 -8 56 -8q102 0 166.5 57t121.5 201h144q-63 -201 -179 -307.5t-270 -106.5q-31 0 -102 14l-88 -211h-70 l99 234q-158 121 -158 348zM229 389q0 -156 72 -229l320 780q-18 6 -39 6q-150 0 -251.5 -170t-101.5 -387z" />
<glyph unicode="&#xa3;" d="M0 119q135 102 205.5 217t70.5 215q0 39 -10 98h-180l23 129h116q-31 131 -30 199q0 205 141 349t342 144q147 0 226 -86t79 -247q0 -59 -8 -103l-6 -30h-148l2 18q6 37 6 74q0 102 -50 160.5t-138 58.5q-115 0 -200 -92.5t-85 -218.5q0 -70 39 -226h283l-23 -129h-233 q2 -14 2 -35q0 -143 -67.5 -255.5t-223.5 -233.5q141 84 246 84q31 0 141.5 -36t128.5 -36q68 0 142 64l45 -135q-127 -98 -228 -99q-29 0 -167 46t-171 46q-84 0 -213 -82z" />
<glyph unicode="&#xa4;" d="M152 289l63 63q-55 84 -55 185q0 98 55 182l-63 63l84 84l63 -63q88 57 184 57q98 0 183 -57l65 63l84 -84l-65 -63q57 -88 57 -182q0 -96 -57 -185l65 -63l-84 -84l-65 63q-82 -55 -182.5 -55t-184.5 55l-63 -63zM279 537q0 -86 59 -145.5t145 -59.5q84 0 144.5 59.5 t60.5 145.5q0 84 -60.5 144t-144.5 60q-86 0 -145 -60t-59 -144z" />
<glyph unicode="&#xa5;" d="M55 379l21 117h321l31 174h-322l21 116h258l-215 623h166l188 -604l400 604h168l-433 -623h261l-21 -116h-324l-30 -174h323l-20 -117h-324l-65 -379h-148l66 379h-322z" />
<glyph unicode="&#xa6;" horiz-adv-x="436" d="M172 350h119v-751h-119v751zM172 727v752h119v-752h-119z" />
<glyph unicode="&#xa7;" d="M47 -125q0 41 10 119h148q-8 -43 -8 -82q0 -70 34.5 -109t98.5 -39q88 0 147.5 57.5t59.5 143.5q0 66 -68 131l-301 287q-72 68 -72 188q0 229 230 385q-49 88 -50 150q0 152 110 277.5t259 125.5q117 0 185.5 -68.5t68.5 -187.5q0 -41 -10 -118h-144q6 45 7 77 q0 66 -35 104t-94 38q-78 0 -134.5 -57.5t-56.5 -137.5q0 -82 92 -155l215 -177q133 -111 133 -252q0 -240 -237 -403q53 -90 53 -170q0 -158 -113.5 -275.5t-265.5 -117.5q-119 0 -190.5 72.5t-71.5 193.5zM244 629q0 -80 51 -125l272 -250q84 59 120 116.5t36 131.5 q0 92 -74 155l-254 220q-151 -92 -151 -248z" />
<glyph unicode="&#xa8;" horiz-adv-x="559" d="M160 1243l35 197h180l-35 -197h-180zM489 1243l35 197h181l-35 -197h-181z" />
<glyph unicode="&#xa9;" horiz-adv-x="1236" d="M53 674q0 289 163 500.5t415 211.5t414.5 -211.5t162.5 -500.5t-162.5 -501t-414.5 -212t-415 212t-163 501zM135 674q0 -254 138.5 -442.5t357.5 -188.5t357 188.5t138 442.5t-138 442.5t-357 188.5t-357.5 -188.5t-138.5 -442.5zM295 547q-4 227 118 387t302 160 q115 0 182.5 -63.5t69.5 -170.5q0 -20 -2 -37h-107q-6 162 -160 162q-127 0 -209.5 -122t-78.5 -300q2 -96 47 -147t127 -51q158 0 239 215h109q-61 -172 -152 -244q-102 -80 -223 -80t-190.5 77t-71.5 214z" />
<glyph unicode="&#xaa;" horiz-adv-x="620" d="M86 623l16 98h498l-18 -98h-496zM133 977q0 100 61.5 166.5t165.5 81.5l152 20q23 2 38 28.5t15 61.5q0 68 -110 68q-121 0 -152 -109h-90q51 215 266 215q90 0 141.5 -37.5t51.5 -107.5q0 -10 -4 -35l-64 -364v-15q0 -25 25 -24l33 4l-17 -90l-12 -4q-31 -6 -45 -7 q-82 0 -82 70q0 23 2 35q-106 -104 -221 -105q-70 0 -112 40t-42 108zM244 1008q0 -72 82 -72q74 0 130 43t68 108l15 80q-25 -20 -162 -41q-74 -10 -103.5 -37.5t-29.5 -80.5z" />
<glyph unicode="&#xab;" d="M164 473l33 189l307 251l-31 -180l-205 -166l148 -166l-33 -180zM508 473l33 189l307 251l-31 -180l-205 -166l146 -166l-31 -180z" />
<glyph unicode="&#xac;" horiz-adv-x="980" d="M125 637v119h756v-428h-119v309h-637z" />
<glyph unicode="&#xad;" horiz-adv-x="559" d="M76 475l33 184h409l-33 -184h-409z" />
<glyph unicode="&#xae;" horiz-adv-x="1236" d="M53 674q0 289 163 500.5t415 211.5t414.5 -211.5t162.5 -500.5t-162.5 -501t-414.5 -212t-415 212t-163 501zM135 674q0 -254 138.5 -442.5t357.5 -188.5t357 188.5t138 442.5t-138 442.5t-357 188.5t-357.5 -188.5t-138.5 -442.5zM291 276l139 797h334q201 0 205 -162 q2 -156 -127 -241q53 -29 55 -99q0 -16 -4 -49l-19 -141q-2 -16 -2 -36.5t25 -39.5l-4 -20q0 -8 -8 -9h-125v25q0 72 18 178q6 33 6 53q-4 80 -100 80h-223l-60 -336h-110zM479 717h213q80 0 121 45t39 121q0 84 -100 84h-230z" />
<glyph unicode="&#xaf;" horiz-adv-x="559" d="M158 1284l20 117h527l-21 -117h-526z" />
<glyph unicode="&#xb0;" horiz-adv-x="671" d="M201 1075q0 145 92 255t213 110q88 0 143.5 -64.5t55.5 -169.5q0 -143 -91.5 -253.5t-212.5 -110.5q-90 0 -145 64.5t-55 168.5zM285 1100q0 -72 37.5 -121t93.5 -49q76 0 140.5 80t64.5 172q0 72 -38 121t-94 49q-76 0 -140 -80t-64 -172z" />
<glyph unicode="&#xb1;" horiz-adv-x="980" d="M125 0v119h756v-119h-756zM125 571v119h319v320h119v-320h318v-119h-318v-317h-119v317h-319z" />
<glyph unicode="&#xb2;" horiz-adv-x="559" d="M25 575q27 121 83 203t152 140l113 67q78 47 104.5 67.5t42.5 47.5q35 51 35 129q0 53 -33 83.5t-88 30.5q-72 0 -117 -51t-69 -162h-101q61 332 320 332q94 0 149.5 -60.5t55.5 -162.5q0 -111 -53.5 -188.5t-202.5 -159.5l-84 -47q-102 -59 -160 -144h412l-23 -125h-536 z" />
<glyph unicode="&#xb3;" horiz-adv-x="559" d="M70 784q0 16 4 78h114q-4 -45 -4 -57q0 -133 121 -133q86 0 137.5 56t51.5 151q0 57 -35 82.5t-117 25.5h-39l19 105h45q76 0 119.5 44t43.5 117q0 90 -114 90q-66 0 -106 -37.5t-60 -125.5h-103q61 283 299 282q94 0 149.5 -49t55.5 -133q0 -80 -36.5 -139.5 t-102.5 -85.5q57 -23 79.5 -56.5t22.5 -93.5q0 -147 -96 -249.5t-235 -102.5q-100 0 -156.5 61t-56.5 170z" />
<glyph unicode="&#xb4;" horiz-adv-x="559" d="M350 1196l180 289h203l-270 -289h-113z" />
<glyph unicode="&#xb5;" d="M-41 -424l260 1495h148l-123 -711q-10 -63 -8 -81q0 -154 137 -154q109 0 191.5 97t111.5 259l102 590h148l-187 -1071h-139l29 166q-78 -109 -146.5 -153t-163.5 -44q-92 0 -131 74l-82 -467h-147z" />
<glyph unicode="&#xb6;" horiz-adv-x="901" d="M129 1004q0 205 126 335.5t337 130.5h418l-320 -1824h-123l297 1702h-198l-299 -1702h-121l184 1059q-150 8 -225.5 87t-75.5 212z" />
<glyph unicode="&#xb7;" horiz-adv-x="466" d="M158 512q0 37 25.5 62.5t62.5 25.5t62.5 -25.5t25.5 -62.5t-25.5 -62.5t-62.5 -25.5t-62.5 25.5t-25.5 62.5z" />
<glyph unicode="&#xb8;" horiz-adv-x="559" d="M-78 -426l43 82q59 -31 101 -31q51 0 81.5 28t30.5 75q0 29 -19.5 48t-47.5 19q-39 0 -68 -10l-23 39l140 180h98l-80 -123h17q53 0 83.5 -35.5t30.5 -93.5q0 -94 -67.5 -158.5t-165.5 -64.5q-72 0 -154 45z" />
<glyph unicode="&#xb9;" horiz-adv-x="559" d="M197 1182l16 94q109 8 153 39t83 125h94l-152 -865h-119l107 607h-182z" />
<glyph unicode="&#xba;" horiz-adv-x="612" d="M86 623l16 98h498l-16 -98h-498zM156 1065q0 195 94 319.5t239 124.5q102 0 159 -61.5t57 -175.5q0 -190 -93.5 -316.5t-240.5 -126.5q-102 0 -158.5 61.5t-56.5 174.5zM270 1092q0 -156 119 -156q90 0 145.5 95t55.5 216q0 156 -119 156q-88 0 -144.5 -94t-56.5 -217z " />
<glyph unicode="&#xbb;" d="M119 221l31 180l206 166l-147 166l31 180l221 -251l-35 -189zM463 221l33 180l204 166l-147 166l31 180l221 -251l-33 -189z" />
<glyph unicode="&#xbc;" horiz-adv-x="1400" d="M168 -51l1001 1491h97l-1002 -1491h-96zM248 1188l14 88q109 8 153 39t83 125h90l-152 -865h-114l108 613h-182zM655 193l21 122l442 549h109l-99 -553h113l-20 -118h-113l-33 -193h-106l32 193h-346zM780 311h242l68 389z" />
<glyph unicode="&#xbd;" horiz-adv-x="1400" d="M106 -51l1004 1491h96l-1003 -1491h-97zM195 1182l16 94q111 8 154 37.5t81 126.5h95l-150 -865h-121l107 607h-182zM680 0q27 121 83 203t152 139l113 68q76 45 103.5 66.5t44.5 47.5q35 53 34 129q0 53 -32.5 84t-87.5 31q-72 0 -117 -51t-70 -162h-100q66 332 319 332 q94 0 149.5 -60.5t55.5 -162.5q0 -111 -53 -189t-203 -160l-84 -47q-100 -55 -160 -143h412l-22 -125h-537z" />
<glyph unicode="&#xbe;" horiz-adv-x="1400" d="M135 784q0 16 4 78h115q-4 -45 -4 -57q0 -133 121 -133q86 0 137 56t51 151q0 57 -35 82.5t-116 25.5h-39l18 105h45q76 0 120 44t44 117q0 90 -115 90q-66 0 -105.5 -37.5t-60.5 -125.5h-102q61 283 299 282q96 0 150.5 -48t54.5 -134q0 -170 -139 -225 q57 -23 79.5 -56.5t22.5 -91.5q0 -150 -96.5 -252t-235.5 -102q-100 0 -156.5 61t-56.5 170zM266 -51l1002 1491h96l-1002 -1491h-96zM745 193l21 122l442 549h107l-96 -553h112l-20 -118h-113l-33 -193h-108l35 193h-347zM870 311h242l68 389z" />
<glyph unicode="&#xbf;" d="M14 -109q0 129 43 212t183 219q117 113 152.5 176t58.5 198h147q-29 -160 -70 -237.5t-166 -202.5q-117 -119 -145 -168q-43 -74 -43 -170q0 -86 44 -133t124 -47q111 0 178.5 79t100.5 244h147q-29 -137 -59.5 -206.5t-87.5 -130.5q-135 -141 -312 -142q-135 0 -215 84 t-80 225zM467 862l37 209h164l-37 -209h-164z" />
<glyph unicode="&#xc0;" horiz-adv-x="1120" d="M-59 0l710 1470h185l180 -1470h-178l-45 428h-484l-200 -428h-168zM391 604h375l-68 653zM535 1843h202l86 -248h-112z" />
<glyph unicode="&#xc1;" horiz-adv-x="1120" d="M-59 0l710 1470h185l180 -1470h-178l-45 428h-484l-200 -428h-168zM391 604h375l-68 653zM709 1595l172 248h202l-262 -248h-112z" />
<glyph unicode="&#xc2;" horiz-adv-x="1120" d="M-59 0l710 1470h185l180 -1470h-178l-45 428h-484l-200 -428h-168zM391 604h375l-68 653zM489 1597l240 248h158l153 -248h-135l-114 150l-168 -150h-134z" />
<glyph unicode="&#xc3;" horiz-adv-x="1120" d="M-59 0l710 1470h185l180 -1470h-178l-45 428h-484l-200 -428h-168zM391 604h375l-68 653zM481 1602q35 115 86 167t127 52q51 0 109 -31l35 -18q49 -27 77 -27q61 0 97 94h84q-70 -223 -209 -223q-33 0 -92 26l-41 19q-70 31 -97 31q-57 0 -96 -90h-80z" />
<glyph unicode="&#xc4;" horiz-adv-x="1120" d="M-59 0l710 1470h185l180 -1470h-178l-45 428h-484l-200 -428h-168zM391 604h375l-68 653zM516 1622l35 197h180l-35 -197h-180zM846 1622l35 197h180l-35 -197h-180z" />
<glyph unicode="&#xc5;" horiz-adv-x="1120" d="M-59 0l710 1470h185l180 -1470h-178l-45 428h-484l-200 -428h-168zM391 604h375l-68 653zM588 1761q14 72 81.5 120t155.5 48q90 0 140.5 -48t35.5 -124q-12 -72 -79.5 -120t-155.5 -48q-90 0 -140 48t-38 124zM678 1761q-6 -41 22.5 -69.5t77.5 -28.5t88 27.5t45 66.5 q8 41 -21.5 69.5t-76.5 28.5t-87 -27.5t-48 -66.5z" />
<glyph unicode="&#xc6;" horiz-adv-x="1679" d="M-68 0l746 1470h1081l-30 -176h-656l-78 -450h598l-30 -176h-598l-86 -492h667l-30 -176h-830l74 428h-445l-206 -428h-177zM406 604h385l120 690h-161z" />
<glyph unicode="&#xc7;" horiz-adv-x="1212" d="M98 496q0 420 207 716.5t512 296.5q188 0 300 -115.5t112 -312.5q0 -31 -2 -53h-158q-12 305 -281 305q-221 0 -370.5 -234.5t-149.5 -576.5q0 -186 78 -285.5t225 -99.5q139 0 243 94.5t183 309.5h158q-63 -176 -117.5 -268.5t-136.5 -163.5q-139 -119 -299 -142 l-55 -86h16q53 0 84 -35.5t31 -93.5q0 -94 -67.5 -158.5t-166.5 -64.5q-72 0 -153 45l43 82q59 -31 100 -31q51 0 82 28t31 75q0 29 -19.5 48t-48.5 19q-39 0 -67 -10l-23 39l107 137q-188 12 -293 152.5t-105 382.5z" />
<glyph unicode="&#xc8;" horiz-adv-x="1120" d="M63 0l256 1470h879l-31 -176h-714l-80 -450h661l-30 -176h-662l-84 -492h727l-31 -176h-891zM549 1843h203l86 -248h-113z" />
<glyph unicode="&#xc9;" horiz-adv-x="1120" d="M63 0l256 1470h879l-31 -176h-714l-80 -450h661l-30 -176h-662l-84 -492h727l-31 -176h-891zM723 1595l172 248h203l-262 -248h-113z" />
<glyph unicode="&#xca;" horiz-adv-x="1120" d="M63 0l256 1470h879l-31 -176h-714l-80 -450h661l-30 -176h-662l-84 -492h727l-31 -176h-891zM504 1597l239 248h158l154 -248h-135l-115 150l-168 -150h-133z" />
<glyph unicode="&#xcb;" horiz-adv-x="1120" d="M63 0l256 1470h879l-31 -176h-714l-80 -450h661l-30 -176h-662l-84 -492h727l-31 -176h-891zM530 1622l35 197h180l-34 -197h-181zM860 1622l35 197h180l-35 -197h-180z" />
<glyph unicode="&#xcc;" horiz-adv-x="466" d="M72 0l256 1470h161l-256 -1470h-161zM223 1843h203l86 -248h-113z" />
<glyph unicode="&#xcd;" horiz-adv-x="466" d="M72 0l256 1470h161l-256 -1470h-161zM350 1595l172 248h203l-262 -248h-113z" />
<glyph unicode="&#xce;" horiz-adv-x="466" d="M72 0l256 1470h161l-256 -1470h-161zM154 1597l239 248h158l154 -248h-136l-114 150l-168 -150h-133z" />
<glyph unicode="&#xcf;" horiz-adv-x="466" d="M72 0l256 1470h161l-256 -1470h-161zM180 1622l35 197h180l-35 -197h-180zM510 1622l35 197h180l-35 -197h-180z" />
<glyph unicode="&#xd0;" horiz-adv-x="1212" d="M35 668l31 176h135l110 626h488q188 0 294.5 -135t106.5 -372q0 -303 -149 -598q-186 -365 -514 -365h-482l115 668h-135zM248 170h315q197 0 331 229.5t134 544.5q0 172 -71.5 264t-208.5 92h-304l-79 -456h321l-31 -176h-321z" />
<glyph unicode="&#xd1;" horiz-adv-x="1212" d="M45 0l256 1470h195l397 -1194l209 1194h158l-256 -1470h-185l-407 1194l-209 -1194h-158zM518 1602q35 115 86 167t127 52q51 0 109 -31l34 -18q49 -27 78 -27q61 0 97 94h84q-70 -223 -209 -223q-33 0 -93 26l-40 19q-70 31 -97 31q-57 0 -96 -90h-80z" />
<glyph unicode="&#xd2;" horiz-adv-x="1306" d="M94 535q0 250 95.5 473t267.5 362t377 139q223 0 347 -150.5t124 -424.5q0 -246 -94.5 -468t-266.5 -363.5t-379 -141.5q-225 0 -348 151t-123 423zM264 561q0 -199 88 -311.5t242 -112.5q223 0 382 229.5t159 544.5q0 197 -88.5 309.5t-243.5 112.5q-223 0 -381 -226.5 t-158 -545.5zM616 1843h203l86 -248h-112z" />
<glyph unicode="&#xd3;" horiz-adv-x="1306" d="M94 535q0 250 95.5 473t267.5 362t377 139q223 0 347 -150.5t124 -424.5q0 -246 -94.5 -468t-266.5 -363.5t-379 -141.5q-225 0 -348 151t-123 423zM264 561q0 -199 88 -311.5t242 -112.5q223 0 382 229.5t159 544.5q0 197 -88.5 309.5t-243.5 112.5q-223 0 -381 -226.5 t-158 -545.5zM791 1595l172 248h202l-262 -248h-112z" />
<glyph unicode="&#xd4;" horiz-adv-x="1306" d="M94 535q0 250 95.5 473t267.5 362t377 139q223 0 347 -150.5t124 -424.5q0 -246 -94.5 -468t-266.5 -363.5t-379 -141.5q-225 0 -348 151t-123 423zM264 561q0 -199 88 -311.5t242 -112.5q223 0 382 229.5t159 544.5q0 197 -88.5 309.5t-243.5 112.5q-223 0 -381 -226.5 t-158 -545.5zM571 1597l240 248h158l153 -248h-135l-115 150l-167 -150h-134z" />
<glyph unicode="&#xd5;" horiz-adv-x="1306" d="M94 535q0 250 95.5 473t267.5 362t377 139q223 0 347 -150.5t124 -424.5q0 -246 -94.5 -468t-266.5 -363.5t-379 -141.5q-225 0 -348 151t-123 423zM264 561q0 -199 88 -311.5t242 -112.5q223 0 382 229.5t159 544.5q0 197 -88.5 309.5t-243.5 112.5q-223 0 -381 -226.5 t-158 -545.5zM563 1602q35 115 86 167t127 52q51 0 109 -31l35 -18q49 -27 77 -27q61 0 97 94h84q-70 -223 -209 -223q-33 0 -92 26l-41 19q-70 31 -97 31q-57 0 -96 -90h-80z" />
<glyph unicode="&#xd6;" horiz-adv-x="1306" d="M94 535q0 250 95.5 473t267.5 362t377 139q223 0 347 -150.5t124 -424.5q0 -246 -94.5 -468t-266.5 -363.5t-379 -141.5q-225 0 -348 151t-123 423zM264 561q0 -199 88 -311.5t242 -112.5q223 0 382 229.5t159 544.5q0 197 -88.5 309.5t-243.5 112.5q-223 0 -381 -226.5 t-158 -545.5zM598 1622l35 197h180l-35 -197h-180zM928 1622l35 197h180l-35 -197h-180z" />
<glyph unicode="&#xd7;" horiz-adv-x="980" d="M195 287l225 227l-225 225l84 84l225 -225l225 223l84 -84l-225 -223l225 -225l-84 -84l-225 223l-225 -225z" />
<glyph unicode="&#xd8;" horiz-adv-x="1306" d="M-10 18l172 185q-68 162 -68 336q0 244 94.5 466t267.5 363t382 141q123 0 210 -43t156 -139l168 182l41 -61l-172 -186q63 -158 64 -330q0 -244 -94.5 -466t-267.5 -363.5t-380 -141.5q-123 0 -209 42t-155 136l-166 -178zM264 565q0 -106 33 -215l774 834 q-96 150 -266 149q-223 0 -382 -230.5t-159 -537.5zM332 283q96 -145 262 -146q223 0 382 231.5t159 538.5q0 100 -33 205z" />
<glyph unicode="&#xd9;" horiz-adv-x="1212" d="M125 360q0 76 10 129l172 981h162l-160 -925q-12 -66 -12 -131q0 -133 64.5 -205t185.5 -72q150 0 249 105.5t134 298.5l164 929h161l-165 -954q-45 -254 -202 -404.5t-378 -150.5q-184 0 -284.5 104.5t-100.5 294.5zM571 1843h203l86 -248h-112z" />
<glyph unicode="&#xda;" horiz-adv-x="1212" d="M125 360q0 76 10 129l172 981h162l-160 -925q-12 -66 -12 -131q0 -133 64.5 -205t185.5 -72q150 0 249 105.5t134 298.5l164 929h161l-165 -954q-45 -254 -202 -404.5t-378 -150.5q-184 0 -284.5 104.5t-100.5 294.5zM745 1595l173 248h202l-262 -248h-113z" />
<glyph unicode="&#xdb;" horiz-adv-x="1212" d="M125 360q0 76 10 129l172 981h162l-160 -925q-12 -66 -12 -131q0 -133 64.5 -205t185.5 -72q150 0 249 105.5t134 298.5l164 929h161l-165 -954q-45 -254 -202 -404.5t-378 -150.5q-184 0 -284.5 104.5t-100.5 294.5zM526 1597l240 248h158l153 -248h-135l-115 150 l-168 -150h-133z" />
<glyph unicode="&#xdc;" horiz-adv-x="1212" d="M125 360q0 76 10 129l172 981h162l-160 -925q-12 -66 -12 -131q0 -133 64.5 -205t185.5 -72q150 0 249 105.5t134 298.5l164 929h161l-165 -954q-45 -254 -202 -404.5t-378 -150.5q-184 0 -284.5 104.5t-100.5 294.5zM553 1622l35 197h180l-35 -197h-180zM883 1622 l35 197h180l-35 -197h-180z" />
<glyph unicode="&#xdd;" horiz-adv-x="1120" d="M199 1470h190l221 -706l471 706h191l-608 -878l-103 -592h-164l103 592zM700 1595l172 248h203l-262 -248h-113z" />
<glyph unicode="&#xde;" horiz-adv-x="1120" d="M63 0l256 1470h164l-43 -243h379q137 0 216 -85t79 -231q0 -213 -127 -373.5t-315 -160.5h-379l-66 -377h-164zM322 547h323q143 0 221 91t78 243q0 176 -203 176h-329z" />
<glyph unicode="&#xdf;" horiz-adv-x="1026" d="M31 0l190 1090q33 186 155 293.5t302 107.5q162 0 253 -78t91 -217q0 -240 -197 -377q141 -63 142 -266q0 -225 -146.5 -404.5t-371.5 -179.5q-43 0 -82 13l-7 2l29 153q37 -6 74 -6q160 0 253 107.5t93 281.5q0 205 -246 205q-39 0 -65 -8l28 162q20 -4 45 -5 q133 0 215 77t82 202q0 88 -57 135t-164 47q-123 0 -191.5 -69.5t-95.5 -221.5l-182 -1044h-147z" />
<glyph unicode="&#xe0;" d="M20 207q0 162 91.5 274.5t240.5 132.5l250 37q102 16 103 168q0 133 -177 133q-96 0 -151 -47t-90 -160h-135q80 356 413 357q137 0 214 -62.5t77 -173.5q0 -33 -6 -63l-111 -639q0 -41 39 -41q18 0 53 8l-24 -131l-19 -6q-39 -14 -69 -14q-127 0 -127 114q0 12 4 49 q-166 -174 -342 -174q-109 0 -171.5 63.5t-62.5 174.5zM178 248q0 -129 129 -129q113 0 207 74.5t113 177.5l30 176q-39 -33 -256 -68q-117 -20 -170 -75.5t-53 -155.5zM356 1485h203l80 -289h-113z" />
<glyph unicode="&#xe1;" d="M20 207q0 162 91.5 274.5t240.5 132.5l250 37q102 16 103 168q0 133 -177 133q-96 0 -151 -47t-90 -160h-135q80 356 413 357q137 0 214 -62.5t77 -173.5q0 -33 -6 -63l-111 -639q0 -41 39 -41q18 0 53 8l-24 -131l-19 -6q-39 -14 -69 -14q-127 0 -127 114q0 12 4 49 q-166 -174 -342 -174q-109 0 -171.5 63.5t-62.5 174.5zM178 248q0 -129 129 -129q113 0 207 74.5t113 177.5l30 176q-39 -33 -256 -68q-117 -20 -170 -75.5t-53 -155.5zM524 1196l181 289h202l-270 -289h-113z" />
<glyph unicode="&#xe2;" d="M20 207q0 162 91.5 274.5t240.5 132.5l250 37q102 16 103 168q0 133 -177 133q-96 0 -151 -47t-90 -160h-135q80 356 413 357q137 0 214 -62.5t77 -173.5q0 -33 -6 -63l-111 -639q0 -41 39 -41q18 0 53 8l-24 -131l-19 -6q-39 -14 -69 -14q-127 0 -127 114q0 12 4 49 q-166 -174 -342 -174q-109 0 -171.5 63.5t-62.5 174.5zM178 248q0 -129 129 -129q113 0 207 74.5t113 177.5l30 176q-39 -33 -256 -68q-117 -20 -170 -75.5t-53 -155.5zM338 1198l217 289h156l114 -289h-133l-78 191l-143 -191h-133z" />
<glyph unicode="&#xe3;" d="M20 207q0 162 91.5 274.5t240.5 132.5l250 37q102 16 103 168q0 133 -177 133q-96 0 -151 -47t-90 -160h-135q80 356 413 357q137 0 214 -62.5t77 -173.5q0 -33 -6 -63l-111 -639q0 -41 39 -41q18 0 53 8l-24 -131l-19 -6q-39 -14 -69 -14q-127 0 -127 114q0 12 4 49 q-166 -174 -342 -174q-109 0 -171.5 63.5t-62.5 174.5zM178 248q0 -129 129 -129q113 0 207 74.5t113 177.5l30 176q-39 -33 -256 -68q-117 -20 -170 -75.5t-53 -155.5zM297 1223q35 115 86 167t127 52q51 0 108 -31l35 -18q49 -27 78 -27q61 0 96 94h84q-70 -223 -209 -223 q-33 0 -92 27l-41 18q-70 31 -96 31q-57 0 -96 -90h-80z" />
<glyph unicode="&#xe4;" d="M20 207q0 162 91.5 274.5t240.5 132.5l250 37q102 16 103 168q0 133 -177 133q-96 0 -151 -47t-90 -160h-135q80 356 413 357q137 0 214 -62.5t77 -173.5q0 -33 -6 -63l-111 -639q0 -41 39 -41q18 0 53 8l-24 -131l-19 -6q-39 -14 -69 -14q-127 0 -127 114q0 12 4 49 q-166 -174 -342 -174q-109 0 -171.5 63.5t-62.5 174.5zM178 248q0 -129 129 -129q113 0 207 74.5t113 177.5l30 176q-39 -33 -256 -68q-117 -20 -170 -75.5t-53 -155.5zM334 1243l35 197h180l-35 -197h-180zM664 1243l34 197h181l-35 -197h-180z" />
<glyph unicode="&#xe5;" d="M20 207q0 162 91.5 274.5t240.5 132.5l250 37q102 16 103 168q0 133 -177 133q-96 0 -151 -47t-90 -160h-135q80 356 413 357q137 0 214 -62.5t77 -173.5q0 -33 -6 -63l-111 -639q0 -41 39 -41q18 0 53 8l-24 -131l-19 -6q-39 -14 -69 -14q-127 0 -127 114q0 12 4 49 q-166 -174 -342 -174q-109 0 -171.5 63.5t-62.5 174.5zM178 248q0 -129 129 -129q113 0 207 74.5t113 177.5l30 176q-39 -33 -256 -68q-117 -20 -170 -75.5t-53 -155.5zM399 1343q12 72 80 120t156 48q90 0 140 -48t38 -124q-12 -72 -79.5 -120t-158 -48t-140.5 48t-36 124z M489 1343q-8 -41 22 -69.5t79 -28.5t88 27.5t45 66.5q8 41 -21.5 70t-78.5 29q-47 0 -87.5 -28t-46.5 -67z" />
<glyph unicode="&#xe6;" horiz-adv-x="1492" d="M20 207q0 162 91.5 274.5t240.5 132.5l250 37q102 16 103 168q0 133 -177 133q-96 0 -151 -47t-90 -160h-135q43 186 146 271.5t280 85.5q96 0 151 -32t107 -120q86 86 153.5 119t159.5 33q150 0 223.5 -106.5t73.5 -270.5q0 -90 -23 -248h-641q-12 -76 -12 -127 q0 -104 53.5 -164.5t145.5 -60.5q90 0 165.5 59.5t104.5 151.5h147q-59 -174 -176.5 -270.5t-273.5 -96.5q-121 0 -188.5 52.5t-102.5 171.5q-92 -119 -181 -171.5t-204 -52.5q-113 0 -176.5 62.5t-63.5 175.5zM178 250q0 -131 129 -131q113 0 207 74.5t113 177.5l30 176 q-25 -23 -69.5 -34t-186.5 -34q-223 -34 -223 -229zM807 621h489q4 74 4 96q0 102 -50 162.5t-136 60.5q-106 0 -191 -88t-116 -231z" />
<glyph unicode="&#xe7;" horiz-adv-x="839" d="M43 352q0 301 153.5 525.5t383.5 224.5q125 0 196.5 -81t71.5 -222q0 -18 -4 -88h-144q-4 125 -41.5 177t-126.5 52q-143 0 -236 -171t-93 -400q0 -244 180 -244q168 0 260 254h143q-111 -365 -362 -404l-62 -94h17q53 0 84 -35.5t31 -93.5q0 -94 -68 -158.5t-166 -64.5 q-72 0 -154 45l44 82q59 -31 100 -31q51 0 81.5 28t30.5 75q0 29 -19 48t-48 19q-39 0 -68 -10l-22 39l114 147q-129 14 -202.5 114.5t-73.5 266.5z" />
<glyph unicode="&#xe8;" d="M59 352q0 301 153 525.5t380 224.5q152 0 224.5 -106.5t72.5 -270.5q0 -90 -23 -248h-641q-12 -76 -12 -127q0 -104 53 -164.5t148 -60.5q90 0 165.5 59.5t102.5 151.5h147q-57 -174 -175.5 -270.5t-272.5 -96.5t-238 100.5t-84 282.5zM250 621h489q4 74 4 96 q0 102 -50 162.5t-136 60.5q-106 0 -190 -88t-117 -231zM369 1485h202l80 -289h-112z" />
<glyph unicode="&#xe9;" d="M59 352q0 301 153 525.5t380 224.5q152 0 224.5 -106.5t72.5 -270.5q0 -90 -23 -248h-641q-12 -76 -12 -127q0 -104 53 -164.5t148 -60.5q90 0 165.5 59.5t102.5 151.5h147q-57 -174 -175.5 -270.5t-272.5 -96.5t-238 100.5t-84 282.5zM250 621h489q4 74 4 96 q0 102 -50 162.5t-136 60.5q-106 0 -190 -88t-117 -231zM537 1196l180 289h203l-271 -289h-112z" />
<glyph unicode="&#xea;" d="M59 352q0 301 153 525.5t380 224.5q152 0 224.5 -106.5t72.5 -270.5q0 -90 -23 -248h-641q-12 -76 -12 -127q0 -104 53 -164.5t148 -60.5q90 0 165.5 59.5t102.5 151.5h147q-57 -174 -175.5 -270.5t-272.5 -96.5t-238 100.5t-84 282.5zM250 621h489q4 74 4 96 q0 102 -50 162.5t-136 60.5q-106 0 -190 -88t-117 -231zM350 1198l217 289h156l115 -289h-133l-78 191l-144 -191h-133z" />
<glyph unicode="&#xeb;" d="M59 352q0 301 153 525.5t380 224.5q152 0 224.5 -106.5t72.5 -270.5q0 -90 -23 -248h-641q-12 -76 -12 -127q0 -104 53 -164.5t148 -60.5q90 0 165.5 59.5t102.5 151.5h147q-57 -174 -175.5 -270.5t-272.5 -96.5t-238 100.5t-84 282.5zM250 621h489q4 74 4 96 q0 102 -50 162.5t-136 60.5q-106 0 -190 -88t-117 -231zM346 1243l35 197h180l-35 -197h-180zM676 1243l35 197h180l-35 -197h-180z" />
<glyph unicode="&#xec;" horiz-adv-x="466" d="M78 0l186 1071h148l-187 -1071h-147zM152 1485h202l80 -289h-112z" />
<glyph unicode="&#xed;" horiz-adv-x="466" d="M78 0l186 1071h148l-187 -1071h-147zM287 1196l180 289h203l-271 -289h-112z" />
<glyph unicode="&#xee;" horiz-adv-x="466" d="M78 0l186 1071h148l-187 -1071h-147zM117 1198l217 289h155l115 -289h-133l-78 191l-143 -191h-133z" />
<glyph unicode="&#xef;" horiz-adv-x="466" d="M78 0l186 1071h148l-187 -1071h-147zM113 1243l34 197h181l-35 -197h-180zM442 1243l35 197h180l-34 -197h-181z" />
<glyph unicode="&#xf0;" d="M55 377q0 264 148.5 479t349.5 215q70 0 116 -27.5t89 -95.5q-27 168 -137 305l-232 -127l-55 86l219 117q-61 68 -131 107l137 73q80 -45 135 -104l195 104l65 -82l-198 -104q88 -137 125 -256t37 -270q0 -217 -71 -407.5t-194 -305.5t-268 -115q-152 0 -241 110 t-89 298zM211 410q0 -137 50 -211t147 -74q135 0 234 158.5t99 347.5q0 137 -50 210.5t-146 73.5q-137 0 -235.5 -158.5t-98.5 -346.5z" />
<glyph unicode="&#xf1;" d="M27 0l186 1071h139l-26 -158q78 100 150.5 144.5t162.5 44.5q113 0 177.5 -69.5t64.5 -192.5q0 -45 -11 -111l-127 -729h-147l115 659q10 68 10 123q0 158 -141 158q-113 0 -194 -95t-110 -261l-102 -584h-147zM309 1223q35 115 86 167t127 52q51 0 109 -31l35 -18 q49 -27 77 -27q61 0 97 94h84q-70 -223 -209 -223q-33 0 -92 27l-41 18q-70 31 -97 31q-57 0 -96 -90h-80z" />
<glyph unicode="&#xf2;" d="M57 387q0 279 152.5 497t368.5 218q150 0 235.5 -109.5t85.5 -304.5q0 -279 -152.5 -498t-367.5 -219q-152 0 -237 110.5t-85 305.5zM211 406q0 -135 50 -207t147 -72q141 0 239 166t98 373q0 135 -51 207.5t-145 72.5q-141 0 -239.5 -164.5t-98.5 -375.5zM369 1485h202 l80 -289h-112z" />
<glyph unicode="&#xf3;" d="M57 387q0 279 152.5 497t368.5 218q150 0 235.5 -109.5t85.5 -304.5q0 -279 -152.5 -498t-367.5 -219q-152 0 -237 110.5t-85 305.5zM211 406q0 -135 50 -207t147 -72q141 0 239 166t98 373q0 135 -51 207.5t-145 72.5q-141 0 -239.5 -164.5t-98.5 -375.5zM537 1196 l180 289h203l-271 -289h-112z" />
<glyph unicode="&#xf4;" d="M57 387q0 279 152.5 497t368.5 218q150 0 235.5 -109.5t85.5 -304.5q0 -279 -152.5 -498t-367.5 -219q-152 0 -237 110.5t-85 305.5zM211 406q0 -135 50 -207t147 -72q141 0 239 166t98 373q0 135 -51 207.5t-145 72.5q-141 0 -239.5 -164.5t-98.5 -375.5zM350 1198 l217 289h156l115 -289h-133l-78 191l-144 -191h-133z" />
<glyph unicode="&#xf5;" d="M57 387q0 279 152.5 497t368.5 218q150 0 235.5 -109.5t85.5 -304.5q0 -279 -152.5 -498t-367.5 -219q-152 0 -237 110.5t-85 305.5zM211 406q0 -135 50 -207t147 -72q141 0 239 166t98 373q0 135 -51 207.5t-145 72.5q-141 0 -239.5 -164.5t-98.5 -375.5zM309 1223 q35 115 86 167t127 52q51 0 109 -31l35 -18q49 -27 77 -27q61 0 97 94h84q-70 -223 -209 -223q-33 0 -92 27l-41 18q-70 31 -97 31q-57 0 -96 -90h-80z" />
<glyph unicode="&#xf6;" d="M57 387q0 279 152.5 497t368.5 218q150 0 235.5 -109.5t85.5 -304.5q0 -279 -152.5 -498t-367.5 -219q-152 0 -237 110.5t-85 305.5zM211 406q0 -135 50 -207t147 -72q141 0 239 166t98 373q0 135 -51 207.5t-145 72.5q-141 0 -239.5 -164.5t-98.5 -375.5zM346 1243 l35 197h180l-35 -197h-180zM676 1243l35 197h180l-35 -197h-180z" />
<glyph unicode="&#xf7;" horiz-adv-x="980" d="M125 453v118h756v-118h-756zM416 145q0 35 25.5 61.5t62.5 26.5q35 0 61.5 -26.5t26.5 -61.5q0 -37 -26.5 -62.5t-61.5 -25.5q-37 0 -62.5 25.5t-25.5 62.5zM416 881q0 35 25.5 61.5t62.5 26.5q35 0 61.5 -27t26.5 -61q0 -37 -26.5 -62.5t-61.5 -25.5q-37 0 -62.5 25.5 t-25.5 62.5z" />
<glyph unicode="&#xf8;" horiz-adv-x="1026" d="M-33 8l133 148q-43 113 -43 231q0 279 154 497t369 218q158 0 249 -133l134 147l43 -53l-144 -160q39 -111 39 -217q0 -180 -67.5 -344t-189.5 -267.5t-265 -103.5q-154 0 -244 123l-125 -139zM213 403q0 -49 10 -110l492 547q-55 106 -164 106q-137 0 -237.5 -160 t-100.5 -383zM250 221q49 -94 158 -94q135 0 237.5 159.5t102.5 381.5q0 41 -11 96z" />
<glyph unicode="&#xf9;" d="M76 211q0 49 8 90l133 770h150l-125 -711q-6 -39 -6 -81q0 -154 137 -154q111 0 192.5 96t110.5 260l102 590h148l-187 -1071h-139l29 166q-78 -111 -146.5 -154t-165.5 -43q-115 0 -178 63.5t-63 178.5zM369 1485h202l80 -289h-112z" />
<glyph unicode="&#xfa;" d="M76 211q0 49 8 90l133 770h150l-125 -711q-6 -39 -6 -81q0 -154 137 -154q111 0 192.5 96t110.5 260l102 590h148l-187 -1071h-139l29 166q-78 -111 -146.5 -154t-165.5 -43q-115 0 -178 63.5t-63 178.5zM537 1196l180 289h203l-271 -289h-112z" />
<glyph unicode="&#xfb;" d="M76 211q0 49 8 90l133 770h150l-125 -711q-6 -39 -6 -81q0 -154 137 -154q111 0 192.5 96t110.5 260l102 590h148l-187 -1071h-139l29 166q-78 -111 -146.5 -154t-165.5 -43q-115 0 -178 63.5t-63 178.5zM350 1198l217 289h156l115 -289h-133l-78 191l-144 -191h-133z " />
<glyph unicode="&#xfc;" d="M76 211q0 49 8 90l133 770h150l-125 -711q-6 -39 -6 -81q0 -154 137 -154q111 0 192.5 96t110.5 260l102 590h148l-187 -1071h-139l29 166q-78 -111 -146.5 -154t-165.5 -43q-115 0 -178 63.5t-63 178.5zM346 1243l35 197h180l-35 -197h-180zM676 1243l35 197h180 l-35 -197h-180z" />
<glyph unicode="&#xfd;" horiz-adv-x="839" d="M-57 -422l28 164q43 -18 86 -18q47 0 74 26.5t70 110.5l55 110l-133 1100h168l82 -878l389 878h164l-500 -1051q-84 -172 -127 -251.5t-91 -133t-86 -63.5t-108 -10q-27 0 -59 12zM489 1196l181 289h202l-270 -289h-113z" />
<glyph unicode="&#xfe;" d="M-59 -424l329 1894h150l-96 -552q72 100 137 142t153 42q133 0 209 -100.5t76 -274.5q0 -184 -62.5 -357t-180 -287t-259.5 -114q-158 0 -213 150l-96 -543h-147zM231 365q0 -109 51.5 -174.5t137.5 -65.5q137 0 231 176t94 412q0 109 -48 168t-138 59q-102 0 -180 -96 t-113 -224t-35 -255z" />
<glyph unicode="&#xff;" horiz-adv-x="839" d="M-57 -422l28 164q43 -18 86 -18q47 0 74 26.5t70 110.5l55 110l-133 1100h168l82 -878l389 878h164l-500 -1051q-84 -172 -127 -251.5t-91 -133t-86 -63.5t-108 -10q-27 0 -59 12zM299 1243l35 197h180l-35 -197h-180zM629 1243l35 197h180l-35 -197h-180z" />
<glyph unicode="&#x100;" horiz-adv-x="1120" d="M-59 0l710 1470h185l180 -1470h-178l-45 428h-484l-200 -428h-168zM391 604h375l-68 653zM514 1663l21 117h526l-21 -117h-526z" />
<glyph unicode="&#x101;" d="M20 207q0 162 91.5 274.5t240.5 132.5l250 37q102 16 103 168q0 133 -177 133q-96 0 -151 -47t-90 -160h-135q80 356 413 357q137 0 214 -62.5t77 -173.5q0 -33 -6 -63l-111 -639q0 -41 39 -41q18 0 53 8l-24 -131l-19 -6q-39 -14 -69 -14q-127 0 -127 114q0 12 4 49 q-166 -174 -342 -174q-109 0 -171.5 63.5t-62.5 174.5zM178 248q0 -129 129 -129q113 0 207 74.5t113 177.5l30 176q-39 -33 -256 -68q-117 -20 -170 -75.5t-53 -155.5zM332 1284l20 117h527l-21 -117h-526z" />
<glyph unicode="&#x102;" horiz-adv-x="1120" d="M-59 0l710 1470h185l180 -1470h-178l-45 428h-484l-200 -428h-168zM391 604h375l-68 653zM528 1839h82l2 -14q63 -106 179 -107q72 0 115.5 29t78.5 92h100q-55 -119 -133 -178t-192 -59q-111 0 -166.5 59t-65.5 178z" />
<glyph unicode="&#x103;" d="M20 207q0 162 91.5 274.5t240.5 132.5l250 37q102 16 103 168q0 133 -177 133q-96 0 -151 -47t-90 -160h-135q80 356 413 357q137 0 214 -62.5t77 -173.5q0 -33 -6 -63l-111 -639q0 -41 39 -41q18 0 53 8l-24 -131l-19 -6q-39 -14 -69 -14q-127 0 -127 114q0 12 4 49 q-166 -174 -342 -174q-109 0 -171.5 63.5t-62.5 174.5zM178 248q0 -129 129 -129q113 0 207 74.5t113 177.5l30 176q-39 -33 -256 -68q-117 -20 -170 -75.5t-53 -155.5zM371 1421l2 60h82q8 -86 44 -124t109.5 -38t118.5 36t84 126h80q-45 -145 -120 -212t-193 -67 q-100 0 -155.5 56.5t-51.5 162.5z" />
<glyph unicode="&#x104;" horiz-adv-x="1120" d="M-59 0l710 1470h185l180 -1470q-106 -29 -178 -125q-39 -53 -39 -111q0 -86 94 -86h63l-22 -149h-72q-92 0 -156.5 46t-64.5 122q0 88 45 160q57 94 152 143l-45 428h-484l-200 -428h-168zM391 604h375l-68 653z" />
<glyph unicode="&#x105;" d="M20 207q0 162 91.5 274.5t240.5 132.5l250 37q102 16 103 168q0 133 -177 133q-96 0 -151 -47t-90 -160h-135q80 356 413 357q137 0 214 -62.5t77 -173.5q0 -33 -6 -63l-111 -639q0 -41 39 -41q18 0 53 8l-24 -131l-19 -6q-100 -37 -157 -119q-39 -53 -39 -111 q0 -86 94 -86h64l-23 -149h-72q-92 0 -156.5 46t-64.5 122q0 86 43 160q57 90 148 153q-33 29 -33 84q0 12 4 49q-166 -174 -342 -174q-109 0 -171.5 63.5t-62.5 174.5zM178 248q0 -129 129 -129q113 0 207 74.5t113 177.5l30 176q-39 -33 -256 -68q-117 -20 -170 -75.5 t-53 -155.5z" />
<glyph unicode="&#x106;" horiz-adv-x="1212" d="M98 496q0 420 207 716.5t512 296.5q188 0 300 -115.5t112 -312.5q0 -31 -2 -53h-158q-12 305 -281 305q-221 0 -370.5 -234.5t-149.5 -576.5q0 -186 78 -285.5t225 -99.5q139 0 243 94.5t183 309.5h158q-63 -176 -117.5 -268.5t-136.5 -163.5q-170 -147 -375 -148 q-201 0 -314.5 142.5t-113.5 392.5zM774 1595l172 248h203l-262 -248h-113z" />
<glyph unicode="&#x107;" horiz-adv-x="839" d="M43 352q0 301 153.5 525.5t383.5 224.5q125 0 196.5 -81t71.5 -222q0 -18 -4 -88h-144q-4 125 -41.5 177t-126.5 52q-143 0 -236 -171t-93 -400q0 -244 180 -244q168 0 260 254h143q-127 -410 -430 -410q-145 0 -229 101.5t-84 281.5zM489 1196l181 289h202l-270 -289 h-113z" />
<glyph unicode="&#x108;" horiz-adv-x="1212" d="M98 496q0 420 207 716.5t512 296.5q188 0 300 -115.5t112 -312.5q0 -31 -2 -53h-158q-12 305 -281 305q-221 0 -370.5 -234.5t-149.5 -576.5q0 -186 78 -285.5t225 -99.5q139 0 243 94.5t183 309.5h158q-63 -176 -117.5 -268.5t-136.5 -163.5q-170 -147 -375 -148 q-201 0 -314.5 142.5t-113.5 392.5zM555 1597l240 248h157l154 -248h-135l-115 150l-168 -150h-133z" />
<glyph unicode="&#x109;" horiz-adv-x="839" d="M43 352q0 301 153.5 525.5t383.5 224.5q125 0 196.5 -81t71.5 -222q0 -18 -4 -88h-144q-4 125 -41.5 177t-126.5 52q-143 0 -236 -171t-93 -400q0 -244 180 -244q168 0 260 254h143q-127 -410 -430 -410q-145 0 -229 101.5t-84 281.5zM303 1198l217 289h156l115 -289 h-134l-77 191l-144 -191h-133z" />
<glyph unicode="&#x10a;" horiz-adv-x="1212" d="M98 496q0 420 207 716.5t512 296.5q188 0 300 -115.5t112 -312.5q0 -31 -2 -53h-158q-12 305 -281 305q-221 0 -370.5 -234.5t-149.5 -576.5q0 -186 78 -285.5t225 -99.5q139 0 243 94.5t183 309.5h158q-63 -176 -117.5 -268.5t-136.5 -163.5q-170 -147 -375 -148 q-201 0 -314.5 142.5t-113.5 392.5zM750 1622l34 197h177l-35 -197h-176z" />
<glyph unicode="&#x10b;" horiz-adv-x="839" d="M43 352q0 301 153.5 525.5t383.5 224.5q125 0 196.5 -81t71.5 -222q0 -18 -4 -88h-144q-4 125 -41.5 177t-126.5 52q-143 0 -236 -171t-93 -400q0 -244 180 -244q168 0 260 254h143q-127 -410 -430 -410q-145 0 -229 101.5t-84 281.5zM467 1243l35 197h176l-35 -197h-176 z" />
<glyph unicode="&#x10c;" horiz-adv-x="1212" d="M98 496q0 420 207 716.5t512 296.5q188 0 300 -115.5t112 -312.5q0 -31 -2 -53h-158q-12 305 -281 305q-221 0 -370.5 -234.5t-149.5 -576.5q0 -186 78 -285.5t225 -99.5q139 0 243 94.5t183 309.5h158q-63 -176 -117.5 -268.5t-136.5 -163.5q-170 -147 -375 -148 q-201 0 -314.5 142.5t-113.5 392.5zM600 1845h135l115 -149l168 149h133l-240 -248h-157z" />
<glyph unicode="&#x10d;" horiz-adv-x="839" d="M43 352q0 301 153.5 525.5t383.5 224.5q125 0 196.5 -81t71.5 -222q0 -18 -4 -88h-144q-4 125 -41.5 177t-126.5 52q-143 0 -236 -171t-93 -400q0 -244 180 -244q168 0 260 254h143q-127 -410 -430 -410q-145 0 -229 101.5t-84 281.5zM352 1487h133l78 -191l144 191h133 l-217 -289h-156z" />
<glyph unicode="&#x10e;" horiz-adv-x="1212" d="M53 0l256 1470h490q188 0 294.5 -133t106.5 -370q0 -246 -83 -466t-237.5 -360.5t-342.5 -140.5h-484zM246 170h315q201 0 335 229.5t134 544.5q0 172 -72.5 264t-209.5 92h-306zM567 1845h135l115 -149l168 149h133l-239 -248h-158z" />
<glyph unicode="&#x10f;" d="M59 379q0 301 137.5 512t335.5 211q90 0 145.5 -45t88.5 -148l98 561h148l-256 -1470h-140l27 154q-66 -100 -131.5 -142.5t-155.5 -42.5q-143 0 -220 106.5t-77 303.5zM211 381q0 -121 46 -188.5t128 -67.5q139 0 232.5 154.5t93.5 404.5q0 256 -181 256 q-102 0 -176.5 -85t-108.5 -208t-34 -266zM1044 1008l15 79q86 8 110 177h-82l37 206h158l-33 -192q-20 -123 -74.5 -193.5t-130.5 -76.5z" />
<glyph unicode="&#x110;" horiz-adv-x="1212" d="M35 668l31 176h135l110 626h488q188 0 294.5 -135t106.5 -372q0 -303 -149 -598q-186 -365 -514 -365h-482l115 668h-135zM248 170h315q197 0 331 229.5t134 544.5q0 172 -71.5 264t-208.5 92h-304l-79 -456h321l-31 -176h-321z" />
<glyph unicode="&#x111;" horiz-adv-x="985" d="M59 379q0 301 137.5 512t335.5 211q90 0 145.5 -45t88.5 -148l53 303h-231l20 117h232l24 141h148l-25 -141h148l-21 -117h-147l-211 -1212h-140l27 154q-66 -100 -131.5 -142.5t-155.5 -42.5q-143 0 -220 106.5t-77 303.5zM211 381q0 -121 46 -188.5t128 -67.5 q139 0 232.5 154.5t93.5 404.5q0 256 -181 256q-102 0 -176.5 -85t-108.5 -208t-34 -266z" />
<glyph unicode="&#x112;" horiz-adv-x="1120" d="M63 0l256 1470h879l-31 -176h-714l-80 -450h661l-30 -176h-662l-84 -492h727l-31 -176h-891zM528 1663l21 117h526l-20 -117h-527z" />
<glyph unicode="&#x113;" d="M59 352q0 301 153 525.5t380 224.5q152 0 224.5 -106.5t72.5 -270.5q0 -90 -23 -248h-641q-12 -76 -12 -127q0 -104 53 -164.5t148 -60.5q90 0 165.5 59.5t102.5 151.5h147q-57 -174 -175.5 -270.5t-272.5 -96.5t-238 100.5t-84 282.5zM250 621h489q4 74 4 96 q0 102 -50 162.5t-136 60.5q-106 0 -190 -88t-117 -231zM344 1284l21 117h526l-21 -117h-526z" />
<glyph unicode="&#x114;" horiz-adv-x="1120" d="M63 0l256 1470h879l-31 -176h-714l-80 -450h661l-30 -176h-662l-84 -492h727l-31 -176h-891zM543 1839h82l2 -14q63 -106 178 -107q72 0 116 29t78 92h101q-55 -119 -133 -178t-193 -59q-111 0 -166 59t-65 178z" />
<glyph unicode="&#x115;" d="M59 352q0 301 153 525.5t380 224.5q152 0 224.5 -106.5t72.5 -270.5q0 -90 -23 -248h-641q-12 -76 -12 -127q0 -104 53 -164.5t148 -60.5q90 0 165.5 59.5t102.5 151.5h147q-57 -174 -175.5 -270.5t-272.5 -96.5t-238 100.5t-84 282.5zM250 621h489q4 74 4 96 q0 102 -50 162.5t-136 60.5q-106 0 -190 -88t-117 -231zM383 1421l2 60h82q8 -86 44 -124t109.5 -38t118.5 36t84 126h80q-45 -145 -119.5 -212t-193.5 -67q-100 0 -155.5 56.5t-51.5 162.5z" />
<glyph unicode="&#x116;" horiz-adv-x="1120" d="M63 0l256 1470h879l-31 -176h-714l-80 -450h661l-30 -176h-662l-84 -492h727l-31 -176h-891zM698 1622l35 197h176l-35 -197h-176z" />
<glyph unicode="&#x117;" d="M59 352q0 301 153 525.5t380 224.5q152 0 224.5 -106.5t72.5 -270.5q0 -90 -23 -248h-641q-12 -76 -12 -127q0 -104 53 -164.5t148 -60.5q90 0 165.5 59.5t102.5 151.5h147q-57 -174 -175.5 -270.5t-272.5 -96.5t-238 100.5t-84 282.5zM250 621h489q4 74 4 96 q0 102 -50 162.5t-136 60.5q-106 0 -190 -88t-117 -231zM514 1243l35 197h176l-35 -197h-176z" />
<glyph unicode="&#x118;" horiz-adv-x="1120" d="M63 0l256 1470h879l-31 -176h-714l-80 -450h661l-30 -176h-662l-84 -492h727l-31 -176q-106 -29 -178 -125q-39 -53 -39 -111q0 -86 94 -86h64l-23 -149h-71q-92 0 -156.5 46t-64.5 122q0 86 43 156.5t135 146.5h-695z" />
<glyph unicode="&#x119;" d="M59 352q0 301 153 525.5t380 224.5q152 0 224.5 -106.5t72.5 -270.5q0 -90 -23 -248h-641q-12 -76 -12 -127q0 -104 53 -164.5t148 -60.5q90 0 165.5 59.5t102.5 151.5h147q-66 -190 -200 -289q-125 -88 -187 -172q-39 -53 -39 -111q0 -86 95 -86h63l-22 -149h-72 q-92 0 -156.5 46t-64.5 122q0 143 143 272h-8q-154 0 -238 100.5t-84 282.5zM250 621h489q4 74 4 96q0 102 -50 162.5t-136 60.5q-106 0 -190 -88t-117 -231z" />
<glyph unicode="&#x11a;" horiz-adv-x="1120" d="M63 0l256 1470h879l-31 -176h-714l-80 -450h661l-30 -176h-662l-84 -492h727l-31 -176h-891zM549 1845h135l115 -149l168 149h133l-240 -248h-158z" />
<glyph unicode="&#x11b;" d="M59 352q0 301 153 525.5t380 224.5q152 0 224.5 -106.5t72.5 -270.5q0 -90 -23 -248h-641q-12 -76 -12 -127q0 -104 53 -164.5t148 -60.5q90 0 165.5 59.5t102.5 151.5h147q-57 -174 -175.5 -270.5t-272.5 -96.5t-238 100.5t-84 282.5zM250 621h489q4 74 4 96 q0 102 -50 162.5t-136 60.5q-106 0 -190 -88t-117 -231zM399 1487h133l78 -191l144 191h133l-217 -289h-156z" />
<glyph unicode="&#x11c;" horiz-adv-x="1306" d="M104 504q0 262 98.5 493.5t266.5 371.5t360.5 140t311.5 -120.5t119 -315.5v-49h-158q-23 309 -299 309q-221 0 -374 -236.5t-153 -580.5q0 -385 320 -385q168 0 291 120t168 365h-375l29 170h528l-135 -786h-107l-6 190q-195 -229 -446 -229q-211 0 -325 158t-114 385z M567 1597l240 248h158l153 -248h-135l-115 150l-168 -150h-133z" />
<glyph unicode="&#x11d;" d="M-12 -131h147q4 -90 44 -130t124 -40q133 0 208 83t110 294l8 43q-111 -150 -269 -150q-139 0 -216.5 107.5t-77.5 300.5q0 303 138 514t335 211q88 0 141 -42t94 -147l29 158h139l-172 -983q-47 -279 -170 -409t-328 -130q-143 0 -213.5 72t-70.5 227v21zM217 379 q0 -119 46 -186.5t130 -67.5q139 0 232.5 154.5t93.5 404.5q0 256 -182 256q-152 0 -236 -167t-84 -394zM350 1198l217 289h156l115 -289h-133l-78 191l-144 -191h-133z" />
<glyph unicode="&#x11e;" horiz-adv-x="1306" d="M104 504q0 262 98.5 493.5t266.5 371.5t360.5 140t311.5 -120.5t119 -315.5v-49h-158q-23 309 -299 309q-221 0 -374 -236.5t-153 -580.5q0 -385 320 -385q168 0 291 120t168 365h-375l29 170h528l-135 -786h-107l-6 190q-195 -229 -446 -229q-211 0 -325 158t-114 385z M606 1839h82l2 -14q63 -106 178 -107q72 0 116 29t79 92h100q-55 -119 -133 -178t-192 -59q-111 0 -166.5 59t-65.5 178z" />
<glyph unicode="&#x11f;" d="M-12 -131h147q4 -90 44 -130t124 -40q133 0 208 83t110 294l8 43q-111 -150 -269 -150q-139 0 -216.5 107.5t-77.5 300.5q0 303 138 514t335 211q88 0 141 -42t94 -147l29 158h139l-172 -983q-47 -279 -170 -409t-328 -130q-143 0 -213.5 72t-70.5 227v21zM217 379 q0 -119 46 -186.5t130 -67.5q139 0 232.5 154.5t93.5 404.5q0 256 -182 256q-152 0 -236 -167t-84 -394zM383 1421l2 60h82q8 -86 44 -124t109.5 -38t118.5 36t84 126h80q-45 -145 -119.5 -212t-193.5 -67q-100 0 -155.5 56.5t-51.5 162.5z" />
<glyph unicode="&#x120;" horiz-adv-x="1306" d="M104 504q0 262 98.5 493.5t266.5 371.5t360.5 140t311.5 -120.5t119 -315.5v-49h-158q-23 309 -299 309q-221 0 -374 -236.5t-153 -580.5q0 -385 320 -385q168 0 291 120t168 365h-375l29 170h528l-135 -786h-107l-6 190q-195 -229 -446 -229q-211 0 -325 158t-114 385z M762 1622l35 197h176l-35 -197h-176z" />
<glyph unicode="&#x121;" d="M-12 -131h147q4 -90 44 -130t124 -40q133 0 208 83t110 294l8 43q-111 -150 -269 -150q-139 0 -216.5 107.5t-77.5 300.5q0 303 138 514t335 211q88 0 141 -42t94 -147l29 158h139l-172 -983q-47 -279 -170 -409t-328 -130q-143 0 -213.5 72t-70.5 227v21zM217 379 q0 -119 46 -186.5t130 -67.5q139 0 232.5 154.5t93.5 404.5q0 256 -182 256q-152 0 -236 -167t-84 -394zM514 1243l35 197h176l-35 -197h-176z" />
<glyph unicode="&#x122;" horiz-adv-x="1306" d="M104 504q0 262 98.5 493.5t266.5 371.5t360.5 140t311.5 -120.5t119 -315.5v-49h-158q-23 309 -299 309q-221 0 -374 -236.5t-153 -580.5q0 -385 320 -385q168 0 291 120t168 365h-375l29 170h528l-135 -786h-107l-6 190q-195 -229 -446 -229q-211 0 -325 158t-114 385z M389 -586l14 80q86 8 111 176h-82l37 207h158l-33 -192q-20 -123 -74.5 -194t-130.5 -77z" />
<glyph unicode="&#x123;" d="M-12 -131h147q4 -90 44 -130t124 -40q133 0 208 83t110 294l8 43q-111 -150 -269 -150q-139 0 -216.5 107.5t-77.5 300.5q0 303 138 514t335 211q88 0 141 -42t94 -147l29 158h139l-172 -983q-47 -279 -170 -409t-328 -130q-143 0 -213.5 72t-70.5 227v21zM217 379 q0 -119 46 -186.5t130 -67.5q139 0 232.5 154.5t93.5 404.5q0 256 -182 256q-152 0 -236 -167t-84 -394zM510 1167l33 193q20 123 74.5 193.5t130.5 76.5l-15 -80q-86 -8 -110 -176h82l-37 -207h-158z" />
<glyph unicode="&#x124;" horiz-adv-x="1212" d="M47 0l256 1470h164l-107 -608h631l105 608h164l-256 -1470h-164l121 686h-631l-119 -686h-164zM526 1597l240 248h158l153 -248h-135l-115 150l-168 -150h-133z" />
<glyph unicode="&#x125;" d="M27 0l256 1470h149l-96 -546q82 100 147.5 139t153.5 39q115 0 179.5 -68.5t64.5 -193.5q0 -45 -11 -111l-127 -729h-147l121 700q10 55 10 99q0 141 -139 141q-119 0 -201 -93t-111 -263l-102 -584h-147zM387 1597l240 248h157l154 -248h-135l-115 150l-168 -150h-133z " />
<glyph unicode="&#x126;" horiz-adv-x="1212" d="M47 0l197 1130h-82l16 93h82l43 247h164l-43 -247h629l43 247h164l-43 -247h81l-16 -93h-82l-196 -1130h-164l121 686h-631l-119 -686h-164zM360 862h631l45 268h-628z" />
<glyph unicode="&#x127;" horiz-adv-x="1015" d="M104 0l185 1055l-80 -35l16 102l80 35l55 313h150l-43 -245l227 98l-18 -104l-227 -97l-35 -198q82 100 147.5 139t153.5 39q115 0 179 -68.5t64 -193.5q0 -45 -10 -111l-127 -729h-147l121 700q10 55 10 99q0 141 -139 141q-119 0 -201 -93t-111 -263l-102 -584h-148z " />
<glyph unicode="&#x128;" horiz-adv-x="466" d="M72 0l256 1470h161l-256 -1470h-161zM145 1602q35 115 86.5 167t126.5 52q51 0 109 -31l35 -18q49 -27 78 -27q61 0 96 94h84q-70 -223 -209 -223q-33 0 -92 26l-41 19q-70 31 -96 31q-57 0 -97 -90h-80z" />
<glyph unicode="&#x129;" horiz-adv-x="466" d="M76 1223q35 115 86 167t127 52q51 0 108 -31l35 -18q49 -27 78 -27q61 0 96 94h84q-70 -223 -209 -223q-33 0 -92 27l-41 18q-72 31 -96 31q-57 0 -96 -90h-80zM78 0l186 1071h148l-187 -1071h-147z" />
<glyph unicode="&#x12a;" horiz-adv-x="466" d="M72 0l256 1470h161l-256 -1470h-161zM178 1663l21 117h526l-20 -117h-527z" />
<glyph unicode="&#x12b;" horiz-adv-x="466" d="M78 0l186 1071h148l-187 -1071h-147zM111 1284l20 117h526l-20 -117h-526z" />
<glyph unicode="&#x12c;" horiz-adv-x="466" d="M72 0l256 1470h161l-256 -1470h-161zM193 1839h81l2 -14q63 -106 179 -107q72 0 115.5 29t78.5 92h101q-55 -119 -133 -178t-193 -59q-111 0 -166 59t-65 178z" />
<glyph unicode="&#x12d;" horiz-adv-x="466" d="M78 0l186 1071h148l-187 -1071h-147zM150 1421l2 60h81q8 -86 44 -124t110 -38t119 36t84 126h80q-45 -145 -120 -212t-194 -67q-100 0 -155 56.5t-51 162.5z" />
<glyph unicode="&#x12e;" horiz-adv-x="466" d="M-100 -303q0 86 43 156.5t135 146.5h-6l256 1470h161l-256 -1470q-80 -47 -137 -125q-39 -53 -39 -111q0 -86 95 -86h63l-22 -149h-72q-92 0 -156.5 46t-64.5 122z" />
<glyph unicode="&#x12f;" horiz-adv-x="466" d="M-109 -303q0 88 51.5 171t135.5 132l186 1071h148l-187 -1071q-80 -47 -137 -125q-39 -53 -39 -111q0 -86 94 -86h64l-23 -149h-71q-92 0 -157 46t-65 122zM281 1243l34 197h177l-35 -197h-176z" />
<glyph unicode="&#x130;" horiz-adv-x="466" d="M72 0l256 1470h161l-256 -1470h-161zM348 1622l35 197h176l-35 -197h-176z" />
<glyph unicode="&#x131;" horiz-adv-x="372" d="M31 0l186 1071h148l-187 -1071h-147z" />
<glyph unicode="&#x134;" horiz-adv-x="839" d="M-2 246q0 41 6 82l27 145h151l-16 -102q-10 -66 -8 -86q0 -154 147 -154q190 0 236 254l190 1085h162l-186 -1073q-37 -209 -147.5 -322.5t-276.5 -113.5q-137 0 -211 74t-74 211zM557 1597l240 248h157l154 -248h-135l-115 150l-168 -150h-133z" />
<glyph unicode="&#x135;" horiz-adv-x="372" d="M-182 -424l26 156h31q70 0 92.5 22.5t38.5 108.5l211 1208h148l-213 -1229q-25 -139 -90.5 -205.5t-178.5 -66.5q-30 0 -65 6zM70 1198l217 289h155l115 -289h-133l-78 191l-143 -191h-133z" />
<glyph unicode="&#x136;" horiz-adv-x="1120" d="M45 0l256 1470h164l-125 -712l709 712h225l-606 -593l362 -877h-211l-293 737l-229 -221l-88 -516h-164zM281 -586l14 80q86 8 111 176h-82l36 207h158l-33 -192q-20 -123 -74 -194t-130 -77z" />
<glyph unicode="&#x137;" horiz-adv-x="839" d="M31 0l256 1470h143l-149 -852l456 453h189l-406 -399l240 -672h-191l-178 541l-147 -135l-70 -406h-143zM162 -586l14 80q86 8 111 176h-82l37 207h157l-32 -192q-20 -123 -74.5 -194t-130.5 -77z" />
<glyph unicode="&#x139;" d="M45 0l256 1470h164l-225 -1294h610l-31 -176h-774zM324 1595l172 248h202l-262 -248h-112z" />
<glyph unicode="&#x13a;" horiz-adv-x="372" d="M31 0l256 1470h147l-256 -1470h-147zM309 1595l172 248h203l-262 -248h-113z" />
<glyph unicode="&#x13b;" d="M45 0l256 1470h164l-225 -1294h610l-31 -176h-774zM256 -586l14 80q86 8 111 176h-82l37 207h158l-33 -192q-20 -123 -74.5 -194t-130.5 -77z" />
<glyph unicode="&#x13c;" horiz-adv-x="372" d="M-72 -586l15 80q86 8 110 176h-82l37 207h158l-33 -192q-20 -123 -74.5 -194t-130.5 -77zM31 0l256 1470h147l-256 -1470h-147z" />
<glyph unicode="&#x13d;" d="M45 0l256 1470h164l-225 -1294h610l-31 -176h-774zM498 1008l14 79q86 8 111 177h-82l37 206h157l-33 -192q-20 -123 -74 -193.5t-130 -76.5z" />
<glyph unicode="&#x13e;" horiz-adv-x="372" d="M31 0l256 1470h147l-256 -1470h-147zM467 1008l14 79q86 8 111 177h-82l37 206h158l-33 -192q-20 -123 -74.5 -193.5t-130.5 -76.5z" />
<glyph unicode="&#x13f;" d="M45 0l256 1470h164l-225 -1294h610l-31 -176h-774zM625 676l32 196h177l-33 -196h-176z" />
<glyph unicode="&#x140;" horiz-adv-x="548" d="M31 0l256 1470h147l-256 -1470h-147zM410 676l32 196h176l-32 -196h-176z" />
<glyph unicode="&#x141;" horiz-adv-x="1130" d="M129 375l33 182l139 131l135 782h164l-106 -614l368 352l-31 -180l-370 -352l-86 -500h610l-31 -176h-774l88 508z" />
<glyph unicode="&#x142;" horiz-adv-x="643" d="M141 662l29 161l162 131l90 516h147l-69 -399l164 131l-29 -164l-164 -129l-158 -909h-147l137 793z" />
<glyph unicode="&#x143;" horiz-adv-x="1212" d="M45 0l256 1470h195l397 -1194l209 1194h158l-256 -1470h-185l-407 1194l-209 -1194h-158zM745 1595l173 248h202l-262 -248h-113z" />
<glyph unicode="&#x144;" d="M27 0l186 1071h139l-26 -158q78 100 150.5 144.5t162.5 44.5q113 0 177.5 -69.5t64.5 -192.5q0 -45 -11 -111l-127 -729h-147l115 659q10 68 10 123q0 158 -141 158q-113 0 -194 -95t-110 -261l-102 -584h-147zM537 1196l180 289h203l-271 -289h-112z" />
<glyph unicode="&#x145;" horiz-adv-x="1212" d="M45 0l256 1470h195l397 -1194l209 1194h158l-256 -1470h-185l-407 1194l-209 -1194h-158zM348 -586l14 80q86 8 111 176h-82l37 207h158l-33 -192q-20 -123 -74.5 -194t-130.5 -77z" />
<glyph unicode="&#x146;" d="M27 0l186 1071h139l-26 -158q78 100 150.5 144.5t162.5 44.5q113 0 177.5 -69.5t64.5 -192.5q0 -45 -11 -111l-127 -729h-147l115 659q10 68 10 123q0 158 -141 158q-113 0 -194 -95t-110 -261l-102 -584h-147zM209 -586l14 80q86 8 111 176h-82l37 207h157l-32 -192 q-20 -123 -74.5 -194t-130.5 -77z" />
<glyph unicode="&#x147;" horiz-adv-x="1212" d="M45 0l256 1470h195l397 -1194l209 1194h158l-256 -1470h-185l-407 1194l-209 -1194h-158zM571 1845h136l114 -149l168 149h133l-239 -248h-158z" />
<glyph unicode="&#x148;" d="M27 0l186 1071h139l-26 -158q78 100 150.5 144.5t162.5 44.5q113 0 177.5 -69.5t64.5 -192.5q0 -45 -11 -111l-127 -729h-147l115 659q10 68 10 123q0 158 -141 158q-113 0 -194 -95t-110 -261l-102 -584h-147zM399 1487h133l78 -191l144 191h133l-217 -289h-156z" />
<glyph unicode="&#x14a;" horiz-adv-x="1212" d="M45 0l256 1470h195l397 -1194l209 1194h158l-269 -1546q-37 -209 -147.5 -322.5t-276.5 -113.5q-137 0 -210.5 73.5t-73.5 211.5q0 43 6 82h153v-43q0 -154 148 -154q80 0 147.5 57.5t81.5 137.5l17 98l-424 1243l-209 -1194h-158z" />
<glyph unicode="&#x14b;" d="M27 0l186 1071h139l-26 -158q78 100 150.5 144.5t162.5 44.5q113 0 177.5 -69.5t64.5 -192.5q0 -45 -11 -111l-153 -887q-25 -139 -90.5 -205.5t-177.5 -66.5q-31 0 -66 6l27 156h30q70 0 92.5 22.5t38.5 108.5l140 796q10 68 10 123q0 158 -141 158q-113 0 -194 -95 t-110 -261l-102 -584h-147z" />
<glyph unicode="&#x14c;" horiz-adv-x="1306" d="M94 535q0 250 95.5 473t267.5 362t377 139q223 0 347 -150.5t124 -424.5q0 -246 -94.5 -468t-266.5 -363.5t-379 -141.5q-225 0 -348 151t-123 423zM264 561q0 -199 88 -311.5t242 -112.5q223 0 382 229.5t159 544.5q0 197 -88.5 309.5t-243.5 112.5q-223 0 -381 -226.5 t-158 -545.5zM596 1663l20 117h527l-21 -117h-526z" />
<glyph unicode="&#x14d;" d="M57 387q0 279 152.5 497t368.5 218q150 0 235.5 -109.5t85.5 -304.5q0 -279 -152.5 -498t-367.5 -219q-152 0 -237 110.5t-85 305.5zM211 406q0 -135 50 -207t147 -72q141 0 239 166t98 373q0 135 -51 207.5t-145 72.5q-141 0 -239.5 -164.5t-98.5 -375.5zM344 1284 l21 117h526l-21 -117h-526z" />
<glyph unicode="&#x14e;" horiz-adv-x="1306" d="M94 535q0 250 95.5 473t267.5 362t377 139q223 0 347 -150.5t124 -424.5q0 -246 -94.5 -468t-266.5 -363.5t-379 -141.5q-225 0 -348 151t-123 423zM264 561q0 -199 88 -311.5t242 -112.5q223 0 382 229.5t159 544.5q0 197 -88.5 309.5t-243.5 112.5q-223 0 -381 -226.5 t-158 -545.5zM610 1839h82l2 -14q63 -106 178 -107q72 0 116 29t79 92h100q-55 -119 -133 -178t-192 -59q-111 0 -166.5 59t-65.5 178z" />
<glyph unicode="&#x14f;" d="M57 387q0 279 152.5 497t368.5 218q150 0 235.5 -109.5t85.5 -304.5q0 -279 -152.5 -498t-367.5 -219q-152 0 -237 110.5t-85 305.5zM211 406q0 -135 50 -207t147 -72q141 0 239 166t98 373q0 135 -51 207.5t-145 72.5q-141 0 -239.5 -164.5t-98.5 -375.5zM383 1421l2 60 h82q8 -86 44 -124t109.5 -38t118.5 36t84 126h80q-45 -145 -119.5 -212t-193.5 -67q-100 0 -155.5 56.5t-51.5 162.5z" />
<glyph unicode="&#x150;" horiz-adv-x="1306" d="M94 535q0 250 95.5 473t267.5 362t377 139q223 0 347 -150.5t124 -424.5q0 -246 -94.5 -468t-266.5 -363.5t-379 -141.5q-225 0 -348 151t-123 423zM264 561q0 -199 88 -311.5t242 -112.5q223 0 382 229.5t159 544.5q0 197 -88.5 309.5t-243.5 112.5q-223 0 -381 -226.5 t-158 -545.5zM641 1597l199 289h184l-270 -289h-113zM942 1597l201 289h182l-270 -289h-113z" />
<glyph unicode="&#x151;" d="M57 387q0 279 152.5 497t368.5 218q150 0 235.5 -109.5t85.5 -304.5q0 -279 -152.5 -498t-367.5 -219q-152 0 -237 110.5t-85 305.5zM211 406q0 -135 50 -207t147 -72q141 0 239 166t98 373q0 135 -51 207.5t-145 72.5q-141 0 -239.5 -164.5t-98.5 -375.5zM387 1198 l199 289h184l-270 -289h-113zM688 1198l201 289h182l-270 -289h-113z" />
<glyph unicode="&#x152;" horiz-adv-x="1679" d="M82 481q0 260 85 494.5t241.5 384t345.5 149.5q106 0 170.5 -46t101.5 -148l27 155h739l-31 -176h-585l-80 -450h561l-31 -176h-561l-86 -492h590l-31 -176h-743l26 160q-88 -113 -165.5 -156t-186.5 -43q-184 0 -285.5 136t-101.5 384zM248 496q0 -365 272 -365 q129 0 225.5 93t122.5 247l93 537q8 53 8 79q0 117 -64.5 184.5t-175.5 67.5q-215 0 -340 -247q-59 -119 -100 -290t-41 -306z" />
<glyph unicode="&#x153;" horiz-adv-x="1585" d="M57 385q0 279 152.5 498t365.5 219q211 0 293 -217q88 119 173 168t198 49q154 0 226.5 -106.5t72.5 -270.5q0 -90 -22 -248h-644q-12 -74 -12 -123q0 -106 54.5 -167.5t146.5 -61.5q90 0 166 59.5t104 151.5h148q-57 -174 -176 -270.5t-275 -96.5q-111 0 -178.5 47 t-118.5 160q-133 -205 -346 -205q-156 0 -242 109.5t-86 304.5zM211 406q0 -135 50 -207t147 -72q141 0 239 166t98 373q0 135 -51 207.5t-145 72.5q-141 0 -239.5 -166.5t-98.5 -373.5zM897 621h492q4 74 4 96q0 102 -50.5 162.5t-136.5 60.5q-106 0 -191 -87t-118 -232z " />
<glyph unicode="&#x154;" horiz-adv-x="1212" d="M66 0l256 1470h559q164 0 250 -74.5t86 -217.5q0 -293 -238 -455q59 -35 80.5 -72t21.5 -112q0 -45 -6 -93l-37 -266q-6 -43 -6 -69q0 -43 41 -78l-6 -33h-201v35q0 117 37 334q10 68 10 102q0 160 -180 160h-395l-109 -631h-163zM369 801h376q145 0 221 89t76 240 q0 170 -180 170h-407zM713 1595l172 248h202l-262 -248h-112z" />
<glyph unicode="&#x155;" horiz-adv-x="559" d="M47 0l186 1071h140l-33 -184q80 117 145.5 166t143.5 49q18 0 37 -6l-33 -187h-55q-96 0 -175 -80.5t-100 -205.5l-108 -623h-148zM350 1196l180 289h203l-270 -289h-113z" />
<glyph unicode="&#x156;" horiz-adv-x="1212" d="M66 0l256 1470h559q164 0 250 -74.5t86 -217.5q0 -293 -238 -455q59 -35 80.5 -72t21.5 -112q0 -45 -6 -93l-37 -266q-6 -43 -6 -69q0 -43 41 -78l-6 -33h-201v35q0 117 37 334q10 68 10 102q0 160 -180 160h-395l-109 -631h-163zM315 -586l15 80q86 8 110 176h-82 l37 207h158l-33 -192q-20 -123 -74.5 -194t-130.5 -77zM369 801h376q145 0 221 89t76 240q0 170 -180 170h-407z" />
<glyph unicode="&#x157;" horiz-adv-x="559" d="M-55 -586l14 80q86 8 111 176h-82l37 207h157l-32 -192q-20 -123 -74.5 -194t-130.5 -77zM47 0l186 1071h140l-33 -184q80 117 145.5 166t143.5 49q18 0 37 -6l-33 -187h-55q-96 0 -175 -80.5t-100 -205.5l-108 -623h-148z" />
<glyph unicode="&#x158;" horiz-adv-x="1212" d="M66 0l256 1470h559q164 0 250 -74.5t86 -217.5q0 -293 -238 -455q59 -35 80.5 -72t21.5 -112q0 -45 -6 -93l-37 -266q-6 -43 -6 -69q0 -43 41 -78l-6 -33h-201v35q0 117 37 334q10 68 10 102q0 160 -180 160h-395l-109 -631h-163zM369 801h376q145 0 221 89t76 240 q0 170 -180 170h-407zM539 1845h135l114 -149l168 149h134l-240 -248h-158z" />
<glyph unicode="&#x159;" horiz-adv-x="559" d="M47 0l186 1071h140l-33 -184q80 117 145.5 166t143.5 49q18 0 37 -6l-33 -187h-55q-96 0 -175 -80.5t-100 -205.5l-108 -623h-148zM213 1487h133l78 -191l143 191h133l-217 -289h-155z" />
<glyph unicode="&#x15a;" horiz-adv-x="1120" d="M70 322q0 68 14 153h154q-8 -49 -9 -94q0 -117 76 -183.5t209 -66.5q166 0 263 85t97 228q0 74 -47 116t-172 79l-233 70q-205 61 -205 264q0 219 146.5 377.5t369.5 158.5q180 0 280.5 -91t100.5 -253q0 -59 -8 -125h-154q4 53 4 68q0 106 -67.5 168.5t-183.5 62.5 q-141 0 -231.5 -85t-90.5 -218q0 -109 115 -141l325 -96q215 -61 215 -295q0 -242 -156.5 -392.5t-406.5 -150.5q-190 0 -297.5 100.5t-107.5 260.5zM696 1595l172 248h203l-262 -248h-113z" />
<glyph unicode="&#x15b;" horiz-adv-x="839" d="M25 238q0 49 8 106h143q-4 -45 -4 -59q0 -76 50 -118t143 -42q104 0 171.5 55.5t67.5 143.5q0 43 -33.5 70.5t-117.5 54.5l-162 51q-162 51 -162 200q0 168 115.5 285t283.5 117q129 0 204 -70.5t75 -195.5q0 -12 -4 -70h-144q4 37 5 45q0 63 -45.5 99t-124.5 36 q-94 0 -153.5 -51t-59.5 -133q0 -41 27.5 -63.5t107.5 -47.5l141 -45q106 -35 154.5 -87t48.5 -132q0 -174 -124 -296t-300 -122q-150 0 -230.5 71t-80.5 198zM489 1196l181 289h202l-270 -289h-113z" />
<glyph unicode="&#x15c;" horiz-adv-x="1120" d="M70 322q0 68 14 153h154q-8 -49 -9 -94q0 -117 76 -183.5t209 -66.5q166 0 263 85t97 228q0 74 -47 116t-172 79l-233 70q-205 61 -205 264q0 219 146.5 377.5t369.5 158.5q180 0 280.5 -91t100.5 -253q0 -59 -8 -125h-154q4 53 4 68q0 106 -67.5 168.5t-183.5 62.5 q-141 0 -231.5 -85t-90.5 -218q0 -109 115 -141l325 -96q215 -61 215 -295q0 -242 -156.5 -392.5t-406.5 -150.5q-190 0 -297.5 100.5t-107.5 260.5zM477 1597l240 248h157l154 -248h-135l-115 150l-168 -150h-133z" />
<glyph unicode="&#x15d;" horiz-adv-x="839" d="M25 238q0 49 8 106h143q-4 -45 -4 -59q0 -76 50 -118t143 -42q104 0 171.5 55.5t67.5 143.5q0 43 -33.5 70.5t-117.5 54.5l-162 51q-162 51 -162 200q0 168 115.5 285t283.5 117q129 0 204 -70.5t75 -195.5q0 -12 -4 -70h-144q4 37 5 45q0 63 -45.5 99t-124.5 36 q-94 0 -153.5 -51t-59.5 -133q0 -41 27.5 -63.5t107.5 -47.5l141 -45q106 -35 154.5 -87t48.5 -132q0 -174 -124 -296t-300 -122q-150 0 -230.5 71t-80.5 198zM303 1198l217 289h156l115 -289h-134l-77 191l-144 -191h-133z" />
<glyph unicode="&#x15e;" horiz-adv-x="1120" d="M70 322q0 68 14 153h154q-8 -49 -9 -94q0 -117 76 -183.5t209 -66.5q166 0 263 85t97 228q0 74 -47 116t-172 79l-233 70q-205 61 -205 264q0 219 146.5 377.5t369.5 158.5q180 0 280.5 -91t100.5 -253q0 -59 -8 -125h-154q4 53 4 68q0 106 -67.5 168.5t-183.5 62.5 q-141 0 -231.5 -85t-90.5 -218q0 -109 115 -141l325 -96q215 -61 215 -295q0 -225 -137 -372.5t-362 -168.5l-54 -82h17q53 0 83.5 -35.5t30.5 -93.5q0 -94 -67.5 -158.5t-165.5 -64.5q-72 0 -154 45l43 82q59 -31 101 -31q51 0 81.5 28t30.5 75q0 29 -19.5 48t-47.5 19 q-39 0 -68 -10l-22 39l106 139q-172 10 -268 108.5t-96 250.5z" />
<glyph unicode="&#x15f;" horiz-adv-x="839" d="M25 238q0 49 8 106h143q-4 -45 -4 -59q0 -76 50 -118t143 -42q104 0 171.5 55.5t67.5 143.5q0 43 -33.5 70.5t-117.5 54.5l-162 51q-162 51 -162 200q0 168 115.5 285t283.5 117q129 0 204 -70.5t75 -195.5q0 -12 -4 -70h-144q4 37 5 45q0 63 -45.5 99t-124.5 36 q-94 0 -153.5 -51t-59.5 -133q0 -41 27.5 -63.5t107.5 -47.5l141 -45q106 -35 154.5 -87t48.5 -132q0 -156 -101.5 -272.5t-255.5 -141.5l-61 -92h16q53 0 84 -35.5t31 -93.5q0 -94 -67.5 -158.5t-165.5 -64.5q-72 0 -154 45l43 82q59 -31 100 -31q51 0 82 28t31 75 q0 29 -19.5 48t-48.5 19q-39 0 -67 -10l-23 39l113 147q-131 8 -201.5 77t-70.5 190z" />
<glyph unicode="&#x160;" horiz-adv-x="1120" d="M70 322q0 68 14 153h154q-8 -49 -9 -94q0 -117 76 -183.5t209 -66.5q166 0 263 85t97 228q0 74 -47 116t-172 79l-233 70q-205 61 -205 264q0 219 146.5 377.5t369.5 158.5q180 0 280.5 -91t100.5 -253q0 -59 -8 -125h-154q4 53 4 68q0 106 -67.5 168.5t-183.5 62.5 q-141 0 -231.5 -85t-90.5 -218q0 -109 115 -141l325 -96q215 -61 215 -295q0 -242 -156.5 -392.5t-406.5 -150.5q-190 0 -297.5 100.5t-107.5 260.5zM522 1845h135l115 -149l168 149h133l-239 -248h-158z" />
<glyph unicode="&#x161;" horiz-adv-x="839" d="M25 238q0 49 8 106h143q-4 -45 -4 -59q0 -76 50 -118t143 -42q104 0 171.5 55.5t67.5 143.5q0 43 -33.5 70.5t-117.5 54.5l-162 51q-162 51 -162 200q0 168 115.5 285t283.5 117q129 0 204 -70.5t75 -195.5q0 -12 -4 -70h-144q4 37 5 45q0 63 -45.5 99t-124.5 36 q-94 0 -153.5 -51t-59.5 -133q0 -41 27.5 -63.5t107.5 -47.5l141 -45q106 -35 154.5 -87t48.5 -132q0 -174 -124 -296t-300 -122q-150 0 -230.5 71t-80.5 198zM352 1487h133l78 -191l144 191h133l-217 -289h-156z" />
<glyph unicode="&#x162;" horiz-adv-x="1026" d="M168 -426l43 82q59 -31 100 -31q51 0 82 28t31 75q0 29 -19.5 48t-48.5 19q-39 0 -67 -10l-23 39l135 176h-51l225 1294h-407l31 176h979l-31 -176h-408l-225 -1294h-12l-78 -119h16q53 0 84 -35.5t31 -93.5q0 -94 -67.5 -158.5t-165.5 -64.5q-72 0 -154 45z" />
<glyph unicode="&#x163;" horiz-adv-x="466" d="M-78 -426l43 82q59 -31 101 -31q51 0 81.5 28t30.5 75q0 29 -19.5 48t-47.5 19q-39 0 -68 -10l-23 39l138 176q-68 31 -68 129q0 47 8 86l123 707h-119l27 149h119l51 299h150l-54 -299h142l-27 -149h-141l-121 -697q-2 -8 -2 -24q0 -59 76 -60h53l-25 -141l-102 -12 l-70 -107h17q53 0 83.5 -35.5t30.5 -93.5q0 -94 -67.5 -158.5t-165.5 -64.5q-72 0 -154 45z" />
<glyph unicode="&#x164;" horiz-adv-x="1026" d="M168 1294l31 176h979l-31 -176h-408l-225 -1294h-164l225 1294h-407zM479 1845h135l115 -149l168 149h133l-239 -248h-158z" />
<glyph unicode="&#x165;" horiz-adv-x="466" d="M90 129q0 47 8 86l123 707h-119l27 149h119l51 299h150l-54 -299h142l-27 -149h-141l-121 -697q-2 -8 -2 -24q0 -59 76 -60h53l-25 -141q-115 -14 -123 -14q-137 0 -137 143zM465 1128l14 80q86 8 111 176h-82l37 207h157l-32 -192q-20 -123 -74.5 -194t-130.5 -77z" />
<glyph unicode="&#x168;" horiz-adv-x="1212" d="M125 360q0 76 10 129l172 981h162l-160 -925q-12 -66 -12 -131q0 -133 64.5 -205t185.5 -72q150 0 249 105.5t134 298.5l164 929h161l-165 -954q-45 -254 -202 -404.5t-378 -150.5q-184 0 -284.5 104.5t-100.5 294.5zM518 1602q35 115 86 167t127 52q51 0 109 -31l34 -18 q49 -27 78 -27q61 0 97 94h84q-70 -223 -209 -223q-33 0 -93 26l-40 19q-70 31 -97 31q-57 0 -96 -90h-80z" />
<glyph unicode="&#x169;" d="M76 211q0 49 8 90l133 770h150l-125 -711q-6 -39 -6 -81q0 -154 137 -154q111 0 192.5 96t110.5 260l102 590h148l-187 -1071h-139l29 166q-78 -111 -146.5 -154t-165.5 -43q-115 0 -178 63.5t-63 178.5zM309 1223q35 115 86 167t127 52q51 0 109 -31l35 -18 q49 -27 77 -27q61 0 97 94h84q-70 -223 -209 -223q-33 0 -92 27l-41 18q-70 31 -97 31q-57 0 -96 -90h-80z" />
<glyph unicode="&#x16a;" horiz-adv-x="1212" d="M125 360q0 76 10 129l172 981h162l-160 -925q-12 -66 -12 -131q0 -133 64.5 -205t185.5 -72q150 0 249 105.5t134 298.5l164 929h161l-165 -954q-45 -254 -202 -404.5t-378 -150.5q-184 0 -284.5 104.5t-100.5 294.5zM551 1663l20 117h527l-21 -117h-526z" />
<glyph unicode="&#x16b;" d="M76 211q0 49 8 90l133 770h150l-125 -711q-6 -39 -6 -81q0 -154 137 -154q111 0 192.5 96t110.5 260l102 590h148l-187 -1071h-139l29 166q-78 -111 -146.5 -154t-165.5 -43q-115 0 -178 63.5t-63 178.5zM344 1284l21 117h526l-21 -117h-526z" />
<glyph unicode="&#x16c;" horiz-adv-x="1212" d="M125 360q0 76 10 129l172 981h162l-160 -925q-12 -66 -12 -131q0 -133 64.5 -205t185.5 -72q150 0 249 105.5t134 298.5l164 929h161l-165 -954q-45 -254 -202 -404.5t-378 -150.5q-184 0 -284.5 104.5t-100.5 294.5zM565 1839h82l2 -14q63 -106 178 -107q72 0 116 29 t79 92h100q-55 -119 -133 -178t-192 -59q-111 0 -166.5 59t-65.5 178z" />
<glyph unicode="&#x16d;" d="M76 211q0 49 8 90l133 770h150l-125 -711q-6 -39 -6 -81q0 -154 137 -154q111 0 192.5 96t110.5 260l102 590h148l-187 -1071h-139l29 166q-78 -111 -146.5 -154t-165.5 -43q-115 0 -178 63.5t-63 178.5zM383 1421l2 60h82q8 -86 44 -124t109.5 -38t118.5 36t84 126h80 q-45 -145 -119.5 -212t-193.5 -67q-100 0 -155.5 56.5t-51.5 162.5z" />
<glyph unicode="&#x16e;" horiz-adv-x="1212" d="M125 360q0 76 10 129l172 981h162l-160 -925q-12 -66 -12 -131q0 -133 64.5 -205t185.5 -72q150 0 249 105.5t134 298.5l164 929h161l-165 -954q-45 -254 -202 -404.5t-378 -150.5q-184 0 -284.5 104.5t-100.5 294.5zM625 1761q14 72 81.5 120t155.5 48q90 0 140.5 -48 t35.5 -124q-12 -72 -79.5 -120t-155.5 -48q-90 0 -140 48t-38 124zM715 1761q-6 -41 22.5 -69.5t77.5 -28.5t88 27.5t45 66.5q8 41 -21.5 69.5t-76.5 28.5t-87 -27.5t-48 -66.5z" />
<glyph unicode="&#x16f;" d="M76 211q0 49 8 90l133 770h150l-125 -711q-6 -39 -6 -81q0 -154 137 -154q111 0 192.5 96t110.5 260l102 590h148l-187 -1071h-139l29 166q-78 -111 -146.5 -154t-165.5 -43q-115 0 -178 63.5t-63 178.5zM412 1343q12 72 79.5 120t155.5 48q90 0 140.5 -48t37.5 -124 q-12 -72 -79.5 -120t-157.5 -48t-140 48t-36 124zM502 1343q-8 -41 21.5 -69.5t78.5 -28.5t88 27.5t45 66.5q8 41 -21.5 70t-78.5 29q-47 0 -87 -28t-46 -67z" />
<glyph unicode="&#x170;" horiz-adv-x="1212" d="M125 360q0 76 10 129l172 981h162l-160 -925q-12 -66 -12 -131q0 -133 64.5 -205t185.5 -72q150 0 249 105.5t134 298.5l164 929h161l-165 -954q-45 -254 -202 -404.5t-378 -150.5q-184 0 -284.5 104.5t-100.5 294.5zM596 1597l199 289h184l-270 -289h-113zM897 1597 l201 289h182l-270 -289h-113z" />
<glyph unicode="&#x171;" d="M76 211q0 49 8 90l133 770h150l-125 -711q-6 -39 -6 -81q0 -154 137 -154q111 0 192.5 96t110.5 260l102 590h148l-187 -1071h-139l29 166q-78 -111 -146.5 -154t-165.5 -43q-115 0 -178 63.5t-63 178.5zM387 1198l199 289h184l-270 -289h-113zM688 1198l201 289h182 l-270 -289h-113z" />
<glyph unicode="&#x172;" horiz-adv-x="1212" d="M125 360q0 76 10 129l172 981h162l-160 -925q-12 -66 -12 -131q0 -133 64.5 -205t185.5 -72q150 0 249 105.5t134 298.5l164 929h161l-165 -954q-33 -188 -131.5 -322.5t-241.5 -193.5q-109 -43 -166 -125q-41 -53 -41 -111q0 -86 94 -86h64l-23 -149h-72 q-92 0 -156.5 46t-64.5 122q0 141 135 264q-174 8 -268 111.5t-94 287.5z" />
<glyph unicode="&#x173;" d="M76 211q0 49 8 90l133 770h150l-125 -711q-6 -39 -6 -81q0 -154 137 -154q111 0 192.5 96t110.5 260l102 590h148l-187 -1071q-80 -47 -137 -125q-39 -53 -39 -111q0 -86 94 -86h64l-23 -149h-71q-92 0 -156.5 46t-64.5 122q0 88 45 160q51 88 149 143l29 166 q-78 -111 -146.5 -154t-165.5 -43q-115 0 -178 63.5t-63 178.5z" />
<glyph unicode="&#x174;" horiz-adv-x="1585" d="M201 0v1470h192v-1204l484 1204h239v-1204l436 1204h181l-574 -1470h-235v1227l-494 -1227h-229zM741 1597l240 248h158l153 -248h-135l-115 150l-168 -150h-133z" />
<glyph unicode="&#x175;" horiz-adv-x="1212" d="M129 1071h182v-850l320 850h190v-850l328 850h147l-442 -1071h-186v838l-320 -838h-151zM489 1198l218 289h155l115 -289h-133l-78 191l-143 -191h-134z" />
<glyph unicode="&#x176;" horiz-adv-x="1120" d="M199 1470h190l221 -706l471 706h191l-608 -878l-103 -592h-164l103 592zM481 1597l240 248h158l153 -248h-135l-115 150l-168 -150h-133z" />
<glyph unicode="&#x177;" horiz-adv-x="839" d="M-57 -422l28 164q43 -18 86 -18q47 0 74 26.5t70 110.5l55 110l-133 1100h168l82 -878l389 878h164l-500 -1051q-84 -172 -127 -251.5t-91 -133t-86 -63.5t-108 -10q-27 0 -59 12zM303 1198l217 289h156l115 -289h-134l-77 191l-144 -191h-133z" />
<glyph unicode="&#x178;" horiz-adv-x="1120" d="M199 1470h190l221 -706l471 706h191l-608 -878l-103 -592h-164l103 592zM508 1622l35 197h180l-35 -197h-180zM838 1622l34 197h181l-35 -197h-180z" />
<glyph unicode="&#x179;" horiz-adv-x="1026" d="M-43 0l29 166l936 1128h-684l30 176h893l-31 -172l-935 -1122h741l-31 -176h-948zM680 1595l172 248h203l-262 -248h-113z" />
<glyph unicode="&#x17a;" horiz-adv-x="839" d="M-31 0l25 141l665 781h-489l27 149h680l-27 -147l-657 -774h538l-26 -150h-736zM489 1196l181 289h202l-270 -289h-113z" />
<glyph unicode="&#x17b;" horiz-adv-x="1026" d="M-43 0l29 166l936 1128h-684l30 176h893l-31 -172l-935 -1122h741l-31 -176h-948zM655 1622l35 197h176l-35 -197h-176z" />
<glyph unicode="&#x17c;" horiz-adv-x="839" d="M-31 0l25 141l665 781h-489l27 149h680l-27 -147l-657 -774h538l-26 -150h-736zM467 1243l35 197h176l-35 -197h-176z" />
<glyph unicode="&#x17d;" horiz-adv-x="1026" d="M-43 0l29 166l936 1128h-684l30 176h893l-31 -172l-935 -1122h741l-31 -176h-948zM506 1845h135l115 -149l168 149h133l-240 -248h-158z" />
<glyph unicode="&#x17e;" horiz-adv-x="839" d="M-31 0l25 141l665 781h-489l27 149h680l-27 -147l-657 -774h538l-26 -150h-736zM352 1487h133l78 -191l144 191h133l-217 -289h-156z" />
<glyph unicode="&#x17f;" horiz-adv-x="466" d="M63 0l218 1255q18 115 86.5 175.5t179.5 60.5q25 0 69 -4l-28 -162q-53 4 -60 4q-88 0 -108 -125l-209 -1204h-148z" />
<glyph unicode="&#x18e;" horiz-adv-x="1120" d="M63 0l31 176h727l86 492h-661l33 176h661l76 450h-715l31 176h878l-256 -1470h-891z" />
<glyph unicode="&#x192;" d="M-170 -399l53 166q45 -29 82 -29q70 0 120 75.5t118 280.5l229 707h-182l24 143h207l90 254q49 139 139.5 225t186.5 86q61 0 121 -30l-53 -160q-66 35 -91 35q-49 0 -94 -52.5t-75 -146.5l-70 -211h190l-24 -143h-213l-219 -670q-94 -291 -200 -423t-245 -132 q-55 0 -94 25z" />
<glyph unicode="&#x1a0;" horiz-adv-x="1306" d="M94 535q0 250 95.5 473t267.5 362t377 139q262 0 385 -202q86 37 112 166h-88l33 196h176l-33 -196q-14 -76 -59 -141.5t-107 -98.5q51 -123 52 -299q0 -246 -94.5 -468t-266.5 -363.5t-379 -141.5q-225 0 -348 151t-123 423zM264 561q0 -199 88 -311.5t242 -112.5 q223 0 382 229.5t159 544.5q0 197 -88.5 309.5t-243.5 112.5q-223 0 -381 -226.5t-158 -545.5z" />
<glyph unicode="&#x1a1;" horiz-adv-x="952" d="M57 387q0 279 152.5 497t368.5 218q195 0 274 -174q63 51 78 145h-88l35 197h176l-35 -197q-23 -145 -137 -223q18 -74 18 -162q0 -279 -152.5 -498t-367.5 -219q-152 0 -237 110.5t-85 305.5zM211 406q0 -135 50 -207t147 -72q141 0 239 166t98 373q0 135 -51 207.5 t-145 72.5q-141 0 -239.5 -164.5t-98.5 -375.5z" />
<glyph unicode="&#x1af;" horiz-adv-x="1208" d="M125 360q0 76 10 129l172 981h162l-160 -925q-12 -66 -12 -131q0 -133 64.5 -205t185.5 -72q150 0 249 105.5t134 298.5l164 929h161l2 3h-88l33 196h176l-32 -196q-18 -106 -93 -185.5t-170 -79.5l-30 45l37 -737q-45 -254 -202 -404.5t-378 -150.5q-184 0 -284.5 104.5 t-100.5 294.5z" />
<glyph unicode="&#x1b0;" horiz-adv-x="948" d="M76 211q0 49 8 90l133 770h150l-125 -711q-6 -39 -6 -81q0 -154 137 -154q111 0 192.5 96t110.5 260l102 590h148v2h-88l34 197h177l-35 -197q-18 -106 -92 -185t-168 -79l-31 45l16 -854h-139l29 166q-78 -111 -146.5 -154t-165.5 -43q-115 0 -178 63.5t-63 178.5z" />
<glyph unicode="&#x1dd;" d="M63 346q0 90 23 248h641q12 76 12 127q0 104 -53 164.5t-147 60.5q-90 0 -166 -59.5t-103 -151.5h-147q57 174 176 270.5t272.5 96.5t237.5 -100.5t84 -282.5q0 -301 -152.5 -525.5t-380.5 -224.5q-152 0 -224.5 106.5t-72.5 270.5zM209 354q0 -102 50 -162.5t136 -60.5 q106 0 190.5 88t116.5 232h-489q-4 -74 -4 -97z" />
<glyph unicode="&#x1e6;" horiz-adv-x="1306" d="M104 504q0 262 98.5 493.5t266.5 371.5t360.5 140t311.5 -120.5t119 -315.5v-49h-158q-23 309 -299 309q-221 0 -374 -236.5t-153 -580.5q0 -385 320 -385q168 0 291 120t168 365h-375l29 170h528l-135 -786h-107l-6 190q-195 -229 -446 -229q-211 0 -325 158t-114 385z M612 1845h136l114 -149l168 149h133l-239 -248h-158z" />
<glyph unicode="&#x1e7;" d="M-12 -131h147q4 -90 44 -130t124 -40q133 0 208 83t110 294l8 43q-111 -150 -269 -150q-139 0 -216.5 107.5t-77.5 300.5q0 303 138 514t335 211q88 0 141 -42t94 -147l29 158h139l-172 -983q-47 -279 -170 -409t-328 -130q-143 0 -213.5 72t-70.5 227v21zM217 379 q0 -119 46 -186.5t130 -67.5q139 0 232.5 154.5t93.5 404.5q0 256 -182 256q-152 0 -236 -167t-84 -394zM399 1487h133l78 -191l144 191h133l-217 -289h-156z" />
<glyph unicode="&#x1ea;" horiz-adv-x="1306" d="M94 535q0 250 95.5 473t267.5 362t377 139q223 0 347 -150.5t124 -424.5q0 -309 -148.5 -575.5t-384.5 -358.5q-104 -41 -162 -125q-41 -53 -41 -111q0 -86 95 -86h63l-22 -149h-72q-92 0 -156.5 46t-64.5 122q0 141 133 264q-217 8 -334 158t-117 416zM264 561 q0 -199 88 -311.5t242 -112.5q223 0 382 229.5t159 544.5q0 197 -88.5 309.5t-243.5 112.5q-223 0 -381 -226.5t-158 -545.5z" />
<glyph unicode="&#x1eb;" d="M57 387q0 279 152.5 497t368.5 218q150 0 235.5 -109.5t85.5 -304.5q0 -209 -91 -395.5t-239 -269.5q-94 -51 -163 -148q-39 -53 -39 -111q0 -86 94 -86h63l-22 -149h-72q-92 0 -156.5 46t-64.5 122q0 145 145 274q-139 10 -218 120t-79 296zM211 406q0 -135 50 -207 t147 -72q141 0 239 166t98 373q0 135 -51 207.5t-145 72.5q-141 0 -239.5 -164.5t-98.5 -375.5z" />
<glyph unicode="&#x1f4;" horiz-adv-x="1306" d="M104 504q0 262 98.5 493.5t266.5 371.5t360.5 140t311.5 -120.5t119 -315.5v-49h-158q-23 309 -299 309q-221 0 -374 -236.5t-153 -580.5q0 -385 320 -385q168 0 291 120t168 365h-375l29 170h528l-135 -786h-107l-6 190q-195 -229 -446 -229q-211 0 -325 158t-114 385z M786 1595l172 248h203l-262 -248h-113z" />
<glyph unicode="&#x1f5;" d="M-12 -131h147q4 -90 44 -130t124 -40q133 0 208 83t110 294l8 43q-111 -150 -269 -150q-139 0 -216.5 107.5t-77.5 300.5q0 303 138 514t335 211q88 0 141 -42t94 -147l29 158h139l-172 -983q-47 -279 -170 -409t-328 -130q-143 0 -213.5 72t-70.5 227v21zM217 379 q0 -119 46 -186.5t130 -67.5q139 0 232.5 154.5t93.5 404.5q0 256 -182 256q-152 0 -236 -167t-84 -394zM537 1196l180 289h203l-271 -289h-112z" />
<glyph unicode="&#x1fa;" horiz-adv-x="1120" d="M-59 0l710 1470h185l180 -1470h-178l-45 428h-484l-200 -428h-168zM391 604h375l-68 653zM588 1761q14 72 81.5 120t155.5 48q90 0 140.5 -48t35.5 -124q-12 -72 -79.5 -120t-155.5 -48q-90 0 -140 48t-38 124zM678 1761q-6 -41 22.5 -69.5t77.5 -28.5t88 27.5t45 66.5 q8 41 -21.5 69.5t-76.5 28.5t-87 -27.5t-48 -66.5zM774 1970l174 248h203l-264 -248h-113z" />
<glyph unicode="&#x1fb;" d="M20 207q0 162 91.5 274.5t240.5 132.5l250 37q102 16 103 168q0 133 -177 133q-96 0 -151 -47t-90 -160h-135q80 356 413 357q137 0 214 -62.5t77 -173.5q0 -33 -6 -63l-111 -639q0 -41 39 -41q18 0 53 8l-24 -131l-19 -6q-39 -14 -69 -14q-127 0 -127 114q0 12 4 49 q-166 -174 -342 -174q-109 0 -171.5 63.5t-62.5 174.5zM178 248q0 -129 129 -129q113 0 207 74.5t113 177.5l30 176q-39 -33 -256 -68q-117 -20 -170 -75.5t-53 -155.5zM403 1362q14 72 82 120t156 48q90 0 140 -48t36 -124q-12 -72 -79.5 -120t-155.5 -48q-90 0 -140.5 48 t-38.5 124zM494 1362q-6 -41 22.5 -69.5t77.5 -28.5t88 27.5t45 66.5q8 41 -21.5 69.5t-76.5 28.5t-87 -27.5t-48 -66.5zM590 1571l174 248h203l-265 -248h-112z" />
<glyph unicode="&#x1fc;" horiz-adv-x="1679" d="M-68 0l746 1470h1081l-30 -176h-656l-78 -450h598l-30 -176h-598l-86 -492h667l-30 -176h-830l74 428h-445l-206 -428h-177zM406 604h385l120 690h-161zM979 1595l172 248h203l-262 -248h-113z" />
<glyph unicode="&#x1fd;" horiz-adv-x="1492" d="M20 207q0 162 91.5 274.5t240.5 132.5l250 37q102 16 103 168q0 133 -177 133q-96 0 -151 -47t-90 -160h-135q43 186 146 271.5t280 85.5q96 0 151 -32t107 -120q86 86 153.5 119t159.5 33q150 0 223.5 -106.5t73.5 -270.5q0 -90 -23 -248h-641q-12 -76 -12 -127 q0 -104 53.5 -164.5t145.5 -60.5q90 0 165.5 59.5t104.5 151.5h147q-59 -174 -176.5 -270.5t-273.5 -96.5q-121 0 -188.5 52.5t-102.5 171.5q-92 -119 -181 -171.5t-204 -52.5q-113 0 -176.5 62.5t-63.5 175.5zM178 250q0 -131 129 -131q113 0 207 74.5t113 177.5l30 176 q-25 -23 -69.5 -34t-186.5 -34q-223 -34 -223 -229zM807 621h489q4 74 4 96q0 102 -50 162.5t-136 60.5q-106 0 -191 -88t-116 -231zM817 1196l180 289h203l-270 -289h-113z" />
<glyph unicode="&#x1fe;" horiz-adv-x="1306" d="M-10 18l172 185q-68 162 -68 336q0 244 94.5 466t267.5 363t382 141q123 0 210 -43t156 -139l168 182l41 -61l-172 -186q63 -158 64 -330q0 -244 -94.5 -466t-267.5 -363.5t-380 -141.5q-123 0 -209 42t-155 136l-166 -178zM264 565q0 -106 33 -215l774 834 q-96 150 -266 149q-223 0 -382 -230.5t-159 -537.5zM332 283q96 -145 262 -146q223 0 382 231.5t159 538.5q0 100 -33 205zM793 1595l172 248h202l-262 -248h-112z" />
<glyph unicode="&#x1ff;" horiz-adv-x="1026" d="M-33 8l133 148q-43 113 -43 231q0 279 154 497t369 218q158 0 249 -133l134 147l43 -53l-144 -160q39 -111 39 -217q0 -180 -67.5 -344t-189.5 -267.5t-265 -103.5q-154 0 -244 123l-125 -139zM213 403q0 -49 10 -110l492 547q-55 106 -164 106q-137 0 -237.5 -160 t-100.5 -383zM250 221q49 -94 158 -94q135 0 237.5 159.5t102.5 381.5q0 41 -11 96zM584 1196l180 289h203l-271 -289h-112z" />
<glyph unicode="&#x200;" horiz-adv-x="1120" d="M-59 0l710 1470h185l180 -1470h-178l-45 428h-484l-200 -428h-168zM391 604h375l-68 653zM391 1886h182l101 -289h-113zM692 1886h185l98 -289h-113z" />
<glyph unicode="&#x201;" d="M20 207q0 162 91.5 274.5t240.5 132.5l250 37q102 16 103 168q0 133 -177 133q-96 0 -151 -47t-90 -160h-135q80 356 413 357q137 0 214 -62.5t77 -173.5q0 -33 -6 -63l-111 -639q0 -41 39 -41q18 0 53 8l-24 -131l-19 -6q-39 -14 -69 -14q-127 0 -127 114q0 12 4 49 q-166 -174 -342 -174q-109 0 -171.5 63.5t-62.5 174.5zM178 248q0 -129 129 -129q113 0 207 74.5t113 177.5l30 176q-39 -33 -256 -68q-117 -20 -170 -75.5t-53 -155.5zM207 1487h182l100 -289h-112zM508 1487h184l99 -289h-113z" />
<glyph unicode="&#x204;" horiz-adv-x="1120" d="M63 0l256 1470h879l-31 -176h-714l-80 -450h661l-30 -176h-662l-84 -492h727l-31 -176h-891zM406 1886h182l100 -289h-113zM707 1886h184l98 -289h-112z" />
<glyph unicode="&#x205;" d="M59 352q0 301 153 525.5t380 224.5q152 0 224.5 -106.5t72.5 -270.5q0 -90 -23 -248h-641q-12 -76 -12 -127q0 -104 53 -164.5t148 -60.5q90 0 165.5 59.5t102.5 151.5h147q-57 -174 -175.5 -270.5t-272.5 -96.5t-238 100.5t-84 282.5zM219 1487h182l101 -289h-113z M250 621h489q4 74 4 96q0 102 -50 162.5t-136 60.5q-106 0 -190 -88t-117 -231zM520 1487h185l98 -289h-113z" />
<glyph unicode="&#x208;" horiz-adv-x="466" d="M55 1886h183l100 -289h-113zM72 0l256 1470h161l-256 -1470h-161zM356 1886h185l98 -289h-113z" />
<glyph unicode="&#x209;" horiz-adv-x="466" d="M-14 1487h182l100 -289h-112zM78 0l186 1071h148l-187 -1071h-147zM287 1487h184l98 -289h-112z" />
<glyph unicode="&#x20c;" horiz-adv-x="1306" d="M94 535q0 250 95.5 473t267.5 362t377 139q223 0 347 -150.5t124 -424.5q0 -246 -94.5 -468t-266.5 -363.5t-379 -141.5q-225 0 -348 151t-123 423zM264 561q0 -199 88 -311.5t242 -112.5q223 0 382 229.5t159 544.5q0 197 -88.5 309.5t-243.5 112.5q-223 0 -381 -226.5 t-158 -545.5zM473 1886h182l101 -289h-113zM774 1886h184l99 -289h-113z" />
<glyph unicode="&#x20d;" d="M57 387q0 279 152.5 497t368.5 218q150 0 235.5 -109.5t85.5 -304.5q0 -279 -152.5 -498t-367.5 -219q-152 0 -237 110.5t-85 305.5zM211 406q0 -135 50 -207t147 -72q141 0 239 166t98 373q0 135 -51 207.5t-145 72.5q-141 0 -239.5 -164.5t-98.5 -375.5zM219 1487h182 l101 -289h-113zM520 1487h185l98 -289h-113z" />
<glyph unicode="&#x210;" horiz-adv-x="1212" d="M66 0l256 1470h559q164 0 250 -74.5t86 -217.5q0 -293 -238 -455q59 -35 80.5 -72t21.5 -112q0 -45 -6 -93l-37 -266q-6 -43 -6 -69q0 -43 41 -78l-6 -33h-201v35q0 117 37 334q10 68 10 102q0 160 -180 160h-395l-109 -631h-163zM369 801h376q145 0 221 89t76 240 q0 170 -180 170h-407zM395 1886h183l100 -289h-113zM696 1886h185l98 -289h-113z" />
<glyph unicode="&#x211;" horiz-adv-x="559" d="M31 1487h182l100 -289h-112zM47 0l186 1071h140l-33 -184q80 117 145.5 166t143.5 49q18 0 37 -6l-33 -187h-55q-96 0 -175 -80.5t-100 -205.5l-108 -623h-148zM332 1487h184l98 -289h-112z" />
<glyph unicode="&#x214;" horiz-adv-x="1212" d="M125 360q0 76 10 129l172 981h162l-160 -925q-12 -66 -12 -131q0 -133 64.5 -205t185.5 -72q150 0 249 105.5t134 298.5l164 929h161l-165 -954q-45 -254 -202 -404.5t-378 -150.5q-184 0 -284.5 104.5t-100.5 294.5zM428 1886h182l101 -289h-113zM729 1886h184l99 -289 h-113z" />
<glyph unicode="&#x215;" d="M76 211q0 49 8 90l133 770h150l-125 -711q-6 -39 -6 -81q0 -154 137 -154q111 0 192.5 96t110.5 260l102 590h148l-187 -1071h-139l29 166q-78 -111 -146.5 -154t-165.5 -43q-115 0 -178 63.5t-63 178.5zM219 1487h182l101 -289h-113zM520 1487h185l98 -289h-113z" />
<glyph unicode="&#x218;" horiz-adv-x="1120" d="M70 322q0 68 14 153h154q-8 -49 -9 -94q0 -117 76 -183.5t209 -66.5q166 0 263 85t97 228q0 74 -47 116t-172 79l-233 70q-205 61 -205 264q0 219 146.5 377.5t369.5 158.5q180 0 280.5 -91t100.5 -253q0 -59 -8 -125h-154q4 53 4 68q0 106 -67.5 168.5t-183.5 62.5 q-141 0 -231.5 -85t-90.5 -218q0 -109 115 -141l325 -96q215 -61 215 -295q0 -242 -156.5 -392.5t-406.5 -150.5q-190 0 -297.5 100.5t-107.5 260.5zM299 -586l14 80q86 8 111 176h-82l37 207h158l-33 -192q-20 -123 -74.5 -194t-130.5 -77z" />
<glyph unicode="&#x219;" horiz-adv-x="839" d="M25 238q0 49 8 106h143q-4 -45 -4 -59q0 -76 50 -118t143 -42q104 0 171.5 55.5t67.5 143.5q0 43 -33.5 70.5t-117.5 54.5l-162 51q-162 51 -162 200q0 168 115.5 285t283.5 117q129 0 204 -70.5t75 -195.5q0 -12 -4 -70h-144q4 37 5 45q0 63 -45.5 99t-124.5 36 q-94 0 -153.5 -51t-59.5 -133q0 -41 27.5 -63.5t107.5 -47.5l141 -45q106 -35 154.5 -87t48.5 -132q0 -174 -124 -296t-300 -122q-150 0 -230.5 71t-80.5 198zM162 -586l14 80q86 8 111 176h-82l37 207h157l-32 -192q-20 -123 -74.5 -194t-130.5 -77z" />
<glyph unicode="&#x21a;" horiz-adv-x="1026" d="M168 1294l31 176h979l-31 -176h-408l-225 -1294h-164l225 1294h-407zM256 -586l14 80q86 8 111 176h-82l37 207h158l-33 -192q-20 -123 -74.5 -194t-130.5 -77z" />
<glyph unicode="&#x21b;" horiz-adv-x="466" d="M-25 -586l15 80q86 8 110 176h-82l37 207h158l-33 -192q-20 -123 -74.5 -194t-130.5 -77zM90 129q0 47 8 86l123 707h-119l27 149h119l51 299h150l-54 -299h142l-27 -149h-141l-121 -697q-2 -8 -2 -24q0 -59 76 -60h53l-25 -141q-115 -14 -123 -14q-137 0 -137 143z" />
<glyph unicode="&#x258;" d="M53 336h148q-4 -92 50 -151.5t144 -59.5q94 0 169 60.5t110 164.5q16 43 33 127h-641q33 162 63 248q57 164 168 270.5t262.5 106.5t238.5 -107.5t91 -274.5t-60 -368q-66 -182 -184.5 -282.5t-272 -100.5t-237.5 96.5t-82 270.5zM242 621h489q18 143 -35 231t-159 88 q-86 0 -158 -60.5t-107 -162.5q-6 -14 -16 -48z" />
<glyph unicode="&#x259;" d="M63 346q0 90 23 248h641q12 76 12 127q0 104 -53 164.5t-147 60.5q-90 0 -166 -59.5t-103 -151.5h-147q57 174 176 270.5t272.5 96.5t237.5 -100.5t84 -282.5q0 -301 -152.5 -525.5t-380.5 -224.5q-152 0 -224.5 106.5t-72.5 270.5zM209 354q0 -102 50 -162.5t136 -60.5 q106 0 190.5 88t116.5 232h-489q-4 -74 -4 -97z" />
<glyph unicode="&#x2be;" horiz-adv-x="759" d="M186 860q2 8 3 28.5t1 31.5q0 18 21 18h94q10 0 14 -14q2 -76 24 -108t75 -32q90 0 145 108.5t55 254.5q0 150 -106 149q-100 0 -156 -157q-4 -12 -18 -13h-96q-18 0 -11 19q86 287 304 287q102 0 161.5 -72t61.5 -197q0 -209 -108.5 -364.5t-268.5 -155.5 q-90 0 -141.5 58.5t-53.5 158.5z" />
<glyph unicode="&#x2bf;" horiz-adv-x="759" d="M201 911q0 209 108.5 365t268.5 156q90 0 141 -58.5t51 -159.5q0 -35 -4 -59q2 -8 -4 -13t-14 -5h-95q-14 0 -14 14q-4 76 -24.5 107.5t-73.5 31.5q-90 0 -145.5 -108.5t-55.5 -253.5q0 -150 106 -150q100 0 156 158q4 12 19 12h96q18 0 10 -18q-86 -287 -303 -287 q-102 0 -162.5 71.5t-60.5 196.5z" />
<glyph unicode="&#x2c6;" horiz-adv-x="559" d="M164 1198l217 289h156l114 -289h-133l-78 191l-143 -191h-133z" />
<glyph unicode="&#x2c7;" horiz-adv-x="559" d="M213 1487h133l78 -191l143 191h133l-217 -289h-155z" />
<glyph unicode="&#x2d8;" horiz-adv-x="559" d="M197 1421l2 60h82q8 -86 43.5 -124t109.5 -38t119 36t84 126h80q-45 -145 -120 -212t-194 -67q-100 0 -155 56.5t-51 162.5z" />
<glyph unicode="&#x2d9;" horiz-adv-x="559" d="M328 1243l34 197h177l-35 -197h-176z" />
<glyph unicode="&#x2da;" horiz-adv-x="559" d="M225 1343q12 72 80 120t156 48q90 0 140 -48t38 -124q-12 -72 -79.5 -120t-158 -48t-140.5 48t-36 124zM315 1343q-8 -41 22 -69.5t79 -28.5t88 27.5t45 66.5q8 41 -21.5 70t-78.5 29q-47 0 -87.5 -28t-46.5 -67z" />
<glyph unicode="&#x2db;" horiz-adv-x="559" d="M133 -303q0 86 43 156.5t135 146.5h146q-88 -72 -127 -126t-39 -110q0 -86 94 -86h64l-23 -149h-72q-92 0 -156.5 46t-64.5 122z" />
<glyph unicode="&#x2dc;" horiz-adv-x="559" d="M123 1223q35 115 86 167t127 52q49 0 108 -31l35 -18q49 -27 78 -27q61 0 96 94h84q-70 -223 -209 -223q-33 0 -92 27l-41 18q-72 31 -96 31q-57 0 -96 -90h-80z" />
<glyph unicode="&#x2dd;" horiz-adv-x="559" d="M201 1198l198 289h185l-271 -289h-112zM502 1198l200 289h183l-271 -289h-112z" />
<glyph unicode="&#x300;" horiz-adv-x="0" d="M-565 1485h203l79 -289h-112z" />
<glyph unicode="&#x301;" horiz-adv-x="0" d="M-395 1196l180 289h203l-271 -289h-112z" />
<glyph unicode="&#x302;" horiz-adv-x="0" d="M-582 1198l217 289h156l115 -289h-133l-78 191l-144 -191h-133z" />
<glyph unicode="&#x303;" horiz-adv-x="0" d="M-623 1223q35 115 86.5 167t126.5 52q49 0 109 -31l35 -18q49 -27 78 -27q61 0 96 94h84q-70 -223 -209 -223q-33 0 -92 27l-41 18q-72 31 -96 31q-57 0 -97 -90h-80z" />
<glyph unicode="&#x304;" horiz-adv-x="0" d="M-588 1284l21 117h526l-20 -117h-527z" />
<glyph unicode="&#x306;" horiz-adv-x="0" d="M-549 1421l2 60h82q8 -86 44 -124t109.5 -38t119 36t83.5 126h80q-45 -145 -119.5 -212t-193.5 -67q-100 0 -155.5 56.5t-51.5 162.5z" />
<glyph unicode="&#x307;" horiz-adv-x="0" d="M-418 1243l35 197h176l-35 -197h-176z" />
<glyph unicode="&#x308;" horiz-adv-x="0" d="M-586 1243l35 197h180l-35 -197h-180zM-256 1243l35 197h180l-35 -197h-180z" />
<glyph unicode="&#x309;" horiz-adv-x="0" d="M-516 1348q31 188 246 188q94 0 141 -38t37 -103q-6 -39 -30.5 -65.5t-84.5 -61.5q-72 -45 -76 -66l-8 -49h-115l11 55q6 37 30.5 60.5t88.5 58.5q68 39 69 68q4 23 -18.5 37t-65.5 14q-63 0 -88 -29q-16 -16 -24 -69h-113z" />
<glyph unicode="&#x30a;" horiz-adv-x="0" d="M-520 1343q12 72 79.5 120t155.5 48q90 0 140.5 -48t38.5 -124q-12 -72 -80 -120t-158 -48t-140 48t-36 124zM-430 1343q-8 -41 21.5 -69.5t78.5 -28.5t88 27.5t45 66.5q8 41 -21.5 70t-78.5 29q-47 0 -87 -28t-46 -67z" />
<glyph unicode="&#x30b;" horiz-adv-x="0" d="M-545 1198l199 289h184l-270 -289h-113zM-244 1198l201 289h182l-270 -289h-113z" />
<glyph unicode="&#x30c;" horiz-adv-x="0" d="M-532 1487h133l77 -191l144 191h133l-217 -289h-156z" />
<glyph unicode="&#x30f;" horiz-adv-x="0" d="M-715 1487h183l100 -289h-113zM-414 1487h185l98 -289h-113z" />
<glyph unicode="&#x311;" horiz-adv-x="0" d="M-596 1202q45 145 120 212t193 67q100 0 155.5 -56.5t51.5 -162.5l-2 -60h-82q-8 86 -44 124t-109.5 38t-118.5 -36t-84 -126h-80z" />
<glyph unicode="&#x323;" horiz-adv-x="0" d="M-698 -369l32 197h177l-33 -197h-176z" />
<glyph unicode="&#x326;" horiz-adv-x="0" d="M-727 -586l14 80q86 8 111 176h-82l37 207h158l-33 -192q-20 -123 -74.5 -194t-130.5 -77z" />
<glyph unicode="&#x32e;" horiz-adv-x="0" d="M-852 -152h82v-14q63 -106 178 -106q72 0 117 28.5t80 91.5h100q-113 -238 -328 -237q-111 0 -165 59t-64 178z" />
<glyph unicode="&#x32f;" horiz-adv-x="0" d="M-895 -389q113 238 328 237q111 0 165 -59t64 -178h-82v14q-63 106 -178 107q-72 0 -117 -29t-80 -92h-100z" />
<glyph unicode="&#x330;" horiz-adv-x="0" d="M-903 -389q35 115 86 167t127 52q51 0 108 -31l35 -18q49 -27 78 -27q61 0 96 94h84q-70 -223 -209 -223q-33 0 -92 27l-41 18q-70 31 -96 31q-57 0 -96 -90h-80z" />
<glyph unicode="&#x331;" horiz-adv-x="0" d="M-868 -328l20 117h526l-20 -117h-526z" />
<glyph unicode="&#x332;" horiz-adv-x="0" d="M-868 -328l20 117h526l-20 -117h-526z" />
<glyph unicode="&#x391;" horiz-adv-x="1120" d="M-59 0l710 1470h185l180 -1470h-178l-45 428h-484l-200 -428h-168zM391 604h375l-68 653z" />
<glyph unicode="&#x392;" horiz-adv-x="1120" d="M43 0l256 1470h530q133 0 208 -76.5t75 -211.5q0 -258 -221 -389q90 -49 127 -108.5t37 -156.5q0 -221 -143.5 -374.5t-350.5 -153.5h-518zM236 170h346q137 0 222 92t85 238q0 186 -244 186h-319zM352 848h295q145 0 221 79t76 216q0 158 -217 157h-295z" />
<glyph unicode="&#x393;" horiz-adv-x="1026" d="M63 0l256 1470h834l-31 -176h-671l-226 -1294h-162z" />
<glyph unicode="&#x394;" horiz-adv-x="1028" d="M-72 0l684 1438h142l182 -1438h-1008zM152 147h612l-129 1014z" />
<glyph unicode="&#x395;" horiz-adv-x="1120" d="M63 0l256 1470h879l-31 -176h-714l-80 -450h661l-30 -176h-662l-84 -492h727l-31 -176h-891z" />
<glyph unicode="&#x396;" horiz-adv-x="1026" d="M-43 0l29 166l936 1128h-684l30 176h893l-31 -172l-935 -1122h741l-31 -176h-948z" />
<glyph unicode="&#x397;" horiz-adv-x="1212" d="M47 0l256 1470h164l-107 -608h631l105 608h164l-256 -1470h-164l121 686h-631l-119 -686h-164z" />
<glyph unicode="&#x398;" horiz-adv-x="1306" d="M94 535q0 250 95.5 473t267.5 362t377 139q223 0 347 -150.5t124 -424.5q0 -246 -94.5 -468t-266.5 -363.5t-379 -141.5q-225 0 -348 151t-123 423zM264 561q0 -199 88 -311.5t242 -112.5q223 0 382 229.5t159 544.5q0 197 -88.5 309.5t-243.5 112.5q-223 0 -381 -226.5 t-158 -545.5zM465 662l27 147h442l-27 -147h-442z" />
<glyph unicode="&#x399;" horiz-adv-x="466" d="M72 0l256 1470h161l-256 -1470h-161z" />
<glyph unicode="&#x39a;" horiz-adv-x="1120" d="M45 0l256 1470h164l-125 -712l709 712h225l-606 -593l362 -877h-211l-293 737l-229 -221l-88 -516h-164z" />
<glyph unicode="&#x39b;" horiz-adv-x="1120" d="M-59 0l710 1470h185l180 -1470h-178l-140 1257l-589 -1257h-168z" />
<glyph unicode="&#x39c;" horiz-adv-x="1398" d="M41 0l256 1470h233l129 -1249l562 1249h231l-256 -1470h-158l152 868l70 379l-562 -1247h-159l-127 1245l-47 -282q-8 -45 -15 -95l-151 -868h-158z" />
<glyph unicode="&#x39d;" horiz-adv-x="1212" d="M45 0l256 1470h195l397 -1194l209 1194h158l-256 -1470h-185l-407 1194l-209 -1194h-158z" />
<glyph unicode="&#x39e;" horiz-adv-x="1212" d="M-8 0l28 164h1065l-28 -164h-1065zM219 1307l29 163h1065l-29 -163h-1065zM274 662l25 147h733l-26 -147h-732z" />
<glyph unicode="&#x39f;" horiz-adv-x="1306" d="M94 535q0 250 95.5 473t267.5 362t377 139q223 0 347 -150.5t124 -424.5q0 -246 -94.5 -468t-266.5 -363.5t-379 -141.5q-225 0 -348 151t-123 423zM264 561q0 -199 88 -311.5t242 -112.5q223 0 382 229.5t159 544.5q0 197 -88.5 309.5t-243.5 112.5q-223 0 -381 -226.5 t-158 -545.5z" />
<glyph unicode="&#x3a0;" horiz-adv-x="1212" d="M47 0l256 1470h957l-256 -1470h-164l225 1294h-629l-225 -1294h-164z" />
<glyph unicode="&#x3a1;" horiz-adv-x="1120" d="M63 0l256 1470h543q135 0 214 -83.5t79 -229.5q0 -215 -127 -375.5t-315 -160.5h-379l-109 -621h-162zM365 791h323q143 0 220 92t77 241q0 176 -203 176h-329z" />
<glyph unicode="&#x3a3;" horiz-adv-x="1032" d="M-20 0l28 168l553 567l-354 568l29 167h909l-31 -178h-672l349 -557l-543 -557h672l-31 -178h-909z" />
<glyph unicode="&#x3a4;" horiz-adv-x="1026" d="M168 1294l31 176h979l-31 -176h-408l-225 -1294h-164l225 1294h-407z" />
<glyph unicode="&#x3a5;" horiz-adv-x="1120" d="M199 1470h190l221 -706l471 706h191l-608 -878l-103 -592h-164l103 592z" />
<glyph unicode="&#x3a6;" horiz-adv-x="1277" d="M157.5 735q30.5 172 180 294t342.5 147l51 294h162l-51 -294q184 -25 291.5 -147t77 -294t-180 -294t-342.5 -146l-51 -295h-162l51 295q-184 25 -291.5 146.5t-77 293.5zM309.5 735.5q-18.5 -110.5 52 -186.5t191.5 -96l100 565q-129 -20 -227 -96t-116.5 -186.5z M715 453q129 20 227 96t116.5 186.5t-52 186t-191.5 96.5z" />
<glyph unicode="&#x3a7;" horiz-adv-x="1120" d="M-49 0l561 754l-279 716h205l207 -563l404 563h194l-528 -716l291 -754h-201l-219 604l-439 -604h-196z" />
<glyph unicode="&#x3a8;" horiz-adv-x="1249" d="M217 1071l70 399h151l-69 -399q-29 -160 25.5 -287t174.5 -159l148 845h162l-148 -845q133 35 231.5 161.5t124.5 284.5l70 399h152l-70 -399q-37 -223 -187.5 -397t-346.5 -209l-82 -465h-162l82 465q-186 35 -275.5 209t-50.5 397z" />
<glyph unicode="&#x3a9;" horiz-adv-x="1298" d="M-20 0l30 178h326l20 117q-182 141 -182 424q0 291 196.5 529.5t456.5 238.5q197 0 312.5 -144.5t115.5 -361.5q0 -207 -104 -396.5t-270 -289.5l-21 -117h326l-31 -178h-489l71 410q150 45 251.5 203.5t101.5 334.5q0 154 -78 257.5t-215 103.5q-184 0 -319.5 -174 t-135.5 -385q0 -123 52 -216.5t147 -123.5l-72 -410h-489z" />
<glyph unicode="&#x3b1;" horiz-adv-x="1300" d="M121 518q41 242 199.5 419t363.5 177q246 0 320 -326q92 215 161 318l121 -70q-115 -162 -254 -518q10 -293 78 -483l-143 -70q-43 123 -58 295q-188 -303 -428 -303q-201 0 -300 167t-60 394zM268 518q-29 -164 37 -284.5t203 -120.5q225 0 389 405q-2 90 -12.5 160 t-35 138.5t-73.5 105t-119 36.5q-143 0 -250.5 -131t-138.5 -309z" />
<glyph unicode="&#x3b2;" horiz-adv-x="1005" d="M-63 -471l272 1561q33 186 154.5 293.5t302.5 107.5q162 0 253 -78t91 -217q0 -240 -197 -377q141 -63 141 -266q0 -225 -146 -404.5t-372 -179.5q-147 0 -264 62l-88 -502h-147zM197 178q119 -47 254 -47q160 0 253 107.5t93 281.5q0 205 -246 205q-39 0 -66 -8l29 162 q20 -4 45 -5q133 0 215 77t82 202q0 88 -57.5 135t-163.5 47q-123 0 -191.5 -69.5t-95.5 -221.5z" />
<glyph unicode="&#x3b3;" horiz-adv-x="1073" d="M217 1071h156l125 -829l411 829h156l-539 -1083l-80 -459h-147l80 459z" />
<glyph unicode="&#x3b4;" horiz-adv-x="944" d="M49 344q0 195 128 345.5t323 201.5q-137 133 -138 242q0 131 101.5 234t224.5 103q156 0 254 -102l-106 -117q-74 61 -174 62q-59 0 -104.5 -51.5t-45.5 -114.5q0 -31 10 -58.5t36 -53l43 -41t56 -44t52 -39.5q178 -143 178 -379q0 -51 -8 -92q-33 -193 -175.5 -332 t-318.5 -139q-154 0 -245 107.5t-91 267.5zM201 375q0 -104 57 -176t154 -72q113 0 204 93t113 220q6 37 6 74q0 176 -131 279q-158 0 -280.5 -126t-122.5 -292z" />
<glyph unicode="&#x3b5;" horiz-adv-x="1030" d="M92 354q31 166 238 236q-143 84 -117 235q25 137 142.5 231.5t258.5 94.5q188 0 357 -137l-88 -101q-100 82 -295 82q-80 0 -146.5 -48t-81.5 -122q-18 -102 80.5 -143t257.5 -41l-22 -125q-63 0 -97 -1t-91.5 -5t-91.5 -14.5t-71.5 -27.5t-58 -46t-26.5 -68 q-20 -119 58.5 -198.5t207.5 -79.5q168 0 280 78l60 -95q-197 -139 -369 -139q-188 0 -303 126t-82 308z" />
<glyph unicode="&#x3b6;" horiz-adv-x="878" d="M125 537q41 240 191.5 453.5t371.5 357.5h-422l21 125h708l-20 -125h-80q-244 -113 -411 -333t-212 -478q-29 -158 11.5 -271.5t156.5 -113.5h62q115 0 173 -93.5t36 -220.5q-23 -125 -114 -215t-204 -90l25 139q53 0 93 49.5t52 116.5q12 63 -12.5 110.5t-77.5 47.5h-61 q-176 0 -251 161t-36 380z" />
<glyph unicode="&#x3b7;" d="M31 0l100 580q-16 127 45 247l41 244h148l-7 -35q117 78 250 78q141 0 213 -118.5t43 -280.5l-207 -1186h-147l207 1186q16 98 -19.5 170.5t-117.5 72.5q-147 0 -254 -116l-148 -842h-147z" />
<glyph unicode="&#x3b8;" horiz-adv-x="972" d="M156 719q29 162 63.5 286.5t94 248.5t149.5 191.5t205 67.5q94 0 155.5 -48t88 -121.5t30.5 -184t-6 -212t-33 -228.5q-133 -762 -506 -762q-374 0 -241 762zM260 344q0 -76 15.5 -122t52.5 -77.5t96 -31.5t107.5 31.5t80 77.5t58 122t42 141.5t31.5 155.5h-452 q-16 -90 -23.5 -155.5t-7.5 -141.5zM317 797h453q16 98 24.5 164.5t9.5 148.5t-14.5 131t-52.5 83t-96 34t-108.5 -34t-81 -83t-59 -131t-42.5 -149.5t-33 -163.5z" />
<glyph unicode="&#x3b9;" horiz-adv-x="608" d="M199 322l131 749h147l-131 -749q-6 -53 -4 -99.5t25.5 -78t66.5 -31.5l-28 -156q-121 0 -176.5 109t-30.5 256z" />
<glyph unicode="&#x3ba;" horiz-adv-x="839" d="M31 0l186 1071h143l-79 -453l456 453h189l-406 -399l240 -672h-191l-178 541l-147 -135l-70 -406h-143z" />
<glyph unicode="&#x3bb;" horiz-adv-x="1150" d="M31 0l635 971l-11 76q-16 121 -75.5 200.5t-161.5 79.5l24 139q150 0 245 -105.5t118 -264.5l151 -1096h-155l-107 762l-499 -762h-164z" />
<glyph unicode="&#x3bc;" horiz-adv-x="1159" d="M61 -471l269 1542h147l-125 -717q4 -242 166 -241q164 0 248 241l125 717h147l-186 -1071h-147l10 55q-102 -98 -225 -98t-189 98l-92 -526h-148z" />
<glyph unicode="&#x3bd;" horiz-adv-x="956" d="M162 1071h155l148 -909q274 227 332 553q31 174 20 356h152q8 -164 -25 -356q-39 -219 -171 -414t-333 -324l-106 37z" />
<glyph unicode="&#x3be;" d="M106 438q20 115 93 211t178 156q-145 113 -115 301q27 143 154 242h-150l21 125h708l-20 -125h-307q-96 -20 -169 -86t-89 -156q-16 -98 48 -166t169 -68l-25 -139q-123 0 -225.5 -86t-122.5 -209q-18 -117 33 -201.5t153 -84.5h62q115 0 173 -93.5t36 -220.5 q-23 -125 -114 -215t-204 -90l25 139q53 0 93 49.5t52 116.5q12 63 -12.5 110.5t-77.5 47.5h-61q-164 0 -250.5 131t-55.5 311z" />
<glyph unicode="&#x3bf;" d="M57 387q0 279 152.5 497t368.5 218q150 0 235.5 -109.5t85.5 -304.5q0 -279 -152.5 -498t-367.5 -219q-152 0 -237 110.5t-85 305.5zM211 406q0 -135 50 -207t147 -72q141 0 239 166t98 373q0 135 -51 207.5t-145 72.5q-141 0 -239.5 -164.5t-98.5 -375.5z" />
<glyph unicode="&#x3c0;" horiz-adv-x="1150" d="M98 686q37 205 161 295t349 90h586l-29 -158h-102l-158 -913h-147l157 913h-260l-159 -913h-148l160 913q-111 0 -171.5 -55t-80.5 -172h-158z" />
<glyph unicode="&#x3c1;" horiz-adv-x="1064" d="M-51 -471l176 1008q41 233 185.5 405t335 172t275.5 -172t44 -405q-41 -236 -185.5 -408t-335.5 -172q-156 0 -254 109l-94 -537h-147zM223 264q27 -72 93.5 -111.5t154.5 -39.5q131 0 223 126t123 298t-18 296.5t-180.5 124.5t-223.5 -124.5t-123 -296.5z" />
<glyph unicode="&#x3c2;" d="M127 555q39 227 171 393t310 166q135 0 211 -100.5t47 -237.5l-131 2q14 76 -32 128t-123 52q-119 0 -198 -118.5t-108 -284.5q-14 -102 -10 -192.5t49 -150.5t127 -60h62q115 0 173 -93.5t36 -220.5q-23 -125 -114 -215t-204 -90l25 139q53 0 93 49.5t52 116.5 q12 63 -12.5 110.5t-77.5 47.5h-61q-178 0 -251 167t-34 392z" />
<glyph unicode="&#x3c3;" horiz-adv-x="1107" d="M113 387q0 279 152.5 497t367.5 218q45 0 78 -8q166 12 417 90l23 -148q-111 -35 -272 -57q76 -106 75 -291q0 -279 -152.5 -498t-367.5 -219q-152 0 -236.5 110.5t-84.5 305.5zM266 406q0 -135 50.5 -207t146.5 -72q141 0 239.5 166t98.5 373q0 135 -51.5 207.5 t-145.5 72.5q-141 0 -239.5 -164.5t-98.5 -375.5z" />
<glyph unicode="&#x3c4;" horiz-adv-x="825" d="M190 920l29 155h598l-26 -155h-226l-104 -598q-16 -86 4 -147.5t82 -61.5l-27 -156q-123 0 -178 108.5t-29 256.5l105 598h-228z" />
<glyph unicode="&#x3c5;" d="M92 356l125 715h148l-125 -715q-16 -98 16.5 -170.5t110.5 -72.5q121 0 203.5 117.5t111.5 281.5q47 264 16 559h154q29 -260 -23 -559q-39 -225 -174 -390t-317 -165q-137 0 -205 118.5t-41 280.5z" />
<glyph unicode="&#x3c6;" horiz-adv-x="1437" d="M125 537q29 166 135.5 314t261.5 243l58 -115q-121 -74 -203 -191.5t-105 -250.5q-29 -160 61.5 -278t250.5 -140l69 393q29 160 81 289t147.5 221t216.5 92q117 0 182.5 -87t71.5 -215t-15 -275q-39 -223 -221 -386t-411 -190l-76 -432h-148l76 432q-221 27 -346 190 t-86 386zM731 119q168 23 299 140.5t160 277.5q14 88 19 152.5t-1 131t-40.5 102t-96.5 35.5q-63 0 -111.5 -37.5t-79 -109.5t-47 -138.5t-32.5 -160.5z" />
<glyph unicode="&#x3c7;" horiz-adv-x="1081" d="M-51 -471l481 772l-213 770h164l162 -590l366 590h164l-481 -770l213 -772h-164l-162 590l-366 -590h-164z" />
<glyph unicode="&#x3c8;" horiz-adv-x="1212" d="M92 356l125 715h148l-125 -715q-16 -96 50 -158.5t181 -78.5l236 1351h147l-236 -1351q121 16 209 78.5t105 158.5l125 715h147l-125 -715q-27 -158 -167 -266t-320 -129l-76 -432h-147l75 432q-174 20 -276.5 128.5t-75.5 266.5z" />
<glyph unicode="&#x3c9;" horiz-adv-x="1267" d="M127 553q39 221 207 518h112q-117 -205 -172 -518q-12 -68 -17 -104.5t-12 -97t-3 -95.5t13 -72t32.5 -54t60.5 -17q137 0 203 221q4 94 51 381h148l-21 -120q-6 -36 -16.5 -114t-11.5 -116.5t-1 -96t11.5 -85t32 -49t51.5 -21.5q37 0 66.5 16t52 54t38 72t29.5 96.5 l21.5 97t19.5 104.5q55 317 10 518h113q63 -297 24 -518q-102 -596 -401 -596q-158 0 -203 160q-94 -160 -243 -160q-297 0 -195 596z" />
<glyph unicode="&#x3d1;" horiz-adv-x="1046" d="M92 356l64 359h147l-63 -359q-18 -100 27.5 -173.5t136 -73.5t161 73.5t88.5 173.5l80 451q-227 25 -351 107.5t-95 248.5q27 150 131 259.5t235 109.5q158 0 231.5 -137.5t41.5 -323.5l-27 -151h113l-21 -125l-112 2l-78 -441q-29 -162 -151 -278.5t-271 -116.5 q-152 0 -234 116.5t-53 278.5zM406 1163q-20 -121 73.5 -173t274.5 -64l24 145q12 86 7 161t-45 126t-109 51q-82 0 -144.5 -73t-80.5 -173z" />
<glyph unicode="&#x3d5;" horiz-adv-x="1370" d="M125 537q37 217 208 378.5t388 190.5l63 364h150l-64 -364q207 -29 322 -190.5t78 -378.5q-39 -219 -210 -381t-388 -191l-76 -436h-150l76 436q-207 29 -321.5 191t-75.5 381zM272 537q-27 -158 52 -276t225 -146l145 841q-156 -29 -275.5 -146t-146.5 -273zM698 115 q156 29 277 147.5t147.5 274t-52.5 273.5t-224 146z" />
<glyph unicode="&#x3d6;" horiz-adv-x="1267" d="M127 553q39 221 207 518h112q-117 -205 -172 -518q-12 -68 -17 -104.5t-12 -97t-3 -95.5t13 -72t32.5 -54t60.5 -17q137 0 203 221q4 94 51 381h148l-21 -120q-6 -36 -16.5 -114t-11.5 -116.5t-1 -96t11.5 -85t32 -49t51.5 -21.5q37 0 66.5 16t52 54t38 72t29.5 96.5 l21.5 97t19.5 104.5q23 123 33 212t10 194.5t-21.5 173t-75 112.5t-139.5 45q-195 0 -393 -69l-20 100q217 78 432 78q129 0 211 -73t111.5 -197.5t28.5 -268t-30 -307.5q-102 -596 -401 -596q-158 0 -203 160q-94 -160 -243 -160q-297 0 -195 596z" />
<glyph unicode="&#x3f5;" horiz-adv-x="839" d="M43 352q0 301 153.5 525.5t383.5 224.5q123 0 194.5 -80t73.5 -219h-156q-14 74 -51 105.5t-109 31.5q-104 0 -183 -92t-118 -242h353l-25 -141h-352q-4 -61 -4 -96q0 -244 180 -244q127 0 209 143h153q-129 -299 -389 -299q-145 0 -229 101.5t-84 281.5z" />
<glyph unicode="&#x400;" horiz-adv-x="1120" d="M63 0l256 1470h879l-31 -176h-714l-80 -450h661l-30 -176h-662l-84 -492h727l-31 -176h-891zM686 1964h182l99 -289h-113z" />
<glyph unicode="&#x401;" horiz-adv-x="1120" d="M63 0l256 1470h879l-31 -176h-714l-80 -450h661l-30 -176h-662l-84 -492h727l-31 -176h-891zM553 1636l37 209h151l-34 -209h-154zM825 1636l35 209h154l-37 -209h-152z" />
<glyph unicode="&#x402;" horiz-adv-x="1271" d="M168 1294l31 176h815l-31 -176h-326l-84 -473q94 76 273 76q43 0 100.5 -12.5t125 -40t112.5 -83.5t45 -132q0 -12 -6 -56l-101 -573q-16 -100 -100 -164.5t-165 -84t-155 -19.5v174q68 0 157 40t97 85l103 542l4 25q0 53 -89 89t-165 36q-72 0 -168 -40t-104 -83 l-107 -600h-162l226 1294h-326z" />
<glyph unicode="&#x403;" horiz-adv-x="1026" d="M63 0l256 1470h834l-31 -176h-671l-226 -1294h-162zM373 1540l200 289h183l-271 -289h-112z" />
<glyph unicode="&#x404;" horiz-adv-x="1212" d="M121 733q63 356 252.5 566t447.5 210q135 0 231.5 -60t141.5 -173q43 -98 35 -248h-158q-4 88 -19.5 137t-52.5 88q-78 78 -206 78q-166 0 -292 -128t-188 -359h568l-31 -178h-571q-35 -250 42.5 -388.5t251.5 -138.5q166 0 291 150q72 84 133 252h158 q-61 -172 -116.5 -266.5t-137.5 -165.5q-164 -147 -375 -148q-250 0 -359 209t-46 563z" />
<glyph unicode="&#x405;" horiz-adv-x="1120" d="M70 322q0 68 14 153h154q-8 -49 -9 -94q0 -117 76 -183.5t209 -66.5q166 0 263 85t97 228q0 74 -47 116t-172 79l-233 70q-205 61 -205 264q0 190 121 348q141 188 395 188q180 0 280.5 -91t100.5 -253q0 -59 -8 -125h-154q4 53 4 68q0 106 -67.5 168.5t-183.5 62.5 q-141 0 -231.5 -85t-90.5 -218q0 -109 115 -141l325 -96q215 -61 215 -295q0 -242 -156.5 -392.5t-406.5 -150.5q-231 0 -334 141q-71 105 -71 220z" />
<glyph unicode="&#x406;" horiz-adv-x="466" d="M72 0l256 1470h161l-256 -1470h-161z" />
<glyph unicode="&#x407;" horiz-adv-x="466" d="M72 0l256 1470h161l-256 -1470h-161zM225 1636l37 209h152l-35 -209h-154zM498 1636l37 209h151l-37 -209h-151z" />
<glyph unicode="&#x408;" horiz-adv-x="839" d="M-2 246q0 41 6 82l27 145h151l-16 -102q-8 -39 -8 -86q0 -154 147 -154q193 0 236 254l190 1085h162l-186 -1073q-37 -209 -147.5 -322.5t-276.5 -113.5q-137 0 -211 74t-74 211z" />
<glyph unicode="&#x409;" horiz-adv-x="1734" d="M-168 0l31 176q61 0 118.5 79t100.5 192.5t89 302t77 342t69 378.5h783l-111 -620h377q137 0 215 -87t78 -237q0 -219 -129 -372.5t-313 -153.5h-541l229 1296h-452l-30 -168q-11 -66 -34.5 -180t-45 -194t-53.5 -186.5t-64.5 -180.5t-77 -152.5t-90.5 -126t-104.5 -78 t-121.5 -30.5zM870 170h328q137 0 214 92t77 236q0 182 -207 182h-321z" />
<glyph unicode="&#x40a;" horiz-adv-x="1806" d="M47 0l256 1470h164l-107 -608h631l105 608h168l-111 -612h377q137 0 215 -90t78 -242q0 -219 -129 -372.5t-314 -153.5h-540l121 686h-631l-119 -686h-164zM1034 170h328q137 0 214 92t77 236q0 186 -207 186h-322z" />
<glyph unicode="&#x40b;" horiz-adv-x="1271" d="M168 1294l31 176h815l-31 -176h-326l-84 -473q94 76 273 76q43 0 100.5 -12.5t125 -40t112.5 -83.5t45 -132q0 -12 -6 -56l-101 -573h-164l101 573l4 25q0 53 -89 89t-165 36q-72 0 -168 -40t-104 -83l-107 -600h-162l226 1294h-326z" />
<glyph unicode="&#x40c;" horiz-adv-x="1157" d="M47 0l260 1470h164l-106 -596l73 3l619 593h225l-715 -688l467 -782h-211l-430 717h-55l-127 -717h-164zM356 1540l201 289h182l-270 -289h-113z" />
<glyph unicode="&#x40d;" horiz-adv-x="1216" d="M47 0l260 1470h158l-211 -1194l819 1194h193l-260 -1470h-158l211 1194l-830 -1194h-182zM707 1964h182l98 -289h-113z" />
<glyph unicode="&#x40e;" horiz-adv-x="1163" d="M92 0l412 610l-289 860h191l221 -706l471 706h190l-1016 -1470h-180zM649 1837l2 59h82q4 -55 15 -77q31 -84 139 -84q74 0 119 35.5t84 125.5h79q-35 -115 -86 -178q-84 -100 -227 -100q-207 0 -207 219z" />
<glyph unicode="&#x40f;" horiz-adv-x="1214" d="M47 0l260 1470h164l-229 -1292h628l230 1292h164l-260 -1470h-386l-43 -246h-163l43 246h-408z" />
<glyph unicode="&#x410;" horiz-adv-x="1120" d="M-59 0l710 1470h185l180 -1470h-178l-45 428h-484l-200 -428h-168zM391 604h375l-68 653z" />
<glyph unicode="&#x411;" horiz-adv-x="1163" d="M43 0l260 1470h854l-33 -178h-688l-80 -444h295q412 0 412 -291q0 -236 -139.5 -396.5t-360.5 -160.5h-520zM238 170h348q131 0 218 95t87 235q0 188 -244 188h-319z" />
<glyph unicode="&#x412;" horiz-adv-x="1120" d="M43 0l256 1470h530q133 0 208 -76.5t75 -211.5q0 -117 -51 -215q-51 -104 -170 -174q90 -49 127 -108.5t37 -156.5q0 -221 -143.5 -374.5t-350.5 -153.5h-518zM236 170h346q137 0 222 92t85 238q0 186 -244 186h-319zM352 848h295q170 0 244 104q53 82 53 191 q0 158 -217 157h-295z" />
<glyph unicode="&#x413;" horiz-adv-x="1026" d="M63 0l256 1470h834l-31 -176h-671l-226 -1294h-162z" />
<glyph unicode="&#x414;" horiz-adv-x="1363" d="M-188 -246l73 422h109q61 0 118.5 79t100.5 193.5t88 301t76 343t69 377.5h783l-225 -1294h159l-73 -422h-164l43 246h-951l-43 -246h-163zM246 180h594l194 1116h-452q-31 -176 -52.5 -284.5t-64.5 -284.5t-98 -313.5t-121 -233.5z" />
<glyph unicode="&#x415;" horiz-adv-x="1120" d="M63 0l256 1470h879l-31 -176h-714l-80 -450h661l-30 -176h-662l-84 -492h727l-31 -176h-891z" />
<glyph unicode="&#x416;" horiz-adv-x="1847" d="M-49 0l741 782l-469 688h226l405 -593h74l106 593h164l-106 -593h73l619 593h225l-715 -688l467 -782h-211l-430 717h-55l-127 -717h-164l127 717h-55l-684 -717h-211z" />
<glyph unicode="&#x417;" horiz-adv-x="1140" d="M45 284.5q-6 73.5 12 190.5h154q-18 -125 12 -201q61 -143 264 -143q145 0 239.5 66.5t115.5 187.5q20 123 -26 208t-187 85h-238l21 145h250q96 0 162.5 84t82.5 178q20 121 -40 187.5t-189 66.5q-172 0 -275 -125q-51 -68 -77 -174h-154q43 172 107 265 q150 205 430 204q219 0 305 -137q78 -131 47 -311q-37 -199 -180 -293q170 -96 123 -365q-37 -207 -184.5 -324.5t-368.5 -117.5q-137 0 -223.5 44t-139.5 140q-37 66 -43 139.5z" />
<glyph unicode="&#x418;" horiz-adv-x="1216" d="M47 0l260 1470h158l-211 -1194l819 1194h193l-260 -1470h-158l211 1194l-830 -1194h-182z" />
<glyph unicode="&#x419;" horiz-adv-x="1220" d="M47 0l260 1470h158l-211 -1194l819 1194h193l-260 -1470h-158l211 1194l-830 -1194h-182zM633 1837l2 59h82q4 -55 14 -77q31 -84 139 -84q74 0 119 35.5t84 125.5h80q-35 -115 -86 -178q-84 -100 -227 -100q-207 0 -207 219z" />
<glyph unicode="&#x41a;" horiz-adv-x="1157" d="M47 0l260 1470h164l-106 -593h73l619 593h225l-715 -688l467 -782h-211l-430 717h-55l-127 -717h-164z" />
<glyph unicode="&#x41b;" horiz-adv-x="1189" d="M-168 0l31 176q61 0 118.5 79t100.5 192.5t89 302t77 342t69 378.5h783l-258 -1470h-164l227 1296h-452l-30 -168q-11 -66 -34.5 -180t-45 -194t-53.5 -186.5t-64.5 -180.5t-77 -152.5t-90.5 -126t-104.5 -78t-121.5 -30.5z" />
<glyph unicode="&#x41c;" horiz-adv-x="1398" d="M41 0l256 1470h233l129 -1249l562 1249h231l-256 -1470h-158l152 868l16 93l54 286l-562 -1247h-159l-127 1245l-47 -282l-10 -57q-5 -32 -5 -38l-151 -868h-158z" />
<glyph unicode="&#x41d;" horiz-adv-x="1212" d="M47 0l256 1470h164l-107 -608h631l105 608h164l-256 -1470h-164l121 686h-631l-119 -686h-164z" />
<glyph unicode="&#x41e;" horiz-adv-x="1306" d="M94 535q0 186 60.5 373.5t164.5 326.5q209 274 515 274q223 0 347 -150.5t124 -424.5q0 -186 -60.5 -371.5t-167.5 -326.5q-207 -274 -512 -275q-209 0 -327 125q-66 68 -105 191t-39 258zM264 561q0 -199 88 -311.5t242 -112.5q131 0 242.5 80t187.5 225 q111 217 111 469q0 197 -88.5 309.5t-243.5 112.5q-223 0 -381 -226.5t-158 -545.5z" />
<glyph unicode="&#x41f;" horiz-adv-x="1214" d="M47 0l260 1470h957l-260 -1470h-164l227 1292h-629l-227 -1292h-164z" />
<glyph unicode="&#x420;" horiz-adv-x="1120" d="M63 0l256 1470h543q135 0 214 -83.5t79 -229.5q0 -211 -123 -373q-123 -164 -319 -163h-379l-109 -621h-162zM365 791h323q160 0 236 110q61 92 61 223q0 176 -203 176h-329z" />
<glyph unicode="&#x421;" horiz-adv-x="1212" d="M98 496q0 209 60.5 409.5t165.5 337.5q201 266 493 266q188 0 300 -115.5t112 -312.5q0 -31 -2 -53h-158q-2 88 -18.5 136t-55.5 89q-74 80 -207 80q-219 0 -364 -221q-70 -104 -113 -266t-43 -324q0 -186 78 -285.5t225 -99.5q168 0 293 150q72 88 133 254h158 q-63 -176 -117.5 -268.5t-136.5 -163.5q-166 -147 -375 -148q-201 0 -314.5 142.5t-113.5 392.5z" />
<glyph unicode="&#x422;" horiz-adv-x="1026" d="M168 1294l31 176h979l-31 -176h-408l-225 -1294h-164l225 1294h-407z" />
<glyph unicode="&#x423;" horiz-adv-x="1163" d="M92 0l412 610l-289 860h191l221 -706l471 706h190l-1016 -1470h-180z" />
<glyph unicode="&#x424;" horiz-adv-x="1437" d="M74 743q27 156 86 256.5t164 180.5q113 86 212 113.5t242 27.5l27 149h162l-27 -149q143 0 237.5 -27.5t170.5 -113.5q84 -96 103 -185.5t-7 -251.5q-47 -274 -246 -413q-133 -92 -230.5 -134t-232.5 -42l-26 -154h-162l26 154q-283 0 -411 172q-131 173 -88 417z M250 741q-33 -190 50 -304.5t302 -114.5l148 829q-221 0 -344 -113t-156 -297zM764 322q223 0 345 115.5t155 303.5q35 188 -47 299t-306 111z" />
<glyph unicode="&#x425;" horiz-adv-x="1120" d="M-49 0l561 754l-279 716h205l207 -563l404 563h194l-528 -716l291 -754h-201l-219 604l-439 -604h-196z" />
<glyph unicode="&#x426;" horiz-adv-x="1320" d="M47 0l260 1470h164l-229 -1292h628l230 1292h164l-230 -1294h197l-74 -422h-164l43 246h-989z" />
<glyph unicode="&#x427;" horiz-adv-x="983" d="M68 842q0 12 6 55l100 573h164l-100 -573l-5 -25q0 -53 90.5 -88.5t165.5 -35.5q72 0 168.5 39.5t104.5 82.5l104 600h164l-258 -1470h-164l115 649q-94 -76 -270 -76q-43 0 -101.5 12.5t-126 40t-112.5 84t-45 132.5z" />
<glyph unicode="&#x428;" horiz-adv-x="1425" d="M47 0l260 1470h164l-229 -1292l340 2l227 1290h164l-228 -1292h336l230 1292h164l-261 -1470h-1167z" />
<glyph unicode="&#x429;" horiz-adv-x="1425" d="M47 0l260 1470h164l-229 -1292l340 2l227 1290h164l-228 -1292h336l230 1292h164l-230 -1294h197l-74 -422h-164l43 246h-1200z" />
<glyph unicode="&#x42a;" horiz-adv-x="1480" d="M195 1292l30 178h621l-109 -620h377q137 0 215 -87t78 -237q0 -219 -129 -372.5t-313 -153.5h-541l227 1292h-456zM616 170h328q137 0 215 91t78 235q0 184 -209 184h-321z" />
<glyph unicode="&#x42b;" horiz-adv-x="1599" d="M47 0l260 1470h164l-111 -620h377q137 0 215 -87t78 -237q0 -219 -129 -372.5t-313 -153.5h-541zM242 170h327q137 0 214 92t77 236q0 182 -207 182h-321zM1227 0l260 1470h162l-260 -1470h-162z" />
<glyph unicode="&#x42c;" horiz-adv-x="1048" d="M47 0l260 1470h164l-111 -620h377q137 0 215 -87t78 -237q0 -219 -129 -372.5t-313 -153.5h-541zM242 170h327q137 0 214 92t77 236q0 182 -207 182h-321z" />
<glyph unicode="&#x42d;" horiz-adv-x="1208" d="M82 541h158q2 -166 43 -252q76 -150 239 -150q174 0 300 137.5t182 389.5h-572l31 178h567q20 231 -60.5 359t-246.5 128q-127 0 -234 -78q-51 -39 -83.5 -88t-67.5 -137h-158q45 147 121 248q176 233 457 233q213 0 330.5 -145t117.5 -406q0 -256 -91 -484t-254 -370.5 t-355 -142.5q-209 0 -322 148q-57 72 -79.5 166t-22.5 266z" />
<glyph unicode="&#x42e;" horiz-adv-x="1873" d="M47 0l260 1470h164l-109 -608h347q82 285 258 461q182 186 446 186q322 0 426 -321q35 -115 35 -254q0 -473 -303 -787q-182 -186 -438 -186q-258 0 -373 186q-96 158 -96 388q0 63 10 149h-342l-121 -684h-164zM831 561q0 -195 88.5 -308.5t243.5 -113.5 q217 0 379 232.5t162 537.5q0 193 -86 307.5t-238 114.5q-150 0 -276.5 -107.5t-199.5 -284.5t-73 -378z" />
<glyph unicode="&#x42f;" horiz-adv-x="1134" d="M-49 0l590 623h-111q-164 0 -239.5 117.5t-40.5 314.5q33 186 151.5 300.5t280.5 114.5h540l-260 -1470h-164l109 621h-57l-588 -621h-211zM315 1049q-45 -258 201 -258h322l90 509h-328q-240 1 -285 -251z" />
<glyph unicode="&#x430;" d="M20 207q0 162 91.5 274.5t240.5 132.5l250 37q102 16 103 168q0 133 -177 133q-96 0 -151 -47t-90 -160h-135q33 139 92 216q109 141 321 141q137 0 214 -62.5t77 -173.5q0 -33 -6 -63l-107 -617l-4 -22q-2 -16 9.5 -28.5t30 -12.5t52.5 8l-24 -131l-19 -6 q-39 -14 -69 -14q-127 0 -127 114q0 12 4 49q-166 -174 -342 -174q-109 0 -171.5 63.5t-62.5 174.5zM178 248q0 -129 129 -129q113 0 208 74.5t112 177.5l30 176q-39 -33 -256 -68q-117 -20 -170 -75.5t-53 -155.5z" />
<glyph unicode="&#x431;" horiz-adv-x="978" d="M57 537q12 55 22.5 138t41.5 191.5t68.5 206.5t106.5 185.5t155 125.5q61 29 189 44.5t200 46.5q80 33 94 114h115q-27 -154 -136 -209q-84 -43 -209.5 -68.5t-166.5 -37.5q-27 -8 -55.5 -28.5t-52 -46t-46.5 -54.5t-38 -55l-28 -48q-12 -20 -14 -30.5t2 -5.5 q123 96 266 96q176 0 260 -159t41 -406q-45 -250 -186 -408t-321.5 -158t-266.5 158t-41 408zM211 537q-33 -186 17.5 -297t165 -111t203.5 110.5t122 297.5q33 184 -16.5 295.5t-161.5 111.5q-119 0 -208 -109.5t-122 -297.5z" />
<glyph unicode="&#x432;" horiz-adv-x="888" d="M16 0l189 1071h368q135 0 209 -61.5t74 -163.5q0 -94 -49 -165t-139 -103q88 -16 125.5 -51t37.5 -119q0 -176 -130 -292t-326 -116h-359zM180 143h211q129 0 209 60.5t80 161.5q0 70 -62.5 98.5t-193.5 28.5h-182zM266 627h156q281 0 280 186q0 117 -225 117h-158z" />
<glyph unicode="&#x433;" horiz-adv-x="659" d="M16 0l189 1071h561l-27 -149h-413l-162 -922h-148z" />
<glyph unicode="&#x434;" horiz-adv-x="1097" d="M-156 -256l70 391h125q59 0 159.5 291t163.5 645h590l-164 -936h138l-70 -391h-141l45 256h-729l-45 -256h-142zM238 141h403l139 789h-295q-100 -572 -247 -789z" />
<glyph unicode="&#x435;" d="M59 352q0 150 47.5 300.5t124.5 254.5q143 195 361 195q164 0 231 -115q66 -115 66 -262q0 -90 -23 -248h-641q-12 -76 -12 -127q0 -104 53 -164.5t148 -60.5q90 0 165.5 59.5t102.5 151.5h147q-57 -174 -175.5 -270.5t-272.5 -96.5t-238 100.5t-84 282.5zM250 621h489 q4 74 4 96q0 102 -50 162.5t-136 60.5q-106 0 -190 -88t-117 -231z" />
<glyph unicode="&#x436;" horiz-adv-x="1343" d="M-63 0l575 537l-367 534h187l299 -453l80 453h143l-80 -453l459 453h186l-555 -534l387 -537h-190l-320 428l-75 -428h-144l76 428l-471 -428h-190z" />
<glyph unicode="&#x437;" horiz-adv-x="839" d="M35 344h143q-12 -115 32 -166t157 -51q96 0 159.5 45t77.5 123q14 76 -15.5 136.5t-123.5 60.5h-141l24 141h119q156 0 186 160q12 70 -29.5 110.5t-125.5 40.5q-188 0 -232 -178h-143q39 162 140.5 249t250.5 87q152 0 227.5 -92t49.5 -246q-25 -131 -121 -203 q117 -74 86 -239q-29 -162 -143.5 -257.5t-282.5 -95.5q-227 0 -285 162q-26 68 -10 213z" />
<glyph unicode="&#x438;" horiz-adv-x="964" d="M27 0l188 1071h147l-155 -885l536 885h189l-189 -1071h-147l154 874l-535 -874h-188z" />
<glyph unicode="&#x439;" horiz-adv-x="968" d="M27 0l188 1071h147l-155 -885l536 885h189l-189 -1071h-147l154 874l-535 -874h-188zM416 1438l2 59h82q4 -55 14 -78q31 -84 139 -84q74 0 119 36t84 126h80q-35 -115 -86 -178q-84 -100 -227 -100q-207 0 -207 219z" />
<glyph unicode="&#x43a;" horiz-adv-x="841" d="M31 0l188 1071h143l-79 -453l458 453h187l-555 -534l387 -537h-191l-321 428l-74 -428h-143z" />
<glyph unicode="&#x43b;" horiz-adv-x="899" d="M-133 0l27 143q158 0 321 928h590l-189 -1071h-147l164 930h-295l-28 -155q-11 -60 -35.5 -167.5t-48 -179.5t-62.5 -160t-80 -141t-97.5 -90t-119.5 -37z" />
<glyph unicode="&#x43c;" horiz-adv-x="1136" d="M27 0l188 1071h215l76 -878l383 878h215l-189 -1071h-147l127 725l-344 -725h-160l-90 725l-127 -725h-147z" />
<glyph unicode="&#x43d;" horiz-adv-x="964" d="M27 0l188 1071h147l-73 -422h422l75 422h146l-189 -1071h-147l90 506h-422l-90 -506h-147z" />
<glyph unicode="&#x43e;" d="M57 387q0 137 45 277.5t123 242.5q147 195 353 195q150 0 235.5 -109.5t85.5 -304.5q0 -299 -168 -522q-145 -195 -352 -195q-152 0 -237 110.5t-85 305.5zM211 406q0 -135 50 -207t147 -72q156 0 254 188q84 162 83 351q0 135 -51 207.5t-145 72.5q-156 0 -254 -188 q-84 -162 -84 -352z" />
<glyph unicode="&#x43f;" horiz-adv-x="964" d="M27 0l188 1071h717l-189 -1071h-147l164 930h-422l-164 -930h-147z" />
<glyph unicode="&#x440;" d="M-59 -424l260 1495h141l-29 -158q80 106 146.5 147.5t156.5 41.5q131 0 207 -100.5t76 -274.5q0 -154 -49 -310.5t-131 -266.5q-133 -180 -322 -181q-158 0 -213 150l-96 -543h-147zM231 365q0 -109 51.5 -174.5t137.5 -65.5q121 0 207 131q49 74 83.5 208t34.5 249 q0 109 -48 168t-138 59q-150 0 -231 -166q-97 -198 -97 -409z" />
<glyph unicode="&#x441;" horiz-adv-x="839" d="M43 352q0 150 47 300.5t125 254.5q147 195 365 195q125 0 196.5 -81t71.5 -222q0 -18 -4 -88h-144q-2 82 -10 114q-35 115 -158 115q-152 0 -241 -178q-88 -172 -88 -393q0 -244 180 -244q168 0 260 254h143q-127 -410 -430 -410q-145 0 -229 101.5t-84 281.5z" />
<glyph unicode="&#x442;" horiz-adv-x="684" d="M90 922l27 149h639l-27 -149h-246l-161 -922h-148l162 922h-246z" />
<glyph unicode="&#x443;" horiz-adv-x="843" d="M-63 -422l28 164q43 -18 86 -18q47 0 76 27.5t68 109.5l55 110l-133 1100h168l82 -878l389 878h164l-500 -1051q-84 -172 -127 -251.5t-91 -133t-86 -63.5t-108 -10q-27 0 -59 12l-6 2z" />
<glyph unicode="&#x444;" horiz-adv-x="1525" d="M78 561q41 242 167 391.5t290 149.5q90 0 143 -42t92 -147l66 373h139l-66 -373q76 104 143.5 146.5t157.5 42.5q162 0 236 -148.5t33 -392.5q-47 -268 -180.5 -430t-307.5 -162q-156 0 -215 150l-94 -543h-154l93 543q-111 -150 -265 -150q-174 0 -249.5 162t-28.5 430z M229 555q-35 -203 6 -315.5t154 -112.5q111 0 193 100.5t112 274.5q78 440 -164 440q-231 0 -301 -387zM838 502q-31 -174 16 -274.5t158 -100.5q113 0 194.5 112.5t116.5 315.5q33 188 -9 287.5t-157 99.5q-241 0 -319 -440z" />
<glyph unicode="&#x445;" horiz-adv-x="839" d="M-63 0l405 551l-205 520h191l137 -377l270 377h180l-387 -520l213 -551h-188l-147 403l-283 -403h-186z" />
<glyph unicode="&#x446;" horiz-adv-x="995" d="M27 0l188 1071h147l-163 -930h422l163 930h148l-164 -936h158l-70 -391h-141l45 256h-733z" />
<glyph unicode="&#x447;" horiz-adv-x="790" d="M39 653q0 29 4 45l66 373h147l-74 -412v-6q0 -31 43 -59.5t117 -28.5q76 0 131 20.5t62 57.5l77 428h148l-191 -1071h-147l84 467q-31 -23 -67 -33t-60.5 -11t-89.5 -1q-100 0 -175 65.5t-75 165.5z" />
<glyph unicode="&#x448;" horiz-adv-x="1239" d="M27 0l188 1071h147l-163 -930h274l164 930h147l-163 -930h274l164 930h147l-188 -1071h-991z" />
<glyph unicode="&#x449;" horiz-adv-x="1239" d="M27 0l188 1071h147l-163 -930h274l164 930h147l-163 -930h274l164 930h147l-164 -936h158l-70 -391h-141l45 256h-1007z" />
<glyph unicode="&#x44a;" horiz-adv-x="1003" d="M90 930l25 141h372l-77 -444h258q147 0 225 -71t78 -177q0 -162 -134.5 -270.5t-318.5 -108.5h-358l164 930h-234zM324 143h211q129 0 208.5 60.5t79.5 161.5q0 70 -62.5 98.5t-193.5 28.5h-182z" />
<glyph unicode="&#x44b;" horiz-adv-x="1230" d="M27 0l188 1071h139l-78 -444h259q147 0 225 -71t78 -177q0 -162 -134.5 -270.5t-318.5 -108.5h-358zM190 143h211q129 0 209 60.5t80 161.5q0 70 -62.5 98.5t-193.5 28.5h-182zM862 0l189 1071h147l-188 -1071h-148z" />
<glyph unicode="&#x44c;" horiz-adv-x="870" d="M27 0l188 1071h139l-78 -444h259q147 0 225 -71t78 -177q0 -162 -134.5 -270.5t-318.5 -108.5h-358zM190 143h211q129 0 209 60.5t80 161.5q0 70 -62.5 98.5t-193.5 28.5h-182z" />
<glyph unicode="&#x44d;" horiz-adv-x="880" d="M59 379h144q0 -252 170 -252q106 0 185 98.5t116 280.5h-340l24 143h332q12 293 -184 293q-88 0 -147.5 -55.5t-98.5 -175.5h-143q111 391 403 391q190 0 274.5 -159t36.5 -427q-43 -250 -176 -398.5t-313 -148.5q-306 0 -283 410z" />
<glyph unicode="&#x44e;" horiz-adv-x="1368" d="M27 0l188 1071h147l-73 -422h241q59 207 191.5 330t296.5 123q145 0 230 -111.5t85 -298.5q0 -283 -154.5 -502t-365.5 -219q-174 0 -260 148.5t-51 386.5h-238l-90 -506h-147zM645 403q0 -129 51.5 -201.5t143.5 -72.5q143 0 240.5 163t97.5 378q0 129 -50.5 201.5 t-140.5 72.5q-143 0 -242.5 -164t-99.5 -377z" />
<glyph unicode="&#x44f;" horiz-adv-x="948" d="M-63 0l485 446q-168 0 -251 87.5t-62 209.5q27 147 146.5 237.5t301.5 90.5h358l-188 -1071h-139l78 446h-43l-496 -446h-190zM256 743q-14 -88 47.5 -124.5t204.5 -36.5h182l62 348h-211q-250 -1 -285 -187z" />
<glyph unicode="&#x450;" d="M59 352q0 150 47.5 300.5t124.5 254.5q143 195 361 195q164 0 231 -115q66 -115 66 -262q0 -90 -23 -248h-641q-12 -76 -12 -127q0 -104 53 -164.5t148 -60.5q90 0 165.5 59.5t102.5 151.5h147q-57 -174 -175.5 -270.5t-272.5 -96.5t-238 100.5t-84 282.5zM250 621h489 q4 74 4 96q0 102 -50 162.5t-136 60.5q-106 0 -190 -88t-117 -231zM498 1565h182l98 -289h-112z" />
<glyph unicode="&#x451;" d="M59 352q0 150 47.5 300.5t124.5 254.5q143 195 361 195q164 0 231 -115q66 -115 66 -262q0 -90 -23 -248h-641q-12 -76 -12 -127q0 -104 53 -164.5t148 -60.5q90 0 165.5 59.5t102.5 151.5h147q-57 -174 -175.5 -270.5t-272.5 -96.5t-238 100.5t-84 282.5zM250 621h489 q4 74 4 96q0 102 -50 162.5t-136 60.5q-106 0 -190 -88t-117 -231zM387 1237l37 209h151l-34 -209h-154zM659 1237l35 209h154l-37 -209h-152z" />
<glyph unicode="&#x452;" horiz-adv-x="1017" d="M92 0l182 1038h-163l26 150h164l47 282h150l-49 -282h327l-26 -150h-328l-57 -329q82 100 147.5 139t153.5 39q115 0 179 -68.5t64 -193.5q0 -45 -10 -111l-90 -514q-25 -145 -90.5 -203.5t-202.5 -58.5v162q66 0 95.5 35.5t43.5 105.5l90 444q10 55 11 99 q0 141 -140 141q-119 0 -200.5 -93t-110.5 -263l-65 -369h-148z" />
<glyph unicode="&#x453;" horiz-adv-x="659" d="M16 0l189 1071h561l-27 -149h-413l-162 -922h-148zM258 1159l201 289h182l-270 -289h-113z" />
<glyph unicode="&#x454;" horiz-adv-x="835" d="M57 516q47 268 188.5 427t332.5 159q295 0 264 -391h-144q2 121 -36.5 176t-126.5 55q-197 0 -287 -293h332l-27 -143h-340q-29 -182 15 -280.5t153 -98.5q168 0 260 252h143q-127 -410 -430 -410q-180 0 -260 148.5t-37 398.5z" />
<glyph unicode="&#x455;" horiz-adv-x="839" d="M25 238q0 49 8 106h143q-4 -45 -4 -59q0 -76 50 -118t143 -42q104 0 171.5 55.5t67.5 143.5q0 43 -33.5 70.5t-117.5 54.5l-162 51q-162 51 -162 200q0 168 115.5 285t283.5 117q129 0 204 -70.5t75 -195.5q0 -12 -4 -70h-144q4 37 5 45q0 63 -45.5 99t-124.5 36 q-94 0 -153.5 -51t-59.5 -133q0 -39 27.5 -61.5t107.5 -49.5l141 -45q109 -35 156 -86t47 -133q0 -143 -90 -260q-123 -158 -334 -158q-150 0 -230.5 71t-80.5 198z" />
<glyph unicode="&#x456;" horiz-adv-x="372" d="M31 0l186 1071h148l-187 -1071h-147zM252 1266l35 204h147l-35 -204h-147z" />
<glyph unicode="&#x457;" horiz-adv-x="466" d="M78 0l186 1071h148l-187 -1071h-147zM156 1237l37 209h151l-35 -209h-153zM428 1237l35 209h153l-36 -209h-152z" />
<glyph unicode="&#x458;" horiz-adv-x="372" d="M-182 -424l26 156h31q72 0 94.5 23.5t36.5 107.5l211 1208h148l-213 -1229q-25 -139 -90.5 -205.5t-178.5 -66.5q-30 0 -65 6zM252 1266l35 204h147l-35 -204h-147z" />
<glyph unicode="&#x459;" horiz-adv-x="1345" d="M-133 0l27 143q158 0 321 928h588l-78 -444h258q147 0 225 -71t78 -177q0 -162 -134 -270.5t-318 -108.5h-359l158 930h-295l-28 -155q-11 -60 -35.5 -167.5t-48 -179.5t-62.5 -160t-80 -141t-97.5 -90t-119.5 -37zM639 143h211q129 0 209 60.5t80 161.5q0 70 -62.5 98.5 t-193.5 28.5h-183z" />
<glyph unicode="&#x45a;" horiz-adv-x="1591" d="M27 0l188 1071l147 2l-73 -424h422l75 426h140l-80 -430h258q145 0 224 -79t79 -187q0 -162 -134 -270.5t-319 -108.5h-358l90 506h-422l-90 -506h-147zM760 143h211q129 0 209 60.5t80 161.5q0 139 -256 139h-183z" />
<glyph unicode="&#x45b;" horiz-adv-x="1017" d="M92 0l182 1038h-163l26 150h164l47 282h150l-49 -282h327l-26 -150h-328l-57 -329q82 100 147.5 139t153.5 39q115 0 179 -68.5t64 -193.5q0 -45 -10 -111l-90 -514h-147l83 485q10 55 11 99q0 141 -140 141q-119 0 -200.5 -93t-110.5 -263l-65 -369h-148z" />
<glyph unicode="&#x45c;" horiz-adv-x="841" d="M31 0l188 1071h143l-79 -453l458 453h187l-555 -534l387 -537h-191l-321 428l-74 -428h-143zM258 1159l201 289h182l-270 -289h-113z" />
<glyph unicode="&#x45d;" horiz-adv-x="964" d="M27 0l188 1071l147 2l-155 -887l536 885h189l-189 -1071h-147l154 874l-535 -874h-188zM494 1565h182l98 -289h-112z" />
<glyph unicode="&#x45e;" horiz-adv-x="843" d="M-63 -422l28 164q43 -18 86 -18q47 0 76 27.5t68 109.5l55 110l-133 1100h168l82 -878l389 878h164l-500 -1051q-84 -172 -127 -251.5t-91 -133t-86 -63.5t-108 -10q-27 0 -59 12l-6 2zM379 1438l2 59h82q4 -55 14 -78q31 -84 139 -84q74 0 119 36t84 126h80 q-35 -115 -86 -178q-84 -100 -227 -100q-207 0 -207 219z" />
<glyph unicode="&#x45f;" horiz-adv-x="964" d="M27 0l188 1071h147l-163 -930h422l163 930h148l-189 -1071h-286l-45 -256h-142l45 256h-288z" />
<glyph unicode="&#x48c;" horiz-adv-x="1048" d="M47 0l260 1470h164l-111 -620h377q162 0 240 -119t43 -315q-35 -188 -152.5 -302t-279.5 -114h-541zM242 170h327q240 0 283 252q45 258 -199 258h-321z" />
<glyph unicode="&#x48d;" horiz-adv-x="870" d="M27 0l188 1073l139 -2l-78 -444h259q166 0 243.5 -88t55.5 -209q-25 -147 -146 -238.5t-303 -91.5h-358zM190 143h211q121 0 196 47.5t89 139.5q16 88 -45 125t-207 37h-182z" />
<glyph unicode="&#x48e;" horiz-adv-x="1120" d="M63 0l256 1470h543q135 0 214 -83.5t79 -229.5q0 -211 -123 -373q-123 -164 -319 -163h-379l-109 -621h-162zM365 791h323q160 0 236 110q61 92 61 223q0 176 -203 176h-329z" />
<glyph unicode="&#x48f;" d="M-59 -424l260 1495h141l-29 -158q80 106 146.5 147.5t156.5 41.5q131 0 207 -100.5t76 -274.5q0 -154 -49 -310.5t-131 -266.5q-133 -180 -322 -181q-158 0 -213 150l-96 -543h-147zM231 365q0 -109 51.5 -174.5t137.5 -65.5q121 0 207 131q49 74 83.5 208t34.5 249 q0 109 -48 168t-138 59q-150 0 -231 -166q-97 -198 -97 -409z" />
<glyph unicode="&#x490;" horiz-adv-x="1056" d="M63 0l261 1470h673l29 166h160l-62 -344h-669l-228 -1292h-164z" />
<glyph unicode="&#x491;" horiz-adv-x="704" d="M16 0l189 1071l430 4l22 135h134l-52 -288h-413l-162 -922h-148z" />
<glyph unicode="&#x492;" horiz-adv-x="1026" d="M35 836l24 143h177l83 491h834l-31 -176h-671l-54 -315h277l-25 -143h-276l-146 -836h-161l145 836h-176z" />
<glyph unicode="&#x493;" horiz-adv-x="659" d="M-14 532l24 144h127l68 395h561l-27 -149h-413l-43 -246h139l-25 -144h-139l-92 -532h-148l95 532h-127z" />
<glyph unicode="&#x494;" horiz-adv-x="1026" d="M63 0l256 1470h834l-31 -176h-671l-226 -1294h-162z" />
<glyph unicode="&#x495;" horiz-adv-x="659" d="M16 0l189 1071h561l-27 -149h-413l-162 -922h-148z" />
<glyph unicode="&#x496;" horiz-adv-x="1847" d="M-49 0l741 782l-469 688h226l405 -593h74l106 593h164l-106 -593h73l619 593h225l-715 -688l363 -606h135l-74 -422h-164l43 246h-47l-430 717h-55l-127 -717h-164l127 717h-55l-684 -717h-211z" />
<glyph unicode="&#x497;" horiz-adv-x="1343" d="M-63 0l575 537l-367 534h187l299 -453l80 453h143l-80 -453l459 453h186l-555 -534l289 -402h123l-70 -391h-141l45 256h-49l-320 428l-75 -428h-144l76 428l-471 -428h-190z" />
<glyph unicode="&#x498;" horiz-adv-x="1140" d="M45 284.5q-6 73.5 12 190.5h154q-18 -125 12 -201q61 -143 264 -143q145 0 239.5 66.5t115.5 187.5q20 123 -26 207t-187 86l-238 4l21 141h250q96 0 162.5 84t82.5 178q20 121 -40 187.5t-189 66.5q-172 0 -275 -125q-51 -68 -77 -174h-154q43 172 107 265 q150 205 430 204q219 0 305 -137q78 -131 47 -311q-37 -199 -180 -293q170 -96 123 -365q-37 -207 -184.5 -324.5t-368.5 -117.5q-137 0 -223.5 44t-139.5 140q-37 66 -43 139.5z" />
<glyph unicode="&#x499;" horiz-adv-x="839" d="M35 344h143q-12 -115 32 -166t157 -51q96 0 159.5 45t77.5 123q14 76 -15.5 136.5t-123.5 60.5h-141l24 141h119q156 0 186 160q12 70 -29.5 110.5t-125.5 40.5q-188 0 -232 -178h-143q39 162 140.5 249t250.5 87q152 0 227.5 -92t49.5 -246q-25 -131 -121 -203 q117 -74 86 -239q-29 -162 -143.5 -257.5t-282.5 -95.5q-227 0 -285 162q-26 68 -10 213z" />
<glyph unicode="&#x49a;" horiz-adv-x="1157" d="M47 0l260 1470h164l-106 -596l73 3l619 593h225l-715 -688l363 -606h135l-74 -422h-164l43 246h-47l-430 717h-55l-127 -717h-164z" />
<glyph unicode="&#x49b;" horiz-adv-x="841" d="M31 0l188 1071h143l-79 -453l458 453h187l-555 -534l291 -402h120l-69 -391h-142l45 256h-49l-321 428l-74 -428h-143z" />
<glyph unicode="&#x49c;" horiz-adv-x="1157" d="M47 0l260 1470h164l-106 -596l73 3l619 593h225l-715 -688l467 -782h-211l-430 717h-55l-127 -717h-164z" />
<glyph unicode="&#x49d;" horiz-adv-x="841" d="M31 0l188 1071h143l-79 -453l458 453h187l-555 -534l387 -537h-191l-321 428l-74 -428h-143z" />
<glyph unicode="&#x49e;" horiz-adv-x="1157" d="M47 0l260 1470h164l-106 -596l73 3l619 593h225l-715 -688l467 -782h-211l-430 717h-55l-127 -717h-164z" />
<glyph unicode="&#x49f;" horiz-adv-x="841" d="M31 0l188 1071h143l-79 -453l458 453h187l-555 -534l387 -537h-191l-321 428l-74 -428h-143z" />
<glyph unicode="&#x4a0;" horiz-adv-x="1157" d="M47 0l260 1470h164l-106 -596l73 3l619 593h225l-715 -688l467 -782h-211l-430 717h-55l-127 -717h-164z" />
<glyph unicode="&#x4a1;" horiz-adv-x="841" d="M31 0l188 1071h143l-79 -453l458 453h187l-555 -534l387 -537h-191l-321 428l-74 -428h-143z" />
<glyph unicode="&#x4a2;" horiz-adv-x="1212" d="M47 0l256 1470h164l-107 -608h631l105 608h164l-226 -1294h156l-74 -422h-164l43 246h-155l121 686h-631l-119 -686h-164z" />
<glyph unicode="&#x4a3;" horiz-adv-x="964" d="M27 0l188 1071l147 2l-73 -424h422l75 426l146 -4l-164 -936h117l-70 -391h-141l45 256h-123l90 506h-422l-90 -506h-147z" />
<glyph unicode="&#x4a4;" horiz-adv-x="1212" d="M47 0l256 1470h164l-107 -608h631l105 608h164l-256 -1470h-164l121 686h-631l-119 -686h-164z" />
<glyph unicode="&#x4a5;" horiz-adv-x="964" d="M27 0l188 1071l147 2l-73 -424h422l75 426l146 -4l-189 -1071h-147l90 506h-422l-90 -506h-147z" />
<glyph unicode="&#x4a6;" horiz-adv-x="1214" d="M47 0l260 1470h957l-260 -1470h-164l227 1292h-629l-227 -1292h-164z" />
<glyph unicode="&#x4a7;" horiz-adv-x="964" d="M27 0l188 1071h717l-189 -1071h-147l164 930h-422l-164 -930h-147z" />
<glyph unicode="&#x4a8;" horiz-adv-x="1212" d="M98 496q0 209 60.5 409.5t165.5 337.5q201 266 493 266q188 0 300 -115.5t112 -312.5q0 -31 -2 -53h-158q-2 88 -18.5 136t-55.5 89q-74 80 -207 80q-219 0 -364 -221q-70 -104 -113 -266t-43 -324q0 -186 78 -285.5t225 -99.5q168 0 293 150q72 88 133 254h158 q-63 -176 -117.5 -268.5t-136.5 -163.5q-166 -147 -375 -148q-201 0 -314.5 142.5t-113.5 392.5z" />
<glyph unicode="&#x4a9;" horiz-adv-x="839" d="M43 352q0 150 47 300.5t125 254.5q147 195 365 195q125 0 196.5 -81t71.5 -222q0 -18 -4 -88h-144q-2 82 -10 114q-35 115 -158 115q-152 0 -241 -178q-88 -172 -88 -393q0 -244 180 -244q168 0 260 254h143q-127 -410 -430 -410q-145 0 -229 101.5t-84 281.5z" />
<glyph unicode="&#x4aa;" horiz-adv-x="1212" d="M98 496q0 209 60.5 409.5t165.5 337.5q201 266 493 266q188 0 300 -115.5t112 -312.5q0 -31 -2 -53h-158q-2 88 -18.5 136t-55.5 89q-74 80 -207 80q-219 0 -364 -221q-70 -104 -113 -266t-43 -324q0 -186 78 -285.5t225 -99.5q168 0 293 150q72 88 133 254h158 q-63 -176 -117.5 -268.5t-136.5 -163.5q-166 -147 -375 -148q-201 0 -314.5 142.5t-113.5 392.5z" />
<glyph unicode="&#x4ab;" horiz-adv-x="839" d="M43 352q0 150 47 300.5t125 254.5q147 195 365 195q125 0 196.5 -81t71.5 -222q0 -18 -4 -88h-144q-2 82 -10 114q-35 115 -158 115q-152 0 -241 -178q-88 -172 -88 -393q0 -244 180 -244q168 0 260 254h143q-127 -410 -430 -410q-145 0 -229 101.5t-84 281.5z" />
<glyph unicode="&#x4ac;" horiz-adv-x="1026" d="M168 1294l31 176h979l-31 -176h-408l-194 -1118h155l-73 -422h-164l43 246h-156l225 1294h-407z" />
<glyph unicode="&#x4ad;" horiz-adv-x="684" d="M90 922l27 149h639l-27 -149h-246l-137 -787h117l-70 -391h-141l45 256h-123l162 922h-246z" />
<glyph unicode="&#x4ae;" horiz-adv-x="1120" d="M199 1470h190l221 -706l471 706h191l-608 -878l-103 -592h-164l103 592z" />
<glyph unicode="&#x4af;" horiz-adv-x="1120" d="M195 1071h190l160 -706l409 706h191l-547 -878l-102 -592h-164l102 592z" />
<glyph unicode="&#x4b0;" horiz-adv-x="1120" d="M133 430l23 123h338l6 39l-301 878h190l221 -706l471 706h191l-608 -878l-7 -39h338l-22 -123h-338l-74 -430h-164l74 430h-338z" />
<glyph unicode="&#x4b1;" horiz-adv-x="1120" d="M137 70l21 123h276l-239 878h190l160 -706l409 706h191l-547 -878h276l-20 -123h-276l-82 -469h-164l82 469h-277z" />
<glyph unicode="&#x4b2;" horiz-adv-x="1120" d="M-49 0l561 754l-279 716h205l207 -563l404 563h194l-528 -716l221 -578h100l-73 -422h-164l43 246h-37l-219 604l-439 -604h-196z" />
<glyph unicode="&#x4b3;" horiz-adv-x="839" d="M-63 0l405 551l-205 520h191l137 -377l270 377h180l-387 -520l160 -416h78l-70 -391h-141l45 256h-47l-147 403l-283 -403h-186z" />
<glyph unicode="&#x4b4;" horiz-adv-x="1320" d="M47 0l260 1470h164l-229 -1292h628l230 1292h164l-230 -1294h197l-74 -422h-164l43 246h-989z" />
<glyph unicode="&#x4b5;" horiz-adv-x="995" d="M27 0l188 1071h147l-163 -930h422l163 930h148l-164 -936h158l-70 -391h-141l45 256h-733z" />
<glyph unicode="&#x4b6;" horiz-adv-x="983" d="M68 842q0 12 6 55l100 573h164l-100 -573l-5 -25q0 -53 90.5 -88.5t165.5 -35.5q72 0 168.5 39.5t104.5 82.5l104 600h164l-258 -1470h-164l115 649q-94 -76 -270 -76q-43 0 -101.5 12.5t-126 40t-112.5 84t-45 132.5z" />
<glyph unicode="&#x4b7;" horiz-adv-x="790" d="M39 653q0 29 4 45l66 373l147 2l-74 -414v-6q0 -31 43 -59.5t117 -28.5q76 0 131 20.5t62 57.5l77 432l148 -4l-191 -1071h-147l84 467q-31 -23 -67 -33t-60.5 -11t-89.5 -1q-100 0 -175 65.5t-75 165.5z" />
<glyph unicode="&#x4b8;" horiz-adv-x="983" d="M68 842q0 12 6 55l100 573h164l-100 -573l-5 -25q0 -53 90.5 -88.5t165.5 -35.5q72 0 168.5 39.5t104.5 82.5l104 600h164l-258 -1470h-164l115 649q-94 -76 -270 -76q-43 0 -101.5 12.5t-126 40t-112.5 84t-45 132.5z" />
<glyph unicode="&#x4b9;" horiz-adv-x="790" d="M39 653q0 29 4 45l66 373l147 2l-74 -414v-6q0 -31 43 -59.5t117 -28.5q76 0 131 20.5t62 57.5l77 432l148 -4l-191 -1071h-147l84 467q-31 -23 -67 -33t-60.5 -11t-89.5 -1q-100 0 -175 65.5t-75 165.5z" />
<glyph unicode="&#x4ba;" horiz-adv-x="983" d="M-14 0l258 1470h164l-115 -649q94 76 272 76q43 0 100.5 -12.5t125 -40t112.5 -83.5t45 -132q0 -12 -6 -56l-100 -573h-164l100 573l4 25q0 53 -89 89t-165 36q-72 0 -168 -40t-104 -83l-106 -600h-164z" />
<glyph unicode="&#x4bb;" horiz-adv-x="790" d="M-6 4l190 1071h148l-84 -467q31 23 66.5 33t60 11t90.5 1q100 0 175 -65.5t75 -165.5q0 -12 -4 -45l-66 -373l-147 -2l73 414v6q0 31 -44 59.5t-115 28.5q-76 0 -131.5 -20.5t-63.5 -57.5l-76 -432z" />
<glyph unicode="&#x4bc;" horiz-adv-x="1212" d="M98 496q0 209 60.5 409.5t165.5 337.5q201 266 493 266q188 0 300 -115.5t112 -312.5q0 -31 -2 -53h-158q-2 88 -18.5 136t-55.5 89q-74 80 -207 80q-219 0 -364 -221q-70 -104 -113 -266t-43 -324q0 -186 78 -285.5t225 -99.5q168 0 293 150q72 88 133 254h158 q-63 -176 -117.5 -268.5t-136.5 -163.5q-166 -147 -375 -148q-201 0 -314.5 142.5t-113.5 392.5z" />
<glyph unicode="&#x4bd;" horiz-adv-x="839" d="M43 352q0 150 47 300.5t125 254.5q147 195 365 195q125 0 196.5 -81t71.5 -222q0 -18 -4 -88h-144q-2 82 -10 114q-35 115 -158 115q-152 0 -241 -178q-88 -172 -88 -393q0 -244 180 -244q168 0 260 254h143q-127 -410 -430 -410q-145 0 -229 101.5t-84 281.5z" />
<glyph unicode="&#x4be;" horiz-adv-x="1212" d="M98 496q0 209 60.5 409.5t165.5 337.5q201 266 493 266q188 0 300 -115.5t112 -312.5q0 -31 -2 -53h-158q-2 88 -18.5 136t-55.5 89q-74 80 -207 80q-219 0 -364 -221q-70 -104 -113 -266t-43 -324q0 -186 78 -285.5t225 -99.5q168 0 293 150q72 88 133 254h158 q-63 -176 -117.5 -268.5t-136.5 -163.5q-166 -147 -375 -148q-201 0 -314.5 142.5t-113.5 392.5z" />
<glyph unicode="&#x4bf;" horiz-adv-x="839" d="M43 352q0 150 47 300.5t125 254.5q147 195 365 195q125 0 196.5 -81t71.5 -222q0 -18 -4 -88h-144q-2 82 -10 114q-35 115 -158 115q-152 0 -241 -178q-88 -172 -88 -393q0 -244 180 -244q168 0 260 254h143q-127 -410 -430 -410q-145 0 -229 101.5t-84 281.5z" />
<glyph unicode="&#x4c0;" horiz-adv-x="466" d="M72 0l256 1470h161l-256 -1470h-161z" />
<glyph unicode="&#x4c1;" horiz-adv-x="1847" d="M-49 0l741 782l-469 688h226l405 -593h74l106 593h164l-106 -593h73l619 593h225l-715 -688l467 -782h-211l-430 717h-55l-127 -717h-164l127 717h-55l-684 -717h-211zM936 1894l2 60h82q4 -55 14 -78q31 -84 140 -84q74 0 118.5 36t83.5 126h80q-35 -115 -86 -178 q-84 -100 -227 -101q-207 0 -207 219z" />
<glyph unicode="&#x4c2;" horiz-adv-x="1343" d="M-63 0l575 537l-367 534h187l299 -453l80 453h143l-80 -453l459 453h186l-555 -534l387 -537h-190l-320 428l-75 -428h-144l76 428l-471 -428h-190zM604 1495l2 59h82q4 -55 14 -77q31 -84 140 -84q74 0 119 35.5t83 125.5h80q-35 -115 -86 -178q-84 -100 -227 -100 q-207 0 -207 219z" />
<glyph unicode="&#x4c3;" horiz-adv-x="1157" d="M47 0l260 1470h164l-106 -596l73 3l619 593h225l-715 -688l467 -782h-211l-430 717h-55l-127 -717h-164z" />
<glyph unicode="&#x4c4;" horiz-adv-x="841" d="M31 0l188 1071h143l-79 -453l458 453h187l-555 -534l387 -537h-191l-321 428l-74 -428h-143z" />
<glyph unicode="&#x4c7;" horiz-adv-x="1212" d="M47 0l256 1470h164l-107 -608h631l105 608h164l-256 -1470h-164l121 686h-631l-119 -686h-164z" />
<glyph unicode="&#x4c8;" horiz-adv-x="964" d="M27 0l188 1071l147 2l-73 -424h422l75 426l146 -4l-189 -1071h-147l90 506h-422l-90 -506h-147z" />
<glyph unicode="&#x4cb;" horiz-adv-x="983" d="M68 842q0 12 6 55l100 573h164l-100 -573l-5 -25q0 -53 90.5 -88.5t165.5 -35.5q72 0 168.5 39.5t104.5 82.5l104 600h164l-258 -1470h-164l115 649q-94 -76 -270 -76q-43 0 -101.5 12.5t-126 40t-112.5 84t-45 132.5z" />
<glyph unicode="&#x4cc;" horiz-adv-x="790" d="M39 653q0 29 4 45l66 373l147 2l-74 -414v-6q0 -31 43 -59.5t117 -28.5q76 0 131 20.5t62 57.5l77 432l148 -4l-191 -1071h-147l84 467q-31 -23 -67 -33t-60.5 -11t-89.5 -1q-100 0 -175 65.5t-75 165.5z" />
<glyph unicode="&#x4d0;" horiz-adv-x="1120" d="M-59 0l710 1470h185l180 -1470h-178l-45 428h-484l-200 -428h-168zM391 604h375l-68 653zM559 1894l2 60h82q4 -55 14 -78q31 -84 140 -84q74 0 119 36t83 126h80q-35 -115 -86 -178q-84 -100 -227 -101q-207 0 -207 219z" />
<glyph unicode="&#x4d1;" d="M20 207q0 162 91.5 274.5t240.5 132.5l250 37q102 16 103 168q0 133 -177 133q-96 0 -151 -47t-90 -160h-135q33 139 92 216q109 141 321 141q137 0 214 -62.5t77 -173.5q0 -33 -6 -63l-107 -617l-4 -22q-2 -16 9.5 -28.5t30 -12.5t52.5 8l-24 -131l-19 -6 q-39 -14 -69 -14q-127 0 -127 114q0 12 4 49q-166 -174 -342 -174q-109 0 -171.5 63.5t-62.5 174.5zM178 248q0 -129 129 -129q113 0 208 74.5t112 177.5l30 176q-39 -33 -256 -68q-117 -20 -170 -75.5t-53 -155.5zM408 1495l2 59h82q4 -55 14 -77q31 -84 139 -84 q74 0 119 35.5t84 125.5h80q-35 -115 -86 -178q-84 -100 -228 -100q-206 0 -206 219z" />
<glyph unicode="&#x4d2;" horiz-adv-x="1120" d="M-59 0l710 1470h185l180 -1470h-178l-45 428h-484l-200 -428h-168zM391 604h375l-68 653zM559 1675l37 209h152l-35 -209h-154zM831 1675l35 209h154l-37 -209h-152z" />
<glyph unicode="&#x4d3;" d="M20 207q0 162 91.5 274.5t240.5 132.5l250 37q102 16 103 168q0 133 -177 133q-96 0 -151 -47t-90 -160h-135q33 139 92 216q109 141 321 141q137 0 214 -62.5t77 -173.5q0 -33 -6 -63l-107 -617l-4 -22q-2 -16 9.5 -28.5t30 -12.5t52.5 8l-24 -131l-19 -6 q-39 -14 -69 -14q-127 0 -127 114q0 12 4 49q-166 -174 -342 -174q-109 0 -171.5 63.5t-62.5 174.5zM178 248q0 -129 129 -129q113 0 208 74.5t112 177.5l30 176q-39 -33 -256 -68q-117 -20 -170 -75.5t-53 -155.5zM408 1276l36 209h152l-35 -209h-153zM680 1276l35 209h153 l-37 -209h-151z" />
<glyph unicode="&#x4d4;" horiz-adv-x="1679" d="M-68 0l746 1470h1081l-30 -176h-656l-78 -450h598l-30 -176h-598l-86 -492h667l-30 -176h-830l74 428h-445l-206 -428h-177zM406 604h385l120 690h-161z" />
<glyph unicode="&#x4d5;" horiz-adv-x="1492" d="M20 207q0 162 91.5 274.5t240.5 132.5l250 37q102 16 103 168q0 133 -177 133q-96 0 -151 -47t-90 -160h-135q33 139 92 216q111 141 334 141q96 0 151 -32t107 -120q86 86 153.5 119t159.5 33q162 0 231 -115q66 -115 66 -262q0 -90 -23 -248h-641q-12 -76 -12 -127 q0 -104 53.5 -164.5t145.5 -60.5q90 0 165.5 59.5t104.5 151.5h147q-59 -174 -176.5 -270.5t-273.5 -96.5q-121 0 -188.5 52.5t-102.5 171.5q-92 -119 -181 -171.5t-204 -52.5q-113 0 -176.5 62.5t-63.5 175.5zM178 250q0 -131 129 -131q113 0 207 74.5t113 177.5l30 176 q-27 -23 -76 -35t-180 -33q-117 -20 -170 -74.5t-53 -154.5zM807 621h489q4 74 4 96q0 102 -50 162.5t-136 60.5q-106 0 -191 -88t-116 -231z" />
<glyph unicode="&#x4d6;" horiz-adv-x="1120" d="M63 0l256 1470h879l-31 -176h-714l-80 -450h661l-30 -176h-662l-84 -492h727l-31 -176h-891zM590 1894l2 60h82q4 -55 14 -78q31 -84 139 -84q74 0 119 36t84 126h80q-35 -115 -86 -178q-84 -100 -227 -101q-207 0 -207 219z" />
<glyph unicode="&#x4d7;" d="M59 352q0 150 47.5 300.5t124.5 254.5q143 195 361 195q164 0 231 -115q66 -115 66 -262q0 -90 -23 -248h-641q-12 -76 -12 -127q0 -104 53 -164.5t148 -60.5q90 0 165.5 59.5t102.5 151.5h147q-57 -174 -175.5 -270.5t-272.5 -96.5t-238 100.5t-84 282.5zM250 621h489 q4 74 4 96q0 102 -50 162.5t-136 60.5q-106 0 -190 -88t-117 -231zM401 1495l2 59h82q4 -55 15 -77q31 -84 139 -84q74 0 119 35.5t84 125.5h80q-35 -115 -86 -178q-84 -100 -228 -100q-207 0 -207 219z" />
<glyph unicode="&#x4d8;" horiz-adv-x="1212" d="M98 389q0 31 2 53h158q2 -88 18.5 -136t55.5 -89q74 -80 207 -80q219 0 364 221q70 104 113 266t43 324q0 186 -78 285.5t-225 99.5q-168 0 -293 -149q-72 -88 -133 -254h-158q63 176 117.5 268t136.5 164q166 147 375 147q201 0 314.5 -142t113.5 -392 q0 -209 -60.5 -409.5t-164.5 -338.5q-201 -266 -494 -266q-188 0 -300 115.5t-112 312.5z" />
<glyph unicode="&#x4d9;" horiz-adv-x="839" d="M43 272q0 18 4 88h143q2 -82 11 -114q35 -115 157 -115q152 0 242 178q88 172 88 393q0 244 -180 244q-168 0 -260 -254h-144q127 410 431 410q145 0 229 -101.5t84 -281.5q0 -150 -47 -300.5t-125 -254.5q-147 -195 -365 -195q-125 0 -196.5 81t-71.5 222z" />
<glyph unicode="&#x4da;" horiz-adv-x="1212" d="M98 389q0 31 2 53h158q2 -88 18.5 -136t55.5 -89q74 -80 207 -80q219 0 364 221q70 104 113 266t43 324q0 186 -78 285.5t-225 99.5q-168 0 -293 -149q-72 -88 -133 -254h-158q63 176 117.5 268t136.5 164q166 147 375 147q201 0 314.5 -142t113.5 -392 q0 -209 -60.5 -409.5t-164.5 -338.5q-201 -266 -494 -266q-188 0 -300 115.5t-112 312.5zM614 1675l37 209h152l-35 -209h-154zM887 1675l35 209h153l-37 -209h-151z" />
<glyph unicode="&#x4db;" horiz-adv-x="839" d="M43 272q0 18 4 88h143q2 -82 11 -114q35 -115 157 -115q152 0 242 178q88 172 88 393q0 244 -180 244q-168 0 -260 -254h-144q127 410 431 410q145 0 229 -101.5t84 -281.5q0 -150 -47 -300.5t-125 -254.5q-147 -195 -365 -195q-125 0 -196.5 81t-71.5 222zM379 1276 l37 209h151l-35 -209h-153zM651 1276l35 209h154l-37 -209h-152z" />
<glyph unicode="&#x4dc;" horiz-adv-x="1847" d="M-49 0l741 782l-469 688h226l405 -593h74l106 593h164l-106 -593h73l619 593h225l-715 -688l467 -782h-211l-430 717h-55l-127 -717h-164l127 717h-55l-684 -717h-211zM936 1675l37 209h151l-34 -209h-154zM1208 1675l35 209h154l-37 -209h-152z" />
<glyph unicode="&#x4dd;" horiz-adv-x="1343" d="M-63 0l575 537l-367 534h187l299 -453l80 453h143l-80 -453l459 453h186l-555 -534l387 -537h-190l-320 428l-75 -428h-144l76 428l-471 -428h-190zM604 1276l37 209h152l-35 -209h-154zM877 1276l34 209h154l-37 -209h-151z" />
<glyph unicode="&#x4de;" horiz-adv-x="1140" d="M45 284.5q-6 73.5 12 190.5h154q-18 -125 12 -201q61 -143 264 -143q145 0 239.5 66.5t115.5 187.5q20 123 -26 207t-187 86l-238 4l21 141h250q96 0 162.5 84t82.5 178q20 121 -40 187.5t-189 66.5q-172 0 -275 -125q-51 -68 -77 -174h-154q43 172 107 265 q150 205 430 204q219 0 305 -137q78 -131 47 -311q-37 -199 -180 -293q170 -96 123 -365q-37 -207 -184.5 -324.5t-368.5 -117.5q-137 0 -223.5 44t-139.5 140q-37 66 -43 139.5zM535 1675l36 209h152l-35 -209h-153zM807 1675l35 209h153l-37 -209h-151z" />
<glyph unicode="&#x4df;" horiz-adv-x="839" d="M35 344h143q-12 -115 32 -166t157 -51q96 0 159.5 45t77.5 123q14 76 -15.5 136.5t-123.5 60.5h-141l24 141h119q156 0 186 160q12 70 -29.5 110.5t-125.5 40.5q-188 0 -232 -178h-143q39 162 140.5 249t250.5 87q152 0 227.5 -92t49.5 -246q-25 -131 -121 -203 q117 -74 86 -239q-29 -162 -143.5 -257.5t-282.5 -95.5q-227 0 -285 162q-26 68 -10 213zM348 1276l37 209h152l-35 -209h-154zM621 1276l34 209h154l-37 -209h-151z" />
<glyph unicode="&#x4e0;" horiz-adv-x="1140" d="M45 284.5q-6 73.5 12 190.5h154q-18 -125 12 -201q61 -143 264 -143q145 0 239.5 66.5t115.5 187.5q20 123 -26 207t-187 86l-238 4l21 141h250q96 0 162.5 84t82.5 178q20 121 -40 187.5t-189 66.5q-172 0 -275 -125q-51 -68 -77 -174h-154q43 172 107 265 q150 205 430 204q219 0 305 -137q78 -131 47 -311q-37 -199 -180 -293q170 -96 123 -365q-37 -207 -184.5 -324.5t-368.5 -117.5q-137 0 -223.5 44t-139.5 140q-37 66 -43 139.5z" />
<glyph unicode="&#x4e1;" horiz-adv-x="839" d="M35 344h143q-12 -115 32 -166t157 -51q96 0 159.5 45t77.5 123q14 76 -15.5 136.5t-123.5 60.5h-141l24 141h119q156 0 186 160q12 70 -29.5 110.5t-125.5 40.5q-188 0 -232 -178h-143q39 162 140.5 249t250.5 87q152 0 227.5 -92t49.5 -246q-25 -131 -121 -203 q117 -74 86 -239q-29 -162 -143.5 -257.5t-282.5 -95.5q-227 0 -285 162q-26 68 -10 213z" />
<glyph unicode="&#x4e2;" horiz-adv-x="1216" d="M47 0l260 1470h158l-211 -1194l819 1194h193l-260 -1470h-158l211 1194l-830 -1194h-182zM557 1675l21 117h526l-21 -117h-526z" />
<glyph unicode="&#x4e3;" horiz-adv-x="964" d="M27 0l188 1071l147 2l-155 -887l536 885h189l-189 -1071h-147l154 874l-535 -874h-188zM346 1276l21 117h526l-21 -117h-526z" />
<glyph unicode="&#x4e4;" horiz-adv-x="1216" d="M47 0l260 1470h158l-211 -1194l819 1194h193l-260 -1470h-158l211 1194l-830 -1194h-182zM608 1675l37 209h152l-35 -209h-154zM881 1675l34 209h154l-37 -209h-151z" />
<glyph unicode="&#x4e5;" horiz-adv-x="964" d="M27 0l188 1071l147 2l-155 -887l536 885h189l-189 -1071h-147l154 874l-535 -874h-188zM397 1276l37 209h152l-35 -209h-154zM670 1276l35 209h153l-37 -209h-151z" />
<glyph unicode="&#x4e6;" horiz-adv-x="1306" d="M94 535q0 186 60.5 373.5t164.5 326.5q209 274 515 274q223 0 347 -150.5t124 -424.5q0 -186 -60.5 -371.5t-167.5 -326.5q-207 -274 -512 -275q-209 0 -327 125q-66 68 -105 191t-39 258zM264 561q0 -199 88 -311.5t242 -112.5q131 0 242.5 80t187.5 225 q111 217 111 469q0 197 -88.5 309.5t-243.5 112.5q-223 0 -381 -226.5t-158 -545.5zM651 1675l37 209h152l-35 -209h-154zM924 1675l34 209h154l-37 -209h-151z" />
<glyph unicode="&#x4e7;" d="M57 387q0 137 45 277.5t123 242.5q147 195 353 195q150 0 235.5 -109.5t85.5 -304.5q0 -299 -168 -522q-145 -195 -352 -195q-152 0 -237 110.5t-85 305.5zM211 406q0 -135 50 -207t147 -72q156 0 254 188q84 162 83 351q0 135 -51 207.5t-145 72.5q-156 0 -254 -188 q-84 -162 -84 -352zM395 1276l37 209h152l-35 -209h-154zM668 1276l34 209h154l-37 -209h-151z" />
<glyph unicode="&#x4e8;" horiz-adv-x="1306" d="M94 535q0 186 60.5 373.5t164.5 326.5q209 274 515 274q223 0 347 -150.5t124 -424.5q0 -186 -60.5 -371.5t-167.5 -326.5q-207 -274 -512 -275q-209 0 -327 125q-66 68 -105 191t-39 258zM264 561q0 -199 88 -311.5t242 -112.5q131 0 242.5 80t187.5 225 q111 217 111 469q0 197 -88.5 309.5t-243.5 112.5q-223 0 -381 -226.5t-158 -545.5z" />
<glyph unicode="&#x4e9;" d="M57 387q0 137 45 277.5t123 242.5q147 195 353 195q150 0 235.5 -109.5t85.5 -304.5q0 -299 -168 -522q-145 -195 -352 -195q-152 0 -237 110.5t-85 305.5zM211 406q0 -135 50 -207t147 -72q156 0 254 188q84 162 83 351q0 135 -51 207.5t-145 72.5q-156 0 -254 -188 q-84 -162 -84 -352z" />
<glyph unicode="&#x4ea;" horiz-adv-x="1306" d="M94 535q0 186 60.5 373.5t164.5 326.5q209 274 515 274q223 0 347 -150.5t124 -424.5q0 -186 -60.5 -371.5t-167.5 -326.5q-207 -274 -512 -275q-209 0 -327 125q-66 68 -105 191t-39 258zM264 561q0 -199 88 -311.5t242 -112.5q131 0 242.5 80t187.5 225 q111 217 111 469q0 197 -88.5 309.5t-243.5 112.5q-223 0 -381 -226.5t-158 -545.5zM651 1675l37 209h152l-35 -209h-154zM924 1675l34 209h154l-37 -209h-151z" />
<glyph unicode="&#x4eb;" d="M57 387q0 137 45 277.5t123 242.5q147 195 353 195q150 0 235.5 -109.5t85.5 -304.5q0 -299 -168 -522q-145 -195 -352 -195q-152 0 -237 110.5t-85 305.5zM211 406q0 -135 50 -207t147 -72q156 0 254 188q84 162 83 351q0 135 -51 207.5t-145 72.5q-156 0 -254 -188 q-84 -162 -84 -352zM395 1276l37 209h152l-35 -209h-154zM668 1276l34 209h154l-37 -209h-151z" />
<glyph unicode="&#x4ec;" horiz-adv-x="1208" d="M82 541h158q2 -166 43 -252q76 -150 239 -150q174 0 300 137.5t182 389.5h-572l31 178h567q20 231 -60.5 359t-246.5 128q-127 0 -234 -78q-51 -39 -83.5 -88t-67.5 -137h-158q45 147 121 248q176 233 457 233q258 0 373.5 -209.5t54.5 -566.5q-63 -354 -246.5 -563 t-433.5 -209q-209 0 -322 148q-57 72 -79.5 166t-22.5 266zM604 1675l37 209h152l-35 -209h-154zM877 1675l34 209h154l-37 -209h-151z" />
<glyph unicode="&#x4ed;" horiz-adv-x="880" d="M59 379h144q0 -252 170 -252q106 0 185 98.5t116 280.5h-340l24 143h332q12 293 -184 293q-88 0 -147.5 -55.5t-98.5 -175.5h-143q111 391 403 391q190 0 274.5 -159t36.5 -427q-43 -250 -176 -398.5t-313 -148.5q-306 0 -283 410zM379 1276l37 209h151l-35 -209h-153z M651 1276l35 209h154l-37 -209h-152z" />
<glyph unicode="&#x4ee;" horiz-adv-x="1163" d="M92 0l412 610l-289 860h191l221 -706l471 706h190l-1016 -1470h-180zM524 1675l21 117h526l-20 -117h-527z" />
<glyph unicode="&#x4ef;" horiz-adv-x="843" d="M-63 -422l28 164q43 -18 86 -18q47 0 76 27.5t68 109.5l55 110l-133 1100h168l82 -878l389 878h164l-500 -1051q-84 -172 -127 -251.5t-91 -133t-86 -63.5t-108 -10q-27 0 -59 12l-6 2zM291 1276l20 117h527l-21 -117h-526z" />
<glyph unicode="&#x4f0;" horiz-adv-x="1163" d="M92 0l412 610l-289 860h191l221 -706l471 706h190l-1016 -1470h-180zM575 1675l37 209h152l-35 -209h-154zM848 1675l35 209h153l-37 -209h-151z" />
<glyph unicode="&#x4f1;" horiz-adv-x="843" d="M-63 -422l28 164q43 -18 86 -18q47 0 76 27.5t68 109.5l55 110l-133 1100h168l82 -878l389 878h164l-500 -1051q-84 -172 -127 -251.5t-91 -133t-86 -63.5t-108 -10q-27 0 -59 12l-6 2zM342 1276l37 209h151l-34 -209h-154zM614 1276l35 209h154l-37 -209h-152z" />
<glyph unicode="&#x4f2;" horiz-adv-x="1163" d="M92 0l412 610l-289 860h191l221 -706l471 706h190l-1016 -1470h-180zM471 1675l199 289h184l-270 -289h-113zM772 1675l201 289h182l-270 -289h-113z" />
<glyph unicode="&#x4f3;" horiz-adv-x="843" d="M-63 -422l28 164q43 -18 86 -18q47 0 76 27.5t68 109.5l55 110l-133 1100h168l82 -878l389 878h164l-500 -1051q-84 -172 -127 -251.5t-91 -133t-86 -63.5t-108 -10q-27 0 -59 12l-6 2zM238 1276l198 289h185l-271 -289h-112zM539 1276l200 289h183l-271 -289h-112z" />
<glyph unicode="&#x4f4;" horiz-adv-x="983" d="M68 842q0 12 6 55l100 573h164l-100 -573l-5 -25q0 -53 90.5 -88.5t165.5 -35.5q72 0 168.5 39.5t104.5 82.5l104 600h164l-258 -1470h-164l115 649q-94 -76 -270 -76q-43 0 -101.5 12.5t-126 40t-112.5 84t-45 132.5zM418 1632l37 209h151l-35 -209h-153zM690 1632 l35 209h154l-37 -209h-152z" />
<glyph unicode="&#x4f5;" horiz-adv-x="790" d="M39 653q0 29 4 45l66 373h147l-74 -412v-6q0 -31 43 -59.5t117 -28.5q76 0 131 20.5t62 57.5l77 428h148l-191 -1071h-147l84 467q-31 -23 -67 -33t-60.5 -11t-89.5 -1q-100 0 -175 65.5t-75 165.5zM252 1286l37 209h151l-34 -209h-154zM524 1286l35 209h154l-37 -209 h-152z" />
<glyph unicode="&#x4f8;" horiz-adv-x="1599" d="M47 0l260 1470h164l-111 -620h377q162 0 240 -119t43 -315q-35 -188 -152.5 -302t-279.5 -114h-541zM242 170h327q240 0 283 252q45 258 -199 258h-321zM801 1675l37 209h151l-35 -209h-153zM1073 1675l35 209h154l-37 -209h-152zM1227 0l260 1470h162l-260 -1470h-162z " />
<glyph unicode="&#x4f9;" horiz-adv-x="1230" d="M27 0l188 1073l139 -2l-78 -444h259q166 0 243.5 -88t55.5 -209q-25 -147 -146 -238.5t-303 -91.5h-358zM190 143h211q121 0 196 47.5t89 139.5q16 88 -45 125t-207 37h-182zM530 1276l37 209h152l-35 -209h-154zM803 1276l35 209h153l-37 -209h-151zM862 0l189 1071h147 l-188 -1071h-148z" />
<glyph unicode="&#xe3f;" horiz-adv-x="1120" d="M43 0l256 1470h369l30 170h109l-31 -170h53q133 0 208 -76.5t75 -211.5q0 -258 -221 -389q90 -49 127 -108.5t37 -156.5q0 -221 -143.5 -374.5t-350.5 -153.5h-41l-28 -170h-111l31 170h-369zM236 170h204l90 516h-204zM352 848h207l80 452h-207zM551 170h31 q137 0 222 92t85 238q0 186 -244 186h-4zM668 848q135 6 205.5 85t70.5 210q0 152 -196 157z" />
<glyph unicode="&#x1e0c;" horiz-adv-x="1212" d="M53 0l256 1470h490q188 0 294.5 -133t106.5 -370q0 -246 -83 -466t-237.5 -360.5t-342.5 -140.5h-484zM246 170h315q201 0 335 229.5t134 544.5q0 172 -72.5 264t-209.5 92h-306zM369 -369l32 197h177l-33 -197h-176z" />
<glyph unicode="&#x1e0d;" d="M59 379q0 301 137.5 512t335.5 211q90 0 145.5 -45t88.5 -148l98 561h148l-256 -1470h-140l27 154q-66 -100 -131.5 -142.5t-155.5 -42.5q-143 0 -220 106.5t-77 303.5zM211 381q0 -121 46 -188.5t128 -67.5q139 0 232.5 154.5t93.5 404.5q0 256 -181 256 q-102 0 -176.5 -85t-108.5 -208t-34 -266zM233 -369l33 197h176l-32 -197h-177z" />
<glyph unicode="&#x1e0e;" horiz-adv-x="1212" d="M53 0l256 1470h490q188 0 294.5 -133t106.5 -370q0 -246 -83 -466t-237.5 -360.5t-342.5 -140.5h-484zM201 -328l20 117h527l-21 -117h-526zM246 170h315q201 0 335 229.5t134 544.5q0 172 -72.5 264t-209.5 92h-306z" />
<glyph unicode="&#x1e0f;" d="M59 379q0 301 137.5 512t335.5 211q90 0 145.5 -45t88.5 -148l98 561h148l-256 -1470h-140l27 154q-66 -100 -131.5 -142.5t-155.5 -42.5q-143 0 -220 106.5t-77 303.5zM66 -328l20 117h526l-20 -117h-526zM211 381q0 -121 46 -188.5t128 -67.5q139 0 232.5 154.5 t93.5 404.5q0 256 -181 256q-102 0 -176.5 -85t-108.5 -208t-34 -266z" />
<glyph unicode="&#x1e24;" horiz-adv-x="1212" d="M47 0l256 1470h164l-107 -608h631l105 608h164l-256 -1470h-164l121 686h-631l-119 -686h-164zM373 -369l33 197h176l-33 -197h-176z" />
<glyph unicode="&#x1e25;" d="M27 0l256 1470h149l-96 -546q82 100 147.5 139t153.5 39q115 0 179.5 -68.5t64.5 -193.5q0 -45 -11 -111l-127 -729h-147l121 700q10 55 10 99q0 141 -139 141q-119 0 -201 -93t-111 -263l-102 -584h-147zM233 -369l33 197h176l-32 -197h-177z" />
<glyph unicode="&#x1e26;" horiz-adv-x="1212" d="M47 0l256 1470h164l-107 -608h631l105 608h164l-256 -1470h-164l121 686h-631l-119 -686h-164zM553 1622l35 197h180l-35 -197h-180zM883 1622l35 197h180l-35 -197h-180z" />
<glyph unicode="&#x1e27;" d="M27 0l256 1470h149l-96 -546q82 100 147.5 139t153.5 39q115 0 179.5 -68.5t64.5 -193.5q0 -45 -11 -111l-127 -729h-147l121 700q10 55 10 99q0 141 -139 141q-119 0 -201 -93t-111 -263l-102 -584h-147zM414 1622l35 197h180l-35 -197h-180zM743 1622l35 197h180 l-34 -197h-181z" />
<glyph unicode="&#x1e2a;" horiz-adv-x="1212" d="M47 0l256 1470h164l-107 -608h631l105 608h164l-256 -1470h-164l121 686h-631l-119 -686h-164zM219 -152h82v-14q63 -106 178 -106q72 0 117 28.5t80 91.5h100q-113 -238 -327 -237q-111 0 -165.5 59t-64.5 178z" />
<glyph unicode="&#x1e2b;" d="M27 0l256 1470h149l-96 -546q82 100 147.5 139t153.5 39q115 0 179.5 -68.5t64.5 -193.5q0 -45 -11 -111l-127 -729h-147l121 700q10 55 10 99q0 141 -139 141q-119 0 -201 -93t-111 -263l-102 -584h-147zM80 -152h82v-14q63 -106 178 -106q72 0 117 28.5t80 91.5h100 q-113 -238 -328 -237q-111 0 -165 59t-64 178z" />
<glyph unicode="&#x1e36;" d="M45 0l256 1470h164l-225 -1294h610l-31 -176h-774zM281 -369l32 197h176l-32 -197h-176z" />
<glyph unicode="&#x1e37;" horiz-adv-x="372" d="M-47 -369l33 197h176l-33 -197h-176zM31 0l256 1470h147l-256 -1470h-147z" />
<glyph unicode="&#x1e38;" d="M45 0l256 1470h164l-225 -1294h610l-31 -176h-774zM152 1663l20 117h526l-20 -117h-526zM281 -369l32 197h176l-32 -197h-176z" />
<glyph unicode="&#x1e39;" horiz-adv-x="372" d="M-47 -369l33 197h176l-33 -197h-176zM31 0l256 1470h147l-256 -1470h-147zM131 1663l21 117h526l-21 -117h-526z" />
<glyph unicode="&#x1e42;" horiz-adv-x="1398" d="M41 0l256 1470h233l129 -1249l562 1249h231l-256 -1470h-158l152 868l70 379l-562 -1247h-159l-127 1245l-47 -282q-8 -45 -15 -95l-151 -868h-158zM467 -369l33 197h176l-33 -197h-176z" />
<glyph unicode="&#x1e43;" horiz-adv-x="1398" d="M27 0l186 1071h141l-28 -158q76 100 146.5 144.5t158.5 44.5q82 0 129 -41t71 -133q96 102 156 138t139 36q104 0 164 -67.5t60 -186.5q0 -49 -11 -107l-129 -741h-147l121 692q8 43 8 101q0 147 -125 147q-88 0 -163 -83t-97 -204l-115 -653h-147l129 741q6 31 6 64 q0 135 -107 135q-109 0 -188.5 -96t-108.5 -260l-102 -584h-147zM467 -369l33 197h176l-33 -197h-176z" />
<glyph unicode="&#x1e44;" horiz-adv-x="1212" d="M45 0l256 1470h195l397 -1194l209 1194h158l-256 -1470h-185l-407 1194l-209 -1194h-158zM721 1622l35 197h176l-35 -197h-176z" />
<glyph unicode="&#x1e45;" d="M27 0l186 1071h139l-26 -158q78 100 150.5 144.5t162.5 44.5q113 0 177.5 -69.5t64.5 -192.5q0 -45 -11 -111l-127 -729h-147l115 659q10 68 10 123q0 158 -141 158q-113 0 -194 -95t-110 -261l-102 -584h-147zM514 1243l35 197h176l-35 -197h-176z" />
<glyph unicode="&#x1e46;" horiz-adv-x="1212" d="M45 0l256 1470h195l397 -1194l209 1194h158l-256 -1470h-185l-407 1194l-209 -1194h-158zM373 -369l33 197h176l-33 -197h-176z" />
<glyph unicode="&#x1e47;" d="M27 0l186 1071h139l-26 -158q78 100 150.5 144.5t162.5 44.5q113 0 177.5 -69.5t64.5 -192.5q0 -45 -11 -111l-127 -729h-147l115 659q10 68 10 123q0 158 -141 158q-113 0 -194 -95t-110 -261l-102 -584h-147zM233 -369l33 197h176l-32 -197h-177z" />
<glyph unicode="&#x1e58;" horiz-adv-x="1212" d="M66 0l256 1470h559q164 0 250 -74.5t86 -217.5q0 -293 -238 -455q59 -35 80.5 -72t21.5 -112q0 -45 -6 -93l-37 -266q-6 -43 -6 -69q0 -43 41 -78l-6 -33h-201v35q0 117 37 334q10 68 10 102q0 160 -180 160h-395l-109 -631h-163zM369 801h376q145 0 221 89t76 240 q0 170 -180 170h-407zM688 1622l35 197h176l-35 -197h-176z" />
<glyph unicode="&#x1e59;" horiz-adv-x="559" d="M47 0l186 1071h140l-33 -184q80 117 145.5 166t143.5 49q18 0 37 -6l-33 -187h-55q-96 0 -175 -80.5t-100 -205.5l-108 -623h-148zM328 1243l34 197h177l-35 -197h-176z" />
<glyph unicode="&#x1e5a;" horiz-adv-x="1212" d="M66 0l256 1470h559q164 0 250 -74.5t86 -217.5q0 -293 -238 -455q59 -35 80.5 -72t21.5 -112q0 -45 -6 -93l-37 -266q-6 -43 -6 -69q0 -43 41 -78l-6 -33h-201v35q0 117 37 334q10 68 10 102q0 160 -180 160h-395l-109 -631h-163zM340 -369l33 197h176l-33 -197h-176z M369 801h376q145 0 221 89t76 240q0 170 -180 170h-407z" />
<glyph unicode="&#x1e5b;" horiz-adv-x="559" d="M-31 -369l33 197h176l-33 -197h-176zM47 0l186 1071h140l-33 -184q80 117 145.5 166t143.5 49q18 0 37 -6l-33 -187h-55q-96 0 -175 -80.5t-100 -205.5l-108 -623h-148z" />
<glyph unicode="&#x1e5c;" horiz-adv-x="1212" d="M66 0l256 1470h559q164 0 250 -74.5t86 -217.5q0 -293 -238 -455q59 -35 80.5 -72t21.5 -112q0 -45 -6 -93l-37 -266q-6 -43 -6 -69q0 -43 41 -78l-6 -33h-201v35q0 117 37 334q10 68 10 102q0 160 -180 160h-395l-109 -631h-163zM340 -369l33 197h176l-33 -197h-176z M369 801h376q145 0 221 89t76 240q0 170 -180 170h-407zM518 1663l21 117h526l-21 -117h-526z" />
<glyph unicode="&#x1e5d;" horiz-adv-x="559" d="M-31 -369l33 197h176l-33 -197h-176zM47 0l186 1071h140l-33 -184q80 117 145.5 166t143.5 49q18 0 37 -6l-33 -187h-55q-96 0 -175 -80.5t-100 -205.5l-108 -623h-148zM162 1315l20 117h527l-21 -117h-526z" />
<glyph unicode="&#x1e62;" horiz-adv-x="1120" d="M70 322q0 68 14 153h154q-8 -49 -9 -94q0 -117 76 -183.5t209 -66.5q166 0 263 85t97 228q0 74 -47 116t-172 79l-233 70q-205 61 -205 264q0 219 146.5 377.5t369.5 158.5q180 0 280.5 -91t100.5 -253q0 -59 -8 -125h-154q4 53 4 68q0 106 -67.5 168.5t-183.5 62.5 q-141 0 -231.5 -85t-90.5 -218q0 -109 115 -141l325 -96q215 -61 215 -295q0 -242 -156.5 -392.5t-406.5 -150.5q-190 0 -297.5 100.5t-107.5 260.5zM324 -369l32 197h176l-32 -197h-176z" />
<glyph unicode="&#x1e63;" horiz-adv-x="839" d="M25 238q0 49 8 106h143q-4 -45 -4 -59q0 -76 50 -118t143 -42q104 0 171.5 55.5t67.5 143.5q0 43 -33.5 70.5t-117.5 54.5l-162 51q-162 51 -162 200q0 168 115.5 285t283.5 117q129 0 204 -70.5t75 -195.5q0 -12 -4 -70h-144q4 37 5 45q0 63 -45.5 99t-124.5 36 q-94 0 -153.5 -51t-59.5 -133q0 -41 27.5 -63.5t107.5 -47.5l141 -45q106 -35 154.5 -87t48.5 -132q0 -174 -124 -296t-300 -122q-150 0 -230.5 71t-80.5 198zM186 -369l33 197h176l-33 -197h-176z" />
<glyph unicode="&#x1e6c;" horiz-adv-x="1026" d="M168 1294l31 176h979l-31 -176h-408l-225 -1294h-164l225 1294h-407zM281 -369l32 197h176l-32 -197h-176z" />
<glyph unicode="&#x1e6d;" horiz-adv-x="466" d="M0 -369l33 197h176l-33 -197h-176zM90 129q0 47 8 86l123 707h-119l27 149h119l51 299h150l-54 -299h142l-27 -149h-141l-121 -697q-2 -8 -2 -24q0 -59 76 -60h53l-25 -141q-115 -14 -123 -14q-137 0 -137 143z" />
<glyph unicode="&#x1e6e;" horiz-adv-x="1026" d="M113 -328l20 117h526l-20 -117h-526zM168 1294l31 176h979l-31 -176h-408l-225 -1294h-164l225 1294h-407z" />
<glyph unicode="&#x1e6f;" horiz-adv-x="466" d="M-168 -328l21 117h526l-21 -117h-526zM90 129q0 47 8 86l123 707h-119l27 149h119l51 299h150l-54 -299h142l-27 -149h-141l-121 -697q-2 -8 -2 -24q0 -59 76 -60h53l-25 -141q-115 -14 -123 -14q-137 0 -137 143z" />
<glyph unicode="&#x1e80;" horiz-adv-x="1585" d="M201 0v1470h192v-1204l484 1204h239v-1204l436 1204h181l-574 -1470h-235v1227l-494 -1227h-229zM786 1843h203l86 -248h-112z" />
<glyph unicode="&#x1e81;" horiz-adv-x="1212" d="M129 1071h182v-850l320 850h190v-850l328 850h147l-442 -1071h-186v838l-320 -838h-151zM508 1485h203l80 -289h-113z" />
<glyph unicode="&#x1e82;" horiz-adv-x="1585" d="M201 0v1470h192v-1204l484 1204h239v-1204l436 1204h181l-574 -1470h-235v1227l-494 -1227h-229zM961 1595l172 248h202l-262 -248h-112z" />
<glyph unicode="&#x1e83;" horiz-adv-x="1212" d="M129 1071h182v-850l320 850h190v-850l328 850h147l-442 -1071h-186v838l-320 -838h-151zM676 1196l180 289h203l-271 -289h-112z" />
<glyph unicode="&#x1e84;" horiz-adv-x="1585" d="M201 0v1470h192v-1204l484 1204h239v-1204l436 1204h181l-574 -1470h-235v1227l-494 -1227h-229zM768 1622l35 197h180l-35 -197h-180zM1098 1622l35 197h180l-35 -197h-180z" />
<glyph unicode="&#x1e85;" horiz-adv-x="1212" d="M129 1071h182v-850l320 850h190v-850l328 850h147l-442 -1071h-186v838l-320 -838h-151zM485 1243l35 197h180l-34 -197h-181zM815 1243l35 197h180l-35 -197h-180z" />
<glyph unicode="&#x1e92;" horiz-adv-x="1026" d="M-43 0l29 166l936 1128h-684l30 176h893l-31 -172l-935 -1122h741l-31 -176h-948zM307 -369l33 197h176l-33 -197h-176z" />
<glyph unicode="&#x1e93;" horiz-adv-x="839" d="M-31 0l25 141l665 781h-489l27 149h680l-27 -147l-657 -774h538l-26 -150h-736zM186 -369l33 197h176l-33 -197h-176z" />
<glyph unicode="&#x1e97;" horiz-adv-x="466" d="M90 129q0 47 8 86l123 707h-119l27 149h119l51 299h150l-54 -299h142l-27 -149h-141l-121 -697q-2 -8 -2 -24q0 -59 76 -60h53l-25 -141q-115 -14 -123 -14q-137 0 -137 143zM145 1522l35 196h180l-34 -196h-181zM475 1522l35 196h180l-35 -196h-180z" />
<glyph unicode="&#x1ea0;" horiz-adv-x="1120" d="M-59 0l710 1470h185l180 -1470h-178l-45 428h-484l-200 -428h-168zM328 -369l32 197h177l-33 -197h-176zM391 604h375l-68 653z" />
<glyph unicode="&#x1ea1;" d="M20 207q0 162 91.5 274.5t240.5 132.5l250 37q102 16 103 168q0 133 -177 133q-96 0 -151 -47t-90 -160h-135q80 356 413 357q137 0 214 -62.5t77 -173.5q0 -33 -6 -63l-111 -639q0 -41 39 -41q18 0 53 8l-24 -131l-19 -6q-39 -14 -69 -14q-127 0 -127 114q0 12 4 49 q-166 -174 -342 -174q-109 0 -171.5 63.5t-62.5 174.5zM178 248q0 -129 129 -129q113 0 207 74.5t113 177.5l30 176q-39 -33 -256 -68q-117 -20 -170 -75.5t-53 -155.5zM221 -369l33 197h176l-33 -197h-176z" />
<glyph unicode="&#x1ea2;" horiz-adv-x="1120" d="M-59 0l710 1470h185l180 -1470h-178l-45 428h-484l-200 -428h-168zM391 604h375l-68 653zM590 1747q31 188 246 188q94 0 141 -37.5t37 -103.5q-6 -39 -31 -65.5t-84 -61.5q-72 -45 -76 -65l-8 -50h-115l11 56q6 37 30.5 60.5t87.5 57.5q68 39 70 68q4 23 -18.5 37 t-65.5 14q-63 0 -88 -28q-16 -16 -25 -70h-112z" />
<glyph unicode="&#x1ea3;" d="M20 207q0 162 91.5 274.5t240.5 132.5l250 37q102 16 103 168q0 133 -177 133q-96 0 -151 -47t-90 -160h-135q80 356 413 357q137 0 214 -62.5t77 -173.5q0 -33 -6 -63l-111 -639q0 -41 39 -41q18 0 53 8l-24 -131l-19 -6q-39 -14 -69 -14q-127 0 -127 114q0 12 4 49 q-166 -174 -342 -174q-109 0 -171.5 63.5t-62.5 174.5zM178 248q0 -129 129 -129q113 0 207 74.5t113 177.5l30 176q-39 -33 -256 -68q-117 -20 -170 -75.5t-53 -155.5zM406 1348q31 188 245 188q94 0 141.5 -38t36.5 -103q-6 -39 -30.5 -65.5t-83.5 -61.5q-72 -45 -76 -66 l-8 -49h-115l10 55q6 37 31 60.5t88 58.5q68 39 70 68q4 23 -18.5 37t-65.5 14q-63 0 -88 -29q-16 -16 -25 -69h-112z" />
<glyph unicode="&#x1ea4;" horiz-adv-x="1120" d="M-59 0l710 1470h185l180 -1470h-178l-45 428h-484l-200 -428h-168zM391 604h375l-68 653zM492 1597l239 248h158l153 -248h-135l-114 150l-168 -150h-133zM760 1886l174 248h203l-265 -248h-112z" />
<glyph unicode="&#x1ea5;" d="M20 207q0 162 91.5 274.5t240.5 132.5l250 37q102 16 103 168q0 133 -177 133q-96 0 -151 -47t-90 -160h-135q80 356 413 357q137 0 214 -62.5t77 -173.5q0 -33 -6 -63l-111 -639q0 -41 39 -41q18 0 53 8l-24 -131l-19 -6q-39 -14 -69 -14q-127 0 -127 114q0 12 4 49 q-166 -174 -342 -174q-109 0 -171.5 63.5t-62.5 174.5zM178 248q0 -129 129 -129q113 0 207 74.5t113 177.5l30 176q-39 -33 -256 -68q-117 -20 -170 -75.5t-53 -155.5zM307 1198l240 248h158l153 -248h-135l-115 150l-168 -150h-133zM575 1487l175 248h202l-264 -248h-113z " />
<glyph unicode="&#x1ea6;" horiz-adv-x="1120" d="M-59 0l710 1470h185l180 -1470h-178l-45 428h-484l-200 -428h-168zM391 604h375l-68 653zM492 1597l239 248h158l153 -248h-135l-114 150l-168 -150h-133zM584 2134h202l88 -248h-112z" />
<glyph unicode="&#x1ea7;" d="M20 207q0 162 91.5 274.5t240.5 132.5l250 37q102 16 103 168q0 133 -177 133q-96 0 -151 -47t-90 -160h-135q80 356 413 357q137 0 214 -62.5t77 -173.5q0 -33 -6 -63l-111 -639q0 -41 39 -41q18 0 53 8l-24 -131l-19 -6q-39 -14 -69 -14q-127 0 -127 114q0 12 4 49 q-166 -174 -342 -174q-109 0 -171.5 63.5t-62.5 174.5zM178 248q0 -129 129 -129q113 0 207 74.5t113 177.5l30 176q-39 -33 -256 -68q-117 -20 -170 -75.5t-53 -155.5zM307 1198l240 248h158l153 -248h-135l-115 150l-168 -150h-133zM399 1735h203l88 -248h-112z" />
<glyph unicode="&#x1ea8;" horiz-adv-x="1120" d="M-59 0l710 1470h185l180 -1470h-178l-45 428h-484l-200 -428h-168zM391 604h375l-68 653zM492 1597l239 248h158l153 -248h-135l-114 150l-168 -150h-133zM707 2060q31 170 243 170q92 0 141.5 -34.5t38.5 -92.5q-6 -35 -29.5 -59.5t-82.5 -56.5q-45 -25 -58.5 -35 t-15.5 -23l-8 -43h-115l10 49q6 35 30 55.5t85 51.5q68 37 70 61q4 20 -19.5 32.5t-66.5 12.5q-66 0 -86 -24q-14 -12 -25 -64h-112z" />
<glyph unicode="&#x1ea9;" d="M20 207q0 162 91.5 274.5t240.5 132.5l250 37q102 16 103 168q0 133 -177 133q-96 0 -151 -47t-90 -160h-135q80 356 413 357q137 0 214 -62.5t77 -173.5q0 -33 -6 -63l-111 -639q0 -41 39 -41q18 0 53 8l-24 -131l-19 -6q-39 -14 -69 -14q-127 0 -127 114q0 12 4 49 q-166 -174 -342 -174q-109 0 -171.5 63.5t-62.5 174.5zM178 248q0 -129 129 -129q113 0 207 74.5t113 177.5l30 176q-39 -33 -256 -68q-117 -20 -170 -75.5t-53 -155.5zM307 1198l240 248h158l153 -248h-135l-115 150l-168 -150h-133zM522 1661q31 170 244 170q92 0 141 -35 t39 -92q-6 -35 -29.5 -59.5t-82.5 -57.5q-45 -25 -58.5 -35t-15.5 -22l-8 -43h-115l10 49q6 35 29.5 55.5t85.5 50.5q68 37 69 62q4 20 -19.5 32.5t-66.5 12.5q-66 0 -86 -25q-14 -12 -24 -63h-113z" />
<glyph unicode="&#x1eaa;" horiz-adv-x="1120" d="M-59 0l710 1470h185l180 -1470h-178l-45 428h-484l-200 -428h-168zM391 604h375l-68 653zM492 1597l239 248h158l153 -248h-135l-114 150l-168 -150h-133zM535 1907q35 115 86 167t127 52q51 0 108 -31l35 -18q49 -27 78 -27q61 0 96 94h84q-70 -223 -209 -223 q-33 0 -92 27l-41 18q-72 31 -96 31q-57 0 -97 -90h-79z" />
<glyph unicode="&#x1eab;" d="M20 207q0 162 91.5 274.5t240.5 132.5l250 37q102 16 103 168q0 133 -177 133q-96 0 -151 -47t-90 -160h-135q80 356 413 357q137 0 214 -62.5t77 -173.5q0 -33 -6 -63l-111 -639q0 -41 39 -41q18 0 53 8l-24 -131l-19 -6q-39 -14 -69 -14q-127 0 -127 114q0 12 4 49 q-166 -174 -342 -174q-109 0 -171.5 63.5t-62.5 174.5zM178 248q0 -129 129 -129q113 0 207 74.5t113 177.5l30 176q-39 -33 -256 -68q-117 -20 -170 -75.5t-53 -155.5zM307 1198l240 248h158l153 -248h-135l-115 150l-168 -150h-133zM350 1507q35 115 86 167t127 52 q51 0 109 -30l35 -19q49 -27 77 -26q61 0 97 94h84q-70 -223 -209 -223q-33 0 -92 26l-41 19q-72 31 -97 30q-57 0 -96 -90h-80z" />
<glyph unicode="&#x1eac;" horiz-adv-x="1120" d="M-59 0l710 1470h185l180 -1470h-178l-45 428h-484l-200 -428h-168zM328 -369l32 197h177l-33 -197h-176zM391 604h375l-68 653zM489 1597l240 248h158l153 -248h-135l-114 150l-168 -150h-134z" />
<glyph unicode="&#x1ead;" d="M20 207q0 162 91.5 274.5t240.5 132.5l250 37q102 16 103 168q0 133 -177 133q-96 0 -151 -47t-90 -160h-135q80 356 413 357q137 0 214 -62.5t77 -173.5q0 -33 -6 -63l-111 -639q0 -41 39 -41q18 0 53 8l-24 -131l-19 -6q-39 -14 -69 -14q-127 0 -127 114q0 12 4 49 q-166 -174 -342 -174q-109 0 -171.5 63.5t-62.5 174.5zM178 248q0 -129 129 -129q113 0 207 74.5t113 177.5l30 176q-39 -33 -256 -68q-117 -20 -170 -75.5t-53 -155.5zM221 -369l33 197h176l-33 -197h-176zM338 1198l217 289h156l114 -289h-133l-78 191l-143 -191h-133z " />
<glyph unicode="&#x1eae;" horiz-adv-x="1120" d="M-59 0l710 1470h185l180 -1470h-178l-45 428h-484l-200 -428h-168zM391 604h375l-68 653zM530 1839h82l2 -14q63 -106 179 -107q72 0 115.5 29t78.5 92h100q-55 -119 -132.5 -178t-192.5 -59q-111 0 -166.5 59t-65.5 178zM762 1896l174 248h203l-265 -248h-112z" />
<glyph unicode="&#x1eaf;" d="M20 207q0 162 91.5 274.5t240.5 132.5l250 37q102 16 103 168q0 133 -177 133q-96 0 -151 -47t-90 -160h-135q80 356 413 357q137 0 214 -62.5t77 -173.5q0 -33 -6 -63l-111 -639q0 -41 39 -41q18 0 53 8l-24 -131l-19 -6q-39 -14 -69 -14q-127 0 -127 114q0 12 4 49 q-166 -174 -342 -174q-109 0 -171.5 63.5t-62.5 174.5zM178 248q0 -129 129 -129q113 0 207 74.5t113 177.5l30 176q-39 -33 -256 -68q-117 -20 -170 -75.5t-53 -155.5zM346 1440h82l2 -15q63 -106 178 -106q72 0 116 28.5t79 92.5h100q-55 -119 -133 -178.5t-192 -59.5 q-111 0 -166.5 59.5t-65.5 178.5zM578 1497l174 248h202l-264 -248h-112z" />
<glyph unicode="&#x1eb0;" horiz-adv-x="1120" d="M-59 0l710 1470h185l180 -1470h-178l-45 428h-484l-200 -428h-168zM391 604h375l-68 653zM530 1839h82l2 -14q63 -106 179 -107q72 0 115.5 29t78.5 92h100q-55 -119 -132.5 -178t-192.5 -59q-111 0 -166.5 59t-65.5 178zM586 2144h202l86 -248h-112z" />
<glyph unicode="&#x1eb1;" d="M20 207q0 162 91.5 274.5t240.5 132.5l250 37q102 16 103 168q0 133 -177 133q-96 0 -151 -47t-90 -160h-135q80 356 413 357q137 0 214 -62.5t77 -173.5q0 -33 -6 -63l-111 -639q0 -41 39 -41q18 0 53 8l-24 -131l-19 -6q-39 -14 -69 -14q-127 0 -127 114q0 12 4 49 q-166 -174 -342 -174q-109 0 -171.5 63.5t-62.5 174.5zM178 248q0 -129 129 -129q113 0 207 74.5t113 177.5l30 176q-39 -33 -256 -68q-117 -20 -170 -75.5t-53 -155.5zM346 1440h82l2 -15q63 -106 178 -106q72 0 116 28.5t79 92.5h100q-55 -119 -133 -178.5t-192 -59.5 q-111 0 -166.5 59.5t-65.5 178.5zM401 1745h203l86 -248h-112z" />
<glyph unicode="&#x1eb2;" horiz-adv-x="1120" d="M-59 0l710 1470h185l180 -1470h-178l-45 428h-484l-200 -428h-168zM391 604h375l-68 653zM530 1839h82l2 -14q63 -106 179 -107q72 0 115.5 29t78.5 92h100q-55 -119 -132.5 -178t-192.5 -59q-111 0 -166.5 59t-65.5 178zM629 1995q29 168 241 168q94 0 143.5 -35 t39.5 -92q-6 -35 -30 -59.5t-83 -55.5q-72 -37 -76 -57l-6 -45h-115l9 49q6 35 30.5 56.5t85.5 51.5q63 31 70 60q4 20 -19.5 33.5t-66.5 13.5q-61 0 -88 -27q-16 -16 -23 -61h-112z" />
<glyph unicode="&#x1eb3;" d="M20 207q0 162 91.5 274.5t240.5 132.5l250 37q102 16 103 168q0 133 -177 133q-96 0 -151 -47t-90 -160h-135q80 356 413 357q137 0 214 -62.5t77 -173.5q0 -33 -6 -63l-111 -639q0 -41 39 -41q18 0 53 8l-24 -131l-19 -6q-39 -14 -69 -14q-127 0 -127 114q0 12 4 49 q-166 -174 -342 -174q-109 0 -171.5 63.5t-62.5 174.5zM178 248q0 -129 129 -129q113 0 207 74.5t113 177.5l30 176q-39 -33 -256 -68q-117 -20 -170 -75.5t-53 -155.5zM346 1440h82l2 -15q63 -106 178 -106q72 0 116 28.5t79 92.5h100q-55 -119 -133 -178.5t-192 -59.5 q-111 0 -166.5 59.5t-65.5 178.5zM444 1595q29 168 242 168q94 0 143.5 -34.5t38.5 -92.5q-6 -35 -29.5 -59.5t-82.5 -54.5q-72 -37 -76 -58l-6 -45h-115l8 49q6 35 31 56.5t86 52.5q63 31 70 59q4 20 -19.5 33.5t-66.5 13.5q-61 0 -88 -26q-16 -16 -23 -62h-113z" />
<glyph unicode="&#x1eb4;" horiz-adv-x="1120" d="M-59 0l710 1470h185l180 -1470h-178l-45 428h-484l-200 -428h-168zM391 604h375l-68 653zM530 1839h82l2 -14q63 -106 179 -107q72 0 115.5 29t78.5 92h100q-55 -119 -132.5 -178t-192.5 -59q-111 0 -166.5 59t-65.5 178zM535 1915q35 115 86 167t127 52q51 0 108 -31 l35 -18q49 -27 78 -27q61 0 96 94h84q-70 -223 -209 -223q-33 0 -92 27l-41 18q-72 31 -96 31q-57 0 -97 -90h-79z" />
<glyph unicode="&#x1eb5;" d="M20 207q0 162 91.5 274.5t240.5 132.5l250 37q102 16 103 168q0 133 -177 133q-96 0 -151 -47t-90 -160h-135q80 356 413 357q137 0 214 -62.5t77 -173.5q0 -33 -6 -63l-111 -639q0 -41 39 -41q18 0 53 8l-24 -131l-19 -6q-39 -14 -69 -14q-127 0 -127 114q0 12 4 49 q-166 -174 -342 -174q-109 0 -171.5 63.5t-62.5 174.5zM178 248q0 -129 129 -129q113 0 207 74.5t113 177.5l30 176q-39 -33 -256 -68q-117 -20 -170 -75.5t-53 -155.5zM346 1440h82l2 -15q63 -106 178 -106q72 0 116 28.5t79 92.5h100q-55 -119 -133 -178.5t-192 -59.5 q-111 0 -166.5 59.5t-65.5 178.5zM350 1516q35 115 86 167t127 52q51 0 109 -31l35 -18q49 -27 77 -27q61 0 97 94h84q-70 -223 -209 -223q-33 0 -92 26l-41 19q-72 31 -97 31q-57 0 -96 -90h-80z" />
<glyph unicode="&#x1eb6;" horiz-adv-x="1120" d="M-59 0l710 1470h185l180 -1470h-178l-45 428h-484l-200 -428h-168zM328 -369l32 197h177l-33 -197h-176zM391 604h375l-68 653zM528 1839h82l2 -14q63 -106 179 -107q72 0 115.5 29t78.5 92h100q-55 -119 -133 -178t-192 -59q-111 0 -166.5 59t-65.5 178z" />
<glyph unicode="&#x1eb7;" d="M20 207q0 162 91.5 274.5t240.5 132.5l250 37q102 16 103 168q0 133 -177 133q-96 0 -151 -47t-90 -160h-135q80 356 413 357q137 0 214 -62.5t77 -173.5q0 -33 -6 -63l-111 -639q0 -41 39 -41q18 0 53 8l-24 -131l-19 -6q-39 -14 -69 -14q-127 0 -127 114q0 12 4 49 q-166 -174 -342 -174q-109 0 -171.5 63.5t-62.5 174.5zM178 248q0 -129 129 -129q113 0 207 74.5t113 177.5l30 176q-39 -33 -256 -68q-117 -20 -170 -75.5t-53 -155.5zM221 -369l33 197h176l-33 -197h-176zM371 1421l2 60h82q8 -86 44 -124t109.5 -38t118.5 36t84 126h80 q-45 -145 -120 -212t-193 -67q-100 0 -155.5 56.5t-51.5 162.5z" />
<glyph unicode="&#x1eb8;" horiz-adv-x="1120" d="M63 0l256 1470h879l-31 -176h-714l-80 -450h661l-30 -176h-662l-84 -492h727l-31 -176h-891zM328 -369l32 197h177l-33 -197h-176z" />
<glyph unicode="&#x1eb9;" d="M59 352q0 301 153 525.5t380 224.5q152 0 224.5 -106.5t72.5 -270.5q0 -90 -23 -248h-641q-12 -76 -12 -127q0 -104 53 -164.5t148 -60.5q90 0 165.5 59.5t102.5 151.5h147q-57 -174 -175.5 -270.5t-272.5 -96.5t-238 100.5t-84 282.5zM233 -369l33 197h176l-32 -197 h-177zM250 621h489q4 74 4 96q0 102 -50 162.5t-136 60.5q-106 0 -190 -88t-117 -231z" />
<glyph unicode="&#x1eba;" horiz-adv-x="1120" d="M63 0l256 1470h879l-31 -176h-714l-80 -450h661l-30 -176h-662l-84 -492h727l-31 -176h-891zM604 1747q31 188 246 188q94 0 141 -37.5t37 -103.5q-6 -39 -30.5 -65.5t-84.5 -61.5q-72 -45 -75 -65l-9 -50h-114l10 56q6 37 30.5 60.5t88.5 57.5q68 39 69 68 q4 23 -18.5 37t-65.5 14q-63 0 -88 -28q-16 -16 -24 -70h-113z" />
<glyph unicode="&#x1ebb;" d="M59 352q0 301 153 525.5t380 224.5q152 0 224.5 -106.5t72.5 -270.5q0 -90 -23 -248h-641q-12 -76 -12 -127q0 -104 53 -164.5t148 -60.5q90 0 165.5 59.5t102.5 151.5h147q-57 -174 -175.5 -270.5t-272.5 -96.5t-238 100.5t-84 282.5zM250 621h489q4 74 4 96 q0 102 -50 162.5t-136 60.5q-106 0 -190 -88t-117 -231zM418 1348q31 188 246 188q94 0 141 -38t37 -103q-6 -39 -31 -65.5t-84 -61.5q-72 -45 -76 -66l-8 -49h-115l11 55q6 37 30.5 60.5t87.5 58.5q68 39 70 68q4 23 -18.5 37t-65.5 14q-63 0 -88 -29q-16 -16 -25 -69h-112 z" />
<glyph unicode="&#x1ebc;" horiz-adv-x="1120" d="M63 0l256 1470h879l-31 -176h-714l-80 -450h661l-30 -176h-662l-84 -492h727l-31 -176h-891zM496 1602q35 115 86 167t127 52q49 0 108 -31l35 -18q49 -27 78 -27q61 0 96 94h84q-70 -223 -209 -223q-33 0 -92 26l-41 19q-72 31 -96 31q-57 0 -97 -90h-79z" />
<glyph unicode="&#x1ebd;" d="M59 352q0 301 153 525.5t380 224.5q152 0 224.5 -106.5t72.5 -270.5q0 -90 -23 -248h-641q-12 -76 -12 -127q0 -104 53 -164.5t148 -60.5q90 0 165.5 59.5t102.5 151.5h147q-57 -174 -175.5 -270.5t-272.5 -96.5t-238 100.5t-84 282.5zM250 621h489q4 74 4 96 q0 102 -50 162.5t-136 60.5q-106 0 -190 -88t-117 -231zM309 1223q35 115 86 167t127 52q51 0 109 -31l35 -18q49 -27 77 -27q61 0 97 94h84q-70 -223 -209 -223q-33 0 -92 27l-41 18q-70 31 -97 31q-57 0 -96 -90h-80z" />
<glyph unicode="&#x1ebe;" horiz-adv-x="1120" d="M63 0l256 1470h879l-31 -176h-714l-80 -450h661l-30 -176h-662l-84 -492h727l-31 -176h-891zM506 1597l239 248h158l154 -248h-135l-115 150l-168 -150h-133zM774 1886l174 248h203l-264 -248h-113z" />
<glyph unicode="&#x1ebf;" d="M59 352q0 301 153 525.5t380 224.5q152 0 224.5 -106.5t72.5 -270.5q0 -90 -23 -248h-641q-12 -76 -12 -127q0 -104 53 -164.5t148 -60.5q90 0 165.5 59.5t102.5 151.5h147q-57 -174 -175.5 -270.5t-272.5 -96.5t-238 100.5t-84 282.5zM250 621h489q4 74 4 96 q0 102 -50 162.5t-136 60.5q-106 0 -190 -88t-117 -231zM319 1198l240 248h158l153 -248h-135l-114 150l-168 -150h-134zM588 1487l174 248h203l-265 -248h-112z" />
<glyph unicode="&#x1ec0;" horiz-adv-x="1120" d="M63 0l256 1470h879l-31 -176h-714l-80 -450h661l-30 -176h-662l-84 -492h727l-31 -176h-891zM506 1597l239 248h158l154 -248h-135l-115 150l-168 -150h-133zM598 2134h203l88 -248h-113z" />
<glyph unicode="&#x1ec1;" d="M59 352q0 301 153 525.5t380 224.5q152 0 224.5 -106.5t72.5 -270.5q0 -90 -23 -248h-641q-12 -76 -12 -127q0 -104 53 -164.5t148 -60.5q90 0 165.5 59.5t102.5 151.5h147q-57 -174 -175.5 -270.5t-272.5 -96.5t-238 100.5t-84 282.5zM250 621h489q4 74 4 96 q0 102 -50 162.5t-136 60.5q-106 0 -190 -88t-117 -231zM319 1198l240 248h158l153 -248h-135l-114 150l-168 -150h-134zM412 1735h202l88 -248h-112z" />
<glyph unicode="&#x1ec2;" horiz-adv-x="1120" d="M63 0l256 1470h879l-31 -176h-714l-80 -450h661l-30 -176h-662l-84 -492h727l-31 -176h-891zM506 1597l239 248h158l154 -248h-135l-115 150l-168 -150h-133zM721 2060q31 170 244 170q92 0 141 -34.5t39 -92.5q-6 -35 -29.5 -59.5t-83.5 -56.5q-45 -25 -58 -35t-16 -23 l-8 -43h-114l10 49q6 35 29.5 55.5t85.5 51.5q68 37 69 61q4 20 -19.5 32.5t-66.5 12.5q-63 0 -86 -24q-14 -12 -24 -64h-113z" />
<glyph unicode="&#x1ec3;" d="M59 352q0 301 153 525.5t380 224.5q152 0 224.5 -106.5t72.5 -270.5q0 -90 -23 -248h-641q-12 -76 -12 -127q0 -104 53 -164.5t148 -60.5q90 0 165.5 59.5t102.5 151.5h147q-57 -174 -175.5 -270.5t-272.5 -96.5t-238 100.5t-84 282.5zM250 621h489q4 74 4 96 q0 102 -50 162.5t-136 60.5q-106 0 -190 -88t-117 -231zM319 1198l240 248h158l153 -248h-135l-114 150l-168 -150h-134zM535 1661q31 170 243 170q92 0 141.5 -35t38.5 -92q-6 -35 -29.5 -59.5t-82.5 -57.5q-45 -25 -58.5 -35t-15.5 -22l-8 -43h-115l10 49q6 35 30 55.5 t85 50.5q68 37 70 62q4 20 -19.5 32.5t-66.5 12.5q-66 0 -86 -25q-14 -12 -25 -63h-112z" />
<glyph unicode="&#x1ec4;" horiz-adv-x="1120" d="M63 0l256 1470h879l-31 -176h-714l-80 -450h661l-30 -176h-662l-84 -492h727l-31 -176h-891zM506 1597l239 248h158l154 -248h-135l-115 150l-168 -150h-133zM549 1907q35 115 86 167t127 52q49 0 108 -31l35 -18q49 -27 78 -27q61 0 96 94h84q-70 -223 -209 -223 q-33 0 -92 27l-41 18q-72 31 -96 31q-57 0 -96 -90h-80z" />
<glyph unicode="&#x1ec5;" d="M59 352q0 301 153 525.5t380 224.5q152 0 224.5 -106.5t72.5 -270.5q0 -90 -23 -248h-641q-12 -76 -12 -127q0 -104 53 -164.5t148 -60.5q90 0 165.5 59.5t102.5 151.5h147q-57 -174 -175.5 -270.5t-272.5 -96.5t-238 100.5t-84 282.5zM250 621h489q4 74 4 96 q0 102 -50 162.5t-136 60.5q-106 0 -190 -88t-117 -231zM319 1198l240 248h158l153 -248h-135l-114 150l-168 -150h-134zM362 1507q35 115 86.5 167t126.5 52q51 0 109 -30l35 -19q49 -27 78 -26q61 0 96 94h84q-70 -223 -209 -223q-33 0 -92 26l-41 19q-72 31 -96 30 q-57 0 -97 -90h-80z" />
<glyph unicode="&#x1ec6;" horiz-adv-x="1120" d="M63 0l256 1470h879l-31 -176h-714l-80 -450h661l-30 -176h-662l-84 -492h727l-31 -176h-891zM328 -369l32 197h177l-33 -197h-176zM504 1597l239 248h158l154 -248h-135l-115 150l-168 -150h-133z" />
<glyph unicode="&#x1ec7;" d="M59 352q0 301 153 525.5t380 224.5q152 0 224.5 -106.5t72.5 -270.5q0 -90 -23 -248h-641q-12 -76 -12 -127q0 -104 53 -164.5t148 -60.5q90 0 165.5 59.5t102.5 151.5h147q-57 -174 -175.5 -270.5t-272.5 -96.5t-238 100.5t-84 282.5zM233 -369l33 197h176l-32 -197 h-177zM250 621h489q4 74 4 96q0 102 -50 162.5t-136 60.5q-106 0 -190 -88t-117 -231zM350 1198l217 289h156l115 -289h-133l-78 191l-144 -191h-133z" />
<glyph unicode="&#x1ec8;" horiz-adv-x="466" d="M72 0l256 1470h161l-256 -1470h-161zM254 1747q31 188 246 188q94 0 141 -37.5t37 -103.5q-6 -39 -30.5 -65.5t-84.5 -61.5q-72 -45 -76 -65l-8 -50h-114l10 56q6 37 30.5 60.5t88.5 57.5q68 39 69 68q4 23 -18.5 37t-65.5 14q-63 0 -88 -28q-16 -16 -24 -70h-113z" />
<glyph unicode="&#x1ec9;" horiz-adv-x="466" d="M78 0l186 1071h148l-187 -1071h-147zM184 1348q31 188 246 188q94 0 141 -38t37 -103q-6 -39 -30.5 -65.5t-83.5 -61.5q-72 -45 -76 -66l-8 -49h-115l10 55q6 37 30.5 60.5t88.5 58.5q68 39 70 68q4 23 -18.5 37t-65.5 14q-63 0 -88 -29q-16 -16 -25 -69h-113z" />
<glyph unicode="&#x1eca;" horiz-adv-x="466" d="M0 -369l33 197h176l-33 -197h-176zM72 0l256 1470h161l-256 -1470h-161z" />
<glyph unicode="&#x1ecb;" horiz-adv-x="372" d="M-47 -369l33 197h176l-33 -197h-176zM31 0l186 1071h148l-187 -1071h-147zM233 1243l35 197h176l-34 -197h-177z" />
<glyph unicode="&#x1ecc;" horiz-adv-x="1306" d="M94 535q0 250 95.5 473t267.5 362t377 139q223 0 347 -150.5t124 -424.5q0 -246 -94.5 -468t-266.5 -363.5t-379 -141.5q-225 0 -348 151t-123 423zM264 561q0 -199 88 -311.5t242 -112.5q223 0 382 229.5t159 544.5q0 197 -88.5 309.5t-243.5 112.5q-223 0 -381 -226.5 t-158 -545.5zM418 -369l33 197h176l-33 -197h-176z" />
<glyph unicode="&#x1ecd;" d="M57 387q0 279 152.5 497t368.5 218q150 0 235.5 -109.5t85.5 -304.5q0 -279 -152.5 -498t-367.5 -219q-152 0 -237 110.5t-85 305.5zM211 406q0 -135 50 -207t147 -72q141 0 239 166t98 373q0 135 -51 207.5t-145 72.5q-141 0 -239.5 -164.5t-98.5 -375.5zM233 -369 l33 197h176l-32 -197h-177z" />
<glyph unicode="&#x1ece;" horiz-adv-x="1306" d="M94 535q0 250 95.5 473t267.5 362t377 139q223 0 347 -150.5t124 -424.5q0 -246 -94.5 -468t-266.5 -363.5t-379 -141.5q-225 0 -348 151t-123 423zM264 561q0 -199 88 -311.5t242 -112.5q223 0 382 229.5t159 544.5q0 197 -88.5 309.5t-243.5 112.5q-223 0 -381 -226.5 t-158 -545.5zM672 1747q31 188 246 188q94 0 141 -37.5t37 -103.5q-6 -39 -31 -65.5t-84 -61.5q-72 -45 -76 -65l-8 -50h-115l11 56q6 37 30.5 60.5t87.5 57.5q68 39 70 68q4 23 -18.5 37t-65.5 14q-63 0 -88 -28q-16 -16 -25 -70h-112z" />
<glyph unicode="&#x1ecf;" d="M57 387q0 279 152.5 497t368.5 218q150 0 235.5 -109.5t85.5 -304.5q0 -279 -152.5 -498t-367.5 -219q-152 0 -237 110.5t-85 305.5zM211 406q0 -135 50 -207t147 -72q141 0 239 166t98 373q0 135 -51 207.5t-145 72.5q-141 0 -239.5 -164.5t-98.5 -375.5zM418 1348 q31 188 246 188q94 0 141 -38t37 -103q-6 -39 -31 -65.5t-84 -61.5q-72 -45 -76 -66l-8 -49h-115l11 55q6 37 30.5 60.5t87.5 58.5q68 39 70 68q4 23 -18.5 37t-65.5 14q-63 0 -88 -29q-16 -16 -25 -69h-112z" />
<glyph unicode="&#x1ed0;" horiz-adv-x="1306" d="M94 535q0 250 95.5 473t267.5 362t377 139q223 0 347 -150.5t124 -424.5q0 -246 -94.5 -468t-266.5 -363.5t-379 -141.5q-225 0 -348 151t-123 423zM264 561q0 -199 88 -311.5t242 -112.5q223 0 382 229.5t159 544.5q0 197 -88.5 309.5t-243.5 112.5q-223 0 -381 -226.5 t-158 -545.5zM573 1597l240 248h158l153 -248h-135l-115 150l-167 -150h-134zM842 1886l174 248h203l-265 -248h-112z" />
<glyph unicode="&#x1ed1;" d="M57 387q0 279 152.5 497t368.5 218q150 0 235.5 -109.5t85.5 -304.5q0 -279 -152.5 -498t-367.5 -219q-152 0 -237 110.5t-85 305.5zM211 406q0 -135 50 -207t147 -72q141 0 239 166t98 373q0 135 -51 207.5t-145 72.5q-141 0 -239.5 -164.5t-98.5 -375.5zM319 1198 l240 248h158l153 -248h-135l-114 150l-168 -150h-134zM588 1487l174 248h203l-265 -248h-112z" />
<glyph unicode="&#x1ed2;" horiz-adv-x="1306" d="M94 535q0 250 95.5 473t267.5 362t377 139q223 0 347 -150.5t124 -424.5q0 -246 -94.5 -468t-266.5 -363.5t-379 -141.5q-225 0 -348 151t-123 423zM264 561q0 -199 88 -311.5t242 -112.5q223 0 382 229.5t159 544.5q0 197 -88.5 309.5t-243.5 112.5q-223 0 -381 -226.5 t-158 -545.5zM573 1597l240 248h158l153 -248h-135l-115 150l-167 -150h-134zM666 2134h202l88 -248h-112z" />
<glyph unicode="&#x1ed3;" d="M57 387q0 279 152.5 497t368.5 218q150 0 235.5 -109.5t85.5 -304.5q0 -279 -152.5 -498t-367.5 -219q-152 0 -237 110.5t-85 305.5zM211 406q0 -135 50 -207t147 -72q141 0 239 166t98 373q0 135 -51 207.5t-145 72.5q-141 0 -239.5 -164.5t-98.5 -375.5zM319 1198 l240 248h158l153 -248h-135l-114 150l-168 -150h-134zM412 1735h202l88 -248h-112z" />
<glyph unicode="&#x1ed4;" horiz-adv-x="1306" d="M94 535q0 250 95.5 473t267.5 362t377 139q223 0 347 -150.5t124 -424.5q0 -246 -94.5 -468t-266.5 -363.5t-379 -141.5q-225 0 -348 151t-123 423zM264 561q0 -199 88 -311.5t242 -112.5q223 0 382 229.5t159 544.5q0 197 -88.5 309.5t-243.5 112.5q-223 0 -381 -226.5 t-158 -545.5zM573 1597l240 248h158l153 -248h-135l-115 150l-167 -150h-134zM788 2060q31 170 244 170q92 0 141.5 -34.5t38.5 -92.5q-6 -35 -29.5 -59.5t-82.5 -56.5q-45 -25 -58.5 -35t-15.5 -23l-8 -43h-115l10 49q6 35 30 55.5t85 51.5q68 37 70 61q4 20 -19.5 32.5 t-66.5 12.5q-63 0 -86 -24q-14 -12 -25 -64h-113z" />
</font>
</defs>
</svg>
