<?xml version="1.0" standalone="no"?>
<!DOCTYPE svg PUBLIC "-//W3C//DTD SVG 1.1//EN" "http://www.w3.org/Graphics/SVG/1.1/DTD/svg11.dtd" >
<svg xmlns="http://www.w3.org/2000/svg">
<metadata>
This is a custom SVG webfont generated by Font Squirrel.
Copyright   : Copyright URW copyright 1999 by URW Design  Development Cyrillic glyphs added by Valek Filippov copyright 20012002 Vietnamese characters were added by Han The Thanh copyright 2006 2008 for TeX Gyre extensions by B Jackowski and JM Nowacki on behalf of TeX users groups This work is released under the GUST Font License   see httptugorgfontslicensesGUSTFONTLICENSEtxt for details
</metadata>
<defs>
<font id="webfontvHMNy6Ak" horiz-adv-x="1138" >
<font-face units-per-em="2048" ascent="1606" descent="-442" />
<missing-glyph horiz-adv-x="569" />
<glyph unicode="IJ" horiz-adv-x="1480" d="M139 0v1493h191v-1493h-191zM508 358v121h190v-86q0 -131 57.5 -200.5t166.5 -69.5q115 0 172 75.5t57 254.5v1040h190v-1110q0 -195 -113.5 -307.5t-308 -112.5t-303 106.5t-108.5 288.5z" />
<glyph unicode="ij" horiz-adv-x="903" d="M119 1235v213h213v-213h-213zM139 0v1073h170v-1073h-170zM414 -295l41 -2q76 -4 107.5 30t31.5 111v1229h170v-1296q0 -223 -293 -223q-27 0 -57 6v145zM573 1235v213h213v-213h-213z" />
<glyph unicode="fk" horiz-adv-x="1613" d="M37 934v139h143v182q0 115 66.5 179.5t185.5 64.5q47 0 96 -10v-141q-39 2 -59 2q-119 0 -119 -109v-168h178v-139h-178v-934h-170v934h-143zM709 0v1493h170v-875l454 455h219l-372 -371l438 -702h-211l-363 582l-165 -164v-418h-170z" />
<glyph unicode="&#xfb00;" horiz-adv-x="1093" d="M37 934v139h143v182q0 115 66.5 179.5t185.5 64.5q47 0 96 -10v-141q-39 2 -59 2q-119 0 -119 -109v-168h359v182q0 115 66.5 179.5t185.5 64.5q47 0 96 -10v-141q-39 2 -60 2q-119 0 -118 -109v-168h178v-139h-178v-934h-170v934h-359v-934h-170v934h-143z" />
<glyph unicode="&#xfb01;" horiz-adv-x="1024" d="M37 934v139h143v182q0 115 66.5 179.5t185.5 64.5q47 0 96 -10v-141q-39 2 -59 2q-119 0 -119 -109v-168h178v-139h-178v-934h-170v934h-143zM688 1235v213h213v-213h-213zM709 0v1073h170v-1073h-170z" />
<glyph unicode="&#xfb02;" horiz-adv-x="1024" d="M37 934v139h143v182q0 115 66.5 179.5t185.5 64.5q47 0 96 -10v-141q-39 2 -59 2q-119 0 -119 -109v-168h178v-139h-178v-934h-170v934h-143zM709 0v1493h170v-1493h-170z" />
<glyph unicode="&#xfb03;" horiz-adv-x="1552" d="M37 934v139h143v182q0 115 66.5 179.5t185.5 64.5q47 0 96 -10v-141q-39 2 -59 2q-119 0 -119 -109v-168h359v182q0 115 66.5 179.5t185.5 64.5q47 0 96 -10v-141q-39 2 -60 2q-119 0 -118 -109v-168h178v-139h-178v-934h-170v934h-359v-934h-170v934h-143zM1217 1235 v213h213v-213h-213zM1237 0v1073h170v-1073h-170z" />
<glyph unicode="&#xfb04;" horiz-adv-x="1552" d="M37 934v139h143v182q0 115 66.5 179.5t185.5 64.5q47 0 96 -10v-141q-39 2 -59 2q-119 0 -119 -109v-168h359v182q0 115 66.5 179.5t185.5 64.5q47 0 96 -10v-141q-39 2 -60 2q-119 0 -118 -109v-168h178v-139h-178v-934h-170v934h-359v-934h-170v934h-143zM1237 0v1493 h170v-1493h-170z" />
<glyph unicode=" "  horiz-adv-x="569" />
<glyph unicode="&#x09;" horiz-adv-x="569" />
<glyph unicode="&#xa0;" horiz-adv-x="569" />
<glyph unicode="!" horiz-adv-x="569" d="M199 0v213h172v-213h-172zM201 801v692h170v-692l-45 -457h-80z" />
<glyph unicode="&#x22;" horiz-adv-x="727" d="M106 1225v227h191v-227l-55 -275h-80zM434 1225v227h191v-227l-56 -275h-80z" />
<glyph unicode="#" d="M29 391v139h233l64 357h-222v139h248l74 401h156l-74 -401h256l72 401h157l-73 -401h190v-139h-217l-64 -357h215v-139h-239l-80 -432h-156l78 432h-254l-80 -432h-155l78 432h-207zM418 530h256l63 357h-254z" />
<glyph unicode="$" d="M66 391q0 4 1 16.5t1 18.5h161q12 -109 20.5 -145.5t31.5 -69.5q68 -96 217 -117v557q-190 57 -258 107q-145 104 -146 299q0 174 103.5 279.5t300.5 129.5v111h120v-111q186 -14 292 -121.5t106 -281.5h-162q-2 113 -67.5 184.5t-168.5 75.5v-510q207 -63 269 -98 q174 -98 174 -316q0 -197 -113.5 -314.5t-329.5 -131.5v-211h-120v211q-207 12 -319.5 125.5t-112.5 312.5zM260 1077q0 -184 238 -248v492q-115 -16 -176.5 -80t-61.5 -164zM618 94q133 14 204 91t71 190q0 100 -58.5 155.5t-216.5 102.5v-539z" />
<glyph unicode="%" horiz-adv-x="1820" d="M59 1052.5q0 143.5 102.5 247t246.5 103.5q147 0 248.5 -102.5t101.5 -251.5q0 -141 -102.5 -244t-246 -103t-247 103.5t-103.5 247zM201 1053q0 -84 61.5 -145.5t147.5 -61.5q84 0 145 60.5t61 144.5q0 88 -60 148.5t-148 60.5q-84 0 -145.5 -60.5t-61.5 -146.5z M438 -41l809 1493h135l-809 -1493h-135zM1061 311.5q0 143.5 102.5 245.5t245.5 102q147 0 248.5 -102t101.5 -250q0 -141 -103.5 -243.5t-244.5 -102.5q-145 0 -247.5 103.5t-102.5 247zM1202 311q0 -86 61.5 -146.5t147.5 -60.5q84 0 145.5 60.5t61.5 142.5 q0 88 -60.5 148.5t-148.5 60.5q-84 0 -145.5 -60.5t-61.5 -144.5z" />
<glyph unicode="&#x26;" horiz-adv-x="1366" d="M106 360q0 139 71 232.5t261 204.5q-96 121 -131 191.5t-35 141.5q0 135 102.5 228.5t248 93.5t239.5 -90t94 -232q0 -111 -61 -188.5t-221 -167.5l272 -334q63 115 64 244h164q0 -193 -119 -375l250 -309h-224l-127 160q-129 -125 -214 -166t-214 -41q-188 0 -304 111.5 t-116 295.5zM279 375q0 -109 78.5 -185.5t189.5 -76.5q150 0 309 168l-328 409q-139 -88 -194 -158.5t-55 -156.5zM440 1133q0 -55 26 -99.5t118 -150.5q121 76 166 129t45 123q0 76 -50.5 125t-128.5 49q-80 0 -128 -48t-48 -128z" />
<glyph unicode="'" horiz-adv-x="391" d="M98 1225v227h193v-227l-55 -275h-82z" />
<glyph unicode="(" horiz-adv-x="681" d="M150 530.5q0 241.5 90 501.5t243 461h113q-281 -453 -281 -963q0 -508 281 -964h-113q-154 201 -243.5 462t-89.5 502.5z" />
<glyph unicode=")" horiz-adv-x="681" d="M78 -434q281 453 280 962q0 508 -280 965h112q154 -201 244 -462t90 -502.5t-90 -501.5t-244 -461h-112z" />
<glyph unicode="*" horiz-adv-x="796" d="M82 1221l39 120l207 -77v229h118v-229l218 77l38 -120l-221 -62l144 -182l-105 -74l-127 191l-129 -191l-102 74l141 182z" />
<glyph unicode="+" horiz-adv-x="1196" d="M139 442v140h389v389h140v-389h389v-140h-389v-389h-140v389h-389z" />
<glyph unicode="," horiz-adv-x="569" d="M178 0v213h215v-246q0 -268 -215 -268v78q72 2 97.5 41t25.5 145v37h-123z" />
<glyph unicode="-" horiz-adv-x="681" d="M94 492v147h488v-147h-488z" />
<glyph unicode="." horiz-adv-x="569" d="M178 0v213h213v-213h-213z" />
<glyph unicode="/" horiz-adv-x="569" d="M-16 -41l485 1534h113l-486 -1534h-112z" />
<glyph unicode="0" d="M88 710.5q0 366.5 120 554t355 187.5q475 0 475 -754q0 -356 -121.5 -542.5t-353.5 -186.5q-233 0 -354 187.5t-121 554zM272 709q0 -590 287 -590q152 0 223.5 144.5t71.5 451.5q0 578 -291 578t-291 -584z" />
<glyph unicode="1" d="M209 1034v129q209 27 272.5 74t110.5 215h119v-1452h-181v1034h-321z" />
<glyph unicode="2" d="M70 0q12 240 96 370t311 259l189 106q197 113 196 287q0 117 -82 194.5t-205 77.5q-137 0 -209.5 -83t-82.5 -263h-181q14 504 480 504q205 0 335 -121t130 -305q0 -274 -308 -438l-204 -111q-133 -78 -190.5 -143.5t-72.5 -155.5h764v-178h-966z" />
<glyph unicode="3" d="M66 438h180q10 -158 83.5 -233.5t221.5 -75.5q141 0 221 77t80 214q0 123 -77 189.5t-224 66.5h-98v151q209 0 282.5 49.5t73.5 170.5q0 115 -68.5 181t-187.5 66q-139 0 -206.5 -75.5t-70.5 -235.5h-180q10 469 455 469q207 0 324.5 -106.5t117.5 -292.5 q0 -213 -202 -293q129 -45 187 -125t58 -213q0 -207 -134 -330t-357 -123q-225 0 -344 114.5t-135 354.5z" />
<glyph unicode="4" d="M57 348v191l660 913h133v-942h215v-162h-215v-348h-180v348h-613zM215 510h455v635z" />
<glyph unicode="5" d="M72 373h180q63 -244 297 -244q150 0 233.5 86t83.5 242q0 160 -85 250t-232 90q-84 0 -143.5 -30t-122.5 -105h-166l108 759h750v-178h-604l-58 -375q121 88 269 88q209 0 339 -130t130 -345q0 -229 -138.5 -370.5t-359.5 -141.5q-199 0 -318.5 96.5t-162.5 307.5z" />
<glyph unicode="6" d="M88 662q0 381 134 585.5t386 204.5q166 0 275.5 -100.5t136.5 -278.5h-180q-23 104 -86.5 161.5t-157.5 57.5q-156 0 -239 -142t-85 -409q119 162 334 162q197 0 321 -125t124 -327q0 -213 -133.5 -347.5t-342.5 -134.5q-487 1 -487 693zM283 446q0 -139 84 -228t211 -89 q125 0 206.5 86t81.5 221q0 145 -75.5 226t-206.5 81q-135 0 -218 -81t-83 -216z" />
<glyph unicode="7" d="M94 1243v178h971v-151q-469 -557 -590 -1270h-192q154 686 596 1243h-785z" />
<glyph unicode="8" d="M76 412q0 233 248 352q-111 70 -154 135.5t-43 165.5q0 170 122 278.5t314.5 108.5t314 -108.5t121.5 -278.5q0 -102 -43 -168t-155 -133q250 -119 250 -354q0 -197 -136.5 -319t-351.5 -122q-217 0 -352 122t-135 321zM260 408q0 -127 83 -203t216 -76q139 0 223 75 t84 204q0 127 -83 201.5t-220 74.5t-220 -74.5t-83 -201.5zM311 1063q0 -102 69 -164.5t183 -62.5q113 0 182.5 61t69.5 164q0 106 -68.5 168.5t-183 62.5t-183.5 -62.5t-69 -166.5z" />
<glyph unicode="9" d="M78 971q0 213 133 347t342 134q489 0 489 -692q0 -379 -134 -585t-388 -206q-166 0 -275.5 100.5t-135.5 278.5h180q23 -104 86 -161.5t157 -57.5q156 0 239 142.5t85 408.5q-135 -162 -331.5 -162t-321.5 125t-125 328zM262 985q0 -145 76 -226t207 -81q133 0 217 82 t84 215q0 139 -84 229t-211 90q-125 0 -207 -86t-82 -223z" />
<glyph unicode=":" horiz-adv-x="569" d="M178 0v213h213v-213h-213zM178 860v213h213v-213h-213z" />
<glyph unicode=";" horiz-adv-x="569" d="M178 0v213h215v-246q0 -268 -215 -268v78q72 2 97.5 41t25.5 145v37h-123zM180 860v213h213v-213h-213z" />
<glyph unicode="&#x3c;" horiz-adv-x="1196" d="M233 459v106l685 600v-184l-533 -469l533 -469v-184z" />
<glyph unicode="=" horiz-adv-x="1196" d="M139 256v139h918v-139h-918zM139 629v139h918v-139h-918z" />
<glyph unicode="&#x3e;" horiz-adv-x="1196" d="M233 43l533 469l-533 469v184l685 -600v-106l-685 -600v184z" />
<glyph unicode="?" d="M143 1038q0 236 114 358t335 122q199 0 317.5 -106.5t118.5 -287.5q0 -102 -45 -182t-160 -184q-104 -96 -132.5 -142.5t-28.5 -111.5v-96h-185v112q0 102 58 178q27 35 46 54.5t109 101.5q154 137 154 270q0 104 -72 169t-190 65q-137 0 -201 -77t-64 -243h-174zM477 0 v213h185v-213h-185z" />
<glyph unicode="@" horiz-adv-x="2078" d="M70 528q0 262 136 490.5t368.5 364t500.5 135.5q358 0 615.5 -225.5t257.5 -536.5q0 -154 -71 -300.5t-202 -242.5t-284 -96q-197 0 -226 157q-135 -147 -291 -147q-143 0 -238 107.5t-95 267.5q0 223 159.5 395t366.5 172q172 0 250 -178l45 135h170l-184 -573 q-27 -78 -25 -103q0 -37 30.5 -63.5t71.5 -26.5q131 0 237.5 145.5t106.5 325.5q0 256 -214 442.5t-506 186.5q-324 0 -564.5 -239.5t-240.5 -561.5q0 -293 221 -492.5t547 -199.5q162 0 395 65l57 -137q-229 -86 -463 -86q-254 0 -469 109.5t-338.5 298t-123.5 411.5z M725 500q0 -100 59.5 -171t143.5 -71q119 0 215 147.5t104 335.5v11q0 80 -55 133t-137 53q-129 0 -229.5 -133t-100.5 -305z" />
<glyph unicode="A" horiz-adv-x="1366" d="M35 0l532 1493h246l524 -1493h-213l-153 449h-576l-157 -449h-203zM442 608h476l-230 680z" />
<glyph unicode="B" horiz-adv-x="1366" d="M162 0v1493h606q207 0 324.5 -105.5t117.5 -273.5q0 -229 -206 -326q143 -55 207.5 -141t64.5 -221q0 -186 -121 -306t-319 -120h-674zM352 168h465q129 0 198.5 71.5t69.5 184.5q0 115 -68.5 186.5t-199.5 71.5h-465v-514zM352 850h369q299 0 299 237.5t-299 237.5h-369 v-475z" />
<glyph unicode="C" horiz-adv-x="1478" d="M98 729q0 344 178.5 572.5t503.5 228.5q485 0 576 -500h-195q-35 172 -132 252t-271 80q-215 0 -342 -171t-127 -460q0 -279 131 -439.5t354 -160.5q186 0 283.5 99.5t132.5 314.5h196q-68 -582 -614 -582q-319 0 -496.5 214t-177.5 552z" />
<glyph unicode="D" horiz-adv-x="1478" d="M182 0v1493h576q285 0 446.5 -198.5t161.5 -547t-163 -548t-445 -199.5h-576zM373 168h352q221 0 336 147.5t115 429.5q0 285 -115 432.5t-336 147.5h-352v-1157z" />
<glyph unicode="E" horiz-adv-x="1366" d="M184 0v1493h1035v-168h-844v-477h813v-168h-813v-512h880v-168h-1071z" />
<glyph unicode="F" horiz-adv-x="1251" d="M184 0v1493h1002v-168h-811v-477h712v-168h-712v-680h-191z" />
<glyph unicode="G" horiz-adv-x="1593" d="M90 731q0 346 191.5 572.5t525.5 226.5q256 0 420 -130t205 -360h-195q-31 145 -147.5 233.5t-284.5 88.5q-236 0 -380 -172t-144 -448.5t142 -443.5t392 -167q205 0 337 125t132 324v41h-455v167h623v-788h-121l-47 197q-209 -233 -510 -234q-303 0 -493.5 212 t-190.5 556z" />
<glyph unicode="H" horiz-adv-x="1478" d="M170 0v1493h190v-645h768v645h191v-1493h-191v680h-768v-680h-190z" />
<glyph unicode="I" horiz-adv-x="569" d="M205 0v1493h190v-1493h-190z" />
<glyph unicode="J" horiz-adv-x="1024" d="M39 358v121h190v-86q0 -131 57.5 -200.5t166.5 -69.5q115 0 172 75.5t57 254.5v1040h190v-1110q0 -195 -113.5 -307.5t-308 -112.5t-303 106.5t-108.5 288.5z" />
<glyph unicode="K" horiz-adv-x="1366" d="M162 0v1493h190v-756l744 756h245l-608 -608l615 -885h-226l-526 766l-244 -244v-522h-190z" />
<glyph unicode="L" d="M164 0v1493h190v-1325h738v-168h-928z" />
<glyph unicode="M" horiz-adv-x="1705" d="M154 0v1493h264l442 -1300l434 1300h265v-1493h-181v1251l-420 -1251h-200l-424 1251v-1251h-180z" />
<glyph unicode="N" horiz-adv-x="1478" d="M156 0v1493h206l781 -1221v1221h180v-1493h-215l-772 1210v-1210h-180z" />
<glyph unicode="O" horiz-adv-x="1593" d="M78 735q0 352 199.5 573.5t519.5 221.5q328 0 525.5 -222.5t197.5 -584.5q0 -334 -198 -547t-523 -213q-324 0 -522.5 212t-198.5 560zM268 735q0 -274 145.5 -439t385.5 -165q238 0 384 164t146 432q0 285 -145.5 460t-386.5 175q-236 0 -382.5 -175.5t-146.5 -451.5z " />
<glyph unicode="P" horiz-adv-x="1366" d="M186 0v1493h617q221 0 341 -113.5t120 -324.5q0 -186 -117 -304t-301 -118h-469v-633h-191zM377 801h397q137 0 214 69.5t77 192.5t-77 192.5t-214 69.5h-397v-524z" />
<glyph unicode="Q" horiz-adv-x="1593" d="M78 735q0 352 199.5 573.5t521 221.5t521.5 -221.5t200 -569.5q0 -342 -211 -573l192 -158l-96 -119l-215 179q-176 -104 -391 -105q-324 0 -522.5 212t-198.5 560zM268 735q0 -276 144.5 -440t384.5 -164q123 0 245 57l-151 127l94 115l182 -149q162 182 162 456 q0 276 -146.5 450.5t-384 174.5t-384 -174t-146.5 -453z" />
<glyph unicode="R" horiz-adv-x="1478" d="M190 0v1493h689q219 0 336.5 -103.5t117.5 -295.5q0 -127 -55 -211t-180 -146q121 -51 159.5 -128t42.5 -261q2 -150 19.5 -207t71.5 -94v-47h-232q-43 102 -43 232v12l2 133q2 137 -58.5 201.5t-187.5 64.5h-491v-643h-191zM381 811h461q152 0 222.5 61.5t70.5 194.5 q0 129 -69 193.5t-224 64.5h-461v-514z" />
<glyph unicode="S" horiz-adv-x="1366" d="M98 485h181q0 -164 107.5 -259t313.5 -95q381 0 381 260q0 170 -274 242l-371 98q-293 76 -293 348q0 205 143.5 328t387.5 123q258 0 402.5 -122t144.5 -341h-181q0 145 -97 224t-275 79q-150 0 -242 -74.5t-92 -189.5q0 -86 55 -136t191 -85l374 -101q152 -41 235 -139 t83 -235q0 -205 -152.5 -326t-431.5 -121q-272 0 -431 133t-159 389z" />
<glyph unicode="T" horiz-adv-x="1251" d="M43 1325v168h1171v-168h-489v-1325h-190v1325h-492z" />
<glyph unicode="U" horiz-adv-x="1478" d="M174 455v1038h191v-1038q0 -158 103 -241t277 -83q180 0 282.5 86t102.5 238v1038h191v-1038q0 -225 -156.5 -358.5t-419.5 -133.5q-266 0 -418.5 132.5t-152.5 359.5z" />
<glyph unicode="V" horiz-adv-x="1366" d="M61 1493h205l439 -1264l413 1264h203l-518 -1493h-205z" />
<glyph unicode="W" horiz-adv-x="1933" d="M45 1493h213l281 -1212l331 1212h205l340 -1212l275 1212h213l-379 -1493h-209l-344 1227l-334 -1227h-209z" />
<glyph unicode="X" horiz-adv-x="1366" d="M45 0l528 766l-495 727h231l383 -586l385 586h228l-504 -727l528 -766h-235l-408 623l-410 -623h-231z" />
<glyph unicode="Y" horiz-adv-x="1366" d="M27 1493h235l438 -727l426 727h228l-561 -907v-586h-191v586z" />
<glyph unicode="Z" horiz-adv-x="1251" d="M57 0v168l897 1157h-839v168h1075v-172l-893 -1153h897v-168h-1137z" />
<glyph unicode="[" horiz-adv-x="569" d="M131 -434v1927h381v-147h-211v-1633h211v-147h-381z" />
<glyph unicode="\" horiz-adv-x="569" d="M-16 1493h112l486 -1534h-113z" />
<glyph unicode="]" horiz-adv-x="569" d="M47 -287h211v1633h-211v147h381v-1927h-381v147z" />
<glyph unicode="^" horiz-adv-x="960" d="M90 674l313 778h150l317 -778h-141l-250 614l-248 -614h-141z" />
<glyph unicode="_" d="M-45 -260h1229v-102h-1229v102z" />
<glyph unicode="`" horiz-adv-x="681" d="M-27 1493h232l196 -303h-122z" />
<glyph unicode="a" d="M86 279q0 201 188 278q51 20 108.5 31.5t235.5 34.5q100 12 139.5 38.5t39.5 79.5v45q0 78 -62.5 119t-177.5 41q-119 0 -180.5 -46t-71.5 -144h-172q14 348 430 348q199 0 301.5 -75t102.5 -218v-598q0 -84 92 -84q18 0 37 4v-129q-72 -18 -117 -18q-63 0 -112.5 40 t-63.5 101q-147 -158 -365 -158q-164 0 -258 82.5t-94 227.5zM264 283q0 -164 211 -164q129 0 225.5 70.5t96.5 181.5v159q-68 -31 -275 -59q-139 -20 -198.5 -62t-59.5 -126z" />
<glyph unicode="b" d="M111 0v1493h170v-565q117 176 331 176q213 0 336 -147.5t123 -407.5q0 -262 -128 -421t-339 -159q-219 0 -340 185v-154h-153zM281 537q0 -182 81.5 -295t217.5 -113q139 0 226 113.5t87 296.5q0 180 -86 292.5t-227 112.5h-14q-126 0 -204 -106q-81 -113 -81 -301z" />
<glyph unicode="c" horiz-adv-x="1024" d="M63 526q0 266 130.5 422t347.5 156q184 0 296.5 -99.5t127.5 -291.5h-172q-16 113 -82 173t-172 60q-141 0 -219 -109.5t-78 -310.5q0 -190 79.5 -294.5t221.5 -104.5q111 0 176 57.5t86 184.5h172q-16 -186 -132 -293t-306 -107q-219 0 -347.5 149.5t-128.5 407.5z" />
<glyph unicode="d" d="M53 547q0 256 126 406.5t335 150.5q221 0 330 -166v555h170v-1493h-152v158q-70 -100 -150.5 -144.5t-191.5 -44.5q-217 0 -342 154t-125 424zM231 536.5q0 -186.5 86 -297t228 -110.5q135 0 217 109.5t82 293.5q0 186 -82 299t-219 113q-141 0 -226.5 -110.5t-85.5 -297 z" />
<glyph unicode="e" d="M82 530.5q0 264.5 133 419t358 154.5q152 0 267.5 -76t167.5 -207q43 -113 43 -334h-791q2 -178 89 -269t226 -91q215 0 281 199h172q-33 -164 -154.5 -260.5t-304.5 -96.5q-227 0 -357 148.5t-130 413zM264 627h602l2 12q0 127 -86 217t-211 90q-129 0 -213 -88 t-94 -231z" />
<glyph unicode="f" horiz-adv-x="569" d="M37 934v139h143v182q0 115 66.5 179.5t185.5 64.5q47 0 96 -10v-141q-39 2 -59 2q-119 0 -119 -109v-168h178v-139h-178v-934h-170v934h-143z" />
<glyph unicode="g" d="M59 526q0 260 126 419t331 159q201 0 328 -186v155h157v-897q0 -348 -110.5 -485t-368.5 -137q-188 0 -300.5 86t-127.5 237h174q29 -180 260 -180q156 0 236 93t80 300v72q-86 -102 -164 -147.5t-178 -45.5q-193 0 -318 153.5t-125 403.5zM238 537q0 -195 78.5 -302.5 t220.5 -107.5q135 0 212.5 106.5t77.5 296.5q0 195 -77.5 305.5t-215 110.5t-217 -108t-79.5 -301z" />
<glyph unicode="h" d="M143 0v1493h170v-567q76 98 153 138t191 40q156 0 247 -79t91 -214v-811h-170v743q0 102 -62.5 156.5t-158.5 54.5q-131 0 -211 -99t-80 -263v-592h-170z" />
<glyph unicode="i" horiz-adv-x="454" d="M123 1235v213h213v-213h-213zM143 0v1073h170v-1073h-170z" />
<glyph unicode="j" horiz-adv-x="454" d="M-37 -295l41 -2h16q63 0 92 30q32 34 31 111v1229h170v-1296q0 -223 -293 -223q-27 0 -57 6v145zM123 1235v213h213v-213h-213z" />
<glyph unicode="k" horiz-adv-x="1024" d="M119 0v1493h170v-875l454 455h220l-373 -371l438 -702h-211l-362 582l-166 -164v-418h-170z" />
<glyph unicode="l" horiz-adv-x="454" d="M139 0v1493h170v-1493h-170z" />
<glyph unicode="m" horiz-adv-x="1705" d="M145 0v1073h156v-151q70 96 146.5 139t183.5 43q199 0 289 -164q76 90 149.5 127t179.5 37q150 0 228.5 -77t78.5 -222v-805h-170v739q0 102 -51 158.5t-145 56.5q-104 0 -179 -81.5t-75 -198.5v-674h-170v739q0 102 -52 158.5t-147 56.5q-104 0 -178 -81.5t-74 -198.5 v-674h-170z" />
<glyph unicode="n" d="M143 0v1073h158v-180q72 113 155 162t201 49q156 0 248 -80t92 -213v-811h-170v743q0 96 -59 153.5t-162 57.5q-131 0 -212 -99t-81 -263v-592h-170z" />
<glyph unicode="o" d="M74 537q0 268 128 417.5t355 149.5q233 0 360 -149.5t127 -426.5q0 -264 -129 -411.5t-356 -147.5q-229 0 -357 149t-128 419zM252 537q0 -195 82 -302.5t225 -107.5q141 0 224 107.5t83 295.5q0 199 -80.5 307.5t-226.5 108.5q-143 0 -225 -108t-82 -301z" />
<glyph unicode="p" d="M113 -446v1519h155v-162q121 193 342 193q215 0 338 -153.5t123 -424.5q0 -256 -125 -406.5t-334 -150.5q-199 0 -329 160v-575h-170zM283 528q0 -186 80.5 -292.5t218.5 -106.5q139 0 225 109.5t86 291.5q0 190 -85 302t-226 112q-135 0 -217 -114t-82 -302z" />
<glyph unicode="q" d="M53 524q0 266 127 423t340 157q219 0 342 -174v143h152v-1519h-170v585q-117 -170 -332 -170q-213 0 -336 147.5t-123 407.5zM231 536.5q0 -186.5 86 -297t228 -110.5q135 0 217 108.5t82 292.5q0 188 -81 301t-218 113q-141 0 -227.5 -110.5t-86.5 -297z" />
<glyph unicode="r" horiz-adv-x="681" d="M143 0v1073h156v-194q74 121 142.5 173t150.5 52q23 0 65 -6v-174q-193 -2 -268.5 -90.5t-75.5 -276.5v-557h-170z" />
<glyph unicode="s" horiz-adv-x="1024" d="M70 328h180q16 -117 77.5 -159t184.5 -42q113 0 181.5 43t68.5 117q0 57 -38 88t-128 53l-160 39q-190 45 -265 113.5t-75 195.5q0 150 113 239t299 89t286.5 -86t102.5 -244h-180q-6 172 -215 172q-104 0 -166 -44t-62 -118q0 -57 47.5 -93t151.5 -60l164 -39 q162 -39 232.5 -105.5t70.5 -185.5q0 -154 -120 -243t-322 -89q-211 0 -316.5 87.5t-111.5 271.5z" />
<glyph unicode="t" horiz-adv-x="569" d="M29 934v139h145v295h170v-295h176v-139h-176v-703q0 -57 19.5 -76.5t74.5 -19.5q51 0 82 8v-143q-80 -14 -139 -14q-100 0 -153.5 44t-53.5 126v778h-145z" />
<glyph unicode="u" d="M133 262v811h170v-743q0 -96 59.5 -153.5t161.5 -57.5q133 0 213 99t80 263v592h170v-1073h-153v166q-76 -106 -158 -151.5t-201 -45.5q-156 0 -249 80t-93 213z" />
<glyph unicode="v" horiz-adv-x="1024" d="M20 1073h193l287 -870l303 870h192l-411 -1073h-187z" />
<glyph unicode="w" horiz-adv-x="1478" d="M12 1073h189l219 -835l205 835h209l210 -835l213 835h193l-315 -1073h-195l-217 842l-207 -842h-192z" />
<glyph unicode="x" horiz-adv-x="1024" d="M35 0l379 547l-359 526h195l258 -389l258 389h192l-360 -518l371 -555h-199l-268 412l-273 -412h-194z" />
<glyph unicode="y" horiz-adv-x="1024" d="M41 1073h182l275 -835l297 835h184l-477 -1298q-82 -221 -277 -221q-63 0 -114 26v154q55 -12 90 -13q55 0 84.5 24t52.5 81l65 170z" />
<glyph unicode="z" horiz-adv-x="1024" d="M63 0v154l642 770h-599v149h801v-151l-637 -772h666v-150h-873z" />
<glyph unicode="{" horiz-adv-x="684" d="M88 459v141q90 18 125 78.5t35 204.5v342q0 127 58.5 197.5t164.5 70.5h94v-133h-30q-76 0 -102.5 -28.5t-26.5 -108.5v-371q0 -141 -37 -213t-131 -109q168 -78 168 -323v-371q0 -80 26.5 -108.5t102.5 -28.5h30v-133h-94q-106 0 -164.5 70.5t-58.5 197.5v342 q0 141 -35 203t-125 80z" />
<glyph unicode="|" horiz-adv-x="532" d="M197 -434v1927h139v-1927h-139z" />
<glyph unicode="}" horiz-adv-x="684" d="M59 -301h33q76 0 103.5 28.5t27.5 108.5v371q0 246 168 321q-168 78 -168 324v371q0 80 -27.5 108.5t-103.5 28.5h-33v133h97q106 0 165.5 -70.5t59.5 -197.5v-342q0 -141 34 -203t122 -80v-141q-88 -18 -122 -80t-34 -203v-342q0 -127 -59.5 -197.5t-165.5 -70.5h-97 v133z" />
<glyph unicode="~" horiz-adv-x="1196" d="M154 600q8 143 64 220t157 77q55 0 110 -33l240 -141q57 -35 102 -35q57 0 81 36t24 118h108v-33q0 -119 -58 -189.5t-157 -70.5q-82 0 -166 53l-200 129q-47 29 -88 29q-94 0 -109 -160h-108z" />
<glyph unicode="&#xa1;" horiz-adv-x="569" d="M199 272l45 457h80l45 -457v-692h-170v692zM199 860v213h172v-213h-172z" />
<glyph unicode="&#xa2;" d="M106 518q0 250 120 405.5t327 178.5v184h86v-182q180 -12 281.5 -113.5t111.5 -277.5h-172q-10 102 -68.5 163.5t-152.5 69.5v-837q197 23 233 260h172q-10 -184 -118.5 -296t-286.5 -120v-199h-86v201q-207 18 -327 168.5t-120 394.5zM285 518q0 -174 70.5 -279.5 t197.5 -125.5v831q-268 -49 -268 -426z" />
<glyph unicode="&#xa3;" d="M53 657v113h166q-70 117 -89 167t-19 118q0 186 140 312t347 126q211 0 328.5 -119t122.5 -356h-181q-8 315 -278 315q-131 0 -210 -71.5t-79 -190.5q0 -61 23.5 -112.5t97.5 -188.5h328v-113h-279q31 -88 31 -145q0 -80 -52.5 -164t-189.5 -223q121 80 250 80 q43 0 177 -32t153 -32q82 0 170 62l86 -135q-117 -115 -269 -115q-94 0 -299 72q-68 23 -135 22q-109 0 -223 -76l-98 135q141 121 198.5 209t57.5 183q0 78 -49 159h-226z" />
<glyph unicode="&#xa4;" d="M57 1137l99 98l116 -115q121 104 297 104.5t297 -104.5l117 115l98 -98l-112 -111q102 -117 102 -307q0 -182 -102 -309l110 -115l-92 -92l-113 119q-121 -113 -305 -113t-305 113l-112 -119l-93 92l111 115q-102 127 -102 309q0 190 102 307zM217 719 q0 -150 103.5 -258.5t249 -108.5t249 108.5t103.5 258.5q0 145 -103.5 253.5t-249 108.5t-249 -108.5t-103.5 -253.5z" />
<glyph unicode="&#xa5;" d="M23 1452h174l378 -659l367 659h174l-411 -727h309v-104h-348v-158h348v-105h-348v-358h-181v358h-352v105h352v158h-352v104h309z" />
<glyph unicode="&#xa6;" horiz-adv-x="532" d="M197 336h139v-770h-139v770zM197 723v770h139v-770h-139z" />
<glyph unicode="&#xa7;" d="M88 639q0 102 51 175t164 132q-90 104 -90 209q0 141 109.5 239.5t269.5 98.5t259 -100.5t99 -262.5v-57h-172v53q0 96 -54 152.5t-144 56.5q-78 0 -130.5 -49t-52.5 -125q0 -45 27 -81t90 -76l299 -193q125 -80 174 -155.5t49 -186.5q0 -236 -223 -319q61 -70 85 -123.5 t24 -118.5q0 -147 -110 -245.5t-273 -98.5q-182 0 -281.5 106.5t-99.5 300.5h174q0 -129 57 -189.5t152 -60.5q88 0 142 49.5t54 127.5q0 102 -112 180l-349 239q-100 70 -144 146t-44 176zM250 671.5q0 -61.5 26.5 -102.5t108.5 -100l340 -252q150 80 149 209 q0 125 -149 229l-330 224q-80 -53 -112.5 -99.5t-32.5 -108z" />
<glyph unicode="&#xa8;" horiz-adv-x="681" d="M82 1237v209h186v-209h-186zM414 1237v209h186v-209h-186z" />
<glyph unicode="&#xa9;" horiz-adv-x="1509" d="M43 684q0 295 209 505t504 210t504.5 -210t209.5 -505t-209.5 -504t-504.5 -209t-504 209t-209 504zM131 684q0 -260 182.5 -442.5t442.5 -182.5t443 182.5t183 442.5t-183 443.5t-443 183.5t-442.5 -183.5t-182.5 -443.5zM369 674q0 188 106.5 313t302.5 125 q299 0 348 -285h-131q-35 178 -231 179q-123 0 -195.5 -89.5t-72.5 -240.5q0 -145 74.5 -229.5t203.5 -84.5q109 0 164 53.5t76 168.5h131q-39 -328 -371 -328q-193 0 -299 117t-106 301z" />
<glyph unicode="&#xaa;" horiz-adv-x="757" d="M76 1014q0 104 70.5 152t250.5 63q57 4 79 18.5t22 48.5v27q0 90 -138 90q-70 0 -99.5 -24.5t-39.5 -90.5h-121q6 221 265 222q250 0 249 -193v-366q0 -47 48 -48q8 0 20 7v-91q-33 -12 -66 -12q-96 0 -112 88q-100 -88 -215 -88q-98 0 -155.5 53.5t-57.5 143.5zM88 621 v104h567v-104h-567zM195 1020q0 -96 116 -96q76 0 131.5 41t55.5 94v104q-37 -16 -156 -33q-80 -12 -113.5 -36.5t-33.5 -73.5z" />
<glyph unicode="&#xab;" d="M201 465v182l311 250v-170l-217 -170l217 -170v-170zM621 465v182l311 250v-170l-217 -170l217 -170v-170z" />
<glyph unicode="&#xac;" horiz-adv-x="1196" d="M139 629v139h918v-442h-139v303h-779z" />
<glyph unicode="&#xad;" horiz-adv-x="681" d="M94 492v147h488v-147h-488z" />
<glyph unicode="&#xae;" horiz-adv-x="1509" d="M43 684q0 295 209 505t504 210t504.5 -210t209.5 -505t-209.5 -504t-504.5 -209t-504 209t-209 504zM131 684q0 -260 182.5 -442.5t442.5 -182.5t443 182.5t183 442.5t-183 443.5t-443 183.5t-442.5 -183.5t-182.5 -443.5zM393 276v816h414q133 0 203.5 -57.5 t70.5 -164.5q0 -131 -127 -190q63 -27 85 -69t24 -140q2 -80 11 -108.5t42 -49.5v-37h-149q-29 61 -29 140l2 69q0 135 -137 136h-281v-345h-129zM522 727h262q86 0 126 30.5t40 98.5q0 129 -166 129h-262v-258z" />
<glyph unicode="&#xaf;" horiz-adv-x="681" d="M57 1270v143h561v-143h-561z" />
<glyph unicode="&#xb0;" horiz-adv-x="819" d="M111 1141q0 127 86 213t213 86t213 -86t86 -213t-86 -213t-213 -86t-213 86t-86 213zM209 1141q0 -82 60.5 -146.5t140 -64.5t140 64.5t60.5 146.5t-60.5 146.5t-140 64.5t-140 -64.5t-60.5 -146.5z" />
<glyph unicode="&#xb1;" horiz-adv-x="1196" d="M139 0v139h918v-139h-918zM139 582v139h389v389h140v-389h389v-139h-389v-318h-140v318h-389z" />
<glyph unicode="&#xb2;" horiz-adv-x="681" d="M59 686q6 131 52.5 199.5t175.5 136.5l106 57q104 55 105 142q0 57 -43 96t-109 39q-74 0 -112.5 -41t-45.5 -137h-110q6 274 270 274q117 0 190.5 -63.5t73.5 -163.5q0 -143 -174 -232l-112 -59q-59 -29 -87 -60.5t-44 -82.5h411v-105h-547z" />
<glyph unicode="&#xb3;" horiz-adv-x="681" d="M70 918h112q2 -84 42 -123t122 -39q76 0 119 39t43 108q0 78 -51 103.5t-172 25.5v92q115 0 156.5 22.5t41.5 86.5q0 57 -36.5 90t-100.5 33q-76 0 -111.5 -37t-35.5 -123h-113q6 256 260 256q115 0 182.5 -58.5t67.5 -158.5q0 -106 -102 -152q127 -45 127 -180 q0 -111 -76 -176t-203 -65q-131 0 -201.5 66.5t-70.5 189.5z" />
<glyph unicode="&#xb4;" horiz-adv-x="681" d="M281 1190l196 303h232l-306 -303h-122z" />
<glyph unicode="&#xb5;" d="M133 -451v1524h170v-760q0 -96 59.5 -153.5t159.5 -57.5q133 0 213 99.5t80 263.5v608h170v-893q0 -84 92 -84q16 0 37 4v-129q-68 -18 -117 -18q-170 0 -176 170q-121 -170 -334 -170q-111 0 -184 53v-457h-170z" />
<glyph unicode="&#xb6;" horiz-adv-x="1099" d="M98 1001q0 207 133.5 349.5t325.5 142.5h512v-131h-117v-1724h-131v1724h-168v-1724h-131v892q-199 10 -311.5 144t-112.5 327z" />
<glyph unicode="&#xb7;" horiz-adv-x="569" d="M178 512q0 45 31 75.5t76 30.5t75.5 -30.5t30.5 -75.5t-30.5 -75.5t-75.5 -30.5t-76 30.5t-31 75.5z" />
<glyph unicode="&#xb8;" horiz-adv-x="681" d="M80 -401l43 82l18 -9q119 -59 183 -59q47 0 78.5 26.5t31.5 65.5q0 37 -25.5 63.5t-68.5 26.5q-29 0 -64 -8l-34 25l86 198h98l-47 -121h47q74 0 118 -50t44 -120q0 -88 -67.5 -139t-184.5 -51q-96 0 -256 70z" />
<glyph unicode="&#xb9;" horiz-adv-x="681" d="M143 1219v84l27 2q94 6 129 33.5t57 113.5h76v-766h-110v533h-179z" />
<glyph unicode="&#xba;" horiz-adv-x="747" d="M82 1169q0 166 77 258.5t214 92.5q139 0 215 -92.5t76 -264.5q0 -162 -77 -254t-214 -92t-214 92t-77 260zM104 621v104h539v-104h-539zM201 1169q0 -115 46 -180t126 -65t126 64.5t46 176.5q0 117 -45 182.5t-127 65.5q-80 0 -126 -65.5t-46 -178.5z" />
<glyph unicode="&#xbb;" d="M201 217v170l221 170l-221 170v170l315 -248v-182zM608 217v170l221 170l-221 170v170l316 -248v-182z" />
<glyph unicode="&#xbc;" horiz-adv-x="1708" d="M166 1219v84l27 2q94 6 128.5 33.5t57.5 113.5h76v-766h-111v533h-178zM350 -51l926 1503h119l-926 -1503h-119zM999 180v107l369 479h82v-490h121v-96h-121v-180h-111v180h-340zM1106 276h233v306z" />
<glyph unicode="&#xbd;" horiz-adv-x="1708" d="M166 1219v84l27 2q94 6 128.5 33.5t57.5 113.5h76v-766h-111v533h-178zM260 -51l926 1503h119l-926 -1503h-119zM1010 0q6 131 52 199.5t175 138.5l104 55q106 55 107 142q0 57 -44 96t-110 39q-74 0 -111.5 -41t-43.5 -137h-113q8 274 272 274q117 0 191 -63.5 t74 -163.5q0 -143 -174 -232l-113 -59q-59 -29 -87 -60.5t-44 -83.5h411v-104h-546z" />
<glyph unicode="&#xbe;" horiz-adv-x="1708" d="M131 918h113q2 -84 42 -123t122 -39q76 0 118.5 39t42.5 108q0 78 -51 103.5t-172 25.5v92q115 0 157 22.5t42 86.5q0 57 -37 90t-100 33q-76 0 -112 -37t-36 -123h-113q6 256 261 256q115 0 182 -58.5t67 -158.5q0 -106 -102 -152q127 -45 127 -180q0 -111 -76 -176 t-203 -65q-131 0 -201.5 66.5t-70.5 189.5zM391 -51l926 1503h119l-926 -1503h-119zM979 180v107l369 479h82v-490h120v-96h-120v-180h-111v180h-340zM1085 276h234v306z" />
<glyph unicode="&#xbf;" d="M111 -51q0 102 45 182t159 184q104 96 133 142.5t29 111.5v97h185v-113q0 -102 -58 -178q-27 -35 -46 -54.5t-109 -101.5q-154 -137 -154 -270q0 -104 71.5 -169t190.5 -65q137 0 200.5 77t63.5 243h174q0 -236 -113.5 -357.5t-334.5 -121.5q-199 0 -317.5 106.5 t-118.5 286.5zM477 860v213h185v-213h-185z" />
<glyph unicode="&#xc0;" horiz-adv-x="1366" d="M35 0l532 1493h246l524 -1493h-213l-153 449h-576l-157 -449h-203zM250 1876h278l236 -272h-148zM442 608h476l-230 680z" />
<glyph unicode="&#xc1;" horiz-adv-x="1366" d="M35 0l532 1493h246l524 -1493h-213l-153 449h-576l-157 -449h-203zM442 608h476l-230 680zM616 1604l236 272h278l-366 -272h-148z" />
<glyph unicode="&#xc2;" horiz-adv-x="1366" d="M35 0l532 1493h246l524 -1493h-213l-153 449h-576l-157 -449h-203zM338 1604l235 276h234l235 -276h-153l-199 176l-194 -176h-158zM442 608h476l-230 680z" />
<glyph unicode="&#xc3;" horiz-adv-x="1366" d="M35 0l532 1493h246l524 -1493h-213l-153 449h-576l-157 -449h-203zM360 1636q16 100 62.5 155.5t114.5 55.5q47 0 143 -39q84 -37 129 -36q51 0 76 75h119q-31 -213 -183 -213q-43 0 -174 52q-72 27 -100 26q-47 0 -68 -76h-119zM442 608h476l-230 680z" />
<glyph unicode="&#xc4;" horiz-adv-x="1366" d="M35 0l532 1493h246l524 -1493h-213l-153 449h-576l-157 -449h-203zM432 1636v209h186v-209h-186zM442 608h476l-230 680zM764 1636v209h186v-209h-186z" />
<glyph unicode="&#xc5;" horiz-adv-x="1366" d="M35 0l532 1493h246l524 -1493h-213l-153 449h-576l-157 -449h-203zM442 608h476l-230 680zM494 1774q0 78 58 136t140 58t139.5 -58.5t57.5 -140.5q0 -80 -58.5 -137t-138.5 -57q-82 0 -140 58.5t-58 140.5zM592 1774q0 -41 29.5 -71t70.5 -30q39 0 69 29t30 67 q0 43 -29 72t-70 29t-70.5 -28.5t-29.5 -67.5z" />
<glyph unicode="&#xc6;" horiz-adv-x="2048" d="M23 0l612 1493h1274v-168h-760v-477h721v-168h-721v-512h797v-168h-988v438h-550l-175 -438h-210zM471 606h487v719h-204z" />
<glyph unicode="&#xc7;" horiz-adv-x="1478" d="M98 729q0 344 178.5 572.5t503.5 228.5q485 0 576 -500h-195q-35 172 -132 252t-271 80q-215 0 -342 -171t-127 -460q0 -279 131 -439.5t354 -160.5q186 0 283.5 99.5t132.5 314.5h196q-63 -557 -569 -580l-29 -76h48q74 0 117.5 -50t43.5 -120q0 -88 -67.5 -139 t-184.5 -51q-96 0 -256 70l43 82l19 -9q119 -59 182 -59q47 0 79 26.5t32 65.5q0 37 -25.5 63.5t-68.5 26.5q-29 0 -64 -8l-35 25l66 153q-295 18 -457 229t-162 535z" />
<glyph unicode="&#xc8;" horiz-adv-x="1366" d="M184 0v1493h1035v-168h-844v-477h813v-168h-813v-512h880v-168h-1071zM262 1876h279l235 -272h-147z" />
<glyph unicode="&#xc9;" horiz-adv-x="1366" d="M184 0v1493h1035v-168h-844v-477h813v-168h-813v-512h880v-168h-1071zM629 1604l235 272h279l-367 -272h-147z" />
<glyph unicode="&#xca;" horiz-adv-x="1366" d="M184 0v1493h1035v-168h-844v-477h813v-168h-813v-512h880v-168h-1071zM350 1604l236 276h233l236 -276h-154l-199 176l-194 -176h-158z" />
<glyph unicode="&#xcb;" horiz-adv-x="1366" d="M184 0v1493h1035v-168h-844v-477h813v-168h-813v-512h880v-168h-1071zM444 1636v209h187v-209h-187zM776 1636v209h187v-209h-187z" />
<glyph unicode="&#xcc;" horiz-adv-x="569" d="M-119 1876h279l235 -272h-147zM205 0v1493h190v-1493h-190z" />
<glyph unicode="&#xcd;" horiz-adv-x="569" d="M205 0v1493h190v-1493h-190zM207 1604l235 272h279l-367 -272h-147z" />
<glyph unicode="&#xce;" horiz-adv-x="569" d="M-51 1604l235 276h234l235 -276h-153l-199 176l-195 -176h-157zM205 0v1493h190v-1493h-190z" />
<glyph unicode="&#xcf;" horiz-adv-x="569" d="M43 1636v209h186v-209h-186zM205 0v1493h190v-1493h-190zM375 1636v209h186v-209h-186z" />
<glyph unicode="&#xd0;" horiz-adv-x="1478" d="M41 694v137h141v662h578q283 0 444.5 -198.5t161.5 -547t-162 -548t-444 -199.5h-578v694h-141zM373 168h354q219 0 334 147.5t115 432t-115 431t-334 146.5h-354v-494h350v-137h-350v-526z" />
<glyph unicode="&#xd1;" horiz-adv-x="1478" d="M156 0v1493h206l781 -1221v1221h180v-1493h-215l-772 1210v-1210h-180zM410 1636q16 100 62 155.5t114 55.5q47 0 143 -39q84 -37 129 -36q51 0 76 75h119q-31 -213 -183 -213q-43 0 -174 52q-72 27 -100 26q-47 0 -68 -76h-118z" />
<glyph unicode="&#xd2;" horiz-adv-x="1593" d="M78 735q0 352 199.5 573.5t519.5 221.5q328 0 525.5 -222.5t197.5 -584.5q0 -334 -198 -547t-523 -213q-324 0 -522.5 212t-198.5 560zM268 735q0 -274 145.5 -439t385.5 -165q238 0 384 164t146 432q0 285 -145.5 460t-386.5 175q-236 0 -382.5 -175.5t-146.5 -451.5z M356 1876h279l235 -272h-147z" />
<glyph unicode="&#xd3;" horiz-adv-x="1593" d="M78 735q0 352 199.5 573.5t519.5 221.5q328 0 525.5 -222.5t197.5 -584.5q0 -334 -198 -547t-523 -213q-324 0 -522.5 212t-198.5 560zM268 735q0 -274 145.5 -439t385.5 -165q238 0 384 164t146 432q0 285 -145.5 460t-386.5 175q-236 0 -382.5 -175.5t-146.5 -451.5z M723 1604l235 272h279l-367 -272h-147z" />
<glyph unicode="&#xd4;" horiz-adv-x="1593" d="M78 735q0 352 199.5 573.5t519.5 221.5q328 0 525.5 -222.5t197.5 -584.5q0 -334 -198 -547t-523 -213q-324 0 -522.5 212t-198.5 560zM268 735q0 -274 145.5 -439t385.5 -165q238 0 384 164t146 432q0 285 -145.5 460t-386.5 175q-236 0 -382.5 -175.5t-146.5 -451.5z M444 1604l236 276h233l236 -276h-154l-198 176l-195 -176h-158z" />
<glyph unicode="&#xd5;" horiz-adv-x="1593" d="M78 735q0 352 199.5 573.5t519.5 221.5q328 0 525.5 -222.5t197.5 -584.5q0 -334 -198 -547t-523 -213q-324 0 -522.5 212t-198.5 560zM268 735q0 -274 145.5 -439t385.5 -165q238 0 384 164t146 432q0 285 -145.5 460t-386.5 175q-236 0 -382.5 -175.5t-146.5 -451.5z M467 1636q16 100 62 155.5t114 55.5q47 0 143 -39q84 -37 129 -36q51 0 76 75h119q-31 -213 -182 -213q-43 0 -174 52q-72 27 -101 26q-47 0 -67 -76h-119z" />
<glyph unicode="&#xd6;" horiz-adv-x="1593" d="M78 735q0 352 199.5 573.5t519.5 221.5q328 0 525.5 -222.5t197.5 -584.5q0 -334 -198 -547t-523 -213q-324 0 -522.5 212t-198.5 560zM268 735q0 -274 145.5 -439t385.5 -165q238 0 384 164t146 432q0 285 -145.5 460t-386.5 175q-236 0 -382.5 -175.5t-146.5 -451.5z M539 1636v209h186v-209h-186zM870 1636v209h187v-209h-187z" />
<glyph unicode="&#xd7;" horiz-adv-x="1196" d="M225 238l275 274l-275 274l99 99l274 -275l274 275l99 -99l-275 -274l275 -274l-99 -99l-274 275l-274 -275z" />
<glyph unicode="&#xd8;" horiz-adv-x="1593" d="M78 43l162 176q-162 203 -162 516q0 352 199.5 573.5t519.5 221.5q291 0 481 -178l158 174l84 -76l-166 -180q166 -217 166 -547q0 -334 -198 -547t-523 -213q-293 0 -484 172l-153 -168zM268 735q0 -225 99 -377l788 861q-139 143 -358 143q-236 0 -382.5 -175.5 t-146.5 -451.5zM438 270q139 -139 361 -139q238 0 384 164t146 432q0 240 -104 401z" />
<glyph unicode="&#xd9;" horiz-adv-x="1478" d="M174 455v1038h191v-1038q0 -158 103 -241t277 -83q180 0 282.5 86t102.5 238v1038h191v-1038q0 -225 -156.5 -358.5t-419.5 -133.5q-266 0 -418.5 132.5t-152.5 359.5zM299 1876h279l235 -272h-147z" />
<glyph unicode="&#xda;" horiz-adv-x="1478" d="M174 455v1038h191v-1038q0 -158 103 -241t277 -83q180 0 282.5 86t102.5 238v1038h191v-1038q0 -225 -156.5 -358.5t-419.5 -133.5q-266 0 -418.5 132.5t-152.5 359.5zM666 1604l235 272h279l-367 -272h-147z" />
<glyph unicode="&#xdb;" horiz-adv-x="1478" d="M174 455v1038h191v-1038q0 -158 103 -241t277 -83q180 0 282.5 86t102.5 238v1038h191v-1038q0 -225 -156.5 -358.5t-419.5 -133.5q-266 0 -418.5 132.5t-152.5 359.5zM387 1604l236 276h233l236 -276h-154l-199 176l-194 -176h-158z" />
<glyph unicode="&#xdc;" horiz-adv-x="1478" d="M174 455v1038h191v-1038q0 -158 103 -241t277 -83q180 0 282.5 86t102.5 238v1038h191v-1038q0 -225 -156.5 -358.5t-419.5 -133.5q-266 0 -418.5 132.5t-152.5 359.5zM481 1636v209h187v-209h-187zM813 1636v209h186v-209h-186z" />
<glyph unicode="&#xdd;" horiz-adv-x="1366" d="M27 1493h235l438 -727l426 727h228l-561 -907v-586h-191v586zM625 1604l235 272h279l-367 -272h-147z" />
<glyph unicode="&#xde;" horiz-adv-x="1366" d="M186 0v1493h191v-246h426q213 0 336 -115.5t123 -318.5q0 -186 -117 -306t-299 -120h-469v-387h-191zM377 555h397q133 0 208 69.5t75 192.5t-75 192.5t-208 69.5h-397v-524z" />
<glyph unicode="&#xdf;" horiz-adv-x="1251" d="M143 0v1102q0 168 134.5 279.5t318.5 111.5q195 0 337 -105.5t142 -271.5q0 -98 -55 -179t-148 -116q127 -33 207 -137t80 -235q0 -225 -124 -357.5t-335 -132.5q-96 0 -172 8v170q86 -10 156 -10q131 0 214 86t83 223q0 158 -94 218.5t-289 60.5v168q121 0 210 62.5 t89 164.5q0 100 -89 161.5t-208 61.5q-117 0 -202 -65.5t-85 -165.5v-1102h-170z" />
<glyph unicode="&#xe0;" d="M86 279q0 201 188 278q51 20 108.5 31.5t235.5 34.5q100 12 139.5 38.5t39.5 79.5v45q0 78 -62.5 119t-177.5 41q-119 0 -180.5 -46t-71.5 -144h-172q14 348 430 348q199 0 301.5 -75t102.5 -218v-598q0 -84 92 -84q18 0 37 4v-129q-72 -18 -117 -18q-63 0 -112.5 40 t-63.5 101q-147 -158 -365 -158q-164 0 -258 82.5t-94 227.5zM197 1493h231l197 -303h-123zM264 283q0 -164 211 -164q129 0 225.5 70.5t96.5 181.5v159q-68 -31 -275 -59q-139 -20 -198.5 -62t-59.5 -126z" />
<glyph unicode="&#xe1;" d="M86 279q0 201 188 278q51 20 108.5 31.5t235.5 34.5q100 12 139.5 38.5t39.5 79.5v45q0 78 -62.5 119t-177.5 41q-119 0 -180.5 -46t-71.5 -144h-172q14 348 430 348q199 0 301.5 -75t102.5 -218v-598q0 -84 92 -84q18 0 37 4v-129q-72 -18 -117 -18q-63 0 -112.5 40 t-63.5 101q-147 -158 -365 -158q-164 0 -258 82.5t-94 227.5zM264 283q0 -164 211 -164q129 0 225.5 70.5t96.5 181.5v159q-68 -31 -275 -59q-139 -20 -198.5 -62t-59.5 -126zM502 1190l196 303h232l-305 -303h-123z" />
<glyph unicode="&#xe2;" d="M86 279q0 201 188 278q51 20 108.5 31.5t235.5 34.5q100 12 139.5 38.5t39.5 79.5v45q0 78 -62.5 119t-177.5 41q-119 0 -180.5 -46t-71.5 -144h-172q14 348 430 348q199 0 301.5 -75t102.5 -218v-598q0 -84 92 -84q18 0 37 4v-129q-72 -18 -117 -18q-63 0 -112.5 40 t-63.5 101q-147 -158 -365 -158q-164 0 -258 82.5t-94 227.5zM264 283q0 -164 211 -164q129 0 225.5 70.5t96.5 181.5v159q-68 -31 -275 -59q-139 -20 -198.5 -62t-59.5 -126zM268 1188l197 307h194l197 -307h-129l-166 196l-162 -196h-131z" />
<glyph unicode="&#xe3;" d="M86 279q0 201 188 278q51 20 108.5 31.5t235.5 34.5q100 12 139.5 38.5t39.5 79.5v45q0 78 -62.5 119t-177.5 41q-119 0 -180.5 -46t-71.5 -144h-172q14 348 430 348q199 0 301.5 -75t102.5 -218v-598q0 -84 92 -84q18 0 37 4v-129q-72 -18 -117 -18q-63 0 -112.5 40 t-63.5 101q-147 -158 -365 -158q-164 0 -258 82.5t-94 227.5zM231 1237q16 100 62.5 155.5t114.5 55.5q47 0 143 -39q84 -37 129 -37q51 0 76 76h118q-31 -213 -182 -213q-43 0 -174 51q-72 27 -100 27q-47 0 -68 -76h-119zM264 283q0 -164 211 -164q129 0 225.5 70.5 t96.5 181.5v159q-68 -31 -275 -59q-139 -20 -198.5 -62t-59.5 -126z" />
<glyph unicode="&#xe4;" d="M86 279q0 201 188 278q51 20 108.5 31.5t235.5 34.5q100 12 139.5 38.5t39.5 79.5v45q0 78 -62.5 119t-177.5 41q-119 0 -180.5 -46t-71.5 -144h-172q14 348 430 348q199 0 301.5 -75t102.5 -218v-598q0 -84 92 -84q18 0 37 4v-129q-72 -18 -117 -18q-63 0 -112.5 40 t-63.5 101q-147 -158 -365 -158q-164 0 -258 82.5t-94 227.5zM264 283q0 -164 211 -164q129 0 225.5 70.5t96.5 181.5v159q-68 -31 -275 -59q-139 -20 -198.5 -62t-59.5 -126zM303 1237v209h186v-209h-186zM635 1237v209h186v-209h-186z" />
<glyph unicode="&#xe5;" d="M86 279q0 201 188 278q51 20 108.5 31.5t235.5 34.5q100 12 139.5 38.5t39.5 79.5v45q0 78 -62.5 119t-177.5 41q-119 0 -180.5 -46t-71.5 -144h-172q14 348 430 348q199 0 301.5 -75t102.5 -218v-598q0 -84 92 -84q18 0 37 4v-129q-72 -18 -117 -18q-63 0 -112.5 40 t-63.5 101q-147 -158 -365 -158q-164 0 -258 82.5t-94 227.5zM264 283q0 -164 211 -164q129 0 225.5 70.5t96.5 181.5v159q-68 -31 -275 -59q-139 -20 -198.5 -62t-59.5 -126zM365 1343q0 78 58 136.5t140 58.5t139.5 -58.5t57.5 -140.5q0 -80 -58.5 -137t-138.5 -57 q-82 0 -140 58t-58 140zM463 1343q0 -41 29.5 -70.5t70.5 -29.5q39 0 69 28.5t30 67.5q0 43 -29 72t-70 29t-70.5 -29t-29.5 -68z" />
<glyph unicode="&#xe6;" horiz-adv-x="1820" d="M70 279q0 168 111.5 241.5t420.5 100.5q104 8 141 34.5t37 85.5v45q0 160 -241 160q-229 0 -250 -190h-172q14 348 426 348q262 0 358 -168q55 78 149.5 123t204.5 45q150 0 264.5 -76t168.5 -207q43 -113 43 -342h-791q2 -168 90 -260t225 -92q205 0 283 199h172 q-33 -164 -154.5 -260.5t-302.5 -96.5q-119 0 -215 45t-149 125l-33 56q-115 -119 -218 -172.5t-224 -53.5q-158 0 -251 83.5t-93 226.5zM248 283q0 -80 54 -122t151 -42q113 0 220 74.5t107 144.5v190q-68 -29 -274 -59q-141 -20 -199.5 -61t-58.5 -125zM944 618h602 q0 145 -82 236.5t-213 91.5q-129 0 -213 -89t-94 -239z" />
<glyph unicode="&#xe7;" horiz-adv-x="1024" d="M63 526q0 266 130.5 422t347.5 156q184 0 296.5 -99.5t127.5 -291.5h-172q-16 113 -82 173t-172 60q-141 0 -219 -109.5t-78 -310.5q0 -190 79.5 -294.5t221.5 -104.5q111 0 176 57.5t86 184.5h172q-14 -170 -113.5 -275.5t-267.5 -122.5l-33 -82h47q74 0 118 -50 t44 -120q0 -88 -67.5 -139t-184.5 -51q-96 0 -256 70l43 82l19 -9q119 -59 182 -59q47 0 78.5 26.5t31.5 65.5q0 37 -25.5 63.5t-68.5 26.5q-29 0 -63 -8l-35 25l70 159q-201 16 -317 163.5t-116 391.5z" />
<glyph unicode="&#xe8;" d="M82 530.5q0 264.5 133 419t358 154.5q152 0 267.5 -76t167.5 -207q43 -113 43 -334h-791q2 -178 89 -269t226 -91q215 0 281 199h172q-33 -164 -154.5 -260.5t-304.5 -96.5q-227 0 -357 148.5t-130 413zM207 1493h231l197 -303h-123zM264 627h602l2 12q0 127 -86 217 t-211 90q-129 0 -213 -88t-94 -231z" />
<glyph unicode="&#xe9;" d="M82 530.5q0 264.5 133 419t358 154.5q152 0 267.5 -76t167.5 -207q43 -113 43 -334h-791q2 -178 89 -269t226 -91q215 0 281 199h172q-33 -164 -154.5 -260.5t-304.5 -96.5q-227 0 -357 148.5t-130 413zM264 627h602l2 12q0 127 -86 217t-211 90q-129 0 -213 -88 t-94 -231zM512 1190l197 303h231l-305 -303h-123z" />
<glyph unicode="&#xea;" d="M82 530.5q0 264.5 133 419t358 154.5q152 0 267.5 -76t167.5 -207q43 -113 43 -334h-791q2 -178 89 -269t226 -91q215 0 281 199h172q-33 -164 -154.5 -260.5t-304.5 -96.5q-227 0 -357 148.5t-130 413zM264 627h602l2 12q0 127 -86 217t-211 90q-129 0 -213 -88 t-94 -231zM279 1188l196 307h195l196 -307h-129l-166 196l-161 -196h-131z" />
<glyph unicode="&#xeb;" d="M82 530.5q0 264.5 133 419t358 154.5q152 0 267.5 -76t167.5 -207q43 -113 43 -334h-791q2 -178 89 -269t226 -91q215 0 281 199h172q-33 -164 -154.5 -260.5t-304.5 -96.5q-227 0 -357 148.5t-130 413zM264 627h602l2 12q0 127 -86 217t-211 90q-129 0 -213 -88 t-94 -231zM313 1237v209h187v-209h-187zM645 1237v209h186v-209h-186z" />
<glyph unicode="&#xec;" horiz-adv-x="569" d="M-57 1493h231l197 -303h-123zM201 0v1073h170v-1073h-170z" />
<glyph unicode="&#xed;" horiz-adv-x="569" d="M201 0v1073h170v-1073h-170zM203 1190l196 303h232l-305 -303h-123z" />
<glyph unicode="&#xee;" horiz-adv-x="569" d="M-8 1188l196 307h195l197 -307h-129l-166 196l-162 -196h-131zM201 0v1073h170v-1073h-170z" />
<glyph unicode="&#xef;" horiz-adv-x="569" d="M27 1237v209h186v-209h-186zM201 0v1073h170v-1073h-170zM358 1237v209h187v-209h-187z" />
<glyph unicode="&#xf0;" d="M74 537q0 262 120.5 412.5t325.5 150.5q49 0 129 -27q-80 82 -200 182l-199 -92l-74 80l174 82q-61 47 -168 107l90 90q76 -33 228 -129l198 92l82 -76l-184 -84q240 -182 344 -370.5t104 -415.5q0 -274 -125.5 -422t-359 -148t-359.5 147t-126 421zM252 536.5 q0 -192.5 82 -301t225 -108.5q141 0 224 107.5t83 295.5q0 199 -80.5 307.5t-226.5 108.5q-143 0 -225 -108.5t-82 -301z" />
<glyph unicode="&#xf1;" d="M143 0v1073h158v-180q72 113 155 162t201 49q156 0 248 -80t92 -213v-811h-170v743q0 96 -59 153.5t-162 57.5q-131 0 -212 -99t-81 -263v-592h-170zM238 1237q16 100 62 155.5t114 55.5q47 0 143 -39q84 -37 129 -37q51 0 76 76h119q-31 -213 -183 -213q-43 0 -174 51 q-72 27 -100 27q-47 0 -68 -76h-118z" />
<glyph unicode="&#xf2;" d="M74 537q0 268 128 417.5t355 149.5q233 0 360 -149.5t127 -426.5q0 -264 -129 -411.5t-356 -147.5q-229 0 -357 149t-128 419zM203 1493h231l197 -303h-123zM252 537q0 -195 82 -302.5t225 -107.5q141 0 224 107.5t83 295.5q0 199 -80.5 307.5t-226.5 108.5 q-143 0 -225 -108t-82 -301z" />
<glyph unicode="&#xf3;" d="M74 537q0 268 128 417.5t355 149.5q233 0 360 -149.5t127 -426.5q0 -264 -129 -411.5t-356 -147.5q-229 0 -357 149t-128 419zM252 537q0 -195 82 -302.5t225 -107.5q141 0 224 107.5t83 295.5q0 199 -80.5 307.5t-226.5 108.5q-143 0 -225 -108t-82 -301zM508 1190 l197 303h231l-305 -303h-123z" />
<glyph unicode="&#xf4;" d="M74 537q0 268 128 417.5t355 149.5q233 0 360 -149.5t127 -426.5q0 -264 -129 -411.5t-356 -147.5q-229 0 -357 149t-128 419zM252 537q0 -195 82 -302.5t225 -107.5q141 0 224 107.5t83 295.5q0 199 -80.5 307.5t-226.5 108.5q-143 0 -225 -108t-82 -301zM274 1188 l197 307h195l196 -307h-129l-166 196l-161 -196h-132z" />
<glyph unicode="&#xf5;" d="M74 537q0 268 128 417.5t355 149.5q233 0 360 -149.5t127 -426.5q0 -264 -129 -411.5t-356 -147.5q-229 0 -357 149t-128 419zM238 1237q16 100 62 155.5t114 55.5q47 0 143 -39q84 -37 129 -37q51 0 76 76h119q-31 -213 -183 -213q-43 0 -174 51q-72 27 -100 27 q-47 0 -68 -76h-118zM252 537q0 -195 82 -302.5t225 -107.5q141 0 224 107.5t83 295.5q0 199 -80.5 307.5t-226.5 108.5q-143 0 -225 -108t-82 -301z" />
<glyph unicode="&#xf6;" d="M74 537q0 268 128 417.5t355 149.5q233 0 360 -149.5t127 -426.5q0 -264 -129 -411.5t-356 -147.5q-229 0 -357 149t-128 419zM252 537q0 -195 82 -302.5t225 -107.5q141 0 224 107.5t83 295.5q0 199 -80.5 307.5t-226.5 108.5q-143 0 -225 -108t-82 -301zM309 1237v209 h187v-209h-187zM641 1237v209h186v-209h-186z" />
<glyph unicode="&#xf7;" horiz-adv-x="1196" d="M139 442v140h918v-140h-918zM492 139q0 43 30.5 75t75.5 32t76 -32t31 -75q0 -45 -31 -75.5t-76 -30.5t-75.5 30.5t-30.5 75.5zM492 885q0 45 30.5 75.5t75.5 30.5t76 -30.5t31 -75.5q0 -43 -31 -75t-76 -32t-75.5 32t-30.5 75z" />
<glyph unicode="&#xf8;" d="M74 537q0 268 128 417.5t355 149.5q201 0 322 -111l86 101l75 -64l-94 -112q98 -150 98 -390q0 -264 -129 -411.5t-356 -147.5q-197 0 -319 111l-86 -100l-76 63l94 113q-98 150 -98 381zM252 537q0 -139 43 -236l471 559q-78 86 -207 86q-143 0 -225 -108t-82 -301z M352 213q80 -86 207 -86q141 0 224 107.5t83 295.5q0 143 -43 242z" />
<glyph unicode="&#xf9;" d="M133 262v811h170v-743q0 -96 59.5 -153.5t161.5 -57.5q133 0 213 99t80 263v592h170v-1073h-153v166q-76 -106 -158 -151.5t-201 -45.5q-156 0 -249 80t-93 213zM203 1493h231l197 -303h-123z" />
<glyph unicode="&#xfa;" d="M133 262v811h170v-743q0 -96 59.5 -153.5t161.5 -57.5q133 0 213 99t80 263v592h170v-1073h-153v166q-76 -106 -158 -151.5t-201 -45.5q-156 0 -249 80t-93 213zM508 1190l197 303h231l-305 -303h-123z" />
<glyph unicode="&#xfb;" d="M133 262v811h170v-743q0 -96 59.5 -153.5t161.5 -57.5q133 0 213 99t80 263v592h170v-1073h-153v166q-76 -106 -158 -151.5t-201 -45.5q-156 0 -249 80t-93 213zM274 1188l197 307h195l196 -307h-129l-166 196l-161 -196h-132z" />
<glyph unicode="&#xfc;" d="M133 262v811h170v-743q0 -96 59.5 -153.5t161.5 -57.5q133 0 213 99t80 263v592h170v-1073h-153v166q-76 -106 -158 -151.5t-201 -45.5q-156 0 -249 80t-93 213zM309 1237v209h187v-209h-187zM641 1237v209h186v-209h-186z" />
<glyph unicode="&#xfd;" horiz-adv-x="1024" d="M41 1073h182l275 -835l297 835h184l-477 -1298q-82 -221 -277 -221q-63 0 -114 26v154q55 -12 90 -13q55 0 84.5 24t52.5 81l65 170zM451 1190l196 303h232l-306 -303h-122z" />
<glyph unicode="&#xfe;" d="M111 -446v1908h170v-522q115 164 329 164q209 0 334 -160t125 -426q0 -246 -126 -397.5t-333 -151.5q-199 0 -329 160v-575h-170zM281 528q0 -178 81.5 -288.5t217.5 -110.5q139 0 225 110.5t86 282.5q0 193 -85 307.5t-226 114.5q-135 0 -217 -114t-82 -302z" />
<glyph unicode="&#xff;" horiz-adv-x="1024" d="M41 1073h182l275 -835l297 835h184l-477 -1298q-82 -221 -277 -221q-63 0 -114 26v154q55 -12 90 -13q55 0 84.5 24t52.5 81l65 170zM252 1237v209h186v-209h-186zM584 1237v209h186v-209h-186z" />
<glyph unicode="&#x100;" horiz-adv-x="1366" d="M35 0l532 1493h246l524 -1493h-213l-153 449h-576l-157 -449h-203zM408 1669v143h561v-143h-561zM442 608h476l-230 680z" />
<glyph unicode="&#x101;" d="M86 279q0 201 188 278q51 20 108.5 31.5t235.5 34.5q100 12 139.5 38.5t39.5 79.5v45q0 78 -62.5 119t-177.5 41q-119 0 -180.5 -46t-71.5 -144h-172q14 348 430 348q199 0 301.5 -75t102.5 -218v-598q0 -84 92 -84q18 0 37 4v-129q-72 -18 -117 -18q-63 0 -112.5 40 t-63.5 101q-147 -158 -365 -158q-164 0 -258 82.5t-94 227.5zM264 283q0 -164 211 -164q129 0 225.5 70.5t96.5 181.5v159q-68 -31 -275 -59q-139 -20 -198.5 -62t-59.5 -126zM279 1270v143h561v-143h-561z" />
<glyph unicode="&#x102;" horiz-adv-x="1366" d="M35 0l532 1493h246l524 -1493h-213l-153 449h-576l-157 -449h-203zM319 1866h146q8 -59 61.5 -81t163.5 -22q213 0 223 103h146q-25 -250 -373 -250q-166 0 -265.5 61.5t-101.5 188.5zM442 608h476l-230 680z" />
<glyph unicode="&#x103;" d="M86 279q0 201 188 278q51 20 108.5 31.5t235.5 34.5q100 12 139.5 38.5t39.5 79.5v45q0 78 -62.5 119t-177.5 41q-119 0 -180.5 -46t-71.5 -144h-172q14 348 430 348q199 0 301.5 -75t102.5 -218v-598q0 -84 92 -84q18 0 37 4v-129q-72 -18 -117 -18q-63 0 -112.5 40 t-63.5 101q-147 -158 -365 -158q-164 0 -258 82.5t-94 227.5zM246 1481h110q25 -61 80.5 -98t121 -37t120.5 36.5t80 98.5h110q0 -117 -92 -197t-219 -80t-219 80t-92 197zM264 283q0 -164 211 -164q129 0 225.5 70.5t96.5 181.5v159q-68 -31 -275 -59q-139 -20 -198.5 -62 t-59.5 -126z" />
<glyph unicode="&#x104;" horiz-adv-x="1366" d="M35 0l532 1493h246l524 -1493q-96 0 -159 -100q-33 -47 -33 -121q0 -90 90 -90h102v-160h-102q-100 0 -175 53t-75 146q0 80 41 145q39 66 98 127l-153 449h-576l-157 -449h-203zM442 608h476l-230 680z" />
<glyph unicode="&#x105;" d="M86 279q0 201 188 278q51 20 108.5 31.5t235.5 34.5q100 12 139.5 38.5t39.5 79.5v45q0 78 -62.5 119t-177.5 41q-119 0 -180.5 -46t-71.5 -144h-172q14 348 430 348q199 0 301.5 -75t102.5 -218v-598q0 -84 92 -84q18 0 37 4v-129l-37 -8q-70 -16 -113 -77.5t-43 -139.5 q0 -90 90 -90h103v-160h-103q-100 0 -175 53t-75 146q0 150 164 272q-84 37 -104 127q-147 -158 -365 -158q-164 0 -258 82.5t-94 227.5zM264 283q0 -164 211 -164q129 0 225.5 70.5t96.5 181.5v159q-68 -31 -275 -59q-139 -20 -198.5 -62t-59.5 -126z" />
<glyph unicode="&#x106;" horiz-adv-x="1478" d="M98 729q0 344 178.5 572.5t503.5 228.5q485 0 576 -500h-195q-35 172 -132 252t-271 80q-215 0 -342 -171t-127 -460q0 -279 131 -439.5t354 -160.5q186 0 283.5 99.5t132.5 314.5h196q-68 -582 -614 -582q-319 0 -496.5 214t-177.5 552zM684 1604l236 272h278l-367 -272 h-147z" />
<glyph unicode="&#x107;" horiz-adv-x="1024" d="M63 526q0 266 130.5 422t347.5 156q184 0 296.5 -99.5t127.5 -291.5h-172q-16 113 -82 173t-172 60q-141 0 -219 -109.5t-78 -310.5q0 -190 79.5 -294.5t221.5 -104.5q111 0 176 57.5t86 184.5h172q-16 -186 -132 -293t-306 -107q-219 0 -347.5 149.5t-128.5 407.5z M479 1190l197 303h231l-305 -303h-123z" />
<glyph unicode="&#x108;" horiz-adv-x="1478" d="M98 729q0 344 178.5 572.5t503.5 228.5q485 0 576 -500h-195q-35 172 -132 252t-271 80q-215 0 -342 -171t-127 -460q0 -279 131 -439.5t354 -160.5q186 0 283.5 99.5t132.5 314.5h196q-68 -582 -614 -582q-319 0 -496.5 214t-177.5 552zM406 1604l235 276h233l236 -276 h-154l-198 176l-195 -176h-157z" />
<glyph unicode="&#x109;" horiz-adv-x="1024" d="M63 526q0 266 130.5 422t347.5 156q184 0 296.5 -99.5t127.5 -291.5h-172q-16 113 -82 173t-172 60q-141 0 -219 -109.5t-78 -310.5q0 -190 79.5 -294.5t221.5 -104.5q111 0 176 57.5t86 184.5h172q-16 -186 -132 -293t-306 -107q-219 0 -347.5 149.5t-128.5 407.5z M246 1188l196 307h195l197 -307h-129l-166 196l-162 -196h-131z" />
<glyph unicode="&#x10a;" horiz-adv-x="1478" d="M98 729q0 344 178.5 572.5t503.5 228.5q485 0 576 -500h-195q-35 172 -132 252t-271 80q-215 0 -342 -171t-127 -460q0 -279 131 -439.5t354 -160.5q186 0 283.5 99.5t132.5 314.5h196q-68 -582 -614 -582q-319 0 -496.5 214t-177.5 552zM653 1634v213h213v-213h-213z " />
<glyph unicode="&#x10b;" horiz-adv-x="1024" d="M63 526q0 266 130.5 422t347.5 156q184 0 296.5 -99.5t127.5 -291.5h-172q-16 113 -82 173t-172 60q-141 0 -219 -109.5t-78 -310.5q0 -190 79.5 -294.5t221.5 -104.5q111 0 176 57.5t86 184.5h172q-16 -186 -132 -293t-306 -107q-219 0 -347.5 149.5t-128.5 407.5z M434 1235v213h213v-213h-213z" />
<glyph unicode="&#x10c;" horiz-adv-x="1478" d="M98 729q0 344 178.5 572.5t503.5 228.5q485 0 576 -500h-195q-35 172 -132 252t-271 80q-215 0 -342 -171t-127 -460q0 -279 131 -439.5t354 -160.5q186 0 283.5 99.5t132.5 314.5h196q-68 -582 -614 -582q-319 0 -496.5 214t-177.5 552zM408 1880h153l199 -176l194 176 h158l-235 -276h-234z" />
<glyph unicode="&#x10d;" horiz-adv-x="1024" d="M63 526q0 266 130.5 422t347.5 156q184 0 296.5 -99.5t127.5 -291.5h-172q-16 113 -82 173t-172 60q-141 0 -219 -109.5t-78 -310.5q0 -190 79.5 -294.5t221.5 -104.5q111 0 176 57.5t86 184.5h172q-16 -186 -132 -293t-306 -107q-219 0 -347.5 149.5t-128.5 407.5z M246 1495h129l166 -197l161 197h132l-197 -307h-195z" />
<glyph unicode="&#x10e;" horiz-adv-x="1478" d="M182 0v1493h576q285 0 446.5 -198.5t161.5 -547t-163 -548t-445 -199.5h-576zM373 168h352q221 0 336 147.5t115 429.5q0 285 -115 432.5t-336 147.5h-352v-1157zM375 1880h153l199 -176l195 176h157l-235 -276h-234z" />
<glyph unicode="&#x10f;" d="M53 547q0 256 126 406.5t335 150.5q221 0 330 -166v555h170v-1493h-152v158q-70 -100 -150.5 -144.5t-191.5 -44.5q-217 0 -342 154t-125 424zM231 536.5q0 -186.5 86 -297t228 -110.5q135 0 217 109.5t82 293.5q0 186 -82 299t-219 113q-141 0 -226.5 -110.5t-85.5 -297 zM1153 1034v78q113 0 113 160v16h-113v205h205v-211q0 -117 -54.5 -182.5t-150.5 -65.5z" />
<glyph unicode="&#x110;" horiz-adv-x="1478" d="M41 694v137h141v662h578q283 0 444.5 -198.5t161.5 -547t-162 -548t-444 -199.5h-578v694h-141zM373 168h354q219 0 334 147.5t115 432t-115 431t-334 146.5h-354v-494h350v-137h-350v-526z" />
<glyph unicode="&#x111;" d="M53 549q0 254 125 404.5t334 150.5q199 0 330 -160v285h-307v108h307v156h170v-156h129v-108h-129v-1229h-152v137q-143 -168 -344 -168q-209 0 -336 158t-127 422zM231 536.5q0 -182.5 85 -291t227 -108.5q135 0 217 106.5t82 288.5q0 188 -81 296t-218 108 q-141 0 -226.5 -108.5t-85.5 -291z" />
<glyph unicode="&#x112;" horiz-adv-x="1366" d="M184 0v1493h1035v-168h-844v-477h813v-168h-813v-512h880v-168h-1071zM420 1669v143h561v-143h-561z" />
<glyph unicode="&#x113;" d="M82 530.5q0 264.5 133 419t358 154.5q152 0 267.5 -76t167.5 -207q43 -113 43 -334h-791q2 -178 89 -269t226 -91q215 0 281 199h172q-33 -164 -154.5 -260.5t-304.5 -96.5q-227 0 -357 148.5t-130 413zM264 627h602l2 12q0 127 -86 217t-211 90q-129 0 -213 -88 t-94 -231zM289 1270v143h561v-143h-561z" />
<glyph unicode="&#x114;" horiz-adv-x="1366" d="M184 0v1493h1035v-168h-844v-477h813v-168h-813v-512h880v-168h-1071zM332 1866h145q8 -59 61.5 -81t163.5 -22q213 0 224 103h145q-25 -250 -373 -250q-166 0 -265 61.5t-101 188.5z" />
<glyph unicode="&#x115;" d="M82 530.5q0 264.5 133 419t358 154.5q152 0 267.5 -76t167.5 -207q43 -113 43 -334h-791q2 -178 89 -269t226 -91q215 0 281 199h172q-33 -164 -154.5 -260.5t-304.5 -96.5q-227 0 -357 148.5t-130 413zM256 1481h111q25 -61 80 -98t120.5 -37t120.5 36.5t80 98.5h111 q0 -117 -92.5 -197t-219.5 -80t-219 80t-92 197zM264 627h602l2 12q0 127 -86 217t-211 90q-129 0 -213 -88t-94 -231z" />
<glyph unicode="&#x116;" horiz-adv-x="1366" d="M184 0v1493h1035v-168h-844v-477h813v-168h-813v-512h880v-168h-1071zM598 1634v213h213v-213h-213z" />
<glyph unicode="&#x117;" d="M82 530.5q0 264.5 133 419t358 154.5q152 0 267.5 -76t167.5 -207q43 -113 43 -334h-791q2 -178 89 -269t226 -91q215 0 281 199h172q-33 -164 -154.5 -260.5t-304.5 -96.5q-227 0 -357 148.5t-130 413zM264 627h602l2 12q0 127 -86 217t-211 90q-129 0 -213 -88 t-94 -231zM467 1235v213h213v-213h-213z" />
<glyph unicode="&#x118;" horiz-adv-x="1366" d="M184 0v1493h1035v-168h-844v-477h813v-168h-813v-512h880v-168q-96 0 -159 -100q-33 -47 -33 -121q0 -90 90 -90h102v-160h-102q-100 0 -175 53t-75 146q0 147 162 272h-881z" />
<glyph unicode="&#x119;" d="M82 530.5q0 264.5 133 419t358 154.5q152 0 267.5 -76t167.5 -207q43 -113 43 -334h-791q2 -178 89 -269t226 -91q215 0 281 199h172q-45 -219 -231 -308q-188 -92 -189 -239q0 -90 90 -90h103v-160h-103q-100 0 -174.5 53t-74.5 146q0 133 124 241h-4q-227 0 -357 148.5 t-130 413zM264 627h602l2 12q0 127 -86 217t-211 90q-129 0 -213 -88t-94 -231z" />
<glyph unicode="&#x11a;" horiz-adv-x="1366" d="M184 0v1493h1035v-168h-844v-477h813v-168h-813v-512h880v-168h-1071zM352 1880h154l199 -176l194 176h158l-236 -276h-233z" />
<glyph unicode="&#x11b;" d="M82 530.5q0 264.5 133 419t358 154.5q152 0 267.5 -76t167.5 -207q43 -113 43 -334h-791q2 -178 89 -269t226 -91q215 0 281 199h172q-33 -164 -154.5 -260.5t-304.5 -96.5q-227 0 -357 148.5t-130 413zM264 627h602l2 12q0 127 -86 217t-211 90q-129 0 -213 -88 t-94 -231zM279 1495h129l165 -197l162 197h131l-196 -307h-195z" />
<glyph unicode="&#x11c;" horiz-adv-x="1593" d="M90 731q0 346 191.5 572.5t525.5 226.5q256 0 420 -130t205 -360h-195q-31 145 -147.5 233.5t-284.5 88.5q-236 0 -380 -172t-144 -448.5t142 -443.5t392 -167q205 0 337 125t132 324v41h-455v167h623v-788h-121l-47 197q-209 -233 -510 -234q-303 0 -493.5 212 t-190.5 556zM455 1604l235 276h234l235 -276h-153l-199 176l-195 -176h-157z" />
<glyph unicode="&#x11d;" d="M59 526q0 260 126 419t331 159q201 0 328 -186v155h157v-897q0 -348 -110.5 -485t-368.5 -137q-188 0 -300.5 86t-127.5 237h174q29 -180 260 -180q156 0 236 93t80 300v72q-86 -102 -164 -147.5t-178 -45.5q-193 0 -318 153.5t-125 403.5zM238 537q0 -195 78.5 -302.5 t220.5 -107.5q135 0 212.5 106.5t77.5 296.5q0 195 -77.5 305.5t-215 110.5t-217 -108t-79.5 -301zM274 1188l197 307h195l196 -307h-129l-166 196l-161 -196h-132z" />
<glyph unicode="&#x11e;" horiz-adv-x="1593" d="M90 731q0 346 191.5 572.5t525.5 226.5q256 0 420 -130t205 -360h-195q-31 145 -147.5 233.5t-284.5 88.5q-236 0 -380 -172t-144 -448.5t142 -443.5t392 -167q205 0 337 125t132 324v41h-455v167h623v-788h-121l-47 197q-209 -233 -510 -234q-303 0 -493.5 212 t-190.5 556zM436 1866h146q8 -59 61 -81t164 -22q213 0 223 103h146q-25 -250 -373 -250q-166 0 -265.5 61.5t-101.5 188.5z" />
<glyph unicode="&#x11f;" d="M59 526q0 260 126 419t331 159q201 0 328 -186v155h157v-897q0 -348 -110.5 -485t-368.5 -137q-188 0 -300.5 86t-127.5 237h174q29 -180 260 -180q156 0 236 93t80 300v72q-86 -102 -164 -147.5t-178 -45.5q-193 0 -318 153.5t-125 403.5zM238 537q0 -195 78.5 -302.5 t220.5 -107.5q135 0 212.5 106.5t77.5 296.5q0 195 -77.5 305.5t-215 110.5t-217 -108t-79.5 -301zM252 1481h110q25 -61 80.5 -98t121 -37t120.5 36.5t80 98.5h110q0 -117 -92 -197t-219 -80t-219 80t-92 197z" />
<glyph unicode="&#x120;" horiz-adv-x="1593" d="M90 731q0 346 191.5 572.5t525.5 226.5q256 0 420 -130t205 -360h-195q-31 145 -147.5 233.5t-284.5 88.5q-236 0 -380 -172t-144 -448.5t142 -443.5t392 -167q205 0 337 125t132 324v41h-455v167h623v-788h-121l-47 197q-209 -233 -510 -234q-303 0 -493.5 212 t-190.5 556zM702 1634v213h213v-213h-213z" />
<glyph unicode="&#x121;" d="M59 526q0 260 126 419t331 159q201 0 328 -186v155h157v-897q0 -348 -110.5 -485t-368.5 -137q-188 0 -300.5 86t-127.5 237h174q29 -180 260 -180q156 0 236 93t80 300v72q-86 -102 -164 -147.5t-178 -45.5q-193 0 -318 153.5t-125 403.5zM238 537q0 -195 78.5 -302.5 t220.5 -107.5q135 0 212.5 106.5t77.5 296.5q0 195 -77.5 305.5t-215 110.5t-217 -108t-79.5 -301zM463 1235v213h213v-213h-213z" />
<glyph unicode="&#x122;" horiz-adv-x="1593" d="M90 731q0 346 191.5 572.5t525.5 226.5q256 0 420 -130t205 -360h-195q-31 145 -147.5 233.5t-284.5 88.5q-236 0 -380 -172t-144 -448.5t142 -443.5t392 -167q205 0 337 125t132 324v41h-455v167h623v-788h-121l-47 197q-209 -233 -510 -234q-303 0 -493.5 212 t-190.5 556zM707 -123h204v-211q0 -117 -54 -182.5t-150 -65.5v78q113 0 112 160v16h-112v205z" />
<glyph unicode="&#x123;" d="M59 526q0 260 126 419t331 159q201 0 328 -186v155h157v-897q0 -348 -110.5 -485t-368.5 -137q-188 0 -300.5 86t-127.5 237h174q29 -180 260 -180q156 0 236 93t80 300v72q-86 -102 -164 -147.5t-178 -45.5q-193 0 -318 153.5t-125 403.5zM238 537q0 -195 78.5 -302.5 t220.5 -107.5q135 0 212.5 106.5t77.5 296.5q0 195 -77.5 305.5t-215 110.5t-217 -108t-79.5 -301zM469 1182v211q0 117 54.5 182t150.5 65v-77q-113 0 -113 -160v-17h113v-204h-205z" />
<glyph unicode="&#x124;" horiz-adv-x="1478" d="M170 0v1493h190v-645h768v645h191v-1493h-191v680h-768v-680h-190zM387 1604l236 276h233l236 -276h-154l-199 176l-194 -176h-158z" />
<glyph unicode="&#x125;" d="M143 0v1493h170v-567q76 98 153 138t191 40q156 0 247 -79t91 -214v-811h-170v743q0 102 -62.5 156.5t-158.5 54.5q-131 0 -211 -99t-80 -263v-592h-170zM217 1604l236 276h233l236 -276h-154l-199 176l-194 -176h-158z" />
<glyph unicode="&#x126;" horiz-adv-x="1478" d="M76 1147v94h94v252h190v-252h768v252h191v-252h94v-94h-94v-1147h-191v680h-768v-680h-190v1147h-94zM360 848h768v299h-768v-299z" />
<glyph unicode="&#x127;" horiz-adv-x="1214" d="M139 1022v102l84 35v334h170v-264l256 104v-100l-256 -107v-200q76 98 153 138t191 40q156 0 247 -79t91 -214v-811h-170v743q0 102 -62.5 156.5t-158.5 54.5q-131 0 -211 -99t-80 -263v-592h-170v1057z" />
<glyph unicode="&#x128;" horiz-adv-x="569" d="M-29 1636q16 100 62.5 155.5t113.5 55.5q47 0 144 -39q84 -37 129 -36q51 0 76 75h118q-31 -213 -182 -213q-43 0 -174 52q-72 27 -100 26q-47 0 -68 -76h-119zM205 0v1493h190v-1493h-190z" />
<glyph unicode="&#x129;" horiz-adv-x="569" d="M-45 1237q16 100 62 155.5t114 55.5q47 0 143 -39q84 -37 129 -37q51 0 76 76h119q-31 -213 -182 -213q-43 0 -174 51q-72 27 -101 27q-47 0 -67 -76h-119zM201 0v1073h170v-1073h-170z" />
<glyph unicode="&#x12a;" horiz-adv-x="569" d="M18 1669v143h562v-143h-562zM205 0v1493h190v-1493h-190z" />
<glyph unicode="&#x12b;" horiz-adv-x="569" d="M2 1270v143h561v-143h-561zM201 0v1073h170v-1073h-170z" />
<glyph unicode="&#x12c;" horiz-adv-x="569" d="M-70 1866h146q8 -59 61 -81t164 -22q213 0 223 103h146q-25 -250 -373 -250q-166 0 -265.5 61.5t-101.5 188.5zM205 0v1493h190v-1493h-190z" />
<glyph unicode="&#x12d;" horiz-adv-x="569" d="M-31 1481h111q25 -61 80 -98t120.5 -37t121 36.5t79.5 98.5h111q0 -117 -92 -197t-219 -80t-219.5 80t-92.5 197zM201 0v1073h170v-1073h-170z" />
<glyph unicode="&#x12e;" horiz-adv-x="569" d="M84 -272q0 147 162 272h-41v1493h190v-1493q-74 -31 -119 -100q-33 -47 -32 -121q0 -90 90 -90h102v-160h-102q-100 0 -175 53.5t-75 145.5z" />
<glyph unicode="&#x12f;" horiz-adv-x="569" d="M80 -272q0 147 162 272h-41v1073h170v-1073q-66 -45 -99 -100q-33 -47 -32 -121q0 -90 90 -90h102v-160h-102q-100 0 -175 53.5t-75 145.5zM178 1235v213h213v-213h-213z" />
<glyph unicode="&#x130;" horiz-adv-x="569" d="M197 1634v213h213v-213h-213zM205 0v1493h190v-1493h-190z" />
<glyph unicode="&#x131;" horiz-adv-x="454" d="M143 0v1073h170v-1073h-170z" />
<glyph unicode="&#x134;" horiz-adv-x="1024" d="M39 358v121h190v-86q0 -131 57.5 -200.5t166.5 -69.5q115 0 172 75.5t57 254.5v1040h190v-1110q0 -195 -113.5 -307.5t-308 -112.5t-303 106.5t-108.5 288.5zM426 1604l236 276h233l235 -276h-153l-199 176l-194 -176h-158z" />
<glyph unicode="&#x135;" horiz-adv-x="454" d="M-66 1188l197 307h195l196 -307h-129l-166 196l-161 -196h-132zM-37 -295l41 -2q76 -4 107.5 30t31.5 111v1229h170v-1296q0 -223 -293 -223q-27 0 -57 6v145z" />
<glyph unicode="&#x136;" horiz-adv-x="1366" d="M162 0v1493h190v-756l744 756h245l-608 -608l615 -885h-226l-526 766l-244 -244v-522h-190zM633 -123h205v-211q0 -117 -54.5 -182.5t-150.5 -65.5v78q113 0 112 160v16h-112v205z" />
<glyph unicode="&#x137;" horiz-adv-x="1024" d="M119 0v1493h170v-875l454 455h220l-373 -371l438 -702h-211l-362 582l-166 -164v-418h-170zM412 -123h204v-211q0 -117 -54 -182.5t-150 -65.5v78q113 0 112 160v16h-112v205z" />
<glyph unicode="&#x139;" d="M164 0v1493h190v-1325h738v-168h-928zM166 1604l235 272h279l-367 -272h-147z" />
<glyph unicode="&#x13a;" horiz-adv-x="454" d="M139 0v1493h170v-1493h-170zM141 1604l236 272h278l-366 -272h-148z" />
<glyph unicode="&#x13b;" d="M164 0v1493h190v-1325h738v-168h-928zM528 -123h205v-211q0 -117 -54 -182.5t-151 -65.5v78q113 0 113 160v16h-113v205z" />
<glyph unicode="&#x13c;" horiz-adv-x="454" d="M127 -123h205v-211q0 -117 -54.5 -182.5t-150.5 -65.5v78q113 0 113 160v16h-113v205zM139 0v1493h170v-1493h-170z" />
<glyph unicode="&#x13d;" d="M164 0v1493h190v-1325h738v-168h-928zM494 1034v78q113 0 112 160v16h-112v205h204v-211q0 -117 -54 -182.5t-150 -65.5z" />
<glyph unicode="&#x13e;" horiz-adv-x="454" d="M139 0v1493h170v-1493h-170zM449 1034v78q113 0 112 160v16h-112v205h204v-211q0 -117 -54 -182.5t-150 -65.5z" />
<glyph unicode="&#x13f;" d="M164 0v1493h190v-1325h738v-168h-928zM723 672v213h213v-213h-213z" />
<glyph unicode="&#x140;" horiz-adv-x="659" d="M139 0v1493h170v-1493h-170zM449 672v213h213v-213h-213z" />
<glyph unicode="&#x141;" horiz-adv-x="1286" d="M117 360v197l133 131v805h190v-635l256 254v-197l-256 -253v-494h738v-168h-928v492z" />
<glyph unicode="&#x142;" horiz-adv-x="624" d="M98 457v190l127 154v692h170v-510l135 164v-189l-135 -163v-795h-170v610z" />
<glyph unicode="&#x143;" horiz-adv-x="1478" d="M156 0v1493h206l781 -1221v1221h180v-1493h-215l-772 1210v-1210h-180zM666 1604l235 272h279l-367 -272h-147z" />
<glyph unicode="&#x144;" d="M143 0v1073h158v-180q72 113 155 162t201 49q156 0 248 -80t92 -213v-811h-170v743q0 96 -59 153.5t-162 57.5q-131 0 -212 -99t-81 -263v-592h-170zM508 1190l197 303h231l-305 -303h-123z" />
<glyph unicode="&#x145;" horiz-adv-x="1478" d="M156 0v1493h206l781 -1221v1221h180v-1493h-215l-772 1210v-1210h-180zM639 -123h205v-211q0 -117 -54.5 -182.5t-150.5 -65.5v78q113 0 113 160v16h-113v205z" />
<glyph unicode="&#x146;" d="M143 0v1073h158v-180q72 113 155 162t201 49q156 0 248 -80t92 -213v-811h-170v743q0 96 -59 153.5t-162 57.5q-131 0 -212 -99t-81 -263v-592h-170zM469 -123h205v-211q0 -117 -54.5 -182.5t-150.5 -65.5v78q113 0 113 160v16h-113v205z" />
<glyph unicode="&#x147;" horiz-adv-x="1478" d="M156 0v1493h206l781 -1221v1221h180v-1493h-215l-772 1210v-1210h-180zM389 1880h154l198 -176l195 176h158l-236 -276h-233z" />
<glyph unicode="&#x148;" d="M143 0v1073h158v-180q72 113 155 162t201 49q156 0 248 -80t92 -213v-811h-170v743q0 96 -59 153.5t-162 57.5q-131 0 -212 -99t-81 -263v-592h-170zM274 1495h129l166 -197l162 197h131l-196 -307h-195z" />
<glyph unicode="&#x14a;" horiz-adv-x="1478" d="M156 0v1493h206l781 -1221v1221h180v-1591q0 -195 -113.5 -307.5t-308 -112.5t-303.5 106.5t-109 288.5l191 35q0 -131 57.5 -200.5t165.5 -69.5q104 0 172 91t68 212l-807 1265v-1210h-180z" />
<glyph unicode="&#x14b;" d="M143 0v1073h158v-180q72 113 155 162t201 49q156 0 248 -80t92 -213v-1034q0 -223 -292 -223q-27 0 -58 6v145l41 -2q76 -4 107.5 30t31.5 111v899q0 96 -59 153.5t-162 57.5q-131 0 -212 -99t-81 -263v-592h-170z" />
<glyph unicode="&#x14c;" horiz-adv-x="1593" d="M78 735q0 352 199.5 573.5t519.5 221.5q328 0 525.5 -222.5t197.5 -584.5q0 -334 -198 -547t-523 -213q-324 0 -522.5 212t-198.5 560zM268 735q0 -274 145.5 -439t385.5 -165q238 0 384 164t146 432q0 285 -145.5 460t-386.5 175q-236 0 -382.5 -175.5t-146.5 -451.5z M514 1669v143h561v-143h-561z" />
<glyph unicode="&#x14d;" d="M74 537q0 268 128 417.5t355 149.5q233 0 360 -149.5t127 -426.5q0 -264 -129 -411.5t-356 -147.5q-229 0 -357 149t-128 419zM252 537q0 -195 82 -302.5t225 -107.5q141 0 224 107.5t83 295.5q0 199 -80.5 307.5t-226.5 108.5q-143 0 -225 -108t-82 -301zM285 1270v143 h561v-143h-561z" />
<glyph unicode="&#x14e;" horiz-adv-x="1593" d="M78 735q0 352 199.5 573.5t519.5 221.5q328 0 525.5 -222.5t197.5 -584.5q0 -334 -198 -547t-523 -213q-324 0 -522.5 212t-198.5 560zM268 735q0 -274 145.5 -439t385.5 -165q238 0 384 164t146 432q0 285 -145.5 460t-386.5 175q-236 0 -382.5 -175.5t-146.5 -451.5z M426 1866h145q8 -59 61.5 -81t164.5 -22q213 0 223 103h145q-25 -250 -372 -250q-166 0 -265.5 61.5t-101.5 188.5z" />
<glyph unicode="&#x14f;" d="M74 537q0 268 128 417.5t355 149.5q233 0 360 -149.5t127 -426.5q0 -264 -129 -411.5t-356 -147.5q-229 0 -357 149t-128 419zM252 537q0 -195 82 -302.5t225 -107.5q141 0 224 107.5t83 295.5q0 199 -80.5 307.5t-226.5 108.5q-143 0 -225 -108t-82 -301zM252 1481h110 q25 -61 80.5 -98t121 -37t120.5 36.5t80 98.5h110q0 -117 -92 -197t-219 -80t-219 80t-92 197z" />
<glyph unicode="&#x150;" horiz-adv-x="1593" d="M78 735q0 352 199.5 573.5t519.5 221.5q328 0 525.5 -222.5t197.5 -584.5q0 -334 -198 -547t-523 -213q-324 0 -522.5 212t-198.5 560zM268 735q0 -274 145.5 -439t385.5 -165q238 0 384 164t146 432q0 285 -145.5 460t-386.5 175q-236 0 -382.5 -175.5t-146.5 -451.5z M547 1608l196 307h232l-305 -307h-123zM883 1608l196 307h232l-305 -307h-123z" />
<glyph unicode="&#x151;" d="M74 537q0 268 128 417.5t355 149.5q233 0 360 -149.5t127 -426.5q0 -264 -129 -411.5t-356 -147.5q-229 0 -357 149t-128 419zM252 537q0 -195 82 -302.5t225 -107.5q141 0 224 107.5t83 295.5q0 199 -80.5 307.5t-226.5 108.5q-143 0 -225 -108t-82 -301zM319 1188 l197 307h232l-306 -307h-123zM655 1188l197 307h231l-305 -307h-123z" />
<glyph unicode="&#x152;" horiz-adv-x="2048" d="M88 729q0 365 165 577t447 212q248 0 375 -181v156h879v-168h-688v-487h671v-168h-671v-502h698v-168h-889v162q-137 -193 -377 -193q-285 0 -447.5 202t-162.5 558zM279 737q0 -295 106.5 -447.5t312.5 -152.5q256 0 377 246v721q-121 246 -375 246q-209 0 -315 -156 t-106 -457z" />
<glyph unicode="&#x153;" horiz-adv-x="1933" d="M82 530q0 274 127 424t358 150q276 0 402 -217q63 102 166.5 159.5t228.5 57.5q152 0 267.5 -76t166.5 -207q43 -113 43 -342h-790q2 -168 90 -260t225 -92q205 0 281 199h172q-33 -164 -154 -260.5t-303 -96.5q-270 0 -397 211q-129 -211 -398 -211q-231 0 -358 148.5 t-127 412.5zM260 530q0 -184 83 -293.5t224.5 -109.5t224 108.5t82.5 288.5q0 199 -81.5 310.5t-225 111.5t-225.5 -111.5t-82 -304.5zM1055 618h602q0 145 -82 236.5t-213 91.5q-129 0 -213 -89t-94 -239z" />
<glyph unicode="&#x154;" horiz-adv-x="1478" d="M190 0v1493h689q219 0 336.5 -103.5t117.5 -295.5q0 -127 -55 -211t-180 -146q121 -51 159.5 -128t42.5 -261q2 -150 19.5 -207t71.5 -94v-47h-232q-45 106 -43 244l2 133q2 137 -58.5 201.5t-187.5 64.5h-491v-643h-191zM381 811h461q152 0 222.5 61.5t70.5 194.5 q0 129 -69 193.5t-224 64.5h-461v-514zM666 1604l235 272h279l-367 -272h-147z" />
<glyph unicode="&#x155;" horiz-adv-x="681" d="M143 0v1073h156v-194q74 121 142.5 173t150.5 52q23 0 65 -6v-174q-193 -2 -268.5 -90.5t-75.5 -276.5v-557h-170zM252 1190l197 303h231l-305 -303h-123z" />
<glyph unicode="&#x156;" horiz-adv-x="1478" d="M190 0v1493h689q219 0 336.5 -103.5t117.5 -295.5q0 -127 -55 -211t-180 -146q121 -51 159.5 -128t42.5 -261q2 -150 19.5 -207t71.5 -94v-47h-232q-45 106 -43 244l2 133q2 137 -58.5 201.5t-187.5 64.5h-491v-643h-191zM381 811h461q152 0 222.5 61.5t70.5 194.5 q0 129 -69 193.5t-224 64.5h-461v-514zM639 -123h205v-211q0 -117 -54.5 -182.5t-150.5 -65.5v78q113 0 113 160v16h-113v205z" />
<glyph unicode="&#x157;" horiz-adv-x="681" d="M129 -123h205v-211q0 -117 -54.5 -182.5t-150.5 -65.5v78q113 0 113 160v16h-113v205zM143 0v1073h156v-194q74 121 142.5 173t150.5 52q23 0 65 -6v-174q-193 -2 -268.5 -90.5t-75.5 -276.5v-557h-170z" />
<glyph unicode="&#x158;" horiz-adv-x="1478" d="M190 0v1493h689q219 0 336.5 -103.5t117.5 -295.5q0 -127 -55 -211t-180 -146q121 -51 159.5 -128t42.5 -261q2 -150 19.5 -207t71.5 -94v-47h-232q-45 106 -43 244l2 133q2 137 -58.5 201.5t-187.5 64.5h-491v-643h-191zM381 811h461q152 0 222.5 61.5t70.5 194.5 q0 129 -69 193.5t-224 64.5h-461v-514zM389 1880h154l198 -176l195 176h158l-236 -276h-233z" />
<glyph unicode="&#x159;" horiz-adv-x="681" d="M18 1495h129l166 -197l162 197h131l-196 -307h-195zM143 0v1073h156v-194q74 121 142.5 173t150.5 52q23 0 65 -6v-174q-193 -2 -268.5 -90.5t-75.5 -276.5v-557h-170z" />
<glyph unicode="&#x15a;" horiz-adv-x="1366" d="M98 485h181q0 -164 107.5 -259t313.5 -95q381 0 381 260q0 170 -274 242l-371 98q-293 76 -293 348q0 205 143.5 328t387.5 123q258 0 402.5 -122t144.5 -341h-181q0 145 -97 224t-275 79q-150 0 -242 -74.5t-92 -189.5q0 -86 55 -136t191 -85l374 -101q152 -41 235 -139 t83 -235q0 -205 -152.5 -326t-431.5 -121q-272 0 -431 133t-159 389zM610 1604l236 272h278l-366 -272h-148z" />
<glyph unicode="&#x15b;" horiz-adv-x="1024" d="M70 328h180q16 -117 77.5 -159t184.5 -42q113 0 181.5 43t68.5 117q0 57 -38 88t-128 53l-160 39q-190 45 -265 113.5t-75 195.5q0 150 113 239t299 89t286.5 -86t102.5 -244h-180q-6 172 -215 172q-104 0 -166 -44t-62 -118q0 -57 47.5 -93t151.5 -60l164 -39 q162 -39 232.5 -105.5t70.5 -185.5q0 -154 -120 -243t-322 -89q-211 0 -316.5 87.5t-111.5 271.5zM451 1190l196 303h232l-306 -303h-122z" />
<glyph unicode="&#x15c;" horiz-adv-x="1366" d="M98 485h181q0 -164 107.5 -259t313.5 -95q381 0 381 260q0 170 -274 242l-371 98q-293 76 -293 348q0 205 143.5 328t387.5 123q258 0 402.5 -122t144.5 -341h-181q0 145 -97 224t-275 79q-150 0 -242 -74.5t-92 -189.5q0 -86 55 -136t191 -85l374 -101q152 -41 235 -139 t83 -235q0 -205 -152.5 -326t-431.5 -121q-272 0 -431 133t-159 389zM332 1604l235 276h234l235 -276h-153l-199 176l-195 -176h-157z" />
<glyph unicode="&#x15d;" horiz-adv-x="1024" d="M70 328h180q16 -117 77.5 -159t184.5 -42q113 0 181.5 43t68.5 117q0 57 -38 88t-128 53l-160 39q-190 45 -265 113.5t-75 195.5q0 150 113 239t299 89t286.5 -86t102.5 -244h-180q-6 172 -215 172q-104 0 -166 -44t-62 -118q0 -57 47.5 -93t151.5 -60l164 -39 q162 -39 232.5 -105.5t70.5 -185.5q0 -154 -120 -243t-322 -89q-211 0 -316.5 87.5t-111.5 271.5zM217 1188l197 307h194l197 -307h-129l-166 196l-162 -196h-131z" />
<glyph unicode="&#x15e;" horiz-adv-x="1366" d="M98 485h181q0 -164 107.5 -259t313.5 -95q381 0 381 260q0 170 -274 242l-371 98q-293 76 -293 348q0 205 143.5 328t387.5 123q258 0 402.5 -122t144.5 -341h-181q0 145 -97 224t-275 79q-150 0 -242 -74.5t-92 -189.5q0 -86 55 -136t191 -85l374 -101q152 -41 235 -139 t83 -235q0 -193 -137.5 -313t-389.5 -132l-28 -76h47q74 0 118 -50t44 -120q0 -88 -67.5 -139t-184.5 -51q-96 0 -256 70l43 82l18 -9q119 -59 183 -59q47 0 78.5 26.5t31.5 65.5q0 37 -25.5 63.5t-68.5 26.5q-29 0 -64 -8l-34 25l65 151q-254 10 -400.5 143t-146.5 379z " />
<glyph unicode="&#x15f;" horiz-adv-x="1024" d="M70 328h180q16 -117 77.5 -159t184.5 -42q113 0 181.5 43t68.5 117q0 57 -38 88t-128 53l-160 39q-190 45 -265 113.5t-75 195.5q0 150 113 239t299 89t286.5 -86t102.5 -244h-180q-6 172 -215 172q-104 0 -166 -44t-62 -118q0 -57 47.5 -93t151.5 -60l164 -39 q162 -39 232.5 -105.5t70.5 -185.5q0 -143 -102.5 -230t-282.5 -100l-33 -82h47q74 0 118 -50t44 -120q0 -88 -67.5 -139t-184.5 -51q-96 0 -256 70l43 82l19 -9q119 -59 182 -59q47 0 79 26.5t32 65.5q0 37 -26 63.5t-69 26.5q-29 0 -63 -8l-35 25l70 157 q-190 10 -284.5 96.5t-100.5 262.5z" />
<glyph unicode="&#x160;" horiz-adv-x="1366" d="M98 485h181q0 -164 107.5 -259t313.5 -95q381 0 381 260q0 170 -274 242l-371 98q-293 76 -293 348q0 205 143.5 328t387.5 123q258 0 402.5 -122t144.5 -341h-181q0 145 -97 224t-275 79q-150 0 -242 -74.5t-92 -189.5q0 -86 55 -136t191 -85l374 -101q152 -41 235 -139 t83 -235q0 -205 -152.5 -326t-431.5 -121q-272 0 -431 133t-159 389zM334 1880h153l199 -176l195 176h157l-235 -276h-234z" />
<glyph unicode="&#x161;" horiz-adv-x="1024" d="M70 328h180q16 -117 77.5 -159t184.5 -42q113 0 181.5 43t68.5 117q0 57 -38 88t-128 53l-160 39q-190 45 -265 113.5t-75 195.5q0 150 113 239t299 89t286.5 -86t102.5 -244h-180q-6 172 -215 172q-104 0 -166 -44t-62 -118q0 -57 47.5 -93t151.5 -60l164 -39 q162 -39 232.5 -105.5t70.5 -185.5q0 -154 -120 -243t-322 -89q-211 0 -316.5 87.5t-111.5 271.5zM217 1495h129l166 -197l162 197h131l-197 -307h-194z" />
<glyph unicode="&#x162;" horiz-adv-x="1251" d="M43 1325v168h1171v-168h-489v-1325h-57l-43 -111h47q74 0 118 -50t44 -120q0 -88 -68 -139t-184 -51q-96 0 -256 70l43 82l18 -9q119 -59 182 -59q47 0 79 26.5t32 65.5q0 37 -25.5 63.5t-68.5 26.5q-29 0 -64 -8l-35 25l82 188h-34v1325h-492z" />
<glyph unicode="&#x163;" horiz-adv-x="569" d="M29 934v139h145v295h170v-295h176v-139h-176v-703q0 -57 19.5 -76.5t74.5 -19.5q51 0 82 8v-143q-80 -14 -139 -14h-6l-37 -97h47q74 0 118 -50t44 -120q0 -88 -67.5 -139t-184.5 -51q-96 0 -256 70l43 82l18 -9q119 -59 183 -59q47 0 78.5 26.5t31.5 65.5 q0 37 -25.5 63.5t-68.5 26.5q-29 0 -63 -8l-35 25l82 188q-109 37 -109 156v778h-145z" />
<glyph unicode="&#x164;" horiz-adv-x="1251" d="M43 1325v168h1171v-168h-489v-1325h-190v1325h-492zM281 1880h153l199 -176l194 176h158l-235 -276h-234z" />
<glyph unicode="&#x165;" horiz-adv-x="569" d="M29 934v139h145v295h170v-295h176v-139h-176v-703q0 -57 19.5 -76.5t74.5 -19.5q51 0 82 8v-143q-80 -14 -139 -14q-100 0 -153.5 44t-53.5 126v778h-145zM414 1143v78q113 0 112 159v17h-112v205h204v-211q0 -117 -54 -182.5t-150 -65.5z" />
<glyph unicode="&#x168;" horiz-adv-x="1478" d="M174 455v1038h191v-1038q0 -158 103 -241t277 -83q180 0 282.5 86t102.5 238v1038h191v-1038q0 -225 -156.5 -358.5t-419.5 -133.5q-266 0 -418.5 132.5t-152.5 359.5zM410 1636q16 100 62 155.5t114 55.5q47 0 143 -39q84 -37 129 -36q51 0 76 75h119 q-31 -213 -183 -213q-43 0 -174 52q-72 27 -100 26q-47 0 -68 -76h-118z" />
<glyph unicode="&#x169;" d="M133 262v811h170v-743q0 -96 59.5 -153.5t161.5 -57.5q133 0 213 99t80 263v592h170v-1073h-153v166q-76 -106 -158 -151.5t-201 -45.5q-156 0 -249 80t-93 213zM238 1237q16 100 62 155.5t114 55.5q47 0 143 -39q84 -37 129 -37q51 0 76 76h119q-31 -213 -183 -213 q-43 0 -174 51q-72 27 -100 27q-47 0 -68 -76h-118z" />
<glyph unicode="&#x16a;" horiz-adv-x="1478" d="M174 455v1038h191v-1038q0 -158 103 -241t277 -83q180 0 282.5 86t102.5 238v1038h191v-1038q0 -225 -156.5 -358.5t-419.5 -133.5q-266 0 -418.5 132.5t-152.5 359.5zM457 1669v143h561v-143h-561z" />
<glyph unicode="&#x16b;" d="M133 262v811h170v-743q0 -96 59.5 -153.5t161.5 -57.5q133 0 213 99t80 263v592h170v-1073h-153v166q-76 -106 -158 -151.5t-201 -45.5q-156 0 -249 80t-93 213zM285 1270v143h561v-143h-561z" />
<glyph unicode="&#x16c;" horiz-adv-x="1478" d="M174 455v1038h191v-1038q0 -158 103 -241t277 -83q180 0 282.5 86t102.5 238v1038h191v-1038q0 -225 -156.5 -358.5t-419.5 -133.5q-266 0 -418.5 132.5t-152.5 359.5zM369 1866h145q8 -59 61.5 -81t163.5 -22q213 0 224 103h145q-25 -250 -373 -250q-166 0 -265 61.5 t-101 188.5z" />
<glyph unicode="&#x16d;" d="M133 262v811h170v-743q0 -96 59.5 -153.5t161.5 -57.5q133 0 213 99t80 263v592h170v-1073h-153v166q-76 -106 -158 -151.5t-201 -45.5q-156 0 -249 80t-93 213zM252 1481h110q25 -61 80.5 -98t121 -37t120.5 36.5t80 98.5h110q0 -117 -92 -197t-219 -80t-219 80t-92 197 z" />
<glyph unicode="&#x16e;" horiz-adv-x="1478" d="M174 455v1038h191v-1038q0 -158 103 -241t277 -83q180 0 282.5 86t102.5 238v1038h191v-1038q0 -225 -156.5 -358.5t-419.5 -133.5q-266 0 -418.5 132.5t-152.5 359.5zM543 1774q0 78 58 136t140 58t139.5 -58.5t57.5 -140.5q0 -80 -58.5 -137t-138.5 -57 q-82 0 -140 58.5t-58 140.5zM641 1774q0 -41 29.5 -71t70.5 -30q39 0 69 29t30 67q0 43 -29 72t-70 29t-70.5 -28.5t-29.5 -67.5z" />
<glyph unicode="&#x16f;" d="M133 262v811h170v-743q0 -96 59.5 -153.5t161.5 -57.5q133 0 213 99t80 263v592h170v-1073h-153v166q-76 -106 -158 -151.5t-201 -45.5q-156 0 -249 80t-93 213zM371 1343q0 78 58 136.5t140 58.5t139.5 -58.5t57.5 -140.5q0 -80 -58.5 -137t-138.5 -57q-82 0 -140 58 t-58 140zM469 1343q0 -41 29.5 -70.5t70.5 -29.5q39 0 69 28.5t30 67.5q0 43 -29 72t-70 29t-70.5 -29t-29.5 -68z" />
<glyph unicode="&#x170;" horiz-adv-x="1478" d="M174 455v1038h191v-1038q0 -158 103 -241t277 -83q180 0 282.5 86t102.5 238v1038h191v-1038q0 -225 -156.5 -358.5t-419.5 -133.5q-266 0 -418.5 132.5t-152.5 359.5zM489 1608l197 307h232l-306 -307h-123zM825 1608l197 307h231l-305 -307h-123z" />
<glyph unicode="&#x171;" d="M133 262v811h170v-743q0 -96 59.5 -153.5t161.5 -57.5q133 0 213 99t80 263v592h170v-1073h-153v166q-76 -106 -158 -151.5t-201 -45.5q-156 0 -249 80t-93 213zM319 1188l197 307h232l-306 -307h-123zM655 1188l197 307h231l-305 -307h-123z" />
<glyph unicode="&#x172;" horiz-adv-x="1478" d="M174 455v1038h191v-1038q0 -158 103 -241t277 -83q180 0 282.5 86t102.5 238v1038h191v-1038q0 -166 -89 -286t-249 -171q-78 -27 -130 -85t-52 -134q0 -90 90 -90h102v-160h-102q-100 0 -175 53t-75 146q0 129 117 235h-13q-266 0 -418.5 132.5t-152.5 359.5z" />
<glyph unicode="&#x173;" d="M133 262v811h170v-743q0 -96 59.5 -153.5t161.5 -57.5q133 0 213 99t80 263v592h170v-1073q-92 -23 -139 -100q-33 -47 -33 -121q0 -90 90 -90h103v-160h-103q-100 0 -175 53t-75 146q0 80 41 145q49 84 138 127v166q-76 -106 -158 -151.5t-201 -45.5q-156 0 -249 80 t-93 213z" />
<glyph unicode="&#x174;" horiz-adv-x="1933" d="M45 1493h213l281 -1212l331 1212h205l340 -1212l275 1212h213l-379 -1493h-209l-344 1227l-334 -1227h-209zM614 1604l236 276h233l236 -276h-154l-198 176l-195 -176h-158z" />
<glyph unicode="&#x175;" horiz-adv-x="1478" d="M12 1073h189l219 -835l205 835h209l210 -835l213 835h193l-315 -1073h-195l-217 842l-207 -842h-192zM444 1188l197 307h195l196 -307h-129l-166 196l-162 -196h-131z" />
<glyph unicode="&#x176;" horiz-adv-x="1366" d="M27 1493h235l438 -727l426 727h228l-561 -907v-586h-191v586zM346 1604l236 276h233l236 -276h-154l-199 176l-194 -176h-158z" />
<glyph unicode="&#x177;" horiz-adv-x="1024" d="M41 1073h182l275 -835l297 835h184l-477 -1298q-82 -221 -277 -221q-63 0 -114 26v154q55 -12 90 -13q55 0 84.5 24t52.5 81l65 170zM217 1188l197 307h194l197 -307h-129l-166 196l-162 -196h-131z" />
<glyph unicode="&#x178;" horiz-adv-x="1366" d="M27 1493h235l438 -727l426 727h228l-561 -907v-586h-191v586zM440 1636v209h187v-209h-187zM772 1636v209h186v-209h-186z" />
<glyph unicode="&#x179;" horiz-adv-x="1251" d="M57 0v168l897 1157h-839v168h1075v-172l-893 -1153h897v-168h-1137zM580 1604l235 272h279l-367 -272h-147z" />
<glyph unicode="&#x17a;" horiz-adv-x="1024" d="M63 0v154l642 770h-599v149h801v-151l-637 -772h666v-150h-873zM451 1190l196 303h232l-306 -303h-122z" />
<glyph unicode="&#x17b;" horiz-adv-x="1251" d="M57 0v168l897 1157h-839v168h1075v-172l-893 -1153h897v-168h-1137zM549 1634v213h213v-213h-213z" />
<glyph unicode="&#x17c;" horiz-adv-x="1024" d="M63 0v154l642 770h-599v149h801v-151l-637 -772h666v-150h-873zM406 1235v213h212v-213h-212z" />
<glyph unicode="&#x17d;" horiz-adv-x="1251" d="M57 0v168l897 1157h-839v168h1075v-172l-893 -1153h897v-168h-1137zM303 1880h154l198 -176l195 176h158l-236 -276h-233z" />
<glyph unicode="&#x17e;" horiz-adv-x="1024" d="M63 0v154l642 770h-599v149h801v-151l-637 -772h666v-150h-873zM217 1495h129l166 -197l162 197h131l-197 -307h-194z" />
<glyph unicode="&#x17f;" horiz-adv-x="569" d="M180 0v1255q0 115 66.5 179.5t185.5 64.5q47 0 96 -10v-141q-39 2 -59 2q-119 0 -119 -109v-1241h-170z" />
<glyph unicode="&#x18e;" horiz-adv-x="1366" d="M184 0v168h881v512h-813v168h813v477h-844v168h1034v-1493h-1071z" />
<glyph unicode="&#x192;" d="M23 -414l34 172q51 -33 105 -32q152 0 196 231l160 846h-231v143h256l45 213q35 170 133 261t227 91q72 0 162 -38l-61 -162q-66 37 -107 37q-147 0 -192 -258l-25 -144h231v-143h-258l-153 -813q-80 -424 -410 -424q-73 0 -112 20z" />
<glyph unicode="&#x1a0;" horiz-adv-x="1593" d="M78 743q0 348 198.5 561.5t520.5 213.5q334 0 528 -222q92 76 92 197h-98v213h190v-207q0 -174 -131 -270q141 -205 142 -498q0 -182 -69 -342t-189 -262q-186 -158 -463 -158q-324 0 -522.5 212t-198.5 562zM268 743.5q0 -274.5 145.5 -440.5t385.5 -166q238 0 384 164 t146 434q0 283 -144.5 449t-387.5 166q-238 0 -383.5 -166t-145.5 -440.5z" />
<glyph unicode="&#x1a1;" horiz-adv-x="1169" d="M74 537q0 268 128 417.5t355 149.5q281 0 408 -225q88 76 88 194h-99v213h191v-207q0 -182 -146 -278q45 -125 45 -273q0 -264 -129 -411.5t-356 -147.5q-229 0 -357 149t-128 419zM252 537q0 -195 82 -302.5t225 -107.5q141 0 224 107.5t83 295.5q0 199 -80.5 307.5 t-226.5 108.5q-143 0 -225 -108t-82 -301z" />
<glyph unicode="&#x1af;" horiz-adv-x="1599" d="M174 461v1032h191v-1032q0 -162 108 -246q109 -78 272 -78q180 0 282.5 86t102.5 238v1032h191v-238q59 23 109.5 85.5t50.5 152.5h-99v213h191v-207q0 -141 -81 -224t-171 -104v-710q0 -225 -156.5 -358.5t-419.5 -133.5q-266 0 -418.5 132.5t-152.5 359.5z" />
<glyph unicode="&#x1b0;" horiz-adv-x="1257" d="M133 262v811h170v-743q0 -96 59.5 -153.5t161.5 -57.5q133 0 213 99t80 263v592h170v-233q59 23 107.5 86t48.5 149h-99v213h191v-207q0 -139 -79 -222t-169 -105v-754h-153v166q-76 -106 -158 -151.5t-201 -45.5q-156 0 -249 80t-93 213z" />
<glyph unicode="&#x1dd;" d="M82 586h790q-2 178 -89 269t-226 91q-215 0 -281 -198h-172q33 164 155 260t304 96q227 0 357.5 -148.5t130.5 -412.5t-133.5 -419t-358.5 -155q-152 0 -267.5 76t-166.5 207q-43 113 -43 334zM264 434q0 -127 86 -217t211 -90q129 0 213 88t94 231h-602z" />
<glyph unicode="&#x1e6;" horiz-adv-x="1593" d="M90 731q0 346 191.5 572.5t525.5 226.5q256 0 420 -130t205 -360h-195q-31 145 -147.5 233.5t-284.5 88.5q-236 0 -380 -172t-144 -448.5t142 -443.5t392 -167q205 0 337 125t132 324v41h-455v167h623v-788h-121l-47 197q-209 -233 -510 -234q-303 0 -493.5 212 t-190.5 556zM457 1880h153l199 -176l195 176h157l-235 -276h-234z" />
<glyph unicode="&#x1e7;" d="M59 526q0 260 126 419t331 159q201 0 328 -186v155h157v-897q0 -348 -110.5 -485t-368.5 -137q-188 0 -300.5 86t-127.5 237h174q29 -180 260 -180q156 0 236 93t80 300v72q-86 -102 -164 -147.5t-178 -45.5q-193 0 -318 153.5t-125 403.5zM238 537q0 -195 78.5 -302.5 t220.5 -107.5q135 0 212.5 106.5t77.5 296.5q0 195 -77.5 305.5t-215 110.5t-217 -108t-79.5 -301zM274 1495h129l166 -197l162 197h131l-196 -307h-195z" />
<glyph unicode="&#x1ea;" horiz-adv-x="1593" d="M78 735q0 352 199.5 573.5t519.5 221.5q328 0 525.5 -222.5t197.5 -584.5q0 -264 -128 -457.5t-350 -265.5q-84 -29 -140 -87t-56 -134q0 -90 90 -90h102v-160h-102q-100 0 -175 53t-75 146q0 129 117 235h-4q-324 0 -522.5 212t-198.5 560zM268 735q0 -274 145.5 -439 t385.5 -165q238 0 384 164t146 432q0 285 -145.5 460t-386.5 175q-236 0 -382.5 -175.5t-146.5 -451.5z" />
<glyph unicode="&#x1eb;" d="M74 537q0 268 128 417.5t355 149.5q233 0 360 -149.5t127 -426.5q0 -197 -73.5 -331t-208.5 -191q-66 -27 -105 -89t-39 -138q0 -90 91 -90h102v-160h-102q-100 0 -175 53t-75 146q0 133 125 241h-25q-229 0 -357 149t-128 419zM252 537q0 -195 82 -302.5t225 -107.5 q141 0 224 107.5t83 295.5q0 199 -80.5 307.5t-226.5 108.5q-143 0 -225 -108t-82 -301z" />
<glyph unicode="&#x1f4;" horiz-adv-x="1593" d="M90 731q0 346 191.5 572.5t525.5 226.5q256 0 420 -130t205 -360h-195q-31 145 -147.5 233.5t-284.5 88.5q-236 0 -380 -172t-144 -448.5t142 -443.5t392 -167q205 0 337 125t132 324v41h-455v167h623v-788h-121l-47 197q-209 -233 -510 -234q-303 0 -493.5 212 t-190.5 556zM733 1604l236 272h278l-366 -272h-148z" />
<glyph unicode="&#x1f5;" d="M59 526q0 260 126 419t331 159q201 0 328 -186v155h157v-897q0 -348 -110.5 -485t-368.5 -137q-188 0 -300.5 86t-127.5 237h174q29 -180 260 -180q156 0 236 93t80 300v72q-86 -102 -164 -147.5t-178 -45.5q-193 0 -318 153.5t-125 403.5zM238 537q0 -195 78.5 -302.5 t220.5 -107.5q135 0 212.5 106.5t77.5 296.5q0 195 -77.5 305.5t-215 110.5t-217 -108t-79.5 -301zM508 1190l197 303h231l-305 -303h-123z" />
<glyph unicode="&#x1fa;" horiz-adv-x="1366" d="M35 0l532 1493h246l524 -1493h-213l-153 449h-576l-157 -449h-203zM442 608h476l-230 680zM494 1774q0 78 58 136t140 58t139.5 -58.5t57.5 -140.5q0 -80 -58.5 -137t-138.5 -57q-82 0 -140 58.5t-58 140.5zM592 1774q0 -41 29.5 -71t70.5 -30q39 0 69 29t30 67 q0 43 -29 72t-70 29t-70.5 -28.5t-29.5 -67.5zM616 2009l236 272h278l-366 -272h-148z" />
<glyph unicode="&#x1fb;" d="M86 279q0 201 188 278q51 20 108.5 31.5t235.5 34.5q100 12 139.5 38.5t39.5 79.5v45q0 78 -62.5 119t-177.5 41q-119 0 -180.5 -46t-71.5 -144h-172q14 348 430 348q199 0 301.5 -75t102.5 -218v-598q0 -84 92 -84q18 0 37 4v-129q-72 -18 -117 -18q-63 0 -112.5 40 t-63.5 101q-147 -158 -365 -158q-164 0 -258 82.5t-94 227.5zM264 283q0 -164 211 -164q129 0 225.5 70.5t96.5 181.5v159q-68 -31 -275 -59q-139 -20 -198.5 -62t-59.5 -126zM367 1354q0 78 58 136t140 58t139.5 -58t57.5 -140q0 -80 -58.5 -137.5t-138.5 -57.5 q-82 0 -140 58.5t-58 140.5zM465 1354q0 -41 29.5 -71t70.5 -30q39 0 69 29t30 68q0 43 -29 71.5t-70 28.5t-70.5 -28.5t-29.5 -67.5zM489 1589l236 273h279l-367 -273h-148z" />
<glyph unicode="&#x1fc;" horiz-adv-x="2048" d="M23 0l612 1493h1274v-168h-760v-477h721v-168h-721v-512h797v-168h-988v438h-550l-175 -438h-210zM471 606h487v719h-204zM950 1604l236 272h278l-366 -272h-148z" />
<glyph unicode="&#x1fd;" horiz-adv-x="1820" d="M70 279q0 168 111.5 241.5t420.5 100.5q104 8 141 34.5t37 85.5v45q0 160 -241 160q-229 0 -250 -190h-172q14 348 426 348q262 0 358 -168q55 78 149.5 123t204.5 45q150 0 264.5 -76t168.5 -207q43 -113 43 -342h-791q2 -168 90 -260t225 -92q205 0 283 199h172 q-33 -164 -154.5 -260.5t-302.5 -96.5q-119 0 -215 45t-149 125l-33 56q-115 -119 -218 -172.5t-224 -53.5q-158 0 -251 83.5t-93 226.5zM248 283q0 -80 54 -122t151 -42q113 0 220 74.5t107 144.5v190q-68 -29 -274 -59q-141 -20 -199.5 -61t-58.5 -125zM850 1190l197 303 h231l-305 -303h-123zM944 618h602q0 145 -82 236.5t-213 91.5q-129 0 -213 -89t-94 -239z" />
<glyph unicode="&#x1fe;" horiz-adv-x="1593" d="M78 43l162 176q-162 203 -162 516q0 352 199.5 573.5t519.5 221.5q291 0 481 -178l158 174l84 -76l-166 -180q166 -217 166 -547q0 -334 -198 -547t-523 -213q-293 0 -484 172l-153 -168zM268 735q0 -225 99 -377l788 861q-139 143 -358 143q-236 0 -382.5 -175.5 t-146.5 -451.5zM438 270q139 -139 361 -139q238 0 384 164t146 432q0 240 -104 401zM723 1604l235 272h279l-367 -272h-147z" />
<glyph unicode="&#x1ff;" d="M74 537q0 268 128 417.5t355 149.5q201 0 322 -111l86 101l75 -64l-94 -112q98 -150 98 -390q0 -264 -129 -411.5t-356 -147.5q-197 0 -319 111l-86 -100l-76 63l94 113q-98 150 -98 381zM252 537q0 -139 43 -236l471 559q-78 86 -207 86q-143 0 -225 -108t-82 -301z M352 213q80 -86 207 -86q141 0 224 107.5t83 295.5q0 143 -43 242zM565 1190l197 303h231l-305 -303h-123z" />
<glyph unicode="&#x200;" horiz-adv-x="1366" d="M35 0l532 1493h246l524 -1493h-213l-153 449h-576l-157 -449h-203zM176 1915h232l196 -307h-123zM442 608h476l-230 680zM512 1915h231l197 -307h-123z" />
<glyph unicode="&#x201;" d="M49 1495h232l196 -307h-123zM86 279q0 201 188 278q51 20 108.5 31.5t235.5 34.5q100 12 139.5 38.5t39.5 79.5v45q0 78 -62.5 119t-177.5 41q-119 0 -180.5 -46t-71.5 -144h-172q14 348 430 348q199 0 301.5 -75t102.5 -218v-598q0 -84 92 -84q18 0 37 4v-129 q-72 -18 -117 -18q-63 0 -112.5 40t-63.5 101q-147 -158 -365 -158q-164 0 -258 82.5t-94 227.5zM264 283q0 -164 211 -164q129 0 225.5 70.5t96.5 181.5v159q-68 -31 -275 -59q-139 -20 -198.5 -62t-59.5 -126zM385 1495h231l197 -307h-123z" />
<glyph unicode="&#x204;" horiz-adv-x="1366" d="M184 0v1493h1035v-168h-844v-477h813v-168h-813v-512h880v-168h-1071zM188 1915h232l196 -307h-122zM524 1915h232l196 -307h-123z" />
<glyph unicode="&#x205;" d="M59 1495h232l196 -307h-122zM82 530.5q0 264.5 133 419t358 154.5q152 0 267.5 -76t167.5 -207q43 -113 43 -334h-791q2 -178 89 -269t226 -91q215 0 281 199h172q-33 -164 -154.5 -260.5t-304.5 -96.5q-227 0 -357 148.5t-130 413zM264 627h602l2 12q0 127 -86 217 t-211 90q-129 0 -213 -88t-94 -231zM395 1495h232l196 -307h-123z" />
<glyph unicode="&#x208;" horiz-adv-x="569" d="M-213 1915h231l197 -307h-123zM123 1915h231l197 -307h-123zM205 0v1493h190v-1493h-190z" />
<glyph unicode="&#x209;" horiz-adv-x="569" d="M-227 1495h231l197 -307h-123zM109 1495h231l197 -307h-123zM201 0v1073h170v-1073h-170z" />
<glyph unicode="&#x20c;" horiz-adv-x="1593" d="M78 735q0 352 199.5 573.5t519.5 221.5q328 0 525.5 -222.5t197.5 -584.5q0 -334 -198 -547t-523 -213q-324 0 -522.5 212t-198.5 560zM268 735q0 -274 145.5 -439t385.5 -165q238 0 384 164t146 432q0 285 -145.5 460t-386.5 175q-236 0 -382.5 -175.5t-146.5 -451.5z M283 1915h231l197 -307h-123zM618 1915h232l197 -307h-123z" />
<glyph unicode="&#x20d;" d="M55 1495h232l196 -307h-123zM74 537q0 268 128 417.5t355 149.5q233 0 360 -149.5t127 -426.5q0 -264 -129 -411.5t-356 -147.5q-229 0 -357 149t-128 419zM252 537q0 -195 82 -302.5t225 -107.5q141 0 224 107.5t83 295.5q0 199 -80.5 307.5t-226.5 108.5 q-143 0 -225 -108t-82 -301zM391 1495h232l196 -307h-123z" />
<glyph unicode="&#x210;" horiz-adv-x="1478" d="M190 0v1493h689q219 0 336.5 -103.5t117.5 -295.5q0 -127 -55 -211t-180 -146q121 -51 159.5 -128t42.5 -261q2 -150 19.5 -207t71.5 -94v-47h-232q-45 106 -43 244l2 133q2 137 -58.5 201.5t-187.5 64.5h-491v-643h-191zM225 1915h232l196 -307h-123zM381 811h461 q152 0 222.5 61.5t70.5 194.5q0 129 -69 193.5t-224 64.5h-461v-514zM561 1915h232l196 -307h-123z" />
<glyph unicode="&#x211;" horiz-adv-x="681" d="M-201 1495h232l196 -307h-123zM135 1495h232l196 -307h-123zM143 0v1073h156v-194q74 121 142.5 173t150.5 52q23 0 65 -6v-174q-193 -2 -268.5 -90.5t-75.5 -276.5v-557h-170z" />
<glyph unicode="&#x214;" horiz-adv-x="1478" d="M174 455v1038h191v-1038q0 -158 103 -241t277 -83q180 0 282.5 86t102.5 238v1038h191v-1038q0 -225 -156.5 -358.5t-419.5 -133.5q-266 0 -418.5 132.5t-152.5 359.5zM225 1915h232l196 -307h-123zM561 1915h232l196 -307h-123z" />
<glyph unicode="&#x215;" d="M55 1495h232l196 -307h-123zM133 262v811h170v-743q0 -96 59.5 -153.5t161.5 -57.5q133 0 213 99t80 263v592h170v-1073h-153v166q-76 -106 -158 -151.5t-201 -45.5q-156 0 -249 80t-93 213zM391 1495h232l196 -307h-123z" />
<glyph unicode="&#x218;" horiz-adv-x="1366" d="M98 485h181q0 -164 107.5 -259t313.5 -95q381 0 381 260q0 170 -274 242l-371 98q-293 76 -293 348q0 205 143.5 328t387.5 123q258 0 402.5 -122t144.5 -341h-181q0 145 -97 224t-275 79q-150 0 -242 -74.5t-92 -189.5q0 -86 55 -136t191 -85l374 -101q152 -41 235 -139 t83 -235q0 -205 -152.5 -326t-431.5 -121q-272 0 -431 133t-159 389zM584 -123h204v-211q0 -117 -54 -182.5t-150 -65.5v78q113 0 112 160v16h-112v205z" />
<glyph unicode="&#x219;" horiz-adv-x="1024" d="M70 328h180q16 -117 77.5 -159t184.5 -42q113 0 181.5 43t68.5 117q0 57 -38 88t-128 53l-160 39q-190 45 -265 113.5t-75 195.5q0 150 113 239t299 89t286.5 -86t102.5 -244h-180q-6 172 -215 172q-104 0 -166 -44t-62 -118q0 -57 47.5 -93t151.5 -60l164 -39 q162 -39 232.5 -105.5t70.5 -185.5q0 -154 -120 -243t-322 -89q-211 0 -316.5 87.5t-111.5 271.5zM412 -123h204v-211q0 -117 -54 -182.5t-150 -65.5v78q113 0 112 160v16h-112v205z" />
<glyph unicode="&#x21a;" horiz-adv-x="1251" d="M43 1325v168h1171v-168h-489v-1325h-190v1325h-492zM530 -123h205v-211q0 -117 -54 -182.5t-151 -65.5v78q113 0 113 160v16h-113v205z" />
<glyph unicode="&#x21b;" horiz-adv-x="569" d="M29 934v139h145v295h170v-295h176v-139h-176v-703q0 -57 19.5 -76.5t74.5 -19.5q51 0 82 8v-143q-80 -14 -139 -14q-100 0 -153.5 44t-53.5 126v778h-145zM184 -123h205v-211q0 -117 -54 -182.5t-151 -65.5v78q113 0 113 160v16h-113v205z" />
<glyph unicode="&#x258;" d="M82 487q0 221 43 334q51 131 167 207t267 76q225 0 358.5 -154.5t133.5 -419t-130 -413t-358 -148.5q-182 0 -304 96.5t-155 260.5h172q66 -199 281 -199q139 0 226 91t89 269h-790zM264 639l2 -12h602q-10 143 -94 231t-213 88q-125 0 -211 -90t-86 -217z" />
<glyph unicode="&#x259;" d="M82 586h790q-2 178 -89 269t-226 91q-215 0 -281 -198h-172q33 164 155 260t304 96q227 0 357.5 -148.5t130.5 -412.5t-133.5 -419t-358.5 -155q-152 0 -267.5 76t-166.5 207q-43 113 -43 334zM264 434q0 -127 86 -217t211 -90q129 0 213 88t94 231h-602z" />
<glyph unicode="&#x2be;" horiz-adv-x="919" d="M139 1159q10 131 92 206t215 75q154 0 244 -103.5t90 -283.5q0 -184 -91 -293t-243 -109q-131 0 -209.5 70t-89.5 207q-4 16 17 16h115q12 0 16 -14q18 -141 151 -142q88 0 135.5 69t47.5 196q0 119 -48.5 184.5t-136.5 65.5q-135 0 -157 -148q-4 -14 -17 -14h-114 q-21 0 -17 18z" />
<glyph unicode="&#x2bf;" horiz-adv-x="919" d="M139 1038q0 184 91.5 293t242.5 109q131 0 210 -70t89 -207q4 -16 -16 -16h-115q-12 0 -16 14q-18 141 -152 142q-88 0 -135 -69t-47 -196q0 -119 48 -184.5t136 -65.5q135 0 158 148q4 14 16 14h115q20 0 16 -18q-10 -131 -92 -206t-215 -75q-154 0 -244 103.5 t-90 283.5z" />
<glyph unicode="&#x2c6;" horiz-adv-x="681" d="M47 1188l197 307h194l197 -307h-129l-166 196l-162 -196h-131z" />
<glyph unicode="&#x2c7;" horiz-adv-x="681" d="M47 1495h129l166 -197l162 197h131l-197 -307h-194z" />
<glyph unicode="&#x2d8;" horiz-adv-x="681" d="M25 1481h110q25 -61 80 -98t120.5 -37t121 36.5t80.5 98.5h110q0 -117 -92 -197t-219 -80t-219 80t-92 197z" />
<glyph unicode="&#x2d9;" horiz-adv-x="681" d="M236 1235v213h213v-213h-213z" />
<glyph unicode="&#x2da;" horiz-adv-x="681" d="M143 1343q0 78 58.5 136.5t140.5 58.5t139.5 -58.5t57.5 -140.5q0 -80 -58.5 -137t-138.5 -57q-82 0 -140.5 58t-58.5 140zM242 1343q0 -41 29.5 -70.5t70.5 -29.5q39 0 68.5 28.5t29.5 67.5q0 43 -28.5 72t-69.5 29t-70.5 -29t-29.5 -68z" />
<glyph unicode="&#x2db;" horiz-adv-x="681" d="M213 -272q0 147 162 272h133q-74 -55 -104.5 -102.5t-30.5 -118.5q0 -90 90 -90h102v-160h-102q-100 0 -175 53.5t-75 145.5z" />
<glyph unicode="&#x2dc;" horiz-adv-x="681" d="M10 1237q16 100 62.5 155.5t113.5 55.5q47 0 144 -39q84 -37 129 -37q51 0 76 76h118q-31 -213 -182 -213q-43 0 -174 51q-72 27 -100 27q-47 0 -68 -76h-119z" />
<glyph unicode="&#x2dd;" horiz-adv-x="681" d="M92 1188l197 307h231l-305 -307h-123zM428 1188l197 307h231l-305 -307h-123z" />
<glyph unicode="&#x300;" horiz-adv-x="0" d="M-936 1493h231l197 -303h-123z" />
<glyph unicode="&#x301;" horiz-adv-x="0" d="M-629 1190l197 303h231l-305 -303h-123z" />
<glyph unicode="&#x302;" horiz-adv-x="0" d="M-862 1188l196 307h195l197 -307h-129l-166 196l-162 -196h-131z" />
<glyph unicode="&#x303;" horiz-adv-x="0" d="M-899 1237q16 100 62 155.5t114 55.5q47 0 143 -39q84 -37 129 -37q51 0 76 76h119q-31 -213 -182 -213q-43 0 -174 51q-72 27 -101 27q-47 0 -67 -76h-119z" />
<glyph unicode="&#x304;" horiz-adv-x="0" d="M-852 1270v143h561v-143h-561z" />
<glyph unicode="&#x306;" horiz-adv-x="0" d="M-885 1481h111q25 -61 80 -98t120.5 -37t121 36.5t79.5 98.5h111q0 -117 -92 -197t-219 -80t-219.5 80t-92.5 197z" />
<glyph unicode="&#x307;" horiz-adv-x="0" d="M-674 1235v213h213v-213h-213z" />
<glyph unicode="&#x308;" horiz-adv-x="0" d="M-827 1237v209h186v-209h-186zM-496 1237v209h187v-209h-187z" />
<glyph unicode="&#x309;" horiz-adv-x="0" d="M-801 1386q0 236 238 236q104 0 164.5 -48t60.5 -128q0 -49 -21.5 -83t-80.5 -77q-47 -37 -59.5 -50t-12.5 -30v-61h-127v67q0 47 22.5 78t86.5 72v-2q66 51 65 86q0 29 -28.5 46t-75.5 17q-70 0 -93 -34v2q-14 -23 -14 -91h-125z" />
<glyph unicode="&#x30a;" horiz-adv-x="0" d="M-766 1343q0 78 58.5 136.5t140.5 58.5t139 -58.5t57 -140.5q0 -80 -58 -137t-138 -57q-82 0 -140.5 58t-58.5 140zM-668 1343q0 -41 30 -70.5t71 -29.5q39 0 68.5 28.5t29.5 67.5q0 43 -28.5 72t-69.5 29t-71 -29t-30 -68z" />
<glyph unicode="&#x30b;" horiz-adv-x="0" d="M-817 1188l196 307h232l-305 -307h-123zM-481 1188l196 307h232l-305 -307h-123z" />
<glyph unicode="&#x30c;" horiz-adv-x="0" d="M-862 1495h129l166 -197l161 197h132l-197 -307h-195z" />
<glyph unicode="&#x30f;" horiz-adv-x="0" d="M-1083 1495h231l197 -307h-123zM-748 1495h232l197 -307h-123z" />
<glyph unicode="&#x311;" horiz-adv-x="0" d="M-885 1204q0 117 92.5 197t219.5 80t219 -80t92 -197h-111q-25 61 -80 98t-120.5 37t-121 -36.5t-79.5 -98.5h-111z" />
<glyph unicode="&#x323;" horiz-adv-x="0" d="M-674 -162h213v-213h-213v213z" />
<glyph unicode="&#x326;" horiz-adv-x="0" d="M-670 -123h205v-211q0 -117 -54 -182.5t-151 -65.5v78q113 0 113 160v16h-113v205z" />
<glyph unicode="&#x32e;" horiz-adv-x="0" d="M-938 -143h145q8 -59 61.5 -81t164.5 -22q213 0 223 103h145q-25 -250 -372 -250q-166 0 -265.5 61.5t-101.5 188.5z" />
<glyph unicode="&#x32f;" horiz-adv-x="0" d="M-938 -393q25 250 373 250q166 0 265 -61.5t101 -188.5h-145q-8 59 -61.5 80.5t-163.5 21.5q-213 0 -224 -102h-145z" />
<glyph unicode="&#x330;" horiz-adv-x="0" d="M-899 -373q16 100 62 155.5t114 55.5q47 0 143 -39q84 -37 129 -37q51 0 76 76h119q-31 -213 -182 -213q-43 0 -174 51q-72 27 -101 27q-47 0 -67 -76h-119z" />
<glyph unicode="&#x331;" horiz-adv-x="0" d="M-852 -197h561v-143h-561v143z" />
<glyph unicode="&#x332;" horiz-adv-x="0" d="M-852 -197h561v-143h-561v143z" />
<glyph unicode="&#x391;" horiz-adv-x="1366" d="M35 0l532 1493h246l524 -1493h-213l-153 449h-576l-157 -449h-203zM442 608h476l-230 680z" />
<glyph unicode="&#x392;" horiz-adv-x="1366" d="M162 0v1493h606q207 0 324.5 -105.5t117.5 -273.5q0 -229 -206 -326q143 -55 207.5 -141t64.5 -221q0 -186 -121 -306t-319 -120h-674zM352 168h465q129 0 198.5 71.5t69.5 184.5q0 115 -68.5 186.5t-199.5 71.5h-465v-514zM352 850h369q299 0 299 237.5t-299 237.5h-369 v-475z" />
<glyph unicode="&#x393;" horiz-adv-x="1251" d="M184 0v1493h1002v-168h-811v-1325h-191z" />
<glyph unicode="&#x394;" horiz-adv-x="1456" d="M-4 0l655 1464h154l655 -1464h-1464zM256 168h944l-473 1057z" />
<glyph unicode="&#x395;" horiz-adv-x="1366" d="M184 0v1493h1035v-168h-844v-477h813v-168h-813v-512h880v-168h-1071z" />
<glyph unicode="&#x396;" horiz-adv-x="1251" d="M57 0v168l897 1157h-839v168h1075v-172l-893 -1153h897v-168h-1137z" />
<glyph unicode="&#x397;" horiz-adv-x="1478" d="M170 0v1493h190v-645h768v645h191v-1493h-191v680h-768v-680h-190z" />
<glyph unicode="&#x398;" horiz-adv-x="1593" d="M78 735q0 352 199.5 573.5t519.5 221.5q328 0 525.5 -222.5t197.5 -584.5q0 -334 -198 -547t-523 -213q-324 0 -522.5 212t-198.5 560zM268 735q0 -274 145.5 -439t385.5 -165q238 0 384 164t146 432q0 285 -145.5 460t-386.5 175q-236 0 -382.5 -175.5t-146.5 -451.5z M401 664v167h797v-167h-797z" />
<glyph unicode="&#x399;" horiz-adv-x="569" d="M205 0v1493h190v-1493h-190z" />
<glyph unicode="&#x39a;" horiz-adv-x="1366" d="M162 0v1493h190v-756l744 756h245l-608 -608l615 -885h-226l-526 766l-244 -244v-522h-190z" />
<glyph unicode="&#x39b;" horiz-adv-x="1366" d="M35 0l532 1493h246l524 -1493h-213l-436 1288l-450 -1288h-203z" />
<glyph unicode="&#x39c;" horiz-adv-x="1705" d="M154 0v1493h264l442 -1300l434 1300h265v-1493h-181v1251l-420 -1251h-200l-424 1251v-1251h-180z" />
<glyph unicode="&#x39d;" horiz-adv-x="1478" d="M156 0v1493h206l781 -1221v1221h180v-1493h-215l-772 1210v-1210h-180z" />
<glyph unicode="&#x39e;" horiz-adv-x="1478" d="M94 0v188h1290v-188h-1290zM94 1305v188h1290v-188h-1290zM283 664v167h913v-167h-913z" />
<glyph unicode="&#x39f;" horiz-adv-x="1593" d="M78 735q0 352 199.5 573.5t519.5 221.5q328 0 525.5 -222.5t197.5 -584.5q0 -334 -198 -547t-523 -213q-324 0 -522.5 212t-198.5 560zM268 735q0 -274 145.5 -439t385.5 -165q238 0 384 164t146 432q0 285 -145.5 460t-386.5 175q-236 0 -382.5 -175.5t-146.5 -451.5z " />
<glyph unicode="&#x3a0;" horiz-adv-x="1271" d="M61 0v1493h1149v-1493h-190v1325h-768v-1325h-191z" />
<glyph unicode="&#x3a1;" horiz-adv-x="1366" d="M186 0v1493h617q221 0 341 -113.5t120 -324.5q0 -186 -117 -304t-301 -118h-469v-633h-191zM377 801h397q137 0 214 69.5t77 192.5t-77 192.5t-214 69.5h-397v-524z" />
<glyph unicode="&#x3a3;" horiz-adv-x="1232" d="M61 0v152l594 596l-594 593v152h1110v-168h-856l578 -577l-578 -580h856v-168h-1110z" />
<glyph unicode="&#x3a4;" horiz-adv-x="1251" d="M43 1325v168h1171v-168h-489v-1325h-190v1325h-492z" />
<glyph unicode="&#x3a5;" horiz-adv-x="1366" d="M27 1493h235l438 -727l426 727h228l-561 -907v-586h-191v586z" />
<glyph unicode="&#x3a6;" horiz-adv-x="1558" d="M139 747.5q0 188.5 158 306t387 138.5v301h190v-301q229 -20 387 -138t158 -306.5t-156.5 -307t-388.5 -139.5v-301h-190v301q-231 20 -388 139t-157 307.5zM315 748q0 -125 104.5 -199t264.5 -92v579q-160 -18 -264.5 -91.5t-104.5 -196.5zM874 457q160 18 264.5 92 t104.5 199q0 123 -104.5 196.5t-264.5 91.5v-579z" />
<glyph unicode="&#x3a7;" horiz-adv-x="1366" d="M45 0l528 766l-495 727h231l383 -586l385 586h228l-504 -727l528 -766h-235l-408 623l-410 -623h-231z" />
<glyph unicode="&#x3a8;" horiz-adv-x="1525" d="M139 1073v420h176v-420q0 -164 99.5 -289t253.5 -159v868h190v-868q154 35 253 159.5t99 288.5v420h176v-420q0 -229 -151.5 -401t-376.5 -207v-465h-190v465q-225 35 -377 207t-152 401z" />
<glyph unicode="&#x3a9;" horiz-adv-x="1556" d="M61 0v168h408v137q-154 84 -245 235.5t-91 331.5q0 266 189.5 456t455.5 190t455.5 -189.5t189.5 -456.5q0 -180 -91 -331.5t-245 -235.5v-137h408v-168h-598v412q147 41 241.5 169t94.5 291q0 195 -132 336.5t-322.5 141.5t-322.5 -141.5t-132 -336.5q0 -164 94 -291.5 t241 -168.5v-412h-598z" />
<glyph unicode="&#x3b1;" horiz-adv-x="1576" d="M139 510q0 242 162 415t393 173q287 0 467 -367q113 346 139 387l138 -90q-45 -68 -193 -518q106 -338 193 -465l-138 -90q-59 88 -145 342q-180 -322 -461 -322q-229 0 -392 156t-163 379zM307 510q0 -158 114 -268.5t273 -110.5q139 0 237.5 106.5t155.5 272.5 q-139 432 -393 432q-164 0 -275.5 -128t-111.5 -304z" />
<glyph unicode="&#x3b2;" horiz-adv-x="1124" d="M150 -471v1573q0 195 122.5 293t309.5 98q182 0 293.5 -104.5t111.5 -272.5q0 -213 -223 -295q150 -51 218.5 -140t68.5 -232q0 -225 -124 -352.5t-335 -127.5q-150 0 -273 88v-528h-169zM319 227q113 -90 256 -90q133 0 215 82t82 217q0 156 -86 217.5t-276 61.5v168h18 q123 0 202 63.5t79 163.5q0 98 -67.5 160.5t-174.5 62.5q-113 0 -180.5 -62.5t-67.5 -168.5v-875z" />
<glyph unicode="&#x3b3;" horiz-adv-x="1312" d="M139 1073h180l338 -848l338 848h181l-435 -1087v-457h-168v457z" />
<glyph unicode="&#x3b4;" horiz-adv-x="1122" d="M61 457q0 164 121 275.5t312 156.5q-203 160 -203 371q0 106 96 169.5t225 63.5q188 0 324 -135l-98 -98q-94 94 -226 94q-63 0 -107 -23.5t-44 -71t17.5 -90.5t47 -75.5t67.5 -66.5t79 -60l82 -56q307 -211 307 -454q0 -205 -145.5 -346.5t-354.5 -141.5 q-207 0 -353.5 141.5t-146.5 346.5zM252 457q0 -133 89 -225.5t220 -92.5t220 92.5t89 225.5q0 104 -57 188t-154 125q-166 0 -286.5 -86t-120.5 -227z" />
<glyph unicode="&#x3b5;" horiz-adv-x="1247" d="M139 350q0 172 189 240q-158 70 -158 227q0 147 131 235.5t309 88.5q211 0 465 -117l-51 -115q-170 76 -414 76q-113 0 -192.5 -42t-79.5 -126q0 -37 16.5 -65.5t40 -47t67.5 -30.5t77.5 -18.5t95 -10.5t95.5 -4h99v-125h-105q-36 0 -100.5 -3t-101.5 -9t-83 -18.5 t-71.5 -30t-43 -44t-17.5 -61.5q0 -119 108.5 -189.5t256.5 -70.5q233 0 381 74l55 -115q-233 -115 -436 -115q-217 0 -375 116t-158 300z" />
<glyph unicode="&#x3b6;" horiz-adv-x="1069" d="M139 537q0 256 130 474t352 349h-482v125h860v-125h-104q-264 -78 -426 -308.5t-162 -514.5q0 -152 83 -263.5t214 -111.5h76q133 0 226 -91t93 -223q0 -129 -94 -217t-225 -88v140q63 0 107 49t44 116q0 66 -44 112t-107 46h-76q-199 0 -332 157t-133 374z" />
<glyph unicode="&#x3b7;" d="M139 0v1073h168v-90q125 115 297 115q162 0 278.5 -112t116.5 -271v-1186h-168v1186q0 94 -66.5 160.5t-160.5 66.5q-96 0 -175 -48t-122 -128v-766h-168z" />
<glyph unicode="&#x3b8;" horiz-adv-x="1189" d="M139 721q0 154 24.5 290t76 252.5t142.5 185.5t212 69t213 -69t143 -185.5t76 -253t25 -289.5q0 -195 -45 -357.5t-151.5 -275.5t-260.5 -113q-115 0 -205 63.5t-143 171t-80 238t-27 273.5zM307 799h576q-2 119 -14.5 208t-42 176t-88 133t-144.5 46q-70 0 -121 -33 t-81 -84t-49 -129t-26.5 -151.5t-9.5 -165.5zM309 643q16 -512 285 -512q270 0 287 512h-572z" />
<glyph unicode="&#x3b9;" horiz-adv-x="724" d="M279 322v751h167v-751q0 -76 38 -133.5t102 -57.5v-156q-129 0 -218 103t-89 244z" />
<glyph unicode="&#x3ba;" horiz-adv-x="1024" d="M119 0v1073h170v-455l454 455h220l-373 -371l438 -702h-211l-362 582l-166 -164v-418h-170z" />
<glyph unicode="&#x3bb;" horiz-adv-x="1402" d="M139 0l576 973l-29 74q-49 127 -146.5 209.5t-220.5 82.5v140q174 0 317.5 -105.5t209.5 -273.5l420 -1100h-181l-294 776l-459 -776h-193z" />
<glyph unicode="&#x3bc;" horiz-adv-x="1417" d="M279 -471v1544h167v-682q29 -117 95.5 -188.5t167 -71.5t167 71.5t95.5 188.5v682h168v-1073h-168v94q-109 -119 -262.5 -119t-262.5 119v-565h-167z" />
<glyph unicode="&#x3bd;" horiz-adv-x="1169" d="M70 1073h180l383 -911q139 92 219 238.5t80 314.5t-33 358h172q29 -166 29 -358q0 -240 -127 -442.5t-344 -305.5l-113 43z" />
<glyph unicode="&#x3be;" d="M139 444q0 117 64.5 210.5t175.5 150.5q-209 109 -209 309q0 147 131 246h-162v125h860v-125h-383q-121 -20 -199.5 -84t-78.5 -162q0 -111 101.5 -175.5t240.5 -64.5v-139q-152 0 -262.5 -81t-110.5 -210q0 -119 87 -200.5t210 -81.5h76q133 0 226 -91t93 -223 q0 -129 -94 -217t-225 -88v140q63 0 107 49t44 116q0 66 -44 112t-107 46h-76q-190 0 -327.5 127t-137.5 311z" />
<glyph unicode="&#x3bf;" d="M74 537q0 268 128 417.5t355 149.5q233 0 360 -149.5t127 -426.5q0 -264 -129 -411.5t-356 -147.5q-229 0 -357 149t-128 419zM252 537q0 -195 82 -302.5t225 -107.5q141 0 224 107.5t83 295.5q0 199 -80.5 307.5t-226.5 108.5q-143 0 -225 -108t-82 -301z" />
<glyph unicode="&#x3c0;" horiz-adv-x="1374" d="M61 700q0 215 103.5 294t351.5 79h797v-139h-205v-934h-170v934h-338v-934h-170v934q-119 0 -174 -56.5t-55 -177.5h-140z" />
<glyph unicode="&#x3c1;" horiz-adv-x="1302" d="M139 -471v1008q0 229 147.5 395t364.5 166t364.5 -166t147.5 -395.5t-147.5 -395.5t-364.5 -166q-190 0 -344 125v-571h-168zM307 289q127 -158 344 -158q147 0 245.5 121t98.5 284.5t-98 284.5t-245.5 121t-246 -121t-98.5 -284v-248z" />
<glyph unicode="&#x3c2;" d="M139 553q0 221 133.5 383t331.5 162q141 0 249 -89t136 -229l-147 -30q-16 84 -84 138t-154 54q-133 0 -215 -115.5t-82 -273.5t82 -274.5t215 -116.5h76q133 0 226 -91t93 -223q0 -129 -94 -217t-225 -88v140q63 0 107 49t44 116q0 66 -44 112t-107 46h-76 q-201 0 -333 163t-132 384z" />
<glyph unicode="&#x3c3;" horiz-adv-x="1325" d="M139 537q0 268 128 417.5t356 149.5q68 0 137 -17q199 18 454 93l41 -152q-121 -35 -290 -55q145 -150 145 -445q0 -264 -129 -411.5t-356 -147.5q-229 0 -357.5 149t-128.5 419zM317 537q0 -195 82 -302.5t226 -107.5q141 0 224 107.5t83 295.5q0 199 -81 307.5 t-226 108.5q-143 0 -225.5 -108t-82.5 -301z" />
<glyph unicode="&#x3c4;" horiz-adv-x="1021" d="M139 911v156h744v-156h-289v-589q0 -76 39 -133.5t102 -57.5v-156q-131 0 -220 102.5t-89 244.5v589h-287z" />
<glyph unicode="&#x3c5;" d="M139 358v715h168v-715q0 -94 67.5 -160.5t164.5 -66.5q131 0 211.5 113.5t80.5 267.5q0 274 -63 561h172q59 -266 59 -561q0 -217 -131 -377t-329 -160q-164 0 -282 111.5t-118 271.5z" />
<glyph unicode="&#x3c6;" horiz-adv-x="1757" d="M139 537q0 180 106.5 330.5t278.5 217.5l54 -131q-125 -49 -198 -163.5t-73 -253.5q0 -168 141.5 -274.5t346.5 -127.5v377q0 238 110.5 412t300.5 174q186 0 299 -167t113 -394q0 -231 -191.5 -383t-463.5 -174v-451h-168v451q-272 23 -464 174.5t-192 382.5zM963 135 q205 20 346 127t141 275q0 166 -61.5 285.5t-182.5 119.5q-86 0 -143 -66.5t-78.5 -158.5t-21.5 -205v-377z" />
<glyph unicode="&#x3c7;" horiz-adv-x="1323" d="M139 -471l428 772l-428 772h189l334 -602l333 602h189l-428 -772l428 -772h-189l-333 602l-334 -602h-189z" />
<glyph unicode="&#x3c8;" horiz-adv-x="1478" d="M139 358v715h168v-715q0 -201 348 -225v1360h168v-1360q348 25 348 225v715h168v-715q0 -168 -148.5 -265t-367.5 -113v-451h-168v451q-219 16 -367.5 113t-148.5 265z" />
<glyph unicode="&#x3c9;" horiz-adv-x="1550" d="M139 563q0 223 131 510h129q-92 -201 -92 -510q0 -90 6 -154.5t23.5 -134t58.5 -106.5t105 -37q174 0 209 289q-16 125 -17 295h168v-103q0 -35 2 -99t7 -100t14.5 -87.5t24 -81t34 -58t47 -42t62.5 -13.5q63 0 104 37t58.5 106.5t23.5 134t6 154.5q0 309 -92 510h129 q131 -287 131 -510q0 -154 -36 -282.5t-120 -217t-204 -88.5q-193 0 -281 209q-90 -209 -270 -209q-121 0 -205 88.5t-120 217t-36 282.5z" />
<glyph unicode="&#x3d1;" horiz-adv-x="1277" d="M139 358v357h168v-357q0 -96 78 -158.5t184.5 -62.5t184 62.5t77.5 158.5v443q-143 6 -247.5 24.5t-200.5 58.5t-146.5 112.5t-50.5 179.5q0 158 113 268t270 110q182 0 306 -142t124 -339v-151h140v-125h-140v-439q0 -164 -128 -276.5t-302 -112.5t-302 112.5 t-128 276.5zM322 1176q0 -68 39.5 -116t114.5 -75t159 -40t196 -19v147q0 145 -71.5 252t-190.5 107q-104 0 -175.5 -76t-71.5 -180z" />
<glyph unicode="&#x3d5;" horiz-adv-x="1435" d="M141 537q0 213 141.5 372.5t352.5 188.5v395h168v-395q211 -29 353 -188.5t142 -372.5t-142 -373t-353 -189v-446h-168v446q-211 29 -352.5 189t-141.5 373zM309 536.5q0 -143.5 93.5 -253t232.5 -138.5v783q-139 -29 -232.5 -138.5t-93.5 -253zM803 145 q139 29 233 138.5t94 253t-94 253t-233 138.5v-783z" />
<glyph unicode="&#x3d6;" horiz-adv-x="1550" d="M139 563q0 223 131 510h129q-92 -201 -92 -510q0 -90 6 -154.5t23.5 -134t58.5 -106.5t105 -37q174 0 209 289q-16 125 -17 295h168v-103q0 -35 2 -99t7 -100t14.5 -87.5t24 -81t34 -58t47 -42t62.5 -13.5q63 0 104 37t58.5 106.5t23.5 134t6 154.5q0 145 -20.5 271.5 t-64.5 238t-125 176t-193 64.5q-238 0 -471 -82l-35 104q244 86 506 86q182 0 315 -127t194.5 -317.5t61.5 -413.5q0 -154 -36 -282.5t-120 -217t-204 -88.5q-193 0 -281 209q-90 -209 -270 -209q-121 0 -205 88.5t-120 217t-36 282.5z" />
<glyph unicode="&#x3f5;" horiz-adv-x="1024" d="M63 526q0 266 130.5 422t347.5 156q160 0 266 -76t143 -223h-182q-63 141 -229 141q-125 0 -202 -88t-91 -252h436v-139h-438q12 -162 90 -251t209 -89q172 0 233 141h182q-39 -141 -148.5 -220t-270.5 -79q-219 0 -347.5 149.5t-128.5 407.5z" />
<glyph unicode="&#x400;" horiz-adv-x="1366" d="M184 0v1493h1035v-168h-844v-477h813v-168h-813v-512h880v-168h-1071zM487 1878h232l196 -303h-122z" />
<glyph unicode="&#x401;" horiz-adv-x="1366" d="M162 0v1493h1034v-168h-844v-477h813v-168h-813v-512h881v-168h-1071zM408 1661v211h213v-211h-213zM739 1661v211h213v-211h-213z" />
<glyph unicode="&#x402;" horiz-adv-x="1511" d="M43 1325v168h1008v-168h-408v-364h414q188 0 283.5 -104.5t95.5 -289.5v-530q0 -184 -95.5 -288.5t-283.5 -104.5h-107v168h99q88 0 142 48t54 140v604q0 92 -54 140.5t-142 48.5h-406v-793h-190v1325h-410z" />
<glyph unicode="&#x403;" horiz-adv-x="1251" d="M184 0v1493h1002v-168h-811v-1325h-191zM471 1575l197 303h231l-305 -303h-123z" />
<glyph unicode="&#x404;" horiz-adv-x="1478" d="M98 729q0 375 209 602q168 186 473 187q487 0 576 -488h-195q-31 154 -108 225q-100 94 -295 95q-193 0 -316 -133.5t-147 -368.5h745v-168h-749q12 -258 142 -408.5t341 -150.5q121 0 212 50t136 142q45 86 68 232h196q-68 -592 -614 -592q-289 0 -457 174 q-217 223 -217 602z" />
<glyph unicode="&#x405;" horiz-adv-x="1366" d="M98 475h181q-2 -133 77 -229q104 -125 344 -125q182 0 275 63q47 35 76.5 91.5t29.5 115.5q0 170 -274 242l-371 98q-293 76 -293 348q0 203 142.5 321t388.5 118q258 0 401.5 -122t145.5 -341h-181q-2 145 -98 224t-274 79q-152 0 -243 -69.5t-91 -182.5q0 -86 55 -135 t191 -86l374 -101q152 -41 235 -139t83 -235q0 -96 -44 -189.5t-120 -152.5q-150 -115 -420 -115q-346 0 -502 213q-86 116 -88 309z" />
<glyph unicode="&#x406;" horiz-adv-x="569" d="M205 0v1493h192v-1493h-192z" />
<glyph unicode="&#x407;" horiz-adv-x="569" d="M16 1649v211h213v-211h-213zM205 0v1493h192v-1493h-192zM348 1649v211h213v-211h-213z" />
<glyph unicode="&#x408;" horiz-adv-x="1024" d="M35 348v131h194v-96q0 -131 57.5 -200.5t166.5 -69.5q123 0 182 92q47 70 47 237v1051h190v-1120q0 -195 -113.5 -307.5t-307.5 -112.5q-193 0 -304.5 106.5t-111.5 288.5z" />
<glyph unicode="&#x409;" horiz-adv-x="2211" d="M170 0v193q90 0 143.5 115.5t66.5 301t17 418t0 465.5h846v-643h295q504 0 555 -424q0 -180 -115 -301q-117 -125 -325 -125h-602v1325h-461q4 -115 1 -258l-6 -291q-3 -147 -31 -286.5t-69 -248t-122.5 -175t-192.5 -66.5zM1243 168h391q133 0 199 72q70 74 70 184 q0 113 -70 186q-66 72 -199 72h-391v-514z" />
<glyph unicode="&#x40a;" horiz-adv-x="2076" d="M170 0v1493h190v-645h625v645h191v-643h260q504 0 555 -424q0 -180 -115 -301q-117 -125 -326 -125h-565v680h-623v-680h-192zM1176 168h356q133 0 199 72q70 74 69 184q0 113 -69 186q-66 72 -199 72h-356v-514z" />
<glyph unicode="&#x40b;" horiz-adv-x="1531" d="M43 1325v168h1008v-168h-408v-364h434q188 0 283.5 -104.5t95.5 -289.5v-567h-190v604q0 92 -54.5 140.5t-142.5 48.5h-426v-793h-190v1325h-410z" />
<glyph unicode="&#x40c;" horiz-adv-x="1366" d="M162 0v1493h190v-645l744 645h245l-843 -725l850 -768h-226l-770 664v-664h-190zM537 1575l196 303h232l-306 -303h-122z" />
<glyph unicode="&#x40d;" horiz-adv-x="1478" d="M156 0v1493h180v-1221l780 1221h207v-1493h-180v1210l-772 -1210h-215zM526 1878h232l196 -303h-123z" />
<glyph unicode="&#x40e;" horiz-adv-x="1331" d="M53 1493h232l379 -776l376 776h228l-752 -1493h-231l264 500zM352 1851h121q14 -135 189 -135q82 0 131 35t55 100h121q-23 -276 -312 -276q-176 0 -262 117q-41 57 -43 159z" />
<glyph unicode="&#x40f;" horiz-adv-x="1478" d="M170 0v1493h192v-1325h766v1325h193v-1493h-494v-276h-163v276h-494z" />
<glyph unicode="&#x410;" horiz-adv-x="1366" d="M35 0l532 1493h246l524 -1493h-213l-153 449h-576l-157 -449h-203zM442 608h476l-230 680z" />
<glyph unicode="&#x411;" horiz-adv-x="1366" d="M162 0v1493h1001v-168h-811v-434h484q61 0 117.5 -10.5t116.5 -41t104.5 -78.5t73 -129t28.5 -186q0 -201 -115 -321q-117 -125 -325 -125h-674zM352 168h465q133 0 199 72q70 74 69 204q0 133 -69 207q-66 72 -199 72h-465v-555z" />
<glyph unicode="&#x412;" horiz-adv-x="1366" d="M162 0v1493h606q211 0 324 -104q119 -106 118 -275q0 -229 -206 -326q143 -55 207.5 -141t64.5 -221q0 -180 -115 -301q-117 -125 -325 -125h-674zM352 168h465q133 0 199 72q70 74 69 184q0 113 -69 186q-66 72 -199 72h-465v-514zM352 850h369q147 0 217 53 q82 63 82 184t-82 185q-70 53 -217 53h-369v-475z" />
<glyph unicode="&#x413;" horiz-adv-x="1251" d="M162 0v1493h1001v-168h-811v-1325h-190z" />
<glyph unicode="&#x414;" horiz-adv-x="1662" d="M70 152h188q227 104 227 675v666h922v-1341h186v-428h-163v276h-1197v-276h-163v428zM537 168h677v1157h-536v-498q0 -438 -141 -659z" />
<glyph unicode="&#x415;" horiz-adv-x="1366" d="M162 0v1493h1034v-168h-844v-477h813v-168h-813v-512h881v-168h-1071z" />
<glyph unicode="&#x416;" horiz-adv-x="2095" d="M129 0l666 768l-580 725h238l487 -631v631h190v-631l488 631h237l-579 -725l666 -768h-242l-570 664v-664h-190v664l-586 -664h-225z" />
<glyph unicode="&#x417;" horiz-adv-x="1366" d="M98 475h181q-2 -133 77 -229q104 -125 344 -125q182 0 275 63q47 35 76.5 91.5t29.5 115.5q0 121 -93 193.5t-240 72.5h-222v168h181q133 0 228 88t95 193q0 113 -91 182.5t-243 69.5q-178 0 -274 -79t-98 -224h-181q2 219 145.5 341t401.5 122q246 0 388.5 -118 t142.5 -321q0 -221 -215 -313q266 -100 266 -356q0 -96 -44 -189.5t-120 -152.5q-150 -115 -420 -115q-346 0 -502 213q-86 116 -88 309z" />
<glyph unicode="&#x418;" horiz-adv-x="1490" d="M162 0v1493h180v-1235l780 1235h207v-1493h-180v1225l-772 -1225h-215z" />
<glyph unicode="&#x419;" horiz-adv-x="1490" d="M162 0v1493h180v-1235l780 1235h207v-1493h-180v1225l-772 -1225h-215zM436 1892h121q16 -135 188 -135q82 0 131.5 35t55.5 100h121q-23 -276 -312 -276q-176 0 -262 117q-41 57 -43 159z" />
<glyph unicode="&#x41a;" horiz-adv-x="1366" d="M162 0v1493h190v-627l625 627h227l-706 -707l774 -786h-254l-666 682v-682h-190z" />
<glyph unicode="&#x41b;" horiz-adv-x="1378" d="M68 -20v192q117 0 172 184.5t55 470.5v666h922v-1493h-193v1325h-537v-498q0 -168 -20.5 -311t-66.5 -268t-130.5 -196.5t-201.5 -71.5z" />
<glyph unicode="&#x41c;" horiz-adv-x="1728" d="M162 0v1493h264l442 -1300l435 1300h264v-1493h-181v1251l-419 -1251h-201l-424 1251v-1251h-180z" />
<glyph unicode="&#x41d;" horiz-adv-x="1472" d="M162 0v1493h190v-645h766v645h193v-1493h-193v680h-764v-680h-192z" />
<glyph unicode="&#x41e;" horiz-adv-x="1593" d="M78 735q0 350 198.5 566.5t520.5 216.5q328 0 525.5 -217.5t197.5 -577.5q0 -184 -69 -347t-189 -265q-186 -158 -463 -158q-324 0 -522.5 216t-198.5 566zM268 735.5q0 -276.5 146.5 -445.5t384 -169t384 168t146.5 438q0 283 -145.5 453t-386.5 170q-238 0 -383.5 -169 t-145.5 -445.5z" />
<glyph unicode="&#x41f;" horiz-adv-x="1472" d="M162 0v1493h1149v-1493h-193v1325h-764v-1325h-192z" />
<glyph unicode="&#x420;" horiz-adv-x="1366" d="M162 0v1493h616q221 0 341 -113.5t120 -324.5q0 -199 -129 -316q-119 -106 -289 -106h-469v-633h-190zM352 801h398q137 0 213.5 69.5t76.5 192.5t-76.5 192.5t-213.5 69.5h-398v-524z" />
<glyph unicode="&#x421;" horiz-adv-x="1478" d="M98 729q0 375 209 602q168 186 473 187q487 0 576 -488h-195q-31 154 -108 225q-100 94 -295 95q-217 0 -343 -166t-126 -453q0 -281 131 -445.5t354 -164.5q121 0 212 50t136 142q45 86 68 232h196q-68 -592 -614 -592q-289 0 -457 174q-217 223 -217 602z" />
<glyph unicode="&#x422;" horiz-adv-x="1251" d="M43 1325v168h1171v-168h-489v-1325h-190v1325h-492z" />
<glyph unicode="&#x423;" horiz-adv-x="1331" d="M53 1493h232l366 -758l389 758h228l-752 -1493h-231l258 506z" />
<glyph unicode="&#x424;" horiz-adv-x="1916" d="M131 748q0 555 686 555v190h195v-190q686 0 686 -555q0 -111 -28 -200t-67.5 -146.5t-104 -98.5t-120 -61.5t-132.5 -32.5t-124 -14t-110 -2v-193h-195v193q-63 0 -110.5 2t-124 14t-132 32.5t-120 61.5t-104.5 98.5t-67.5 146.5t-27.5 200zM336 747.5q0 -102.5 40 -178 t94 -113.5t128 -61.5t123 -29t96 -5.5v775q-47 0 -96 -5.5t-123 -29t-128 -61.5t-94 -113.5t-40 -178zM1012 360q47 0 96 5.5t123 29t128 61.5t94 113.5t40 178t-40 178t-94 113.5t-128 61.5t-123 29t-96 5.5v-775z" />
<glyph unicode="&#x425;" horiz-adv-x="1366" d="M45 0l528 766l-495 727h231l373 -571l395 571h213l-502 -727l525 -766h-219l-416 610l-402 -610h-231z" />
<glyph unicode="&#x426;" horiz-adv-x="1517" d="M162 0v1493h192v-1325h764v1325h193v-1341h137v-428h-164v276h-1122z" />
<glyph unicode="&#x427;" horiz-adv-x="1327" d="M162 926v567h190v-604q0 -92 54.5 -140.5t142.5 -48.5h426v793h190v-1493h-190v532h-434q-188 0 -283.5 105t-95.5 289z" />
<glyph unicode="&#x428;" horiz-adv-x="1695" d="M162 0v1493h192v-1325h398v1325h192v-1325h397v1325h193v-1493h-1372z" />
<glyph unicode="&#x429;" horiz-adv-x="1740" d="M162 0v1493h192v-1325h398v1325h192v-1325h397v1325h193v-1341h137v-428h-164v276h-1345z" />
<glyph unicode="&#x42a;" horiz-adv-x="1837" d="M166 1325v168h663v-569h453q203 0 337 -132.5t134 -328.5q0 -203 -133 -333t-338 -130h-643v1325h-473zM829 168h435q131 0 215 84t84 209q0 131 -83 213t-216 82h-435v-588z" />
<glyph unicode="&#x42b;" horiz-adv-x="1785" d="M162 0v1493h190v-569h453q203 0 337 -132.5t134 -328.5q0 -203 -133 -333t-338 -130h-643zM352 168h434q131 0 215 84t84 209q0 131 -82.5 213t-216.5 82h-434v-588zM1432 0v1493h192v-1493h-192z" />
<glyph unicode="&#x42c;" horiz-adv-x="1366" d="M162 0v1493h190v-569h453q203 0 337 -132.5t134 -328.5q0 -203 -133 -333t-338 -130h-643zM352 168h434q131 0 215 84t84 209q0 131 -82.5 213t-216.5 82h-434v-588z" />
<glyph unicode="&#x42d;" horiz-adv-x="1478" d="M98 545h197q23 -145 67 -232q45 -92 136.5 -142t212.5 -50q211 0 341 150.5t144 408.5h-752v168h746q-25 236 -147.5 369t-315.5 133q-195 0 -295 -95q-78 -72 -108 -225h-195q88 487 576 488q305 0 473 -187q209 -227 208 -602q0 -379 -217 -602q-168 -174 -456 -174 q-547 0 -615 592z" />
<glyph unicode="&#x42e;" horiz-adv-x="2113" d="M170 0v1493h190v-645h248q33 309 208 489.5t464 180.5q324 0 503 -214t179 -581q0 -184 -68.5 -347t-189.5 -265q-96 -82 -191.5 -120t-224.5 -38q-305 0 -486 197.5t-198 529.5h-242v-680h-192zM793 735.5q0 -282.5 128 -448.5t361 -166q231 0 360.5 165t129.5 441 q0 289 -127 456t-365 167q-231 0 -359 -166t-128 -448.5z" />
<glyph unicode="&#x42f;" horiz-adv-x="1437" d="M66 0l559 643q-209 0 -336 125t-127 299q0 180 114 301q117 125 326 125h674v-1493h-191v643h-227l-567 -643h-225zM352 1067q0 -111 70 -184q66 -72 199 -72h464v514h-464q-133 0 -199 -72q-70 -73 -70 -186z" />
<glyph unicode="&#x430;" d="M86 270q0 209 188 287q51 20 108.5 31.5t235.5 34.5q100 12 139.5 38.5t39.5 79.5v45q0 78 -62.5 119t-177.5 41q-119 0 -180.5 -46t-71.5 -144h-172q6 147 74 223q113 125 356 125q199 0 301.5 -75t102.5 -218v-631q0 -84 92 -84q18 0 37 4v-129q-72 -18 -117 -18 q-82 0 -124 38t-52 120q-172 -158 -365 -158q-162 0 -257 86t-95 231zM264 274q0 -82 55.5 -127t155.5 -45q147 0 254 97q68 61 68 139v192q-68 -31 -275 -59q-137 -20 -197.5 -66.5t-60.5 -130.5z" />
<glyph unicode="&#x431;" d="M74 528q0 156 15 291t52 266.5t109 218.5t174 109l272 53q47 10 81 45t34 76h152q0 -59 -4.5 -90t-25 -72t-68.5 -68.5t-130 -45.5l-276 -60q-82 -20 -141.5 -100t-77.5 -190q90 143 317 143q231 0 359 -152.5t128 -431.5q0 -264 -130 -415.5t-355 -151.5 q-229 0 -357 152.5t-128 422.5zM252 528.5q0 -194.5 82 -306t225 -111.5q141 0 224 111.5t83 299.5q0 199 -80.5 311.5t-226.5 112.5q-143 0 -225 -111.5t-82 -306z" />
<glyph unicode="&#x432;" horiz-adv-x="1069" d="M143 0v1073h449q150 0 229 -74q82 -76 82 -196q0 -166 -141 -236q102 -41 149 -102.5t47 -157.5q0 -127 -83.5 -217t-233.5 -90h-498zM315 156h271q94 0 141 53q45 45 45 108q0 35 -1 48.5t-11 33t-33 33.5q-63 41 -141 41h-271v-317zM315 629h201q104 0 156 37 q25 18 34 28.5t17 29.5t8 46q0 41 -13 62.5t-46 48.5q-49 39 -156 39h-201v-291z" />
<glyph unicode="&#x433;" horiz-adv-x="880" d="M143 0v1073h635v-155h-463v-918h-172z" />
<glyph unicode="&#x434;" horiz-adv-x="1232" d="M61 131h117q72 8 120 169t48 357v416h694v-942h131v-377h-143v246h-823v-246h-144v377zM416 156h452v762h-352v-261q0 -317 -100 -501z" />
<glyph unicode="&#x435;" d="M82 522q0 264 134 423t357 159q152 0 267.5 -76t167.5 -207q43 -113 43 -342h-791q2 -147 57 -229q88 -139 258 -139q209 0 281 215h172q-33 -176 -153.5 -274.5t-305.5 -98.5q-225 0 -356 152.5t-131 416.5zM264 618h602l2 13q0 133 -86 224t-211 91q-129 0 -213 -89 t-94 -239z" />
<glyph unicode="&#x436;" horiz-adv-x="1714" d="M90 0l561 561l-495 512h219l393 -411v411h170v-411l393 411h219l-495 -512l561 -561h-217l-461 463v-463h-170v463l-461 -463h-217z" />
<glyph unicode="&#x437;" horiz-adv-x="1024" d="M70 319h180q12 -96 49 -137q68 -72 213 -71q111 0 176.5 46t65.5 122q0 66 -46 120t-133 54h-182v155h127q98 0 148.5 54.5t50.5 121.5q0 74 -61.5 118t-165.5 44q-96 0 -154.5 -44t-61.5 -128h-180q2 156 106.5 243t282.5 87q186 0 299 -89t113 -239q0 -154 -133 -229 q176 -78 176 -254q0 -156 -120 -248t-322 -92q-416 -1 -428 366z" />
<glyph unicode="&#x438;" horiz-adv-x="1161" d="M143 0v1073h172v-846l482 846h221v-1073h-170v846l-481 -846h-224z" />
<glyph unicode="&#x439;" horiz-adv-x="1161" d="M143 0v1073h172v-846l482 846h221v-1073h-170v846l-481 -846h-224zM272 1432h121q16 -135 189 -136q82 0 131 35t55 101h121q-23 -276 -311 -277q-176 0 -263 117q-41 58 -43 160z" />
<glyph unicode="&#x43a;" horiz-adv-x="1044" d="M143 0v1073h170v-434l435 434h196l-514 -512l561 -561h-217l-461 463v-463h-170z" />
<glyph unicode="&#x43b;" horiz-adv-x="1140" d="M143 -20v163q76 0 118 143.5t42 370.5v416h694v-1073h-172v918h-352v-261q0 -129 -15.5 -240.5t-51 -215t-103.5 -162.5t-160 -59z" />
<glyph unicode="&#x43c;" horiz-adv-x="1265" d="M143 0v1073h213l277 -667l276 667h213v-1073h-172v743l-266 -661h-102l-267 661v-743h-172z" />
<glyph unicode="&#x43d;" horiz-adv-x="1142" d="M143 0v1073h172v-440h512v440h172v-1073h-172v477h-512v-477h-172z" />
<glyph unicode="&#x43e;" d="M74 528.5q0 270.5 129 423t354 152.5q231 0 359 -152.5t128 -431.5q0 -264 -130 -415.5t-355 -151.5q-229 0 -357 152.5t-128 423zM252 528.5q0 -194.5 82 -306t225 -111.5q141 0 224 111.5t83 299.5q0 199 -80.5 311.5t-226.5 112.5q-143 0 -225 -111.5t-82 -306z" />
<glyph unicode="&#x43f;" horiz-adv-x="1140" d="M143 0v1073h854v-1073h-172v918h-510v-918h-172z" />
<glyph unicode="&#x440;" horiz-adv-x="1179" d="M111 -446v1519h157v-162q121 193 342 193q213 0 337 -158t124 -428q0 -256 -126 -410.5t-333 -154.5q-199 0 -329 160v-559h-172zM283 528.5q0 -188.5 81.5 -302t217.5 -113.5q139 0 225 113.5t86 295.5q0 193 -85 307.5t-226 114.5q-135 0 -217 -113.5t-82 -302z" />
<glyph unicode="&#x441;" horiz-adv-x="1024" d="M63 518q0 266 130.5 426t347.5 160q236 0 352 -160q59 -88 72 -231h-172q-16 113 -82 173t-172 60q-139 0 -218 -113.5t-79 -314.5q0 -190 79.5 -298.5t221.5 -108.5q219 0 262 258h172q-16 -197 -131 -306.5t-307 -109.5q-219 0 -347.5 152.5t-128.5 412.5z" />
<glyph unicode="&#x442;" horiz-adv-x="1015" d="M123 918v155h762v-155h-295v-918h-172v918h-295z" />
<glyph unicode="&#x443;" horiz-adv-x="1024" d="M41 1073h182l275 -835l297 835h184l-477 -1298q-43 -117 -117 -170q-70 -51 -160 -51q-63 0 -114 26v154q55 -12 90 -13q98 0 137 105l65 170z" />
<glyph unicode="&#x444;" horiz-adv-x="1867" d="M125 516q0 274 109.5 431t316.5 157q193 0 293 -193v469h170v-469q92 193 297 193q209 0 319.5 -155.5t110.5 -430.5q0 -260 -111.5 -412.5t-316.5 -152.5q-100 0 -164 36t-135 124v-559h-170v569q-63 -92 -128 -131t-173 -39q-207 0 -312.5 147.5t-105.5 415.5zM303 528 q0 -195 67.5 -305t204.5 -110q131 0 200 109.5t69 299.5q0 199 -67.5 310.5t-201.5 111.5q-137 0 -204.5 -111.5t-67.5 -304.5zM1014 528.5q0 -194.5 68.5 -305t199.5 -110.5q137 0 209 110.5t72 298.5q0 197 -72 309.5t-209 112.5q-131 0 -199.5 -110.5t-68.5 -305z" />
<glyph unicode="&#x445;" horiz-adv-x="1024" d="M35 0l379 547l-359 526h195l258 -389l258 389h192l-360 -518l371 -555h-199l-268 412l-273 -412h-194z" />
<glyph unicode="&#x446;" horiz-adv-x="1183" d="M143 0v1073h172v-917h510v917h172v-942h125v-377h-143v246h-836z" />
<glyph unicode="&#x447;" horiz-adv-x="1064" d="M143 684v389h172v-383q0 -143 140 -143h295v526h172v-1073h-172v391h-289q-133 0 -225.5 78t-92.5 215z" />
<glyph unicode="&#x448;" horiz-adv-x="1417" d="M143 0v1073h172v-917h308v917h172v-917h307v917h172v-1073h-1131z" />
<glyph unicode="&#x449;" horiz-adv-x="1458" d="M143 0v1073h172v-917h308v917h172v-917h307v917h172v-942h123v-377h-144v246h-1110z" />
<glyph unicode="&#x44a;" horiz-adv-x="1503" d="M117 918v155h547v-375h331q152 0 247 -96t95 -260q0 -150 -96 -246t-246 -96h-503v918h-375zM664 156h254q135 0 184 48t49 132q0 109 -57.5 158t-175.5 49h-254v-387z" />
<glyph unicode="&#x44b;" horiz-adv-x="1413" d="M143 0v1073h172v-375h332q154 0 248 -96t94 -260q0 -150 -96 -246t-246 -96h-504zM315 156h254q135 0 184.5 48t49.5 132q0 109 -57.5 158t-176.5 49h-254v-387zM1100 0v1073h170v-1073h-170z" />
<glyph unicode="&#x44c;" horiz-adv-x="1130" d="M143 0v1073h172v-375h332q154 0 248 -96t94 -260q0 -150 -96 -246t-246 -96h-504zM315 156h254q135 0 184.5 48t49.5 132q0 109 -57.5 158t-176.5 49h-254v-387z" />
<glyph unicode="&#x44d;" horiz-adv-x="1024" d="M63 369h173q43 -258 262 -258q133 0 211.5 96t89.5 268h-465v158h459q-23 150 -97.5 231.5t-193.5 81.5q-106 0 -172 -60.5t-82 -172.5h-172q12 143 71 231q117 160 353 160q217 0 347 -160t130 -426q0 -260 -128 -412.5t-347 -152.5q-193 0 -308 109.5t-131 306.5z" />
<glyph unicode="&#x44e;" horiz-adv-x="1552" d="M143 0v1073h172v-440h197q0 37 10 87t43 119.5t83 127t139.5 97.5t201.5 40q231 0 359.5 -152.5t128.5 -431.5q0 -264 -130 -415.5t-356 -151.5q-113 0 -202 39t-140 96t-85 131t-45 137.5t-11 120.5h-193v-477h-172zM684 528.5q0 -194.5 82 -306t225 -111.5 q141 0 224 111.5t83 299.5q0 199 -80.5 311.5t-226.5 112.5q-143 0 -225 -111.5t-82 -306z" />
<glyph unicode="&#x44f;" horiz-adv-x="1112" d="M29 0l420 453q-137 12 -221.5 90t-84.5 225q0 127 84 217q82 88 234 88h508v-1073h-172v446h-142l-415 -446h-211zM330 758q0 -35 1 -48.5t11 -33t33 -33.5q63 -41 141 -41h281v318h-281q-94 0 -141 -54q-45 -45 -45 -108z" />
<glyph unicode="&#x450;" d="M82 522q0 264 134 423t357 159q152 0 267.5 -76t167.5 -207q43 -113 43 -342h-791q2 -147 57 -229q88 -139 258 -139q209 0 281 215h172q-33 -176 -153.5 -274.5t-305.5 -98.5q-225 0 -356 152.5t-131 416.5zM264 618h602l2 13q0 133 -86 224t-211 91q-129 0 -213 -89 t-94 -239zM283 1516h231l197 -304h-123z" />
<glyph unicode="&#x451;" d="M82 522q0 264 134 423t357 159q152 0 267.5 -76t167.5 -207q43 -113 43 -342h-791q2 -147 57 -229q88 -139 258 -139q209 0 281 215h172q-33 -176 -153.5 -274.5t-305.5 -98.5q-225 0 -356 152.5t-131 416.5zM264 618h602l2 13q0 133 -86 224t-211 91q-129 0 -213 -89 t-94 -239zM313 1255v211h213v-211h-213zM645 1255v211h213v-211h-213z" />
<glyph unicode="&#x452;" horiz-adv-x="1191" d="M31 1204v144h166v145h170v-145h389v-144h-389v-358q76 98 152.5 138t191.5 40q156 0 247 -79t91 -214v-731q0 -135 -91.5 -214t-246.5 -79h-54v150q86 0 152 49q70 49 70 162v596q0 113 -70 161q-66 49 -152 49q-131 0 -210.5 -99t-79.5 -263v-512h-170v1204h-166z" />
<glyph unicode="&#x453;" horiz-adv-x="880" d="M143 0v1073h605v-155h-433v-918h-172zM231 1155l197 303h231l-305 -303h-123z" />
<glyph unicode="&#x454;" horiz-adv-x="1024" d="M63 518q0 266 130.5 426t347.5 160q236 0 352 -160q59 -88 72 -231h-172q-16 113 -82 173t-172 60q-119 0 -194 -82t-97 -231h457v-158h-463q10 -172 89 -268t212 -96q219 0 262 258h172q-16 -197 -131 -306.5t-307 -109.5q-219 0 -347.5 152.5t-128.5 412.5z" />
<glyph unicode="&#x455;" horiz-adv-x="1024" d="M70 319h180q12 -96 49 -137q68 -72 213 -71q113 0 181.5 46t68.5 122q0 59 -39 94t-127 55l-160 39q-190 45 -265 113.5t-75 195.5q0 150 113 239t299 89t286.5 -86t102.5 -244h-180q-6 172 -215 172q-104 0 -166 -44t-62 -118q0 -57 47.5 -93t151.5 -60l164 -39 q160 -39 231.5 -109.5t71.5 -189.5q0 -156 -120 -248t-322 -92q-416 -1 -428 366z" />
<glyph unicode="&#x456;" horiz-adv-x="454" d="M135 1278v215h172v-215h-172zM137 0v1073h170v-1073h-170z" />
<glyph unicode="&#x457;" horiz-adv-x="569" d="M6 1239v211h213v-211h-213zM193 0v1073h172v-1073h-172zM338 1239v211h213v-211h-213z" />
<glyph unicode="&#x458;" horiz-adv-x="454" d="M-37 -295l41 -2q78 0 108.5 30.5t30.5 110.5v1229h170v-1296q0 -223 -293 -223q-27 0 -57 6v145zM143 1278v215h170v-215h-170z" />
<glyph unicode="&#x459;" horiz-adv-x="1810" d="M143 0v164q29 0 52.5 16.5t40 57.5t28.5 79.5t19.5 113.5t11.5 126t6 152.5t2 157.5v171v35h692v-375h232q442 0 442 -356q0 -150 -96 -246t-246 -96h-502v918h-352q-2 -70 0 -152t-5 -170t-16.5 -173t-35 -162t-59 -135t-89 -92t-125.5 -34zM995 156h254q135 0 184.5 48 t49.5 132q0 109 -57.5 158t-176.5 49h-254v-387z" />
<glyph unicode="&#x45a;" horiz-adv-x="1812" d="M143 0v1073h172v-440h512v440h170v-375h232q442 0 442 -356q0 -150 -96 -246t-246 -96h-502v477h-512v-477h-172zM997 156h254q135 0 184.5 48t49.5 132q0 109 -57.5 158t-176.5 49h-254v-387z" />
<glyph unicode="&#x45b;" horiz-adv-x="1191" d="M31 1204v144h166v145h170v-145h389v-144h-389v-358q76 98 152.5 138t191.5 40q156 0 247 -79t91 -214v-731h-170v664q0 113 -70 161q-66 49 -152 49q-131 0 -210.5 -99t-79.5 -263v-512h-170v1204h-166z" />
<glyph unicode="&#x45c;" horiz-adv-x="1024" d="M119 0v1073h170v-455l454 455h220l-557 -532l622 -541h-211l-528 442v-442h-170zM326 1155l196 303h232l-305 -303h-123z" />
<glyph unicode="&#x45d;" d="M143 0v1073h172v-846l482 846h200v-1073h-170v846l-481 -846h-203zM356 1458h232l196 -303h-122z" />
<glyph unicode="&#x45e;" horiz-adv-x="1024" d="M41 1073h182l275 -835l297 835h184l-477 -1298q-45 -117 -117 -170q-70 -51 -160 -51q-63 0 -114 26v154q55 -12 90 -13q53 0 84.5 24t52.5 81l65 170zM201 1432h121q14 -135 188 -136q82 0 131 35t55 101h121q-23 -276 -311 -277q-176 0 -262 117q-41 58 -43 160z" />
<glyph unicode="&#x45f;" d="M143 0v1073h172v-917h512v917h172v-1073h-356v-246h-143v246h-357z" />
<glyph unicode="&#x48c;" horiz-adv-x="1366" d="M-20 1104v143h182v246h190v-246h189v-143h-189v-254h369q504 0 555 -424q0 -180 -115 -301q-117 -125 -325 -125h-674v1104h-182zM352 168h465q133 0 199 72q70 74 69 184q0 113 -69 186q-66 72 -199 72h-465v-514z" />
<glyph unicode="&#x48d;" horiz-adv-x="1130" d="M16 782v144h127v147h172v-147h148v-144h-148v-153h242q229 0 335.5 -78t106.5 -244q0 -127 -84 -217t-233 -90h-539v782h-127zM315 156h312q94 0 141 53q45 45 45 92q0 37 -1 53.5t-11 40t-33 37.5q-63 41 -141 41h-312v-317z" />
<glyph unicode="&#x48e;" horiz-adv-x="1366" d="M186 0v1493h617q221 0 341 -113.5t120 -324.5q0 -195 -123 -310l119 -118l-103 -103l-139 142q-74 -33 -172 -33h-469v-633h-191zM377 801h397q49 0 96 10l-110 111l102 102l139 -139q63 68 64 178q0 123 -77 192.5t-214 69.5h-397v-524z" />
<glyph unicode="&#x48f;" d="M111 -446v1519h157v-162q121 193 342 193q213 0 337 -158t124 -428q0 -260 -127 -412l129 -129l-100 -102l-137 137q-96 -59 -224 -59q-199 0 -329 160v-559h-172zM283 528.5q0 -188.5 81.5 -302t217.5 -113.5q68 0 125 28l-132 131l101 103l139 -139q78 113 78 286 q0 193 -85 307.5t-226 114.5q-135 0 -217 -113.5t-82 -302z" />
<glyph unicode="&#x490;" horiz-adv-x="1251" d="M184 0v1493h811v197h191v-365h-811v-1325h-191z" />
<glyph unicode="&#x491;" horiz-adv-x="880" d="M143 0v1073h432v215h173v-370h-433v-918h-172z" />
<glyph unicode="&#x492;" horiz-adv-x="1251" d="M8 866v144h154v483h1001v-168h-811v-315h217v-144h-217v-866h-190v866h-154z" />
<glyph unicode="&#x493;" horiz-adv-x="880" d="M16 528v144h127v401h635v-155h-463v-246h140v-144h-140v-528h-172v528h-127z" />
<glyph unicode="&#x494;" horiz-adv-x="1251" d="M184 0v1493h1002v-168h-811v-364h352q188 0 283.5 -104.5t95.5 -289.5v-530q0 -184 -95.5 -288.5t-283.5 -104.5h-106v168h98q88 0 142 48t54 140v604q0 92 -54 140.5t-142 48.5h-344v-793h-191z" />
<glyph unicode="&#x495;" horiz-adv-x="1003" d="M143 0v1073h605v-155h-433v-379q33 98 99.5 138t183.5 40q150 0 213 -75t63 -218v-424q0 -135 -91 -214t-246 -79h-54v150q86 0 152 49q70 49 70 162v288q0 117 -37 164t-123 47q-125 0 -177.5 -93t-52.5 -269v-205h-172z" />
<glyph unicode="&#x496;" horiz-adv-x="2095" d="M129 0l666 768l-588 725h246l487 -631v631h190v-631l488 631h246l-588 -725l534 -616h132v-428h-164v276h-62l-586 664v-664h-190v664l-586 -664h-225z" />
<glyph unicode="&#x497;" horiz-adv-x="1714" d="M29 0l622 541l-557 532h219l455 -455v455h170v-455l455 455h219l-557 -532l471 -410h151v-377h-143v246h-68l-528 442v-442h-170v442l-528 -442h-211z" />
<glyph unicode="&#x498;" horiz-adv-x="1366" d="M98 475h181q-2 -133 77 -229q104 -125 344 -125q182 0 275 63q47 35 76.5 91.5t29.5 115.5q0 94 -98 180t-235 86h-222v168h181q129 0 226 93.5t97 187.5q0 113 -91 182.5t-243 69.5q-178 0 -274 -79t-98 -224h-181q2 219 145.5 341t401.5 122q246 0 388.5 -118 t142.5 -321q0 -221 -215 -313q266 -100 266 -356q0 -96 -44 -189.5t-120 -152.5q-125 -94 -340 -113q111 -70 111 -182q0 -117 -129 -166q-74 -27 -142 -27q-57 0 -155 21v92q53 -20 129 -21q147 0 147 111q0 53 -25.5 91t-93.5 81q-287 25 -424 211q-86 116 -88 309z" />
<glyph unicode="&#x499;" horiz-adv-x="1024" d="M70 319h180q12 -96 49 -137q68 -72 213 -71q111 0 176.5 46t65.5 122q0 63 -60.5 118.5t-148.5 55.5h-152v155h127q98 0 148.5 54.5t50.5 121.5q0 74 -61.5 118t-165.5 44q-209 0 -216 -172h-180q2 158 102.5 244t287 86t299 -89t112.5 -239q0 -154 -133 -229 q176 -78 176 -254q0 -139 -97.5 -229.5t-267.5 -106.5q111 -76 111 -184q0 -117 -129 -166q-74 -27 -141 -27q-57 0 -156 21v92q53 -20 129 -21q147 0 148 111q0 53 -27 92t-94 82q-334 30 -346 362z" />
<glyph unicode="&#x49a;" horiz-adv-x="1366" d="M162 0v1493h190v-627l625 627h227l-706 -707l624 -634h150v-428h-164v276h-90l-666 682v-682h-190z" />
<glyph unicode="&#x49b;" horiz-adv-x="1044" d="M143 0v1073h170v-434l435 434h196l-514 -512l430 -430h131v-377h-143v246h-74l-461 463v-463h-170z" />
<glyph unicode="&#x49c;" horiz-adv-x="1366" d="M162 0v1493h190v-645l99 86v280h143v-157l502 436h245l-747 -643v-168l766 -682h-238l-528 455v-129h-143v254l-99 84v-664h-190z" />
<glyph unicode="&#x49d;" horiz-adv-x="1024" d="M119 0v1073h170v-455l100 101v219h143v-76l211 211h220l-431 -411v-232l496 -430h-211l-285 238v-86h-143v206l-100 84v-442h-170z" />
<glyph unicode="&#x49e;" horiz-adv-x="1366" d="M-12 1133v143h174v217h190v-217h197v-143h-197v-285l744 645h245l-843 -725l850 -768h-226l-770 664v-664h-190v1133h-174z" />
<glyph unicode="&#x49f;" horiz-adv-x="1024" d="M-4 836v143h123v94h170v-94h145v-143h-145v-218l454 455h220l-557 -532l622 -541h-211l-528 442v-442h-170v836h-123z" />
<glyph unicode="&#x4a0;" horiz-adv-x="1843" d="M166 1325v168h663v-645l744 645h246l-844 -725l850 -768h-226l-770 664v-664h-190v1325h-473z" />
<glyph unicode="&#x4a1;" horiz-adv-x="1398" d="M117 918v155h547v-455l454 455h219l-557 -532l623 -541h-211l-528 442v-442h-170v918h-377z" />
<glyph unicode="&#x4a2;" horiz-adv-x="1478" d="M170 0v1493h190v-645h766v645h193v-1341h137v-428h-164v276h-166v680h-764v-680h-192z" />
<glyph unicode="&#x4a3;" d="M143 0v1073h172v-440h512v440h172v-942h123v-377h-143v246h-152v477h-512v-477h-172z" />
<glyph unicode="&#x4a4;" horiz-adv-x="2048" d="M170 0v1493h190v-645h766v645h856v-168h-663v-1325h-193v680h-764v-680h-192z" />
<glyph unicode="&#x4a5;" horiz-adv-x="1564" d="M143 0v1073h172v-440h512v440h605v-155h-433v-918h-172v477h-512v-477h-172z" />
<glyph unicode="&#x4a6;" horiz-adv-x="2172" d="M170 0v1493h1149v-532h352q188 0 283.5 -104.5t95.5 -289.5v-530q0 -184 -95 -288.5t-284 -104.5h-106v168h98q88 0 142.5 48t54.5 140v604q0 92 -54.5 140.5t-142.5 48.5h-344v-793h-193v1325h-764v-1325h-192z" />
<glyph unicode="&#x4a7;" horiz-adv-x="1691" d="M143 0v1073h854v-534q33 98 99.5 138t183.5 40q150 0 213 -75t63 -218v-424q0 -135 -91 -214t-246 -79h-54v150q86 0 152 49q70 49 69 162v288q0 117 -36.5 164t-122.5 47q-125 0 -177.5 -93t-52.5 -269v-205h-172v918h-510v-918h-172z" />
<glyph unicode="&#x4a8;" horiz-adv-x="1478" d="M98 729q0 375 209 602q168 186 473 187q487 0 576 -488h-195q-31 154 -108 225q-100 94 -295 95q-217 0 -343 -166t-126 -453q0 -281 131 -445.5t354 -164.5q121 0 212 50t136 142q45 86 68 232h196q-68 -592 -614 -592q-289 0 -457 174q-217 223 -217 602z" />
<glyph unicode="&#x4a9;" horiz-adv-x="1024" d="M63 518q0 266 130.5 426t347.5 160q236 0 352 -160q59 -88 72 -231h-172q-16 113 -82 173t-172 60q-139 0 -218 -113.5t-79 -314.5q0 -190 79.5 -298.5t221.5 -108.5q219 0 262 258h172q-16 -197 -131 -306.5t-307 -109.5q-219 0 -347.5 152.5t-128.5 412.5z" />
<glyph unicode="&#x4aa;" horiz-adv-x="1478" d="M98 729q0 375 209 602q168 186 473 187q487 0 576 -488h-195q-31 154 -108 225q-100 94 -295 95q-217 0 -343 -166t-126 -453q0 -281 131 -445.5t354 -164.5q121 0 212 50t136 142q45 86 68 232h196q-66 -553 -542 -590q109 -74 108 -182q0 -117 -129 -166 q-74 -27 -141 -27q-57 0 -156 21v92q53 -20 129 -21q147 0 148 111q0 53 -26.5 92t-94.5 82q-223 20 -367 170q-217 223 -217 602z" />
<glyph unicode="&#x4ab;" horiz-adv-x="1024" d="M63 518q0 266 130.5 426t347.5 160q236 0 352 -160q59 -88 72 -231h-172q-16 113 -82 173t-172 60q-139 0 -218 -113.5t-79 -314.5q0 -190 79.5 -298.5t221.5 -108.5q219 0 262 258h172q-14 -176 -108.5 -282.5t-254.5 -129.5q113 -74 113 -184q0 -117 -129 -166 q-74 -27 -141 -27q-57 0 -156 21v92q53 -20 129 -21q147 0 148 111q0 55 -27 94t-98 82q-180 31 -285 179.5t-105 379.5z" />
<glyph unicode="&#x4ac;" horiz-adv-x="1251" d="M43 1325v168h1171v-168h-489v-1173h137v-428h-164v276h-163v1325h-492z" />
<glyph unicode="&#x4ad;" horiz-adv-x="1015" d="M123 918v155h762v-155h-295v-787h123v-377h-144v246h-151v918h-295z" />
<glyph unicode="&#x4ae;" horiz-adv-x="1366" d="M27 1493h235l438 -727l426 727h228l-561 -907v-586h-191v586z" />
<glyph unicode="&#x4af;" horiz-adv-x="1366" d="M109 1073h235l356 -717l344 717h228l-479 -897v-586h-191v586z" />
<glyph unicode="&#x4b0;" horiz-adv-x="1366" d="M27 1493h235l438 -727l426 727h228l-561 -907v-54h450v-143h-450v-389h-191v389h-450v143h450v54z" />
<glyph unicode="&#x4b1;" horiz-adv-x="1366" d="M109 1073h235l356 -717l344 717h228l-479 -897h450v-143h-450v-443h-191v443h-450v143h450z" />
<glyph unicode="&#x4b2;" horiz-adv-x="1366" d="M45 0l528 766l-495 727h231l383 -586l385 586h228l-504 -727l424 -614h104v-428h-164v276h-71l-408 623l-410 -623h-231z" />
<glyph unicode="&#x4b3;" horiz-adv-x="1024" d="M35 0l379 547l-359 526h195l258 -389l258 389h192l-360 -518l283 -424h88v-377h-144v246h-55l-268 412l-273 -412h-194z" />
<glyph unicode="&#x4b4;" horiz-adv-x="1929" d="M43 1325v168h1128v-168h-464v-1157h763v1325h193v-1341h188v-428h-163v276h-1174v1325h-471z" />
<glyph unicode="&#x4b5;" horiz-adv-x="1499" d="M123 918v155h721v-155h-275v-762h510v917h172v-942h166v-377h-143v246h-877v918h-274z" />
<glyph unicode="&#x4b6;" horiz-adv-x="1327" d="M162 926v567h190v-604q0 -92 54.5 -140.5t142.5 -48.5h426v793h190v-1341h138v-428h-164v276h-164v532h-434q-188 0 -283.5 105t-95.5 289z" />
<glyph unicode="&#x4b7;" horiz-adv-x="1064" d="M143 684v389h172v-383q0 -143 140 -143h295v526h172v-942h125v-377h-144v246h-153v391h-289q-133 0 -225.5 78t-92.5 215z" />
<glyph unicode="&#x4b8;" horiz-adv-x="1327" d="M162 926v567h190v-604q0 -92 54.5 -140.5t142.5 -48.5h55v281h144v-281h227v793h190v-1493h-190v532h-227v-256h-144v256h-63q-188 0 -283.5 105t-95.5 289z" />
<glyph unicode="&#x4b9;" horiz-adv-x="1064" d="M143 684v389h172v-383q0 -143 140 -143h16v211h143v-211h136v526h172v-1073h-172v391h-136v-190h-143v190h-10q-133 0 -225.5 78t-92.5 215z" />
<glyph unicode="&#x4ba;" horiz-adv-x="1327" d="M162 0v1493h190v-532h434q188 0 283.5 -104.5t95.5 -289.5v-567h-190v604q0 92 -54.5 140.5t-142.5 48.5h-426v-793h-190z" />
<glyph unicode="&#x4bb;" horiz-adv-x="1064" d="M143 0v1073h172v-391h289q133 0 225.5 -78t92.5 -215v-389h-172v383q0 143 -140 143h-295v-526h-172z" />
<glyph unicode="&#x4bc;" horiz-adv-x="1898" d="M96 1200q0 160 79 255t208 95q143 0 211 -94q37 -55 43 -139h-102q-18 139 -152 139q-84 0 -131 -67.5t-47 -188.5q0 -115 48 -180.5t132 -65.5h152q47 238 196 389q168 174 457 175q612 0 614 -723l2 -9h-2h-196h-899q-2 -16 -2 -47q0 -287 125.5 -452.5t343.5 -165.5 q195 0 294 94q78 72 109 225h195q-88 -487 -576 -487q-305 0 -473 186q-209 227 -209 602v45q-209 4 -314.5 124t-105.5 290zM731 954h854q-25 162 -45 203q-45 92 -136 142.5t-212 50.5q-176 0 -296 -105t-165 -291z" />
<glyph unicode="&#x4bd;" horiz-adv-x="1466" d="M86 782q0 106 52 170t138 64q94 0 142 -64q23 -31 28 -92h-69q-12 94 -101 94q-57 0 -87.5 -46t-30.5 -126q0 -76 31.5 -120t86.5 -44h138q25 223 154.5 354.5t332.5 131.5q152 0 267.5 -76t166.5 -207q43 -113 43 -342h-790q2 -147 57 -229q88 -139 258 -139 q209 0 281 215h172q-33 -176 -154 -274.5t-305 -98.5q-217 0 -346 140t-141 386q-162 2 -243 93t-81 210zM592 618h602l2 13q0 133 -86 224t-211 91q-129 0 -213 -89t-94 -239z" />
<glyph unicode="&#x4be;" horiz-adv-x="1898" d="M96 1200q0 160 79 255t208 95q143 0 211 -94q37 -55 43 -139h-102q-18 139 -152 139q-84 0 -131 -67.5t-47 -188.5q0 -115 48 -180.5t132 -65.5h152q47 238 196 389q168 174 457 175q612 0 614 -723l2 -9h-2h-196h-899q-2 -16 -2 -47q0 -287 125.5 -452.5t343.5 -165.5 q195 0 294 94q78 72 109 225h195q-82 -453 -502 -485q109 -74 108 -182q0 -117 -129 -166q-74 -27 -141 -27q-57 0 -156 21v92q53 -20 129 -21q147 0 148 111q0 53 -26.5 92t-94.5 82q-244 25 -385 182q-209 227 -209 602v45q-209 4 -314.5 124t-105.5 290zM731 954h854 q-25 162 -45 203q-45 92 -136 142.5t-212 50.5q-176 0 -296 -105t-165 -291z" />
<glyph unicode="&#x4bf;" horiz-adv-x="1466" d="M86 782q0 106 52 170t138 64q94 0 142 -64q23 -31 28 -92h-69q-12 94 -101 94q-57 0 -87.5 -46t-30.5 -126q0 -76 31.5 -120t86.5 -44h138q25 223 154.5 354.5t332.5 131.5q152 0 267.5 -76t166.5 -207q43 -113 43 -342h-790q2 -147 57 -229q88 -139 258 -139 q209 0 281 215h172q-29 -158 -132.5 -255.5t-258.5 -113.5q111 -72 110 -184q0 -117 -129 -166q-74 -27 -141 -27q-57 0 -156 21v92q53 -20 129 -21q147 0 148 111q0 53 -28 93t-99 85q-174 31 -276.5 166t-112.5 352q-162 2 -243 93t-81 210zM592 618h602l2 13 q0 133 -86 224t-211 91q-129 0 -213 -89t-94 -239z" />
<glyph unicode="&#x4c0;" horiz-adv-x="569" d="M205 0v1493h192v-1493h-192z" />
<glyph unicode="&#x4c1;" horiz-adv-x="2095" d="M129 0l666 768l-588 725h246l487 -631v631h190v-631l488 631h246l-588 -725l666 -768h-226l-586 664v-664h-190v664l-586 -664h-225zM727 1851h121q16 -135 188 -135q82 0 131.5 35t55.5 100h120q-23 -276 -311 -276q-176 0 -262 117q-41 57 -43 159z" />
<glyph unicode="&#x4c2;" horiz-adv-x="1714" d="M29 0l622 541l-557 532h219l455 -455v455h170v-455l455 455h219l-557 -532l622 -541h-211l-528 442v-442h-170v442l-528 -442h-211zM545 1432h121q14 -135 188 -136q82 0 131 35t55 101h121q-23 -276 -311 -277q-176 0 -262 117q-41 58 -43 160z" />
<glyph unicode="&#x4c3;" horiz-adv-x="1366" d="M162 0v1493h190v-645l744 645h245l-843 -725h374q188 0 283.5 -104.5t95.5 -288.5v-338q0 -184 -95 -288.5t-284 -104.5h-106v168h98q88 0 142.5 48t54.5 140v412q0 92 -54.5 140t-142.5 48h-512v-600h-190z" />
<glyph unicode="&#x4c4;" horiz-adv-x="1024" d="M119 0v1073h170v-455l454 455h220l-557 -532l157 2q156 0 247 -79t91 -214v-250q0 -135 -91 -214t-247 -79h-53v150q86 0 152 49q70 49 69 162v114q0 113 -69 162q-66 49 -152 49h-221v-393h-170z" />
<glyph unicode="&#x4c7;" horiz-adv-x="1478" d="M170 0v1493h190v-645h766v645h193v-1456q0 -184 -96.5 -288.5t-284.5 -104.5h-107v168h99q88 0 142 48t54 140v680h-764v-680h-192z" />
<glyph unicode="&#x4c8;" d="M143 0v1073h172v-440h512v440h172v-1073q0 -135 -91 -214t-246 -79h-54v150q86 0 152 49q68 47 67 162v409h-512v-477h-172z" />
<glyph unicode="&#x4cb;" horiz-adv-x="1327" d="M162 926v567h190v-604q0 -92 54.5 -140.5t142.5 -48.5h426v793h190v-1493h-164v-276h-163v428h137v380h-434q-188 0 -283.5 105t-95.5 289z" />
<glyph unicode="&#x4cc;" horiz-adv-x="1064" d="M143 684v389h172v-383q0 -143 140 -143h295v526h172v-1073h-154v-246h-143v377h125v260h-289q-133 0 -225.5 78t-92.5 215z" />
<glyph unicode="&#x4d0;" horiz-adv-x="1366" d="M35 0l532 1493h246l524 -1493h-213l-153 449h-576l-157 -449h-203zM379 1851h121q14 -135 188 -135q82 0 131 35t55 100h121q-23 -276 -311 -276q-176 0 -262 117q-41 57 -43 159zM442 608h476l-230 680z" />
<glyph unicode="&#x4d1;" d="M86 270q0 209 188 287q51 20 108.5 31.5t235.5 34.5q100 12 139.5 38.5t39.5 79.5v45q0 78 -62.5 119t-177.5 41q-119 0 -180.5 -46t-71.5 -144h-172q6 147 74 223q113 125 356 125q199 0 301.5 -75t102.5 -218v-631q0 -84 92 -84q18 0 37 4v-129q-72 -18 -117 -18 q-82 0 -124 38t-52 120q-172 -158 -365 -158q-162 0 -257 86t-95 231zM242 1432h120q14 -135 189 -136q82 0 131 35t55 101h121q-23 -276 -311 -277q-176 0 -262 117q-41 58 -43 160zM264 274q0 -82 55.5 -127t155.5 -45q147 0 254 97q68 61 68 139v192q-68 -31 -275 -59 q-137 -20 -197.5 -66.5t-60.5 -130.5z" />
<glyph unicode="&#x4d2;" horiz-adv-x="1366" d="M35 0l532 1493h246l524 -1493h-213l-153 449h-576l-157 -449h-203zM414 1575v211h213v-211h-213zM442 608h476l-230 680zM745 1575v211h213v-211h-213z" />
<glyph unicode="&#x4d3;" d="M86 270q0 209 188 287q51 20 108.5 31.5t235.5 34.5q100 12 139.5 38.5t39.5 79.5v45q0 78 -62.5 119t-177.5 41q-119 0 -180.5 -46t-71.5 -144h-172q6 147 74 223q113 125 356 125q199 0 301.5 -75t102.5 -218v-631q0 -84 92 -84q18 0 37 4v-129q-72 -18 -117 -18 q-82 0 -124 38t-52 120q-172 -158 -365 -158q-162 0 -257 86t-95 231zM264 274q0 -82 55.5 -127t155.5 -45q147 0 254 97q68 61 68 139v192q-68 -31 -275 -59q-137 -20 -197.5 -66.5t-60.5 -130.5zM279 1155v211h213v-211h-213zM610 1155v211h213v-211h-213z" />
<glyph unicode="&#x4d4;" horiz-adv-x="2048" d="M23 0l612 1493h1274v-168h-760v-477h721v-168h-721v-512h797v-168h-988v438h-550l-175 -438h-210zM471 606h487v719h-204z" />
<glyph unicode="&#x4d5;" horiz-adv-x="1820" d="M70 270q0 207 190 287q98 43 342 64q104 8 141 34.5t37 85.5v45q0 160 -241 160q-229 0 -250 -190h-172q6 147 73 223q113 125 353 125q262 0 358 -168q55 78 149.5 123t204.5 45q150 0 264.5 -76t168.5 -207q43 -113 43 -342h-791q2 -147 57 -229q88 -139 258 -139 q207 0 283 215h172q-33 -174 -153.5 -273.5t-303.5 -99.5q-119 0 -215 45t-149 125l-33 55q-115 -119 -218 -172t-224 -53q-156 0 -250 86t-94 231zM248 274q0 -80 55 -126t150 -46q125 0 227 78q100 78 100 142v206q-68 -29 -274 -59q-139 -20 -198.5 -65.5t-59.5 -129.5z M944 618h602q0 145 -82 236.5t-213 91.5q-129 0 -213 -89t-94 -239z" />
<glyph unicode="&#x4d6;" horiz-adv-x="1366" d="M184 0v1493h1035v-168h-844v-477h813v-168h-813v-512h880v-168h-1071zM393 1851h121q14 -135 188 -135q82 0 131.5 35t55.5 100h121q-23 -276 -312 -276q-176 0 -262 117q-41 57 -43 159z" />
<glyph unicode="&#x4d7;" d="M82 522q0 264 134 423t357 159q152 0 267.5 -76t167.5 -207q43 -113 43 -342h-791q2 -147 57 -229q88 -139 258 -139q209 0 281 215h172q-33 -176 -153.5 -274.5t-305.5 -98.5q-225 0 -356 152.5t-131 416.5zM264 618h602l2 13q0 133 -86 224t-211 91q-129 0 -213 -89 t-94 -239zM348 1432h121q14 -135 188 -136q82 0 131.5 35t55.5 101h121q-23 -276 -312 -277q-176 0 -262 117q-41 58 -43 160z" />
<glyph unicode="&#x4d8;" horiz-adv-x="1478" d="M96 684h2h197h899q2 16 2 47q0 287 -126 453t-343 166q-195 0 -295 -95q-78 -72 -108 -225h-195q88 487 576 488q305 0 473 -187q209 -227 208 -602q0 -379 -217 -602q-168 -174 -456 -174q-612 0 -615 723zM317 516q25 -162 45 -203q45 -92 136.5 -142t212.5 -50 q176 0 295.5 104.5t164.5 290.5h-854z" />
<glyph unicode="&#x4d9;" d="M82 578h790q-2 147 -57 229q-88 139 -258 139q-209 0 -281 -215h-172q33 176 154 274.5t305 98.5q225 0 356.5 -152.5t131.5 -417t-134.5 -423t-357.5 -158.5q-152 0 -267.5 75.5t-166.5 207.5q-43 113 -43 342zM264 426q0 -133 86 -224t211 -91q129 0 213 89t94 238 h-602z" />
<glyph unicode="&#x4da;" horiz-adv-x="1478" d="M96 684h2h197h899q2 16 2 47q0 287 -126 453t-343 166q-195 0 -295 -95q-78 -72 -108 -225h-195q88 487 576 488q305 0 473 -187q209 -227 208 -602q0 -379 -217 -602q-168 -174 -456 -174q-612 0 -615 723zM317 516q25 -162 45 -203q45 -92 136.5 -142t212.5 -50 q176 0 295.5 104.5t164.5 290.5h-854zM432 1640v211h213v-211h-213zM764 1640v211h213v-211h-213z" />
<glyph unicode="&#x4db;" d="M82 578h790q-2 147 -57 229q-88 139 -258 139q-209 0 -281 -215h-172q33 176 154 274.5t305 98.5q225 0 356.5 -152.5t131.5 -417t-134.5 -423t-357.5 -158.5q-152 0 -267.5 75.5t-166.5 207.5q-43 113 -43 342zM264 426q0 -133 86 -224t211 -91q129 0 213 89t94 238 h-602zM291 1227v211h213v-211h-213zM623 1227v211h213v-211h-213z" />
<glyph unicode="&#x4dc;" horiz-adv-x="2095" d="M129 0l666 768l-588 725h246l487 -631v631h190v-631l488 631h246l-588 -725l666 -768h-226l-586 664v-664h-190v664l-586 -664h-225zM764 1575v211h213v-211h-213zM1096 1575v211h213v-211h-213z" />
<glyph unicode="&#x4dd;" horiz-adv-x="1714" d="M29 0l622 541l-557 532h219l455 -455v455h170v-455l455 455h219l-557 -532l622 -541h-211l-528 442v-442h-170v442l-528 -442h-211zM580 1155v211h213v-211h-213zM911 1155v211h213v-211h-213z" />
<glyph unicode="&#x4de;" horiz-adv-x="1366" d="M98 475h181q-2 -133 77 -229q104 -125 344 -125q182 0 275 63q47 35 76.5 91.5t29.5 115.5q0 94 -98 180t-235 86h-222v168h181q129 0 226 93.5t97 187.5q0 113 -91 182.5t-243 69.5q-178 0 -274 -79t-98 -224h-181q2 219 145.5 341t401.5 122q246 0 388.5 -118 t142.5 -321q0 -221 -215 -313q266 -100 266 -356q0 -96 -44 -189.5t-120 -152.5q-150 -115 -420 -115q-346 0 -502 213q-86 116 -88 309zM403 1575v211h213v-211h-213zM735 1575v211h213v-211h-213z" />
<glyph unicode="&#x4df;" horiz-adv-x="1024" d="M70 319h180q12 -96 49 -137q68 -72 213 -71q111 0 176.5 46t65.5 122q0 63 -60.5 118.5t-148.5 55.5h-152v155h127q98 0 148.5 54.5t50.5 121.5q0 74 -61.5 118t-165.5 44q-209 0 -216 -172h-180q2 158 102.5 244t287 86t299 -89t112.5 -239q0 -154 -133 -229 q176 -78 176 -254q0 -156 -120 -248t-322 -92q-416 -1 -428 366zM225 1155v211h213v-211h-213zM557 1155v211h213v-211h-213z" />
<glyph unicode="&#x4e0;" horiz-adv-x="1366" d="M98 475h181q-2 -133 77 -229q104 -125 344 -125q182 0 275 63q47 35 76.5 91.5t29.5 115.5q0 94 -98 180t-235 86h-222v168h181q129 0 226 93.5t97 187.5q0 113 -91 182.5t-243 69.5q-178 0 -274 -79t-98 -224h-181q2 219 145.5 341t401.5 122q246 0 388.5 -118 t142.5 -321q0 -221 -215 -313q266 -100 266 -356q0 -96 -44 -189.5t-120 -152.5q-150 -115 -420 -115q-346 0 -502 213q-86 116 -88 309z" />
<glyph unicode="&#x4e1;" horiz-adv-x="1024" d="M70 319h180q12 -96 49 -137q68 -72 213 -71q111 0 176.5 46t65.5 122q0 63 -60.5 118.5t-148.5 55.5h-152v155h127q98 0 148.5 54.5t50.5 121.5q0 74 -61.5 118t-165.5 44q-209 0 -216 -172h-180q2 158 102.5 244t287 86t299 -89t112.5 -239q0 -154 -133 -229 q176 -78 176 -254q0 -156 -120 -248t-322 -92q-416 -1 -428 366z" />
<glyph unicode="&#x4e2;" horiz-adv-x="1478" d="M156 0v1493h180v-1221l780 1221h207v-1493h-180v1210l-772 -1210h-215zM459 1575v143h561v-143h-561z" />
<glyph unicode="&#x4e3;" d="M143 0v1073h172v-846l482 846h200v-1073h-170v846l-481 -846h-203zM291 1155v143h561v-143h-561z" />
<glyph unicode="&#x4e4;" horiz-adv-x="1478" d="M156 0v1493h180v-1221l780 1221h207v-1493h-180v1210l-772 -1210h-215zM467 1575v211h213v-211h-213zM799 1575v211h213v-211h-213z" />
<glyph unicode="&#x4e5;" d="M143 0v1073h172v-846l482 846h200v-1073h-170v846l-481 -846h-203zM299 1155v211h213v-211h-213zM631 1155v211h213v-211h-213z" />
<glyph unicode="&#x4e6;" horiz-adv-x="1593" d="M78 735q0 350 198.5 566.5t520.5 216.5q328 0 525.5 -217.5t197.5 -577.5q0 -184 -69 -347t-189 -265q-186 -158 -463 -158q-324 0 -522.5 216t-198.5 566zM268 735.5q0 -276.5 146.5 -445.5t384 -169t384 168t146.5 438q0 283 -145.5 453t-386.5 170q-238 0 -383.5 -169 t-145.5 -445.5zM526 1575v211h213v-211h-213zM858 1575v211h213v-211h-213z" />
<glyph unicode="&#x4e7;" d="M74 528.5q0 270.5 129 423t354 152.5q231 0 359 -152.5t128 -431.5q0 -264 -130 -415.5t-355 -151.5q-229 0 -357 152.5t-128 423zM252 528.5q0 -194.5 82 -306t225 -111.5q141 0 224 111.5t83 299.5q0 199 -80.5 311.5t-226.5 112.5q-143 0 -225 -111.5t-82 -306z M287 1155v211h213v-211h-213zM618 1155v211h213v-211h-213z" />
<glyph unicode="&#x4e8;" horiz-adv-x="1593" d="M78 735q0 350 198.5 566.5t520.5 216.5q328 0 525.5 -217.5t197.5 -577.5q0 -184 -69 -347t-189 -265q-186 -158 -463 -158q-324 0 -522.5 216t-198.5 566zM270 788h1057q-16 256 -158.5 409t-371.5 153q-223 0 -368 -154t-159 -408zM272 645q25 -240 167.5 -382 t359.5 -142t360.5 143.5t165.5 380.5h-1053z" />
<glyph unicode="&#x4e9;" d="M74 528.5q0 270.5 129 423t354 152.5q231 0 359 -152.5t128 -431.5q0 -264 -130 -415.5t-355 -151.5q-229 0 -357 152.5t-128 423zM254 594h610q-16 168 -95 260t-210 92t-211 -93t-94 -259zM256 451q16 -160 96 -250t207 -90t207 90t96 250h-606z" />
<glyph unicode="&#x4ea;" horiz-adv-x="1593" d="M78 735q0 350 198.5 566.5t520.5 216.5q328 0 525.5 -217.5t197.5 -577.5q0 -184 -69 -347t-189 -265q-186 -158 -463 -158q-324 0 -522.5 216t-198.5 566zM270 788h1057q-16 256 -158.5 409t-371.5 153q-223 0 -368 -154t-159 -408zM272 645q25 -240 167.5 -382 t359.5 -142t360.5 143.5t165.5 380.5h-1053zM526 1575v211h213v-211h-213zM858 1575v211h213v-211h-213z" />
<glyph unicode="&#x4eb;" d="M74 528.5q0 270.5 129 423t354 152.5q231 0 359 -152.5t128 -431.5q0 -264 -130 -415.5t-355 -151.5q-229 0 -357 152.5t-128 423zM254 594h610q-16 168 -95 260t-210 92t-211 -93t-94 -259zM256 451q16 -160 96 -250t207 -90t207 90t96 250h-606zM287 1155v211h213v-211 h-213zM618 1155v211h213v-211h-213z" />
<glyph unicode="&#x4ec;" horiz-adv-x="1478" d="M98 545h197q23 -145 67 -232q45 -92 136.5 -142t212.5 -50q211 0 341 150.5t144 408.5h-752v168h746q-25 236 -147.5 369t-315.5 133q-195 0 -295 -95q-78 -72 -108 -225h-195q88 487 576 488q305 0 473 -187q209 -227 208 -602q0 -379 -217 -602q-168 -174 -456 -174 q-547 0 -615 592zM582 1575v211h213v-211h-213zM913 1575v211h213v-211h-213z" />
<glyph unicode="&#x4ed;" horiz-adv-x="1024" d="M63 369h173q43 -258 262 -258q133 0 211.5 96t89.5 268h-465v158h459q-23 150 -97.5 231.5t-193.5 81.5q-106 0 -172 -60.5t-82 -172.5h-172q12 143 71 231q117 160 353 160q217 0 347 -160t130 -426q0 -260 -128 -412.5t-347 -152.5q-193 0 -308 109.5t-131 306.5z M162 1155v211h213v-211h-213zM494 1155v211h213v-211h-213z" />
<glyph unicode="&#x4ee;" horiz-adv-x="1331" d="M53 1493h232l379 -776l376 776h228l-752 -1493h-231l264 500zM381 1575v143h561v-143h-561z" />
<glyph unicode="&#x4ef;" horiz-adv-x="1024" d="M41 1073h182l275 -835l297 835h184l-477 -1298q-45 -117 -117 -170q-70 -51 -160 -51q-63 0 -114 26v154q55 -12 90 -13q53 0 84.5 24t52.5 81l65 170zM229 1155v143h562v-143h-562z" />
<glyph unicode="&#x4f0;" horiz-adv-x="1331" d="M53 1493h232l379 -776l376 776h228l-752 -1493h-231l264 500zM389 1575v211h213v-211h-213zM721 1575v211h213v-211h-213z" />
<glyph unicode="&#x4f1;" horiz-adv-x="1024" d="M41 1073h182l275 -835l297 835h184l-477 -1298q-45 -117 -117 -170q-70 -51 -160 -51q-63 0 -114 26v154q55 -12 90 -13q53 0 84.5 24t52.5 81l65 170zM238 1155v211h213v-211h-213zM569 1155v211h213v-211h-213z" />
<glyph unicode="&#x4f2;" horiz-adv-x="1331" d="M53 1493h232l379 -776l376 776h228l-752 -1493h-231l264 500zM268 1575l197 307h231l-305 -307h-123zM625 1575l196 307h232l-305 -307h-123z" />
<glyph unicode="&#x4f3;" horiz-adv-x="1024" d="M41 1073h182l275 -835l297 835h184l-477 -1298q-45 -117 -117 -170q-70 -51 -160 -51q-63 0 -114 26v154q55 -12 90 -13q53 0 84.5 24t52.5 81l65 170zM119 1155l196 307h232l-305 -307h-123zM475 1155l197 307h231l-305 -307h-123z" />
<glyph unicode="&#x4f4;" horiz-adv-x="1327" d="M162 926v567h190v-604q0 -92 54.5 -140.5t142.5 -48.5h426v793h190v-1493h-190v532h-434q-188 0 -283.5 105t-95.5 289zM391 1640v211h213v-211h-213zM723 1640v211h213v-211h-213z" />
<glyph unicode="&#x4f5;" horiz-adv-x="1064" d="M143 684v389h172v-383q0 -143 140 -143h295v526h172v-1073h-172v391h-289q-133 0 -225.5 78t-92.5 215zM260 1227v211h213v-211h-213zM592 1227v211h213v-211h-213z" />
<glyph unicode="&#x4f8;" horiz-adv-x="1814" d="M162 0v1493h190v-643h369q504 0 555 -424q0 -180 -115 -301q-117 -125 -325 -125h-674zM352 168h465q133 0 199 72q70 74 69 184q0 113 -69 186q-66 72 -199 72h-465v-514zM631 1575v211h213v-211h-213zM963 1575v211h213v-211h-213zM1454 0v1493h193v-1493h-193z" />
<glyph unicode="&#x4f9;" horiz-adv-x="1531" d="M143 0v1073h172v-444h242q227 0 334.5 -79t107.5 -243q0 -127 -84 -217t-233 -90h-539zM315 156h312q94 0 141 53q45 45 45 92q0 37 -1 53.5t-11 40t-33 37.5q-63 41 -141 41h-312v-317zM475 1155v211h213v-211h-213zM807 1155v211h213v-211h-213zM1184 0v1073h170v-1073 h-170z" />
<glyph unicode="&#xe3f;" horiz-adv-x="1366" d="M162 0v1493h461v170h110v-170h35q207 0 324.5 -105.5t117.5 -273.5q0 -229 -206 -326q143 -55 207.5 -141t64.5 -221q0 -186 -121 -306t-319 -120h-103v-170h-110v170h-461zM352 168h271v514h-271v-514zM352 850h271v475h-271v-475zM733 168h84q129 0 198.5 71.5 t69.5 184.5q0 115 -68.5 186.5t-199.5 71.5h-84v-514zM733 850q287 6 287 237.5t-287 237.5v-475z" />
<glyph unicode="&#x1e0c;" horiz-adv-x="1478" d="M182 0v1493h576q285 0 446.5 -198.5t161.5 -547t-163 -548t-445 -199.5h-576zM373 168h352q221 0 336 147.5t115 429.5q0 285 -115 432.5t-336 147.5h-352v-1157zM618 -162h213v-213h-213v213z" />
<glyph unicode="&#x1e0d;" d="M53 547q0 256 126 406.5t335 150.5q221 0 330 -166v555h170v-1493h-152v158q-70 -100 -150.5 -144.5t-191.5 -44.5q-217 0 -342 154t-125 424zM231 536.5q0 -186.5 86 -297t228 -110.5q135 0 217 109.5t82 293.5q0 186 -82 299t-219 113q-141 0 -226.5 -110.5t-85.5 -297 zM463 -162h213v-213h-213v213z" />
<glyph unicode="&#x1e0e;" horiz-adv-x="1478" d="M182 0v1493h576q285 0 446.5 -198.5t161.5 -547t-163 -548t-445 -199.5h-576zM373 168h352q221 0 336 147.5t115 429.5q0 285 -115 432.5t-336 147.5h-352v-1157zM442 -197h562v-143h-562v143z" />
<glyph unicode="&#x1e0f;" d="M53 547q0 256 126 406.5t335 150.5q221 0 330 -166v555h170v-1493h-152v158q-70 -100 -150.5 -144.5t-191.5 -44.5q-217 0 -342 154t-125 424zM231 536.5q0 -186.5 86 -297t228 -110.5q135 0 217 109.5t82 293.5q0 186 -82 299t-219 113q-141 0 -226.5 -110.5t-85.5 -297 zM287 -197h561v-143h-561v143z" />
<glyph unicode="&#x1e24;" horiz-adv-x="1478" d="M170 0v1493h190v-645h768v645h191v-1493h-191v680h-768v-680h-190zM633 -162h213v-213h-213v213z" />
<glyph unicode="&#x1e25;" d="M143 0v1493h170v-567q76 98 153 138t191 40q156 0 247 -79t91 -214v-811h-170v743q0 102 -62.5 156.5t-158.5 54.5q-131 0 -211 -99t-80 -263v-592h-170zM463 -162h213v-213h-213v213z" />
<glyph unicode="&#x1e26;" horiz-adv-x="1478" d="M170 0v1493h190v-645h768v645h191v-1493h-191v680h-768v-680h-190zM481 1636v209h187v-209h-187zM813 1636v209h186v-209h-186z" />
<glyph unicode="&#x1e27;" d="M143 0v1493h170v-567q76 98 153 138t191 40q156 0 247 -79t91 -214v-811h-170v743q0 102 -62.5 156.5t-158.5 54.5q-131 0 -211 -99t-80 -263v-592h-170zM311 1636v209h187v-209h-187zM643 1636v209h186v-209h-186z" />
<glyph unicode="&#x1e2a;" horiz-adv-x="1478" d="M170 0v1493h190v-645h768v645h191v-1493h-191v680h-768v-680h-190zM369 -143h145q8 -59 61.5 -81t163.5 -22q213 0 224 103h145q-25 -250 -373 -250q-166 0 -265 61.5t-101 188.5z" />
<glyph unicode="&#x1e2b;" d="M143 0v1493h170v-567q76 98 153 138t191 40q156 0 247 -79t91 -214v-811h-170v743q0 102 -62.5 156.5t-158.5 54.5q-131 0 -211 -99t-80 -263v-592h-170zM199 -143h145q8 -59 61.5 -81t163.5 -22q213 0 224 103h145q-25 -250 -373 -250q-166 0 -265 61.5t-101 188.5z" />
<glyph unicode="&#x1e36;" d="M164 0v1493h190v-1325h738v-168h-928zM522 -162h213v-213h-213v213z" />
<glyph unicode="&#x1e37;" horiz-adv-x="454" d="M121 -162h213v-213h-213v213zM139 0v1493h170v-1493h-170z" />
<glyph unicode="&#x1e38;" d="M-25 1669v143h562v-143h-562zM164 0v1493h190v-1325h738v-168h-928zM522 -162h213v-213h-213v213z" />
<glyph unicode="&#x1e39;" horiz-adv-x="454" d="M-59 1669v143h561v-143h-561zM121 -162h213v-213h-213v213zM139 0v1493h170v-1493h-170z" />
<glyph unicode="&#x1e42;" horiz-adv-x="1705" d="M154 0v1493h264l442 -1300l434 1300h265v-1493h-181v1251l-420 -1251h-200l-424 1251v-1251h-180zM748 -162h213v-213h-213v213z" />
<glyph unicode="&#x1e43;" horiz-adv-x="1705" d="M145 0v1073h156v-151q70 96 146.5 139t183.5 43q199 0 289 -164q76 90 149.5 127t179.5 37q150 0 228.5 -77t78.5 -222v-805h-170v739q0 102 -51 158.5t-145 56.5q-104 0 -179 -81.5t-75 -198.5v-674h-170v739q0 102 -52 158.5t-147 56.5q-104 0 -178 -81.5t-74 -198.5 v-674h-170zM748 -162h213v-213h-213v213z" />
<glyph unicode="&#x1e44;" horiz-adv-x="1478" d="M156 0v1493h206l781 -1221v1221h180v-1493h-215l-772 1210v-1210h-180zM635 1634v213h213v-213h-213z" />
<glyph unicode="&#x1e45;" d="M143 0v1073h158v-180q72 113 155 162t201 49q156 0 248 -80t92 -213v-811h-170v743q0 96 -59 153.5t-162 57.5q-131 0 -212 -99t-81 -263v-592h-170zM463 1235v213h213v-213h-213z" />
<glyph unicode="&#x1e46;" horiz-adv-x="1478" d="M156 0v1493h206l781 -1221v1221h180v-1493h-215l-772 1210v-1210h-180zM633 -162h213v-213h-213v213z" />
<glyph unicode="&#x1e47;" d="M143 0v1073h158v-180q72 113 155 162t201 49q156 0 248 -80t92 -213v-811h-170v743q0 96 -59 153.5t-162 57.5q-131 0 -212 -99t-81 -263v-592h-170zM463 -162h213v-213h-213v213z" />
<glyph unicode="&#x1e58;" horiz-adv-x="1478" d="M190 0v1493h689q219 0 336.5 -103.5t117.5 -295.5q0 -127 -55 -211t-180 -146q121 -51 159.5 -128t42.5 -261q2 -150 19.5 -207t71.5 -94v-47h-232q-45 106 -43 244l2 133q2 137 -58.5 201.5t-187.5 64.5h-491v-643h-191zM381 811h461q152 0 222.5 61.5t70.5 194.5 q0 129 -69 193.5t-224 64.5h-461v-514zM635 1634v213h213v-213h-213z" />
<glyph unicode="&#x1e59;" horiz-adv-x="681" d="M143 0v1073h156v-194q74 121 142.5 173t150.5 52q23 0 65 -6v-174q-193 -2 -268.5 -90.5t-75.5 -276.5v-557h-170zM207 1235v213h213v-213h-213z" />
<glyph unicode="&#x1e5a;" horiz-adv-x="1478" d="M190 0v1493h689q219 0 336.5 -103.5t117.5 -295.5q0 -127 -55 -211t-180 -146q121 -51 159.5 -128t42.5 -261q2 -150 19.5 -207t71.5 -94v-47h-232q-45 106 -43 244l2 133q2 137 -58.5 201.5t-187.5 64.5h-491v-643h-191zM381 811h461q152 0 222.5 61.5t70.5 194.5 q0 129 -69 193.5t-224 64.5h-461v-514zM633 -162h213v-213h-213v213z" />
<glyph unicode="&#x1e5b;" horiz-adv-x="681" d="M123 -162h213v-213h-213v213zM143 0v1073h156v-194q74 121 142.5 173t150.5 52q23 0 65 -6v-174q-193 -2 -268.5 -90.5t-75.5 -276.5v-557h-170z" />
<glyph unicode="&#x1e5c;" horiz-adv-x="1478" d="M190 0v1493h689q219 0 336.5 -103.5t117.5 -295.5q0 -127 -55 -211t-180 -146q121 -51 159.5 -128t42.5 -261q2 -150 19.5 -207t71.5 -94v-47h-232q-45 106 -43 244l2 133q2 137 -58.5 201.5t-187.5 64.5h-491v-643h-191zM381 811h461q152 0 222.5 61.5t70.5 194.5 q0 129 -69 193.5t-224 64.5h-461v-514zM457 1669v143h561v-143h-561zM633 -162h213v-213h-213v213z" />
<glyph unicode="&#x1e5d;" horiz-adv-x="681" d="M29 1300v144h561v-144h-561zM123 -162h213v-213h-213v213zM143 0v1073h156v-194q74 121 142.5 173t150.5 52q23 0 65 -6v-174q-193 -2 -268.5 -90.5t-75.5 -276.5v-557h-170z" />
<glyph unicode="&#x1e62;" horiz-adv-x="1366" d="M98 485h181q0 -164 107.5 -259t313.5 -95q381 0 381 260q0 170 -274 242l-371 98q-293 76 -293 348q0 205 143.5 328t387.5 123q258 0 402.5 -122t144.5 -341h-181q0 145 -97 224t-275 79q-150 0 -242 -74.5t-92 -189.5q0 -86 55 -136t191 -85l374 -101q152 -41 235 -139 t83 -235q0 -205 -152.5 -326t-431.5 -121q-272 0 -431 133t-159 389zM578 -162h213v-213h-213v213z" />
<glyph unicode="&#x1e63;" horiz-adv-x="1024" d="M70 328h180q16 -117 77.5 -159t184.5 -42q113 0 181.5 43t68.5 117q0 57 -38 88t-128 53l-160 39q-190 45 -265 113.5t-75 195.5q0 150 113 239t299 89t286.5 -86t102.5 -244h-180q-6 172 -215 172q-104 0 -166 -44t-62 -118q0 -57 47.5 -93t151.5 -60l164 -39 q162 -39 232.5 -105.5t70.5 -185.5q0 -154 -120 -243t-322 -89q-211 0 -316.5 87.5t-111.5 271.5zM406 -162h212v-213h-212v213z" />
<glyph unicode="&#x1e6c;" horiz-adv-x="1251" d="M43 1325v168h1171v-168h-489v-1325h-190v1325h-492zM524 -162h213v-213h-213v213z" />
<glyph unicode="&#x1e6d;" horiz-adv-x="569" d="M29 934v139h145v295h170v-295h176v-139h-176v-703q0 -57 19.5 -76.5t74.5 -19.5q51 0 82 8v-143q-80 -14 -139 -14q-100 0 -153.5 44t-53.5 126v778h-145zM178 -162h213v-213h-213v213z" />
<glyph unicode="&#x1e6e;" horiz-adv-x="1251" d="M43 1325v168h1171v-168h-489v-1325h-190v1325h-492zM348 -197h561v-143h-561v143z" />
<glyph unicode="&#x1e6f;" horiz-adv-x="569" d="M2 -197h561v-143h-561v143zM29 934v139h145v295h170v-295h176v-139h-176v-703q0 -57 19.5 -76.5t74.5 -19.5q51 0 82 8v-143q-80 -14 -139 -14q-100 0 -153.5 44t-53.5 126v778h-145z" />
<glyph unicode="&#x1e80;" horiz-adv-x="1933" d="M45 1493h213l281 -1212l331 1212h205l340 -1212l275 1212h213l-379 -1493h-209l-344 1227l-334 -1227h-209zM526 1876h279l235 -272h-147z" />
<glyph unicode="&#x1e81;" horiz-adv-x="1478" d="M12 1073h189l219 -835l205 835h209l210 -835l213 835h193l-315 -1073h-195l-217 842l-207 -842h-192zM373 1493h231l197 -303h-123z" />
<glyph unicode="&#x1e82;" horiz-adv-x="1933" d="M45 1493h213l281 -1212l331 1212h205l340 -1212l275 1212h213l-379 -1493h-209l-344 1227l-334 -1227h-209zM893 1604l235 272h279l-367 -272h-147z" />
<glyph unicode="&#x1e83;" horiz-adv-x="1478" d="M12 1073h189l219 -835l205 835h209l210 -835l213 835h193l-315 -1073h-195l-217 842l-207 -842h-192zM678 1190l196 303h232l-305 -303h-123z" />
<glyph unicode="&#x1e84;" horiz-adv-x="1933" d="M45 1493h213l281 -1212l331 1212h205l340 -1212l275 1212h213l-379 -1493h-209l-344 1227l-334 -1227h-209zM709 1636v209h186v-209h-186zM1040 1636v209h187v-209h-187z" />
<glyph unicode="&#x1e85;" horiz-adv-x="1478" d="M12 1073h189l219 -835l205 835h209l210 -835l213 835h193l-315 -1073h-195l-217 842l-207 -842h-192zM479 1237v209h187v-209h-187zM811 1237v209h186v-209h-186z" />
<glyph unicode="&#x1e92;" horiz-adv-x="1251" d="M57 0v168l897 1157h-839v168h1075v-172l-893 -1153h897v-168h-1137zM547 -162h213v-213h-213v213z" />
<glyph unicode="&#x1e93;" horiz-adv-x="1024" d="M63 0v154l642 770h-599v149h801v-151l-637 -772h666v-150h-873zM406 -162h212v-213h-212v213z" />
<glyph unicode="&#x1e97;" horiz-adv-x="569" d="M0 1511v209h186v-209h-186zM29 934v139h145v295h170v-295h176v-139h-176v-703q0 -57 19.5 -76.5t74.5 -19.5q51 0 82 8v-143q-80 -14 -139 -14q-100 0 -153.5 44t-53.5 126v778h-145zM332 1511v209h186v-209h-186z" />
<glyph unicode="&#x1ea0;" horiz-adv-x="1366" d="M35 0l532 1493h246l524 -1493h-213l-153 449h-576l-157 -449h-203zM442 608h476l-230 680zM578 -162h213v-213h-213v213z" />
<glyph unicode="&#x1ea1;" d="M86 279q0 201 188 278q51 20 108.5 31.5t235.5 34.5q100 12 139.5 38.5t39.5 79.5v45q0 78 -62.5 119t-177.5 41q-119 0 -180.5 -46t-71.5 -144h-172q14 348 430 348q199 0 301.5 -75t102.5 -218v-598q0 -84 92 -84q18 0 37 4v-129q-72 -18 -117 -18q-63 0 -112.5 40 t-63.5 101q-147 -158 -365 -158q-164 0 -258 82.5t-94 227.5zM264 283q0 -164 211 -164q129 0 225.5 70.5t96.5 181.5v159q-68 -31 -275 -59q-139 -20 -198.5 -62t-59.5 -126zM457 -162h213v-213h-213v213z" />
<glyph unicode="&#x1ea2;" horiz-adv-x="1366" d="M35 0l532 1493h246l524 -1493h-213l-153 449h-576l-157 -449h-203zM442 608h476l-230 680zM459 1806q0 236 237 236q104 0 165 -48t61 -128q0 -49 -21.5 -83t-81.5 -77q-47 -37 -59 -50.5t-12 -29.5v-61h-127v67q0 47 22.5 78t85.5 72v-2q66 51 66 86q0 29 -29 46t-76 17 q-70 0 -92 -35v2q-14 -23 -14 -90h-125z" />
<glyph unicode="&#x1ea3;" d="M86 279q0 201 188 278q51 20 108.5 31.5t235.5 34.5q100 12 139.5 38.5t39.5 79.5v45q0 78 -62.5 119t-177.5 41q-119 0 -180.5 -46t-71.5 -144h-172q14 348 430 348q199 0 301.5 -75t102.5 -218v-598q0 -84 92 -84q18 0 37 4v-129q-72 -18 -117 -18q-63 0 -112.5 40 t-63.5 101q-147 -158 -365 -158q-164 0 -258 82.5t-94 227.5zM264 283q0 -164 211 -164q129 0 225.5 70.5t96.5 181.5v159q-68 -31 -275 -59q-139 -20 -198.5 -62t-59.5 -126zM332 1386q0 236 237 236q104 0 165 -48t61 -128q0 -49 -21.5 -83t-81.5 -77q-47 -37 -59 -50 t-12 -30v-61h-127v67q0 47 22.5 78t85.5 72v-2q66 51 66 86q0 29 -29 46t-76 17q-70 0 -92 -34v2q-14 -23 -14 -91h-125z" />
<glyph unicode="&#x1ea4;" horiz-adv-x="1366" d="M35 0l532 1493h246l524 -1493h-213l-153 449h-576l-157 -449h-203zM340 1604l235 276h234l235 -276h-153l-199 176l-194 -176h-158zM442 608h476l-230 680zM616 1921l236 272h278l-366 -272h-148z" />
<glyph unicode="&#x1ea5;" d="M86 279q0 201 188 278q51 20 108.5 31.5t235.5 34.5q100 12 139.5 38.5t39.5 79.5v45q0 78 -62.5 119t-177.5 41q-119 0 -180.5 -46t-71.5 -144h-172q14 348 430 348q199 0 301.5 -75t102.5 -218v-598q0 -84 92 -84q18 0 37 4v-129q-72 -18 -117 -18q-63 0 -112.5 40 t-63.5 101q-147 -158 -365 -158q-164 0 -258 82.5t-94 227.5zM213 1184l236 276h233l236 -276h-154l-199 176l-194 -176h-158zM264 283q0 -164 211 -164q129 0 225.5 70.5t96.5 181.5v159q-68 -31 -275 -59q-139 -20 -198.5 -62t-59.5 -126zM489 1501l236 273h279l-367 -273 h-148z" />
<glyph unicode="&#x1ea6;" horiz-adv-x="1366" d="M35 0l532 1493h246l524 -1493h-213l-153 449h-576l-157 -449h-203zM250 2193h278l236 -272h-148zM340 1604l235 276h234l235 -276h-153l-199 176l-194 -176h-158zM442 608h476l-230 680z" />
<glyph unicode="&#x1ea7;" d="M86 279q0 201 188 278q51 20 108.5 31.5t235.5 34.5q100 12 139.5 38.5t39.5 79.5v45q0 78 -62.5 119t-177.5 41q-119 0 -180.5 -46t-71.5 -144h-172q14 348 430 348q199 0 301.5 -75t102.5 -218v-598q0 -84 92 -84q18 0 37 4v-129q-72 -18 -117 -18q-63 0 -112.5 40 t-63.5 101q-147 -158 -365 -158q-164 0 -258 82.5t-94 227.5zM123 1774h278l236 -273h-148zM213 1184l236 276h233l236 -276h-154l-199 176l-194 -176h-158zM264 283q0 -164 211 -164q129 0 225.5 70.5t96.5 181.5v159q-68 -31 -275 -59q-139 -20 -198.5 -62t-59.5 -126z " />
<glyph unicode="&#x1ea8;" horiz-adv-x="1366" d="M35 0l532 1493h246l524 -1493h-213l-153 449h-576l-157 -449h-203zM340 1604l235 276h234l235 -276h-153l-199 176l-194 -176h-158zM442 608h476l-230 680zM582 2140q0 211 237 211q104 0 164.5 -43t60.5 -115q0 -45 -21.5 -74.5t-80.5 -70.5q-47 -31 -59.5 -44 t-12.5 -28v-55h-127v61q0 43 22.5 70t86.5 66v-2q66 45 66 77q0 25 -29 41.5t-76 16.5q-70 0 -92 -33v2q-14 -20 -14 -80h-125z" />
<glyph unicode="&#x1ea9;" d="M86 279q0 201 188 278q51 20 108.5 31.5t235.5 34.5q100 12 139.5 38.5t39.5 79.5v45q0 78 -62.5 119t-177.5 41q-119 0 -180.5 -46t-71.5 -144h-172q14 348 430 348q199 0 301.5 -75t102.5 -218v-598q0 -84 92 -84q18 0 37 4v-129q-72 -18 -117 -18q-63 0 -112.5 40 t-63.5 101q-147 -158 -365 -158q-164 0 -258 82.5t-94 227.5zM213 1184l236 276h233l236 -276h-154l-199 176l-194 -176h-158zM264 283q0 -164 211 -164q129 0 225.5 70.5t96.5 181.5v159q-68 -31 -275 -59q-139 -20 -198.5 -62t-59.5 -126zM455 1720q0 211 237 211 q104 0 165 -43t61 -114q0 -45 -22 -75t-81 -71q-45 -31 -58.5 -43t-13.5 -29v-55h-127v62q0 43 23 69.5t86 65.5v-2q66 45 66 78q0 25 -29 41t-76 16q-70 0 -92 -33v2q-14 -20 -14 -80h-125z" />
<glyph unicode="&#x1eaa;" horiz-adv-x="1366" d="M35 0l532 1493h246l524 -1493h-213l-153 449h-576l-157 -449h-203zM340 1604l235 276h234l235 -276h-153l-199 176l-194 -176h-158zM360 1944q16 100 62.5 155t114.5 55q47 0 143 -38q84 -37 129 -37q51 0 76 75h119q-31 -213 -183 -212q-43 0 -174 51q-72 27 -100 26 q-47 0 -68 -75h-119zM442 608h476l-230 680z" />
<glyph unicode="&#x1eab;" d="M86 279q0 201 188 278q51 20 108.5 31.5t235.5 34.5q100 12 139.5 38.5t39.5 79.5v45q0 78 -62.5 119t-177.5 41q-119 0 -180.5 -46t-71.5 -144h-172q14 348 430 348q199 0 301.5 -75t102.5 -218v-598q0 -84 92 -84q18 0 37 4v-129q-72 -18 -117 -18q-63 0 -112.5 40 t-63.5 101q-147 -158 -365 -158q-164 0 -258 82.5t-94 227.5zM213 1184l236 276h233l236 -276h-154l-199 176l-194 -176h-158zM233 1524q16 100 62.5 155.5t114.5 55.5q47 0 143 -39q84 -37 129 -37q51 0 76 76h119q-31 -213 -183 -213q-43 0 -174 51q-72 27 -100 26 q-47 0 -68 -75h-119zM264 283q0 -164 211 -164q129 0 225.5 70.5t96.5 181.5v159q-68 -31 -275 -59q-139 -20 -198.5 -62t-59.5 -126z" />
<glyph unicode="&#x1eac;" horiz-adv-x="1366" d="M35 0l532 1493h246l524 -1493h-213l-153 449h-576l-157 -449h-203zM338 1604l235 276h234l235 -276h-153l-199 176l-194 -176h-158zM442 608h476l-230 680zM578 -162h213v-213h-213v213z" />
<glyph unicode="&#x1ead;" d="M86 279q0 201 188 278q51 20 108.5 31.5t235.5 34.5q100 12 139.5 38.5t39.5 79.5v45q0 78 -62.5 119t-177.5 41q-119 0 -180.5 -46t-71.5 -144h-172q14 348 430 348q199 0 301.5 -75t102.5 -218v-598q0 -84 92 -84q18 0 37 4v-129q-72 -18 -117 -18q-63 0 -112.5 40 t-63.5 101q-147 -158 -365 -158q-164 0 -258 82.5t-94 227.5zM264 283q0 -164 211 -164q129 0 225.5 70.5t96.5 181.5v159q-68 -31 -275 -59q-139 -20 -198.5 -62t-59.5 -126zM268 1188l197 307h194l197 -307h-129l-166 196l-162 -196h-131zM457 -162h213v-213h-213v213z " />
<glyph unicode="&#x1eae;" horiz-adv-x="1366" d="M35 0l532 1493h246l524 -1493h-213l-153 449h-576l-157 -449h-203zM322 1866h145q8 -59 61.5 -81t163.5 -22q213 0 223 103h146q-25 -250 -373 -250q-166 0 -265 61.5t-101 188.5zM442 608h476l-230 680zM616 1935l236 273h278l-366 -273h-148z" />
<glyph unicode="&#x1eaf;" d="M86 279q0 201 188 278q51 20 108.5 31.5t235.5 34.5q100 12 139.5 38.5t39.5 79.5v45q0 78 -62.5 119t-177.5 41q-119 0 -180.5 -46t-71.5 -144h-172q14 348 430 348q199 0 301.5 -75t102.5 -218v-598q0 -84 92 -84q18 0 37 4v-129q-72 -18 -117 -18q-63 0 -112.5 40 t-63.5 101q-147 -158 -365 -158q-164 0 -258 82.5t-94 227.5zM195 1446h145q8 -59 61.5 -81t163.5 -22q213 0 223 103h146q-25 -250 -373 -250q-166 0 -265 61.5t-101 188.5zM264 283q0 -164 211 -164q129 0 225.5 70.5t96.5 181.5v159q-68 -31 -275 -59 q-139 -20 -198.5 -62t-59.5 -126zM489 1516l236 272h279l-367 -272h-148z" />
<glyph unicode="&#x1eb0;" horiz-adv-x="1366" d="M35 0l532 1493h246l524 -1493h-213l-153 449h-576l-157 -449h-203zM250 2208h278l236 -273h-148zM322 1866h145q8 -59 61.5 -81t163.5 -22q213 0 223 103h146q-25 -250 -373 -250q-166 0 -265 61.5t-101 188.5zM442 608h476l-230 680z" />
<glyph unicode="&#x1eb1;" d="M86 279q0 201 188 278q51 20 108.5 31.5t235.5 34.5q100 12 139.5 38.5t39.5 79.5v45q0 78 -62.5 119t-177.5 41q-119 0 -180.5 -46t-71.5 -144h-172q14 348 430 348q199 0 301.5 -75t102.5 -218v-598q0 -84 92 -84q18 0 37 4v-129q-72 -18 -117 -18q-63 0 -112.5 40 t-63.5 101q-147 -158 -365 -158q-164 0 -258 82.5t-94 227.5zM123 1788h278l236 -272h-148zM195 1446h145q8 -59 61.5 -81t163.5 -22q213 0 223 103h146q-25 -250 -373 -250q-166 0 -265 61.5t-101 188.5zM264 283q0 -164 211 -164q129 0 225.5 70.5t96.5 181.5v159 q-68 -31 -275 -59q-139 -20 -198.5 -62t-59.5 -126z" />
<glyph unicode="&#x1eb2;" horiz-adv-x="1366" d="M35 0l532 1493h246l524 -1493h-213l-153 449h-576l-157 -449h-203zM322 1866h145q8 -59 61.5 -81t163.5 -22q213 0 223 103h146q-25 -250 -373 -250q-166 0 -265 61.5t-101 188.5zM442 608h476l-230 680zM461 2064q0 211 237 211q104 0 165 -43t61 -114q0 -45 -21.5 -75 t-81.5 -71q-45 -31 -58 -43t-13 -28v-56h-127v62q0 43 22.5 69.5t85.5 65.5v-2q66 45 66 78q0 25 -29 41t-76 16q-70 0 -92 -33v2q-14 -20 -14 -80h-125z" />
<glyph unicode="&#x1eb3;" d="M86 279q0 201 188 278q51 20 108.5 31.5t235.5 34.5q100 12 139.5 38.5t39.5 79.5v45q0 78 -62.5 119t-177.5 41q-119 0 -180.5 -46t-71.5 -144h-172q14 348 430 348q199 0 301.5 -75t102.5 -218v-598q0 -84 92 -84q18 0 37 4v-129q-72 -18 -117 -18q-63 0 -112.5 40 t-63.5 101q-147 -158 -365 -158q-164 0 -258 82.5t-94 227.5zM195 1446h145q8 -59 61.5 -81t163.5 -22q213 0 223 103h146q-25 -250 -373 -250q-166 0 -265 61.5t-101 188.5zM264 283q0 -164 211 -164q129 0 225.5 70.5t96.5 181.5v159q-68 -31 -275 -59 q-139 -20 -198.5 -62t-59.5 -126zM334 1645q0 211 237 210q104 0 165 -43t61 -114q0 -45 -21.5 -75t-81.5 -71q-45 -31 -58 -44t-13 -27v-56h-127v62q0 43 22.5 69.5t85.5 65.5v-2q66 45 66 78q0 25 -29 41t-76 16q-70 0 -92 -33v2q-14 -20 -14 -79h-125z" />
<glyph unicode="&#x1eb4;" horiz-adv-x="1366" d="M35 0l532 1493h246l524 -1493h-213l-153 449h-576l-157 -449h-203zM322 1866h145q8 -59 61.5 -81t163.5 -22q213 0 223 103h146q-25 -250 -373 -250q-166 0 -265 61.5t-101 188.5zM360 1960q16 100 62.5 155.5t114.5 55.5q47 0 143 -39q84 -37 129 -37q51 0 76 76h119 q-31 -213 -183 -213q-43 0 -174 51q-72 27 -100 27q-47 0 -68 -76h-119zM442 608h476l-230 680z" />
<glyph unicode="&#x1eb5;" d="M86 279q0 201 188 278q51 20 108.5 31.5t235.5 34.5q100 12 139.5 38.5t39.5 79.5v45q0 78 -62.5 119t-177.5 41q-119 0 -180.5 -46t-71.5 -144h-172q14 348 430 348q199 0 301.5 -75t102.5 -218v-598q0 -84 92 -84q18 0 37 4v-129q-72 -18 -117 -18q-63 0 -112.5 40 t-63.5 101q-147 -158 -365 -158q-164 0 -258 82.5t-94 227.5zM195 1446h145q8 -59 61.5 -81t163.5 -22q213 0 223 103h146q-25 -250 -373 -250q-166 0 -265 61.5t-101 188.5zM233 1540q16 100 62.5 155.5t114.5 55.5q47 0 143 -39q84 -37 129 -37q51 0 76 76h119 q-31 -213 -183 -213q-43 0 -174 51q-72 27 -100 27q-47 0 -68 -76h-119zM264 283q0 -164 211 -164q129 0 225.5 70.5t96.5 181.5v159q-68 -31 -275 -59q-139 -20 -198.5 -62t-59.5 -126z" />
<glyph unicode="&#x1eb6;" horiz-adv-x="1366" d="M35 0l532 1493h246l524 -1493h-213l-153 449h-576l-157 -449h-203zM319 1866h146q8 -59 61.5 -81t163.5 -22q213 0 223 103h146q-25 -250 -373 -250q-166 0 -265.5 61.5t-101.5 188.5zM442 608h476l-230 680zM578 -162h213v-213h-213v213z" />
<glyph unicode="&#x1eb7;" d="M86 279q0 201 188 278q51 20 108.5 31.5t235.5 34.5q100 12 139.5 38.5t39.5 79.5v45q0 78 -62.5 119t-177.5 41q-119 0 -180.5 -46t-71.5 -144h-172q14 348 430 348q199 0 301.5 -75t102.5 -218v-598q0 -84 92 -84q18 0 37 4v-129q-72 -18 -117 -18q-63 0 -112.5 40 t-63.5 101q-147 -158 -365 -158q-164 0 -258 82.5t-94 227.5zM246 1481h110q25 -61 80.5 -98t121 -37t120.5 36.5t80 98.5h110q0 -117 -92 -197t-219 -80t-219 80t-92 197zM264 283q0 -164 211 -164q129 0 225.5 70.5t96.5 181.5v159q-68 -31 -275 -59q-139 -20 -198.5 -62 t-59.5 -126zM457 -162h213v-213h-213v213z" />
<glyph unicode="&#x1eb8;" horiz-adv-x="1366" d="M184 0v1493h1035v-168h-844v-477h813v-168h-813v-512h880v-168h-1071zM578 -162h213v-213h-213v213z" />
<glyph unicode="&#x1eb9;" d="M82 530.5q0 264.5 133 419t358 154.5q152 0 267.5 -76t167.5 -207q43 -113 43 -334h-791q2 -178 89 -269t226 -91q215 0 281 199h172q-33 -164 -154.5 -260.5t-304.5 -96.5q-227 0 -357 148.5t-130 413zM264 627h602l2 12q0 127 -86 217t-211 90q-129 0 -213 -88 t-94 -231zM467 -162h213v-213h-213v213z" />
<glyph unicode="&#x1eba;" horiz-adv-x="1366" d="M184 0v1493h1035v-168h-844v-477h813v-168h-813v-512h880v-168h-1071zM471 1806q0 236 238 236q104 0 164.5 -48t60.5 -128q0 -49 -21.5 -83t-81.5 -77q-47 -37 -59 -50.5t-12 -29.5v-61h-127v67q0 47 22.5 78t85.5 72v-2q66 51 66 86q0 29 -28.5 46t-76.5 17 q-70 0 -92 -35v2q-14 -23 -14 -90h-125z" />
<glyph unicode="&#x1ebb;" d="M82 530.5q0 264.5 133 419t358 154.5q152 0 267.5 -76t167.5 -207q43 -113 43 -334h-791q2 -178 89 -269t226 -91q215 0 281 199h172q-33 -164 -154.5 -260.5t-304.5 -96.5q-227 0 -357 148.5t-130 413zM264 627h602l2 12q0 127 -86 217t-211 90q-129 0 -213 -88 t-94 -231zM342 1386q0 236 238 236q104 0 164.5 -48t60.5 -128q0 -49 -21.5 -83t-81.5 -77q-47 -37 -59 -50t-12 -30v-61h-127v67q0 47 22.5 78t85.5 72v-2q66 51 66 86q0 29 -28.5 46t-76.5 17q-70 0 -92 -34v2q-14 -23 -14 -91h-125z" />
<glyph unicode="&#x1ebc;" horiz-adv-x="1366" d="M184 0v1493h1035v-168h-844v-477h813v-168h-813v-512h880v-168h-1071zM373 1636q16 100 62 155.5t114 55.5q47 0 143 -39q84 -37 129 -36q51 0 76 75h119q-31 -213 -182 -213q-43 0 -175 52q-72 27 -100 26q-47 0 -67 -76h-119z" />
<glyph unicode="&#x1ebd;" d="M82 530.5q0 264.5 133 419t358 154.5q152 0 267.5 -76t167.5 -207q43 -113 43 -334h-791q2 -178 89 -269t226 -91q215 0 281 199h172q-33 -164 -154.5 -260.5t-304.5 -96.5q-227 0 -357 148.5t-130 413zM242 1237q16 100 62 155.5t114 55.5q47 0 143 -39q84 -37 129 -37 q51 0 76 76h119q-31 -213 -183 -213q-43 0 -174 51q-72 27 -100 27q-47 0 -68 -76h-118zM264 627h602l2 12q0 127 -86 217t-211 90q-129 0 -213 -88t-94 -231z" />
<glyph unicode="&#x1ebe;" horiz-adv-x="1366" d="M184 0v1493h1035v-168h-844v-477h813v-168h-813v-512h880v-168h-1071zM352 1604l236 276h233l236 -276h-154l-198 176l-195 -176h-158zM629 1921l235 272h279l-367 -272h-147z" />
<glyph unicode="&#x1ebf;" d="M82 530.5q0 264.5 133 419t358 154.5q152 0 267.5 -76t167.5 -207q43 -113 43 -334h-791q2 -178 89 -269t226 -91q215 0 281 199h172q-33 -164 -154.5 -260.5t-304.5 -96.5q-227 0 -357 148.5t-130 413zM223 1184l236 276h233l236 -276h-154l-199 176l-194 -176h-158z M264 627h602l2 12q0 127 -86 217t-211 90q-129 0 -213 -88t-94 -231zM500 1501l235 273h279l-367 -273h-147z" />
<glyph unicode="&#x1ec0;" horiz-adv-x="1366" d="M184 0v1493h1035v-168h-844v-477h813v-168h-813v-512h880v-168h-1071zM262 2193h279l235 -272h-147zM352 1604l236 276h233l236 -276h-154l-198 176l-195 -176h-158z" />
<glyph unicode="&#x1ec1;" d="M82 530.5q0 264.5 133 419t358 154.5q152 0 267.5 -76t167.5 -207q43 -113 43 -334h-791q2 -178 89 -269t226 -91q215 0 281 199h172q-33 -164 -154.5 -260.5t-304.5 -96.5q-227 0 -357 148.5t-130 413zM133 1774h279l235 -273h-147zM223 1184l236 276h233l236 -276h-154 l-199 176l-194 -176h-158zM264 627h602l2 12q0 127 -86 217t-211 90q-129 0 -213 -88t-94 -231z" />
<glyph unicode="&#x1ec2;" horiz-adv-x="1366" d="M184 0v1493h1035v-168h-844v-477h813v-168h-813v-512h880v-168h-1071zM352 1604l236 276h233l236 -276h-154l-198 176l-195 -176h-158zM594 2140q0 211 237 211q104 0 165 -43t61 -115q0 -45 -21.5 -74.5t-81.5 -70.5q-47 -31 -59 -44t-12 -28v-55h-127v61q0 43 22.5 70 t85.5 66v-2q66 45 66 77q0 25 -29 41.5t-76 16.5q-70 0 -92 -33v2q-14 -20 -14 -80h-125z" />
<glyph unicode="&#x1ec3;" d="M82 530.5q0 264.5 133 419t358 154.5q152 0 267.5 -76t167.5 -207q43 -113 43 -334h-791q2 -178 89 -269t226 -91q215 0 281 199h172q-33 -164 -154.5 -260.5t-304.5 -96.5q-227 0 -357 148.5t-130 413zM223 1184l236 276h233l236 -276h-154l-199 176l-194 -176h-158z M264 627h602l2 12q0 127 -86 217t-211 90q-129 0 -213 -88t-94 -231zM465 1720q0 211 237 211q104 0 165 -43t61 -114q0 -45 -21.5 -75t-81.5 -71q-47 -31 -59 -43t-12 -29v-55h-127v62q0 43 22.5 69.5t85.5 65.5v-2q66 45 66 78q0 25 -29 41t-76 16q-70 0 -92 -33v2 q-14 -20 -14 -80h-125z" />
<glyph unicode="&#x1ec4;" horiz-adv-x="1366" d="M184 0v1493h1035v-168h-844v-477h813v-168h-813v-512h880v-168h-1071zM352 1604l236 276h233l236 -276h-154l-198 176l-195 -176h-158zM373 1944q16 100 62 155t114 55q47 0 143 -38q84 -37 129 -37q51 0 76 75h119q-31 -213 -182 -212q-43 0 -175 51q-72 27 -100 26 q-47 0 -67 -75h-119z" />
<glyph unicode="&#x1ec5;" d="M82 530.5q0 264.5 133 419t358 154.5q152 0 267.5 -76t167.5 -207q43 -113 43 -334h-791q2 -178 89 -269t226 -91q215 0 281 199h172q-33 -164 -154.5 -260.5t-304.5 -96.5q-227 0 -357 148.5t-130 413zM223 1184l236 276h233l236 -276h-154l-199 176l-194 -176h-158z M244 1524q16 100 62 155.5t114 55.5q47 0 143 -39q84 -37 129 -37q51 0 76 76h119q-31 -213 -182 -213q-43 0 -175 51q-72 27 -100 26q-47 0 -68 -75h-118zM264 627h602l2 12q0 127 -86 217t-211 90q-129 0 -213 -88t-94 -231z" />
<glyph unicode="&#x1ec6;" horiz-adv-x="1366" d="M184 0v1493h1035v-168h-844v-477h813v-168h-813v-512h880v-168h-1071zM350 1604l236 276h233l236 -276h-154l-199 176l-194 -176h-158zM578 -162h213v-213h-213v213z" />
<glyph unicode="&#x1ec7;" d="M82 530.5q0 264.5 133 419t358 154.5q152 0 267.5 -76t167.5 -207q43 -113 43 -334h-791q2 -178 89 -269t226 -91q215 0 281 199h172q-33 -164 -154.5 -260.5t-304.5 -96.5q-227 0 -357 148.5t-130 413zM264 627h602l2 12q0 127 -86 217t-211 90q-129 0 -213 -88 t-94 -231zM279 1188l196 307h195l196 -307h-129l-166 196l-161 -196h-131zM467 -162h213v-213h-213v213z" />
<glyph unicode="&#x1ec8;" horiz-adv-x="569" d="M70 1806q0 236 237 236q104 0 164.5 -48t60.5 -128q0 -49 -21.5 -83t-80.5 -77q-47 -37 -59.5 -50.5t-12.5 -29.5v-61h-127v67q0 47 22.5 78t86.5 72v-2q66 51 66 86q0 29 -29 46t-76 17q-70 0 -92 -35v2q-14 -23 -14 -90h-125zM205 0v1493h190v-1493h-190z" />
<glyph unicode="&#x1ec9;" horiz-adv-x="569" d="M55 1386q0 236 238 236q104 0 164.5 -48t60.5 -128q0 -49 -21.5 -83t-80.5 -77q-47 -37 -59.5 -50t-12.5 -30v-61h-127v67q0 47 22.5 78t86.5 72v-2q66 51 65 86q0 29 -28.5 46t-75.5 17q-70 0 -92 -34v2q-14 -23 -15 -91h-125zM201 0v1073h170v-1073h-170z" />
<glyph unicode="&#x1eca;" horiz-adv-x="569" d="M195 -162h213v-213h-213v213zM205 0v1493h190v-1493h-190z" />
<glyph unicode="&#x1ecb;" horiz-adv-x="454" d="M121 -162h213v-213h-213v213zM123 1235v213h213v-213h-213zM143 0v1073h170v-1073h-170z" />
<glyph unicode="&#x1ecc;" horiz-adv-x="1593" d="M78 735q0 352 199.5 573.5t519.5 221.5q328 0 525.5 -222.5t197.5 -584.5q0 -334 -198 -547t-523 -213q-324 0 -522.5 212t-198.5 560zM268 735q0 -274 145.5 -439t385.5 -165q238 0 384 164t146 432q0 285 -145.5 460t-386.5 175q-236 0 -382.5 -175.5t-146.5 -451.5z M690 -162h213v-213h-213v213z" />
<glyph unicode="&#x1ecd;" d="M74 537q0 268 128 417.5t355 149.5q233 0 360 -149.5t127 -426.5q0 -264 -129 -411.5t-356 -147.5q-229 0 -357 149t-128 419zM252 537q0 -195 82 -302.5t225 -107.5q141 0 224 107.5t83 295.5q0 199 -80.5 307.5t-226.5 108.5q-143 0 -225 -108t-82 -301zM463 -162h213 v-213h-213v213z" />
<glyph unicode="&#x1ece;" horiz-adv-x="1593" d="M78 735q0 352 199.5 573.5t519.5 221.5q328 0 525.5 -222.5t197.5 -584.5q0 -334 -198 -547t-523 -213q-324 0 -522.5 212t-198.5 560zM268 735q0 -274 145.5 -439t385.5 -165q238 0 384 164t146 432q0 285 -145.5 460t-386.5 175q-236 0 -382.5 -175.5t-146.5 -451.5z M565 1806q0 236 238 236q104 0 164.5 -48t60.5 -128q0 -49 -21.5 -83t-80.5 -77q-47 -37 -59.5 -50.5t-12.5 -29.5v-61h-127v67q0 47 22.5 78t86.5 72v-2q66 51 65 86q0 29 -28.5 46t-75.5 17q-70 0 -92 -35v2q-14 -23 -15 -90h-125z" />
<glyph unicode="&#x1ecf;" d="M74 537q0 268 128 417.5t355 149.5q233 0 360 -149.5t127 -426.5q0 -264 -129 -411.5t-356 -147.5q-229 0 -357 149t-128 419zM252 537q0 -195 82 -302.5t225 -107.5q141 0 224 107.5t83 295.5q0 199 -80.5 307.5t-226.5 108.5q-143 0 -225 -108t-82 -301zM338 1386 q0 236 237 236q104 0 165 -48t61 -128q0 -49 -21.5 -83t-81.5 -77q-47 -37 -59 -50t-12 -30v-61h-127v67q0 47 22.5 78t85.5 72v-2q66 51 66 86q0 29 -29 46t-76 17q-70 0 -92 -34v2q-14 -23 -14 -91h-125z" />
<glyph unicode="&#x1ed0;" horiz-adv-x="1593" d="M78 735q0 352 199.5 573.5t519.5 221.5q328 0 525.5 -222.5t197.5 -584.5q0 -334 -198 -547t-523 -213q-324 0 -522.5 212t-198.5 560zM268 735q0 -274 145.5 -439t385.5 -165q238 0 384 164t146 432q0 285 -145.5 460t-386.5 175q-236 0 -382.5 -175.5t-146.5 -451.5z M446 1604l236 276h233l236 -276h-154l-198 176l-195 -176h-158zM723 1921l235 272h279l-367 -272h-147z" />
<glyph unicode="&#x1ed1;" d="M74 537q0 268 128 417.5t355 149.5q233 0 360 -149.5t127 -426.5q0 -264 -129 -411.5t-356 -147.5q-229 0 -357 149t-128 419zM219 1184l236 276h233l236 -276h-154l-199 176l-194 -176h-158zM252 537q0 -195 82 -302.5t225 -107.5q141 0 224 107.5t83 295.5 q0 199 -80.5 307.5t-226.5 108.5q-143 0 -225 -108t-82 -301zM496 1501l235 273h279l-367 -273h-147z" />
<glyph unicode="&#x1ed2;" horiz-adv-x="1593" d="M78 735q0 352 199.5 573.5t519.5 221.5q328 0 525.5 -222.5t197.5 -584.5q0 -334 -198 -547t-523 -213q-324 0 -522.5 212t-198.5 560zM268 735q0 -274 145.5 -439t385.5 -165q238 0 384 164t146 432q0 285 -145.5 460t-386.5 175q-236 0 -382.5 -175.5t-146.5 -451.5z M356 2193h279l235 -272h-147zM446 1604l236 276h233l236 -276h-154l-198 176l-195 -176h-158z" />
<glyph unicode="&#x1ed3;" d="M74 537q0 268 128 417.5t355 149.5q233 0 360 -149.5t127 -426.5q0 -264 -129 -411.5t-356 -147.5q-229 0 -357 149t-128 419zM129 1774h279l235 -273h-147zM219 1184l236 276h233l236 -276h-154l-199 176l-194 -176h-158zM252 537q0 -195 82 -302.5t225 -107.5 q141 0 224 107.5t83 295.5q0 199 -80.5 307.5t-226.5 108.5q-143 0 -225 -108t-82 -301z" />
<glyph unicode="&#x1ed4;" horiz-adv-x="1593" d="M78 735q0 352 199.5 573.5t519.5 221.5q328 0 525.5 -222.5t197.5 -584.5q0 -334 -198 -547t-523 -213q-324 0 -522.5 212t-198.5 560zM268 735q0 -274 145.5 -439t385.5 -165q238 0 384 164t146 432q0 285 -145.5 460t-386.5 175q-236 0 -382.5 -175.5t-146.5 -451.5z M446 1604l236 276h233l236 -276h-154l-198 176l-195 -176h-158zM688 2140q0 211 238 211q104 0 164.5 -43t60.5 -115q0 -45 -21.5 -74.5t-80.5 -70.5q-47 -31 -59.5 -44t-12.5 -28v-55h-127v61q0 43 22.5 70t85.5 66v-2q66 45 66 77q0 25 -28.5 41.5t-75.5 16.5 q-70 0 -93 -33v2q-14 -20 -14 -80h-125z" />
<glyph unicode="&#x1ed5;" d="M74 537q0 268 128 417.5t355 149.5q233 0 360 -149.5t127 -426.5q0 -264 -129 -411.5t-356 -147.5q-229 0 -357 149t-128 419zM219 1184l236 276h233l236 -276h-154l-199 176l-194 -176h-158zM252 537q0 -195 82 -302.5t225 -107.5q141 0 224 107.5t83 295.5 q0 199 -80.5 307.5t-226.5 108.5q-143 0 -225 -108t-82 -301zM461 1720q0 211 237 211q104 0 165 -43t61 -114q0 -45 -21.5 -75t-81.5 -71q-45 -31 -58 -43t-13 -29v-55h-127v62q0 43 22.5 69.5t85.5 65.5v-2q66 45 66 78q0 25 -29 41t-76 16q-70 0 -92 -33v2 q-14 -20 -14 -80h-125z" />
<glyph unicode="&#x1ed6;" horiz-adv-x="1593" d="M78 735q0 352 199.5 573.5t519.5 221.5q328 0 525.5 -222.5t197.5 -584.5q0 -334 -198 -547t-523 -213q-324 0 -522.5 212t-198.5 560zM268 735q0 -274 145.5 -439t385.5 -165q238 0 384 164t146 432q0 285 -145.5 460t-386.5 175q-236 0 -382.5 -175.5t-146.5 -451.5z M446 1604l236 276h233l236 -276h-154l-198 176l-195 -176h-158zM467 1944q16 100 62 155t114 55q47 0 143 -38q84 -37 129 -37q51 0 76 75h119q-31 -213 -182 -212q-43 0 -174 51q-72 27 -101 26q-47 0 -67 -75h-119z" />
<glyph unicode="&#x1ed7;" d="M74 537q0 268 128 417.5t355 149.5q233 0 360 -149.5t127 -426.5q0 -264 -129 -411.5t-356 -147.5q-229 0 -357 149t-128 419zM219 1184l236 276h233l236 -276h-154l-199 176l-194 -176h-158zM240 1524q16 100 62 155.5t114 55.5q47 0 143 -39q84 -37 129 -37q51 0 76 76 h119q-31 -213 -183 -213q-43 0 -174 51q-72 27 -100 26q-47 0 -68 -75h-118zM252 537q0 -195 82 -302.5t225 -107.5q141 0 224 107.5t83 295.5q0 199 -80.5 307.5t-226.5 108.5q-143 0 -225 -108t-82 -301z" />
<glyph unicode="&#x1ed8;" horiz-adv-x="1593" d="M78 735q0 352 199.5 573.5t519.5 221.5q328 0 525.5 -222.5t197.5 -584.5q0 -334 -198 -547t-523 -213q-324 0 -522.5 212t-198.5 560zM268 735q0 -274 145.5 -439t385.5 -165q238 0 384 164t146 432q0 285 -145.5 460t-386.5 175q-236 0 -382.5 -175.5t-146.5 -451.5z M444 1604l236 276h233l236 -276h-154l-198 176l-195 -176h-158zM690 -162h213v-213h-213v213z" />
<glyph unicode="&#x1ed9;" d="M74 537q0 268 128 417.5t355 149.5q233 0 360 -149.5t127 -426.5q0 -264 -129 -411.5t-356 -147.5q-229 0 -357 149t-128 419zM252 537q0 -195 82 -302.5t225 -107.5q141 0 224 107.5t83 295.5q0 199 -80.5 307.5t-226.5 108.5q-143 0 -225 -108t-82 -301zM274 1188 l197 307h195l196 -307h-129l-166 196l-161 -196h-132zM463 -162h213v-213h-213v213z" />
<glyph unicode="&#x1eda;" horiz-adv-x="1593" d="M78 743q0 348 198.5 561.5t520.5 213.5q334 0 528 -222q92 76 92 197h-98v213h190v-207q0 -174 -131 -270q141 -205 142 -498q0 -182 -69 -342t-189 -262q-186 -158 -463 -158q-324 0 -522.5 212t-198.5 562zM268 743.5q0 -274.5 145.5 -440.5t385.5 -166q238 0 384 164 t146 434q0 283 -144.5 449t-387.5 166q-238 0 -383.5 -166t-145.5 -440.5zM725 1604l236 272h278l-367 -272h-147z" />
<glyph unicode="&#x1edb;" horiz-adv-x="1169" d="M74 537q0 268 128 417.5t355 149.5q281 0 408 -225q88 76 88 194h-99v213h191v-207q0 -182 -146 -278q45 -125 45 -273q0 -264 -129 -411.5t-356 -147.5q-229 0 -357 149t-128 419zM252 537q0 -195 82 -302.5t225 -107.5q141 0 224 107.5t83 295.5q0 199 -80.5 307.5 t-226.5 108.5q-143 0 -225 -108t-82 -301zM498 1190l196 303h232l-305 -303h-123z" />
<glyph unicode="&#x1edc;" horiz-adv-x="1593" d="M78 743q0 348 198.5 561.5t520.5 213.5q334 0 528 -222q92 76 92 197h-98v213h190v-207q0 -174 -131 -270q141 -205 142 -498q0 -182 -69 -342t-189 -262q-186 -158 -463 -158q-324 0 -522.5 212t-198.5 562zM268 743.5q0 -274.5 145.5 -440.5t385.5 -166q238 0 384 164 t146 434q0 283 -144.5 449t-387.5 166q-238 0 -383.5 -166t-145.5 -440.5zM358 1876h279l235 -272h-147z" />
<glyph unicode="&#x1edd;" horiz-adv-x="1169" d="M74 537q0 268 128 417.5t355 149.5q281 0 408 -225q88 76 88 194h-99v213h191v-207q0 -182 -146 -278q45 -125 45 -273q0 -264 -129 -411.5t-356 -147.5q-229 0 -357 149t-128 419zM193 1493h231l197 -303h-123zM252 537q0 -195 82 -302.5t225 -107.5q141 0 224 107.5 t83 295.5q0 199 -80.5 307.5t-226.5 108.5q-143 0 -225 -108t-82 -301z" />
<glyph unicode="&#x1ede;" horiz-adv-x="1593" d="M78 743q0 348 198.5 561.5t520.5 213.5q334 0 528 -222q92 76 92 197h-98v213h190v-207q0 -174 -131 -270q141 -205 142 -498q0 -182 -69 -342t-189 -262q-186 -158 -463 -158q-324 0 -522.5 212t-198.5 562zM268 743.5q0 -274.5 145.5 -440.5t385.5 -166q238 0 384 164 t146 434q0 283 -144.5 449t-387.5 166q-238 0 -383.5 -166t-145.5 -440.5zM567 1806q0 236 238 236q104 0 164.5 -48t60.5 -128q0 -49 -21.5 -83t-80.5 -77q-47 -37 -59.5 -50.5t-12.5 -29.5v-61h-127v67q0 47 22.5 78t86.5 72v-2q66 51 65 86q0 29 -28.5 46t-75.5 17 q-70 0 -92 -35v2q-14 -23 -15 -90h-125z" />
<glyph unicode="&#x1edf;" horiz-adv-x="1169" d="M74 537q0 268 128 417.5t355 149.5q281 0 408 -225q88 76 88 194h-99v213h191v-207q0 -182 -146 -278q45 -125 45 -273q0 -264 -129 -411.5t-356 -147.5q-229 0 -357 149t-128 419zM252 537q0 -195 82 -302.5t225 -107.5q141 0 224 107.5t83 295.5q0 199 -80.5 307.5 t-226.5 108.5q-143 0 -225 -108t-82 -301zM328 1386q0 236 237 236q104 0 165 -48t61 -128q0 -49 -21.5 -83t-81.5 -77q-47 -37 -59.5 -50t-12.5 -30v-61h-127v67q0 47 23 78t86 72v-2q66 51 66 86q0 29 -29 46t-76 17q-70 0 -92 -34v2q-14 -23 -14 -91h-125z" />
<glyph unicode="&#x1ee0;" horiz-adv-x="1593" d="M78 743q0 348 198.5 561.5t520.5 213.5q334 0 528 -222q92 76 92 197h-98v213h190v-207q0 -174 -131 -270q141 -205 142 -498q0 -182 -69 -342t-189 -262q-186 -158 -463 -158q-324 0 -522.5 212t-198.5 562zM268 743.5q0 -274.5 145.5 -440.5t385.5 -166q238 0 384 164 t146 434q0 283 -144.5 449t-387.5 166q-238 0 -383.5 -166t-145.5 -440.5zM469 1636q16 100 62.5 155.5t113.5 55.5q47 0 143 -39q84 -37 130 -36q51 0 75 75h119q-31 -213 -182 -213q-43 0 -174 52q-72 27 -101 26q-47 0 -67 -76h-119z" />
<glyph unicode="&#x1ee1;" horiz-adv-x="1169" d="M74 537q0 268 128 417.5t355 149.5q281 0 408 -225q88 76 88 194h-99v213h191v-207q0 -182 -146 -278q45 -125 45 -273q0 -264 -129 -411.5t-356 -147.5q-229 0 -357 149t-128 419zM227 1237q16 100 62.5 155.5t113.5 55.5q47 0 144 -39q84 -37 129 -37q51 0 76 76h118 q-31 -213 -182 -213q-43 0 -174 51q-72 27 -100 27q-47 0 -68 -76h-119zM252 537q0 -195 82 -302.5t225 -107.5q141 0 224 107.5t83 295.5q0 199 -80.5 307.5t-226.5 108.5q-143 0 -225 -108t-82 -301z" />
<glyph unicode="&#x1ee2;" horiz-adv-x="1593" d="M78 743q0 348 198.5 561.5t520.5 213.5q334 0 528 -222q92 76 92 197h-98v213h190v-207q0 -174 -131 -270q141 -205 142 -498q0 -182 -69 -342t-189 -262q-186 -158 -463 -158q-324 0 -522.5 212t-198.5 562zM268 743.5q0 -274.5 145.5 -440.5t385.5 -166q238 0 384 164 t146 434q0 283 -144.5 449t-387.5 166q-238 0 -383.5 -166t-145.5 -440.5zM692 -162h213v-213h-213v213z" />
<glyph unicode="&#x1ee3;" horiz-adv-x="1169" d="M74 537q0 268 128 417.5t355 149.5q281 0 408 -225q88 76 88 194h-99v213h191v-207q0 -182 -146 -278q45 -125 45 -273q0 -264 -129 -411.5t-356 -147.5q-229 0 -357 149t-128 419zM252 537q0 -195 82 -302.5t225 -107.5q141 0 224 107.5t83 295.5q0 199 -80.5 307.5 t-226.5 108.5q-143 0 -225 -108t-82 -301zM453 -162h213v-213h-213v213z" />
<glyph unicode="&#x1ee4;" horiz-adv-x="1478" d="M174 455v1038h191v-1038q0 -158 103 -241t277 -83q180 0 282.5 86t102.5 238v1038h191v-1038q0 -225 -156.5 -358.5t-419.5 -133.5q-266 0 -418.5 132.5t-152.5 359.5zM633 -162h213v-213h-213v213z" />
<glyph unicode="&#x1ee5;" d="M133 262v811h170v-743q0 -96 59.5 -153.5t161.5 -57.5q133 0 213 99t80 263v592h170v-1073h-153v166q-76 -106 -158 -151.5t-201 -45.5q-156 0 -249 80t-93 213zM463 -162h213v-213h-213v213z" />
<glyph unicode="&#x1ee6;" horiz-adv-x="1478" d="M174 455v1038h191v-1038q0 -158 103 -241t277 -83q180 0 282.5 86t102.5 238v1038h191v-1038q0 -225 -156.5 -358.5t-419.5 -133.5q-266 0 -418.5 132.5t-152.5 359.5zM508 1806q0 236 237 236q104 0 165 -48t61 -128q0 -49 -21.5 -83t-81.5 -77q-47 -37 -59 -50.5 t-12 -29.5v-61h-127v67q0 47 22.5 78t85.5 72v-2q66 51 66 86q0 29 -29 46t-76 17q-70 0 -92 -35v2q-14 -23 -14 -90h-125z" />
<glyph unicode="&#x1ee7;" d="M133 262v811h170v-743q0 -96 59.5 -153.5t161.5 -57.5q133 0 213 99t80 263v592h170v-1073h-153v166q-76 -106 -158 -151.5t-201 -45.5q-156 0 -249 80t-93 213zM338 1386q0 236 237 236q104 0 165 -48t61 -128q0 -49 -21.5 -83t-81.5 -77q-47 -37 -59 -50t-12 -30v-61 h-127v67q0 47 22.5 78t85.5 72v-2q66 51 66 86q0 29 -29 46t-76 17q-70 0 -92 -34v2q-14 -23 -14 -91h-125z" />
<glyph unicode="&#x1ee8;" horiz-adv-x="1599" d="M174 461v1032h191v-1032q0 -162 108 -246q109 -78 272 -78q180 0 282.5 86t102.5 238v1032h191v-238q59 23 109.5 85.5t50.5 152.5h-99v213h191v-207q0 -141 -81 -224t-171 -104v-710q0 -225 -156.5 -358.5t-419.5 -133.5q-266 0 -418.5 132.5t-152.5 359.5zM674 1604 l235 272h279l-367 -272h-147z" />
<glyph unicode="&#x1ee9;" horiz-adv-x="1257" d="M133 262v811h170v-743q0 -96 59.5 -153.5t161.5 -57.5q133 0 213 99t80 263v592h170v-233q59 23 107.5 86t48.5 149h-99v213h191v-207q0 -139 -79 -222t-169 -105v-754h-153v166q-76 -106 -158 -151.5t-201 -45.5q-156 0 -249 80t-93 213zM500 1190l196 303h232 l-305 -303h-123z" />
<glyph unicode="&#x1eea;" horiz-adv-x="1599" d="M174 461v1032h191v-1032q0 -162 108 -246q109 -78 272 -78q180 0 282.5 86t102.5 238v1032h191v-238q59 23 109.5 85.5t50.5 152.5h-99v213h191v-207q0 -141 -81 -224t-171 -104v-710q0 -225 -156.5 -358.5t-419.5 -133.5q-266 0 -418.5 132.5t-152.5 359.5zM307 1876 h279l235 -272h-147z" />
<glyph unicode="&#x1eeb;" horiz-adv-x="1257" d="M133 262v811h170v-743q0 -96 59.5 -153.5t161.5 -57.5q133 0 213 99t80 263v592h170v-233q59 23 107.5 86t48.5 149h-99v213h191v-207q0 -139 -79 -222t-169 -105v-754h-153v166q-76 -106 -158 -151.5t-201 -45.5q-156 0 -249 80t-93 213zM195 1493h231l197 -303h-123z " />
<glyph unicode="&#x1eec;" horiz-adv-x="1599" d="M174 461v1032h191v-1032q0 -162 108 -246q109 -78 272 -78q180 0 282.5 86t102.5 238v1032h191v-238q59 23 109.5 85.5t50.5 152.5h-99v213h191v-207q0 -141 -81 -224t-171 -104v-710q0 -225 -156.5 -358.5t-419.5 -133.5q-266 0 -418.5 132.5t-152.5 359.5zM516 1806 q0 236 238 236q104 0 164.5 -48t60.5 -128q0 -49 -21.5 -83t-80.5 -77q-47 -37 -59.5 -50.5t-12.5 -29.5v-61h-127v67q0 47 22.5 78t85.5 72v-2q66 51 66 86q0 29 -28.5 46t-75.5 17q-70 0 -93 -35v2q-14 -23 -14 -90h-125z" />
<glyph unicode="&#x1eed;" horiz-adv-x="1257" d="M133 262v811h170v-743q0 -96 59.5 -153.5t161.5 -57.5q133 0 213 99t80 263v592h170v-233q59 23 107.5 86t48.5 149h-99v213h191v-207q0 -139 -79 -222t-169 -105v-754h-153v166q-76 -106 -158 -151.5t-201 -45.5q-156 0 -249 80t-93 213zM330 1386q0 236 237 236 q104 0 165 -48t61 -128q0 -49 -21.5 -83t-81.5 -77q-47 -37 -59.5 -50t-12.5 -30v-61h-126v67q0 47 22.5 78t85.5 72v-2q66 51 66 86q0 29 -29 46t-76 17q-70 0 -92 -34v2q-14 -23 -14 -91h-125z" />
<glyph unicode="&#x1eee;" horiz-adv-x="1599" d="M174 461v1032h191v-1032q0 -162 108 -246q109 -78 272 -78q180 0 282.5 86t102.5 238v1032h191v-238q59 23 109.5 85.5t50.5 152.5h-99v213h191v-207q0 -141 -81 -224t-171 -104v-710q0 -225 -156.5 -358.5t-419.5 -133.5q-266 0 -418.5 132.5t-152.5 359.5zM418 1636 q16 100 62 155.5t114 55.5q47 0 143 -39q84 -37 129 -36q51 0 76 75h119q-31 -213 -182 -213q-43 0 -174 52q-72 27 -101 26q-47 0 -67 -76h-119z" />
<glyph unicode="&#x1eef;" horiz-adv-x="1257" d="M133 262v811h170v-743q0 -96 59.5 -153.5t161.5 -57.5q133 0 213 99t80 263v592h170v-233q59 23 107.5 86t48.5 149h-99v213h191v-207q0 -139 -79 -222t-169 -105v-754h-153v166q-76 -106 -158 -151.5t-201 -45.5q-156 0 -249 80t-93 213zM229 1237q16 100 62.5 155.5 t114.5 55.5q47 0 143 -39q84 -37 129 -37q51 0 76 76h118q-31 -213 -182 -213q-43 0 -174 51q-72 27 -100 27q-47 0 -68 -76h-119z" />
<glyph unicode="&#x1ef0;" horiz-adv-x="1599" d="M174 461v1032h191v-1032q0 -162 108 -246q109 -78 272 -78q180 0 282.5 86t102.5 238v1032h191v-238q59 23 109.5 85.5t50.5 152.5h-99v213h191v-207q0 -141 -81 -224t-171 -104v-710q0 -225 -156.5 -358.5t-419.5 -133.5q-266 0 -418.5 132.5t-152.5 359.5zM641 -162 h213v-213h-213v213z" />
<glyph unicode="&#x1ef1;" horiz-adv-x="1257" d="M133 262v811h170v-743q0 -96 59.5 -153.5t161.5 -57.5q133 0 213 99t80 263v592h170v-233q59 23 107.5 86t48.5 149h-99v213h191v-207q0 -139 -79 -222t-169 -105v-754h-153v166q-76 -106 -158 -151.5t-201 -45.5q-156 0 -249 80t-93 213zM455 -162h213v-213h-213v213z " />
<glyph unicode="&#x1ef2;" horiz-adv-x="1366" d="M27 1493h235l438 -727l426 727h228l-561 -907v-586h-191v586zM258 1876h279l235 -272h-147z" />
<glyph unicode="&#x1ef3;" horiz-adv-x="1024" d="M41 1073h182l275 -835l297 835h184l-477 -1298q-82 -221 -277 -221q-63 0 -114 26v154q55 -12 90 -13q55 0 84.5 24t52.5 81l65 170zM145 1493h232l196 -303h-122z" />
<glyph unicode="&#x1ef4;" horiz-adv-x="1366" d="M27 1493h235l438 -727l426 727h228l-561 -907v-586h-191v586zM592 -162h213v-213h-213v213z" />
<glyph unicode="&#x1ef5;" horiz-adv-x="1024" d="M41 1073h182l275 -835l297 835h184l-477 -1298q-82 -221 -277 -221q-63 0 -114 26v154q55 -12 90 -13q55 0 84.5 24t52.5 81l65 170zM662 -162h212v-213h-212v213z" />
<glyph unicode="&#x1ef6;" horiz-adv-x="1366" d="M27 1493h235l438 -727l426 727h228l-561 -907v-586h-191v586zM467 1806q0 236 238 236q104 0 164.5 -48t60.5 -128q0 -49 -21.5 -83t-81.5 -77q-47 -37 -59 -50.5t-12 -29.5v-61h-127v67q0 47 22.5 78t85.5 72v-2q66 51 66 86q0 29 -29 46t-76 17q-70 0 -92 -35v2 q-14 -23 -14 -90h-125z" />
<glyph unicode="&#x1ef7;" horiz-adv-x="1024" d="M41 1073h182l275 -835l297 835h184l-477 -1298q-82 -221 -277 -221q-63 0 -114 26v154q55 -12 90 -13q55 0 84.5 24t52.5 81l65 170zM281 1386q0 236 237 236q104 0 164.5 -48t60.5 -128q0 -49 -21.5 -83t-80.5 -77q-47 -37 -59.5 -50t-12.5 -30v-61h-127v67 q0 47 22.5 78t86.5 72v-2q66 51 65 86q0 29 -28.5 46t-75.5 17q-70 0 -92 -34v2q-14 -23 -14 -91h-125z" />
</font>
</defs>
</svg>
