<?xml version="1.0" standalone="no"?>
<!DOCTYPE svg PUBLIC "-//W3C//DTD SVG 1.1//EN" "http://www.w3.org/Graphics/SVG/1.1/DTD/svg11.dtd" >
<svg xmlns="http://www.w3.org/2000/svg">
<metadata>
This is a custom SVG webfont generated by Font Squirrel.
Copyright   : Copyright URW copyright 1999 by URW Design  Development Cyrillic glyphs added by Valek Filippov copyright 20012002 Vietnamese characters were added by Han The Thanh copyright 2006 2008 for TeX Gyre extensions by B Jackowski and JM Nowacki on behalf of TeX users groups This work is released under the GUST Font License   see httptugorgfontslicensesGUSTFONTLICENSEtxt for details
</metadata>
<defs>
<font id="webfontqursTuK3" horiz-adv-x="1138" >
<font-face units-per-em="2048" ascent="1606" descent="-442" />
<missing-glyph horiz-adv-x="569" />
<glyph unicode="IJ" horiz-adv-x="1671" d="M123 0v1493h307v-1493h-307zM602 428v125h307v-121q0 -102 39 -148t127 -46q80 0 123 45t43 129v1081h307v-1081q0 -209 -125 -323t-354 -114q-215 0 -341 118t-126 335z" />
<glyph unicode="ij" horiz-adv-x="1107" d="M123 0v1106h287v-1106h-287zM127 1239v287h287v-287h-287zM563 -207q27 -8 51 -8q47 0 65.5 19.5t18.5 66.5v1235h287v-1299q0 -135 -59.5 -194t-192.5 -59q-74 0 -170 10v229zM698 1239v287h287v-287h-287z" />
<glyph unicode="fk" horiz-adv-x="1837" d="M29 893v190h155v134q0 276 283 276q84 0 164 -6v-215q-37 6 -82 6q-78 0 -78 -86v-109h170v-190h-170v-893h-287v893h-155zM819 0v1493h287v-817l362 430h326l-377 -418l404 -688h-336l-264 487l-115 -125v-362h-287z" />
<glyph unicode="&#xfb00;" horiz-adv-x="1304" d="M29 893v190h155v134q0 276 283 276q84 0 164 -6v-215q-37 6 -82 6q-78 0 -78 -86v-109h348v134q0 276 283 276q84 0 164 -6v-215q-37 6 -82 6q-78 0 -78 -86v-109h170v-190h-170v-893h-287v893h-348v-893h-287v893h-155z" />
<glyph unicode="&#xfb01;" horiz-adv-x="1251" d="M29 893v190h155v134q0 276 283 276q84 0 164 -6v-215q-37 6 -82 6q-78 0 -78 -86v-109h170v-190h-170v-893h-287v893h-155zM819 0v1106h287v-1106h-287zM819 1239v287h287v-287h-287z" />
<glyph unicode="&#xfb02;" horiz-adv-x="1251" d="M29 893v190h155v134q0 276 283 276q84 0 164 -6v-215q-37 6 -82 6q-78 0 -78 -86v-109h170v-190h-170v-893h-287v893h-155zM819 0v1493h287v-1493h-287z" />
<glyph unicode="&#xfb03;" horiz-adv-x="1886" d="M29 893v190h155v134q0 276 283 276q84 0 164 -6v-215q-37 6 -82 6q-78 0 -78 -86v-109h348v134q0 276 283 276q84 0 164 -6v-215q-37 6 -82 6q-78 0 -78 -86v-109h170v-190h-170v-893h-287v893h-348v-893h-287v893h-155zM1454 0v1106h287v-1106h-287zM1454 1239v287h287 v-287h-287z" />
<glyph unicode="&#xfb04;" horiz-adv-x="1886" d="M29 893v190h155v134q0 276 283 276q84 0 164 -6v-215q-37 6 -82 6q-78 0 -78 -86v-109h348v134q0 276 283 276q84 0 164 -6v-215q-37 6 -82 6q-78 0 -78 -86v-109h170v-190h-170v-893h-287v893h-348v-893h-287v893h-155zM1454 0v1493h287v-1493h-287z" />
<glyph unicode=" "  horiz-adv-x="569" />
<glyph unicode="&#x09;" horiz-adv-x="569" />
<glyph unicode="&#xa0;" horiz-adv-x="569" />
<glyph unicode="!" horiz-adv-x="681" d="M188 0v299h308v-299h-308zM188 1057v430h308v-430l-86 -633h-138z" />
<glyph unicode="&#x22;" horiz-adv-x="970" d="M102 1227v266h283v-266l-86 -264h-115zM586 1227v266h282v-266l-86 -264h-114z" />
<glyph unicode="#" d="M6 352v203h199l61 313h-203v203h244l70 356h215l-70 -356h211l70 356h215l-70 -356h185v-203h-224l-63 -313h205v-203h-244l-82 -418h-215l82 418h-211l-82 -418h-217l82 418h-158zM420 555h211l61 313h-211z" />
<glyph unicode="$" d="M45 406v18h268q10 -217 185 -248v436q-418 96 -418 437q0 172 109.5 278.5t308.5 124.5v111h139v-111q195 -10 308.5 -126t113.5 -306h-262q0 94 -41 154.5t-119 70.5v-411q238 -66 340 -166.5t102 -268.5q0 -115 -46 -210t-130 -148q-104 -66 -266 -84v-215h-139v215 q-168 16 -277 94q-176 126 -176 355zM332 1057q0 -129 166 -183v371q-166 -32 -166 -188zM637 176q172 43 172 199q0 150 -172 203v-402z" />
<glyph unicode="%" horiz-adv-x="1820" d="M45 1063q0 154 110.5 263.5t266.5 109.5q158 0 267.5 -109.5t109.5 -267.5q0 -150 -112 -259.5t-265 -109.5q-156 0 -266.5 109.5t-110.5 263.5zM248 1063q0 -72 51 -122t123 -50t123 50t51 120q0 72 -51 122t-123 50t-123 -50t-51 -120zM389 -41l811 1493h217 l-809 -1493h-219zM1014 348q0 154 110.5 263.5t266.5 109.5q158 0 267 -109.5t109 -269.5q0 -150 -111.5 -259.5t-264.5 -109.5q-156 0 -266.5 109.5t-110.5 265.5zM1217 346q0 -72 51 -122t122.5 -50t123 50t51.5 120q0 72 -51.5 123t-123 51t-122.5 -50t-51 -122z" />
<glyph unicode="&#x26;" horiz-adv-x="1478" d="M113 395q0 145 70.5 238.5t250.5 187.5q-18 25 -24 31l-58 70q-88 104 -86 217q0 145 111.5 243.5t275.5 98.5t264.5 -87t100.5 -231q0 -111 -51.5 -188.5t-188.5 -171.5l238 -295q61 117 61 235v21h232v-33q0 -115 -40 -228.5t-100 -187.5l252 -315h-329l-95 115 q-123 -92 -209 -127t-190 -35q-219 0 -352 121.5t-133 320.5zM385 430q0 -92 66.5 -166t150.5 -74q98 0 246 113l-279 350l-96 -59q-88 -53 -88 -164zM537 1159q0 -39 17 -68.5t95 -127.5q123 68 123 176q0 57 -30.5 87.5t-86.5 30.5q-51 0 -84.5 -27.5t-33.5 -70.5z" />
<glyph unicode="'" horiz-adv-x="487" d="M102 1227v266h283v-266l-86 -264h-115z" />
<glyph unicode="(" horiz-adv-x="681" d="M82 543q0 236 79 461t255 489h205q-162 -313 -224.5 -519t-62.5 -431.5t61.5 -430t225.5 -522.5h-205q-176 266 -255 490.5t-79 462.5z" />
<glyph unicode=")" horiz-adv-x="681" d="M45 -410q162 313 224.5 519t62.5 431.5t-61.5 430.5t-225.5 522h205q176 -266 255 -490.5t79 -461.5q0 -236 -79 -461t-255 -490h-205z" />
<glyph unicode="*" horiz-adv-x="796" d="M47 1188l45 141l223 -74v238h148v-238l223 74l45 -143l-223 -72l137 -192l-119 -88l-137 192l-137 -192l-119 88l137 192z" />
<glyph unicode="+" horiz-adv-x="1196" d="M123 410v204h373v373h204v-373h373v-204h-373v-373h-204v373h-373z" />
<glyph unicode="," horiz-adv-x="569" d="M131 0v299h307v-281q0 -119 -24.5 -185t-85.5 -114q-80 -61 -197 -75v114q176 35 176 236v6h-176z" />
<glyph unicode="-" horiz-adv-x="681" d="M53 424v276h557v-276h-557z" />
<glyph unicode="." horiz-adv-x="569" d="M131 0v299h307v-299h-307z" />
<glyph unicode="/" horiz-adv-x="569" d="M-25 -29l422 1491h199l-422 -1491h-199z" />
<glyph unicode="0" d="M59 731q0 135 11.5 239.5t45.5 204t88 165t144 104.5t211 39q125 0 216 -41t144.5 -106.5t86 -168t43 -206t10.5 -238.5q0 -209 -36 -356.5t-104.5 -230.5t-155.5 -118.5t-204 -35.5q-123 0 -213 39.5t-144.5 105.5t-87 166t-44 203.5t-11.5 234.5zM346 733 q0 -211 24.5 -322.5t67.5 -147.5t121 -36q80 0 124 40t66.5 149.5t22.5 312.5q0 219 -25.5 336t-67.5 151.5t-120 34.5q-80 0 -124 -41t-66.5 -153.5t-22.5 -323.5z" />
<glyph unicode="1" d="M139 1001v191q377 0 445 260h190v-1452h-287v1001h-348z" />
<glyph unicode="2" d="M61 0q10 201 81 320.5t255 244.5q240 170 305.5 250t65.5 201q0 109 -54.5 171t-150.5 62q-98 0 -152.5 -67.5t-54.5 -188.5v-47h-274q-2 23 -2 51q0 229 126 357.5t351 128.5q229 0 363.5 -125t134.5 -336q0 -147 -68.5 -249.5t-257.5 -242.5q-162 -117 -215 -167 t-80 -107h615v-256h-988z" />
<glyph unicode="3" d="M59 455h279q0 -111 57.5 -169.5t159.5 -58.5q94 0 154.5 61.5t60.5 157.5q0 115 -80 166.5t-246 51.5v192h25q129 0 191.5 49t62.5 156q0 90 -47 140t-133 50q-106 0 -152.5 -60.5t-46.5 -195.5h-266v25q0 229 127 346t344 117q211 0 336 -107.5t125 -288.5 q0 -98 -44 -164.5t-147 -129.5q125 -61 181.5 -141.5t56.5 -205.5q0 -213 -138.5 -338.5t-369.5 -125.5q-223 0 -356.5 128t-133.5 345z" />
<glyph unicode="4" d="M49 322v241l531 889h338v-893h151v-237h-151v-322h-287v322h-582zM252 559h379v621z" />
<glyph unicode="5" d="M55 408h283q0 -86 53 -133.5t148 -47.5q109 0 171 67.5t62 192.5q0 131 -61.5 199t-171.5 68q-137 0 -185 -111h-258l129 809h776v-256h-600l-47 -303q117 88 252 88q203 0 328 -133t125 -354q0 -233 -144.5 -372.5t-379.5 -139.5q-213 0 -346.5 118t-133.5 308z" />
<glyph unicode="6" d="M66 690q0 391 136 592t400 201q180 0 295 -92.5t141 -268.5h-266q-29 70 -68.5 99.5t-109.5 29.5q-129 0 -180.5 -97t-61.5 -327q68 70 133.5 99.5t155.5 29.5q188 0 305 -124.5t117 -331.5q0 -236 -134 -377t-351 -141q-283 0 -408 200q-104 166 -104 508zM348 475 q0 -115 60.5 -181.5t160.5 -66.5q96 0 159 70t63 184q0 119 -59.5 184.5t-160 65.5t-162 -68.5t-61.5 -187.5z" />
<glyph unicode="7" d="M59 1196v256h1022v-225q-258 -311 -378.5 -597t-141.5 -630h-289q27 227 71 388t120 323q45 96 149.5 255.5t169.5 229.5h-723z" />
<glyph unicode="8" d="M45 432q0 127 55.5 209t182.5 150q-98 53 -143.5 122.5t-45.5 173.5q0 172 132 284t335 112q201 0 333 -111.5t132 -281.5q0 -106 -45 -176t-143 -123q127 -68 182 -150t55 -209q0 -205 -142 -327.5t-372 -122.5q-231 0 -373.5 122.5t-142.5 327.5zM332 449 q0 -106 60.5 -164t167 -58t167.5 57.5t61 159.5q0 113 -60 172.5t-169 59.5q-104 0 -165.5 -59t-61.5 -168zM346 1063q0 -84 60.5 -138.5t156.5 -54.5q94 0 154.5 53.5t60.5 137.5q-2 86 -60.5 138t-154.5 52t-156.5 -52t-60.5 -136z" />
<glyph unicode="9" d="M57 987q0 225 135.5 360.5t354.5 135.5q238 0 374 -166t136 -529q0 -393 -133 -599.5t-402 -206.5q-188 0 -314 109.5t-130 277.5h276q4 -63 52.5 -102.5t123.5 -39.5q240 0 240 414q-78 -86 -131 -114.5t-147 -28.5q-195 0 -315 133t-120 356zM330 991q0 -123 56 -189.5 t156.5 -66.5t161 66.5t60.5 185.5q0 127 -59.5 194.5t-165.5 67.5q-96 0 -152.5 -66.5t-56.5 -191.5z" />
<glyph unicode=":" horiz-adv-x="681" d="M188 0v299h308v-299h-308zM188 766v299h308v-299h-308z" />
<glyph unicode=";" horiz-adv-x="681" d="M188 0v299h308v-281q0 -119 -25 -185t-86 -114q-80 -61 -197 -75v114q176 35 177 236v6h-177zM188 766v299h308v-299h-308z" />
<glyph unicode="&#x3c;" horiz-adv-x="1196" d="M180 434v156l770 649v-266l-544 -461l544 -461v-266z" />
<glyph unicode="=" horiz-adv-x="1196" d="M123 223v205h950v-205h-950zM123 596v205h950v-205h-950z" />
<glyph unicode="&#x3e;" horiz-adv-x="1196" d="M180 51l545 461l-545 461v266l770 -649v-156l-770 -649v266z" />
<glyph unicode="?" horiz-adv-x="1251" d="M123 985q0 270 133 404.5t365 134.5q225 0 367 -131t142 -340q0 -129 -51 -213t-194 -185q-92 -66 -114.5 -104.5t-22.5 -138.5h-254v28q0 117 44 199t158 178q92 76 119 118t27 112q0 100 -61.5 167.5t-153.5 67.5q-98 0 -162 -78t-64 -196v-19v-4h-278zM473 0v299h307 v-299h-307z" />
<glyph unicode="@" horiz-adv-x="1996" d="M84 528q0 262 136 490.5t368.5 364t501.5 135.5q358 0 616 -226.5t258 -541.5q0 -156 -71.5 -304.5t-205 -247t-292.5 -98.5q-182 0 -232 125q-123 -115 -268 -114q-152 0 -253 112.5t-101 280.5q0 231 146.5 405t352.5 174q152 0 238 -127l27 86h227l-152 -596 q-20 -61 -20 -90q0 -25 20.5 -41t49.5 -16q117 0 210 133t93 293q0 238 -199 410t-471 172q-303 0 -527.5 -223.5t-224.5 -524.5q0 -272 207 -456.5t510 -184.5q152 0 404 66l73 -185q-250 -94 -487 -94q-389 0 -661.5 240.5t-272.5 582.5zM760 502q0 -86 48 -145.5 t118 -59.5q113 0 182.5 130t77.5 310v11q0 63 -45 106t-111 43q-113 0 -191.5 -118.5t-78.5 -276.5z" />
<glyph unicode="A" horiz-adv-x="1478" d="M53 0l531 1493h340l516 -1493h-316l-98 301h-559l-100 -301h-314zM553 557h389l-194 584z" />
<glyph unicode="B" horiz-adv-x="1478" d="M168 0v1493h666q225 0 356 -113.5t131 -279.5q0 -96 -47 -166t-158 -141q248 -145 248 -363q0 -193 -136 -311.5t-388 -118.5h-672zM475 256h367q227 0 227 193q0 195 -227 194h-367v-387zM475 899h334q217 0 217 168q0 170 -217 170h-334v-338z" />
<glyph unicode="C" horiz-adv-x="1478" d="M90 745q0 360 183.5 566.5t500.5 206.5q260 0 432 -139.5t191 -391.5h-293q-63 268 -320 268q-182 0 -284.5 -134t-102.5 -380q0 -244 99.5 -376t277.5 -132q303 0 330 277h299q-14 -254 -185 -394.5t-452 -140.5q-313 0 -494.5 206t-181.5 564z" />
<glyph unicode="D" horiz-adv-x="1478" d="M158 0v1493h583q172 0 284 -41t187 -131q182 -217 182.5 -573.5t-182.5 -573.5q-147 -174 -471 -174h-583zM465 256h276q346 0 346 489q0 492 -346 492h-276v-981z" />
<glyph unicode="E" horiz-adv-x="1366" d="M162 0v1493h1079v-256h-772v-338h715v-256h-715v-387h809v-256h-1116z" />
<glyph unicode="F" horiz-adv-x="1251" d="M152 0v1493h1048v-256h-741v-338h653v-256h-653v-643h-307z" />
<glyph unicode="G" horiz-adv-x="1593" d="M86 748q0 348 199.5 559t523.5 211q270 0 444 -135.5t203 -366.5h-289q-82 240 -356 239q-197 0 -307.5 -132t-110.5 -371q0 -229 120 -371.5t306 -142.5q141 0 253 87t126 222h-340v256h598v-803h-184l-37 205q-86 -119 -193.5 -174.5t-257.5 -55.5q-303 0 -500.5 217.5 t-197.5 555.5z" />
<glyph unicode="H" horiz-adv-x="1478" d="M139 0v1493h307v-559h592v559h308v-1493h-308v678h-592v-678h-307z" />
<glyph unicode="I" horiz-adv-x="569" d="M129 0v1493h307v-1493h-307z" />
<glyph unicode="J" d="M49 428v125h307v-121q0 -102 39 -148t127 -46q80 0 123 45t43 129v1081h307v-1081q0 -209 -125 -323t-354 -114q-215 0 -341 118t-126 335z" />
<glyph unicode="K" horiz-adv-x="1478" d="M152 0v1493h307v-655l583 655h363l-596 -643l659 -850h-366l-490 659l-153 -159v-500h-307z" />
<glyph unicode="L" horiz-adv-x="1251" d="M164 0v1493h307v-1237h715v-256h-1022z" />
<glyph unicode="M" horiz-adv-x="1705" d="M135 0v1493h459l270 -1188l262 1188h463v-1493h-307v1163l-264 -1163h-307l-269 1163v-1163h-307z" />
<glyph unicode="N" horiz-adv-x="1478" d="M139 0v1493h316l592 -1016v1016h307v-1493h-307l-601 1032v-1032h-307z" />
<glyph unicode="O" horiz-adv-x="1593" d="M82 748q0 330 197.5 550t519.5 220q324 0 522.5 -219.5t198.5 -561.5q0 -332 -199 -547t-520 -215q-326 0 -522.5 216.5t-196.5 556.5zM389 748q0 -233 112.5 -371.5t299.5 -138.5q184 0 297.5 137t113.5 364q0 233 -111.5 374.5t-299.5 141.5q-184 0 -298 -140 t-114 -367z" />
<glyph unicode="P" horiz-adv-x="1366" d="M156 0v1493h659q233 0 357 -119t124 -344q0 -227 -122.5 -362.5t-327.5 -135.5h-383v-532h-307zM463 788h287q240 0 239 224q0 115 -58.5 170t-180.5 55h-287v-449z" />
<glyph unicode="Q" horiz-adv-x="1593" d="M88 747.5q0 339.5 197.5 555t521 215.5t521.5 -216.5t198 -549.5q0 -150 -44 -288t-120 -231l164 -155l-156 -166l-176 166q-170 -102 -387 -103q-324 0 -521.5 216.5t-197.5 556zM395 747.5q0 -233.5 111.5 -371.5t298.5 -138q106 0 180 38l-158 150l156 166l168 -160 q68 135 68 313q0 229 -113 369.5t-299 140.5t-299 -137t-113 -370.5z" />
<glyph unicode="R" horiz-adv-x="1478" d="M164 0v1493h801q193 0 297 -111.5t104 -291.5q0 -270 -252 -369q55 -23 82 -36t54.5 -44t36.5 -55.5t18.5 -90t11.5 -129t4 -188.5q0 -86 65 -123v-55h-329q-29 53 -38 102.5t-9 153.5l4 158q0 94 -45 136t-146 42h-352v-592h-307zM471 848h371q125 0 171 47t46 152 q0 100 -47 145t-170 45h-371v-389z" />
<glyph unicode="S" horiz-adv-x="1366" d="M66 469h299q0 -119 89 -183.5t246 -64.5q141 0 221 49t80 142q0 88 -61 131t-219 73l-209 41q-227 45 -323.5 136.5t-96.5 265.5q0 219 148.5 339t416.5 120q276 0 431 -123t155 -357h-287q0 113 -82.5 173.5t-230.5 60.5q-119 0 -188.5 -50.5t-69.5 -134.5 q0 -82 59.5 -121.5t223.5 -72.5l233 -45q209 -41 302 -133t93 -266q0 -225 -160.5 -349.5t-451.5 -124.5q-289 0 -453.5 128t-164.5 366z" />
<glyph unicode="T" horiz-adv-x="1251" d="M29 1237v256h1196v-256h-437v-1237h-307v1237h-452z" />
<glyph unicode="U" horiz-adv-x="1478" d="M156 504v989h307v-989q0 -266 284.5 -266t284.5 266v989h307v-989q0 -256 -162.5 -392.5t-429 -136.5t-429 136.5t-162.5 392.5z" />
<glyph unicode="V" horiz-adv-x="1366" d="M49 1493h309l332 -1124l326 1124h309l-512 -1493h-260z" />
<glyph unicode="W" horiz-adv-x="1933" d="M27 1493h325l232 -1118l231 1118h303l242 -1120l223 1120h326l-414 -1493h-276l-250 1165l-244 -1165h-276z" />
<glyph unicode="X" horiz-adv-x="1366" d="M45 0l471 752l-455 741h365l262 -492l275 492h356l-461 -731l479 -762h-364l-287 518l-285 -518h-356z" />
<glyph unicode="Y" horiz-adv-x="1366" d="M55 1493h342l305 -659l285 659h344l-473 -940v-553h-307v553z" />
<glyph unicode="Z" horiz-adv-x="1251" d="M61 0v256l764 981h-764v256h1123v-256l-762 -981h762v-256h-1123z" />
<glyph unicode="[" horiz-adv-x="681" d="M135 -410v1903h496v-209h-230v-1485h230v-209h-496z" />
<glyph unicode="\" horiz-adv-x="569" d="M-53 1462h198l480 -1491h-199z" />
<glyph unicode="]" horiz-adv-x="681" d="M37 -201h229v1485h-229v209h495v-1903h-495v209z" />
<glyph unicode="^" horiz-adv-x="1196" d="M125 553l338 870h256l350 -870h-231l-248 614l-236 -614h-229z" />
<glyph unicode="_" d="M-45 -246h1229v-141h-1229v141z" />
<glyph unicode="`" horiz-adv-x="681" d="M-20 1540h319l143 -315h-204z" />
<glyph unicode="a" d="M57 299q0 147 79 225t247 109l115 20q72 12 123 18.5t78.5 31t27.5 79.5q0 111 -166 111q-106 0 -149 -33t-54 -119h-276q27 383 473 383q453 0 453 -340v-614q0 -76 65 -135v-35h-311q-33 41 -33 139q-152 -158 -336 -157q-145 0 -240.5 81.5t-95.5 235.5zM344 332 q0 -119 156 -119q109 0 168 67.5t59 192.5v49q-39 -18 -121 -35l-98 -18q-92 -16 -128 -46t-36 -91z" />
<glyph unicode="b" horiz-adv-x="1251" d="M121 0v1493h287v-530q102 162 305 161q211 0 338 -171t127 -414q0 -248 -132.5 -402.5t-332.5 -154.5q-199 0 -305 145v-127h-287zM408 557q0 -156 65.5 -246t175.5 -90q106 0 174 90t68 240q0 152 -67.5 243t-174.5 91q-109 0 -175 -89t-66 -239z" />
<glyph unicode="c" d="M70 545q0 281 136 430t386 149q207 0 335 -114.5t142 -317.5h-274q-25 109 -71 155t-134 46q-233 0 -234 -348q0 -160 61.5 -246t172.5 -86q82 0 129 41t76 129h274q-20 -178 -151.5 -289.5t-329.5 -111.5q-248 0 -383 145.5t-135 417.5z" />
<glyph unicode="d" horiz-adv-x="1251" d="M59 551q0 250 133.5 411.5t331.5 161.5q201 0 305 -161v530h287v-1493h-287v127q-111 -145 -305 -145q-213 0 -339 162.5t-126 406.5zM346 550.5q0 -151.5 66.5 -240.5t175 -89t175 88t66.5 238q0 158 -65.5 248t-175.5 90q-109 0 -175.5 -91.5t-66.5 -243z" />
<glyph unicode="e" d="M45 539q0 276 136 430.5t376 154.5q244 0 381 -162.5t137 -449.5l-2 -35h-741q6 -154 63.5 -215t165.5 -61q184 0 219 110h283q-47 -160 -184.5 -244.5t-327.5 -84.5q-238 0 -372 146.5t-134 410.5zM336 668h440q-10 117 -69.5 177t-153.5 60q-188 1 -217 -237z" />
<glyph unicode="f" horiz-adv-x="681" d="M29 893v190h155v134q0 276 283 276q84 0 164 -6v-215q-37 6 -82 6q-78 0 -78 -86v-109h170v-190h-170v-893h-287v893h-155z" />
<glyph unicode="g" horiz-adv-x="1251" d="M70 541q0 256 130 419.5t328 163.5q184 0 308 -188v170h272v-1143q0 -195 -138.5 -302t-387.5 -107q-223 0 -354.5 88t-135.5 225h297q35 -129 203 -129q109 0 176.5 62.5t67.5 162.5v164q-82 -82 -150 -113.5t-164 -31.5q-205 0 -328.5 151.5t-123.5 407.5zM356 545 q0 -150 63.5 -237t166.5 -87q113 0 183.5 87t70.5 237q0 152 -71 246t-179 94q-104 0 -169 -92t-65 -248z" />
<glyph unicode="h" horiz-adv-x="1251" d="M137 0v1493h287v-547q119 178 324 178q164 0 262 -98t98 -285v-741h-287v676q0 205 -176 205q-96 0 -158.5 -61.5t-62.5 -155.5v-664h-287z" />
<glyph unicode="i" horiz-adv-x="569" d="M137 0v1106h287v-1106h-287zM141 1239v287h287v-287h-287z" />
<glyph unicode="j" horiz-adv-x="569" d="M8 -207q27 -8 51 -8q47 0 65.5 19.5t18.5 66.5v1235h287v-1299q0 -135 -59.5 -194t-192.5 -59q-74 0 -170 10v229zM143 1239v287h287v-287h-287z" />
<glyph unicode="k" d="M121 0v1493h287v-817l362 430h326l-377 -418l403 -688h-336l-264 487l-114 -125v-362h-287z" />
<glyph unicode="l" horiz-adv-x="569" d="M137 0v1493h287v-1493h-287z" />
<glyph unicode="m" horiz-adv-x="1820" d="M123 0v1106h285v-137q72 84 140 119.5t163 35.5q217 0 301 -163q123 164 323 163q166 0 259.5 -90t93.5 -252v-782h-287v737q0 66 -42 105t-114 39q-92 0 -144 -57.5t-52 -159.5v-664h-287v737q0 66 -42 105t-114 39q-92 0 -144 -57.5t-52 -159.5v-664h-287z" />
<glyph unicode="n" horiz-adv-x="1251" d="M129 0v1106h287v-160q119 178 332 178q176 0 273 -100t97 -283v-741h-287v682q0 199 -184 199q-104 0 -167.5 -59.5t-63.5 -157.5v-664h-287z" />
<glyph unicode="o" horiz-adv-x="1251" d="M72 553q0 270 145 420.5t399 150.5q262 0 405.5 -150.5t143.5 -428.5q0 -264 -146.5 -413.5t-400.5 -149.5q-256 0 -401 149.5t-145 421.5zM358 553q0 -158 71 -249t189 -91q117 0 189 91t72 245q0 162 -71 253t-189.5 91t-189.5 -91t-71 -249z" />
<glyph unicode="p" horiz-adv-x="1251" d="M119 -446v1552h287v-164q102 182 307 182q213 0 338 -159.5t125 -411.5q0 -250 -131.5 -410.5t-331.5 -160.5q-213 0 -307 165v-593h-287zM406 553q0 -154 66.5 -243t174.5 -89q106 0 174 89t68 239q0 156 -65.5 246t-176.5 90q-109 0 -175 -89t-66 -243z" />
<glyph unicode="q" horiz-adv-x="1251" d="M57 553q0 252 131 411.5t332 159.5q205 0 307 -182v164h287v-1552h-287v593q-92 -166 -309 -165q-209 0 -335 159.5t-126 411.5zM344 553q0 -154 66.5 -243t175 -89t175 88t66.5 238q0 160 -65.5 249t-175.5 89q-109 0 -175.5 -89t-66.5 -243z" />
<glyph unicode="r" horiz-adv-x="796" d="M129 0v1106h287v-217q45 113 127 174t180 61q18 0 35 -2v-291q-51 8 -90 9q-252 0 -252 -252v-588h-287z" />
<glyph unicode="s" d="M59 350h281q18 -84 69.5 -113.5t155.5 -29.5q213 0 213 94q0 45 -96 76l-342 106q-145 45 -193.5 104.5t-48.5 168.5q0 170 122 269t333 99q223 0 350 -99t131 -275h-276q-2 150 -207 149q-76 0 -121 -27.5t-45 -74.5q0 -35 20.5 -52.5t79.5 -33.5l363 -105 q217 -63 217 -264v-14q0 -168 -125 -257t-358 -89q-511 -1 -523 368z" />
<glyph unicode="t" horiz-adv-x="681" d="M29 893v190h141v297h287v-297h159v-190h-159v-578q0 -74 18.5 -97t75.5 -23q23 0 65 6v-201q-12 0 -70.5 -4t-94.5 -4q-143 0 -212 58.5t-69 187.5v655h-141z" />
<glyph unicode="u" horiz-adv-x="1251" d="M119 365v741h287v-682q0 -199 184 -199q104 0 167.5 59.5t63.5 157.5v664h287v-1106h-287v145q-123 -164 -332 -163q-176 0 -273 100.5t-97 282.5z" />
<glyph unicode="v" d="M29 1106h303l239 -809l224 809h303l-381 -1106h-301z" />
<glyph unicode="w" horiz-adv-x="1593" d="M10 1106h297l176 -774l168 774h287l166 -774l168 774h297l-314 -1106h-297l-165 780l-177 -780h-294z" />
<glyph unicode="x" d="M33 0l368 557l-360 549h344l180 -334l178 334h344l-360 -549l369 -557h-344l-187 344l-188 -344h-344z" />
<glyph unicode="y" d="M18 1106h316l244 -805l229 805h295l-455 -1309q-53 -150 -133 -198t-235 -48q-45 0 -103 9v215q45 -12 76 -13q76 0 127 53.5t51 131.5v6z" />
<glyph unicode="z" horiz-adv-x="1024" d="M43 0v231l547 643h-510v232h860v-232l-543 -643h561v-231h-915z" />
<glyph unicode="{" horiz-adv-x="796" d="M76 457v188h33q133 0 133 129v432q0 125 70.5 206t181.5 81h155v-203h-76q-92 0 -92 -116v-400q0 -113 -42 -160t-156 -63q115 -18 156.5 -65.5t41.5 -159.5v-400q0 -76 20.5 -104.5t71.5 -28.5h76v-203h-155q-111 0 -181.5 81t-70.5 206v430q0 86 -31 117t-127 31z" />
<glyph unicode="|" horiz-adv-x="573" d="M184 -410v1903h205v-1903h-205z" />
<glyph unicode="}" horiz-adv-x="796" d="M147 -207h76q92 0 92 117v399q0 113 42 160t157 63q-115 18 -157 65.5t-42 160.5v399q0 76 -20.5 104.5t-71.5 28.5h-76v203h156q111 0 181.5 -81t70.5 -206v-430q0 -86 30.5 -116.5t127.5 -30.5l8 -2v-189h-8h-25q-133 -2 -133 -129v-432q0 -125 -70.5 -206t-181.5 -81 h-156v203z" />
<glyph unicode="~" horiz-adv-x="1196" d="M123 346q14 297 260 297q98 0 170 -51l117 -86q70 -51 125 -51q57 0 81.5 27.5t26.5 107.5h160q-18 -299 -260 -299q-100 0 -170 53l-117 86q-66 49 -125 49q-57 0 -81.5 -27.5t-26.5 -105.5h-160z" />
<glyph unicode="&#xa1;" horiz-adv-x="681" d="M188 49l86 633h138l84 -633v-430h-308v430zM188 807v299h308v-299h-308z" />
<glyph unicode="&#xa2;" d="M74 530q0 264 116.5 417t339.5 175v176h91v-174q188 -2 312 -121.5t136 -310.5h-274q-20 94 -61.5 141.5t-112.5 57.5v-705q70 10 110.5 56.5t63.5 140.5h274q-16 -184 -141 -303t-307 -127v-207h-91v209q-213 14 -334.5 166.5t-121.5 408.5zM360 532q0 -289 170 -339 v694q-170 -46 -170 -355z" />
<glyph unicode="&#xa3;" d="M63 164q129 88 177.5 153.5t48.5 155.5q0 70 -43 174h-183v113h123q-70 121 -89 175t-19 122q0 174 134 290.5t353 116.5q240 0 362 -113.5t142 -359.5h-270l-2 23q-29 223 -230 223q-88 0 -144 -52t-56 -134q0 -45 55 -158q47 -96 61 -133h285v-113h-250q31 -66 31 -121 q0 -90 -53.5 -168.5t-184.5 -181.5q160 76 230 76q4 0 110.5 -21.5t149.5 -21.5q96 0 215 59l84 -223q-156 -92 -297 -92q-35 0 -201 32.5t-203 32.5q-100 0 -223 -61z" />
<glyph unicode="&#xa4;" d="M-6 291l201 201q-63 104 -63.5 239t63.5 236l-201 200l135 136l201 -201q111 68 239 67q137 0 240 -67l201 201l135 -136l-201 -200q68 -102 68 -236q0 -137 -68 -239l201 -201l-135 -135l-201 200q-102 -68 -240 -67q-129 0 -239 67l-201 -200zM360 731 q0 -98 57.5 -164.5t152 -66.5t153.5 66.5t59 164.5t-59 162.5t-153.5 64.5t-152 -64.5t-57.5 -162.5z" />
<glyph unicode="&#xa5;" d="M10 1442h285l285 -520l274 520h276l-393 -723h281v-121h-291v-109h291v-120h-291v-369h-287v369h-297v120h297v109h-297v121h283z" />
<glyph unicode="&#xa6;" horiz-adv-x="573" d="M184 352h205v-762h-205v762zM184 731v762h205v-762h-205z" />
<glyph unicode="&#xa7;" d="M68 575q0 92 39.5 155t148.5 147q-76 76 -100.5 125t-24.5 126q0 154 121 253.5t307 99.5q395 0 410 -367h-260q-20 158 -160 158q-59 0 -95 -29t-36 -76q0 -43 38 -78.5t146 -95.5l260 -143q199 -111 199 -313q0 -102 -45 -169t-148 -114q143 -100 143.5 -274.5 t-122.5 -283t-324 -108.5q-428 0 -432 412h268v-20q6 -94 48.5 -129t117.5 -35q70 0 113 34.5t43 90.5q0 53 -20.5 78.5t-122.5 80.5l-351 205q-161 94 -161 270zM311 649q0 -47 23.5 -77.5t85.5 -65.5l301 -164q94 66 94 133q0 49 -26.5 81t-98.5 71l-293 155 q-86 -51 -86 -133z" />
<glyph unicode="&#xa8;" horiz-adv-x="681" d="M12 1266v235h258v-235h-258zM412 1266v235h258v-235h-258z" />
<glyph unicode="&#xa9;" horiz-adv-x="1509" d="M43 696q0 295 209 505t504 210t504.5 -210t209.5 -505t-209.5 -503.5t-504.5 -208.5t-504 208.5t-209 503.5zM164 696.5q0 -245.5 173 -419t418.5 -173.5t420 173.5t174.5 419t-174.5 419.5t-420 174t-418.5 -174t-173 -419.5zM369 694q0 193 107.5 302.5t293.5 109.5 q158 0 260.5 -80t108.5 -223h-195q-31 137 -168 137q-96 0 -148.5 -64.5t-52.5 -183.5q0 -117 51.5 -180t143.5 -63q166 0 172 141h201q-2 -143 -104.5 -224t-272.5 -81q-184 0 -290.5 109.5t-106.5 299.5z" />
<glyph unicode="&#xaa;" horiz-adv-x="757" d="M63 991q0 90 47.5 141.5t147.5 69.5l70 12q96 16 116.5 29.5t20.5 46.5q0 63 -100 64q-61 0 -88 -20.5t-33 -69.5h-160q4 229 276.5 229t272.5 -205v-366q0 -45 41 -82v-21h-189q-18 23 -20 66q-88 -94 -201 -94q-90 0 -145.5 55t-55.5 145zM76 537v159h581v-159h-581z M236 1010q0 -80 94 -80q63 0 99 41t36 114v48q-18 -10 -72 -21l-59 -12q-53 -10 -75.5 -30.5t-22.5 -59.5z" />
<glyph unicode="&#xab;" d="M180 446v234l342 305v-240l-207 -182l207 -182v-234zM616 446v234l342 305v-240l-206 -182l206 -182v-234z" />
<glyph unicode="&#xac;" horiz-adv-x="1196" d="M123 596v205h950v-475h-205v270h-745z" />
<glyph unicode="&#xad;" horiz-adv-x="681" d="M53 424v276h557v-276h-557z" />
<glyph unicode="&#xae;" horiz-adv-x="1509" d="M43 696q0 295 209 505t504 210t504.5 -210t209.5 -505t-209.5 -503.5t-504.5 -208.5t-504 208.5t-209 503.5zM164 696.5q0 -245.5 173 -419t418.5 -173.5t420 173.5t174.5 419t-174.5 419.5t-420 174t-418.5 -174t-173 -419.5zM395 297v797h467q117 0 179.5 -62.5 t62.5 -161.5q0 -131 -115 -188q59 -27 72.5 -73t17.5 -210q2 -33 37 -47v-55h-211q-35 55 -35 147q0 8 2 41t2 39q0 76 -92 76h-182v-303h-205zM600 764h193q61 0 83.5 19.5t22.5 66.5q0 43 -23.5 61.5t-82.5 18.5h-193v-166z" />
<glyph unicode="&#xaf;" horiz-adv-x="681" d="M33 1303v161h612v-161h-612z" />
<glyph unicode="&#xb0;" horiz-adv-x="819" d="M117 1165q0 121 86 207t206.5 86t206.5 -86t86 -207t-86 -207t-206.5 -86t-206.5 86t-86 207zM231 1165.5q0 -73.5 52.5 -126t126 -52.5t126 52.5t52.5 126t-52.5 125.5t-126 52t-126 -52t-52.5 -125.5z" />
<glyph unicode="&#xb1;" horiz-adv-x="1196" d="M123 0v205h950v-205h-950zM123 614v205h373v373h204v-373h373v-205h-373v-225h-204v225h-373z" />
<glyph unicode="&#xb2;" horiz-adv-x="681" d="M57 688q2 111 42 173.5t147 131.5q131 86 167 127t36 101q0 55 -29 85.5t-82 30.5q-106 0 -107 -129l2 -28h-165q-2 14 -2 32q0 125 73.5 191.5t208.5 66.5q131 0 202 -62t71 -179q0 -80 -38 -132.5t-147 -131.5q-53 -35 -82.5 -57.5t-37.5 -30.5l-37 -43h337v-146h-559z " />
<glyph unicode="&#xb3;" horiz-adv-x="681" d="M61 922h166q8 -119 117 -119q49 0 81 30.5t32 77.5q0 113 -152 113h-29v113h21q135 0 135 104q0 45 -26.5 71.5t-69.5 26.5q-55 0 -79 -31.5t-24 -103.5h-159q6 139 73.5 202.5t194.5 63.5q119 0 189.5 -57t70.5 -153q0 -102 -94 -160q121 -59 121 -187q0 -113 -79 -181 t-208 -68q-133 0 -206 67.5t-75 190.5z" />
<glyph unicode="&#xb4;" horiz-adv-x="681" d="M240 1225l143 315h319l-258 -315h-204z" />
<glyph unicode="&#xb5;" horiz-adv-x="1251" d="M119 -451v1557h287v-684q0 -225 172 -225q90 0 148 61t58 156v692h287v-799q0 -90 12.5 -119.5t49.5 -29.5q14 0 41 8v-178q-68 -35 -144 -35q-72 0 -115 24.5t-79 85.5q-59 -61 -112.5 -85.5t-125.5 -24.5q-125 0 -205 78v-482h-274z" />
<glyph unicode="&#xb6;" d="M39 1013.5q0 196.5 122 338t302 141.5h620v-147h-88v-1737h-200v1737h-129v-1737h-201v938q-188 8 -307 139t-119 327.5z" />
<glyph unicode="&#xb7;" horiz-adv-x="569" d="M131 512q0 63 45 108.5t108.5 45.5t108.5 -45.5t45 -108.5t-45 -108.5t-108.5 -45.5t-108.5 45.5t-45 108.5z" />
<glyph unicode="&#xb8;" horiz-adv-x="681" d="M55 -412l39 125q141 -61 215 -61q49 0 83 24.5t34 59.5q0 63 -104 63h-132l101 211h129l-55 -112h81q72 0 114 -44t42 -114q0 -94 -69.5 -151.5t-194.5 -57.5q-113 0 -283 57z" />
<glyph unicode="&#xb9;" horiz-adv-x="681" d="M109 1206v111q211 0 249 135h115v-766h-172v520h-192z" />
<glyph unicode="&#xba;" horiz-adv-x="747" d="M47 1141q0 164 88 258t240 94q156 0 241.5 -94t85.5 -262q0 -160 -88 -253t-239.5 -93t-239.5 94t-88 256zM68 537v159h616v-159h-616zM219 1143q0 -94 43 -153.5t112.5 -59.5t112.5 58.5t43 150.5q0 96 -43 155.5t-112.5 59.5t-112.5 -58.5t-43 -152.5z" />
<glyph unicode="&#xbb;" d="M180 147v240l207 182l-207 183v233l342 -299v-235zM604 147v240l207 182l-207 183v233l342 -299v-235z" />
<glyph unicode="&#xbc;" horiz-adv-x="1708" d="M131 1206v111q209 0 250 135h115v-766h-172v520h-193zM328 -51l866 1515h178l-866 -1515h-178zM975 168v133l299 465h196v-463h82v-135h-82v-168h-172v168h-323zM1108 303h190v295z" />
<glyph unicode="&#xbd;" horiz-adv-x="1708" d="M131 1206v111q209 0 250 135h115v-766h-172v520h-193zM274 -51l867 1515h178l-866 -1515h-179zM1024 0q2 109 41 172.5t145 132.5q133 86 169 127t36 100q0 55 -28.5 86t-81.5 31q-51 0 -80 -33.5t-29 -95.5l4 -28h-166q-2 14 -2 32q0 125 74 191.5t209 66.5 q131 0 200.5 -62.5t69.5 -178.5q0 -82 -37 -135.5t-145 -126.5q-47 -37 -65.5 -47.5t-37 -27t-24.5 -23.5l-31 -36h338v-145h-559z" />
<glyph unicode="&#xbe;" horiz-adv-x="1708" d="M129 922h166q8 -119 117 -119q49 0 80.5 30.5t31.5 77.5q0 113 -151 113h-29v113h21q135 0 135 104q0 45 -27 71.5t-70 26.5q-55 0 -78.5 -31.5t-23.5 -103.5h-160q6 139 74 202.5t195 63.5q119 0 189.5 -57t70.5 -153q0 -102 -95 -160q121 -59 121 -187 q0 -113 -78.5 -181t-207.5 -68q-133 0 -206 67.5t-75 190.5zM393 -51l867 1515h178l-867 -1515h-178zM975 168v133l299 465h196v-463h82v-135h-82v-168h-172v168h-323zM1108 303h190v295z" />
<glyph unicode="&#xbf;" horiz-adv-x="1251" d="M123 53q0 129 51 213t195 185q92 66 114.5 104.5t22.5 138.5h254v-28q0 -117 -44 -199t-159 -178q-92 -76 -118.5 -118t-26.5 -112q0 -100 61.5 -167.5t153.5 -67.5q98 0 161.5 78t63.5 196v19v4h278q0 -270 -133 -404.5t-364 -134.5q-225 0 -367.5 131t-142.5 340z M473 807v299h307v-299h-307z" />
<glyph unicode="&#xc0;" horiz-adv-x="1478" d="M53 0l531 1493h340l516 -1493h-316l-98 301h-559l-100 -301h-314zM369 1886h338l155 -276h-217zM553 557h389l-194 584z" />
<glyph unicode="&#xc1;" horiz-adv-x="1478" d="M53 0l531 1493h340l516 -1493h-316l-98 301h-559l-100 -301h-314zM553 557h389l-194 584zM645 1610l156 276h338l-277 -276h-217z" />
<glyph unicode="&#xc2;" horiz-adv-x="1478" d="M53 0l531 1493h340l516 -1493h-316l-98 301h-559l-100 -301h-314zM362 1612l267 276h262l254 -276h-193l-200 143l-203 -143h-187zM553 557h389l-194 584z" />
<glyph unicode="&#xc3;" horiz-adv-x="1478" d="M53 0l531 1493h340l516 -1493h-316l-98 301h-559l-100 -301h-314zM395 1618q6 119 57.5 186.5t135.5 67.5q41 0 114 -27l146 -51q29 -12 70 -12q66 0 73 98h129q-12 -260 -194 -260q-49 0 -113 25l-145 53q-37 12 -62 12q-37 0 -55.5 -21.5t-26.5 -70.5h-129zM553 557 h389l-194 584z" />
<glyph unicode="&#xc4;" horiz-adv-x="1478" d="M53 0l531 1493h340l516 -1493h-316l-98 301h-559l-100 -301h-314zM426 1632v236h258v-236h-258zM553 557h389l-194 584zM825 1632v236h258v-236h-258z" />
<glyph unicode="&#xc5;" horiz-adv-x="1478" d="M53 0l531 1493h340l516 -1493h-316l-98 301h-559l-100 -301h-314zM551 1767q0 84 59.5 143.5t147.5 59.5q84 0 142 -59.5t58 -145.5q0 -82 -60 -141t-142 -59q-86 0 -145.5 59t-59.5 143zM553 557h389l-194 584zM659 1767.5q0 -38.5 29 -66.5t70 -28q37 0 64.5 28 t27.5 66.5t-26.5 66.5t-65.5 28q-41 0 -70 -28t-29 -66.5z" />
<glyph unicode="&#xc6;" horiz-adv-x="2048" d="M2 0l539 1493h1396v-256h-749v-338h694v-256h-694v-387h790v-256h-1097v311h-457l-109 -311h-313zM510 567h371v670h-138z" />
<glyph unicode="&#xc7;" horiz-adv-x="1478" d="M90 745q0 360 183.5 566.5t500.5 206.5q260 0 432 -139.5t191 -391.5h-293q-63 268 -320 268q-182 0 -284.5 -134t-102.5 -380q0 -244 99.5 -376t277.5 -132q303 0 330 277h299q-14 -244 -171 -383t-419 -150l-39 -79h82q72 0 114 -44t42 -114q0 -94 -70 -151.5 t-194 -57.5q-113 0 -283 57l39 125q141 -61 215 -61q49 0 83 24.5t34 59.5q0 63 -105 63h-131l86 181q-279 27 -437.5 229t-158.5 536z" />
<glyph unicode="&#xc8;" horiz-adv-x="1366" d="M162 0v1493h1079v-256h-772v-338h715v-256h-715v-387h809v-256h-1116zM317 1886h338l156 -276h-217z" />
<glyph unicode="&#xc9;" horiz-adv-x="1366" d="M162 0v1493h1079v-256h-772v-338h715v-256h-715v-387h809v-256h-1116zM594 1610l156 276h337l-276 -276h-217z" />
<glyph unicode="&#xca;" horiz-adv-x="1366" d="M162 0v1493h1079v-256h-772v-338h715v-256h-715v-387h809v-256h-1116zM311 1612l267 276h262l254 -276h-193l-201 143l-202 -143h-187z" />
<glyph unicode="&#xcb;" horiz-adv-x="1366" d="M162 0v1493h1079v-256h-772v-338h715v-256h-715v-387h809v-256h-1116zM375 1632v236h258v-236h-258zM774 1632v236h258v-236h-258z" />
<glyph unicode="&#xcc;" horiz-adv-x="569" d="M-57 1886h338l155 -276h-217zM129 0v1493h307v-1493h-307z" />
<glyph unicode="&#xcd;" horiz-adv-x="569" d="M129 0v1493h307v-1493h-307zM131 1610l156 276h338l-277 -276h-217z" />
<glyph unicode="&#xce;" horiz-adv-x="569" d="M-109 1612l267 276h262l254 -276h-193l-200 143l-203 -143h-187zM129 0v1493h307v-1493h-307z" />
<glyph unicode="&#xcf;" horiz-adv-x="569" d="M-45 1632v236h258v-236h-258zM129 0v1493h307v-1493h-307zM354 1632v236h258v-236h-258z" />
<glyph unicode="&#xd0;" horiz-adv-x="1478" d="M0 694v164h158v635h583q176 0 288 -41t185 -131q84 -104 132.5 -257t48.5 -316q0 -166 -48.5 -316.5t-132.5 -257.5q-74 -92 -185 -133t-288 -41h-583v694h-158zM465 256h276q199 0 279 128t80 361q0 236 -80 364t-279 128h-276v-379h307v-164h-307v-438z" />
<glyph unicode="&#xd1;" horiz-adv-x="1478" d="M139 0v1493h316l592 -1016v1016h307v-1493h-307l-601 1032v-1032h-307zM381 1618q6 119 57 186.5t135 67.5q41 0 115 -27l146 -51q29 -12 69 -12q63 0 74 98h129q-12 -260 -195 -260q-47 0 -112 25l-146 53q-37 12 -61 12q-37 0 -55.5 -21.5t-26.5 -70.5h-129z" />
<glyph unicode="&#xd2;" horiz-adv-x="1593" d="M82 748q0 330 197.5 550t519.5 220q324 0 522.5 -219.5t198.5 -561.5q0 -332 -199 -547t-520 -215q-326 0 -522.5 216.5t-196.5 556.5zM389 748q0 -233 112.5 -371.5t299.5 -138.5q184 0 297.5 137t113.5 364q0 233 -111.5 374.5t-299.5 141.5q-184 0 -298 -140 t-114 -367zM414 1886h338l155 -276h-217z" />
<glyph unicode="&#xd3;" horiz-adv-x="1593" d="M82 748q0 330 197.5 550t519.5 220q324 0 522.5 -219.5t198.5 -561.5q0 -332 -199 -547t-520 -215q-326 0 -522.5 216.5t-196.5 556.5zM389 748q0 -233 112.5 -371.5t299.5 -138.5q184 0 297.5 137t113.5 364q0 233 -111.5 374.5t-299.5 141.5q-184 0 -298 -140 t-114 -367zM690 1610l156 276h338l-277 -276h-217z" />
<glyph unicode="&#xd4;" horiz-adv-x="1593" d="M82 748q0 330 197.5 550t519.5 220q324 0 522.5 -219.5t198.5 -561.5q0 -332 -199 -547t-520 -215q-326 0 -522.5 216.5t-196.5 556.5zM389 748q0 -233 112.5 -371.5t299.5 -138.5q184 0 297.5 137t113.5 364q0 233 -111.5 374.5t-299.5 141.5q-184 0 -298 -140 t-114 -367zM408 1612l266 276h262l254 -276h-193l-200 143l-203 -143h-186z" />
<glyph unicode="&#xd5;" horiz-adv-x="1593" d="M82 748q0 330 197.5 550t519.5 220q324 0 522.5 -219.5t198.5 -561.5q0 -332 -199 -547t-520 -215q-326 0 -522.5 216.5t-196.5 556.5zM389 748q0 -233 112.5 -371.5t299.5 -138.5q184 0 297.5 137t113.5 364q0 233 -111.5 374.5t-299.5 141.5q-184 0 -298 -140 t-114 -367zM440 1618q6 119 57.5 186.5t135.5 67.5q41 0 115 -27l145 -51q29 -12 70 -12q66 0 73 98h129q-12 -260 -194 -260q-49 0 -113 25l-145 53q-37 12 -62 12q-37 0 -55 -21.5t-27 -70.5h-129z" />
<glyph unicode="&#xd6;" horiz-adv-x="1593" d="M82 748q0 330 197.5 550t519.5 220q324 0 522.5 -219.5t198.5 -561.5q0 -332 -199 -547t-520 -215q-326 0 -522.5 216.5t-196.5 556.5zM389 748q0 -233 112.5 -371.5t299.5 -138.5q184 0 297.5 137t113.5 364q0 233 -111.5 374.5t-299.5 141.5q-184 0 -298 -140 t-114 -367zM471 1632v236h258v-236h-258zM870 1632v236h258v-236h-258z" />
<glyph unicode="&#xd7;" horiz-adv-x="1196" d="M190 248l263 264l-263 264l144 144l264 -263l264 263l144 -144l-263 -264l263 -264l-144 -144l-264 263l-264 -263z" />
<glyph unicode="&#xd8;" horiz-adv-x="1593" d="M82 748q0 330 197.5 550t519.5 220q262 0 446 -150l133 143l140 -131l-142 -151q143 -205 144 -492q0 -332 -199 -547t-520 -215q-264 0 -447 148l-131 -141l-139 131l139 149q-141 201 -141 486zM389 748q0 -143 45 -256l621 671q-102 92 -254 92q-184 0 -298 -140 t-114 -367zM545 330q104 -92 256 -92q184 0 297.5 137t113.5 364q0 145 -47 262z" />
<glyph unicode="&#xd9;" horiz-adv-x="1478" d="M156 504v989h307v-989q0 -266 284.5 -266t284.5 266v989h307v-989q0 -256 -162.5 -392.5t-429 -136.5t-429 136.5t-162.5 392.5zM354 1886h338l156 -276h-217z" />
<glyph unicode="&#xda;" horiz-adv-x="1478" d="M156 504v989h307v-989q0 -266 284.5 -266t284.5 266v989h307v-989q0 -256 -162.5 -392.5t-429 -136.5t-429 136.5t-162.5 392.5zM631 1610l155 276h338l-276 -276h-217z" />
<glyph unicode="&#xdb;" horiz-adv-x="1478" d="M156 504v989h307v-989q0 -266 284.5 -266t284.5 266v989h307v-989q0 -256 -162.5 -392.5t-429 -136.5t-429 136.5t-162.5 392.5zM348 1612l266 276h263l253 -276h-192l-201 143l-202 -143h-187z" />
<glyph unicode="&#xdc;" horiz-adv-x="1478" d="M156 504v989h307v-989q0 -266 284.5 -266t284.5 266v989h307v-989q0 -256 -162.5 -392.5t-429 -136.5t-429 136.5t-162.5 392.5zM412 1632v236h258v-236h-258zM811 1632v236h258v-236h-258z" />
<glyph unicode="&#xdd;" horiz-adv-x="1366" d="M55 1493h342l305 -659l285 659h344l-473 -940v-553h-307v553zM596 1610l156 276h338l-277 -276h-217z" />
<glyph unicode="&#xde;" horiz-adv-x="1366" d="M156 0v1493h307v-246h352q238 0 354 -114q127 -125 127 -351q0 -229 -121.5 -362t-328.5 -133h-383v-287h-307zM463 543h287q240 0 239 223q0 115 -58.5 170t-180.5 55h-287v-448z" />
<glyph unicode="&#xdf;" horiz-adv-x="1251" d="M137 0v1061q0 432 484 432q207 0 338 -104.5t131 -268.5q0 -209 -179 -278q127 -27 197 -121t70 -238q0 -233 -123 -375.5t-324 -142.5q-47 0 -147 12v230l26 2l41 2q106 4 173 72.5t67 179.5q0 117 -75 184.5t-206 67.5h-26v194h18q92 2 146.5 51.5t54.5 131.5 q0 80 -53.5 125t-147.5 45q-84 0 -131 -43t-47 -119v-1100h-287z" />
<glyph unicode="&#xe0;" d="M57 299q0 147 79 225t247 109l115 20q72 12 123 18.5t78.5 31t27.5 79.5q0 111 -166 111q-106 0 -149 -33t-54 -119h-276q27 383 473 383q453 0 453 -340v-614q0 -76 65 -135v-35h-311q-33 41 -33 139q-152 -158 -336 -157q-145 0 -240.5 81.5t-95.5 235.5zM195 1540h319 l143 -315h-204zM344 332q0 -119 156 -119q109 0 168 67.5t59 192.5v49q-39 -18 -121 -35l-98 -18q-92 -16 -128 -46t-36 -91z" />
<glyph unicode="&#xe1;" d="M57 299q0 147 79 225t247 109l115 20q72 12 123 18.5t78.5 31t27.5 79.5q0 111 -166 111q-106 0 -149 -33t-54 -119h-276q27 383 473 383q453 0 453 -340v-614q0 -76 65 -135v-35h-311q-33 41 -33 139q-152 -158 -336 -157q-145 0 -240.5 81.5t-95.5 235.5zM344 332 q0 -119 156 -119q109 0 168 67.5t59 192.5v49q-39 -18 -121 -35l-98 -18q-92 -16 -128 -46t-36 -91zM453 1225l143 315h319l-258 -315h-204z" />
<glyph unicode="&#xe2;" d="M57 299q0 147 79 225t247 109l115 20q72 12 123 18.5t78.5 31t27.5 79.5q0 111 -166 111q-106 0 -149 -33t-54 -119h-276q27 383 473 383q453 0 453 -340v-614q0 -76 65 -135v-35h-311q-33 41 -33 139q-152 -158 -336 -157q-145 0 -240.5 81.5t-95.5 235.5zM209 1225 l221 315h260l211 -315h-180l-168 157l-168 -157h-176zM344 332q0 -119 156 -119q109 0 168 67.5t59 192.5v49q-39 -18 -121 -35l-98 -18q-92 -16 -128 -46t-36 -91z" />
<glyph unicode="&#xe3;" d="M57 299q0 147 79 225t247 109l115 20q72 12 123 18.5t78.5 31t27.5 79.5q0 111 -166 111q-106 0 -149 -33t-54 -119h-276q27 383 473 383q453 0 453 -340v-614q0 -76 65 -135v-35h-311q-33 41 -33 139q-152 -158 -336 -157q-145 0 -240.5 81.5t-95.5 235.5zM195 1251 q6 119 57 186.5t135 67.5q41 0 115 -26l145 -52q29 -12 70 -12q66 0 74 98h129q-12 -260 -195 -260q-49 0 -113 25l-145 53q-37 12 -61 12q-37 0 -55.5 -21.5t-26.5 -70.5h-129zM344 332q0 -119 156 -119q109 0 168 67.5t59 192.5v49q-39 -18 -121 -35l-98 -18 q-92 -16 -128 -46t-36 -91z" />
<glyph unicode="&#xe4;" d="M57 299q0 147 79 225t247 109l115 20q72 12 123 18.5t78.5 31t27.5 79.5q0 111 -166 111q-106 0 -149 -33t-54 -119h-276q27 383 473 383q453 0 453 -340v-614q0 -76 65 -135v-35h-311q-33 41 -33 139q-152 -158 -336 -157q-145 0 -240.5 81.5t-95.5 235.5zM225 1266v235 h258v-235h-258zM344 332q0 -119 156 -119q109 0 168 67.5t59 192.5v49q-39 -18 -121 -35l-98 -18q-92 -16 -128 -46t-36 -91zM625 1266v235h258v-235h-258z" />
<glyph unicode="&#xe5;" d="M57 299q0 147 79 225t247 109l115 20q72 12 123 18.5t78.5 31t27.5 79.5q0 111 -166 111q-106 0 -149 -33t-54 -119h-276q27 383 473 383q453 0 453 -340v-614q0 -76 65 -135v-35h-311q-33 41 -33 139q-152 -158 -336 -157q-145 0 -240.5 81.5t-95.5 235.5zM344 332 q0 -119 156 -119q109 0 168 67.5t59 192.5v49q-39 -18 -121 -35l-98 -18q-92 -16 -128 -46t-36 -91zM350 1382q0 84 59.5 143.5t147.5 59.5q84 0 142.5 -59.5t58.5 -145.5q0 -82 -60.5 -141t-142.5 -59q-86 0 -145.5 59t-59.5 143zM459 1382q0 -39 28.5 -66.5t69.5 -27.5 q37 0 64.5 27.5t27.5 66.5t-26.5 67t-65.5 28q-41 0 -69.5 -28t-28.5 -67z" />
<glyph unicode="&#xe6;" horiz-adv-x="1820" d="M55 305q0 150 78 226.5t248 107.5l115 20q102 16 127.5 22.5t52.5 20.5q49 27 49 82q0 109 -174 109q-96 0 -140 -34t-55 -118h-268q6 383 467 383q240 0 358 -102q127 102 318 102q248 0 386 -160.5t138 -451.5q0 -25 -2 -49h-741q0 -127 63.5 -193.5t169.5 -66.5 q70 0 131.5 33.5t81.5 74.5h283q-49 -143 -189.5 -235t-322.5 -92q-279 0 -410 213q-182 -215 -420 -215q-160 0 -252 84.5t-92 238.5zM342 334q0 -121 156 -121q111 0 169 66.5t58 193.5v47q-49 -29 -121 -39l-98 -14q-86 -12 -125 -42t-39 -91zM1014 653h442 q-23 252 -223.5 252t-218.5 -252z" />
<glyph unicode="&#xe7;" d="M70 545q0 281 136 430t386 149q207 0 335 -114.5t142 -317.5h-274q-25 109 -71 155t-134 46q-233 0 -234 -348q0 -160 61.5 -246t172.5 -86q82 0 129 41t76 129h274q-18 -168 -137 -277.5t-301 -121.5l-41 -86h82q72 0 113.5 -44t41.5 -114q0 -94 -69.5 -151.5 t-194.5 -57.5q-113 0 -282 57l38 125q141 -61 216 -61q49 0 82.5 24.5t33.5 59.5q0 63 -104 63h-131l88 187q-209 25 -321.5 168t-112.5 391z" />
<glyph unicode="&#xe8;" d="M45 539q0 276 136 430.5t376 154.5q244 0 381 -162.5t137 -449.5l-2 -35h-741q6 -154 63.5 -215t165.5 -61q184 0 219 110h283q-47 -160 -184.5 -244.5t-327.5 -84.5q-238 0 -372 146.5t-134 410.5zM197 1540h319l143 -315h-204zM336 668h440q-10 117 -69.5 177 t-153.5 60q-188 1 -217 -237z" />
<glyph unicode="&#xe9;" d="M45 539q0 276 136 430.5t376 154.5q244 0 381 -162.5t137 -449.5l-2 -35h-741q6 -154 63.5 -215t165.5 -61q184 0 219 110h283q-47 -160 -184.5 -244.5t-327.5 -84.5q-238 0 -372 146.5t-134 410.5zM336 668h440q-10 117 -69.5 177t-153.5 60q-188 1 -217 -237zM455 1225 l143 315h320l-259 -315h-204z" />
<glyph unicode="&#xea;" d="M45 539q0 276 136 430.5t376 154.5q244 0 381 -162.5t137 -449.5l-2 -35h-741q6 -154 63.5 -215t165.5 -61q184 0 219 110h283q-47 -160 -184.5 -244.5t-327.5 -84.5q-238 0 -372 146.5t-134 410.5zM211 1225l221 315h260l211 -315h-180l-168 157l-168 -157h-176z M336 668h440q-10 117 -69.5 177t-153.5 60q-188 1 -217 -237z" />
<glyph unicode="&#xeb;" d="M45 539q0 276 136 430.5t376 154.5q244 0 381 -162.5t137 -449.5l-2 -35h-741q6 -154 63.5 -215t165.5 -61q184 0 219 110h283q-47 -160 -184.5 -244.5t-327.5 -84.5q-238 0 -372 146.5t-134 410.5zM227 1266v235h258v-235h-258zM336 668h440q-10 117 -69.5 177 t-153.5 60q-188 1 -217 -237zM627 1266v235h258v-235h-258z" />
<glyph unicode="&#xec;" horiz-adv-x="569" d="M-39 1540h320l143 -315h-205zM137 0v1106h287v-1106h-287z" />
<glyph unicode="&#xed;" horiz-adv-x="569" d="M137 0v1106h287v-1106h-287zM139 1225l144 315h319l-258 -315h-205z" />
<glyph unicode="&#xee;" horiz-adv-x="569" d="M-61 1225l221 315h260l211 -315h-180l-168 157l-168 -157h-176zM137 0v1106h287v-1106h-287z" />
<glyph unicode="&#xef;" horiz-adv-x="569" d="M-45 1266v235h258v-235h-258zM137 0v1106h287v-1106h-287zM354 1266v235h258v-235h-258z" />
<glyph unicode="&#xf0;" horiz-adv-x="1251" d="M72 557q0 244 135 390.5t354 146.5q74 0 174 -39q-82 131 -194 196l-158 -94l-86 76l143 90q-78 47 -184 98l137 97q72 -27 178 -86l31 -15l178 107l105 -70l-172 -102q233 -158 342.5 -346.5t109.5 -440.5q0 -281 -143 -432t-404 -151q-258 0 -402 150.5t-144 424.5z M360 546.5q0 -155.5 70 -244.5t188.5 -89t188.5 87t70 239v2q0 160 -70 249t-188.5 89t-188.5 -88.5t-70 -244z" />
<glyph unicode="&#xf1;" horiz-adv-x="1251" d="M129 0v1106h287v-160q119 178 332 178q176 0 273 -100t97 -283v-741h-287v682q0 199 -184 199q-104 0 -167.5 -59.5t-63.5 -157.5v-664h-287zM266 1251q6 119 57.5 186.5t135.5 67.5q41 0 114 -26l146 -52q29 -12 69 -12q63 0 74 98h129q-12 -260 -194 -260 q-47 0 -113 25l-145 53q-37 12 -62 12q-37 0 -55.5 -21.5t-26.5 -70.5h-129z" />
<glyph unicode="&#xf2;" horiz-adv-x="1251" d="M72 553q0 270 145 420.5t399 150.5q262 0 405.5 -150.5t143.5 -428.5q0 -264 -146.5 -413.5t-400.5 -149.5q-256 0 -401 149.5t-145 421.5zM264 1540h320l143 -315h-205zM358 553q0 -158 71 -249t189 -91q117 0 189 91t72 245q0 162 -71 253t-189.5 91t-189.5 -91 t-71 -249z" />
<glyph unicode="&#xf3;" horiz-adv-x="1251" d="M72 553q0 270 145 420.5t399 150.5q262 0 405.5 -150.5t143.5 -428.5q0 -264 -146.5 -413.5t-400.5 -149.5q-256 0 -401 149.5t-145 421.5zM358 553q0 -158 71 -249t189 -91q117 0 189 91t72 245q0 162 -71 253t-189.5 91t-189.5 -91t-71 -249zM524 1225l144 315h319 l-258 -315h-205z" />
<glyph unicode="&#xf4;" horiz-adv-x="1251" d="M72 553q0 270 145 420.5t399 150.5q262 0 405.5 -150.5t143.5 -428.5q0 -264 -146.5 -413.5t-400.5 -149.5q-256 0 -401 149.5t-145 421.5zM281 1225l221 315h260l211 -315h-180l-168 157l-168 -157h-176zM358 553q0 -158 71 -249t189 -91q117 0 189 91t72 245 q0 162 -71 253t-189.5 91t-189.5 -91t-71 -249z" />
<glyph unicode="&#xf5;" horiz-adv-x="1251" d="M72 553q0 270 145 420.5t399 150.5q262 0 405.5 -150.5t143.5 -428.5q0 -264 -146.5 -413.5t-400.5 -149.5q-256 0 -401 149.5t-145 421.5zM266 1251q6 119 57.5 186.5t135.5 67.5q41 0 114 -26l146 -52q29 -12 69 -12q63 0 74 98h129q-12 -260 -194 -260q-47 0 -113 25 l-145 53q-37 12 -62 12q-37 0 -55.5 -21.5t-26.5 -70.5h-129zM358 553q0 -158 71 -249t189 -91q117 0 189 91t72 245q0 162 -71 253t-189.5 91t-189.5 -91t-71 -249z" />
<glyph unicode="&#xf6;" horiz-adv-x="1251" d="M72 553q0 270 145 420.5t399 150.5q262 0 405.5 -150.5t143.5 -428.5q0 -264 -146.5 -413.5t-400.5 -149.5q-256 0 -401 149.5t-145 421.5zM297 1266v235h258v-235h-258zM358 553q0 -158 71 -249t189 -91q117 0 189 91t72 245q0 162 -71 253t-189.5 91t-189.5 -91 t-71 -249zM696 1266v235h258v-235h-258z" />
<glyph unicode="&#xf7;" horiz-adv-x="1196" d="M123 410v204h950v-204h-950zM444 139.5q0 63.5 45.5 108.5t109 45t108.5 -45t45 -108.5t-45 -108.5t-108.5 -45t-109 45t-45.5 108.5zM444 884.5q0 63.5 45.5 108.5t109 45t108.5 -45t45 -108.5t-45 -108.5t-108.5 -45t-109 45t-45.5 108.5z" />
<glyph unicode="&#xf8;" horiz-adv-x="1251" d="M72 553q0 270 145 420.5t399 150.5q207 0 338 -92l78 80l123 -119l-82 -86q92 -139 92 -362q0 -264 -146.5 -413.5t-400.5 -149.5q-201 0 -335 94l-78 -82l-123 119l82 86q-92 143 -92 354zM358 553q0 -70 17 -131l397 418q-63 53 -154 53q-119 0 -189.5 -91t-70.5 -249z M465 266q66 -53 153 -53q117 0 189 91t72 245q0 74 -17 135z" />
<glyph unicode="&#xf9;" horiz-adv-x="1251" d="M119 365v741h287v-682q0 -199 184 -199q104 0 167.5 59.5t63.5 157.5v664h287v-1106h-287v145q-123 -164 -332 -163q-176 0 -273 100.5t-97 282.5zM264 1540h320l143 -315h-205z" />
<glyph unicode="&#xfa;" horiz-adv-x="1251" d="M119 365v741h287v-682q0 -199 184 -199q104 0 167.5 59.5t63.5 157.5v664h287v-1106h-287v145q-123 -164 -332 -163q-176 0 -273 100.5t-97 282.5zM524 1225l144 315h319l-258 -315h-205z" />
<glyph unicode="&#xfb;" horiz-adv-x="1251" d="M119 365v741h287v-682q0 -199 184 -199q104 0 167.5 59.5t63.5 157.5v664h287v-1106h-287v145q-123 -164 -332 -163q-176 0 -273 100.5t-97 282.5zM281 1225l221 315h260l211 -315h-180l-168 157l-168 -157h-176z" />
<glyph unicode="&#xfc;" horiz-adv-x="1251" d="M119 365v741h287v-682q0 -199 184 -199q104 0 167.5 59.5t63.5 157.5v664h287v-1106h-287v145q-123 -164 -332 -163q-176 0 -273 100.5t-97 282.5zM297 1266v235h258v-235h-258zM696 1266v235h258v-235h-258z" />
<glyph unicode="&#xfd;" d="M18 1106h316l244 -805l229 805h295l-455 -1309q-53 -150 -133 -198t-235 -48q-45 0 -103 9v215q45 -12 76 -13q76 0 127 53.5t51 131.5v6zM467 1225l143 315h320l-258 -315h-205z" />
<glyph unicode="&#xfe;" horiz-adv-x="1251" d="M119 -446v1939h287v-551q102 182 307 182q199 0 331 -166.5t132 -420.5q0 -231 -132.5 -393t-330.5 -162q-205 0 -307 178v-606h-287zM406 537q0 -133 67.5 -224.5t173.5 -91.5q104 0 173 90t69 221q0 158 -66.5 255.5t-175 97.5t-175 -96t-66.5 -252z" />
<glyph unicode="&#xff;" d="M18 1106h316l244 -805l229 805h295l-455 -1309q-53 -150 -133 -198t-235 -48q-45 0 -103 9v215q45 -12 76 -13q76 0 127 53.5t51 131.5v6zM240 1266v235h258v-235h-258zM639 1266v235h258v-235h-258z" />
<glyph unicode="&#x100;" horiz-adv-x="1478" d="M53 0l531 1493h340l516 -1493h-316l-98 301h-559l-100 -301h-314zM446 1669v162h613v-162h-613zM553 557h389l-194 584z" />
<glyph unicode="&#x101;" d="M57 299q0 147 79 225t247 109l115 20q72 12 123 18.5t78.5 31t27.5 79.5q0 111 -166 111q-106 0 -149 -33t-54 -119h-276q27 383 473 383q453 0 453 -340v-614q0 -76 65 -135v-35h-311q-33 41 -33 139q-152 -158 -336 -157q-145 0 -240.5 81.5t-95.5 235.5zM246 1303v161 h612v-161h-612zM344 332q0 -119 156 -119q109 0 168 67.5t59 192.5v49q-39 -18 -121 -35l-98 -18q-92 -16 -128 -46t-36 -91z" />
<glyph unicode="&#x102;" horiz-adv-x="1478" d="M53 0l531 1493h340l516 -1493h-316l-98 301h-559l-100 -301h-314zM383 1874h145q16 -82 226 -82q211 0 223 82h145q-25 -250 -372 -250q-166 0 -265.5 61.5t-101.5 188.5zM553 557h389l-194 584z" />
<glyph unicode="&#x103;" d="M57 299q0 147 79 225t247 109l115 20q72 12 123 18.5t78.5 31t27.5 79.5q0 111 -166 111q-106 0 -149 -33t-54 -119h-276q27 383 473 383q453 0 453 -340v-614q0 -76 65 -135v-35h-311q-33 41 -33 139q-152 -158 -336 -157q-145 0 -240.5 81.5t-95.5 235.5zM213 1538h164 q0 -63 49 -97t123 -34t123 34t49 97h164q0 -127 -102.5 -218t-233.5 -91t-233.5 91t-102.5 218zM344 332q0 -119 156 -119q109 0 168 67.5t59 192.5v49q-39 -18 -121 -35l-98 -18q-92 -16 -128 -46t-36 -91z" />
<glyph unicode="&#x104;" horiz-adv-x="1478" d="M53 0l531 1493h340l516 -1493q-111 0 -193 -86q-43 -43 -43 -102q0 -98 107 -99h129v-184h-129q-135 0 -218 52t-83 159q0 156 114 260l-98 301h-559l-100 -301h-314zM553 557h389l-194 584z" />
<glyph unicode="&#x105;" d="M57 299q0 147 79 225t247 109l115 20q72 12 123 18.5t78.5 31t27.5 79.5q0 111 -166 111q-106 0 -149 -33t-54 -119h-276q27 383 473 383q453 0 453 -340v-614q0 -76 65 -135v-35h-47q-78 0 -133 -55.5t-55 -132.5q0 -98 106 -99h129v-184h-129q-135 0 -218 52t-83 159 q0 158 119 260q-33 41 -33 139q-152 -158 -336 -157q-145 0 -240.5 81.5t-95.5 235.5zM344 332q0 -119 156 -119q109 0 168 67.5t59 192.5v49q-39 -18 -121 -35l-98 -18q-92 -16 -128 -46t-36 -91z" />
<glyph unicode="&#x106;" horiz-adv-x="1478" d="M90 745q0 360 183.5 566.5t500.5 206.5q260 0 432 -139.5t191 -391.5h-293q-63 268 -320 268q-182 0 -284.5 -134t-102.5 -380q0 -244 99.5 -376t277.5 -132q303 0 330 277h299q-14 -254 -185 -394.5t-452 -140.5q-313 0 -494.5 206t-181.5 564zM662 1610l155 276h338 l-276 -276h-217z" />
<glyph unicode="&#x107;" d="M70 545q0 281 136 430t386 149q207 0 335 -114.5t142 -317.5h-274q-25 109 -71 155t-134 46q-233 0 -234 -348q0 -160 61.5 -246t172.5 -86q82 0 129 41t76 129h274q-20 -178 -151.5 -289.5t-329.5 -111.5q-248 0 -383 145.5t-135 417.5zM489 1225l144 315h319l-258 -315 h-205z" />
<glyph unicode="&#x108;" horiz-adv-x="1478" d="M90 745q0 360 183.5 566.5t500.5 206.5q260 0 432 -139.5t191 -391.5h-293q-63 268 -320 268q-182 0 -284.5 -134t-102.5 -380q0 -244 99.5 -376t277.5 -132q303 0 330 277h299q-14 -254 -185 -394.5t-452 -140.5q-313 0 -494.5 206t-181.5 564zM379 1612l266 276h262 l254 -276h-192l-201 143l-203 -143h-186z" />
<glyph unicode="&#x109;" d="M70 545q0 281 136 430t386 149q207 0 335 -114.5t142 -317.5h-274q-25 109 -71 155t-134 46q-233 0 -234 -348q0 -160 61.5 -246t172.5 -86q82 0 129 41t76 129h274q-20 -178 -151.5 -289.5t-329.5 -111.5q-248 0 -383 145.5t-135 417.5zM246 1225l221 315h260l211 -315 h-180l-168 157l-168 -157h-176z" />
<glyph unicode="&#x10a;" horiz-adv-x="1478" d="M90 745q0 360 183.5 566.5t500.5 206.5q260 0 432 -139.5t191 -391.5h-293q-63 268 -320 268q-182 0 -284.5 -134t-102.5 -380q0 -244 99.5 -376t277.5 -132q303 0 330 277h299q-14 -254 -185 -394.5t-452 -140.5q-313 0 -494.5 206t-181.5 564zM629 1606v286h286v-286 h-286z" />
<glyph unicode="&#x10b;" d="M70 545q0 281 136 430t386 149q207 0 335 -114.5t142 -317.5h-274q-25 109 -71 155t-134 46q-233 0 -234 -348q0 -160 61.5 -246t172.5 -86q82 0 129 41t76 129h274q-20 -178 -151.5 -289.5t-329.5 -111.5q-248 0 -383 145.5t-135 417.5zM449 1239v287h286v-287h-286z " />
<glyph unicode="&#x10c;" horiz-adv-x="1478" d="M90 745q0 360 183.5 566.5t500.5 206.5q260 0 432 -139.5t191 -391.5h-293q-63 268 -320 268q-182 0 -284.5 -134t-102.5 -380q0 -244 99.5 -376t277.5 -132q303 0 330 277h299q-14 -254 -185 -394.5t-452 -140.5q-313 0 -494.5 206t-181.5 564zM381 1888h192l201 -143 l203 143h186l-266 -276h-262z" />
<glyph unicode="&#x10d;" d="M70 545q0 281 136 430t386 149q207 0 335 -114.5t142 -317.5h-274q-25 109 -71 155t-134 46q-233 0 -234 -348q0 -160 61.5 -246t172.5 -86q82 0 129 41t76 129h274q-20 -178 -151.5 -289.5t-329.5 -111.5q-248 0 -383 145.5t-135 417.5zM246 1540h180l168 -158l168 158 h176l-221 -315h-260z" />
<glyph unicode="&#x10e;" horiz-adv-x="1478" d="M158 0v1493h583q172 0 284 -41t187 -131q182 -217 182.5 -573.5t-182.5 -573.5q-147 -174 -471 -174h-583zM352 1888h193l200 -143l203 143h187l-267 -276h-262zM465 256h276q346 0 346 489q0 492 -346 492h-276v-981z" />
<glyph unicode="&#x10f;" horiz-adv-x="1251" d="M59 551q0 250 133.5 411.5t331.5 161.5q201 0 305 -161v530h287v-1493h-287v127q-111 -145 -305 -145q-213 0 -339 162.5t-126 406.5zM346 550.5q0 -151.5 66.5 -240.5t175 -89t175 88t66.5 238q0 158 -65.5 248t-175.5 90q-109 0 -175.5 -91.5t-66.5 -243zM1239 987v94 q141 27 137 183h-137v229h250v-211q0 -125 -70.5 -208t-179.5 -87z" />
<glyph unicode="&#x110;" horiz-adv-x="1478" d="M0 694v164h158v635h583q176 0 288 -41t185 -131q84 -104 132.5 -257t48.5 -316q0 -166 -48.5 -316.5t-132.5 -257.5q-74 -92 -185 -133t-288 -41h-583v694h-158zM465 256h276q199 0 279 128t80 361q0 236 -80 364t-279 128h-276v-379h307v-164h-307v-438z" />
<glyph unicode="&#x111;" horiz-adv-x="1251" d="M59 551q0 250 133.5 411.5t331.5 161.5q201 0 305 -161v258h-272v137h272v135h287v-135h123v-137h-123v-1221h-287v141q-106 -160 -304.5 -159.5t-332 161t-133.5 408.5zM346 550.5q0 -151.5 66.5 -240.5t175 -89t175 88t66.5 238q0 158 -65.5 248t-175.5 90 q-106 0 -174 -91.5t-68 -243z" />
<glyph unicode="&#x112;" horiz-adv-x="1366" d="M162 0v1493h1079v-256h-772v-338h715v-256h-715v-387h809v-256h-1116zM395 1669v162h613v-162h-613z" />
<glyph unicode="&#x113;" d="M45 539q0 276 136 430.5t376 154.5q244 0 381 -162.5t137 -449.5l-2 -35h-741q6 -154 63.5 -215t165.5 -61q184 0 219 110h283q-47 -160 -184.5 -244.5t-327.5 -84.5q-238 0 -372 146.5t-134 410.5zM248 1303v161h612v-161h-612zM336 668h440q-10 117 -69.5 177 t-153.5 60q-188 1 -217 -237z" />
<glyph unicode="&#x114;" horiz-adv-x="1366" d="M162 0v1493h1079v-256h-772v-338h715v-256h-715v-387h809v-256h-1116zM332 1874h145q16 -82 225 -82q211 0 224 82h145q-25 -250 -373 -250q-166 0 -265 61.5t-101 188.5z" />
<glyph unicode="&#x115;" d="M45 539q0 276 136 430.5t376 154.5q244 0 381 -162.5t137 -449.5l-2 -35h-741q6 -154 63.5 -215t165.5 -61q184 0 219 110h283q-47 -160 -184.5 -244.5t-327.5 -84.5q-238 0 -372 146.5t-134 410.5zM215 1538h164q0 -63 49 -97t123 -34t123 34t49 97h164 q0 -127 -102.5 -218t-233.5 -91t-233.5 91t-102.5 218zM336 668h440q-10 117 -69.5 177t-153.5 60q-188 1 -217 -237z" />
<glyph unicode="&#x116;" horiz-adv-x="1366" d="M162 0v1493h1079v-256h-772v-338h715v-256h-715v-387h809v-256h-1116zM561 1606v286h287v-286h-287z" />
<glyph unicode="&#x117;" d="M45 539q0 276 136 430.5t376 154.5q244 0 381 -162.5t137 -449.5l-2 -35h-741q6 -154 63.5 -215t165.5 -61q184 0 219 110h283q-47 -160 -184.5 -244.5t-327.5 -84.5q-238 0 -372 146.5t-134 410.5zM336 668h440q-10 117 -69.5 177t-153.5 60q-188 1 -217 -237zM414 1239 v287h286v-287h-286z" />
<glyph unicode="&#x118;" horiz-adv-x="1366" d="M162 0v1493h1079v-256h-772v-338h715v-256h-715v-387h809v-256q-111 0 -193 -86q-43 -43 -43 -102q0 -98 107 -99h129v-184h-129q-135 0 -218 52t-83 159q0 70 32.5 128t116.5 132h-835z" />
<glyph unicode="&#x119;" d="M45 539q0 276 136 430.5t376 154.5q244 0 381 -162.5t137 -449.5l-2 -35h-741q6 -154 63.5 -215t165.5 -61q184 0 219 110h283q-57 -193 -244 -276q-70 -31 -111.5 -91.5t-41.5 -131.5q0 -98 106 -99h129v-184h-129q-135 0 -218 52t-83 159q0 66 28.5 121t102.5 123 q-16 -2 -51 -2q-238 0 -372 146.5t-134 410.5zM336 668h440q-10 117 -69.5 177t-153.5 60q-188 1 -217 -237z" />
<glyph unicode="&#x11a;" horiz-adv-x="1366" d="M162 0v1493h1079v-256h-772v-338h715v-256h-715v-387h809v-256h-1116zM313 1888h193l201 -143l202 143h187l-267 -276h-262z" />
<glyph unicode="&#x11b;" d="M45 539q0 276 136 430.5t376 154.5q244 0 381 -162.5t137 -449.5l-2 -35h-741q6 -154 63.5 -215t165.5 -61q184 0 219 110h283q-47 -160 -184.5 -244.5t-327.5 -84.5q-238 0 -372 146.5t-134 410.5zM211 1540h180l168 -158l168 158h176l-221 -315h-260zM336 668h440 q-10 117 -69.5 177t-153.5 60q-188 1 -217 -237z" />
<glyph unicode="&#x11c;" horiz-adv-x="1593" d="M86 748q0 348 199.5 559t523.5 211q270 0 444 -135.5t203 -366.5h-289q-82 240 -356 239q-197 0 -307.5 -132t-110.5 -371q0 -229 120 -371.5t306 -142.5q141 0 253 87t126 222h-340v256h598v-803h-184l-37 205q-86 -119 -193.5 -174.5t-257.5 -55.5q-303 0 -500.5 217.5 t-197.5 555.5zM418 1612l266 276h262l254 -276h-192l-201 143l-203 -143h-186z" />
<glyph unicode="&#x11d;" horiz-adv-x="1251" d="M70 541q0 256 130 419.5t328 163.5q184 0 308 -188v170h272v-1143q0 -195 -138.5 -302t-387.5 -107q-223 0 -354.5 88t-135.5 225h297q35 -129 203 -129q109 0 176.5 62.5t67.5 162.5v164q-82 -82 -150 -113.5t-164 -31.5q-205 0 -328.5 151.5t-123.5 407.5zM281 1225 l221 315h260l211 -315h-180l-168 157l-168 -157h-176zM356 545q0 -150 63.5 -237t166.5 -87q113 0 183.5 87t70.5 237q0 152 -71 246t-179 94q-104 0 -169 -92t-65 -248z" />
<glyph unicode="&#x11e;" horiz-adv-x="1593" d="M86 748q0 348 199.5 559t523.5 211q270 0 444 -135.5t203 -366.5h-289q-82 240 -356 239q-197 0 -307.5 -132t-110.5 -371q0 -229 120 -371.5t306 -142.5q141 0 253 87t126 222h-340v256h598v-803h-184l-37 205q-86 -119 -193.5 -174.5t-257.5 -55.5q-303 0 -500.5 217.5 t-197.5 555.5zM438 1874h146q16 -82 225 -82q211 0 223 82h146q-25 -250 -373 -250q-166 0 -265.5 61.5t-101.5 188.5z" />
<glyph unicode="&#x11f;" horiz-adv-x="1251" d="M70 541q0 256 130 419.5t328 163.5q184 0 308 -188v170h272v-1143q0 -195 -138.5 -302t-387.5 -107q-223 0 -354.5 88t-135.5 225h297q35 -129 203 -129q109 0 176.5 62.5t67.5 162.5v164q-82 -82 -150 -113.5t-164 -31.5q-205 0 -328.5 151.5t-123.5 407.5zM285 1538 h164q0 -63 49 -97t122.5 -34t123 34t49.5 97h163q0 -127 -102 -218t-233.5 -91t-233.5 91t-102 218zM356 545q0 -150 63.5 -237t166.5 -87q113 0 183.5 87t70.5 237q0 152 -71 246t-179 94q-104 0 -169 -92t-65 -248z" />
<glyph unicode="&#x120;" horiz-adv-x="1593" d="M86 748q0 348 199.5 559t523.5 211q270 0 444 -135.5t203 -366.5h-289q-82 240 -356 239q-197 0 -307.5 -132t-110.5 -371q0 -229 120 -371.5t306 -142.5q141 0 253 87t126 222h-340v256h598v-803h-184l-37 205q-86 -119 -193.5 -174.5t-257.5 -55.5q-303 0 -500.5 217.5 t-197.5 555.5zM668 1606v286h286v-286h-286z" />
<glyph unicode="&#x121;" horiz-adv-x="1251" d="M70 541q0 256 130 419.5t328 163.5q184 0 308 -188v170h272v-1143q0 -195 -138.5 -302t-387.5 -107q-223 0 -354.5 88t-135.5 225h297q35 -129 203 -129q109 0 176.5 62.5t67.5 162.5v164q-82 -82 -150 -113.5t-164 -31.5q-205 0 -328.5 151.5t-123.5 407.5zM356 545 q0 -150 63.5 -237t166.5 -87q113 0 183.5 87t70.5 237q0 152 -71 246t-179 94q-104 0 -169 -92t-65 -248zM483 1239v287h287v-287h-287z" />
<glyph unicode="&#x122;" horiz-adv-x="1593" d="M86 748q0 348 199.5 559t523.5 211q270 0 444 -135.5t203 -366.5h-289q-82 240 -356 239q-197 0 -307.5 -132t-110.5 -371q0 -229 120 -371.5t306 -142.5q141 0 253 87t126 222h-340v256h598v-803h-184l-37 205q-86 -119 -193.5 -174.5t-257.5 -55.5q-303 0 -500.5 217.5 t-197.5 555.5zM672 -123h250v-211q0 -125 -71 -208t-179 -87v94q141 27 137 183h-137v229z" />
<glyph unicode="&#x123;" horiz-adv-x="1251" d="M70 541q0 256 130 419.5t328 163.5q184 0 308 -188v170h272v-1143q0 -195 -138.5 -302t-387.5 -107q-223 0 -354.5 88t-135.5 225h297q35 -129 203 -129q109 0 176.5 62.5t67.5 162.5v164q-82 -82 -150 -113.5t-164 -31.5q-205 0 -328.5 151.5t-123.5 407.5zM356 545 q0 -150 63.5 -237t166.5 -87q113 0 183.5 87t70.5 237q0 152 -71 246t-179 94q-104 0 -169 -92t-65 -248zM504 1192v211q0 125 70.5 208t179.5 87v-94q-141 -27 -138 -183h138v-229h-250z" />
<glyph unicode="&#x124;" horiz-adv-x="1478" d="M139 0v1493h307v-559h592v559h308v-1493h-308v678h-592v-678h-307zM352 1612l266 276h263l254 -276h-193l-201 143l-202 -143h-187z" />
<glyph unicode="&#x125;" horiz-adv-x="1251" d="M137 0v1493h287v-547q119 178 324 178q164 0 262 -98t98 -285v-741h-287v676q0 205 -176 205q-96 0 -158.5 -61.5t-62.5 -155.5v-664h-287zM236 1612l266 276h262l254 -276h-193l-200 143l-203 -143h-186z" />
<glyph unicode="&#x126;" horiz-adv-x="1478" d="M-14 1124v140h153v229h307v-229h592v229h308v-229h153v-140h-153v-1124h-308v678h-592v-678h-307v1124h-153zM446 934h592v190h-592v-190z" />
<glyph unicode="&#x127;" horiz-adv-x="1359" d="M123 1032v148l143 43v270h287v-182l203 61v-145l-203 -62v-219q119 178 324 178q164 0 262 -98t98 -285v-741h-287v676q0 205 -176 205q-96 0 -158.5 -61.5t-62.5 -155.5v-664h-287v1077z" />
<glyph unicode="&#x128;" horiz-adv-x="569" d="M-76 1618q6 119 57.5 186.5t135.5 67.5q41 0 114 -27l146 -51q29 -12 69 -12q66 0 74 98h129q-12 -260 -194 -260q-49 0 -113 25l-145 53q-37 12 -62 12q-37 0 -55.5 -21.5t-26.5 -70.5h-129zM129 0v1493h307v-1493h-307z" />
<glyph unicode="&#x129;" horiz-adv-x="569" d="M-76 1251q6 119 57.5 186.5t135.5 67.5q41 0 114 -26l146 -52q29 -12 69 -12q66 0 74 98h129q-12 -260 -194 -260q-49 0 -113 25l-145 53q-37 12 -62 12q-37 0 -55.5 -21.5t-26.5 -70.5h-129zM137 0v1106h287v-1106h-287z" />
<glyph unicode="&#x12a;" horiz-adv-x="569" d="M-25 1669v162h613v-162h-613zM129 0v1493h307v-1493h-307z" />
<glyph unicode="&#x12b;" horiz-adv-x="569" d="M-25 1303v161h613v-161h-613zM137 0v1106h287v-1106h-287z" />
<glyph unicode="&#x12c;" horiz-adv-x="569" d="M-88 1874h145q16 -82 226 -82q211 0 223 82h145q-25 -250 -372 -250q-166 0 -265.5 61.5t-101.5 188.5zM129 0v1493h307v-1493h-307z" />
<glyph unicode="&#x12d;" horiz-adv-x="569" d="M-57 1538h163q0 -63 49.5 -97t123 -34t123 34t49.5 97h163q0 -127 -102 -218t-233.5 -91t-233.5 91t-102 218zM137 0v1106h287v-1106h-287z" />
<glyph unicode="&#x12e;" horiz-adv-x="569" d="M47 -260q0 70 33 128t117 132h-68v1493h307v-1493q-92 -23 -151 -86q-43 -43 -43 -102q0 -98 106 -99h129v-184h-129q-135 0 -218 52.5t-83 158.5z" />
<glyph unicode="&#x12f;" horiz-adv-x="569" d="M55 -260q0 70 33 128t117 132h-68v1106h287v-1106q-78 -29 -131 -86q-43 -43 -43 -102q0 -98 106 -99h129v-184h-129q-135 0 -218 52.5t-83 158.5zM141 1239v287h287v-287h-287z" />
<glyph unicode="&#x130;" horiz-adv-x="569" d="M129 0v1493h307v-1493h-307zM141 1606v286h287v-286h-287z" />
<glyph unicode="&#x131;" horiz-adv-x="569" d="M137 0v1106h287v-1106h-287z" />
<glyph unicode="&#x134;" d="M49 428v125h307v-121q0 -102 39 -148t127 -46q80 0 123 45t43 129v1081h307v-1081q0 -209 -125 -323t-354 -114q-215 0 -341 118t-126 335zM451 1612l266 276h262l254 -276h-193l-200 143l-203 -143h-186z" />
<glyph unicode="&#x135;" horiz-adv-x="569" d="M-59 1225l221 315h260l211 -315h-180l-168 157l-168 -157h-176zM8 -207q27 -8 51 -8q47 0 65.5 19.5t18.5 66.5v1235h287v-1299q0 -135 -59.5 -194t-192.5 -59q-74 0 -170 10v229z" />
<glyph unicode="&#x136;" horiz-adv-x="1478" d="M152 0v1493h307v-655l583 655h363l-596 -643l659 -850h-366l-490 659l-153 -159v-500h-307zM602 -123h250v-211q0 -125 -70.5 -208t-179.5 -87v94q141 27 137 183h-137v229z" />
<glyph unicode="&#x137;" d="M121 0v1493h287v-817l362 430h326l-377 -418l403 -688h-336l-264 487l-114 -125v-362h-287zM432 -123h250v-211q0 -125 -70.5 -208t-179.5 -87v94q141 27 137 183h-137v229z" />
<glyph unicode="&#x139;" horiz-adv-x="1251" d="M164 0v1493h307v-1237h715v-256h-1022zM166 1610l156 276h337l-276 -276h-217z" />
<glyph unicode="&#x13a;" horiz-adv-x="569" d="M137 0v1493h287v-1493h-287zM139 1610l156 276h338l-277 -276h-217z" />
<glyph unicode="&#x13b;" horiz-adv-x="1251" d="M164 0v1493h307v-1237h715v-256h-1022zM539 -123h249v-211q0 -125 -70.5 -208t-178.5 -87v94q141 27 137 183h-137v229z" />
<glyph unicode="&#x13c;" horiz-adv-x="569" d="M137 0v1493h287v-1493h-287zM147 -123h250v-211q0 -125 -70.5 -208t-179.5 -87v94q141 27 138 183h-138v229z" />
<glyph unicode="&#x13d;" horiz-adv-x="1251" d="M164 0v1493h307v-1237h715v-256h-1022zM594 987v94q141 27 137 183h-137v229h250v-211q0 -125 -70.5 -208t-179.5 -87z" />
<glyph unicode="&#x13e;" horiz-adv-x="569" d="M137 0v1493h287v-1493h-287zM547 987v94q141 27 137 183h-137v229h250v-211q0 -125 -70.5 -208t-179.5 -87z" />
<glyph unicode="&#x13f;" horiz-adv-x="1251" d="M164 0v1493h307v-1237h715v-256h-1022zM801 623v286h286v-286h-286z" />
<glyph unicode="&#x140;" horiz-adv-x="819" d="M137 0v1493h287v-1493h-287zM547 623v286h287v-286h-287z" />
<glyph unicode="&#x141;" horiz-adv-x="1466" d="M70 301v272l237 146v774h307v-608l430 262v-275l-430 -260v-356h715v-256h-1022v444z" />
<glyph unicode="&#x142;" horiz-adv-x="856" d="M66 414v252l215 157v670h286v-479l230 168v-252l-230 -168v-762h-286v571z" />
<glyph unicode="&#x143;" horiz-adv-x="1478" d="M139 0v1493h316l592 -1016v1016h307v-1493h-307l-601 1032v-1032h-307zM631 1610l155 276h338l-276 -276h-217z" />
<glyph unicode="&#x144;" horiz-adv-x="1251" d="M129 0v1106h287v-160q119 178 332 178q176 0 273 -100t97 -283v-741h-287v682q0 199 -184 199q-104 0 -167.5 -59.5t-63.5 -157.5v-664h-287zM524 1225l144 315h319l-258 -315h-205z" />
<glyph unicode="&#x145;" horiz-adv-x="1478" d="M139 0v1493h316l592 -1016v1016h307v-1493h-307l-601 1032v-1032h-307zM602 -123h250v-211q0 -125 -70.5 -208t-179.5 -87v94q141 27 137 183h-137v229z" />
<glyph unicode="&#x146;" horiz-adv-x="1251" d="M129 0v1106h287v-160q119 178 332 178q176 0 273 -100t97 -283v-741h-287v682q0 199 -184 199q-104 0 -167.5 -59.5t-63.5 -157.5v-664h-287zM489 -123h250v-211q0 -125 -70.5 -208t-179.5 -87v94q141 27 138 183h-138v229z" />
<glyph unicode="&#x147;" horiz-adv-x="1478" d="M139 0v1493h316l592 -1016v1016h307v-1493h-307l-601 1032v-1032h-307zM350 1888h193l200 -143l203 143h187l-267 -276h-262z" />
<glyph unicode="&#x148;" horiz-adv-x="1251" d="M129 0v1106h287v-160q119 178 332 178q176 0 273 -100t97 -283v-741h-287v682q0 199 -184 199q-104 0 -167.5 -59.5t-63.5 -157.5v-664h-287zM281 1540h180l168 -158l168 158h176l-221 -315h-260z" />
<glyph unicode="&#x14a;" horiz-adv-x="1478" d="M139 0v1493h316l592 -1016v1016h307v-1575q0 -209 -125 -322.5t-355 -113.5q-207 0 -332.5 109.5t-133.5 312.5h309q4 -84 44 -122t120 -38q68 0 117 47t49 113v96l-601 1032v-1032h-307z" />
<glyph unicode="&#x14b;" horiz-adv-x="1251" d="M129 0v1106h287v-160q119 178 332 178q176 0 273 -100t97 -283v-934q0 -135 -59.5 -194t-192.5 -59q-74 0 -170 10v229q27 -8 52 -8q47 0 65 19.5t18 66.5v811q0 199 -184 199q-104 0 -167.5 -59.5t-63.5 -157.5v-664h-287z" />
<glyph unicode="&#x14c;" horiz-adv-x="1593" d="M82 748q0 330 197.5 550t519.5 220q324 0 522.5 -219.5t198.5 -561.5q0 -332 -199 -547t-520 -215q-326 0 -522.5 216.5t-196.5 556.5zM389 748q0 -233 112.5 -371.5t299.5 -138.5q184 0 297.5 137t113.5 364q0 233 -111.5 374.5t-299.5 141.5q-184 0 -298 -140 t-114 -367zM492 1669v162h612v-162h-612z" />
<glyph unicode="&#x14d;" horiz-adv-x="1251" d="M72 553q0 270 145 420.5t399 150.5q262 0 405.5 -150.5t143.5 -428.5q0 -264 -146.5 -413.5t-400.5 -149.5q-256 0 -401 149.5t-145 421.5zM317 1303v161h613v-161h-613zM358 553q0 -158 71 -249t189 -91q117 0 189 91t72 245q0 162 -71 253t-189.5 91t-189.5 -91 t-71 -249z" />
<glyph unicode="&#x14e;" horiz-adv-x="1593" d="M82 748q0 330 197.5 550t519.5 220q324 0 522.5 -219.5t198.5 -561.5q0 -332 -199 -547t-520 -215q-326 0 -522.5 216.5t-196.5 556.5zM389 748q0 -233 112.5 -371.5t299.5 -138.5q184 0 297.5 137t113.5 364q0 233 -111.5 374.5t-299.5 141.5q-184 0 -298 -140 t-114 -367zM428 1874h145q16 -82 226 -82q211 0 223 82h145q-25 -250 -372 -250q-166 0 -265.5 61.5t-101.5 188.5z" />
<glyph unicode="&#x14f;" horiz-adv-x="1251" d="M72 553q0 270 145 420.5t399 150.5q262 0 405.5 -150.5t143.5 -428.5q0 -264 -146.5 -413.5t-400.5 -149.5q-256 0 -401 149.5t-145 421.5zM285 1538h164q0 -63 49 -97t122.5 -34t123 34t49.5 97h163q0 -127 -102 -218t-233.5 -91t-233.5 91t-102 218zM358 553 q0 -158 71 -249t189 -91q117 0 189 91t72 245q0 162 -71 253t-189.5 91t-189.5 -91t-71 -249z" />
<glyph unicode="&#x150;" horiz-adv-x="1593" d="M82 748q0 330 197.5 550t519.5 220q324 0 522.5 -219.5t198.5 -561.5q0 -332 -199 -547t-520 -215q-326 0 -522.5 216.5t-196.5 556.5zM389 748q0 -233 112.5 -371.5t299.5 -138.5q184 0 297.5 137t113.5 364q0 233 -111.5 374.5t-299.5 141.5q-184 0 -298 -140 t-114 -367zM510 1612l143 315h258l-227 -315h-174zM915 1612l144 315h258l-227 -315h-175z" />
<glyph unicode="&#x151;" horiz-adv-x="1251" d="M72 553q0 270 145 420.5t399 150.5q262 0 405.5 -150.5t143.5 -428.5q0 -264 -146.5 -413.5t-400.5 -149.5q-256 0 -401 149.5t-145 421.5zM338 1225l143 315h258l-227 -315h-174zM358 553q0 -158 71 -249t189 -91q117 0 189 91t72 245q0 162 -71 253t-189.5 91 t-189.5 -91t-71 -249zM743 1225l144 315h258l-227 -315h-175z" />
<glyph unicode="&#x152;" horiz-adv-x="2048" d="M57 735q0 346 172 564.5t445 218.5q98 0 166.5 -30t142.5 -102v107h965v-256h-670v-338h612v-256h-612v-387h709v-256h-1004v150q-76 -94 -144.5 -131t-172.5 -37q-268 0 -438.5 206.5t-170.5 546.5zM365 735q0 -231 98 -361t264 -130q158 0 244 149v713 q-86 150 -242 149q-164 0 -264 -142t-100 -378z" />
<glyph unicode="&#x153;" horiz-adv-x="1933" d="M47 539q0 272 145.5 428.5t401.5 156.5q250 0 399 -155q133 156 369 155q248 0 385 -162.5t137 -449.5q0 -25 -2 -49h-741q2 -145 60.5 -203.5t172.5 -58.5q72 0 133.5 33.5t81.5 76.5h283q-51 -145 -190.5 -237t-321.5 -92q-231 0 -367 153q-158 -154 -399 -153 q-254 0 -400.5 151.5t-146.5 405.5zM334 539q0 -139 72.5 -232.5t187.5 -93.5q113 0 186.5 93t73.5 229q0 164 -70.5 261t-189.5 97q-117 0 -188.5 -98t-71.5 -256zM1145 653h440q-14 127 -72.5 189.5t-148.5 62.5q-196 0 -219 -252z" />
<glyph unicode="&#x154;" horiz-adv-x="1478" d="M164 0v1493h801q193 0 297 -111.5t104 -291.5q0 -270 -252 -369q55 -23 82 -36t54.5 -44t36.5 -55.5t18.5 -90t11.5 -129t4 -188.5q0 -86 65 -123v-55h-329q-29 53 -38 102.5t-9 153.5l4 158q0 94 -45 136t-146 42h-352v-592h-307zM471 848h371q125 0 171 47t46 152 q0 100 -47 145t-170 45h-371v-389zM631 1610l155 276h338l-276 -276h-217z" />
<glyph unicode="&#x155;" horiz-adv-x="796" d="M129 0v1106h287v-217q45 113 127 174t180 61q18 0 35 -2v-291q-51 8 -90 9q-252 0 -252 -252v-588h-287zM313 1225l144 315h319l-258 -315h-205z" />
<glyph unicode="&#x156;" horiz-adv-x="1478" d="M164 0v1493h801q193 0 297 -111.5t104 -291.5q0 -270 -252 -369q55 -23 82 -36t54.5 -44t36.5 -55.5t18.5 -90t11.5 -129t4 -188.5q0 -86 65 -123v-55h-329q-29 53 -38 102.5t-9 153.5l4 158q0 94 -45 136t-146 42h-352v-592h-307zM471 848h371q125 0 171 47t46 152 q0 100 -47 145t-170 45h-371v-389zM602 -123h250v-211q0 -125 -70.5 -208t-179.5 -87v94q141 27 137 183h-137v229z" />
<glyph unicode="&#x157;" horiz-adv-x="796" d="M129 0v1106h287v-217q45 113 127 174t180 61q18 0 35 -2v-291q-51 8 -90 9q-252 0 -252 -252v-588h-287zM135 -123h250v-211q0 -125 -70.5 -208t-179.5 -87v94q141 27 137 183h-137v229z" />
<glyph unicode="&#x158;" horiz-adv-x="1478" d="M164 0v1493h801q193 0 297 -111.5t104 -291.5q0 -270 -252 -369q55 -23 82 -36t54.5 -44t36.5 -55.5t18.5 -90t11.5 -129t4 -188.5q0 -86 65 -123v-55h-329q-29 53 -38 102.5t-9 153.5l4 158q0 94 -45 136t-146 42h-352v-592h-307zM350 1888h193l200 -143l203 143h187 l-267 -276h-262zM471 848h371q125 0 171 47t46 152q0 100 -47 145t-170 45h-371v-389z" />
<glyph unicode="&#x159;" horiz-adv-x="796" d="M70 1540h180l168 -158l168 158h176l-221 -315h-260zM129 0v1106h287v-217q45 113 127 174t180 61q18 0 35 -2v-291q-51 8 -90 9q-252 0 -252 -252v-588h-287z" />
<glyph unicode="&#x15a;" horiz-adv-x="1366" d="M66 469h299q0 -119 89 -183.5t246 -64.5q141 0 221 49t80 142q0 88 -61 131t-219 73l-209 41q-227 45 -323.5 136.5t-96.5 265.5q0 219 148.5 339t416.5 120q276 0 431 -123t155 -357h-287q0 113 -82.5 173.5t-230.5 60.5q-119 0 -188.5 -50.5t-69.5 -134.5 q0 -82 59.5 -121.5t223.5 -72.5l233 -45q209 -41 302 -133t93 -266q0 -225 -160.5 -349.5t-451.5 -124.5q-289 0 -453.5 128t-164.5 366zM563 1610l156 276h338l-277 -276h-217z" />
<glyph unicode="&#x15b;" d="M59 350h281q18 -84 69.5 -113.5t155.5 -29.5q213 0 213 94q0 45 -96 76l-342 106q-145 45 -193.5 104.5t-48.5 168.5q0 170 122 269t333 99q223 0 350 -99t131 -275h-276q-2 150 -207 149q-76 0 -121 -27.5t-45 -74.5q0 -35 20.5 -52.5t79.5 -33.5l363 -105 q217 -63 217 -264v-14q0 -168 -125 -257t-358 -89q-511 -1 -523 368zM467 1225l143 315h320l-258 -315h-205z" />
<glyph unicode="&#x15c;" horiz-adv-x="1366" d="M66 469h299q0 -119 89 -183.5t246 -64.5q141 0 221 49t80 142q0 88 -61 131t-219 73l-209 41q-227 45 -323.5 136.5t-96.5 265.5q0 219 148.5 339t416.5 120q276 0 431 -123t155 -357h-287q0 113 -82.5 173.5t-230.5 60.5q-119 0 -188.5 -50.5t-69.5 -134.5 q0 -82 59.5 -121.5t223.5 -72.5l233 -45q209 -41 302 -133t93 -266q0 -225 -160.5 -349.5t-451.5 -124.5q-289 0 -453.5 128t-164.5 366zM281 1612l266 276h262l254 -276h-193l-200 143l-203 -143h-186z" />
<glyph unicode="&#x15d;" d="M59 350h281q18 -84 69.5 -113.5t155.5 -29.5q213 0 213 94q0 45 -96 76l-342 106q-145 45 -193.5 104.5t-48.5 168.5q0 170 122 269t333 99q223 0 350 -99t131 -275h-276q-2 150 -207 149q-76 0 -121 -27.5t-45 -74.5q0 -35 20.5 -52.5t79.5 -33.5l363 -105 q217 -63 217 -264v-14q0 -168 -125 -257t-358 -89q-511 -1 -523 368zM223 1225l221 315h261l210 -315h-180l-168 157l-168 -157h-176z" />
<glyph unicode="&#x15e;" horiz-adv-x="1366" d="M66 469h299q0 -119 89 -183.5t246 -64.5q141 0 221 49t80 142q0 88 -61 131t-219 73l-209 41q-227 45 -323.5 136.5t-96.5 265.5q0 219 148.5 339t416.5 120q276 0 431 -123t155 -357h-287q0 113 -82.5 173.5t-230.5 60.5q-119 0 -188.5 -50.5t-69.5 -134.5 q0 -82 59.5 -121.5t223.5 -72.5l233 -45q209 -41 302 -133t93 -266q0 -215 -145 -337t-410 -135l-39 -79h82q72 0 114 -44t42 -114q0 -94 -69.5 -151.5t-194.5 -57.5q-113 0 -283 57l39 125q141 -61 215 -61q49 0 83 24.5t34 59.5q0 63 -105 63h-131l84 178 q-256 16 -401 143.5t-145 348.5z" />
<glyph unicode="&#x15f;" d="M59 350h281q18 -84 69.5 -113.5t155.5 -29.5q213 0 213 94q0 45 -96 76l-342 106q-145 45 -193.5 104.5t-48.5 168.5q0 170 122 269t333 99q223 0 350 -99t131 -275h-276q-2 150 -207 149q-76 0 -121 -27.5t-45 -74.5q0 -35 20.5 -52.5t79.5 -33.5l363 -105 q217 -63 217 -264v-14q0 -162 -117 -251t-338 -95l-41 -84h82q72 0 114 -44t42 -114q0 -94 -69.5 -151.5t-194.5 -57.5q-113 0 -283 57l39 125q141 -61 215 -61q49 0 83 24.5t34 59.5q0 63 -105 63h-131l88 187q-412 34 -424 364z" />
<glyph unicode="&#x160;" horiz-adv-x="1366" d="M66 469h299q0 -119 89 -183.5t246 -64.5q141 0 221 49t80 142q0 88 -61 131t-219 73l-209 41q-227 45 -323.5 136.5t-96.5 265.5q0 219 148.5 339t416.5 120q276 0 431 -123t155 -357h-287q0 113 -82.5 173.5t-230.5 60.5q-119 0 -188.5 -50.5t-69.5 -134.5 q0 -82 59.5 -121.5t223.5 -72.5l233 -45q209 -41 302 -133t93 -266q0 -225 -160.5 -349.5t-451.5 -124.5q-289 0 -453.5 128t-164.5 366zM283 1888h192l201 -143l203 143h186l-266 -276h-262z" />
<glyph unicode="&#x161;" d="M59 350h281q18 -84 69.5 -113.5t155.5 -29.5q213 0 213 94q0 45 -96 76l-342 106q-145 45 -193.5 104.5t-48.5 168.5q0 170 122 269t333 99q223 0 350 -99t131 -275h-276q-2 150 -207 149q-76 0 -121 -27.5t-45 -74.5q0 -35 20.5 -52.5t79.5 -33.5l363 -105 q217 -63 217 -264v-14q0 -168 -125 -257t-358 -89q-511 -1 -523 368zM223 1540h180l168 -158l168 158h176l-221 -315h-260z" />
<glyph unicode="&#x162;" horiz-adv-x="1251" d="M29 1237v256h1196v-256h-437v-1237h-106l-51 -102h82q72 0 113.5 -44t41.5 -114q0 -94 -69.5 -151.5t-194.5 -57.5q-113 0 -282 57l38 125q141 -61 215 -61q49 0 83 24.5t34 59.5q0 63 -104 63h-131l96 201h-72v1237h-452z" />
<glyph unicode="&#x163;" horiz-adv-x="681" d="M29 893v190h141v297h287v-297h159v-190h-159v-578q0 -74 18.5 -97t75.5 -23q23 0 65 6v-201q-12 0 -70.5 -4t-94.5 -4h-9l-47 -94h82q72 0 114 -44t42 -114q0 -94 -69.5 -151.5t-194.5 -57.5q-113 0 -283 57l39 125q141 -61 215 -61q49 0 83 24.5t34 59.5q0 63 -105 63 h-131l98 209q-150 43 -149 230v655h-141z" />
<glyph unicode="&#x164;" horiz-adv-x="1251" d="M29 1237v256h1196v-256h-437v-1237h-307v1237h-452zM238 1888h192l201 -143l203 143h186l-266 -276h-262z" />
<glyph unicode="&#x165;" horiz-adv-x="681" d="M29 893v190h141v297h287v-297h159v-190h-159v-578q0 -74 18.5 -97t75.5 -23q23 0 65 6v-201q-12 0 -70.5 -4t-94.5 -4q-143 0 -212 58.5t-69 187.5v655h-141zM518 1167v95q141 27 137 182h-137v229h250v-211q0 -125 -70.5 -208t-179.5 -87z" />
<glyph unicode="&#x168;" horiz-adv-x="1478" d="M156 504v989h307v-989q0 -266 284.5 -266t284.5 266v989h307v-989q0 -256 -162.5 -392.5t-429 -136.5t-429 136.5t-162.5 392.5zM381 1618q6 119 57 186.5t135 67.5q41 0 115 -27l146 -51q29 -12 69 -12q63 0 74 98h129q-12 -260 -195 -260q-47 0 -112 25l-146 53 q-37 12 -61 12q-37 0 -55.5 -21.5t-26.5 -70.5h-129z" />
<glyph unicode="&#x169;" horiz-adv-x="1251" d="M119 365v741h287v-682q0 -199 184 -199q104 0 167.5 59.5t63.5 157.5v664h287v-1106h-287v145q-123 -164 -332 -163q-176 0 -273 100.5t-97 282.5zM266 1251q6 119 57.5 186.5t135.5 67.5q41 0 114 -26l146 -52q29 -12 69 -12q63 0 74 98h129q-12 -260 -194 -260 q-47 0 -113 25l-145 53q-37 12 -62 12q-37 0 -55.5 -21.5t-26.5 -70.5h-129z" />
<glyph unicode="&#x16a;" horiz-adv-x="1478" d="M156 504v989h307v-989q0 -266 284.5 -266t284.5 266v989h307v-989q0 -256 -162.5 -392.5t-429 -136.5t-429 136.5t-162.5 392.5zM432 1669v162h612v-162h-612z" />
<glyph unicode="&#x16b;" horiz-adv-x="1251" d="M119 365v741h287v-682q0 -199 184 -199q104 0 167.5 59.5t63.5 157.5v664h287v-1106h-287v145q-123 -164 -332 -163q-176 0 -273 100.5t-97 282.5zM317 1303v161h613v-161h-613z" />
<glyph unicode="&#x16c;" horiz-adv-x="1478" d="M156 504v989h307v-989q0 -266 284.5 -266t284.5 266v989h307v-989q0 -256 -162.5 -392.5t-429 -136.5t-429 136.5t-162.5 392.5zM369 1874h145q16 -82 225 -82q211 0 224 82h145q-25 -250 -373 -250q-166 0 -265 61.5t-101 188.5z" />
<glyph unicode="&#x16d;" horiz-adv-x="1251" d="M119 365v741h287v-682q0 -199 184 -199q104 0 167.5 59.5t63.5 157.5v664h287v-1106h-287v145q-123 -164 -332 -163q-176 0 -273 100.5t-97 282.5zM285 1538h164q0 -63 49 -97t122.5 -34t123 34t49.5 97h163q0 -127 -102 -218t-233.5 -91t-233.5 91t-102 218z" />
<glyph unicode="&#x16e;" horiz-adv-x="1478" d="M156 504v989h307v-989q0 -266 284.5 -266t284.5 266v989h307v-989q0 -256 -162.5 -392.5t-429 -136.5t-429 136.5t-162.5 392.5zM537 1767q0 84 59 143.5t147 59.5q84 0 142.5 -59.5t58.5 -145.5q0 -82 -60.5 -141t-142.5 -59q-86 0 -145 59t-59 143zM645 1767.5 q0 -38.5 28.5 -66.5t69.5 -28q37 0 65 28t28 66.5t-27 66.5t-66 28q-41 0 -69.5 -28t-28.5 -66.5z" />
<glyph unicode="&#x16f;" horiz-adv-x="1251" d="M119 365v741h287v-682q0 -199 184 -199q104 0 167.5 59.5t63.5 157.5v664h287v-1106h-287v145q-123 -164 -332 -163q-176 0 -273 100.5t-97 282.5zM422 1382q0 84 59.5 143.5t147.5 59.5q84 0 142 -59.5t58 -145.5q0 -82 -60 -141t-142 -59q-86 0 -145.5 59t-59.5 143z M530 1382q0 -39 29 -66.5t70 -27.5q37 0 64.5 27.5t27.5 66.5t-26.5 67t-65.5 28q-41 0 -70 -28t-29 -67z" />
<glyph unicode="&#x170;" horiz-adv-x="1478" d="M156 504v989h307v-989q0 -266 284.5 -266t284.5 266v989h307v-989q0 -256 -162.5 -392.5t-429 -136.5t-429 136.5t-162.5 392.5zM451 1612l143 315h258l-227 -315h-174zM856 1612l143 315h258l-227 -315h-174z" />
<glyph unicode="&#x171;" horiz-adv-x="1251" d="M119 365v741h287v-682q0 -199 184 -199q104 0 167.5 59.5t63.5 157.5v664h287v-1106h-287v145q-123 -164 -332 -163q-176 0 -273 100.5t-97 282.5zM338 1225l143 315h258l-227 -315h-174zM743 1225l144 315h258l-227 -315h-175z" />
<glyph unicode="&#x172;" horiz-adv-x="1478" d="M156 504v989h307v-989q0 -266 284.5 -266t284.5 266v989h307v-989q0 -180 -82.5 -302t-230.5 -179q-78 -31 -130 -85.5t-52 -125.5q0 -98 106 -99h129v-184h-129q-135 0 -218 52t-83 159q0 119 123 235h-24q-266 0 -429 136.5t-163 392.5z" />
<glyph unicode="&#x173;" horiz-adv-x="1251" d="M119 365v741h287v-682q0 -199 184 -199q104 0 167.5 59.5t63.5 157.5v664h287v-1106q-102 -12 -172 -86q-43 -43 -43 -102q0 -98 106 -99h129v-184h-129q-135 0 -218 52t-83 159q0 160 123 260v145q-123 -164 -332 -163q-176 0 -273 100.5t-97 282.5z" />
<glyph unicode="&#x174;" horiz-adv-x="1933" d="M27 1493h325l232 -1118l231 1118h303l242 -1120l223 1120h326l-414 -1493h-276l-250 1165l-244 -1165h-276zM575 1612l267 276h262l254 -276h-193l-200 143l-203 -143h-187z" />
<glyph unicode="&#x175;" horiz-adv-x="1593" d="M10 1106h297l176 -774l168 774h287l166 -774l168 774h297l-314 -1106h-297l-165 780l-177 -780h-294zM451 1225l221 315h260l211 -315h-180l-168 157l-168 -157h-176z" />
<glyph unicode="&#x176;" horiz-adv-x="1366" d="M55 1493h342l305 -659l285 659h344l-473 -940v-553h-307v553zM313 1612l267 276h262l254 -276h-193l-201 143l-202 -143h-187z" />
<glyph unicode="&#x177;" d="M18 1106h316l244 -805l229 805h295l-455 -1309q-53 -150 -133 -198t-235 -48q-45 0 -103 9v215q45 -12 76 -13q76 0 127 53.5t51 131.5v6zM223 1225l221 315h261l210 -315h-180l-168 157l-168 -157h-176z" />
<glyph unicode="&#x178;" horiz-adv-x="1366" d="M55 1493h342l305 -659l285 659h344l-473 -940v-553h-307v553zM377 1632v236h258v-236h-258zM776 1632v236h258v-236h-258z" />
<glyph unicode="&#x179;" horiz-adv-x="1251" d="M61 0v256l764 981h-764v256h1123v-256l-762 -981h762v-256h-1123zM514 1610l156 276h338l-277 -276h-217z" />
<glyph unicode="&#x17a;" horiz-adv-x="1024" d="M43 0v231l547 643h-510v232h860v-232l-543 -643h561v-231h-915zM410 1225l143 315h319l-258 -315h-204z" />
<glyph unicode="&#x17b;" horiz-adv-x="1251" d="M61 0v256l764 981h-764v256h1123v-256l-762 -981h762v-256h-1123zM481 1606v286h287v-286h-287z" />
<glyph unicode="&#x17c;" horiz-adv-x="1024" d="M43 0v231l547 643h-510v232h860v-232l-543 -643h561v-231h-915zM369 1239v287h286v-287h-286z" />
<glyph unicode="&#x17d;" horiz-adv-x="1251" d="M61 0v256l764 981h-764v256h1123v-256l-762 -981h762v-256h-1123zM233 1888h193l201 -143l202 143h187l-266 -276h-263z" />
<glyph unicode="&#x17e;" horiz-adv-x="1024" d="M43 0v231l547 643h-510v232h860v-232l-543 -643h561v-231h-915zM166 1540h180l168 -158l168 158h176l-221 -315h-260z" />
<glyph unicode="&#x17f;" horiz-adv-x="681" d="M184 0v1217q0 276 283 276q84 0 164 -6v-215q-37 6 -82 6q-78 0 -78 -86v-1192h-287z" />
<glyph unicode="&#x18e;" horiz-adv-x="1366" d="M162 0v256h809v387h-715v256h715v338h-772v256h1079v-1493h-1116z" />
<glyph unicode="&#x192;" d="M43 -406l49 236q72 -43 117 -43q53 0 83 50t50 177l123 770h-252v199h283l22 121q35 217 127 318.5t254 101.5q82 0 197 -35l-41 -236q-74 33 -113 33q-119 0 -156 -219l-14 -84h252v-199h-281l-120 -782q-37 -244 -132.5 -348.5t-263.5 -104.5q-96 0 -184 45z" />
<glyph unicode="&#x1a0;" horiz-adv-x="1662" d="M82 750q0 336 209 561q190 207 508 207q319 0 512 -207q33 -37 47 -58q115 96 115 240h-134v256h277v-223q0 -258 -186 -389q90 -190 90 -398q0 -158 -56.5 -310.5t-152.5 -254.5q-178 -193 -510 -192.5t-510 192.5q-100 106 -154.5 257t-54.5 319zM389 749.5 q0 -233.5 112.5 -369.5t299 -136t299 135t112.5 362q0 242 -110.5 378t-300.5 136q-186 0 -299 -136t-113 -369.5z" />
<glyph unicode="&#x1a1;" horiz-adv-x="1392" d="M72 553q0 270 145 420.5t399 150.5q328 0 469 -245q102 94 103 227h-133v256h276v-223q0 -262 -192 -394q27 -94 26 -200q0 -264 -146.5 -413.5t-400.5 -149.5q-256 0 -401 149.5t-145 421.5zM358 553q0 -158 71 -249t189 -91q117 0 189 91t72 245q0 162 -71 253 t-189.5 91t-189.5 -91t-71 -249z" />
<glyph unicode="&#x1af;" horiz-adv-x="1697" d="M156 510v983h307v-983q0 -266 284.5 -266t284.5 266v983h307v-289q182 102 183 287h-133v256h276v-223q0 -197 -97.5 -307.5t-228.5 -153.5v-553q0 -246 -145 -377q-168 -152 -446.5 -151.5t-446.5 151.5q-145 131 -145 377z" />
<glyph unicode="&#x1b0;" horiz-adv-x="1474" d="M119 365v741h287v-682q0 -199 184 -199q104 0 167.5 59.5t63.5 157.5v664h287v-291q78 41 133 117t55 174h-133v256h277v-223q0 -104 -32 -189.5t-84 -138.5t-104.5 -85t-111.5 -50v-676h-287v160q-119 -178 -332 -178q-176 0 -273 100.5t-97 282.5z" />
<glyph unicode="&#x1dd;" d="M45 594l2 35h741q-6 154 -63 215t-166 61q-184 0 -219 -110h-283q47 160 184.5 244.5t327.5 84.5q238 0 372 -146.5t134 -410.5q0 -276 -136 -430.5t-376 -154.5q-244 0 -381 162.5t-137 449.5zM344 438q10 -117 69.5 -177t153.5 -60q188 0 217 237h-440z" />
<glyph unicode="&#x1e6;" horiz-adv-x="1593" d="M86 748q0 348 199.5 559t523.5 211q270 0 444 -135.5t203 -366.5h-289q-82 240 -356 239q-197 0 -307.5 -132t-110.5 -371q0 -229 120 -371.5t306 -142.5q141 0 253 87t126 222h-340v256h598v-803h-184l-37 205q-86 -119 -193.5 -174.5t-257.5 -55.5q-303 0 -500.5 217.5 t-197.5 555.5zM420 1888h192l201 -143l203 143h186l-266 -276h-262z" />
<glyph unicode="&#x1e7;" horiz-adv-x="1251" d="M70 541q0 256 130 419.5t328 163.5q184 0 308 -188v170h272v-1143q0 -195 -138.5 -302t-387.5 -107q-223 0 -354.5 88t-135.5 225h297q35 -129 203 -129q109 0 176.5 62.5t67.5 162.5v164q-82 -82 -150 -113.5t-164 -31.5q-205 0 -328.5 151.5t-123.5 407.5zM281 1540 h180l168 -158l168 158h176l-221 -315h-260zM356 545q0 -150 63.5 -237t166.5 -87q113 0 183.5 87t70.5 237q0 152 -71 246t-179 94q-104 0 -169 -92t-65 -248z" />
<glyph unicode="&#x1ea;" horiz-adv-x="1593" d="M82 748q0 330 197.5 550t519.5 220q324 0 522.5 -219.5t198.5 -561.5q0 -246 -113 -433t-311 -271q-209 -90 -209 -221q0 -98 106 -99h129v-184h-129q-135 0 -218 52t-83 159q0 63 28 116.5t95 118.5h-14q-326 0 -522.5 216.5t-196.5 556.5zM389 748q0 -233 112.5 -371.5 t299.5 -138.5q184 0 297.5 137t113.5 364q0 233 -111.5 374.5t-299.5 141.5q-184 0 -298 -140t-114 -367z" />
<glyph unicode="&#x1eb;" horiz-adv-x="1251" d="M72 553q0 270 145 420.5t399 150.5q262 0 405.5 -150.5t143.5 -428.5q0 -346 -243 -490q-193 -113 -193 -243q0 -98 107 -99h129v-184h-129q-135 0 -218 52t-83 159q0 66 28.5 121t102.5 123q-16 -2 -48 -2q-256 0 -401 149.5t-145 421.5zM358 553q0 -158 71 -249 t189 -91q117 0 189 91t72 245q0 162 -71 253t-189.5 91t-189.5 -91t-71 -249z" />
<glyph unicode="&#x1f4;" horiz-adv-x="1593" d="M86 748q0 348 199.5 559t523.5 211q270 0 444 -135.5t203 -366.5h-289q-82 240 -356 239q-197 0 -307.5 -132t-110.5 -371q0 -229 120 -371.5t306 -142.5q141 0 253 87t126 222h-340v256h598v-803h-184l-37 205q-86 -119 -193.5 -174.5t-257.5 -55.5q-303 0 -500.5 217.5 t-197.5 555.5zM700 1610l156 276h338l-276 -276h-218z" />
<glyph unicode="&#x1f5;" horiz-adv-x="1251" d="M70 541q0 256 130 419.5t328 163.5q184 0 308 -188v170h272v-1143q0 -195 -138.5 -302t-387.5 -107q-223 0 -354.5 88t-135.5 225h297q35 -129 203 -129q109 0 176.5 62.5t67.5 162.5v164q-82 -82 -150 -113.5t-164 -31.5q-205 0 -328.5 151.5t-123.5 407.5zM356 545 q0 -150 63.5 -237t166.5 -87q113 0 183.5 87t70.5 237q0 152 -71 246t-179 94q-104 0 -169 -92t-65 -248zM524 1225l144 315h319l-258 -315h-205z" />
<glyph unicode="&#x1fa;" horiz-adv-x="1478" d="M53 0l531 1493h340l516 -1493h-316l-98 301h-559l-100 -301h-314zM551 1767q0 84 59.5 143.5t147.5 59.5q84 0 142 -59.5t58 -145.5q0 -82 -60 -141t-142 -59q-86 0 -145.5 59t-59.5 143zM553 557h389l-194 584zM645 2011l156 277h338l-277 -277h-217zM659 1767.5 q0 -38.5 29 -66.5t70 -28q37 0 64.5 28t27.5 66.5t-26.5 66.5t-65.5 28q-41 0 -70 -28t-29 -66.5z" />
<glyph unicode="&#x1fb;" d="M57 299q0 147 79 225t247 109l115 20q72 12 123 18.5t78.5 31t27.5 79.5q0 111 -166 111q-106 0 -149 -33t-54 -119h-276q27 383 473 383q453 0 453 -340v-614q0 -76 65 -135v-35h-311q-33 41 -33 139q-152 -158 -336 -157q-145 0 -240.5 81.5t-95.5 235.5zM344 332 q0 -119 156 -119q109 0 168 67.5t59 192.5v49q-39 -18 -121 -35l-98 -18q-92 -16 -128 -46t-36 -91zM352 1380q0 84 59.5 143.5t147.5 59.5q84 0 142.5 -59.5t58.5 -145.5q0 -82 -60.5 -141t-142.5 -59q-86 0 -145.5 59t-59.5 143zM446 1624l156 277h338l-276 -277h-218z M461 1380q0 -39 28.5 -66.5t69.5 -27.5q37 0 64.5 27.5t27.5 66.5t-26.5 67t-65.5 28q-41 0 -69.5 -28t-28.5 -67z" />
<glyph unicode="&#x1fc;" horiz-adv-x="2048" d="M2 0l539 1493h1396v-256h-749v-338h694v-256h-694v-387h790v-256h-1097v311h-457l-109 -311h-313zM510 567h371v670h-138zM926 1610l155 276h338l-276 -276h-217z" />
<glyph unicode="&#x1fd;" horiz-adv-x="1820" d="M55 305q0 150 78 226.5t248 107.5l115 20q102 16 127.5 22.5t52.5 20.5q49 27 49 82q0 109 -174 109q-96 0 -140 -34t-55 -118h-268q6 383 467 383q240 0 358 -102q127 102 318 102q248 0 386 -160.5t138 -451.5q0 -25 -2 -49h-741q0 -127 63.5 -193.5t169.5 -66.5 q70 0 131.5 33.5t81.5 74.5h283q-49 -143 -189.5 -235t-322.5 -92q-279 0 -410 213q-182 -215 -420 -215q-160 0 -252 84.5t-92 238.5zM342 334q0 -121 156 -121q111 0 169 66.5t58 193.5v47q-49 -29 -121 -39l-98 -14q-86 -12 -125 -42t-39 -91zM809 1225l143 315h320 l-258 -315h-205zM1014 653h442q-23 252 -223.5 252t-218.5 -252z" />
<glyph unicode="&#x1fe;" horiz-adv-x="1593" d="M82 748q0 330 197.5 550t519.5 220q262 0 446 -150l133 143l140 -131l-142 -151q143 -205 144 -492q0 -332 -199 -547t-520 -215q-264 0 -447 148l-131 -141l-139 131l139 149q-141 201 -141 486zM389 748q0 -143 45 -256l621 671q-102 92 -254 92q-184 0 -298 -140 t-114 -367zM545 330q104 -92 256 -92q184 0 297.5 137t113.5 364q0 145 -47 262zM688 1610l156 276h338l-277 -276h-217z" />
<glyph unicode="&#x1ff;" horiz-adv-x="1251" d="M72 553q0 270 145 420.5t399 150.5q207 0 338 -92l78 80l123 -119l-82 -86q92 -139 92 -362q0 -264 -146.5 -413.5t-400.5 -149.5q-201 0 -335 94l-78 -82l-123 119l82 86q-92 143 -92 354zM358 553q0 -70 17 -131l397 418q-63 53 -154 53q-119 0 -189.5 -91t-70.5 -249z M465 266q66 -53 153 -53q117 0 189 91t72 245q0 74 -17 135zM524 1225l144 315h319l-258 -315h-205z" />
<glyph unicode="&#x200;" horiz-adv-x="1478" d="M53 0l531 1493h340l516 -1493h-316l-98 301h-559l-100 -301h-314zM236 1927h258l143 -315h-174zM553 557h389l-194 584zM641 1927h258l143 -315h-174z" />
<glyph unicode="&#x201;" d="M37 1540h258l143 -315h-174zM57 299q0 147 79 225t247 109l115 20q72 12 123 18.5t78.5 31t27.5 79.5q0 111 -166 111q-106 0 -149 -33t-54 -119h-276q27 383 473 383q453 0 453 -340v-614q0 -76 65 -135v-35h-311q-33 41 -33 139q-152 -158 -336 -157 q-145 0 -240.5 81.5t-95.5 235.5zM344 332q0 -119 156 -119q109 0 168 67.5t59 192.5v49q-39 -18 -121 -35l-98 -18q-92 -16 -128 -46t-36 -91zM442 1540h258l144 -315h-174z" />
<glyph unicode="&#x204;" horiz-adv-x="1366" d="M162 0v1493h1079v-256h-772v-338h715v-256h-715v-387h809v-256h-1116zM184 1927h258l144 -315h-174zM590 1927h258l143 -315h-174z" />
<glyph unicode="&#x205;" d="M39 1540h258l143 -315h-174zM45 539q0 276 136 430.5t376 154.5q244 0 381 -162.5t137 -449.5l-2 -35h-741q6 -154 63.5 -215t165.5 -61q184 0 219 110h283q-47 -160 -184.5 -244.5t-327.5 -84.5q-238 0 -372 146.5t-134 410.5zM336 668h440q-10 117 -69.5 177t-153.5 60 q-188 1 -217 -237zM444 1540h258l144 -315h-174z" />
<glyph unicode="&#x208;" horiz-adv-x="569" d="M-236 1927h259l143 -315h-174zM129 0v1493h307v-1493h-307zM170 1927h258l143 -315h-174z" />
<glyph unicode="&#x209;" horiz-adv-x="569" d="M-233 1540h258l143 -315h-174zM137 0v1106h287v-1106h-287zM172 1540h258l143 -315h-174z" />
<glyph unicode="&#x20c;" horiz-adv-x="1593" d="M82 748q0 330 197.5 550t519.5 220q324 0 522.5 -219.5t198.5 -561.5q0 -332 -199 -547t-520 -215q-326 0 -522.5 216.5t-196.5 556.5zM281 1927h258l143 -315h-174zM389 748q0 -233 112.5 -371.5t299.5 -138.5q184 0 297.5 137t113.5 364q0 233 -111.5 374.5 t-299.5 141.5q-184 0 -298 -140t-114 -367zM686 1927h258l143 -315h-174z" />
<glyph unicode="&#x20d;" horiz-adv-x="1251" d="M72 553q0 270 145 420.5t399 150.5q262 0 405.5 -150.5t143.5 -428.5q0 -264 -146.5 -413.5t-400.5 -149.5q-256 0 -401 149.5t-145 421.5zM106 1540h259l143 -315h-174zM358 553q0 -158 71 -249t189 -91q117 0 189 91t72 245q0 162 -71 253t-189.5 91t-189.5 -91 t-71 -249zM512 1540h258l143 -315h-174z" />
<glyph unicode="&#x210;" horiz-adv-x="1478" d="M164 0v1493h801q193 0 297 -111.5t104 -291.5q0 -270 -252 -369q55 -23 82 -36t54.5 -44t36.5 -55.5t18.5 -90t11.5 -129t4 -188.5q0 -86 65 -123v-55h-329q-29 53 -38 102.5t-9 153.5l4 158q0 94 -45 136t-146 42h-352v-592h-307zM221 1927h258l144 -315h-174zM471 848 h371q125 0 171 47t46 152q0 100 -47 145t-170 45h-371v-389zM627 1927h258l143 -315h-174z" />
<glyph unicode="&#x211;" horiz-adv-x="796" d="M-102 1540h258l143 -315h-174zM129 0v1106h287v-217q45 113 127 174t180 61q18 0 35 -2v-291q-51 8 -90 9q-252 0 -252 -252v-588h-287zM303 1540h258l144 -315h-175z" />
<glyph unicode="&#x214;" horiz-adv-x="1478" d="M156 504v989h307v-989q0 -266 284.5 -266t284.5 266v989h307v-989q0 -256 -162.5 -392.5t-429 -136.5t-429 136.5t-162.5 392.5zM221 1927h258l144 -315h-174zM627 1927h258l143 -315h-174z" />
<glyph unicode="&#x215;" horiz-adv-x="1251" d="M106 1540h259l143 -315h-174zM119 365v741h287v-682q0 -199 184 -199q104 0 167.5 59.5t63.5 157.5v664h287v-1106h-287v145q-123 -164 -332 -163q-176 0 -273 100.5t-97 282.5zM512 1540h258l143 -315h-174z" />
<glyph unicode="&#x218;" horiz-adv-x="1366" d="M66 469h299q0 -119 89 -183.5t246 -64.5q141 0 221 49t80 142q0 88 -61 131t-219 73l-209 41q-227 45 -323.5 136.5t-96.5 265.5q0 219 148.5 339t416.5 120q276 0 431 -123t155 -357h-287q0 113 -82.5 173.5t-230.5 60.5q-119 0 -188.5 -50.5t-69.5 -134.5 q0 -82 59.5 -121.5t223.5 -72.5l233 -45q209 -41 302 -133t93 -266q0 -225 -160.5 -349.5t-451.5 -124.5q-289 0 -453.5 128t-164.5 366zM535 -123h249v-211q0 -125 -70.5 -208t-178.5 -87v94q141 27 137 183h-137v229z" />
<glyph unicode="&#x219;" d="M59 350h281q18 -84 69.5 -113.5t155.5 -29.5q213 0 213 94q0 45 -96 76l-342 106q-145 45 -193.5 104.5t-48.5 168.5q0 170 122 269t333 99q223 0 350 -99t131 -275h-276q-2 150 -207 149q-76 0 -121 -27.5t-45 -74.5q0 -35 20.5 -52.5t79.5 -33.5l363 -105 q217 -63 217 -264v-14q0 -168 -125 -257t-358 -89q-511 -1 -523 368zM432 -123h250v-211q0 -125 -70.5 -208t-179.5 -87v94q141 27 137 183h-137v229z" />
<glyph unicode="&#x21a;" horiz-adv-x="1251" d="M29 1237v256h1196v-256h-437v-1237h-307v1237h-452zM489 -123h250v-211q0 -125 -70.5 -208t-179.5 -87v94q141 27 138 183h-138v229z" />
<glyph unicode="&#x21b;" horiz-adv-x="681" d="M29 893v190h141v297h287v-297h159v-190h-159v-578q0 -74 18.5 -97t75.5 -23q23 0 65 6v-201q-12 0 -70.5 -4t-94.5 -4q-143 0 -212 58.5t-69 187.5v655h-141zM205 -123h250v-211q0 -125 -71 -208t-179 -87v94q141 27 137 183h-137v229z" />
<glyph unicode="&#x258;" d="M45 512q0 287 137 449.5t381 162.5q240 0 376 -154.5t136 -430.5q0 -264 -134 -410.5t-372 -146.5q-190 0 -327.5 85t-184.5 244h283q35 -111 219 -110q109 0 166 61.5t63 214.5h-741zM344 668h440q-29 238 -217 237q-94 0 -153.5 -60t-69.5 -177z" />
<glyph unicode="&#x259;" d="M45 594l2 35h741q-6 154 -63 215t-166 61q-184 0 -219 -110h-283q47 160 184.5 244.5t327.5 84.5q238 0 372 -146.5t134 -410.5q0 -276 -136 -430.5t-376 -154.5q-244 0 -381 162.5t-137 449.5zM344 438q10 -117 69.5 -177t153.5 -60q188 0 217 237h-440z" />
<glyph unicode="&#x2be;" horiz-adv-x="944" d="M123 956q-4 18 16 19h183q12 0 16 -14q14 -66 42 -93.5t79 -27.5q139 0 139 217q0 98 -37 151.5t-102 53.5q-90 0 -121 -103q-4 -12 -16 -12h-183q-20 0 -16 18q14 127 105 205t231 78q174 0 268 -101.5t94 -289.5q0 -195 -95 -299.5t-269 -104.5q-145 0 -234.5 80 t-99.5 223z" />
<glyph unicode="&#x2bf;" horiz-adv-x="944" d="M123 1044q0 195 95 299.5t269 104.5q145 0 234.5 -80t99.5 -223q4 -18 -16 -19h-182q-12 0 -17 15q-14 66 -41.5 93.5t-79.5 27.5q-139 0 -139 -218q0 -98 37 -151t102 -53q90 0 121 102q4 12 17 12h182q20 0 16 -18q-14 -127 -105 -205t-231 -78q-174 0 -268 101.5 t-94 289.5z" />
<glyph unicode="&#x2c6;" horiz-adv-x="681" d="M-4 1225l221 315h260l211 -315h-180l-168 157l-168 -157h-176z" />
<glyph unicode="&#x2c7;" horiz-adv-x="681" d="M-4 1540h180l168 -158l168 158h176l-221 -315h-260z" />
<glyph unicode="&#x2d8;" horiz-adv-x="681" d="M0 1538h164q0 -63 49 -97t123 -34t123 34t49 97h164q0 -127 -102.5 -218t-233.5 -91t-233.5 91t-102.5 218z" />
<glyph unicode="&#x2d9;" horiz-adv-x="681" d="M199 1239v287h286v-287h-286z" />
<glyph unicode="&#x2da;" horiz-adv-x="681" d="M137 1382q0 84 59.5 143.5t147.5 59.5q84 0 142.5 -59.5t58.5 -145.5q0 -82 -60.5 -141t-142.5 -59q-86 0 -145.5 59t-59.5 143zM246 1382q0 -39 28.5 -66.5t69.5 -27.5q37 0 64.5 27.5t27.5 66.5t-26.5 67t-65.5 28q-41 0 -69.5 -28t-28.5 -67z" />
<glyph unicode="&#x2db;" horiz-adv-x="681" d="M154 -260q0 70 32.5 128t116.5 132h215q-92 -51 -131 -90t-39 -98q0 -98 107 -99h129v-184h-129q-135 0 -218 52.5t-83 158.5z" />
<glyph unicode="&#x2dc;" horiz-adv-x="681" d="M-18 1251q6 119 57 186.5t135 67.5q41 0 115 -26l145 -52q29 -12 70 -12q66 0 74 98h129q-12 -260 -195 -260q-49 0 -113 25l-145 53q-37 12 -61 12q-37 0 -55.5 -21.5t-26.5 -70.5h-129z" />
<glyph unicode="&#x2dd;" horiz-adv-x="681" d="M53 1225l144 315h258l-228 -315h-174zM459 1225l143 315h258l-227 -315h-174z" />
<glyph unicode="&#x300;" horiz-adv-x="0" d="M-930 1540h320l143 -315h-205z" />
<glyph unicode="&#x301;" horiz-adv-x="0" d="M-670 1225l144 315h319l-258 -315h-205z" />
<glyph unicode="&#x302;" horiz-adv-x="0" d="M-913 1225l221 315h260l211 -315h-180l-168 157l-168 -157h-176z" />
<glyph unicode="&#x303;" horiz-adv-x="0" d="M-928 1251q6 119 57.5 186.5t135.5 67.5q41 0 114 -26l146 -52q29 -12 69 -12q66 0 74 98h129q-12 -260 -194 -260q-49 0 -113 25l-145 53q-37 12 -62 12q-37 0 -55.5 -21.5t-26.5 -70.5h-129z" />
<glyph unicode="&#x304;" horiz-adv-x="0" d="M-877 1303v161h613v-161h-613z" />
<glyph unicode="&#x306;" horiz-adv-x="0" d="M-909 1538h164q0 -63 49 -97t122.5 -34t123 34t49.5 97h163q0 -127 -102 -218t-233.5 -91t-233.5 91t-102 218z" />
<glyph unicode="&#x307;" horiz-adv-x="0" d="M-711 1239v287h287v-287h-287z" />
<glyph unicode="&#x308;" horiz-adv-x="0" d="M-897 1266v235h258v-235h-258zM-498 1266v235h258v-235h-258z" />
<glyph unicode="&#x309;" horiz-adv-x="0" d="M-799 1419q0 213 228 213q102 0 167.5 -50t65.5 -128q0 -47 -23.5 -79t-89.5 -70q-39 -23 -49 -37.5t-10 -50.5h-127q0 55 20.5 89.5t75.5 71.5q37 27 48.5 39.5t11.5 32.5q0 33 -24.5 53.5t-63.5 20.5q-92 0 -93 -105h-137z" />
<glyph unicode="&#x30a;" horiz-adv-x="0" d="M-772 1382q0 84 59.5 143.5t147.5 59.5q84 0 142 -59.5t58 -145.5q0 -82 -60 -141t-142 -59q-86 0 -145.5 59t-59.5 143zM-664 1382q0 -39 29 -66.5t70 -27.5q37 0 64.5 27.5t27.5 66.5t-26.5 67t-65.5 28q-41 0 -70 -28t-29 -67z" />
<glyph unicode="&#x30b;" horiz-adv-x="0" d="M-856 1225l143 315h258l-227 -315h-174zM-451 1225l144 315h258l-227 -315h-175z" />
<glyph unicode="&#x30c;" horiz-adv-x="0" d="M-913 1540h180l168 -158l168 158h176l-221 -315h-260z" />
<glyph unicode="&#x30f;" horiz-adv-x="0" d="M-1087 1540h258l143 -315h-174zM-682 1540h258l143 -315h-174z" />
<glyph unicode="&#x311;" horiz-adv-x="0" d="M-909 1229q0 127 102 218t233.5 91t233.5 -91t102 -218h-163q0 63 -49.5 97t-123 34t-122.5 -34t-49 -97h-164z" />
<glyph unicode="&#x323;" horiz-adv-x="0" d="M-711 -133h287v-287h-287v287z" />
<glyph unicode="&#x326;" horiz-adv-x="0" d="M-692 -123h250v-211q0 -125 -71 -208t-179 -87v94q141 27 137 183h-137v229z" />
<glyph unicode="&#x32e;" horiz-adv-x="0" d="M-938 -152h145q16 -82 226 -81q211 0 223 81h145q-25 -250 -372 -249q-166 0 -265.5 61t-101.5 188z" />
<glyph unicode="&#x32f;" horiz-adv-x="0" d="M-938 -401q25 250 373 249q166 0 265 -61t101 -188h-145q-16 82 -225 82q-211 0 -224 -82h-145z" />
<glyph unicode="&#x330;" horiz-adv-x="0" d="M-928 -408q6 119 57.5 186.5t135.5 67.5q41 0 114 -26l146 -51q29 -12 69 -13q66 0 74 99h129q-12 -260 -194 -261q-49 0 -113 25l-145 53q-37 12 -62 13q-37 0 -55.5 -21.5t-26.5 -71.5h-129z" />
<glyph unicode="&#x331;" horiz-adv-x="0" d="M-877 -195h613v-161h-613v161z" />
<glyph unicode="&#x332;" horiz-adv-x="0" d="M-877 -195h613v-161h-613v161z" />
<glyph unicode="&#x391;" horiz-adv-x="1478" d="M53 0l531 1493h340l516 -1493h-316l-98 301h-559l-100 -301h-314zM553 557h389l-194 584z" />
<glyph unicode="&#x392;" horiz-adv-x="1478" d="M168 0v1493h666q225 0 356 -113.5t131 -279.5q0 -96 -47 -166t-158 -141q248 -145 248 -363q0 -193 -136 -311.5t-388 -118.5h-672zM475 256h367q227 0 227 193q0 195 -227 194h-367v-387zM475 899h334q217 0 217 168q0 170 -217 170h-334v-338z" />
<glyph unicode="&#x393;" horiz-adv-x="1251" d="M152 0v1493h1048v-256h-741v-1237h-307z" />
<glyph unicode="&#x394;" horiz-adv-x="1492" d="M-14 0l628 1448h265l628 -1448h-1521zM424 287h645l-321 743z" />
<glyph unicode="&#x395;" horiz-adv-x="1366" d="M162 0v1493h1079v-256h-772v-338h715v-256h-715v-387h809v-256h-1116z" />
<glyph unicode="&#x396;" horiz-adv-x="1251" d="M61 0v256l764 981h-764v256h1123v-256l-762 -981h762v-256h-1123z" />
<glyph unicode="&#x397;" horiz-adv-x="1478" d="M139 0v1493h307v-559h592v559h308v-1493h-308v678h-592v-678h-307z" />
<glyph unicode="&#x398;" horiz-adv-x="1593" d="M82 748q0 330 197.5 550t519.5 220q324 0 522.5 -219.5t198.5 -561.5q0 -332 -199 -547t-520 -215q-326 0 -522.5 216.5t-196.5 556.5zM389 748q0 -233 112.5 -371.5t299.5 -138.5q184 0 297.5 137t113.5 364q0 233 -111.5 374.5t-299.5 141.5q-184 0 -298 -140 t-114 -367zM535 604v287h532v-287h-532z" />
<glyph unicode="&#x399;" horiz-adv-x="569" d="M129 0v1493h307v-1493h-307z" />
<glyph unicode="&#x39a;" horiz-adv-x="1478" d="M152 0v1493h307v-655l583 655h363l-596 -643l659 -850h-366l-490 659l-153 -159v-500h-307z" />
<glyph unicode="&#x39b;" horiz-adv-x="1478" d="M53 0l531 1493h340l516 -1493h-316l-376 1141l-381 -1141h-314z" />
<glyph unicode="&#x39c;" horiz-adv-x="1705" d="M135 0v1493h459l270 -1188l262 1188h463v-1493h-307v1163l-264 -1163h-307l-269 1163v-1163h-307z" />
<glyph unicode="&#x39d;" horiz-adv-x="1478" d="M139 0v1493h316l592 -1016v1016h307v-1493h-307l-601 1032v-1032h-307z" />
<glyph unicode="&#x39e;" horiz-adv-x="1478" d="M154 0v307h1171v-307h-1171zM154 1186v307h1171v-307h-1171zM461 604v287h557v-287h-557z" />
<glyph unicode="&#x39f;" horiz-adv-x="1593" d="M82 748q0 330 197.5 550t519.5 220q324 0 522.5 -219.5t198.5 -561.5q0 -332 -199 -547t-520 -215q-326 0 -522.5 216.5t-196.5 556.5zM389 748q0 -233 112.5 -371.5t299.5 -138.5q184 0 297.5 137t113.5 364q0 233 -111.5 374.5t-299.5 141.5q-184 0 -298 -140 t-114 -367z" />
<glyph unicode="&#x3a0;" horiz-adv-x="1349" d="M72 0v1493h1206v-1493h-307v1237h-592v-1237h-307z" />
<glyph unicode="&#x3a1;" horiz-adv-x="1366" d="M156 0v1493h659q233 0 357 -119t124 -344q0 -227 -122.5 -362.5t-327.5 -135.5h-383v-532h-307zM463 788h287q240 0 239 224q0 115 -58.5 170t-180.5 55h-287v-449z" />
<glyph unicode="&#x3a3;" horiz-adv-x="1253" d="M72 0v276l469 472l-469 469v276h1110v-256h-768l489 -489l-489 -492h768v-256h-1110z" />
<glyph unicode="&#x3a4;" horiz-adv-x="1251" d="M29 1237v256h1196v-256h-437v-1237h-307v1237h-452z" />
<glyph unicode="&#x3a5;" horiz-adv-x="1366" d="M55 1493h342l305 -659l285 659h344l-473 -940v-553h-307v553z" />
<glyph unicode="&#x3a6;" horiz-adv-x="1558" d="M123 747.5q0 186.5 143.5 313.5t360.5 162v270h307v-270q217 -35 360.5 -162t143.5 -313.5t-143.5 -314.5t-360.5 -163v-270h-307v270q-217 35 -360.5 163t-143.5 314.5zM410 748q0 -86 59 -147.5t158 -88.5v469q-98 -27 -157.5 -87t-59.5 -146zM934 512 q98 27 157.5 88.5t59.5 147.5t-59.5 146t-157.5 87v-469z" />
<glyph unicode="&#x3a7;" horiz-adv-x="1366" d="M45 0l471 752l-455 741h365l262 -492l275 492h356l-461 -731l479 -762h-364l-287 518l-285 -518h-356z" />
<glyph unicode="&#x3a8;" horiz-adv-x="1523" d="M123 1106v387h287v-387q0 -125 53 -233.5t145 -161.5v782h307v-782q92 53 145.5 161.5t53.5 233.5v387h287v-387q0 -233 -136.5 -414.5t-349.5 -236.5v-455h-307v455q-213 55 -349 236.5t-136 414.5z" />
<glyph unicode="&#x3a9;" horiz-adv-x="1576" d="M72 0v256h290v131q-219 193 -219 485q0 266 189.5 456t456 190t456 -189.5t189.5 -456.5q0 -293 -220 -485v-131h291v-256h-598v506q100 43 159.5 143.5t59.5 222.5q0 158 -97 274t-240.5 116t-240.5 -116t-97 -274q0 -123 59 -223t160 -143v-506h-598z" />
<glyph unicode="&#x3b1;" horiz-adv-x="1589" d="M123 492q0 250 172 428t418 178q240 0 409 -236q41 201 117 318l227 -148q-61 -96 -111 -305t-61 -240q82 -274 172 -413l-227 -148q-53 80 -119 269q-176 -186 -407 -187q-238 0 -414 136.5t-176 347.5zM410 492q0 -109 90 -179.5t213 -70.5q102 0 184 70.5t129 181.5 q-25 80 -49.5 136t-61 114.5t-88 89t-114.5 30.5q-133 0 -218 -110t-85 -262z" />
<glyph unicode="&#x3b2;" horiz-adv-x="1394" d="M209 -471v1532q0 231 125 330q129 102 358 102q207 0 338 -104.5t131 -268.5q0 -209 -178 -278q94 -18 162 -82q104 -102 104 -277q0 -231 -121.5 -366t-324.5 -135q-162 0 -307 81v-534h-287zM496 350q78 -123 227 -123q106 0 173 63.5t67 172.5q0 117 -75 184.5 t-206 67.5h-27v194h19q92 2 146 51.5t54 131.5q0 80 -53 125t-147 45q-84 0 -131 -43t-47 -119v-750z" />
<glyph unicode="&#x3b3;" horiz-adv-x="1398" d="M123 1106h299l276 -715l277 715h299l-432 -1124v-453h-287v453z" />
<glyph unicode="&#x3b4;" horiz-adv-x="1245" d="M72 463q0 246 299 373q-145 141 -146 331q0 147 135.5 236.5t317.5 89.5q229 0 401 -154l-153 -172q-106 94 -248 95q-70 0 -118 -22.5t-48 -72.5q0 -70 51 -120t124 -76.5t149 -59.5q152 -63 245 -181t93 -267q0 -209 -162 -345t-389.5 -136t-389 136t-161.5 345z M379 463q0 -88 71.5 -141.5t172 -53.5t172 53.5t71.5 141.5q0 133 -141 182q-346 0 -346 -182z" />
<glyph unicode="&#x3b5;" horiz-adv-x="1150" d="M123 348q0 156 151 244q-133 76 -133 219q0 154 126 256t296 102q154 0 449 -82l-51 -184q-117 33 -398 33q-55 0 -95 -36t-40 -89q0 -43 28.5 -69.5t89 -37t104.5 -12.5t124 -2v-186q-80 0 -131 -4t-111.5 -18.5t-91 -47.5t-30.5 -86q0 -74 56 -126t134 -52 q276 0 381 27l47 -183q-299 -78 -428 -77q-195 0 -336 117.5t-141 293.5z" />
<glyph unicode="&#x3b6;" horiz-adv-x="1189" d="M123 553q0 223 106.5 413.5t292.5 317.5h-399v189h1005v-189h-194q-233 -55 -378.5 -263t-145.5 -468q0 -119 71.5 -206t180.5 -87h79q158 0 272.5 -102.5t114.5 -249.5q0 -145 -114.5 -242.5t-272.5 -97.5v209q45 0 73 39t28 92q0 49 -29 84t-72 35h-79 q-221 0 -380 153.5t-159 372.5z" />
<glyph unicode="&#x3b7;" horiz-adv-x="1251" d="M123 0v1106h287v-78q119 70 252 70q188 0 327 -100.5t139 -260.5v-1208h-286v1208q0 59 -53.5 93t-126.5 34q-164 0 -252 -133v-731h-287z" />
<glyph unicode="&#x3b8;" horiz-adv-x="1157" d="M123 684q0 156 24.5 292t75.5 254t142.5 186.5t212.5 68.5q123 0 214 -68.5t142 -186.5t75.5 -254t24.5 -292q0 -176 -49 -326.5t-155.5 -250t-251.5 -99.5q-213 0 -334 201t-121 475zM410 801h338q-2 98 -8.5 167.5t-24 139.5t-52 106.5t-85.5 36.5q-96 0 -130 -120.5 t-38 -329.5zM412 567q2 -96 13 -160.5t49 -114.5t104 -50q94 0 128.5 88t38.5 237h-333z" />
<glyph unicode="&#x3b9;" horiz-adv-x="894" d="M246 332v774h286v-774q0 -33 19.5 -52.5t61.5 -26.5t72 -9t87 -2v-234q-137 0 -253 32t-194.5 107.5t-78.5 184.5z" />
<glyph unicode="&#x3ba;" d="M121 0v1106h287v-430l362 430h326l-377 -418l403 -688h-336l-264 487l-114 -125v-362h-287z" />
<glyph unicode="&#x3bb;" horiz-adv-x="1550" d="M123 0l590 1004l-27 65q-33 80 -103.5 128t-156.5 48v209q178 0 324.5 -81t207.5 -230l472 -1143h-304l-282 686l-402 -686h-319z" />
<glyph unicode="&#x3bc;" horiz-adv-x="1497" d="M246 -471v1577h286v-700q31 -74 87.5 -119t130.5 -45q72 0 128 45t87 119v700h286v-1106h-286v66q-98 -57 -215 -58q-119 0 -218 58v-537h-286z" />
<glyph unicode="&#x3bd;" horiz-adv-x="1267" d="M61 1106h299l328 -830q109 82 170.5 203t61.5 258q0 184 -19 369h287q18 -184 18 -369q0 -262 -146.5 -480t-389.5 -318l-189 81z" />
<glyph unicode="&#x3be;" horiz-adv-x="1251" d="M123 487q0 209 196 334q-178 102 -178 283q0 104 66 180h-84v189h1005v-189h-485q-215 -37 -215 -180q0 -90 91 -130t222 -40v-209q-133 0 -232 -64.5t-99 -173.5q0 -96 74.5 -161.5t177.5 -65.5h79q158 0 272.5 -102.5t114.5 -249.5q0 -145 -114.5 -242.5t-272.5 -97.5 v209q45 0 73 39t28 92q0 49 -29 84t-72 35h-79q-219 0 -379 130.5t-160 329.5z" />
<glyph unicode="&#x3bf;" horiz-adv-x="1251" d="M72 553q0 270 145 420.5t399 150.5q262 0 405.5 -150.5t143.5 -428.5q0 -264 -146.5 -413.5t-400.5 -149.5q-256 0 -401 149.5t-145 421.5zM358 553q0 -158 71 -249t189 -91q117 0 189 91t72 245q0 162 -71 253t-189.5 91t-189.5 -91t-71 -249z" />
<glyph unicode="&#x3c0;" horiz-adv-x="1519" d="M72 655q0 256 116.5 353.5t395.5 97.5h864v-232h-205v-874h-287v874h-229v-874h-287v874q-82 0 -109.5 -53t-27.5 -166h-231z" />
<glyph unicode="&#x3c1;" horiz-adv-x="1372" d="M123 -471v1024q0 227 166 386t397.5 159t397 -159t165.5 -386t-165.5 -386t-397.5 -159q-145 0 -276 68v-547h-287zM410 340q117 -98 276 -98q117 0 197 92t80 219t-80 219t-197 92t-196.5 -92t-79.5 -219v-213z" />
<glyph unicode="&#x3c2;" horiz-adv-x="1251" d="M123 563q0 221 157.5 378t381.5 157q156 0 280.5 -90t165.5 -238l-246 -70q-20 72 -74.5 118t-125.5 46q-109 0 -180.5 -89t-71.5 -212t71.5 -213t180.5 -90h79q158 0 272.5 -102.5t114.5 -249.5q0 -145 -114.5 -242.5t-272.5 -97.5v209q45 0 73 39t28 92q0 49 -29 84 t-72 35h-79q-223 0 -381 156.5t-158 379.5z" />
<glyph unicode="&#x3c3;" horiz-adv-x="1433" d="M123 553q0 270 145.5 420.5t399.5 150.5q109 0 204 -28q180 37 398 139l102 -221q-111 -51 -260 -86q104 -145 105 -383q0 -264 -146.5 -413.5t-400.5 -149.5q-256 0 -401.5 149.5t-145.5 421.5zM410 553q0 -158 70.5 -249t189.5 -91q117 0 188.5 91t71.5 245 q0 162 -71 253t-189.5 91t-189 -91t-70.5 -249z" />
<glyph unicode="&#x3c4;" horiz-adv-x="985" d="M123 846v233h715v-233h-215v-514q0 -33 19.5 -52.5t61 -26.5t71.5 -9t87 -2v-234q-137 0 -252.5 32t-194.5 107.5t-79 184.5v514h-213z" />
<glyph unicode="&#x3c5;" horiz-adv-x="1251" d="M123 369v737h287v-737q0 -61 58 -94t140 -33q100 0 167 79.5t67 190.5q0 299 -37 594h287q37 -295 36 -594q0 -209 -152.5 -356.5t-367.5 -147.5q-197 0 -341 99.5t-144 261.5z" />
<glyph unicode="&#x3c6;" horiz-adv-x="1839" d="M123 553q0 186 125 332.5t317 197.5l56 -204q-98 -29 -154.5 -120t-56.5 -206q0 -127 102 -203t264 -98v260q0 238 132 412t339 174q201 0 335 -162t134 -383q0 -152 -93 -269.5t-237.5 -182t-322.5 -85.5v-487h-287v487q-178 20 -322.5 85t-237.5 182.5t-93 269.5z M1063 252q162 23 264.5 98.5t102.5 202.5q0 129 -45.5 220t-137.5 91q-184 0 -184 -352v-260z" />
<glyph unicode="&#x3c7;" horiz-adv-x="1411" d="M123 -471l426 788l-426 789h311l271 -498l270 498h311l-426 -789l426 -788h-311l-270 498l-271 -498h-311z" />
<glyph unicode="&#x3c8;" horiz-adv-x="1593" d="M123 369v737h287v-737q0 -113 243 -125v1249h287v-1249q244 12 244 125v737h286v-737q0 -166 -148 -251t-382 -104v-485h-287v485q-233 18 -381.5 103.5t-148.5 251.5z" />
<glyph unicode="&#x3c9;" horiz-adv-x="1615" d="M123 616q0 264 209 490h252q-174 -188 -174 -490q0 -88 2 -135t13 -112.5t39 -96t73 -30.5q129 0 157 184q-29 137 -28 311h286q0 -90 1 -138t7.5 -128t18.5 -121t37.5 -74.5t62.5 -33.5q45 0 73 30.5t39 96t13 112.5t2 135q0 301 -174 490h252q209 -225 209 -490 q0 -158 -45 -294t-141.5 -225t-227.5 -89q-174 0 -280 154q-98 -154 -262 -154q-131 0 -227.5 89t-141.5 225t-45 294z" />
<glyph unicode="&#x3d1;" horiz-adv-x="1374" d="M123 369v368h287v-368q0 -100 217 -101q215 0 215 101v430q-147 10 -259 30.5t-210.5 63.5t-150.5 117.5t-52 179.5q0 170 135 283.5t322 113.5q207 0 354 -140t147 -341v-127h123v-188l-123 2v-424q0 -172 -149.5 -279.5t-351.5 -107.5q-205 0 -354.5 107.5 t-149.5 279.5zM399 1190q0 -172 443 -203v119q0 119 -59.5 206t-155.5 87q-94 0 -161 -60.5t-67 -148.5z" />
<glyph unicode="&#x3d5;" horiz-adv-x="1495" d="M123 553q0 205 137 358.5t344 198.5v383h287v-383q207 -45 344 -198.5t137 -358.5t-137 -358.5t-344 -198.5v-467h-287v467q-207 45 -344 198.5t-137 358.5zM410 553q0 -88 53 -156.5t141 -101.5v516q-88 -33 -141 -101.5t-53 -156.5zM891 295q88 33 141 101.5t53 156.5 t-53 156.5t-141 101.5v-516z" />
<glyph unicode="&#x3d6;" horiz-adv-x="1615" d="M123 616q0 264 209 490h252q-174 -188 -174 -490q0 -88 2 -135t13 -112.5t39 -96t73 -30.5q129 0 157 184q-29 137 -28 311h286q0 -90 1 -138t7.5 -128t18.5 -121t37.5 -74.5t62.5 -33.5q45 0 73 30.5t39 96t13 112.5t2 135q0 100 -4 178t-14 170.5t-34 158t-58.5 123 t-90 87t-128.5 29.5q-250 0 -482 -137l-88 149q252 150 570 150q147 0 267 -77t194.5 -207t114.5 -289.5t40 -334.5q0 -158 -45 -294t-141.5 -225t-227.5 -89q-174 0 -280 154q-98 -154 -262 -154q-131 0 -227.5 89t-141.5 225t-45 294z" />
<glyph unicode="&#x3f5;" d="M70 545q0 281 136 430t386 149q168 0 285.5 -76.5t164.5 -218.5h-303q-49 63 -149 64q-193 0 -228 -236h398v-208h-398q18 -115 77 -175.5t151 -60.5q100 0 151 63h303q-49 -135 -169.5 -214.5t-286.5 -79.5q-248 0 -383 145.5t-135 417.5z" />
<glyph unicode="&#x400;" horiz-adv-x="1452" d="M168 0v1493h1079v-256h-772v-338h715v-256h-715v-387h809v-256h-1116zM377 1948h258l143 -308h-143z" />
<glyph unicode="&#x401;" horiz-adv-x="1452" d="M168 0v1493h1079v-256h-772v-338h715v-256h-715v-387h809v-256h-1116zM410 1638v250h225v-250h-225zM791 1638v250h225v-250h-225z" />
<glyph unicode="&#x402;" horiz-adv-x="1574" d="M29 1237v256h1032v-256h-354v-205h260q225 0 366.5 -129t141.5 -325v-476q0 -197 -141.5 -325.5t-366.5 -128.5h-76v256h51q94 0 159.5 56t65.5 155v450q0 98 -65.5 154.5t-159.5 56.5h-235v-776h-308v1237h-370z" />
<glyph unicode="&#x403;" horiz-adv-x="1251" d="M168 0v1493h1049v-256h-742v-1237h-307zM621 1640l143 308h258l-258 -308h-143z" />
<glyph unicode="&#x404;" horiz-adv-x="1478" d="M90 733q0 362 184.5 573.5t499.5 211.5q344 0 522 -236q86 -115 101 -295h-293q-25 106 -68 160q-86 109 -252 108q-150 0 -250 -95t-131 -267h596v-256h-598q18 -203 115.5 -314.5t257.5 -111.5q143 0 229.5 78t100.5 221h299q-14 -256 -186.5 -406.5t-450.5 -150.5 q-311 0 -493.5 210t-182.5 570z" />
<glyph unicode="&#x405;" horiz-adv-x="1366" d="M66 446h299q8 -121 94 -184t241 -63q139 0 220 53t81 147q0 90 -63.5 139.5t-216.5 77.5l-209 41q-227 43 -323.5 135.5t-96.5 266.5q0 219 148.5 339t416.5 120q328 0 482 -170q104 -117 104 -310h-287q-16 233 -313 234q-119 0 -188.5 -50.5t-69.5 -134.5 q0 -82 59.5 -121.5t223.5 -72.5l233 -45q207 -41 301 -138.5t94 -273.5q0 -227 -161.5 -355t-450.5 -128q-287 0 -445.5 126.5t-172.5 366.5z" />
<glyph unicode="&#x406;" horiz-adv-x="569" d="M129 0v1493h307v-1493h-307z" />
<glyph unicode="&#x407;" horiz-adv-x="569" d="M-18 1638v250h225v-250h-225zM129 0v1493h307v-1493h-307zM362 1638v250h226v-250h-226z" />
<glyph unicode="&#x408;" d="M49 406v147h307v-143q0 -102 39 -148.5t127 -46.5q80 0 123 45t43 129v1104h307v-1104q0 -209 -125 -322.5t-354 -113.5q-211 0 -342 119q-125 117 -125 334z" />
<glyph unicode="&#x409;" horiz-adv-x="2265" d="M94 0v297q104 -2 143 154.5t39 492.5v549h1070v-532h383q205 0 327.5 -135.5t122.5 -362.5q0 -225 -124 -344t-357 -119h-660v1237h-454v-389q0 -125 -8.5 -229.5t-39 -224.5t-82 -201.5t-143.5 -137t-217 -55.5zM1346 256h286q123 0 181.5 55.5t58.5 169.5 q0 223 -240 224h-286v-449z" />
<glyph unicode="&#x40a;" horiz-adv-x="2279" d="M139 0v1493h307v-537h590v537h310v-532h383q205 0 327.5 -135.5t122.5 -362.5q0 -225 -124 -344t-357 -119h-660v700h-592v-700h-307zM1346 256h286q123 0 181.5 55.5t58.5 169.5q0 223 -240 224h-286v-449z" />
<glyph unicode="&#x40b;" horiz-adv-x="1574" d="M29 1237v256h1032v-256h-354l-2 -205h262q225 0 366.5 -129t141.5 -325v-578h-308v565q0 98 -65.5 154.5t-159.5 56.5h-235v-776h-308v1237h-370z" />
<glyph unicode="&#x40c;" horiz-adv-x="1536" d="M168 0v1493h307v-571l584 571h362l-749 -719l813 -774h-410l-600 584v-584h-307zM723 1640l143 308h258l-258 -308h-143z" />
<glyph unicode="&#x40d;" horiz-adv-x="1550" d="M168 0v1493h307v-1016l592 1016h315v-1493h-307v1032l-600 -1032h-307zM446 1948h259l143 -308h-143z" />
<glyph unicode="&#x40e;" horiz-adv-x="1470" d="M31 1493h334l352 -707l352 707h356l-753 -1493h-357l234 463zM459 1913v20h114q18 -135 156 -135q133 0 156 135h114v-22q0 -115 -77.5 -193t-192.5 -78q-117 0 -193.5 78t-76.5 195z" />
<glyph unicode="&#x40f;" horiz-adv-x="1478" d="M139 0v1493h307v-1237h594v1237h308v-1493h-471v-307h-267v307h-471z" />
<glyph unicode="&#x410;" horiz-adv-x="1478" d="M53 0l531 1493h340l516 -1493h-310l-102 301h-561l-100 -301h-314zM553 557h389l-194 584z" />
<glyph unicode="&#x411;" horiz-adv-x="1478" d="M168 0v1493h1049v-256h-742v-289h334q162 0 277.5 -45t173 -120.5t81 -153.5t23.5 -166q0 -92 -41 -195.5t-106 -158.5q-129 -109 -377 -109h-672zM475 256h367q109 0 168 60.5t59 156.5q0 98 -59.5 158.5t-167.5 60.5h-367v-436z" />
<glyph unicode="&#x412;" horiz-adv-x="1478" d="M168 0v1493h666q225 0 352 -109q135 -119 135 -284q0 -100 -53.5 -183t-151.5 -124q119 -35 183.5 -138.5t64.5 -224.5q0 -90 -40 -177t-107 -144q-129 -109 -377 -109h-672zM475 256h367q227 0 227 193q0 195 -227 194h-367v-387zM475 899h334q217 0 217 168 q0 170 -217 170h-334v-338z" />
<glyph unicode="&#x413;" horiz-adv-x="1251" d="M168 0v1493h1049v-256h-742v-1237h-307z" />
<glyph unicode="&#x414;" horiz-adv-x="1843" d="M72 221h213q82 0 134 204t52 519v549h1065v-1272h236v-528h-267v307h-1167v-307h-266v528zM682 256h547v981h-451v-389q0 -389 -96 -592z" />
<glyph unicode="&#x415;" horiz-adv-x="1452" d="M168 0v1493h1079v-256h-772v-338h715v-256h-715v-387h809v-256h-1116z" />
<glyph unicode="&#x416;" horiz-adv-x="2238" d="M45 0l731 774l-641 719h336l502 -571v571h307v-571l502 571h336l-641 -719l731 -774h-377l-551 584v-584h-307v584l-551 -584h-377z" />
<glyph unicode="&#x417;" horiz-adv-x="1376" d="M66 446h299q8 -121 94 -184t241 -63q139 0 220 53t81 147q0 100 -67.5 166t-212.5 66h-209v246h156q283 0 282 210q0 84 -69.5 134.5t-188.5 50.5q-297 0 -313 -234h-287q0 193 105 310q154 170 481 170q268 0 416.5 -120t148.5 -339q0 -190 -129 -287q182 -100 182 -336 q0 -227 -161.5 -355t-450.5 -128q-287 0 -445.5 126.5t-172.5 366.5z" />
<glyph unicode="&#x418;" horiz-adv-x="1550" d="M168 0v1493h307v-1016l592 1016h315v-1493h-307v1032l-600 -1032h-307z" />
<glyph unicode="&#x419;" horiz-adv-x="1550" d="M168 0v1493h307v-1016l592 1016h315v-1493h-307v1032l-600 -1032h-307zM498 1878v20h114q18 -135 158 -135q68 0 103.5 32t50.5 103h114v-22q0 -115 -77.5 -192.5t-192.5 -77.5t-192.5 77.5t-77.5 194.5z" />
<glyph unicode="&#x41a;" horiz-adv-x="1536" d="M168 0v1493h307v-571l584 571h362l-749 -719l813 -774h-410l-600 584v-584h-307z" />
<glyph unicode="&#x41b;" horiz-adv-x="1492" d="M74 -25v297q104 -2 143 145.5t39 497.5v578h1069v-1493h-307v1237h-455v-418q0 -102 -6 -189t-23.5 -189.5t-52.5 -180.5t-87 -145.5t-134 -103.5t-186 -36z" />
<glyph unicode="&#x41c;" horiz-adv-x="1789" d="M168 0v1493h459l270 -1188l262 1188h463v-1493h-307v1163l-264 -1163h-308l-268 1163v-1163h-307z" />
<glyph unicode="&#x41d;" horiz-adv-x="1542" d="M168 0v1493h307v-559h590v559h309v-1493h-307v678h-592v-678h-307z" />
<glyph unicode="&#x41e;" horiz-adv-x="1593" d="M82 735q0 350 209 576q190 207 508 207q319 0 512 -207q209 -225 209 -586q0 -158 -56.5 -310.5t-152.5 -254.5q-193 -207 -510.5 -207t-509.5 207q-100 106 -154.5 256.5t-54.5 318.5zM389 735.5q0 -235.5 112.5 -378t299.5 -142.5q184 0 297.5 141.5t113.5 370.5 q0 242 -111.5 385t-299.5 143q-186 0 -299 -142t-113 -377.5z" />
<glyph unicode="&#x41f;" horiz-adv-x="1542" d="M168 0v1493h1206v-1493h-307v1237h-592v-1237h-307z" />
<glyph unicode="&#x420;" horiz-adv-x="1374" d="M168 0v1493h659q233 0 357.5 -119t124.5 -344q0 -227 -123 -362.5t-328 -135.5h-383v-532h-307zM475 788h287q240 0 239 224q0 115 -58 170t-181 55h-287v-449z" />
<glyph unicode="&#x421;" horiz-adv-x="1478" d="M90 733q0 362 184.5 573.5t499.5 211.5q344 0 522 -236q86 -115 101 -295h-293q-25 106 -68 160q-86 109 -252 108q-182 0 -284.5 -139t-102.5 -387q0 -244 99.5 -381t277.5 -137q143 0 229.5 78t100.5 221h299q-14 -256 -186.5 -406.5t-450.5 -150.5q-311 0 -493.5 210 t-182.5 570z" />
<glyph unicode="&#x422;" horiz-adv-x="1251" d="M29 1237v256h1196v-256h-437v-1237h-307v1237h-452z" />
<glyph unicode="&#x423;" horiz-adv-x="1470" d="M31 1493h334l352 -707l352 707h356l-753 -1493h-357l234 463z" />
<glyph unicode="&#x424;" horiz-adv-x="1826" d="M61 766q0 102 22.5 186t61.5 138.5t89.5 96.5t107.5 62.5t116.5 35.5t115 16.5t103.5 5.5t83 0v186h307v-186q35 4 83 0t103.5 -5.5t114.5 -16.5t116.5 -35.5t107.5 -62.5t89 -96.5t61.5 -138.5t22.5 -186q0 -127 -31.5 -226.5t-84 -157.5t-118 -101t-134 -57.5t-134 -26 t-115.5 -6t-81 1.5v-193h-307v193q-31 4 -81 -1.5t-115.5 6t-134.5 26t-134.5 57.5t-117.5 101t-84 157.5t-32 226.5zM336 758q0 -98 22.5 -170t59.5 -109t83 -61.5t93 -27.5l91 -6q44 -3 75 1v721q-20 -2 -46 0t-55.5 -2t-60.5 -7t-62.5 -15.5t-61.5 -28t-54.5 -43 t-44 -61.5t-29.5 -83t-10 -108zM1067 385q31 -4 75 -1l91 6q47 3 93 27.5t83 61.5t59.5 108.5t22.5 170.5q0 59 -10.5 108t-29.5 83t-44 61.5t-54.5 43t-61 28t-62.5 15.5t-60.5 7t-55.5 2t-46 0v-721z" />
<glyph unicode="&#x425;" horiz-adv-x="1366" d="M45 0l471 752l-455 741h365l270 -463l267 463h356l-440 -731l460 -762h-350l-297 494l-291 -494h-356z" />
<glyph unicode="&#x426;" horiz-adv-x="1671" d="M168 0v1493h307v-1237h592v1237h307v-1272h225v-528h-266v307h-1165z" />
<glyph unicode="&#x427;" horiz-adv-x="1402" d="M139 915v578h307v-565q0 -98 66 -154.5t160 -56.5h297v776h309v-1493h-307v461h-324q-225 0 -366.5 128.5t-141.5 325.5z" />
<glyph unicode="&#x428;" horiz-adv-x="2164" d="M139 0v1493h307v-1237h449v1237h307v-1237h471v1237h307v-1493h-1841z" />
<glyph unicode="&#x429;" horiz-adv-x="2422" d="M139 0v1493h307v-1237h469v1237h308v-1237h471v1237h307v-1272h246v-528h-277v307h-1831z" />
<glyph unicode="&#x42a;" horiz-adv-x="1705" d="M29 1237v256h778v-532h383q205 0 327.5 -135.5t122.5 -362.5q0 -225 -123.5 -344t-357.5 -119h-659v1237h-471zM807 256h287q123 0 181 55.5t58 169.5q0 223 -239 224h-287v-449z" />
<glyph unicode="&#x42b;" horiz-adv-x="1943" d="M139 0v1493h307v-532h383q205 0 328 -135.5t123 -362.5q0 -225 -124 -344t-357 -119h-660zM446 256h287q123 0 181.5 55.5t58.5 169.5q0 223 -240 224h-287v-449zM1503 0v1493h307v-1493h-307z" />
<glyph unicode="&#x42c;" horiz-adv-x="1406" d="M156 0v1493h307v-532h383q205 0 327.5 -135.5t122.5 -362.5q0 -225 -123.5 -344t-357.5 -119h-659zM463 256h287q123 0 181 55.5t58 169.5q0 223 -239 224h-287v-449z" />
<glyph unicode="&#x42d;" horiz-adv-x="1478" d="M90 510h299q14 -143 100 -221t230 -78q160 0 257 111.5t116 314.5h-598v256h596q-31 172 -131.5 267t-249.5 95q-166 0 -252 -108q-43 -53 -68 -160h-293q14 180 101 295q178 236 522 236q315 0 499.5 -211t184.5 -574q0 -360 -182.5 -570t-493.5 -210q-279 0 -451 150.5 t-186 406.5z" />
<glyph unicode="&#x42e;" horiz-adv-x="2250" d="M139 0v1493h307v-600h285q41 250 197 418q190 207 487 207q160 0 275.5 -50.5t216.5 -156.5q209 -225 209 -586q0 -158 -56.5 -310.5t-152.5 -254.5q-193 -207 -490 -207t-489 207q-174 186 -203 477h-279v-637h-307zM1026 735.5q0 -237.5 103.5 -379t287.5 -141.5 q182 0 286.5 140.5t104.5 371.5q0 246 -102 387t-289 141q-184 0 -287.5 -141t-103.5 -378.5z" />
<glyph unicode="&#x42f;" horiz-adv-x="1429" d="M45 0l451 543q-145 29 -242.5 156.5t-97.5 330.5q0 225 123.5 344t357.5 119h659v-1493h-307v532h-125l-452 -532h-367zM463 1012q0 -223 239 -224h287v449h-287q-123 0 -181 -55t-58 -170z" />
<glyph unicode="&#x430;" d="M57 285q0 289 326 348l115 20q150 27 180 43q49 27 49 86q0 111 -166 111q-106 0 -149 -33t-54 -119h-276q27 383 473 383q453 0 453 -340v-614q0 -76 65 -135v-35h-311q-33 41 -33 111q-152 -158 -336 -158q-158 0 -258 104q-78 85 -78 228zM344 317q0 -61 42 -97 t114 -36q109 0 168 67.5t59 192.5v78q-39 -18 -121 -35l-98 -18q-86 -16 -125 -52.5t-39 -99.5z" />
<glyph unicode="&#x431;" horiz-adv-x="1241" d="M102 598q0 98 4.5 173t21.5 170t47 168t84 144.5t130 118.5q121 76 402 111q43 6 69.5 32.5t32.5 49.5l4 24l213 2q0 -57 -2 -87.5t-18.5 -74t-47.5 -65.5q-88 -63 -267 -82.5t-257 -69.5q-170 -104 -172 -266q88 178 346 178q100 0 194.5 -48t151.5 -130 q119 -172 119 -407q0 -260 -139 -423t-393 -163q-262 0 -392.5 144.5t-130.5 500.5zM387 543q0 -158 66.5 -254t175.5 -96q106 0 173.5 96t67.5 248q0 154 -67.5 251t-174 97t-174 -95t-67.5 -247z" />
<glyph unicode="&#x432;" horiz-adv-x="1171" d="M123 0v1106h545q170 0 262 -80q100 -86 100 -211q0 -74 -42 -141.5t-109 -87.5q88 -27 135 -103.5t47 -165.5q0 -68 -30 -132t-79 -105q-94 -80 -278 -80h-551zM410 225h204q86 0 124 28t38 95.5t-35.5 88t-126.5 20.5h-204v-232zM410 682h192q82 0 117 19.5t35 76.5 q0 59 -35 81t-117 22h-192v-199z" />
<glyph unicode="&#x433;" horiz-adv-x="929" d="M123 0v1106h713v-232h-426v-874h-287z" />
<glyph unicode="&#x434;" horiz-adv-x="1402" d="M47 207h127q72 0 115 180t43 408v311h856v-899h168v-463h-226v256h-858v-256h-225v463zM539 231h362v643h-283v-104q1 -359 -79 -539z" />
<glyph unicode="&#x435;" d="M45 524q0 279 137 439.5t375 160.5q168 0 294 -85t181 -236q43 -125 43 -291q0 -25 -2 -49h-741q6 -139 41 -195q63 -96 188 -96q164 0 219 139h283q-47 -164 -186.5 -261t-325.5 -97q-236 0 -371 152.5t-135 418.5zM336 653h440q-8 102 -45 160q-66 92 -178 92 q-188 0 -217 -252z" />
<glyph unicode="&#x436;" horiz-adv-x="1656" d="M33 0l436 606l-363 500h304l270 -387v387h287v-387l270 387h303l-362 -500l436 -606h-367l-280 406v-406h-287v406l-281 -406h-366z" />
<glyph unicode="&#x437;" horiz-adv-x="1118" d="M59 322h281q16 -76 55 -105q59 -39 170 -39q100 0 156.5 29t56.5 80q0 27 -3 42t-16.5 42.5t-51 41t-97.5 13.5h-188v225h192q41 0 70 11.5t41 28t18.5 35.5t4 37.5t0.5 33.5q0 47 -45.5 74.5t-120.5 27.5q-205 0 -207 -149h-277q4 176 131 275t351 99q211 0 332.5 -99 t121.5 -269q0 -113 -61 -181q-4 -4 -15.5 -11t-13.5 -9q121 -76 121 -227q0 -172 -131 -277q-123 -98 -352 -98q-511 0 -523 369z" />
<glyph unicode="&#x438;" horiz-adv-x="1259" d="M123 0v1106h287v-692l399 692h328v-1106h-287v692l-399 -692h-328z" />
<glyph unicode="&#x439;" horiz-adv-x="1259" d="M123 0v1106h287v-692l399 692h328v-1106h-287v692l-399 -692h-328zM360 1460v21h115q18 -135 158 -135q131 0 153 135h115v-23q0 -115 -78 -192.5t-192.5 -77.5t-192.5 77.5t-78 194.5z" />
<glyph unicode="&#x43a;" horiz-adv-x="1173" d="M123 0v1106h287v-387l331 387h303l-438 -500l518 -606h-372l-342 406v-406h-287z" />
<glyph unicode="&#x43b;" horiz-adv-x="1181" d="M59 -20v276q43 0 73 29.5t46.5 70.5t24.5 119t9 136.5t1 162.5v332h846v-1106h-287v874h-272v-124q0 -408 -104 -589t-337 -181z" />
<glyph unicode="&#x43c;" horiz-adv-x="1363" d="M123 0v1106h358l201 -670l201 670h358v-1106h-287v608l-198 -608h-148l-198 608v-608h-287z" />
<glyph unicode="&#x43d;" horiz-adv-x="1234" d="M123 0v1106h287v-451h415v451h287v-1106h-287v424h-415v-424h-287z" />
<glyph unicode="&#x43e;" horiz-adv-x="1251" d="M72 538.5q0 272.5 145 429t399 156.5q260 0 404.5 -156.5t144.5 -437.5q0 -266 -147.5 -421.5t-399.5 -155.5q-256 0 -401 156.5t-145 429zM358 538.5q0 -157.5 72 -256t188 -98.5q115 0 188 97.5t73 253.5q0 164 -71 261t-190 97q-117 0 -188.5 -98.5t-71.5 -256z" />
<glyph unicode="&#x43f;" horiz-adv-x="1234" d="M123 0v1106h989v-1106h-287v874h-415v-874h-287z" />
<glyph unicode="&#x440;" horiz-adv-x="1251" d="M119 -446v1552h287v-164q102 182 307 182q100 0 194 -48t150 -126q119 -166 119 -413q0 -252 -132.5 -419t-330.5 -167q-205 0 -307 180v-577h-287zM406 536.5q0 -155.5 66.5 -251t174.5 -95.5q106 0 174 96.5t68 245.5q0 158 -66.5 255.5t-175 97.5t-175 -96.5 t-66.5 -252z" />
<glyph unicode="&#x441;" d="M70 530q0 283 137 438.5t385 155.5q207 0 335 -114.5t142 -317.5h-274q-25 109 -71 155t-134 46q-127 0 -178 -94q-55 -104 -56 -269q0 -162 62.5 -254t171.5 -92q84 0 131 46t74 153h274q-20 -199 -150.5 -314.5t-330.5 -115.5q-246 0 -382 151.5t-136 425.5z" />
<glyph unicode="&#x442;" horiz-adv-x="929" d="M43 874v232h840v-232h-277v-874h-287v874h-276z" />
<glyph unicode="&#x443;" d="M18 1106h316l244 -805l229 805h295l-445 -1309q-33 -98 -70.5 -141t-101.5 -70q-84 -35 -206 -35q-45 0 -103 9v215q45 -12 76 -13q76 0 125 52.5t49 130.5v8v2z" />
<glyph unicode="&#x444;" horiz-adv-x="1959" d="M57 537q0 248 119 413q55 78 149.5 126t194.5 48q205 0 307 -182v531h287v-531q102 182 307 182q100 0 194.5 -48t149.5 -126q119 -166 119 -413q0 -252 -132 -419t-331 -167q-205 0 -307 180v-577h-287v577q-102 -180 -307 -180q-199 0 -331 167t-132 419zM344 532 q0 -150 67.5 -246t174.5 -96q109 0 175 95.5t66 251t-66.5 252t-175 96.5t-175 -97.5t-66.5 -255.5zM1114 536.5q0 -155.5 66.5 -251t175.5 -95.5q106 0 173.5 96.5t67.5 245.5q0 158 -66.5 255.5t-175 97.5t-175 -96.5t-66.5 -252z" />
<glyph unicode="&#x445;" d="M33 0l368 557l-360 549h344l180 -334l178 334h344l-360 -549l369 -557h-344l-187 344l-188 -344h-344z" />
<glyph unicode="&#x446;" horiz-adv-x="1335" d="M123 0v1106h287v-875h415v875h287v-899h176v-463h-225v256h-940z" />
<glyph unicode="&#x447;" horiz-adv-x="1183" d="M123 707v399h287v-397q0 -72 43 -108t116 -36h205v541h287v-1106h-287v334h-201q-188 0 -319 91.5t-131 281.5z" />
<glyph unicode="&#x448;" horiz-adv-x="1814" d="M123 0v1106h287v-875h350v875h287v-875h358v875h287v-1106h-1569z" />
<glyph unicode="&#x449;" horiz-adv-x="1982" d="M123 0v1106h287v-875h350v875h287v-875h356v875h287v-899h245v-463h-225v256h-1587z" />
<glyph unicode="&#x44a;" horiz-adv-x="1419" d="M41 874v232h637v-371h303q174 0 275.5 -109.5t101.5 -281.5q0 -70 -30 -147.5t-79 -116.5q-94 -80 -278 -80h-580v874h-350zM678 225h223q172 0 172 144q0 70 -49 105.5t-133 35.5h-213v-285z" />
<glyph unicode="&#x44b;" horiz-adv-x="1660" d="M123 0v1106h287v-371h241q217 0 328 -106.5t111 -284.5q0 -70 -30 -147.5t-79 -116.5q-94 -80 -279 -80h-579zM410 225h223q172 0 172 144q0 70 -48 105.5t-134 35.5h-213v-285zM1184 0v1106h286v-1106h-286z" />
<glyph unicode="&#x44c;" horiz-adv-x="1150" d="M123 0v1106h287v-371h276q403 0 404 -362q0 -168 -97.5 -270.5t-290.5 -102.5h-579zM410 225h223q172 0 172 144q0 70 -48 105.5t-134 35.5h-213v-285z" />
<glyph unicode="&#x44d;" horiz-adv-x="1155" d="M70 383h274q27 -106 74 -152.5t131 -46.5q88 0 147.5 62.5t77.5 177.5h-358v231h356q-16 90 -45 144q-51 94 -178 94q-88 0 -134 -46t-71 -155h-274q14 203 142 317.5t335 114.5q248 0 385 -155.5t137 -438.5q0 -274 -136 -425.5t-382 -151.5q-201 0 -331 115.5 t-150 314.5z" />
<glyph unicode="&#x44e;" horiz-adv-x="1818" d="M123 0v1106h287v-451h168q31 223 162.5 346t353.5 123q258 0 393 -154.5t135 -439.5q0 -268 -138 -422.5t-388 -154.5q-223 0 -356.5 123t-161.5 348h-168v-424h-287zM856 538.5q0 -161.5 62.5 -258t177.5 -96.5q113 0 176 96.5t63 254.5q0 166 -61.5 262t-177.5 96 q-115 0 -177.5 -96.5t-62.5 -258z" />
<glyph unicode="&#x44f;" horiz-adv-x="1220" d="M51 0l318 446q-125 35 -195 129.5t-70 212.5q0 68 30 132.5t79 105.5q94 80 279 80h595v-1106h-286v424h-90l-293 -424h-367zM389 761.5q0 -67.5 37 -90t125 -22.5h250v232h-250q-86 0 -124 -26t-38 -93.5z" />
<glyph unicode="&#x450;" d="M45 524q0 279 137 439.5t375 160.5q168 0 294 -85t181 -236q43 -125 43 -291q0 -25 -2 -49h-741q6 -139 41 -195q63 -96 188 -96q164 0 219 139h283q-47 -164 -186.5 -261t-325.5 -97q-236 0 -371 152.5t-135 418.5zM227 1554h258l144 -307h-144zM336 653h440 q-8 102 -45 160q-66 92 -178 92q-188 0 -217 -252z" />
<glyph unicode="&#x451;" d="M45 524q0 279 137 439.5t375 160.5q168 0 294 -85t181 -236q43 -125 43 -291q0 -25 -2 -49h-741q6 -139 41 -195q63 -96 188 -96q164 0 219 139h283q-47 -164 -186.5 -261t-325.5 -97q-236 0 -371 152.5t-135 418.5zM270 1272v250h226v-250h-226zM336 653h440 q-8 102 -45 160q-66 92 -178 92q-188 0 -217 -252zM651 1272v250h226v-250h-226z" />
<glyph unicode="&#x452;" horiz-adv-x="1251" d="M25 1204v162h112v127h287v-127h315v-162h-315v-317q119 178 324 178q147 0 247 -84q113 -94 113 -299v-682q0 -205 -113 -299q-100 -84 -247 -84h-103v244q94 0 143 67q33 49 33 138v550q0 88 -33 138q-49 68 -143 67q-96 0 -158.5 -61.5t-62.5 -155.5v-604h-287v1204 h-112z" />
<glyph unicode="&#x453;" horiz-adv-x="929" d="M123 0v1106h713v-232h-426v-874h-287zM408 1247l143 307h258l-258 -307h-143z" />
<glyph unicode="&#x454;" d="M70 530q0 283 137 438.5t385 155.5q207 0 335 -114.5t142 -317.5h-274q-25 109 -71 155t-134 46q-127 0 -178 -94q-29 -53 -45 -144h356v-231h-358q18 -115 77.5 -177.5t147.5 -62.5q84 0 131 46t74 153h274q-20 -199 -150.5 -314.5t-330.5 -115.5q-246 0 -382 151.5 t-136 425.5z" />
<glyph unicode="&#x455;" d="M59 322h281q16 -76 55 -105q59 -39 170 -39q100 0 156.5 29t56.5 80q0 33 -21.5 53t-74.5 37l-342 106q-131 43 -180 92q-61 68 -62 181q0 170 122 269t333 99q223 0 350 -99t131 -275h-276q-2 150 -207 149q-76 0 -121 -27.5t-45 -74.5q0 -33 20.5 -50.5t79.5 -35.5 l363 -105q217 -63 217 -278q0 -172 -131 -277q-123 -98 -352 -98q-511 0 -523 369z" />
<glyph unicode="&#x456;" horiz-adv-x="569" d="M137 0v1106h287v-1106h-287zM137 1237v256h287v-256h-287z" />
<glyph unicode="&#x457;" horiz-adv-x="569" d="M-18 1272v250h225v-250h-225zM137 0v1106h287v-1106h-287zM362 1272v250h226v-250h-226z" />
<glyph unicode="&#x458;" horiz-adv-x="569" d="M8 -207q27 -8 51 -8q47 0 65.5 19.5t18.5 66.5v1235h287v-1299q0 -135 -59.5 -194t-192.5 -59q-74 0 -170 10v229zM143 1237v256h287v-256h-287z" />
<glyph unicode="&#x459;" horiz-adv-x="1890" d="M59 0v276q43 0 73 30t46.5 71t24.5 118.5t9 136t1 163.5v311h899v-371h277q403 0 403 -362q0 -168 -97.5 -270.5t-289.5 -102.5h-580v874h-325v-104q0 -408 -104 -589t-337 -181zM1112 225h223q172 0 172 144q0 70 -49 105.5t-133 35.5h-213v-285z" />
<glyph unicode="&#x45a;" horiz-adv-x="1849" d="M129 0v1106h287v-371h415v371h287v-371h277q403 0 403 -362q0 -168 -97 -270.5t-290 -102.5h-580v504h-415v-504h-287zM1118 225h223q172 0 172 144q0 70 -48 105.5t-134 35.5h-213v-285z" />
<glyph unicode="&#x45b;" horiz-adv-x="1251" d="M25 1204v162h112v127h287v-127h315v-162h-315v-317q119 178 324 178q147 0 247 -84q113 -94 113 -299v-682h-287v616q0 88 -33 138q-49 68 -143 67q-96 0 -158.5 -61.5t-62.5 -155.5v-604h-287v1204h-112z" />
<glyph unicode="&#x45c;" horiz-adv-x="1173" d="M123 0v1106h287v-387l331 387h303l-438 -500l518 -606h-372l-342 406v-406h-287zM512 1247l143 307h258l-258 -307h-143z" />
<glyph unicode="&#x45d;" horiz-adv-x="1259" d="M123 0v1106h287v-692l399 692h328v-1106h-287v692l-399 -692h-328zM299 1554h258l143 -307h-143z" />
<glyph unicode="&#x45e;" d="M18 1106h316l244 -805l229 805h295l-445 -1309q-33 -98 -70.5 -141t-101.5 -70q-84 -35 -206 -35q-45 0 -103 9v215q45 -12 76 -13q76 0 125 52.5t49 130.5v8v2zM291 1520v20h115q18 -135 155 -135q133 0 156 135h114v-22q0 -115 -77.5 -193t-192.5 -78q-117 0 -193.5 78 t-76.5 195z" />
<glyph unicode="&#x45f;" horiz-adv-x="1245" d="M123 0v1106h287v-875h417v875h287v-1106h-383v-256h-225v256h-383z" />
<glyph unicode="&#x48c;" horiz-adv-x="1406" d="M12 1137v161h144v195h307v-195h162v-161h-162v-176h383q205 0 327.5 -135.5t122.5 -362.5q0 -225 -123.5 -344t-357.5 -119h-659v1137h-144zM463 256h287q123 0 181 55.5t58 169.5q0 223 -239 224h-287v-449z" />
<glyph unicode="&#x48d;" horiz-adv-x="1150" d="M-41 803v162h164v141h287v-141h161v-162h-161v-121h237q223 0 339 -95t120 -270q0 -68 -29.5 -132t-79.5 -105q-94 -80 -278 -80h-596v803h-164zM410 225h249q86 0 124 28t38 95.5t-35.5 88t-126.5 20.5h-249v-232z" />
<glyph unicode="&#x48e;" horiz-adv-x="1366" d="M156 0v1493h659q233 0 357 -119t124 -344q0 -229 -125 -366l97 -97l-115 -114l-117 116q-82 -37 -190 -37h-383v-532h-307zM463 788h287q27 0 63 5l-92 92l115 114l122 -122q31 53 31 135q0 115 -58.5 170t-180.5 55h-287v-449z" />
<glyph unicode="&#x48f;" horiz-adv-x="1251" d="M119 -446v1552h287v-164q102 182 307 182q100 0 194 -48t150 -126q119 -166 119 -413q0 -242 -123 -408l121 -121l-115 -114l-123 122q-104 -66 -223 -65q-205 0 -307 180v-577h-287zM406 536.5q0 -155.5 66.5 -251t174.5 -95.5q47 0 92 23l-112 113l114 114l107 -106 q41 82 41 198q0 158 -66.5 255.5t-175 97.5t-175 -96.5t-66.5 -252z" />
<glyph unicode="&#x490;" horiz-adv-x="1251" d="M152 0v1493l741 -2v278h307v-532h-741v-1237h-307z" />
<glyph unicode="&#x491;" horiz-adv-x="929" d="M131 0v1106h451v258h262v-490h-426v-874h-287z" />
<glyph unicode="&#x492;" horiz-adv-x="1251" d="M8 643v256h160v594h1049v-256h-742v-338h391v-256h-391v-643h-307v643h-160z" />
<glyph unicode="&#x493;" horiz-adv-x="929" d="M-12 489v185h135v432h713v-232h-426v-200h213v-185h-213v-489h-287v489h-135z" />
<glyph unicode="&#x494;" horiz-adv-x="1251" d="M152 0v1493h1048v-256h-741v-205h260q225 0 366.5 -129t141.5 -325v-476q0 -197 -141.5 -325.5t-366.5 -128.5h-76v256h51q94 0 160 56t66 155v450q0 98 -66 154.5t-160 56.5h-235v-776h-307z" />
<glyph unicode="&#x495;" horiz-adv-x="1196" d="M123 0v1106h713v-232h-426v-315q41 66 106.5 91.5t175.5 25.5q74 0 159 -22.5t130 -61.5q113 -94 113 -299v-293q0 -205 -113 -299q-100 -84 -248 -84h-102v244q94 0 143 67q33 49 33 138v161q0 115 -54.5 160t-162.5 45q-90 0 -135 -51t-45 -125v-256h-287z" />
<glyph unicode="&#x496;" horiz-adv-x="2238" d="M45 0l731 774l-641 719h336l502 -571v571h307v-571l502 571h336l-641 -719l522 -553h209v-528h-277v307h-90l-561 584v-584h-307v584l-561 -584h-367z" />
<glyph unicode="&#x497;" horiz-adv-x="1656" d="M33 0l436 606l-363 500h304l270 -387v387h287v-387l270 387h303l-362 -500l286 -399h150v-463h-225v256h-142l-280 406v-406h-287v406l-281 -406h-366z" />
<glyph unicode="&#x498;" horiz-adv-x="1376" d="M66 446h299q8 -121 94 -184t241 -63q139 0 220 53t81 147q0 100 -67.5 166t-212.5 66h-209v246h156q283 0 282 210q0 84 -69.5 134.5t-188.5 50.5q-297 0 -313 -234h-287q0 193 105 310q154 170 481 170q268 0 416.5 -120t148.5 -339q0 -190 -129 -287q182 -100 182 -336 q0 -211 -141 -338t-397 -143q160 -94 160 -240q0 -90 -79 -142t-216 -52q-82 0 -162 20v97q55 -12 117 -13q156 0 155 103q0 68 -33.5 119t-126.5 112q-233 23 -364 147.5t-143 339.5z" />
<glyph unicode="&#x499;" horiz-adv-x="1118" d="M59 322h281q16 -76 55 -105q59 -39 170 -39q100 0 156.5 29t56.5 80q0 27 -3 42t-16.5 42.5t-51 41t-97.5 13.5h-188v225h192q41 0 70 11.5t41 28t18.5 35.5t4 37.5t0.5 33.5q0 47 -45.5 74.5t-120.5 27.5q-205 0 -207 -149h-277q4 176 131 275t351 99q211 0 332.5 -99 t121.5 -269q0 -113 -61 -181q-4 -4 -15.5 -11t-13.5 -9q121 -76 121 -227q0 -172 -131 -277q-96 -78 -264 -94q162 -96 161 -242q0 -90 -78.5 -142t-215.5 -52q-82 0 -162 20v97q55 -12 117 -13q156 0 155 103q0 68 -33.5 117t-121.5 112q-421 31 -433 365z" />
<glyph unicode="&#x49a;" horiz-adv-x="1536" d="M168 0v1493h307v-571l584 571h362l-749 -719l581 -553h232v-528h-266v307h-144l-600 584v-584h-307z" />
<glyph unicode="&#x49b;" horiz-adv-x="1173" d="M123 0v1106h287v-387l331 387h303l-438 -500l342 -399h176v-463h-225v256h-147l-342 406v-406h-287z" />
<glyph unicode="&#x49c;" horiz-adv-x="1478" d="M168 0v1493h307v-571l90 88v299h162v-142l332 326h362l-694 -666v-106l758 -721h-410l-348 338v-133h-162v291l-90 88v-584h-307z" />
<glyph unicode="&#x49d;" horiz-adv-x="1173" d="M123 0v1106h287v-387l73 86v258h162v-70l96 113h303l-399 -455v-90l479 -561h-372l-107 127v-55h-162v245l-73 89v-406h-287z" />
<glyph unicode="&#x49e;" horiz-adv-x="1478" d="M4 1202v162h148v129h307v-129h157v-162h-157v-280l583 571h363l-750 -719l828 -774h-381l-643 584v-584h-307v1202h-148z" />
<glyph unicode="&#x49f;" horiz-adv-x="1173" d="M16 905v121h105v80h287v-80h110v-121h-110v-186l331 387h303l-438 -500l518 -606h-372l-342 406v-406h-287v905h-105z" />
<glyph unicode="&#x4a0;" horiz-adv-x="1867" d="M29 1237v256h778v-571l584 571h362l-749 -719l813 -774h-410l-600 584v-584h-307v1237h-471z" />
<glyph unicode="&#x4a1;" horiz-adv-x="1441" d="M41 874v232h637v-387l332 387h303l-439 -500l519 -606h-373l-342 406v-406h-287v874h-350z" />
<glyph unicode="&#x4a2;" horiz-adv-x="1542" d="M168 0v1493h307v-559h590v559h309v-1272h246v-528h-277v307h-276v678h-592v-678h-307z" />
<glyph unicode="&#x4a3;" horiz-adv-x="1245" d="M123 0v1106h287v-451h415v451h287v-899h176v-463h-225v256h-238v424h-415v-424h-287z" />
<glyph unicode="&#x4a4;" horiz-adv-x="2017" d="M139 0v1493h307v-559h590v559h946v-256h-639v-1237h-305v678h-592v-678h-307z" />
<glyph unicode="&#x4a5;" horiz-adv-x="1611" d="M123 0v1106h287v-451h415v451h693v-232h-406v-874h-287v424h-415v-424h-287z" />
<glyph unicode="&#x4a6;" horiz-adv-x="2236" d="M139 0v1493h1207v-461h260q225 0 366.5 -129t141.5 -325v-476q0 -197 -141.5 -325.5t-366.5 -128.5h-76v256h51q94 0 159.5 56t65.5 155v450q0 98 -65.5 154.5t-159.5 56.5h-235v-776h-308v1237h-592v-1237h-307z" />
<glyph unicode="&#x4a7;" horiz-adv-x="1894" d="M123 0v1106h989v-547q41 66 106.5 91.5t176.5 25.5q74 0 158.5 -22.5t129.5 -61.5q113 -94 113 -299v-293q0 -205 -113 -299q-100 -84 -247 -84h-103v244q94 0 144 67q33 49 32 138v161q0 115 -54 160t-163 45q-90 0 -135 -51t-45 -125v-256h-287v874h-415v-874h-287z " />
<glyph unicode="&#x4a8;" horiz-adv-x="1478" d="M90 733q0 362 184.5 573.5t499.5 211.5q344 0 522 -236q86 -115 101 -295h-293q-25 106 -68 160q-86 109 -252 108q-182 0 -284.5 -139t-102.5 -387q0 -244 99.5 -381t277.5 -137q143 0 229.5 78t100.5 221h299q-14 -256 -186.5 -406.5t-450.5 -150.5q-311 0 -493.5 210 t-182.5 570z" />
<glyph unicode="&#x4a9;" d="M70 530q0 283 137 438.5t385 155.5q207 0 335 -114.5t142 -317.5h-274q-25 109 -71 155t-134 46q-127 0 -178 -94q-55 -104 -56 -269q0 -162 62.5 -254t171.5 -92q84 0 131 46t74 153h274q-20 -199 -150.5 -314.5t-330.5 -115.5q-246 0 -382 151.5t-136 425.5z" />
<glyph unicode="&#x4aa;" horiz-adv-x="1478" d="M90 733q0 362 184.5 573.5t499.5 211.5q344 0 522 -236q86 -115 101 -295h-293q-25 106 -68 160q-86 109 -252 108q-182 0 -284.5 -139t-102.5 -387q0 -244 99.5 -381t277.5 -137q143 0 229.5 78t100.5 221h299q-12 -238 -162.5 -385.5t-396.5 -167.5q160 -98 160 -242 q0 -90 -79 -142t-216 -52q-82 0 -162 20v97q55 -12 117 -13q156 0 155 103q0 68 -34.5 119t-127.5 114q-264 35 -415.5 240.5t-151.5 531.5z" />
<glyph unicode="&#x4ab;" d="M70 530q0 283 137 438.5t385 155.5q207 0 335 -114.5t142 -317.5h-274q-25 109 -71 155t-134 46q-127 0 -178 -94q-55 -104 -56 -269q0 -162 62.5 -254t171.5 -92q84 0 131 46t74 153h274q-18 -178 -124.5 -289.5t-276.5 -134.5q164 -96 163 -244q0 -90 -78.5 -142 t-215.5 -52q-82 0 -162 20v97q55 -12 117 -13q156 0 155 103q0 68 -34.5 119t-127.5 114q-199 31 -307 179t-108 390z" />
<glyph unicode="&#x4ac;" horiz-adv-x="1251" d="M29 1237v256h1196v-256h-437v-1016h246v-528h-276v307h-277v1237h-452z" />
<glyph unicode="&#x4ad;" horiz-adv-x="929" d="M43 874v232h840v-232h-277v-667h176v-463h-225v256h-238v874h-276z" />
<glyph unicode="&#x4ae;" horiz-adv-x="1366" d="M55 1493h342l305 -659l285 659h344l-473 -940v-553h-307v553z" />
<glyph unicode="&#x4af;" horiz-adv-x="1366" d="M117 1106h342l243 -660l224 660h344l-412 -940v-553h-307v553z" />
<glyph unicode="&#x4b0;" horiz-adv-x="1366" d="M55 1493h342l305 -659l285 659h344l-473 -940v-43h410v-213h-410v-297h-307v297h-410v213h410v43z" />
<glyph unicode="&#x4b1;" horiz-adv-x="1366" d="M117 1106h342l243 -660l224 660h344l-412 -940h410v-213h-410v-340h-307v340h-410v213h410z" />
<glyph unicode="&#x4b2;" horiz-adv-x="1366" d="M45 0l471 752l-455 741h365l262 -492l275 492h356l-461 -731l340 -541h139v-528h-266v307h-98l-287 518l-285 -518h-356z" />
<glyph unicode="&#x4b3;" d="M33 0l368 557l-360 549h344l180 -334l178 334h344l-360 -549l231 -350h138v-463h-226v256h-118l-187 344l-188 -344h-344z" />
<glyph unicode="&#x4b4;" horiz-adv-x="1947" d="M29 1237v256h1073v-256h-375v-981h592v1237h307v-1272h225v-528h-266v307h-1165v1237h-391z" />
<glyph unicode="&#x4b5;" horiz-adv-x="1511" d="M43 874v232h758v-232h-236v-643h416v875h287v-899h196v-463h-225v256h-960v874h-236z" />
<glyph unicode="&#x4b6;" horiz-adv-x="1599" d="M139 915v578h307v-565q0 -98 66 -154.5t160 -56.5h297v776h309v-1272h225v-528h-266v307h-266v461h-324q-225 0 -366.5 128.5t-141.5 325.5z" />
<glyph unicode="&#x4b7;" horiz-adv-x="1284" d="M123 707v399h287v-397q0 -72 43 -108t116 -36h205v541h287v-899h176v-463h-225v256h-238v334h-201q-188 0 -319 91.5t-131 281.5z" />
<glyph unicode="&#x4b8;" horiz-adv-x="1402" d="M139 915v578h307v-565q0 -86 52.5 -140.5t132.5 -66.5v178h162v-182h176v776h309v-1493h-307v461h-178v-174h-162v174q-213 0 -352.5 130.5t-139.5 323.5z" />
<glyph unicode="&#x4b9;" horiz-adv-x="1183" d="M123 707v399h287v-397q0 -109 98 -136v203h162v-211h104v541h287v-1106h-287v334h-104v-170h-162v172q-166 14 -275.5 106.5t-109.5 264.5z" />
<glyph unicode="&#x4ba;" horiz-adv-x="1402" d="M139 0v1493h307v-461h324q225 0 366.5 -129t141.5 -325v-578h-307v565q0 98 -65.5 154.5t-160.5 56.5h-296v-776h-310z" />
<glyph unicode="&#x4bb;" horiz-adv-x="1183" d="M123 0v1106h287v-334h200q121 0 218.5 -35t165 -122t67.5 -216v-399h-287v397q0 72 -43 108t-117 36h-204v-541h-287z" />
<glyph unicode="&#x4bc;" horiz-adv-x="1959" d="M51 1169q0 170 82 263.5t232 93.5q125 0 199.5 -70t84.5 -190h-164q-16 66 -43.5 93t-79.5 27q-78 0 -106 -57q-33 -61 -33 -159.5t37 -153.5t105 -55h227q53 262 225 409.5t430 147.5q291 0 464 -197t173 -578h-1005q0 -254 101 -391t286 -137q166 0 252 109 q43 53 67 159h293q-14 -180 -100 -295q-178 -236 -523 -235q-315 0 -499.5 211t-184.5 573v6q-274 2 -397 122t-123 304zM905 961h680q-14 143 -100 221t-230 78q-133 0 -223 -78t-127 -221z" />
<glyph unicode="&#x4bd;" horiz-adv-x="1466" d="M41 866q0 113 55.5 175.5t153.5 62.5q84 0 135 -45t57 -127h-110q-16 80 -82 80q-49 0 -72 -37q-23 -41 -22 -109q0 -63 25.5 -100t68.5 -37h168q43 190 173 292.5t329 102.5q207 0 334.5 -114.5t142.5 -317.5v-160h-713q0 -166 61.5 -257t172.5 -91q84 0 131 46t73 153 h275q-20 -199 -150.5 -314.5t-331.5 -115.5q-246 0 -382 151.5t-136 425.5v2q-176 2 -266 104.5t-90 229.5zM711 729h401q-25 88 -70 126t-124 38q-127 0 -179 -94q-18 -37 -28 -70z" />
<glyph unicode="&#x4be;" horiz-adv-x="1959" d="M51 1169q0 170 82 263.5t232 93.5q125 0 199.5 -70t84.5 -190h-164q-16 66 -43.5 93t-79.5 27q-78 0 -106 -57q-33 -61 -33 -159.5t37 -153.5t105 -55h227q53 262 225 409.5t430 147.5q291 0 464 -197t173 -578h-1005q0 -254 101 -391t286 -137q166 0 252 109 q43 53 67 159h293q-14 -180 -100 -295q-150 -201 -432 -231q162 -94 161 -242q0 -90 -78.5 -142t-216.5 -52q-82 0 -161 20v97q55 -12 116 -13q156 0 156 103q0 68 -34 118t-124 111q-276 31 -435 237.5t-159 542.5v6q-274 2 -397 122t-123 304zM905 961h680 q-14 143 -100 221t-230 78q-133 0 -223 -78t-127 -221z" />
<glyph unicode="&#x4bf;" horiz-adv-x="1466" d="M41 866q0 113 55.5 175.5t153.5 62.5q84 0 135 -45t57 -127h-110q-16 80 -82 80q-49 0 -72 -37q-23 -41 -22 -109q0 -63 25.5 -100t68.5 -37h168q43 190 173 292.5t329 102.5q207 0 334.5 -114.5t142.5 -317.5v-160h-713q0 -166 61.5 -257t172.5 -91q84 0 131 46t73 153 h275q-18 -176 -125 -288.5t-275 -135.5q164 -98 164 -244q0 -90 -78.5 -142t-216.5 -52q-82 0 -161 20v97q55 -12 116 -13q156 0 156 103q0 68 -35 119t-127 114q-201 29 -309.5 177.5t-108.5 391.5v2q-176 2 -266 104.5t-90 229.5zM711 729h401q-25 88 -70 126t-124 38 q-127 0 -179 -94q-18 -37 -28 -70z" />
<glyph unicode="&#x4c0;" horiz-adv-x="569" d="M129 0v1493h307v-1493h-307z" />
<glyph unicode="&#x4c1;" horiz-adv-x="2238" d="M45 0l731 774l-641 719h336l502 -571v571h307v-571l502 571h336l-641 -719l731 -774h-377l-551 584v-584h-307v584l-551 -584h-377zM856 1913v20h115q18 -135 157 -135q131 0 154 135h115v-22q0 -115 -78 -193t-192.5 -78t-192.5 78t-78 195z" />
<glyph unicode="&#x4c2;" horiz-adv-x="1656" d="M33 0l436 606l-363 500h304l270 -387v387h287v-387l270 387h303l-362 -500l436 -606h-367l-280 406v-406h-287v406l-281 -406h-366zM553 1520v20h115q18 -135 157 -135q131 0 154 135h115v-22q0 -115 -78 -193t-192.5 -78t-192.5 78t-78 195z" />
<glyph unicode="&#x4c3;" horiz-adv-x="1536" d="M168 0v1493h307v-571l584 571h362l-749 -719h114q225 0 366.5 -129t141.5 -326v-217q0 -197 -141 -325.5t-367 -128.5h-75v256h51q94 0 159.5 56t65.5 155v192q0 98 -65.5 154.5t-159.5 56.5h-287v-518h-307z" />
<glyph unicode="&#x4c4;" horiz-adv-x="1173" d="M123 0v1106h287v-387l331 387h303l-438 -500l39 2q168 0 264.5 -99t96.5 -284v-227q0 -184 -96.5 -283.5t-264.5 -99.5h-102v244q176 0 176 204v97q0 205 -176 205h-133v-365h-287z" />
<glyph unicode="&#x4c7;" horiz-adv-x="1478" d="M139 0v1493h307v-559h590v559h310v-1391q0 -197 -141.5 -325.5t-366.5 -128.5h-76v256h51q94 0 159.5 56t65.5 155v563h-592v-678h-307z" />
<glyph unicode="&#x4c8;" horiz-adv-x="1245" d="M123 0v1106h287v-451h415v451h287v-1106q0 -184 -96 -283.5t-264 -99.5h-103v244q176 0 176 205v358h-415v-424h-287z" />
<glyph unicode="&#x4cb;" horiz-adv-x="1402" d="M139 915v578h307v-565q0 -98 66 -154.5t160 -56.5h297v776h309v-1493h-266v-307h-267v528h226v240h-324q-225 0 -366.5 128.5t-141.5 325.5z" />
<glyph unicode="&#x4cc;" horiz-adv-x="1183" d="M123 707v399h287v-397q0 -72 43 -108t116 -36h205v541h287v-1106h-238v-256h-225v463h176v127h-201q-188 0 -319 91.5t-131 281.5z" />
<glyph unicode="&#x4d0;" horiz-adv-x="1478" d="M53 0l531 1493h340l516 -1493h-310l-102 301h-561l-100 -301h-314zM483 1913v20h115q18 -135 158 -135q131 0 153 135h115v-22q0 -115 -78 -193t-192.5 -78t-192.5 78t-78 195zM553 557h389l-194 584z" />
<glyph unicode="&#x4d1;" d="M57 285q0 289 326 348l115 20q150 27 180 43q49 27 49 86q0 111 -166 111q-106 0 -149 -33t-54 -119h-276q27 383 473 383q453 0 453 -340v-614q0 -76 65 -135v-35h-311q-33 41 -33 111q-152 -158 -336 -158q-158 0 -258 104q-78 85 -78 228zM285 1520v20h114 q18 -135 158 -135q131 0 154 135h114v-22q0 -115 -77.5 -193t-192.5 -78t-192.5 78t-77.5 195zM344 317q0 -61 42 -97t114 -36q109 0 168 67.5t59 192.5v78q-39 -18 -121 -35l-98 -18q-86 -16 -125 -52.5t-39 -99.5z" />
<glyph unicode="&#x4d2;" horiz-adv-x="1478" d="M53 0l531 1493h340l516 -1493h-310l-102 301h-561l-100 -301h-314zM451 1640v250h225v-250h-225zM553 557h389l-194 584zM831 1640v250h226v-250h-226z" />
<glyph unicode="&#x4d3;" d="M57 285q0 289 326 348l115 20q150 27 180 43q49 27 49 86q0 111 -166 111q-106 0 -149 -33t-54 -119h-276q27 383 473 383q453 0 453 -340v-614q0 -76 65 -135v-35h-311q-33 41 -33 111q-152 -158 -336 -158q-158 0 -258 104q-78 85 -78 228zM252 1247v250h225v-250h-225 zM344 317q0 -61 42 -97t114 -36q109 0 168 67.5t59 192.5v78q-39 -18 -121 -35l-98 -18q-86 -16 -125 -52.5t-39 -99.5zM633 1247v250h225v-250h-225z" />
<glyph unicode="&#x4d4;" horiz-adv-x="2048" d="M2 0l539 1493h1396v-256h-749v-338h694v-256h-694v-387h790v-256h-1097v311h-457l-109 -311h-313zM510 567h371v670h-138z" />
<glyph unicode="&#x4d5;" horiz-adv-x="1820" d="M55 289q0 297 326 350l115 20q141 23 180 43q49 27 49 82q0 109 -174 109q-96 0 -140 -34t-55 -118h-268q6 383 467 383q240 0 358 -102q127 102 318 102q172 0 298 -85t183 -236q43 -123 43 -291q0 -25 -2 -49h-741q0 -127 41 -191q66 -100 192 -100q74 0 134.5 40 t78.5 99h283q-47 -164 -186.5 -261t-325.5 -97q-279 0 -410 213q-182 -215 -420 -215q-158 0 -251 91t-93 247zM342 317q0 -63 42 -99t114 -36q111 0 169 66.5t58 193.5v78q-45 -27 -121 -39l-98 -14q-164 -23 -164 -150zM1014 653h442q-23 252 -223.5 252t-218.5 -252z" />
<glyph unicode="&#x4d6;" horiz-adv-x="1452" d="M168 0v1493h1079v-256h-772v-338h715v-256h-715v-387h809v-256h-1116zM438 1913v20h115q18 -135 156 -135q133 0 155 135h115v-22q0 -115 -78 -193t-192 -78q-117 0 -194 78t-77 195z" />
<glyph unicode="&#x4d7;" d="M45 524q0 279 137 439.5t375 160.5q168 0 294 -85t181 -236q43 -125 43 -291q0 -25 -2 -49h-741q6 -139 41 -195q63 -96 188 -96q164 0 219 139h283q-47 -164 -186.5 -261t-325.5 -97q-236 0 -371 152.5t-135 418.5zM287 1520v20h114q18 -135 158 -135q131 0 154 135h114 v-22q0 -115 -77.5 -193t-192.5 -78t-192.5 78t-77.5 195zM336 653h440q-8 102 -45 160q-66 92 -178 92q-188 0 -217 -252z" />
<glyph unicode="&#x4d8;" horiz-adv-x="1478" d="M90 727h1006q0 254 -101.5 391t-285.5 137q-166 0 -252 -108q-43 -53 -68 -160h-293q14 180 101 295q178 236 522 236q315 0 499.5 -211t184.5 -574q0 -360 -182.5 -570t-493.5 -210q-291 0 -464 196.5t-173 577.5zM389 510q14 -143 100 -221t230 -78q133 0 223 78 t127 221h-680z" />
<glyph unicode="&#x4d9;" d="M70 385v160h712q0 162 -62.5 255t-170.5 93q-84 0 -131 -46t-74 -153h-274q20 199 150 314.5t331 115.5q246 0 382 -151.5t136 -425.5q0 -283 -137 -438.5t-385 -155.5q-207 0 -335 114.5t-142 317.5zM354 346q25 -88 70 -126t125 -38q127 0 178 94q18 37 29 70h-402z " />
<glyph unicode="&#x4da;" horiz-adv-x="1478" d="M90 727h1006q0 254 -101.5 391t-285.5 137q-166 0 -252 -108q-43 -53 -68 -160h-293q14 180 101 295q178 236 522 236q315 0 499.5 -211t184.5 -574q0 -360 -182.5 -570t-493.5 -210q-291 0 -464 196.5t-173 577.5zM389 510q14 -143 100 -221t230 -78q133 0 223 78 t127 221h-680zM416 1640v250h225v-250h-225zM797 1640v250h225v-250h-225z" />
<glyph unicode="&#x4db;" d="M70 385v160h712q0 162 -62.5 255t-170.5 93q-84 0 -131 -46t-74 -153h-274q20 199 150 314.5t331 115.5q246 0 382 -151.5t136 -425.5q0 -283 -137 -438.5t-385 -155.5q-207 0 -335 114.5t-142 317.5zM248 1247v250h225v-250h-225zM354 346q25 -88 70 -126t125 -38 q127 0 178 94q18 37 29 70h-402zM629 1247v250h225v-250h-225z" />
<glyph unicode="&#x4dc;" horiz-adv-x="2238" d="M45 0l731 774l-641 719h336l502 -571v571h307v-571l502 571h336l-641 -719l731 -774h-377l-551 584v-584h-307v584l-551 -584h-377zM823 1640v250h226v-250h-226zM1204 1640v250h226v-250h-226z" />
<glyph unicode="&#x4dd;" horiz-adv-x="1656" d="M33 0l436 606l-363 500h304l270 -387v387h287v-387l270 387h303l-362 -500l436 -606h-367l-280 406v-406h-287v406l-281 -406h-366zM520 1247v250h225v-250h-225zM901 1247v250h225v-250h-225z" />
<glyph unicode="&#x4de;" horiz-adv-x="1376" d="M66 446h299q8 -121 94 -184t241 -63q139 0 220 53t81 147q0 100 -67.5 166t-212.5 66h-209v246h156q283 0 282 210q0 84 -69.5 134.5t-188.5 50.5q-297 0 -313 -234h-287q0 193 105 310q154 170 481 170q268 0 416.5 -120t148.5 -339q0 -190 -129 -287q182 -100 182 -336 q0 -227 -161.5 -355t-450.5 -128q-287 0 -445.5 126.5t-172.5 366.5zM375 1640v250h225v-250h-225zM756 1640v250h225v-250h-225z" />
<glyph unicode="&#x4df;" horiz-adv-x="1118" d="M59 322h281q16 -76 55 -105q59 -39 170 -39q100 0 156.5 29t56.5 80q0 27 -3 42t-16.5 42.5t-51 41t-97.5 13.5h-188v225h192q41 0 70 11.5t41 28t18.5 35.5t4 37.5t0.5 33.5q0 47 -45.5 74.5t-120.5 27.5q-205 0 -207 -149h-277q4 176 131 275t351 99q211 0 332.5 -99 t121.5 -269q0 -113 -61 -181q-4 -4 -15.5 -11t-13.5 -9q121 -76 121 -227q0 -172 -131 -277q-123 -98 -352 -98q-511 0 -523 369zM276 1247v250h226v-250h-226zM657 1247v250h226v-250h-226z" />
<glyph unicode="&#x4e0;" horiz-adv-x="1376" d="M66 446h299q8 -121 94 -184t241 -63q139 0 220 53t81 147q0 100 -67.5 166t-212.5 66h-209v246h156q283 0 282 210q0 84 -69.5 134.5t-188.5 50.5q-297 0 -313 -234h-287q0 193 105 310q154 170 481 170q268 0 416.5 -120t148.5 -339q0 -190 -129 -287q182 -100 182 -336 q0 -227 -161.5 -355t-450.5 -128q-287 0 -445.5 126.5t-172.5 366.5z" />
<glyph unicode="&#x4e1;" horiz-adv-x="1118" d="M59 322h281q16 -76 55 -105q59 -39 170 -39q100 0 156.5 29t56.5 80q0 27 -3 42t-16.5 42.5t-51 41t-97.5 13.5h-188v225h192q41 0 70 11.5t41 28t18.5 35.5t4 37.5t0.5 33.5q0 47 -45.5 74.5t-120.5 27.5q-205 0 -207 -149h-277q4 176 131 275t351 99q211 0 332.5 -99 t121.5 -269q0 -113 -61 -181q-4 -4 -15.5 -11t-13.5 -9q121 -76 121 -227q0 -172 -131 -277q-123 -98 -352 -98q-511 0 -523 369z" />
<glyph unicode="&#x4e2;" horiz-adv-x="1550" d="M168 0v1493h307v-1016l592 1016h315v-1493h-307v1032l-600 -1032h-307zM469 1640v162h612v-162h-612z" />
<glyph unicode="&#x4e3;" horiz-adv-x="1259" d="M123 0v1106h287v-692l399 692h328v-1106h-287v692l-399 -692h-328zM324 1247v162h612v-162h-612z" />
<glyph unicode="&#x4e4;" horiz-adv-x="1550" d="M168 0v1493h307v-1016l592 1016h315v-1493h-307v1032l-600 -1032h-307zM471 1640v250h225v-250h-225zM852 1640v250h225v-250h-225z" />
<glyph unicode="&#x4e5;" horiz-adv-x="1259" d="M123 0v1106h287v-692l399 692h328v-1106h-287v692l-399 -692h-328zM328 1247v250h225v-250h-225zM709 1247v250h225v-250h-225z" />
<glyph unicode="&#x4e6;" horiz-adv-x="1593" d="M82 735q0 350 209 576q190 207 508 207q319 0 512 -207q209 -225 209 -586q0 -158 -56.5 -310.5t-152.5 -254.5q-193 -207 -510.5 -207t-509.5 207q-100 106 -154.5 256.5t-54.5 318.5zM389 735.5q0 -235.5 112.5 -378t299.5 -142.5q184 0 297.5 141.5t113.5 370.5 q0 242 -111.5 385t-299.5 143q-186 0 -299 -142t-113 -377.5zM496 1640v250h225v-250h-225zM877 1640v250h225v-250h-225z" />
<glyph unicode="&#x4e7;" horiz-adv-x="1251" d="M72 538.5q0 272.5 145 429t399 156.5q260 0 404.5 -156.5t144.5 -437.5q0 -266 -147.5 -421.5t-399.5 -155.5q-256 0 -401 156.5t-145 429zM313 1247v250h226v-250h-226zM358 538.5q0 -157.5 72 -256t188 -98.5q115 0 188 97.5t73 253.5q0 164 -71 261t-190 97 q-117 0 -188.5 -98.5t-71.5 -256zM694 1247v250h226v-250h-226z" />
<glyph unicode="&#x4e8;" horiz-adv-x="1593" d="M82 735q0 350 209 576q190 207 508 207q319 0 512 -207q209 -225 209 -586q0 -158 -56.5 -310.5t-152.5 -254.5q-193 -207 -510.5 -207t-509.5 207q-100 106 -154.5 256.5t-54.5 318.5zM393 657q18 -203 128 -322.5t280 -119.5t280.5 121t128.5 321h-817zM393 819h815 q-23 203 -130 319.5t-277 116.5q-168 0 -278 -117.5t-130 -318.5z" />
<glyph unicode="&#x4e9;" horiz-adv-x="1251" d="M72 538.5q0 272.5 145 429t399 156.5q260 0 404.5 -156.5t144.5 -437.5q0 -266 -147.5 -421.5t-399.5 -155.5q-256 0 -401 156.5t-145 429zM365 459q16 -125 84.5 -200t168.5 -75q98 0 168 75t88 200h-509zM365 621h507q-16 127 -84.5 199.5t-169 72.5t-169 -73.5 t-84.5 -198.5z" />
<glyph unicode="&#x4ea;" horiz-adv-x="1593" d="M82 735q0 350 209 576q190 207 508 207q319 0 512 -207q209 -225 209 -586q0 -158 -56.5 -310.5t-152.5 -254.5q-193 -207 -510.5 -207t-509.5 207q-100 106 -154.5 256.5t-54.5 318.5zM393 657q18 -203 128 -322.5t280 -119.5t280.5 121t128.5 321h-817zM393 819h815 q-23 203 -130 319.5t-277 116.5q-168 0 -278 -117.5t-130 -318.5zM496 1640v250h225v-250h-225zM877 1640v250h225v-250h-225z" />
<glyph unicode="&#x4eb;" horiz-adv-x="1251" d="M72 538.5q0 272.5 145 429t399 156.5q260 0 404.5 -156.5t144.5 -437.5q0 -266 -147.5 -421.5t-399.5 -155.5q-256 0 -401 156.5t-145 429zM313 1247v250h226v-250h-226zM365 459q16 -125 84.5 -200t168.5 -75q98 0 168 75t88 200h-509zM365 621h507q-16 127 -84.5 199.5 t-169 72.5t-169 -73.5t-84.5 -198.5zM694 1247v250h226v-250h-226z" />
<glyph unicode="&#x4ec;" horiz-adv-x="1478" d="M90 510h299q14 -143 100 -221t230 -78q160 0 257 111.5t116 314.5h-598v256h596q-31 172 -131.5 267t-249.5 95q-166 0 -252 -108q-43 -53 -68 -160h-293q14 180 101 295q178 236 522 236q315 0 499.5 -211t184.5 -574q0 -360 -182.5 -570t-493.5 -210q-279 0 -451 150.5 t-186 406.5zM416 1640v250h225v-250h-225zM797 1640v250h225v-250h-225z" />
<glyph unicode="&#x4ed;" horiz-adv-x="1155" d="M70 383h274q27 -106 74 -152.5t131 -46.5q88 0 147.5 62.5t77.5 177.5h-358v231h356q-16 90 -45 144q-51 94 -178 94q-88 0 -134 -46t-71 -155h-274q14 203 142 317.5t335 114.5q248 0 385 -155.5t137 -438.5q0 -274 -136 -425.5t-382 -151.5q-201 0 -331 115.5 t-150 314.5zM244 1247v250h225v-250h-225zM625 1247v250h225v-250h-225z" />
<glyph unicode="&#x4ee;" horiz-adv-x="1470" d="M31 1493h334l352 -707l352 707h356l-753 -1493h-357l234 463zM422 1640v162h612v-162h-612z" />
<glyph unicode="&#x4ef;" d="M18 1106h316l244 -805l229 805h295l-445 -1309q-33 -98 -70.5 -141t-101.5 -70q-84 -35 -206 -35q-45 0 -103 9v215q45 -12 76 -13q76 0 125 52.5t49 130.5v8v2zM254 1247v162h612v-162h-612z" />
<glyph unicode="&#x4f0;" horiz-adv-x="1470" d="M31 1493h334l352 -707l352 707h356l-753 -1493h-357l234 463zM426 1640v250h225v-250h-225zM807 1640v250h225v-250h-225z" />
<glyph unicode="&#x4f1;" d="M18 1106h316l244 -805l229 805h295l-445 -1309q-33 -98 -70.5 -141t-101.5 -70q-84 -35 -206 -35q-45 0 -103 9v215q45 -12 76 -13q76 0 125 52.5t49 130.5v8v2zM258 1247v250h225v-250h-225zM639 1247v250h225v-250h-225z" />
<glyph unicode="&#x4f2;" horiz-adv-x="1470" d="M31 1493h334l352 -707l352 707h356l-753 -1493h-357l234 463zM463 1640l143 302h258l-258 -302h-143zM848 1640l143 302h258l-258 -302h-143z" />
<glyph unicode="&#x4f3;" d="M18 1106h316l244 -805l229 805h295l-445 -1309q-33 -98 -70.5 -141t-101.5 -70q-84 -35 -206 -35q-45 0 -103 9v215q45 -12 76 -13q76 0 125 52.5t49 130.5v8v2zM295 1247l143 301h258l-258 -301h-143zM680 1247l143 301h258l-258 -301h-143z" />
<glyph unicode="&#x4f4;" horiz-adv-x="1402" d="M139 915v578h307v-565q0 -98 66 -154.5t160 -56.5h297v776h309v-1493h-307v461h-324q-225 0 -366.5 128.5t-141.5 325.5zM406 1640v250h225v-250h-225zM786 1640v250h226v-250h-226z" />
<glyph unicode="&#x4f5;" horiz-adv-x="1183" d="M123 707v399h287v-397q0 -72 43 -108t116 -36h205v541h287v-1106h-287v334h-201q-188 0 -319 91.5t-131 281.5zM289 1247v250h225v-250h-225zM670 1247v250h225v-250h-225z" />
<glyph unicode="&#x4f8;" horiz-adv-x="1943" d="M139 0v1493h307v-532h383q205 0 328 -135.5t123 -362.5q0 -225 -124 -344t-357 -119h-660zM446 256h287q123 0 181.5 55.5t58.5 169.5q0 223 -240 224h-287v-449zM672 1640v250h225v-250h-225zM1053 1640v250h225v-250h-225zM1503 0v1493h307v-1493h-307z" />
<glyph unicode="&#x4f9;" horiz-adv-x="1660" d="M123 0v1106h287v-371h241q217 0 328 -106.5t111 -284.5q0 -70 -30 -147.5t-79 -116.5q-94 -80 -279 -80h-579zM410 225h223q172 0 172 144q0 70 -48 105.5t-134 35.5h-213v-285zM494 1247v250h225v-250h-225zM874 1247v250h226v-250h-226zM1184 0v1106h286v-1106h-286z " />
<glyph unicode="&#xe3f;" horiz-adv-x="1478" d="M168 0v1493h481v170h164v-170h21q225 0 356 -113.5t131 -279.5q0 -96 -47 -166t-158 -141q248 -145 248 -363q0 -193 -136 -311.5t-388 -118.5h-27v-170h-164v170h-481zM475 256h174v387h-174v-387zM475 899h174v338h-174v-338zM813 256h29q227 0 227 193q0 195 -227 194 h-29v-387zM813 899q213 4 213 168q0 166 -213 170v-338z" />
<glyph unicode="&#x1e0c;" horiz-adv-x="1478" d="M158 0v1493h583q172 0 284 -41t187 -131q182 -217 182.5 -573.5t-182.5 -573.5q-147 -174 -471 -174h-583zM465 256h276q346 0 346 489q0 492 -346 492h-276v-981zM598 -133h287v-287h-287v287z" />
<glyph unicode="&#x1e0d;" horiz-adv-x="1251" d="M59 551q0 250 133.5 411.5t331.5 161.5q201 0 305 -161v530h287v-1493h-287v127q-111 -145 -305 -145q-213 0 -339 162.5t-126 406.5zM346 550.5q0 -151.5 66.5 -240.5t175 -89t175 88t66.5 238q0 158 -65.5 248t-175.5 90q-109 0 -175.5 -91.5t-66.5 -243zM483 -133h287 v-287h-287v287z" />
<glyph unicode="&#x1e0e;" horiz-adv-x="1478" d="M158 0v1493h583q172 0 284 -41t187 -131q182 -217 182.5 -573.5t-182.5 -573.5q-147 -174 -471 -174h-583zM434 -195h613v-161h-613v161zM465 256h276q346 0 346 489q0 492 -346 492h-276v-981z" />
<glyph unicode="&#x1e0f;" horiz-adv-x="1251" d="M59 551q0 250 133.5 411.5t331.5 161.5q201 0 305 -161v530h287v-1493h-287v127q-111 -145 -305 -145q-213 0 -339 162.5t-126 406.5zM317 -195h613v-161h-613v161zM346 550.5q0 -151.5 66.5 -240.5t175 -89t175 88t66.5 238q0 158 -65.5 248t-175.5 90 q-109 0 -175.5 -91.5t-66.5 -243z" />
<glyph unicode="&#x1e24;" horiz-adv-x="1478" d="M139 0v1493h307v-559h592v559h308v-1493h-308v678h-592v-678h-307zM600 -133h287v-287h-287v287z" />
<glyph unicode="&#x1e25;" horiz-adv-x="1251" d="M137 0v1493h287v-547q119 178 324 178q164 0 262 -98t98 -285v-741h-287v676q0 205 -176 205q-96 0 -158.5 -61.5t-62.5 -155.5v-664h-287zM479 -133h287v-287h-287v287z" />
<glyph unicode="&#x1e26;" horiz-adv-x="1478" d="M139 0v1493h307v-559h592v559h308v-1493h-308v678h-592v-678h-307zM416 1632v236h258v-236h-258zM815 1632v236h258v-236h-258z" />
<glyph unicode="&#x1e27;" horiz-adv-x="1251" d="M137 0v1493h287v-547q119 178 324 178q164 0 262 -98t98 -285v-741h-287v676q0 205 -176 205q-96 0 -158.5 -61.5t-62.5 -155.5v-664h-287zM297 1632v236h258v-236h-258zM696 1632v236h258v-236h-258z" />
<glyph unicode="&#x1e2a;" horiz-adv-x="1478" d="M139 0v1493h307v-559h592v559h308v-1493h-308v678h-592v-678h-307zM373 -152h145q16 -82 225 -81q211 0 224 81h145q-25 -250 -373 -249q-166 0 -265 61t-101 188z" />
<glyph unicode="&#x1e2b;" horiz-adv-x="1251" d="M137 0v1493h287v-547q119 178 324 178q164 0 262 -98t98 -285v-741h-287v676q0 205 -176 205q-96 0 -158.5 -61.5t-62.5 -155.5v-664h-287zM252 -152h145q16 -82 226 -81q211 0 223 81h145q-25 -250 -373 -249q-166 0 -265 61t-101 188z" />
<glyph unicode="&#x1e36;" horiz-adv-x="1251" d="M164 0v1493h307v-1237h715v-256h-1022zM532 -133h287v-287h-287v287z" />
<glyph unicode="&#x1e37;" horiz-adv-x="569" d="M137 0v1493h287v-1493h-287zM141 -133h287v-287h-287v287z" />
<glyph unicode="&#x1e38;" horiz-adv-x="1251" d="M10 1669v162h613v-162h-613zM164 0v1493h307v-1237h715v-256h-1022zM532 -133h287v-287h-287v287z" />
<glyph unicode="&#x1e39;" horiz-adv-x="569" d="M-27 1669v162h613v-162h-613zM137 0v1493h287v-1493h-287zM141 -133h287v-287h-287v287z" />
<glyph unicode="&#x1e42;" horiz-adv-x="1705" d="M135 0v1493h459l270 -1188l262 1188h463v-1493h-307v1163l-264 -1163h-307l-269 1163v-1163h-307zM711 -133h286v-287h-286v287z" />
<glyph unicode="&#x1e43;" horiz-adv-x="1820" d="M123 0v1106h285v-137q72 84 140 119.5t163 35.5q217 0 301 -163q123 164 323 163q166 0 259.5 -90t93.5 -252v-782h-287v737q0 66 -42 105t-114 39q-92 0 -144 -57.5t-52 -159.5v-664h-287v737q0 66 -42 105t-114 39q-92 0 -144 -57.5t-52 -159.5v-664h-287zM768 -133 h287v-287h-287v287z" />
<glyph unicode="&#x1e44;" horiz-adv-x="1478" d="M139 0v1493h316l592 -1016v1016h307v-1493h-307l-601 1032v-1032h-307zM598 1606v286h287v-286h-287z" />
<glyph unicode="&#x1e45;" horiz-adv-x="1251" d="M129 0v1106h287v-160q119 178 332 178q176 0 273 -100t97 -283v-741h-287v682q0 199 -184 199q-104 0 -167.5 -59.5t-63.5 -157.5v-664h-287zM483 1239v287h287v-287h-287z" />
<glyph unicode="&#x1e46;" horiz-adv-x="1478" d="M139 0v1493h316l592 -1016v1016h307v-1493h-307l-601 1032v-1032h-307zM596 -133h287v-287h-287v287z" />
<glyph unicode="&#x1e47;" horiz-adv-x="1251" d="M129 0v1106h287v-160q119 178 332 178q176 0 273 -100t97 -283v-741h-287v682q0 199 -184 199q-104 0 -167.5 -59.5t-63.5 -157.5v-664h-287zM483 -133h287v-287h-287v287z" />
<glyph unicode="&#x1e58;" horiz-adv-x="1478" d="M164 0v1493h801q193 0 297 -111.5t104 -291.5q0 -270 -252 -369q55 -23 82 -36t54.5 -44t36.5 -55.5t18.5 -90t11.5 -129t4 -188.5q0 -86 65 -123v-55h-329q-29 53 -38 102.5t-9 153.5l4 158q0 94 -45 136t-146 42h-352v-592h-307zM471 848h371q125 0 171 47t46 152 q0 100 -47 145t-170 45h-371v-389zM598 1606v286h287v-286h-287z" />
<glyph unicode="&#x1e59;" horiz-adv-x="796" d="M129 0v1106h287v-217q45 113 127 174t180 61q18 0 35 -2v-291q-51 8 -90 9q-252 0 -252 -252v-588h-287zM272 1239v287h287v-287h-287z" />
<glyph unicode="&#x1e5a;" horiz-adv-x="1478" d="M164 0v1493h801q193 0 297 -111.5t104 -291.5q0 -270 -252 -369q55 -23 82 -36t54.5 -44t36.5 -55.5t18.5 -90t11.5 -129t4 -188.5q0 -86 65 -123v-55h-329q-29 53 -38 102.5t-9 153.5l4 158q0 94 -45 136t-146 42h-352v-592h-307zM471 848h371q125 0 171 47t46 152 q0 100 -47 145t-170 45h-371v-389zM596 -133h287v-287h-287v287z" />
<glyph unicode="&#x1e5b;" horiz-adv-x="796" d="M129 0v1106h287v-217q45 113 127 174t180 61q18 0 35 -2v-291q-51 8 -90 9q-252 0 -252 -252v-588h-287zM129 -133h287v-287h-287v287z" />
<glyph unicode="&#x1e5c;" horiz-adv-x="1478" d="M164 0v1493h801q193 0 297 -111.5t104 -291.5q0 -270 -252 -369q55 -23 82 -36t54.5 -44t36.5 -55.5t18.5 -90t11.5 -129t4 -188.5q0 -86 65 -123v-55h-329q-29 53 -38 102.5t-9 153.5l4 158q0 94 -45 136t-146 42h-352v-592h-307zM432 1669v162h612v-162h-612zM471 848 h371q125 0 171 47t46 152q0 100 -47 145t-170 45h-371v-389zM596 -133h287v-287h-287v287z" />
<glyph unicode="&#x1e5d;" horiz-adv-x="796" d="M106 1321v162h613v-162h-613zM129 0v1106h287v-217q45 113 127 174t180 61q18 0 35 -2v-291q-51 8 -90 9q-252 0 -252 -252v-588h-287zM129 -133h287v-287h-287v287z" />
<glyph unicode="&#x1e62;" horiz-adv-x="1366" d="M66 469h299q0 -119 89 -183.5t246 -64.5q141 0 221 49t80 142q0 88 -61 131t-219 73l-209 41q-227 45 -323.5 136.5t-96.5 265.5q0 219 148.5 339t416.5 120q276 0 431 -123t155 -357h-287q0 113 -82.5 173.5t-230.5 60.5q-119 0 -188.5 -50.5t-69.5 -134.5 q0 -82 59.5 -121.5t223.5 -72.5l233 -45q209 -41 302 -133t93 -266q0 -225 -160.5 -349.5t-451.5 -124.5q-289 0 -453.5 128t-164.5 366zM528 -133h287v-287h-287v287z" />
<glyph unicode="&#x1e63;" d="M59 350h281q18 -84 69.5 -113.5t155.5 -29.5q213 0 213 94q0 45 -96 76l-342 106q-145 45 -193.5 104.5t-48.5 168.5q0 170 122 269t333 99q223 0 350 -99t131 -275h-276q-2 150 -207 149q-76 0 -121 -27.5t-45 -74.5q0 -35 20.5 -52.5t79.5 -33.5l363 -105 q217 -63 217 -264v-14q0 -168 -125 -257t-358 -89q-511 -1 -523 368zM426 -133h287v-287h-287v287z" />
<glyph unicode="&#x1e6c;" horiz-adv-x="1251" d="M29 1237v256h1196v-256h-437v-1237h-307v1237h-452zM483 -133h287v-287h-287v287z" />
<glyph unicode="&#x1e6d;" horiz-adv-x="681" d="M29 893v190h141v297h287v-297h159v-190h-159v-578q0 -74 18.5 -97t75.5 -23q23 0 65 6v-201q-12 0 -70.5 -4t-94.5 -4q-143 0 -212 58.5t-69 187.5v655h-141zM199 -133h286v-287h-286v287z" />
<glyph unicode="&#x1e6e;" horiz-adv-x="1251" d="M29 1237v256h1196v-256h-437v-1237h-307v1237h-452zM319 -195h613v-161h-613v161z" />
<glyph unicode="&#x1e6f;" horiz-adv-x="681" d="M29 893v190h141v297h287v-297h159v-190h-159v-578q0 -74 18.5 -97t75.5 -23q23 0 65 6v-201q-12 0 -70.5 -4t-94.5 -4q-143 0 -212 58.5t-69 187.5v655h-141zM33 -195h612v-161h-612v161z" />
<glyph unicode="&#x1e80;" horiz-adv-x="1933" d="M27 1493h325l232 -1118l231 1118h303l242 -1120l223 1120h326l-414 -1493h-276l-250 1165l-244 -1165h-276zM582 1886h338l155 -276h-217z" />
<glyph unicode="&#x1e81;" horiz-adv-x="1593" d="M10 1106h297l176 -774l168 774h287l166 -774l168 774h297l-314 -1106h-297l-165 780l-177 -780h-294zM436 1540h320l143 -315h-205z" />
<glyph unicode="&#x1e82;" horiz-adv-x="1933" d="M27 1493h325l232 -1118l231 1118h303l242 -1120l223 1120h326l-414 -1493h-276l-250 1165l-244 -1165h-276zM858 1610l156 276h338l-277 -276h-217z" />
<glyph unicode="&#x1e83;" horiz-adv-x="1593" d="M10 1106h297l176 -774l168 774h287l166 -774l168 774h297l-314 -1106h-297l-165 780l-177 -780h-294zM694 1225l144 315h319l-258 -315h-205z" />
<glyph unicode="&#x1e84;" horiz-adv-x="1933" d="M27 1493h325l232 -1118l231 1118h303l242 -1120l223 1120h326l-414 -1493h-276l-250 1165l-244 -1165h-276zM639 1632v236h258v-236h-258zM1038 1632v236h258v-236h-258z" />
<glyph unicode="&#x1e85;" horiz-adv-x="1593" d="M10 1106h297l176 -774l168 774h287l166 -774l168 774h297l-314 -1106h-297l-165 780l-177 -780h-294zM467 1266v235h258v-235h-258zM866 1266v235h258v-235h-258z" />
<glyph unicode="&#x1e92;" horiz-adv-x="1251" d="M61 0v256l764 981h-764v256h1123v-256l-762 -981h762v-256h-1123zM479 -133h287v-287h-287v287z" />
<glyph unicode="&#x1e93;" horiz-adv-x="1024" d="M43 0v231l547 643h-510v232h860v-232l-543 -643h561v-231h-915zM369 -133h286v-287h-286v287z" />
<glyph unicode="&#x1e97;" horiz-adv-x="681" d="M-14 1520v235h258v-235h-258zM29 893v190h141v297h287v-297h159v-190h-159v-578q0 -74 18.5 -97t75.5 -23q23 0 65 6v-201q-12 0 -70.5 -4t-94.5 -4q-143 0 -212 58.5t-69 187.5v655h-141zM385 1520v235h258v-235h-258z" />
<glyph unicode="&#x1ea0;" horiz-adv-x="1478" d="M53 0l531 1493h340l516 -1493h-316l-98 301h-559l-100 -301h-314zM553 557h389l-194 584zM596 -133h287v-287h-287v287z" />
<glyph unicode="&#x1ea1;" d="M57 299q0 147 79 225t247 109l115 20q72 12 123 18.5t78.5 31t27.5 79.5q0 111 -166 111q-106 0 -149 -33t-54 -119h-276q27 383 473 383q453 0 453 -340v-614q0 -76 65 -135v-35h-311q-33 41 -33 139q-152 -158 -336 -157q-145 0 -240.5 81.5t-95.5 235.5zM344 332 q0 -119 156 -119q109 0 168 67.5t59 192.5v49q-39 -18 -121 -35l-98 -18q-92 -16 -128 -46t-36 -91zM412 -133h286v-287h-286v287z" />
<glyph unicode="&#x1ea2;" horiz-adv-x="1478" d="M53 0l531 1493h340l516 -1493h-316l-98 301h-559l-100 -301h-314zM522 1806q0 213 228 213q102 0 167.5 -50t65.5 -128q0 -47 -23.5 -78.5t-89.5 -70.5q-39 -23 -49 -37.5t-10 -50.5h-127q0 55 20.5 90t75.5 71q37 27 48.5 39.5t11.5 32.5q0 33 -24.5 53.5t-63.5 20.5 q-92 0 -93 -105h-137zM553 557h389l-194 584z" />
<glyph unicode="&#x1ea3;" d="M57 299q0 147 79 225t247 109l115 20q72 12 123 18.5t78.5 31t27.5 79.5q0 111 -166 111q-106 0 -149 -33t-54 -119h-276q27 383 473 383q453 0 453 -340v-614q0 -76 65 -135v-35h-311q-33 41 -33 139q-152 -158 -336 -157q-145 0 -240.5 81.5t-95.5 235.5zM324 1419 q0 213 227 213q102 0 167.5 -50t65.5 -128q0 -47 -23.5 -79t-88.5 -70q-39 -23 -49.5 -37.5t-10.5 -50.5h-127q0 55 20.5 89.5t76.5 71.5q37 27 48 39.5t11 32.5q0 33 -24.5 53.5t-63.5 20.5q-92 0 -92 -105h-137zM344 332q0 -119 156 -119q109 0 168 67.5t59 192.5v49 q-39 -18 -121 -35l-98 -18q-92 -16 -128 -46t-36 -91z" />
<glyph unicode="&#x1ea4;" horiz-adv-x="1478" d="M53 0l531 1493h340l516 -1493h-316l-98 301h-559l-100 -301h-314zM365 1612l266 276h262l254 -276h-193l-200 143l-203 -143h-186zM553 557h389l-194 584zM645 1929l156 277h338l-277 -277h-217z" />
<glyph unicode="&#x1ea5;" d="M57 299q0 147 79 225t247 109l115 20q72 12 123 18.5t78.5 31t27.5 79.5q0 111 -166 111q-106 0 -149 -33t-54 -119h-276q27 383 473 383q453 0 453 -340v-614q0 -76 65 -135v-35h-311q-33 41 -33 139q-152 -158 -336 -157q-145 0 -240.5 81.5t-95.5 235.5zM166 1225 l266 276h262l254 -276h-192l-201 143l-203 -143h-186zM344 332q0 -119 156 -119q109 0 168 67.5t59 192.5v49q-39 -18 -121 -35l-98 -18q-92 -16 -128 -46t-36 -91zM446 1542l156 277h338l-276 -277h-218z" />
<glyph unicode="&#x1ea6;" horiz-adv-x="1478" d="M53 0l531 1493h340l516 -1493h-316l-98 301h-559l-100 -301h-314zM365 1612l266 276h262l254 -276h-193l-200 143l-203 -143h-186zM369 2206h338l155 -277h-217zM553 557h389l-194 584z" />
<glyph unicode="&#x1ea7;" d="M57 299q0 147 79 225t247 109l115 20q72 12 123 18.5t78.5 31t27.5 79.5q0 111 -166 111q-106 0 -149 -33t-54 -119h-276q27 383 473 383q453 0 453 -340v-614q0 -76 65 -135v-35h-311q-33 41 -33 139q-152 -158 -336 -157q-145 0 -240.5 81.5t-95.5 235.5zM166 1225 l266 276h262l254 -276h-192l-201 143l-203 -143h-186zM170 1819h338l156 -277h-218zM344 332q0 -119 156 -119q109 0 168 67.5t59 192.5v49q-39 -18 -121 -35l-98 -18q-92 -16 -128 -46t-36 -91z" />
<glyph unicode="&#x1ea8;" horiz-adv-x="1478" d="M53 0l531 1493h340l516 -1493h-316l-98 301h-559l-100 -301h-314zM365 1612l266 276h262l254 -276h-193l-200 143l-203 -143h-186zM553 557h389l-194 584zM686 2111q0 193 227 193q102 0 168 -45t66 -117q0 -43 -23.5 -70.5t-89.5 -62.5q-39 -20 -49 -33.5t-10 -46.5 h-127q0 49 20.5 81t75.5 65q37 23 48.5 34t11.5 29q0 29 -25 48.5t-64 19.5q-92 0 -92 -95h-137z" />
<glyph unicode="&#x1ea9;" d="M57 299q0 147 79 225t247 109l115 20q72 12 123 18.5t78.5 31t27.5 79.5q0 111 -166 111q-106 0 -149 -33t-54 -119h-276q27 383 473 383q453 0 453 -340v-614q0 -76 65 -135v-35h-311q-33 41 -33 139q-152 -158 -336 -157q-145 0 -240.5 81.5t-95.5 235.5zM166 1225 l266 276h262l254 -276h-192l-201 143l-203 -143h-186zM344 332q0 -119 156 -119q109 0 168 67.5t59 192.5v49q-39 -18 -121 -35l-98 -18q-92 -16 -128 -46t-36 -91zM487 1724q0 193 228 193q102 0 167.5 -45t65.5 -117q0 -43 -23.5 -70.5t-88.5 -62.5q-39 -20 -49.5 -33.5 t-10.5 -46.5h-127q0 49 20.5 81t75.5 65q37 23 48.5 34t11.5 29q0 29 -24.5 48.5t-63.5 19.5q-92 0 -92 -95h-138z" />
<glyph unicode="&#x1eaa;" horiz-adv-x="1478" d="M53 0l531 1493h340l516 -1493h-316l-98 301h-559l-100 -301h-314zM365 1612l266 276h262l254 -276h-193l-200 143l-203 -143h-186zM395 1950q6 119 57.5 186.5t135.5 67.5q41 0 114 -27l146 -51q29 -12 70 -12q66 0 73 98h129q-12 -260 -194 -260q-49 0 -113 24l-145 54 q-37 12 -62 12q-37 0 -55.5 -21.5t-26.5 -70.5h-129zM553 557h389l-194 584z" />
<glyph unicode="&#x1eab;" d="M57 299q0 147 79 225t247 109l115 20q72 12 123 18.5t78.5 31t27.5 79.5q0 111 -166 111q-106 0 -149 -33t-54 -119h-276q27 383 473 383q453 0 453 -340v-614q0 -76 65 -135v-35h-311q-33 41 -33 139q-152 -158 -336 -157q-145 0 -240.5 81.5t-95.5 235.5zM166 1225 l266 276h262l254 -276h-192l-201 143l-203 -143h-186zM197 1563q6 119 57 186.5t135 67.5q41 0 115 -27l145 -51q29 -12 70 -13q63 0 74 99h129q-12 -260 -195 -260q-47 0 -113 24l-145 53q-37 12 -61 13q-37 0 -55.5 -21.5t-26.5 -70.5h-129zM344 332q0 -119 156 -119 q109 0 168 67.5t59 192.5v49q-39 -18 -121 -35l-98 -18q-92 -16 -128 -46t-36 -91z" />
<glyph unicode="&#x1eac;" horiz-adv-x="1478" d="M53 0l531 1493h340l516 -1493h-316l-98 301h-559l-100 -301h-314zM362 1612l267 276h262l254 -276h-193l-200 143l-203 -143h-187zM553 557h389l-194 584zM596 -133h287v-287h-287v287z" />
<glyph unicode="&#x1ead;" d="M57 299q0 147 79 225t247 109l115 20q72 12 123 18.5t78.5 31t27.5 79.5q0 111 -166 111q-106 0 -149 -33t-54 -119h-276q27 383 473 383q453 0 453 -340v-614q0 -76 65 -135v-35h-311q-33 41 -33 139q-152 -158 -336 -157q-145 0 -240.5 81.5t-95.5 235.5zM209 1225 l221 315h260l211 -315h-180l-168 157l-168 -157h-176zM344 332q0 -119 156 -119q109 0 168 67.5t59 192.5v49q-39 -18 -121 -35l-98 -18q-92 -16 -128 -46t-36 -91zM412 -133h286v-287h-286v287z" />
<glyph unicode="&#x1eae;" horiz-adv-x="1478" d="M53 0l531 1493h340l516 -1493h-316l-98 301h-559l-100 -301h-314zM385 1874h145q16 -82 226 -82q211 0 223 82h145q-25 -250 -372 -250q-166 0 -265.5 61.5t-101.5 188.5zM553 557h389l-194 584zM645 1935l156 277h338l-277 -277h-217z" />
<glyph unicode="&#x1eaf;" d="M57 299q0 147 79 225t247 109l115 20q72 12 123 18.5t78.5 31t27.5 79.5q0 111 -166 111q-106 0 -149 -33t-54 -119h-276q27 383 473 383q453 0 453 -340v-614q0 -76 65 -135v-35h-311q-33 41 -33 139q-152 -158 -336 -157q-145 0 -240.5 81.5t-95.5 235.5zM186 1487h146 q16 -82 225 -82q211 0 223 82h146q-25 -250 -373 -250q-166 0 -265.5 61.5t-101.5 188.5zM344 332q0 -119 156 -119q109 0 168 67.5t59 192.5v49q-39 -18 -121 -35l-98 -18q-92 -16 -128 -46t-36 -91zM446 1548l156 277h338l-276 -277h-218z" />
<glyph unicode="&#x1eb0;" horiz-adv-x="1478" d="M53 0l531 1493h340l516 -1493h-316l-98 301h-559l-100 -301h-314zM369 2212h338l155 -277h-217zM385 1874h145q16 -82 226 -82q211 0 223 82h145q-25 -250 -372 -250q-166 0 -265.5 61.5t-101.5 188.5zM553 557h389l-194 584z" />
<glyph unicode="&#x1eb1;" d="M57 299q0 147 79 225t247 109l115 20q72 12 123 18.5t78.5 31t27.5 79.5q0 111 -166 111q-106 0 -149 -33t-54 -119h-276q27 383 473 383q453 0 453 -340v-614q0 -76 65 -135v-35h-311q-33 41 -33 139q-152 -158 -336 -157q-145 0 -240.5 81.5t-95.5 235.5zM170 1825h338 l156 -277h-218zM186 1487h146q16 -82 225 -82q211 0 223 82h146q-25 -250 -373 -250q-166 0 -265.5 61.5t-101.5 188.5zM344 332q0 -119 156 -119q109 0 168 67.5t59 192.5v49q-39 -18 -121 -35l-98 -18q-92 -16 -128 -46t-36 -91z" />
<glyph unicode="&#x1eb2;" horiz-adv-x="1478" d="M53 0l531 1493h340l516 -1493h-316l-98 301h-559l-100 -301h-314zM385 1874h145q16 -82 226 -82q211 0 223 82h145q-25 -250 -372 -250q-166 0 -265.5 61.5t-101.5 188.5zM524 2036q0 193 228 192q102 0 167.5 -45t65.5 -117q0 -43 -23.5 -70.5t-89.5 -62.5 q-39 -20 -49 -33.5t-10 -46.5h-127q0 49 20.5 81t75.5 65q37 23 48.5 34t11.5 29q0 29 -24.5 48.5t-63.5 19.5q-92 0 -92 -94h-138zM553 557h389l-194 584z" />
<glyph unicode="&#x1eb3;" d="M57 299q0 147 79 225t247 109l115 20q72 12 123 18.5t78.5 31t27.5 79.5q0 111 -166 111q-106 0 -149 -33t-54 -119h-276q27 383 473 383q453 0 453 -340v-614q0 -76 65 -135v-35h-311q-33 41 -33 139q-152 -158 -336 -157q-145 0 -240.5 81.5t-95.5 235.5zM186 1487h146 q16 -82 225 -82q211 0 223 82h146q-25 -250 -373 -250q-166 0 -265.5 61.5t-101.5 188.5zM326 1649q0 193 227 192q102 0 167.5 -45t65.5 -117q0 -43 -23.5 -70.5t-88.5 -62.5q-39 -20 -49.5 -33.5t-10.5 -46.5h-127q0 49 20.5 81t76.5 65q37 23 48 34t11 29 q0 29 -24.5 48.5t-63.5 19.5q-92 0 -92 -94h-137zM344 332q0 -119 156 -119q109 0 168 67.5t59 192.5v49q-39 -18 -121 -35l-98 -18q-92 -16 -128 -46t-36 -91z" />
<glyph unicode="&#x1eb4;" horiz-adv-x="1478" d="M53 0l531 1493h340l516 -1493h-316l-98 301h-559l-100 -301h-314zM385 1874h145q16 -82 226 -82q211 0 223 82h145q-25 -250 -372 -250q-166 0 -265.5 61.5t-101.5 188.5zM395 1956q6 119 57.5 186.5t135.5 67.5q41 0 114 -27l146 -51q29 -12 70 -12q66 0 73 98h129 q-12 -260 -194 -260q-49 0 -113 24l-145 54q-37 12 -62 12q-37 0 -55.5 -21.5t-26.5 -70.5h-129zM553 557h389l-194 584z" />
<glyph unicode="&#x1eb5;" d="M57 299q0 147 79 225t247 109l115 20q72 12 123 18.5t78.5 31t27.5 79.5q0 111 -166 111q-106 0 -149 -33t-54 -119h-276q27 383 473 383q453 0 453 -340v-614q0 -76 65 -135v-35h-311q-33 41 -33 139q-152 -158 -336 -157q-145 0 -240.5 81.5t-95.5 235.5zM186 1487h146 q16 -82 225 -82q211 0 223 82h146q-25 -250 -373 -250q-166 0 -265.5 61.5t-101.5 188.5zM197 1569q6 119 57 186.5t135 67.5q41 0 115 -27l145 -51q29 -12 70 -12q63 0 74 98h129q-12 -260 -195 -260q-47 0 -113 24l-145 54q-37 12 -61 12q-37 0 -55.5 -21.5t-26.5 -70.5 h-129zM344 332q0 -119 156 -119q109 0 168 67.5t59 192.5v49q-39 -18 -121 -35l-98 -18q-92 -16 -128 -46t-36 -91z" />
<glyph unicode="&#x1eb6;" horiz-adv-x="1478" d="M53 0l531 1493h340l516 -1493h-316l-98 301h-559l-100 -301h-314zM383 1874h145q16 -82 226 -82q211 0 223 82h145q-25 -250 -372 -250q-166 0 -265.5 61.5t-101.5 188.5zM553 557h389l-194 584zM596 -133h287v-287h-287v287z" />
<glyph unicode="&#x1eb7;" d="M57 299q0 147 79 225t247 109l115 20q72 12 123 18.5t78.5 31t27.5 79.5q0 111 -166 111q-106 0 -149 -33t-54 -119h-276q27 383 473 383q453 0 453 -340v-614q0 -76 65 -135v-35h-311q-33 41 -33 139q-152 -158 -336 -157q-145 0 -240.5 81.5t-95.5 235.5zM213 1538h164 q0 -63 49 -97t123 -34t123 34t49 97h164q0 -127 -102.5 -218t-233.5 -91t-233.5 91t-102.5 218zM344 332q0 -119 156 -119q109 0 168 67.5t59 192.5v49q-39 -18 -121 -35l-98 -18q-92 -16 -128 -46t-36 -91zM412 -133h286v-287h-286v287z" />
<glyph unicode="&#x1eb8;" horiz-adv-x="1366" d="M162 0v1493h1079v-256h-772v-338h715v-256h-715v-387h809v-256h-1116zM541 -133h286v-287h-286v287z" />
<glyph unicode="&#x1eb9;" d="M45 539q0 276 136 430.5t376 154.5q244 0 381 -162.5t137 -449.5l-2 -35h-741q6 -154 63.5 -215t165.5 -61q184 0 219 110h283q-47 -160 -184.5 -244.5t-327.5 -84.5q-238 0 -372 146.5t-134 410.5zM336 668h440q-10 117 -69.5 177t-153.5 60q-188 1 -217 -237zM414 -133 h286v-287h-286v287z" />
<glyph unicode="&#x1eba;" horiz-adv-x="1366" d="M162 0v1493h1079v-256h-772v-338h715v-256h-715v-387h809v-256h-1116zM471 1806q0 213 227 213q102 0 168 -50t66 -128q0 -47 -23.5 -78.5t-89.5 -70.5q-39 -23 -49 -37.5t-10 -50.5h-127q0 55 20.5 90t75.5 71q37 27 48 39.5t11 32.5q0 33 -24.5 53.5t-63.5 20.5 q-92 0 -92 -105h-137z" />
<glyph unicode="&#x1ebb;" d="M45 539q0 276 136 430.5t376 154.5q244 0 381 -162.5t137 -449.5l-2 -35h-741q6 -154 63.5 -215t165.5 -61q184 0 219 110h283q-47 -160 -184.5 -244.5t-327.5 -84.5q-238 0 -372 146.5t-134 410.5zM326 1419q0 213 227 213q102 0 167.5 -50t65.5 -128q0 -47 -23.5 -79 t-88.5 -70q-39 -23 -49.5 -37.5t-10.5 -50.5h-127q0 55 20.5 89.5t76.5 71.5q37 27 48 39.5t11 32.5q0 33 -24.5 53.5t-63.5 20.5q-92 0 -92 -105h-137zM336 668h440q-10 117 -69.5 177t-153.5 60q-188 1 -217 -237z" />
<glyph unicode="&#x1ebc;" horiz-adv-x="1366" d="M162 0v1493h1079v-256h-772v-338h715v-256h-715v-387h809v-256h-1116zM344 1618q6 119 57.5 186.5t135.5 67.5q41 0 114 -27l146 -51q29 -12 69 -12q63 0 74 98h129q-12 -260 -195 -260q-47 0 -112 25l-146 53q-37 12 -61 12q-37 0 -55.5 -21.5t-26.5 -70.5h-129z" />
<glyph unicode="&#x1ebd;" d="M45 539q0 276 136 430.5t376 154.5q244 0 381 -162.5t137 -449.5l-2 -35h-741q6 -154 63.5 -215t165.5 -61q184 0 219 110h283q-47 -160 -184.5 -244.5t-327.5 -84.5q-238 0 -372 146.5t-134 410.5zM197 1251q6 119 57 186.5t135 67.5q41 0 115 -26l145 -52 q29 -12 70 -12q63 0 74 98h129q-12 -260 -195 -260q-47 0 -113 25l-145 53q-37 12 -61 12q-37 0 -55.5 -21.5t-26.5 -70.5h-129zM336 668h440q-10 117 -69.5 177t-153.5 60q-188 1 -217 -237z" />
<glyph unicode="&#x1ebe;" horiz-adv-x="1366" d="M162 0v1493h1079v-256h-772v-338h715v-256h-715v-387h809v-256h-1116zM313 1612l267 276h262l254 -276h-193l-201 143l-202 -143h-187zM594 1929l156 277h337l-276 -277h-217z" />
<glyph unicode="&#x1ebf;" d="M45 539q0 276 136 430.5t376 154.5q244 0 381 -162.5t137 -449.5l-2 -35h-741q6 -154 63.5 -215t165.5 -61q184 0 219 110h283q-47 -160 -184.5 -244.5t-327.5 -84.5q-238 0 -372 146.5t-134 410.5zM168 1225l266 276h262l254 -276h-192l-201 143l-203 -143h-186z M336 668h440q-10 117 -69.5 177t-153.5 60q-188 1 -217 -237zM449 1542l155 277h338l-276 -277h-217z" />
<glyph unicode="&#x1ec0;" horiz-adv-x="1366" d="M162 0v1493h1079v-256h-772v-338h715v-256h-715v-387h809v-256h-1116zM313 1612l267 276h262l254 -276h-193l-201 143l-202 -143h-187zM317 2206h338l156 -277h-217z" />
<glyph unicode="&#x1ec1;" d="M45 539q0 276 136 430.5t376 154.5q244 0 381 -162.5t137 -449.5l-2 -35h-741q6 -154 63.5 -215t165.5 -61q184 0 219 110h283q-47 -160 -184.5 -244.5t-327.5 -84.5q-238 0 -372 146.5t-134 410.5zM168 1225l266 276h262l254 -276h-192l-201 143l-203 -143h-186z M172 1819h338l156 -277h-217zM336 668h440q-10 117 -69.5 177t-153.5 60q-188 1 -217 -237z" />
<glyph unicode="&#x1ec2;" horiz-adv-x="1366" d="M162 0v1493h1079v-256h-772v-338h715v-256h-715v-387h809v-256h-1116zM313 1612l267 276h262l254 -276h-193l-201 143l-202 -143h-187zM635 2111q0 193 227 193q102 0 168 -45t66 -117q0 -43 -23.5 -70.5t-89.5 -62.5q-39 -20 -49 -33.5t-10 -46.5h-127q0 49 20.5 81 t75.5 65q37 23 48 34t11 29q0 29 -24.5 48.5t-63.5 19.5q-92 0 -92 -95h-137z" />
<glyph unicode="&#x1ec3;" d="M45 539q0 276 136 430.5t376 154.5q244 0 381 -162.5t137 -449.5l-2 -35h-741q6 -154 63.5 -215t165.5 -61q184 0 219 110h283q-47 -160 -184.5 -244.5t-327.5 -84.5q-238 0 -372 146.5t-134 410.5zM168 1225l266 276h262l254 -276h-192l-201 143l-203 -143h-186z M336 668h440q-10 117 -69.5 177t-153.5 60q-188 1 -217 -237zM489 1724q0 193 228 193q102 0 167.5 -45t65.5 -117q0 -43 -23.5 -70.5t-88.5 -62.5q-39 -20 -49.5 -33.5t-10.5 -46.5h-127q0 49 20.5 81t76.5 65q37 23 48 34t11 29q0 29 -24.5 48.5t-63.5 19.5q-92 0 -92 -95 h-138z" />
<glyph unicode="&#x1ec4;" horiz-adv-x="1366" d="M162 0v1493h1079v-256h-772v-338h715v-256h-715v-387h809v-256h-1116zM313 1612l267 276h262l254 -276h-193l-201 143l-202 -143h-187zM344 1950q6 119 57.5 186.5t135.5 67.5q41 0 114 -27l146 -51q29 -12 69 -12q63 0 74 98h129q-12 -260 -195 -260q-47 0 -112 24 l-146 54q-37 12 -61 12q-37 0 -55.5 -21.5t-26.5 -70.5h-129z" />
<glyph unicode="&#x1ec5;" d="M45 539q0 276 136 430.5t376 154.5q244 0 381 -162.5t137 -449.5l-2 -35h-741q6 -154 63.5 -215t165.5 -61q184 0 219 110h283q-47 -160 -184.5 -244.5t-327.5 -84.5q-238 0 -372 146.5t-134 410.5zM168 1225l266 276h262l254 -276h-192l-201 143l-203 -143h-186z M199 1563q6 119 57 186.5t135 67.5q41 0 115 -27l145 -51q29 -12 70 -13q66 0 74 99h129q-12 -260 -195 -260q-49 0 -113 24l-145 53q-37 12 -61 13q-37 0 -55.5 -21.5t-26.5 -70.5h-129zM336 668h440q-10 117 -69.5 177t-153.5 60q-188 1 -217 -237z" />
<glyph unicode="&#x1ec6;" horiz-adv-x="1366" d="M162 0v1493h1079v-256h-772v-338h715v-256h-715v-387h809v-256h-1116zM311 1612l267 276h262l254 -276h-193l-201 143l-202 -143h-187zM541 -133h286v-287h-286v287z" />
<glyph unicode="&#x1ec7;" d="M45 539q0 276 136 430.5t376 154.5q244 0 381 -162.5t137 -449.5l-2 -35h-741q6 -154 63.5 -215t165.5 -61q184 0 219 110h283q-47 -160 -184.5 -244.5t-327.5 -84.5q-238 0 -372 146.5t-134 410.5zM211 1225l221 315h260l211 -315h-180l-168 157l-168 -157h-176z M336 668h440q-10 117 -69.5 177t-153.5 60q-188 1 -217 -237zM414 -133h286v-287h-286v287z" />
<glyph unicode="&#x1ec8;" horiz-adv-x="569" d="M51 1806q0 213 228 213q102 0 167.5 -50t65.5 -128q0 -47 -23.5 -78.5t-89.5 -70.5q-39 -23 -49 -37.5t-10 -50.5h-127q0 55 20.5 90t75.5 71q37 27 48.5 39.5t11.5 32.5q0 33 -25 53.5t-63 20.5q-92 0 -93 -105h-137zM129 0v1493h307v-1493h-307z" />
<glyph unicode="&#x1ec9;" horiz-adv-x="569" d="M53 1419q0 213 228 213q102 0 167.5 -50t65.5 -128q0 -47 -23.5 -79t-89.5 -70q-39 -23 -49 -37.5t-10 -50.5h-127q0 55 20.5 89.5t75.5 71.5q37 27 48.5 39.5t11.5 32.5q0 33 -24.5 53.5t-63.5 20.5q-92 0 -93 -105h-137zM137 0v1106h287v-1106h-287z" />
<glyph unicode="&#x1eca;" horiz-adv-x="569" d="M129 0v1493h307v-1493h-307zM139 -133h287v-287h-287v287z" />
<glyph unicode="&#x1ecb;" horiz-adv-x="569" d="M137 0v1106h287v-1106h-287zM141 -133h287v-287h-287v287zM141 1239v287h287v-287h-287z" />
<glyph unicode="&#x1ecc;" horiz-adv-x="1593" d="M82 748q0 330 197.5 550t519.5 220q324 0 522.5 -219.5t198.5 -561.5q0 -332 -199 -547t-520 -215q-326 0 -522.5 216.5t-196.5 556.5zM389 748q0 -233 112.5 -371.5t299.5 -138.5q184 0 297.5 137t113.5 364q0 233 -111.5 374.5t-299.5 141.5q-184 0 -298 -140 t-114 -367zM655 -133h287v-287h-287v287z" />
<glyph unicode="&#x1ecd;" horiz-adv-x="1251" d="M72 553q0 270 145 420.5t399 150.5q262 0 405.5 -150.5t143.5 -428.5q0 -264 -146.5 -413.5t-400.5 -149.5q-256 0 -401 149.5t-145 421.5zM358 553q0 -158 71 -249t189 -91q117 0 189 91t72 245q0 162 -71 253t-189.5 91t-189.5 -91t-71 -249zM483 -133h287v-287h-287 v287z" />
<glyph unicode="&#x1ece;" horiz-adv-x="1593" d="M82 748q0 330 197.5 550t519.5 220q324 0 522.5 -219.5t198.5 -561.5q0 -332 -199 -547t-520 -215q-326 0 -522.5 216.5t-196.5 556.5zM389 748q0 -233 112.5 -371.5t299.5 -138.5q184 0 297.5 137t113.5 364q0 233 -111.5 374.5t-299.5 141.5q-184 0 -298 -140 t-114 -367zM567 1806q0 213 228 213q102 0 167.5 -50t65.5 -128q0 -47 -23.5 -78.5t-89.5 -70.5q-39 -23 -49 -37.5t-10 -50.5h-127q0 55 20.5 90t75.5 71q37 27 48.5 39.5t11.5 32.5q0 33 -24.5 53.5t-63.5 20.5q-92 0 -92 -105h-138z" />
<glyph unicode="&#x1ecf;" horiz-adv-x="1251" d="M72 553q0 270 145 420.5t399 150.5q262 0 405.5 -150.5t143.5 -428.5q0 -264 -146.5 -413.5t-400.5 -149.5q-256 0 -401 149.5t-145 421.5zM358 553q0 -158 71 -249t189 -91q117 0 189 91t72 245q0 162 -71 253t-189.5 91t-189.5 -91t-71 -249zM395 1419q0 213 228 213 q102 0 167.5 -50t65.5 -128q0 -47 -23.5 -79t-89.5 -70q-39 -23 -49 -37.5t-10 -50.5h-127q0 55 20.5 89.5t75.5 71.5q37 27 48.5 39.5t11.5 32.5q0 33 -24.5 53.5t-63.5 20.5q-92 0 -93 -105h-137z" />
<glyph unicode="&#x1ed0;" horiz-adv-x="1593" d="M82 748q0 330 197.5 550t519.5 220q324 0 522.5 -219.5t198.5 -561.5q0 -332 -199 -547t-520 -215q-326 0 -522.5 216.5t-196.5 556.5zM389 748q0 -233 112.5 -371.5t299.5 -138.5q184 0 297.5 137t113.5 364q0 233 -111.5 374.5t-299.5 141.5q-184 0 -298 -140 t-114 -367zM410 1612l266 276h262l254 -276h-193l-200 143l-203 -143h-186zM690 1929l156 277h338l-277 -277h-217z" />
<glyph unicode="&#x1ed1;" horiz-adv-x="1251" d="M72 553q0 270 145 420.5t399 150.5q262 0 405.5 -150.5t143.5 -428.5q0 -264 -146.5 -413.5t-400.5 -149.5q-256 0 -401 149.5t-145 421.5zM236 1225l266 276h262l254 -276h-193l-200 143l-203 -143h-186zM358 553q0 -158 71 -249t189 -91q117 0 189 91t72 245 q0 162 -71 253t-189.5 91t-189.5 -91t-71 -249zM516 1542l156 277h338l-277 -277h-217z" />
<glyph unicode="&#x1ed2;" horiz-adv-x="1593" d="M82 748q0 330 197.5 550t519.5 220q324 0 522.5 -219.5t198.5 -561.5q0 -332 -199 -547t-520 -215q-326 0 -522.5 216.5t-196.5 556.5zM389 748q0 -233 112.5 -371.5t299.5 -138.5q184 0 297.5 137t113.5 364q0 233 -111.5 374.5t-299.5 141.5q-184 0 -298 -140 t-114 -367zM410 1612l266 276h262l254 -276h-193l-200 143l-203 -143h-186zM414 2206h338l155 -277h-217z" />
<glyph unicode="&#x1ed3;" horiz-adv-x="1251" d="M72 553q0 270 145 420.5t399 150.5q262 0 405.5 -150.5t143.5 -428.5q0 -264 -146.5 -413.5t-400.5 -149.5q-256 0 -401 149.5t-145 421.5zM236 1225l266 276h262l254 -276h-193l-200 143l-203 -143h-186zM240 1819h338l155 -277h-217zM358 553q0 -158 71 -249t189 -91 q117 0 189 91t72 245q0 162 -71 253t-189.5 91t-189.5 -91t-71 -249z" />
<glyph unicode="&#x1ed4;" horiz-adv-x="1593" d="M82 748q0 330 197.5 550t519.5 220q324 0 522.5 -219.5t198.5 -561.5q0 -332 -199 -547t-520 -215q-326 0 -522.5 216.5t-196.5 556.5zM389 748q0 -233 112.5 -371.5t299.5 -138.5q184 0 297.5 137t113.5 364q0 233 -111.5 374.5t-299.5 141.5q-184 0 -298 -140 t-114 -367zM410 1612l266 276h262l254 -276h-193l-200 143l-203 -143h-186zM731 2111q0 193 227 193q102 0 168 -45t66 -117q0 -43 -23.5 -70.5t-89.5 -62.5q-39 -20 -49 -33.5t-10 -46.5h-127q0 49 20.5 81t75.5 65q37 23 48.5 34t11.5 29q0 29 -25 48.5t-63 19.5 q-92 0 -93 -95h-137z" />
<glyph unicode="&#x1ed5;" horiz-adv-x="1251" d="M72 553q0 270 145 420.5t399 150.5q262 0 405.5 -150.5t143.5 -428.5q0 -264 -146.5 -413.5t-400.5 -149.5q-256 0 -401 149.5t-145 421.5zM236 1225l266 276h262l254 -276h-193l-200 143l-203 -143h-186zM358 553q0 -158 71 -249t189 -91q117 0 189 91t72 245 q0 162 -71 253t-189.5 91t-189.5 -91t-71 -249zM557 1724q0 193 227 193q102 0 168 -45t66 -117q0 -43 -23.5 -70.5t-89.5 -62.5q-39 -20 -49 -33.5t-10 -46.5h-127q0 49 20.5 81t75.5 65q37 23 48 34t11 29q0 29 -24.5 48.5t-63.5 19.5q-92 0 -92 -95h-137z" />
<glyph unicode="&#x1ed6;" horiz-adv-x="1593" d="M82 748q0 330 197.5 550t519.5 220q324 0 522.5 -219.5t198.5 -561.5q0 -332 -199 -547t-520 -215q-326 0 -522.5 216.5t-196.5 556.5zM389 748q0 -233 112.5 -371.5t299.5 -138.5q184 0 297.5 137t113.5 364q0 233 -111.5 374.5t-299.5 141.5q-184 0 -298 -140 t-114 -367zM410 1612l266 276h262l254 -276h-193l-200 143l-203 -143h-186zM440 1950q6 119 57.5 186.5t135.5 67.5q41 0 115 -27l145 -51q29 -12 70 -12q66 0 73 98h129q-12 -260 -194 -260q-49 0 -113 24l-145 54q-37 12 -62 12q-37 0 -55 -21.5t-27 -70.5h-129z" />
<glyph unicode="&#x1ed7;" horiz-adv-x="1251" d="M72 553q0 270 145 420.5t399 150.5q262 0 405.5 -150.5t143.5 -428.5q0 -264 -146.5 -413.5t-400.5 -149.5q-256 0 -401 149.5t-145 421.5zM236 1225l266 276h262l254 -276h-193l-200 143l-203 -143h-186zM266 1563q6 119 57.5 186.5t135.5 67.5q41 0 114 -27l146 -51 q29 -12 69 -13q63 0 74 99h129q-12 -260 -194 -260q-47 0 -113 24l-145 53q-37 12 -62 13q-37 0 -55.5 -21.5t-26.5 -70.5h-129zM358 553q0 -158 71 -249t189 -91q117 0 189 91t72 245q0 162 -71 253t-189.5 91t-189.5 -91t-71 -249z" />
<glyph unicode="&#x1ed8;" horiz-adv-x="1593" d="M82 748q0 330 197.5 550t519.5 220q324 0 522.5 -219.5t198.5 -561.5q0 -332 -199 -547t-520 -215q-326 0 -522.5 216.5t-196.5 556.5zM389 748q0 -233 112.5 -371.5t299.5 -138.5q184 0 297.5 137t113.5 364q0 233 -111.5 374.5t-299.5 141.5q-184 0 -298 -140 t-114 -367zM408 1612l266 276h262l254 -276h-193l-200 143l-203 -143h-186zM655 -133h287v-287h-287v287z" />
<glyph unicode="&#x1ed9;" horiz-adv-x="1251" d="M72 553q0 270 145 420.5t399 150.5q262 0 405.5 -150.5t143.5 -428.5q0 -264 -146.5 -413.5t-400.5 -149.5q-256 0 -401 149.5t-145 421.5zM281 1225l221 315h260l211 -315h-180l-168 157l-168 -157h-176zM358 553q0 -158 71 -249t189 -91q117 0 189 91t72 245 q0 162 -71 253t-189.5 91t-189.5 -91t-71 -249zM483 -133h287v-287h-287v287z" />
<glyph unicode="&#x1eda;" horiz-adv-x="1662" d="M82 750q0 336 209 561q190 207 508 207q319 0 512 -207q33 -37 47 -58q115 96 115 240h-134v256h277v-223q0 -258 -186 -389q90 -190 90 -398q0 -158 -56.5 -310.5t-152.5 -254.5q-178 -193 -510 -192.5t-510 192.5q-100 106 -154.5 257t-54.5 319zM389 749.5 q0 -233.5 112.5 -369.5t299 -136t299 135t112.5 362q0 242 -110.5 378t-300.5 136q-186 0 -299 -136t-113 -369.5zM692 1610l156 276h338l-277 -276h-217z" />
<glyph unicode="&#x1edb;" horiz-adv-x="1392" d="M72 553q0 270 145 420.5t399 150.5q328 0 469 -245q102 94 103 227h-133v256h276v-223q0 -262 -192 -394q27 -94 26 -200q0 -264 -146.5 -413.5t-400.5 -149.5q-256 0 -401 149.5t-145 421.5zM358 553q0 -158 71 -249t189 -91q117 0 189 91t72 245q0 162 -71 253 t-189.5 91t-189.5 -91t-71 -249zM516 1225l143 315h320l-258 -315h-205z" />
<glyph unicode="&#x1edc;" horiz-adv-x="1662" d="M82 750q0 336 209 561q190 207 508 207q319 0 512 -207q33 -37 47 -58q115 96 115 240h-134v256h277v-223q0 -258 -186 -389q90 -190 90 -398q0 -158 -56.5 -310.5t-152.5 -254.5q-178 -193 -510 -192.5t-510 192.5q-100 106 -154.5 257t-54.5 319zM389 749.5 q0 -233.5 112.5 -369.5t299 -136t299 135t112.5 362q0 242 -110.5 378t-300.5 136q-186 0 -299 -136t-113 -369.5zM416 1886h338l155 -276h-217z" />
<glyph unicode="&#x1edd;" horiz-adv-x="1392" d="M72 553q0 270 145 420.5t399 150.5q328 0 469 -245q102 94 103 227h-133v256h276v-223q0 -262 -192 -394q27 -94 26 -200q0 -264 -146.5 -413.5t-400.5 -149.5q-256 0 -401 149.5t-145 421.5zM258 1540h320l143 -315h-205zM358 553q0 -158 71 -249t189 -91q117 0 189 91 t72 245q0 162 -71 253t-189.5 91t-189.5 -91t-71 -249z" />
<glyph unicode="&#x1ede;" horiz-adv-x="1662" d="M82 750q0 336 209 561q190 207 508 207q319 0 512 -207q33 -37 47 -58q115 96 115 240h-134v256h277v-223q0 -258 -186 -389q90 -190 90 -398q0 -158 -56.5 -310.5t-152.5 -254.5q-178 -193 -510 -192.5t-510 192.5q-100 106 -154.5 257t-54.5 319zM389 749.5 q0 -233.5 112.5 -369.5t299 -136t299 135t112.5 362q0 242 -110.5 378t-300.5 136q-186 0 -299 -136t-113 -369.5zM569 1806q0 213 228 213q102 0 167.5 -50t65.5 -128q0 -47 -23.5 -78.5t-88.5 -70.5q-39 -23 -49.5 -37.5t-10.5 -50.5h-127q0 55 20.5 90t75.5 71 q37 27 48.5 39.5t11.5 32.5q0 33 -24.5 53.5t-63.5 20.5q-92 0 -92 -105h-138z" />
<glyph unicode="&#x1edf;" horiz-adv-x="1392" d="M72 553q0 270 145 420.5t399 150.5q328 0 469 -245q102 94 103 227h-133v256h276v-223q0 -262 -192 -394q27 -94 26 -200q0 -264 -146.5 -413.5t-400.5 -149.5q-256 0 -401 149.5t-145 421.5zM358 553q0 -158 71 -249t189 -91q117 0 189 91t72 245q0 162 -71 253 t-189.5 91t-189.5 -91t-71 -249zM387 1419q0 213 227 213q102 0 168 -50t66 -128q0 -47 -23.5 -79t-89.5 -70q-39 -23 -49 -37.5t-10 -50.5h-127q0 55 20.5 89.5t75.5 71.5q37 27 48.5 39.5t11.5 32.5q0 33 -25 53.5t-64 20.5q-92 0 -92 -105h-137z" />
<glyph unicode="&#x1ee0;" horiz-adv-x="1662" d="M82 750q0 336 209 561q190 207 508 207q319 0 512 -207q33 -37 47 -58q115 96 115 240h-134v256h277v-223q0 -258 -186 -389q90 -190 90 -398q0 -158 -56.5 -310.5t-152.5 -254.5q-178 -193 -510 -192.5t-510 192.5q-100 106 -154.5 257t-54.5 319zM389 749.5 q0 -233.5 112.5 -369.5t299 -136t299 135t112.5 362q0 242 -110.5 378t-300.5 136q-186 0 -299 -136t-113 -369.5zM442 1618q6 119 57.5 186.5t135.5 67.5q41 0 115 -27l145 -51q29 -12 70 -12q63 0 73 98h129q-12 -260 -194 -260q-47 0 -113 25l-145 53q-37 12 -62 12 q-37 0 -55 -21.5t-27 -70.5h-129z" />
<glyph unicode="&#x1ee1;" horiz-adv-x="1392" d="M72 553q0 270 145 420.5t399 150.5q328 0 469 -245q102 94 103 227h-133v256h276v-223q0 -262 -192 -394q27 -94 26 -200q0 -264 -146.5 -413.5t-400.5 -149.5q-256 0 -401 149.5t-145 421.5zM258 1251q6 119 57.5 186.5t135.5 67.5q41 0 114 -26l146 -52q29 -12 69 -12 q63 0 74 98h129q-12 -260 -195 -260q-47 0 -112 25l-146 53q-37 12 -61 12q-37 0 -55.5 -21.5t-26.5 -70.5h-129zM358 553q0 -158 71 -249t189 -91q117 0 189 91t72 245q0 162 -71 253t-189.5 91t-189.5 -91t-71 -249z" />
<glyph unicode="&#x1ee2;" horiz-adv-x="1662" d="M82 750q0 336 209 561q190 207 508 207q319 0 512 -207q33 -37 47 -58q115 96 115 240h-134v256h277v-223q0 -258 -186 -389q90 -190 90 -398q0 -158 -56.5 -310.5t-152.5 -254.5q-178 -193 -510 -192.5t-510 192.5q-100 106 -154.5 257t-54.5 319zM389 749.5 q0 -233.5 112.5 -369.5t299 -136t299 135t112.5 362q0 242 -110.5 378t-300.5 136q-186 0 -299 -136t-113 -369.5zM657 -133h287v-287h-287v287z" />
<glyph unicode="&#x1ee3;" horiz-adv-x="1392" d="M72 553q0 270 145 420.5t399 150.5q328 0 469 -245q102 94 103 227h-133v256h276v-223q0 -262 -192 -394q27 -94 26 -200q0 -264 -146.5 -413.5t-400.5 -149.5q-256 0 -401 149.5t-145 421.5zM358 553q0 -158 71 -249t189 -91q117 0 189 91t72 245q0 162 -71 253 t-189.5 91t-189.5 -91t-71 -249zM475 -133h287v-287h-287v287z" />
<glyph unicode="&#x1ee4;" horiz-adv-x="1478" d="M156 504v989h307v-989q0 -266 284.5 -266t284.5 266v989h307v-989q0 -256 -162.5 -392.5t-429 -136.5t-429 136.5t-162.5 392.5zM596 -133h287v-287h-287v287z" />
<glyph unicode="&#x1ee5;" horiz-adv-x="1251" d="M119 365v741h287v-682q0 -199 184 -199q104 0 167.5 59.5t63.5 157.5v664h287v-1106h-287v145q-123 -164 -332 -163q-176 0 -273 100.5t-97 282.5zM483 -133h287v-287h-287v287z" />
<glyph unicode="&#x1ee6;" horiz-adv-x="1478" d="M156 504v989h307v-989q0 -266 284.5 -266t284.5 266v989h307v-989q0 -256 -162.5 -392.5t-429 -136.5t-429 136.5t-162.5 392.5zM508 1806q0 213 227 213q102 0 168 -50t66 -128q0 -47 -23.5 -78.5t-89.5 -70.5q-39 -23 -49 -37.5t-10 -50.5h-127q0 55 20.5 90t75.5 71 q37 27 48 39.5t11 32.5q0 33 -24.5 53.5t-63.5 20.5q-92 0 -92 -105h-137z" />
<glyph unicode="&#x1ee7;" horiz-adv-x="1251" d="M119 365v741h287v-682q0 -199 184 -199q104 0 167.5 59.5t63.5 157.5v664h287v-1106h-287v145q-123 -164 -332 -163q-176 0 -273 100.5t-97 282.5zM395 1419q0 213 228 213q102 0 167.5 -50t65.5 -128q0 -47 -23.5 -79t-89.5 -70q-39 -23 -49 -37.5t-10 -50.5h-127 q0 55 20.5 89.5t75.5 71.5q37 27 48.5 39.5t11.5 32.5q0 33 -24.5 53.5t-63.5 20.5q-92 0 -93 -105h-137z" />
<glyph unicode="&#x1ee8;" horiz-adv-x="1697" d="M156 510v983h307v-983q0 -266 284.5 -266t284.5 266v983h307v-289q182 102 183 287h-133v256h276v-223q0 -197 -97.5 -307.5t-228.5 -153.5v-553q0 -246 -145 -377q-168 -152 -446.5 -151.5t-446.5 151.5q-145 131 -145 377zM639 1610l156 276h338l-277 -276h-217z" />
<glyph unicode="&#x1ee9;" horiz-adv-x="1474" d="M119 365v741h287v-682q0 -199 184 -199q104 0 167.5 59.5t63.5 157.5v664h287v-291q78 41 133 117t55 174h-133v256h277v-223q0 -104 -32 -189.5t-84 -138.5t-104.5 -85t-111.5 -50v-676h-287v160q-119 -178 -332 -178q-176 0 -273 100.5t-97 282.5zM512 1225l143 315 h320l-258 -315h-205z" />
<glyph unicode="&#x1eea;" horiz-adv-x="1697" d="M156 510v983h307v-983q0 -266 284.5 -266t284.5 266v983h307v-289q182 102 183 287h-133v256h276v-223q0 -197 -97.5 -307.5t-228.5 -153.5v-553q0 -246 -145 -377q-168 -152 -446.5 -151.5t-446.5 151.5q-145 131 -145 377zM362 1886h338l156 -276h-217z" />
<glyph unicode="&#x1eeb;" horiz-adv-x="1474" d="M119 365v741h287v-682q0 -199 184 -199q104 0 167.5 59.5t63.5 157.5v664h287v-291q78 41 133 117t55 174h-133v256h277v-223q0 -104 -32 -189.5t-84 -138.5t-104.5 -85t-111.5 -50v-676h-287v160q-119 -178 -332 -178q-176 0 -273 100.5t-97 282.5zM254 1540h319 l144 -315h-205z" />
<glyph unicode="&#x1eec;" horiz-adv-x="1697" d="M156 510v983h307v-983q0 -266 284.5 -266t284.5 266v983h307v-289q182 102 183 287h-133v256h276v-223q0 -197 -97.5 -307.5t-228.5 -153.5v-553q0 -246 -145 -377q-168 -152 -446.5 -151.5t-446.5 151.5q-145 131 -145 377zM516 1806q0 213 227 213q102 0 168 -50 t66 -128q0 -47 -23.5 -78.5t-89.5 -70.5q-39 -23 -49 -37.5t-10 -50.5h-127q0 55 20.5 90t75.5 71q37 27 48.5 39.5t11.5 32.5q0 33 -25 53.5t-64 20.5q-92 0 -92 -105h-137z" />
<glyph unicode="&#x1eed;" horiz-adv-x="1474" d="M119 365v741h287v-682q0 -199 184 -199q104 0 167.5 59.5t63.5 157.5v664h287v-291q78 41 133 117t55 174h-133v256h277v-223q0 -104 -32 -189.5t-84 -138.5t-104.5 -85t-111.5 -50v-676h-287v160q-119 -178 -332 -178q-176 0 -273 100.5t-97 282.5zM383 1419 q0 213 227 213q102 0 168 -50t66 -128q0 -47 -23.5 -79t-89.5 -70q-39 -23 -49 -37.5t-10 -50.5h-127q0 55 20.5 89.5t75.5 71.5q37 27 48 39.5t11 32.5q0 33 -24.5 53.5t-63.5 20.5q-92 0 -92 -105h-137z" />
<glyph unicode="&#x1eee;" horiz-adv-x="1697" d="M156 510v983h307v-983q0 -266 284.5 -266t284.5 266v983h307v-289q182 102 183 287h-133v256h276v-223q0 -197 -97.5 -307.5t-228.5 -153.5v-553q0 -246 -145 -377q-168 -152 -446.5 -151.5t-446.5 151.5q-145 131 -145 377zM389 1618q6 119 57.5 186.5t135.5 67.5 q41 0 114 -27l146 -51q29 -12 69 -12q63 0 74 98h129q-12 -260 -194 -260q-47 0 -113 25l-145 53q-37 12 -62 12q-37 0 -55.5 -21.5t-26.5 -70.5h-129z" />
<glyph unicode="&#x1eef;" horiz-adv-x="1474" d="M119 365v741h287v-682q0 -199 184 -199q104 0 167.5 59.5t63.5 157.5v664h287v-291q78 41 133 117t55 174h-133v256h277v-223q0 -104 -32 -189.5t-84 -138.5t-104.5 -85t-111.5 -50v-676h-287v160q-119 -178 -332 -178q-176 0 -273 100.5t-97 282.5zM254 1251 q6 119 57 186.5t135 67.5q41 0 115 -26l146 -52q29 -12 69 -12q63 0 74 98h129q-12 -260 -195 -260q-49 0 -112 25l-146 53q-37 12 -61 12q-37 0 -55.5 -21.5t-26.5 -70.5h-129z" />
<glyph unicode="&#x1ef0;" horiz-adv-x="1697" d="M156 510v983h307v-983q0 -266 284.5 -266t284.5 266v983h307v-289q182 102 183 287h-133v256h276v-223q0 -197 -97.5 -307.5t-228.5 -153.5v-553q0 -246 -145 -377q-168 -152 -446.5 -151.5t-446.5 151.5q-145 131 -145 377zM604 -133h287v-287h-287v287z" />
<glyph unicode="&#x1ef1;" horiz-adv-x="1474" d="M119 365v741h287v-682q0 -199 184 -199q104 0 167.5 59.5t63.5 157.5v664h287v-291q78 41 133 117t55 174h-133v256h277v-223q0 -104 -32 -189.5t-84 -138.5t-104.5 -85t-111.5 -50v-676h-287v160q-119 -178 -332 -178q-176 0 -273 100.5t-97 282.5zM471 -133h287v-287 h-287v287z" />
<glyph unicode="&#x1ef2;" horiz-adv-x="1366" d="M55 1493h342l305 -659l285 659h344l-473 -940v-553h-307v553zM319 1886h338l156 -276h-217z" />
<glyph unicode="&#x1ef3;" d="M18 1106h316l244 -805l229 805h295l-455 -1309q-53 -150 -133 -198t-235 -48q-45 0 -103 9v215q45 -12 76 -13q76 0 127 53.5t51 131.5v6zM209 1540h319l144 -315h-205z" />
<glyph unicode="&#x1ef4;" horiz-adv-x="1366" d="M55 1493h342l305 -659l285 659h344l-473 -940v-553h-307v553zM561 -133h287v-287h-287v287z" />
<glyph unicode="&#x1ef5;" d="M18 1106h316l244 -805l229 805h295l-455 -1309q-53 -150 -133 -198t-235 -48q-45 0 -103 9v215q45 -12 76 -13q76 0 127 53.5t51 131.5v6zM770 -133h287v-287h-287v287z" />
<glyph unicode="&#x1ef6;" horiz-adv-x="1366" d="M55 1493h342l305 -659l285 659h344l-473 -940v-553h-307v553zM473 1806q0 213 227 213q102 0 168 -50t66 -128q0 -47 -23.5 -78.5t-89.5 -70.5q-39 -23 -49 -37.5t-10 -50.5h-127q0 55 20.5 90t75.5 71q37 27 48.5 39.5t11.5 32.5q0 33 -25 53.5t-64 20.5q-92 0 -92 -105 h-137z" />
<glyph unicode="&#x1ef7;" d="M18 1106h316l244 -805l229 805h295l-455 -1309q-53 -150 -133 -198t-235 -48q-45 0 -103 9v215q45 -12 76 -13q76 0 127 53.5t51 131.5v6zM338 1419q0 213 227 213q102 0 168 -50t66 -128q0 -47 -23.5 -79t-89.5 -70q-39 -23 -49 -37.5t-10 -50.5h-127q0 55 20.5 89.5 t75.5 71.5q37 27 48 39.5t11 32.5q0 33 -24.5 53.5t-63.5 20.5q-92 0 -92 -105h-137z" />
<glyph unicode="&#x1ef8;" horiz-adv-x="1366" d="M55 1493h342l305 -659l285 659h344l-473 -940v-553h-307v553zM346 1618q6 119 57.5 186.5t135.5 67.5q41 0 114 -27l146 -51q29 -12 69 -12q66 0 74 98h129q-12 -260 -194 -260q-49 0 -113 25l-146 53q-37 12 -61 12q-37 0 -55.5 -21.5t-26.5 -70.5h-129z" />
<glyph unicode="&#x1ef9;" d="M18 1106h316l244 -805l229 805h295l-455 -1309q-53 -150 -133 -198t-235 -48q-45 0 -103 9v215q45 -12 76 -13q76 0 127 53.5t51 131.5v6zM209 1251q6 119 57 186.5t135 67.5q41 0 115 -26l146 -52q29 -12 69 -12q63 0 74 98h129q-12 -260 -195 -260q-47 0 -112 25 l-146 53q-37 12 -61 12q-37 0 -55.5 -21.5t-26.5 -70.5h-129z" />
<glyph unicode="&#x2000;" horiz-adv-x="1150" />
<glyph unicode="&#x2001;" horiz-adv-x="2304" />
<glyph unicode="&#x2002;" horiz-adv-x="1150" />
<glyph unicode="&#x2003;" horiz-adv-x="2304" />
<glyph unicode="&#x2004;" horiz-adv-x="768" />
<glyph unicode="&#x2005;" horiz-adv-x="575" />
<glyph unicode="&#x2006;" horiz-adv-x="382" />
<glyph unicode="&#x2007;" horiz-adv-x="382" />
<glyph unicode="&#x2008;" horiz-adv-x="286" />
<glyph unicode="&#x2009;" horiz-adv-x="460" />
<glyph unicode="&#x200a;" horiz-adv-x="126" />
<glyph unicode="&#x2010;" horiz-adv-x="681" d="M53 424v276h557v-276h-557z" />
<glyph unicode="&#x2011;" horiz-adv-x="681" d="M53 424v276h557v-276h-557z" />
<glyph unicode="&#x2012;" horiz-adv-x="681" d="M53 424v276h557v-276h-557z" />
<glyph unicode="&#x2013;" d="M-18 424v213h1159v-213h-1159z" />
<glyph unicode="&#x2014;" horiz-adv-x="2048" d="M-14 424v213h2068v-213h-2068z" />
<glyph unicode="&#x2016;" horiz-adv-x="1196" d="M291 -410v1903h205v-1903h-205zM700 -410v1903h205v-1903h-205z" />
<glyph unicode="&#x2018;" horiz-adv-x="569" d="M137 961v223q0 162 92 239q76 63 185 70v-94q-170 -31 -164 -182h164v-256h-277z" />
</font>
</defs>
</svg>
