<?xml version="1.0" standalone="no"?>
<!DOCTYPE svg PUBLIC "-//W3C//DTD SVG 1.1//EN" "http://www.w3.org/Graphics/SVG/1.1/DTD/svg11.dtd" >
<svg xmlns="http://www.w3.org/2000/svg">
<metadata>
This is a custom SVG webfont generated by Font Squirrel.
Copyright   : Copyright URW copyright 1999 by URW Design  Development Cyrillic glyphs added by Valek Filippov copyright 20012002 Vietnamese characters were added by Han The Thanh copyright 2006 2008 for TeX Gyre extensions by B Jackowski and JM Nowacki on behalf of TeX users groups This work is released under the GUST Font License   see httptugorgfontslicensesGUSTFONTLICENSEtxt for details
</metadata>
<defs>
<font id="webfontRiJicM8R" horiz-adv-x="1138" >
<font-face units-per-em="2048" ascent="1606" descent="-442" />
<missing-glyph horiz-adv-x="569" />
<glyph unicode="IJ" horiz-adv-x="1671" d="M41 0l317 1493h308l-318 -1493h-307zM596 295q0 70 14 133l27 125h307l-29 -135q-8 -35 -8 -70q0 -49 38 -79.5t97 -30.5q164 0 203 174l232 1081h307l-232 -1081q-92 -436 -571 -437q-180 0 -282.5 85t-102.5 235z" />
<glyph unicode="ij" horiz-adv-x="1107" d="M41 0l235 1106h287l-235 -1106h-287zM307 1249l55 269h287l-55 -269h-287zM385 -436l49 227q10 -8 51 -8q47 0 71 20.5t34 69.5l262 1233h287l-277 -1299q-29 -133 -120 -193t-265 -60q-55 0 -92 10zM883 1249l55 269h287l-56 -269h-286z" />
<glyph unicode="fk" horiz-adv-x="1837" d="M102 0l191 893h-158l41 190h156l28 134q31 143 116 209.5t235 66.5l157 -6l-45 -215q-74 8 -86 8q-76 0 -94 -88l-25 -109h170l-40 -190h-168l-191 -893h-287zM737 0l318 1493h286l-174 -817l457 430h326l-475 -422l264 -684h-336l-162 489l-139 -127l-78 -362h-287z" />
<glyph unicode="&#xfb00;" horiz-adv-x="1302" d="M102 0l191 893h-158l41 190h156l28 134q31 143 116 209.5t235 66.5l157 -6l-45 -215q-74 8 -86 8q-76 0 -94 -88l-25 -109h349l28 134q31 143 116 209.5t235 66.5l157 -6l-45 -215q-74 8 -86 8q-76 0 -94 -88l-25 -109h170l-41 -190h-168l-190 -893h-287l191 893h-348 l-191 -893h-287z" />
<glyph unicode="&#xfb01;" horiz-adv-x="1251" d="M102 0l191 893h-158l41 190h156l28 134q31 143 116 209.5t235 66.5l157 -6l-45 -215q-74 8 -86 8q-76 0 -94 -88l-25 -109h170l-40 -190h-168l-191 -893h-287zM737 0l236 1106h287l-236 -1106h-287zM1004 1249l55 269h287l-56 -269h-286z" />
<glyph unicode="&#xfb02;" horiz-adv-x="1251" d="M102 0l191 893h-158l41 190h156l28 134q31 143 116 209.5t235 66.5l157 -6l-45 -215q-74 8 -86 8q-76 0 -94 -88l-25 -109h170l-40 -190h-168l-191 -893h-287zM737 0l318 1493h286l-317 -1493h-287z" />
<glyph unicode="&#xfb03;" horiz-adv-x="1886" d="M102 0l191 893h-158l41 190h156l28 134q31 143 116 209.5t235 66.5l157 -6l-45 -215q-74 8 -86 8q-76 0 -94 -88l-25 -109h349l28 134q31 143 116 209.5t235 66.5l157 -6l-45 -215q-74 8 -86 8q-76 0 -94 -88l-25 -109h170l-41 -190h-168l-190 -893h-287l191 893h-348 l-191 -893h-287zM1372 0l236 1106h286l-235 -1106h-287zM1638 1249l56 269h286l-55 -269h-287z" />
<glyph unicode="&#xfb04;" horiz-adv-x="1886" d="M102 0l191 893h-158l41 190h156l28 134q31 143 116 209.5t235 66.5l157 -6l-45 -215q-74 8 -86 8q-76 0 -94 -88l-25 -109h349l28 134q31 143 116 209.5t235 66.5l157 -6l-45 -215q-74 8 -86 8q-76 0 -94 -88l-25 -109h170l-41 -190h-168l-190 -893h-287l191 893h-348 l-191 -893h-287zM1372 0l318 1493h286l-317 -1493h-287z" />
<glyph unicode=" "  horiz-adv-x="569" />
<glyph unicode="&#x09;" horiz-adv-x="569" />
<glyph unicode="&#xa0;" horiz-adv-x="569" />
<glyph unicode="!" horiz-adv-x="681" d="M106 0l64 299h307l-63 -299h-308zM283 424l49 633l92 430h307l-92 -430l-219 -633h-137z" />
<glyph unicode="&#x22;" horiz-adv-x="970" d="M281 1227l57 266h283l-58 -266l-141 -264h-115zM764 1227l57 266h283l-57 -266l-142 -264h-114z" />
<glyph unicode="#" d="M-14 -66l170 418h-158l43 205h199l127 311h-203l45 205h242l145 354h217l-147 -354h211l145 354h217l-147 -354h178l-43 -205h-217l-127 -311h202l-43 -205h-243l-172 -418h-215l170 418h-209l-172 -418h-215zM455 557h211l127 311h-209z" />
<glyph unicode="$" d="M39 303q0 53 16 121h267q-2 -39 -3 -68q0 -154 134 -180l94 436q-338 86 -338 361q0 190 142.5 323.5t373.5 155.5l23 111h139l-25 -111q342 -31 342 -332q0 -43 -10 -100h-262q6 57 6 82q0 123 -119 143l-88 -411q190 -57 275.5 -140.5t85.5 -208.5q0 -217 -150.5 -359 t-396.5 -169l-45 -215h-140l48 215q-178 18 -273.5 107t-95.5 239zM475 1026q0 -102 127 -152l78 371q-96 -18 -150.5 -76.5t-54.5 -142.5zM592 176q98 23 152.5 83t54.5 147q0 123 -121 172z" />
<glyph unicode="%" horiz-adv-x="1820" d="M182 987q0 174 140.5 311.5t316.5 137.5q137 0 225 -84t88 -211q0 -176 -140 -313.5t-320 -137.5q-133 0 -221.5 85t-88.5 212zM340 -41l1126 1493h158l-1128 -1493h-156zM387 1026q0 -57 43 -96t107 -39q84 0 147.5 62.5t63.5 144.5q0 59 -44.5 98t-107.5 39 q-82 0 -145.5 -63.5t-63.5 -145.5zM997 256q0 174 140.5 311.5t316.5 137.5q137 0 225 -84t88 -211q0 -176 -140 -313.5t-320 -137.5q-133 0 -221.5 85t-88.5 212zM1202 295q0 -57 43 -96t107 -39q84 0 147.5 62.5t63.5 144.5q0 59 -44 98t-108 39q-82 0 -145.5 -63.5 t-63.5 -145.5z" />
<glyph unicode="&#x26;" horiz-adv-x="1478" d="M100 319q0 166 104.5 283t325.5 219q-109 154 -108 250q0 164 138 287t323 123q139 0 226 -66.5t87 -175.5q0 -131 -72.5 -230.5t-253.5 -205.5l168 -281q51 47 79 100.5t44 141.5h232q-16 -113 -84 -233.5t-158 -202.5l192 -328h-327l-76 123q-141 -102 -228 -136 t-206 -34q-190 0 -298 97t-108 269zM381 383q0 -80 53 -136.5t129 -56.5q51 0 108.5 26t159.5 95l-202 342l-107 -59q-141 -80 -141 -211zM702 1130q0 -27 12.5 -54t61.5 -113q164 86 164 213q0 39 -27.5 61.5t-76.5 22.5q-59 0 -96.5 -36.5t-37.5 -93.5z" />
<glyph unicode="'" horiz-adv-x="487" d="M281 1227l57 266h283l-58 -266l-143 -264h-113z" />
<glyph unicode="(" horiz-adv-x="681" d="M90 250q0 309 134 608t427 635h205q-291 -397 -406.5 -674.5t-115.5 -589.5q0 -141 25.5 -279t93.5 -360h-205q-158 363 -158 660z" />
<glyph unicode=")" horiz-adv-x="681" d="M-125 -410q299 403 413.5 677t114.5 585q0 143 -26.5 279.5t-97.5 361.5h204q164 -360 164 -662q0 -317 -138 -613t-429 -628h-205z" />
<glyph unicode="*" horiz-adv-x="796" d="M215 1188l76 141l207 -74l49 238h147l-51 -238l240 74l14 -143l-238 -72l97 -192l-138 -88l-96 192l-178 -192l-100 88l178 192z" />
<glyph unicode="+" horiz-adv-x="1196" d="M152 410v204h372v373h205v-373h373v-204h-373v-373h-205v373h-372z" />
<glyph unicode="," horiz-adv-x="569" d="M-27 -356l25 114q188 33 227 242h-176l64 299h307l-60 -281q-29 -168 -123 -258.5t-264 -115.5z" />
<glyph unicode="-" horiz-adv-x="681" d="M61 424l60 276h557l-60 -276h-557z" />
<glyph unicode="." horiz-adv-x="569" d="M49 0l64 299h307l-64 -299h-307z" />
<glyph unicode="/" horiz-adv-x="569" d="M-84 -29l739 1491h138l-740 -1491h-137z" />
<glyph unicode="0" d="M90 389q0 156 46 368t112 351q82 180 220 277.5t312 97.5q184 0 290 -108.5t106 -297.5q0 -156 -47.5 -368.5t-110.5 -352.5q-174 -375 -539 -374q-180 0 -284.5 109.5t-104.5 297.5zM383 403q0 -78 42 -125t114 -47q90 0 147 65.5t100 217.5q96 338 97 567q0 78 -43 125 t-115 47q-106 0 -180 -116q-51 -82 -106.5 -333t-55.5 -401z" />
<glyph unicode="1" d="M270 1001l41 191q377 0 500 260h190l-309 -1452h-286l212 1001h-348z" />
<glyph unicode="2" d="M-20 0q51 203 146 320.5t310 246.5q268 162 365 260q111 115 110 263q0 78 -47 120.5t-129 42.5q-106 0 -172.5 -78.5t-87.5 -228.5h-274q39 258 190.5 397.5t388.5 139.5q199 0 311.5 -93.5t112.5 -259.5q0 -199 -133 -356q-86 -102 -311 -244q-184 -117 -250 -167 t-104 -107h614l-53 -256h-987z" />
<glyph unicode="3" d="M61 338q0 47 13 117h278l2 -66q4 -158 185 -158q102 0 175.5 80t73.5 189q-2 90 -67.5 127t-218.5 37l41 192h24q139 0 221 66.5t82 187.5q0 63 -44 103t-113 40q-100 0 -153.5 -58t-86.5 -200h-264q49 254 185 371t370 117q195 0 302.5 -81t107.5 -228q0 -231 -244 -381 q147 -90 147 -252q0 -244 -160.5 -401.5t-435.5 -157.5q-199 0 -309.5 93t-110.5 263z" />
<glyph unicode="4" d="M35 322l51 241l721 889h338l-191 -893h152l-51 -237h-150l-69 -322h-287l69 322h-583zM291 559h377l133 623z" />
<glyph unicode="5" d="M45 317q0 39 10 91h283q-4 -37 -4 -46q0 -59 49 -95t131 -36q127 0 205 90.5t78 243.5q0 92 -47.5 146.5t-135.5 54.5q-137 0 -206 -109h-258l296 795h785l-55 -256h-607l-108 -289q133 88 270 88q166 0 262.5 -104.5t96.5 -276.5q0 -270 -182.5 -451t-452.5 -181 q-184 0 -297 91.5t-113 243.5z" />
<glyph unicode="6" d="M94 365q0 186 60.5 420.5t142.5 369.5q201 328 528 328q174 0 273.5 -84t99.5 -230q0 -29 -2 -47h-266q-14 70 -52 100.5t-112 30.5q-123 0 -187.5 -88t-127.5 -323q152 115 305 114q162 0 253 -91t91 -251q0 -256 -171 -444t-423 -188q-188 0 -300 101.5t-112 281.5z M360 399q0 -78 50.5 -123t130.5 -45q115 0 190.5 89.5t75.5 230.5q0 78 -46 127t-122 49q-115 0 -197 -95.5t-82 -232.5z" />
<glyph unicode="7" d="M186 0q123 373 294 640t470 556h-723l56 256h1026l-47 -225l-215 -221q-225 -252 -356.5 -482.5t-213.5 -523.5h-291z" />
<glyph unicode="8" d="M43 332q0 147 79 260t249 199q-72 55 -102.5 106t-30.5 117q0 193 160.5 331t383.5 138q180 0 293 -88t113 -228q0 -221 -264 -376q96 -59 135 -113.5t39 -145.5q0 -227 -175 -388.5t-434 -161.5q-207 0 -326.5 92t-119.5 258zM336 383q0 -70 55 -111t141 -41 q123 0 198 79t75 210q0 76 -50 116t-137 40q-121 0 -201.5 -83t-80.5 -210zM487 1024q0 -70 48.5 -112t126.5 -42q109 0 184.5 69t75.5 167q0 66 -52.5 106.5t-136.5 40.5q-102 0 -174 -66.5t-72 -162.5z" />
<glyph unicode="9" d="M63 299q0 25 9 68h276q-2 -10 -2 -25q0 -49 45 -80t117 -31q123 0 192.5 94.5t116.5 299.5q-86 -74 -150.5 -101.5t-150.5 -27.5q-160 0 -253 96t-93 262q0 272 170 450.5t424 178.5q184 0 294.5 -115t110.5 -305q0 -184 -56 -389t-150 -369q-186 -324 -531 -323 q-164 0 -266.5 88t-102.5 229zM446 897q0 -80 45.5 -122t122.5 -42q123 0 207 98.5t84 245.5q0 86 -51 131t-139 45q-115 0 -192 -101t-77 -255z" />
<glyph unicode=":" horiz-adv-x="681" d="M104 0l64 299h307l-63 -299h-308zM268 766l64 299h307l-64 -299h-307z" />
<glyph unicode=";" horiz-adv-x="681" d="M29 -356l24 114q188 33 228 242h-177l64 299h307l-59 -281q-29 -168 -123 -258.5t-264 -115.5zM268 766l64 299h307l-64 -299h-307z" />
<glyph unicode="&#x3c;" horiz-adv-x="1196" d="M209 434v156l770 649v-266l-545 -461l545 -461v-266z" />
<glyph unicode="=" horiz-adv-x="1196" d="M152 223v205h950v-205h-950zM152 596v205h950v-205h-950z" />
<glyph unicode="&#x3e;" horiz-adv-x="1196" d="M209 51l545 461l-545 461v266l770 -649v-156l-770 -649v266z" />
<glyph unicode="?" horiz-adv-x="1251" d="M250 985q121 539 590 539q209 0 325.5 -100.5t116.5 -264.5q0 -178 -104 -313q-68 -86 -238 -191q-104 -66 -135 -104.5t-51 -138.5h-250q10 117 76.5 211t210.5 194q90 63 135 112.5t54 81t9 81.5q0 78 -52 128t-134 50q-104 0 -176 -75t-99 -210h-278zM391 0l64 299 h307l-64 -299h-307z" />
<glyph unicode="@" horiz-adv-x="1996" d="M68 371q0 293 169 560t452.5 431t600.5 164q309 0 525.5 -179.5t216.5 -447.5q0 -154 -63.5 -301t-161 -251.5t-216 -168t-229.5 -63.5q-174 0 -221 143q-154 -150 -326 -149q-125 0 -202.5 77.5t-77.5 200.5q0 143 104 303t262 265.5t299 105.5q78 0 123 -33t76 -108 l55 120h184l-278 -573q-41 -86 -39 -111q0 -33 22.5 -52t57.5 -19q139 0 289.5 193.5t150.5 391.5q0 201 -176 343.5t-434 142.5q-231 0 -426 -98.5t-330 -284.5q-203 -281 -203 -572q0 -225 174.5 -368.5t446.5 -143.5q172 0 434 84l25 -161q-225 -92 -506 -93 q-358 0 -568 181.5t-210 470.5zM739 440q0 -72 38 -116.5t100 -44.5q129 0 272 172t143 319q0 63 -40 103t-103 40q-131 0 -270.5 -159.5t-139.5 -313.5z" />
<glyph unicode="A" horiz-adv-x="1478" d="M-29 0l834 1493h354l199 -1493h-314l-36 301h-557l-166 -301h-314zM592 557h387l-72 580z" />
<glyph unicode="B" horiz-adv-x="1478" d="M86 0l317 1493h666q195 0 302.5 -87t107.5 -237q0 -217 -240 -374q78 -61 111.5 -125t33.5 -148q0 -90 -45 -189.5t-120 -172.5q-166 -160 -461 -160h-672zM449 256h364q131 0 199.5 67.5t68.5 178.5q0 141 -186 141h-365zM584 899h336q129 0 191.5 59.5t62.5 151.5 q0 66 -44.5 96.5t-138.5 30.5h-336z" />
<glyph unicode="C" horiz-adv-x="1478" d="M139 494q0 440 252 732t619 292q238 0 385 -119t147 -309q0 -27 -8 -103h-289q0 268 -270 268q-246 0 -387 -223q-143 -223 -144 -479q0 -315 304 -315q311 0 397 272h293q-68 -260 -259.5 -397.5t-473.5 -137.5q-264 0 -415 137.5t-151 381.5z" />
<glyph unicode="D" horiz-adv-x="1478" d="M76 0l317 1493h584q279 0 404.5 -122t125.5 -390q0 -377 -229 -694q-113 -156 -254 -221.5t-365 -65.5h-583zM438 256h275q133 0 217 48t149 163q53 90 88 231.5t35 262.5q0 276 -280 276h-277z" />
<glyph unicode="E" horiz-adv-x="1366" d="M80 0l317 1493h1082l-56 -256h-774l-71 -338h714l-53 -256h-715l-82 -387h809l-55 -256h-1116z" />
<glyph unicode="F" horiz-adv-x="1251" d="M70 0l317 1493h1049l-56 -256h-741l-72 -338h656l-56 -256h-653l-137 -643h-307z" />
<glyph unicode="G" horiz-adv-x="1593" d="M139 549q0 250 117 472t326 359.5t456 137.5q250 0 403.5 -120t153.5 -315q0 -10 -4 -67h-282q-12 115 -97.5 177t-230.5 62q-233 0 -385 -190.5t-152 -470.5q0 -158 99.5 -257t251.5 -99q147 0 269 78.5t169 230.5h-340l55 256h598l-172 -803h-184l16 193 q-113 -119 -221 -168.5t-254 -49.5q-272 0 -432 154t-160 420z" />
<glyph unicode="H" horiz-adv-x="1478" d="M57 0l318 1493h307l-119 -559h590l119 559h309l-317 -1493h-308l144 678h-592l-143 -678h-308z" />
<glyph unicode="I" horiz-adv-x="569" d="M47 0l318 1493h307l-318 -1493h-307z" />
<glyph unicode="J" d="M43 295q0 70 14 133l27 125h307l-29 -135q-8 -35 -8 -70q0 -49 38 -79.5t97 -30.5q164 0 203 174l232 1081h307l-232 -1081q-92 -436 -571 -437q-180 0 -282.5 85t-102.5 235z" />
<glyph unicode="K" horiz-adv-x="1478" d="M70 0l317 1493h307l-139 -655l725 655h365l-740 -653l481 -840h-366l-354 643l-187 -164l-102 -479h-307z" />
<glyph unicode="L" horiz-adv-x="1251" d="M82 0l317 1493h308l-263 -1237h715l-55 -256h-1022z" />
<glyph unicode="M" horiz-adv-x="1705" d="M53 0l318 1493h485v-1147l520 1147h449l-318 -1493h-290l270 1268l-551 -1268h-322v1268l-270 -1268h-291z" />
<glyph unicode="N" horiz-adv-x="1478" d="M57 0l318 1493h307l393 -1055l223 1055h291l-317 -1493h-303l-394 1071l-227 -1071h-291z" />
<glyph unicode="O" horiz-adv-x="1593" d="M137 547q0 176 66.5 351t187.5 319q252 301 629 301q281 0 437.5 -155t156.5 -431q0 -371 -250 -666q-131 -156 -282.5 -223.5t-350.5 -67.5q-274 0 -434 152t-160 420zM442 590q0 -166 91.5 -259t246.5 -93q223 0 376 191.5t153 465.5q0 170 -87 265t-241 95 q-225 0 -382 -197.5t-157 -467.5z" />
<glyph unicode="P" horiz-adv-x="1366" d="M74 0l317 1493h631q207 0 316.5 -96.5t109.5 -249.5q0 -246 -166 -430.5t-405 -184.5h-383l-113 -532h-307zM549 788h313q131 0 206 78t75 209q0 72 -51.5 117t-133.5 45h-315z" />
<glyph unicode="Q" horiz-adv-x="1593" d="M143 549q0 176 66.5 351t183.5 317q250 301 627 301q281 0 440.5 -158t159.5 -432q0 -188 -81 -378t-212 -317l131 -155l-190 -166l-142 166q-184 -102 -391 -103q-272 0 -432 153t-160 421zM449 590q0 -166 88 -259t241 -93q100 0 183 38l-127 150l192 166l133 -160 q156 197 156 461q0 170 -89 266t-247 96q-221 0 -375.5 -197.5t-154.5 -467.5z" />
<glyph unicode="R" horiz-adv-x="1478" d="M82 0l317 1493h772q160 0 257.5 -86t97.5 -221q0 -154 -81 -265.5t-261 -199.5q160 -53 159 -168q0 -68 -57 -375q-6 -31 -6 -53q0 -41 37 -70l-12 -55h-326q-16 51 -17 89q0 70 54 265q25 98 24 125q0 113 -174 113h-352l-125 -592h-307zM569 848h371q127 0 204 67.5 t77 178.5q0 143 -226 143h-344z" />
<glyph unicode="S" horiz-adv-x="1366" d="M78 379q0 35 8 90h299q-4 -37 -4 -47q0 -88 77 -136t216 -48q162 0 255 57t93 160q0 70 -50 100.5t-198 60.5l-201 41q-182 37 -264 110t-82 200q0 233 182.5 392t477.5 159q244 0 380 -93.5t136 -259.5q0 -51 -17 -127h-286q4 37 4 47q0 170 -270 170q-139 0 -220.5 -57 t-81.5 -156q0 -57 51.5 -88.5t196.5 -60.5l224 -45q324 -68 323 -293q0 -262 -186.5 -421t-511.5 -159q-256 0 -403.5 107t-147.5 297z" />
<glyph unicode="T" horiz-adv-x="1251" d="M209 1237l55 256h1196l-55 -256h-434l-264 -1237h-308l265 1237h-455z" />
<glyph unicode="U" horiz-adv-x="1478" d="M166 365q0 74 22 180l203 948h307l-211 -989q-10 -41 -10 -92q0 -82 66.5 -128t185.5 -46q139 0 219 64.5t109 201.5l211 989h307l-211 -989q-55 -256 -240.5 -392.5t-451.5 -136.5q-231 0 -368.5 106t-137.5 284z" />
<glyph unicode="V" horiz-adv-x="1366" d="M285 1493h309l92 -1124l565 1124h310l-824 -1493h-260z" />
<glyph unicode="W" horiz-adv-x="1933" d="M262 1493h320v-1118l458 1118h318v-1122l461 1122h325l-731 -1493h-285v1137l-485 -1137h-276z" />
<glyph unicode="X" horiz-adv-x="1366" d="M-37 0l635 752l-297 741h365l161 -483l375 483h359l-621 -731l320 -762h-367l-184 510l-387 -510h-359z" />
<glyph unicode="Y" horiz-adv-x="1366" d="M291 1493h342l168 -645l424 645h342l-672 -940l-119 -553h-307l119 553z" />
<glyph unicode="Z" horiz-adv-x="1251" d="M-20 0l55 256l971 981h-764l55 256h1122l-55 -256l-971 -981h764l-55 -256h-1122z" />
<glyph unicode="[" horiz-adv-x="681" d="M-35 -410l404 1903h497l-45 -205h-231l-316 -1493h232l-43 -205h-498z" />
<glyph unicode="\" horiz-adv-x="569" d="M201 1452h151l150 -1499h-154z" />
<glyph unicode="]" horiz-adv-x="681" d="M-133 -410l45 205h231l316 1493h-232l43 205h498l-403 -1903h-498z" />
<glyph unicode="^" horiz-adv-x="1196" d="M162 553l522 870h256l166 -870h-232l-118 614l-365 -614h-229z" />
<glyph unicode="_" d="M-233 -387l30 141h1229l-31 -141h-1228z" />
<glyph unicode="`" horiz-adv-x="681" d="M227 1540h320l76 -315h-205z" />
<glyph unicode="a" d="M23 236q0 152 109.5 261t301.5 140l119 18l105 16q36 5 49.5 10t33.5 17q70 35 70 109q0 88 -149 88q-98 0 -150.5 -35t-79.5 -119h-268q43 201 173 292t372 91q190 0 291.5 -65.5t101.5 -181.5q0 -37 -12 -93l-129 -614q-6 -25 -7 -43q0 -43 43 -92l-8 -35h-313 q-14 31 -14 55q0 29 8 70q-88 -80 -167 -111.5t-171 -31.5q-143 0 -226 69.5t-83 184.5zM315 299q0 -88 154 -88q104 0 176 68.5t98 193.5l11 49q-29 -16 -38 -18t-59 -10l-135 -23q-207 -35 -207 -172z" />
<glyph unicode="b" horiz-adv-x="1251" d="M39 0l317 1493h287l-113 -530q135 162 340 161q162 0 260.5 -115.5t98.5 -308.5q0 -289 -182.5 -503.5t-419.5 -214.5q-199 0 -275 145l-26 -127h-287zM428 428q0 -102 50 -159.5t134 -57.5q131 0 227.5 128t96.5 314q0 113 -48 177.5t-132 64.5q-133 0 -230.5 -138.5 t-97.5 -328.5z" />
<glyph unicode="c" d="M78 367q0 145 56 298.5t149 264.5q160 195 450 194q180 0 294 -98t114 -246q0 -23 -8 -88h-275q-2 119 -41 161t-127 42q-145 0 -232 -146.5t-87 -340.5q0 -104 46 -150.5t140 -46.5q88 0 139.5 34t96.5 138h274q-125 -401 -545 -401q-211 0 -327.5 105.5t-116.5 279.5z " />
<glyph unicode="d" horiz-adv-x="1251" d="M82 393q0 281 174 506t424 225q203 0 272 -161l113 530h287l-318 -1493h-286l26 127q-139 -145 -336 -145q-162 0 -259 110.5t-97 300.5zM375 436q0 -109 49 -167t133 -58q133 0 226.5 130t93.5 321q0 106 -48.5 169.5t-132.5 63.5q-129 0 -225 -137.5t-96 -321.5z" />
<glyph unicode="e" d="M51 393q0 195 75 358.5t224.5 268t343.5 104.5q201 0 317.5 -115.5t116.5 -289.5q0 -111 -34 -242h-744q-2 -18 -2 -78q0 -84 53.5 -136t141.5 -52q70 0 132 30.5t91 69.5h283q-82 -152 -230.5 -240.5t-331.5 -88.5q-195 0 -315.5 111.5t-120.5 299.5zM387 668h451v30 q0 104 -45 150.5t-134 46.5q-209 0 -272 -227z" />
<glyph unicode="f" horiz-adv-x="681" d="M102 0l191 893h-158l41 190h156l28 134q31 143 116 209.5t235 66.5l157 -6l-45 -215q-74 8 -86 8q-76 0 -94 -88l-25 -109h170l-40 -190h-168l-191 -893h-287z" />
<glyph unicode="g" horiz-adv-x="1251" d="M-29 -197q0 27 6 64h295l-2 -25q0 -45 50.5 -74.5t125.5 -29.5q113 0 195 62.5t104 162.5l35 164q-96 -82 -168.5 -113.5t-167.5 -31.5q-158 0 -260 103t-102 271q0 199 79 375t220 284.5t311 108.5q178 0 260 -188l37 170h273l-244 -1143q-41 -197 -202 -303t-417 -106 q-201 0 -314.5 66t-113.5 183zM375 426q0 -104 47 -159.5t129 -55.5q137 0 234.5 124t97.5 310q0 115 -51.5 182.5t-137.5 67.5q-127 0 -223 -140.5t-96 -328.5z" />
<glyph unicode="h" horiz-adv-x="1251" d="M55 0l318 1493h286l-118 -555q158 186 368 186q133 0 215 -74.5t82 -195.5q0 -55 -12 -113l-158 -741h-286l137 641q8 41 12 98q0 156 -149 156q-98 0 -173 -73.5t-102 -198.5l-133 -623h-287z" />
<glyph unicode="i" horiz-adv-x="569" d="M55 0l236 1106h287l-236 -1106h-287zM322 1249l55 269h287l-56 -269h-286z" />
<glyph unicode="j" horiz-adv-x="569" d="M-170 -436l49 227q10 -8 51 -8q47 0 71 20.5t34 69.5l262 1233h287l-277 -1299q-29 -133 -120 -193t-265 -60q-57 0 -92 10zM328 1249l55 269h287l-56 -269h-286z" />
<glyph unicode="k" d="M39 0l317 1493h287l-174 -817l457 430h325l-475 -422l264 -684h-335l-162 489l-140 -127l-77 -362h-287z" />
<glyph unicode="l" horiz-adv-x="569" d="M55 0l318 1493h286l-317 -1493h-287z" />
<glyph unicode="m" horiz-adv-x="1820" d="M41 0l235 1106h285l-35 -166q90 100 170 142t181 42q94 0 162.5 -45t90.5 -123q162 168 363 168q137 0 214 -68.5t77 -189.5q0 -45 -17 -125l-157 -741h-287l147 696q10 47 11 84q0 115 -119 115q-96 0 -162.5 -60.5t-89.5 -170.5l-141 -664h-287l152 709q6 33 6 67 q0 53 -35 86t-94 33q-90 0 -154.5 -62.5t-87.5 -168.5l-141 -664h-287z" />
<glyph unicode="n" horiz-adv-x="1251" d="M47 0l236 1106h286l-37 -168q82 98 170.5 142t202.5 44q137 0 219 -73.5t82 -196.5q0 -55 -12 -113l-158 -741h-286l137 641q6 31 12 100q0 154 -151 154q-104 0 -179 -72.5t-102 -199.5l-133 -623h-287z" />
<glyph unicode="o" horiz-adv-x="1251" d="M88 377q0 322 189.5 534.5t486.5 212.5q211 0 332 -109.5t121 -299.5q0 -326 -188.5 -529.5t-491.5 -203.5q-205 0 -327 105.5t-122 289.5zM381 434q0 -106 56.5 -164.5t150.5 -58.5q141 0 238.5 129t97.5 315q0 109 -55.5 174.5t-149.5 65.5q-139 0 -238.5 -133 t-99.5 -328z" />
<glyph unicode="p" horiz-adv-x="1251" d="M-59 -446l329 1552h287l-35 -164q141 182 346 182q164 0 259.5 -114.5t95.5 -309.5q0 -307 -172 -512.5t-422 -205.5q-205 0 -275 165l-127 -593h-286zM426 428q0 -102 49 -159.5t133 -57.5q133 0 227.5 129t94.5 322q0 106 -49.5 169.5t-130.5 63.5q-133 0 -228.5 -137 t-95.5 -330z" />
<glyph unicode="q" horiz-adv-x="1251" d="M70 385q0 291 174 515t430 224q211 0 272 -182l35 164h287l-330 -1552h-287l127 593q-141 -166 -346 -165q-164 0 -263 108.5t-99 294.5zM362 430q0 -104 50.5 -161.5t134.5 -57.5q135 0 230 130t95 323q0 106 -49 168.5t-133 62.5q-133 0 -230.5 -137.5t-97.5 -327.5z " />
<glyph unicode="r" horiz-adv-x="796" d="M47 0l236 1106h286l-47 -217q72 113 166 174t193 61q18 0 34 -2l-61 -291q-49 8 -88 9q-254 0 -307 -252l-125 -588h-287z" />
<glyph unicode="s" d="M47 289q0 20 8 61h281q6 -139 217 -139q209 0 209 98q-2 25 -33 43.5t-125 48.5l-162 52q-264 84 -264 254q0 172 144.5 294.5t388.5 122.5q193 0 303 -78.5t110 -218.5q0 -33 -10 -77h-276q6 29 6 38q0 49 -48 78t-132 29q-82 0 -131.5 -29.5t-49.5 -79.5q0 -31 28 -50 t105 -42l197 -57q129 -37 190.5 -94.5t61.5 -145.5q0 -195 -151.5 -305t-413.5 -110q-203 0 -328 84t-125 223z" />
<glyph unicode="t" horiz-adv-x="681" d="M131 154q0 37 10 84l138 655h-142l41 190h141l64 297h287l-64 -297h160l-41 -190h-160l-121 -578q-12 -53 -12 -69q0 -51 78 -51q25 0 68 6l-41 -201q-111 -8 -172 -8q-234 0 -234 162z" />
<glyph unicode="u" horiz-adv-x="1251" d="M104 252q0 55 13 113l157 741h287l-137 -641q-8 -35 -12 -100q0 -154 155 -154q100 0 174 73.5t101 198.5l133 623h287l-236 -1106h-287l33 154q-158 -172 -369 -172q-135 0 -217 73.5t-82 196.5z" />
<glyph unicode="v" d="M182 1106h303l62 -809l401 809h303l-616 -1106h-301z" />
<glyph unicode="w" horiz-adv-x="1593" d="M164 1106h307v-774l326 774h295v-774l333 774h297l-540 -1106h-308v778l-339 -778h-295z" />
<glyph unicode="x" d="M-49 0l477 561l-227 545h344l104 -334l252 334h344l-485 -545l252 -561h-344l-121 344l-252 -344h-344z" />
<glyph unicode="y" d="M-6 -440l47 223q23 -4 57 -4q106 0 169 51t63 139l-158 1137h315l74 -805l400 805h294l-733 -1307q-86 -154 -176 -201t-262 -47q-55 1 -90 9z" />
<glyph unicode="z" horiz-adv-x="1024" d="M-39 0l49 231l684 643h-510l49 232h863l-49 -232l-680 -643h561l-49 -231h-918z" />
<glyph unicode="{" horiz-adv-x="796" d="M90 457l41 188h33q131 0 160 129l92 432q29 137 110.5 212t202.5 75h156l-43 -203h-76q-57 0 -79.5 -22.5t-37.5 -93.5l-84 -400q-23 -111 -80 -161t-168 -62q86 -14 124 -45t38 -96q0 -33 -10 -84l-86 -400q-10 -43 -10 -82q0 -51 80 -51h71l-43 -203h-157 q-88 0 -143.5 57.5t-55.5 149.5q0 45 8 80l92 430q10 51 11 70q0 72 -111 78z" />
<glyph unicode="|" horiz-adv-x="573" d="M213 -410v1903h205v-1903h-205z" />
<glyph unicode="}" horiz-adv-x="796" d="M-23 -410l43 203h78q57 0 80 22.5t37 94.5l84 399q23 111 80 161t168 62q-86 12 -124 44t-38 98q0 33 10 84l86 399q4 14 11 82q0 51 -80 51h-74l43 203h160q88 0 143 -57.5t55 -149.5q0 -45 -8 -80l-92 -430q-10 -51 -10 -69q0 -72 110 -78l37 -2l-41 -189h-35 q-131 0 -159 -129l-92 -432q-29 -137 -111 -212t-203 -75h-158z" />
<glyph unicode="~" horiz-adv-x="1196" d="M117 346q80 297 325 297q96 0 156 -51l100 -86q59 -53 115 -51q57 0 86 28.5t51 106.5h158q-35 -145 -118 -222t-206 -77q-98 0 -157 53l-99 86q-57 49 -114 49q-59 0 -88 -28.5t-50 -104.5h-159z" />
<glyph unicode="&#xa1;" horiz-adv-x="681" d="M23 -381l92 430l219 633h137l-49 -633l-92 -430h-307zM276 807l64 299h307l-63 -299h-308z" />
<glyph unicode="&#xa2;" d="M80 352q0 129 48 277.5t124 257.5q150 215 420 235l39 176h135l-39 -178q147 -18 241.5 -112.5t94.5 -227.5q0 -23 -8 -88h-275q0 92 -22.5 136t-79.5 63l-150 -709q63 14 106.5 61.5t80.5 139.5h274q-55 -188 -192.5 -304t-317.5 -124l-43 -209h-135l45 213 q-160 27 -253 129t-93 264zM373 391q0 -84 23.5 -130t78.5 -71l148 701q-115 -31 -182.5 -179.5t-67.5 -320.5z" />
<glyph unicode="&#xa3;" d="M18 164q160 94 227.5 179t67.5 192q0 41 -10 112h-182l24 113h123q-53 156 -53 219q0 193 167 339t406 146q418 0 418 -360q0 -45 -8 -113h-268q2 20 2 53q0 190 -191 191q-94 0 -163.5 -65.5t-69.5 -153.5q0 -8 27.5 -129t29.5 -127h285l-25 -113h-250q4 -27 5 -53 q0 -109 -71 -204t-239 -214q98 45 136 56.5t86 11.5q39 0 133 -19q86 -16 135 -16q100 0 233 59l37 -223q-178 -92 -317 -92q-33 0 -192 30.5t-199 30.5q-102 0 -236 -57z" />
<glyph unicode="&#xa4;" d="M-27 291l244 201q-41 106 -12 239q27 129 112 236l-157 200l164 136l157 -201q125 68 254 67q137 0 226 -67l243 201l107 -136l-244 -200q45 -102 18 -236q-29 -135 -118 -239l157 -201l-163 -135l-158 200q-117 -68 -254 -67q-129 0 -225 67l-244 -200zM434 731 q-23 -98 21.5 -164.5t138.5 -66.5t167 66.5t95 164.5q20 98 -26 162.5t-140 64.5t-165 -64.5t-91 -162.5z" />
<glyph unicode="&#xa5;" d="M137 369l27 123h299l22 106h-299l25 123h287l-262 721h284l174 -520l383 520h279l-547 -721h285l-27 -123h-295l-22 -106h294l-26 -123h-295l-78 -369h-287l78 369h-299z" />
<glyph unicode="&#xa6;" horiz-adv-x="573" d="M213 352h205v-762h-205v762zM213 731v762h205v-762h-205z" />
<glyph unicode="&#xa7;" d="M33 -121q0 53 18 121h268q-6 -53 -6 -70q0 -113 133 -112q78 0 131.5 44t53.5 107q0 41 -18.5 62.5t-94.5 68.5l-307 205q-111 76 -111 201q0 121 52.5 197.5t207.5 173.5q-78 80 -77 196q0 164 145 286t360 122q164 0 257.5 -70t93.5 -194q0 -31 -15 -103h-260 q2 14 2 37q0 121 -127 121q-66 0 -109.5 -37t-43.5 -90q0 -61 145 -152l230 -143q141 -88 141 -232q0 -137 -61.5 -222t-204.5 -138q98 -80 98 -203q0 -190 -158 -328.5t-383 -138.5q-166 0 -263 79t-97 212zM367 616q0 -61 79 -110l256 -158q133 61 134 158 q0 37 -20.5 62.5t-74.5 58.5l-260 155q-114 -60 -114 -166z" />
<glyph unicode="&#xa8;" horiz-adv-x="681" d="M199 1266l51 235h258l-51 -235h-258zM598 1266l51 235h258l-51 -235h-258z" />
<glyph unicode="&#xa9;" horiz-adv-x="1509" d="M72 696q0 295 208.5 505t503.5 210t505 -210t210 -505t-210 -503.5t-505 -208.5t-503.5 208.5t-208.5 503.5zM193 696.5q0 -245.5 173 -419t418.5 -173.5t419.5 173.5t174 419t-174 419.5t-419.5 174t-418.5 -174t-173 -419.5zM389 567q-4 227 135.5 377t347.5 150 q135 0 219.5 -62.5t88.5 -161.5q0 -8 -6 -69h-187q2 68 -33.5 99.5t-103.5 31.5q-125 0 -193 -101q-74 -104 -69 -227q2 -143 155 -143q164 0 199 135h191q-33 -143 -141.5 -220t-274.5 -77q-152 0 -239 71.5t-89 196.5z" />
<glyph unicode="&#xaa;" horiz-adv-x="757" d="M115 537l35 163h579l-33 -163h-581zM193 948q0 98 67.5 165t181.5 87l70 12q102 14 129 32t27 59q0 51 -90 51q-59 0 -91 -20.5t-47 -69.5h-161q51 229 329 229q109 0 171.5 -39t62.5 -108q0 -23 -6 -58l-80 -368q-2 -10 -2 -27q0 -25 24 -55l-4 -21h-188q-8 16 -8 33 q0 12 4 33q-106 -94 -220 -95q-78 0 -123.5 43t-45.5 117zM371 989q0 -61 86 -61q63 0 107 41t59 114l10 47q-20 -8 -33 -12l-25 -4l-81 -14q-123 -23 -123 -111z" />
<glyph unicode="&#xab;" d="M195 446l49 234l407 305l-51 -240l-246 -182l168 -182l-49 -234zM631 446l49 234l407 305l-51 -240l-245 -182l167 -182l-49 -234z" />
<glyph unicode="&#xac;" horiz-adv-x="1196" d="M152 596v205h950v-475h-205v270h-745z" />
<glyph unicode="&#xad;" horiz-adv-x="681" d="M61 424l60 276h557l-60 -276h-557z" />
<glyph unicode="&#xae;" horiz-adv-x="1509" d="M72 696q0 295 208.5 505t503.5 210t505 -210t210 -505t-210 -503.5t-505 -208.5t-503.5 208.5t-208.5 503.5zM193 696.5q0 -245.5 173 -419t418.5 -173.5t419.5 173.5t174 419t-174 419.5t-419.5 174t-418.5 -174t-173 -419.5zM381 311l164 770h436q94 0 150.5 -46 t58.5 -117q2 -145 -158 -232q61 -27 66 -82q0 -41 -29 -188q-2 -8 -2 -23q0 -16 23 -31l-13 -51h-200q-14 37 -15 54q-2 35 27 139q12 49 12 57q-2 43 -84 43h-176l-61 -293h-199zM676 762h186q59 0 95 28.5t36 73.5q-4 59 -112 60h-172z" />
<glyph unicode="&#xaf;" horiz-adv-x="681" d="M223 1300l35 164h614l-34 -164h-615z" />
<glyph unicode="&#xb0;" horiz-adv-x="819" d="M282.5 1165q26.5 121 130 207t224.5 86t189.5 -86t42 -207t-130 -207t-224.5 -86t-189.5 86t-42 207zM397.5 1165.5q-16.5 -73.5 24.5 -126t114.5 -52.5t138 52.5t79 126t-26.5 125.5t-114.5 52t-136 -52t-79 -125.5z" />
<glyph unicode="&#xb1;" horiz-adv-x="1196" d="M152 0v205h950v-205h-950zM152 614v205h372v373h205v-373h373v-205h-373v-225h-205v225h-372z" />
<glyph unicode="&#xb2;" horiz-adv-x="681" d="M121 688q27 111 80 173.5t174 131.5q150 86 194.5 127t57.5 101q23 117 -86 116q-106 0 -135 -129l-5 -28h-165q4 25 6 32q27 125 114.5 191.5t223.5 66.5q131 0 188 -62t33 -179q-18 -82 -66.5 -134.5t-175.5 -129.5q-59 -35 -94 -57.5t-44 -30t-46 -43.5h338l-33 -146 h-559z" />
<glyph unicode="&#xb3;" horiz-adv-x="681" d="M176 922h166q-18 -119 90 -119q49 0 88 30.5t49 77.5q10 53 -22.5 83t-106.5 30h-28l24 113h21q135 0 157 104q8 45 -12 71.5t-63 26.5q-55 0 -85 -31.5t-46 -103.5h-160q68 266 325 266q119 0 177.5 -57t37.5 -153q-25 -104 -129 -160q111 -59 82 -187 q-25 -113 -118 -181t-222 -68q-133 0 -191.5 67.5t-33.5 190.5z" />
<glyph unicode="&#xb4;" horiz-adv-x="681" d="M418 1225l209 315h319l-323 -315h-205z" />
<glyph unicode="&#xb5;" horiz-adv-x="1251" d="M-59 -451l331 1557h287l-145 -682q-14 -68 -15 -94q0 -59 42 -93t114 -34q102 0 175 57t95 154l148 692h287l-170 -799q-14 -59 -15 -102q0 -47 43 -47q16 0 43 8l-37 -176q-74 -37 -151 -37q-70 0 -108 24.5t-62 88.5q-74 -63 -137.5 -88t-151.5 -25q-125 0 -195 78 l-102 -482h-276z" />
<glyph unicode="&#xb6;" d="M166 891q0 223 160.5 412.5t373.5 189.5h619l-31 -150h-90l-369 -1734h-200l368 1734h-127l-368 -1734h-201l199 938q-154 8 -244 100t-90 244z" />
<glyph unicode="&#xb7;" horiz-adv-x="569" d="M160 512q0 63 45 108.5t108.5 45.5t108.5 -45.5t45 -108.5t-45 -108.5t-108.5 -45.5t-108.5 45.5t-45 108.5z" />
<glyph unicode="&#xb8;" horiz-adv-x="681" d="M-109 -412l62 105q104 -51 201 -51q59 0 99 21.5t40 57.5q0 33 -25.5 56.5t-64.5 23.5h-103l123 203h123l-74 -119h68q59 0 95 -40t36 -97q0 -100 -84 -159.5t-223 -59.5q-121 0 -273 59z" />
<glyph unicode="&#xb9;" horiz-adv-x="681" d="M283 1206l24 111q209 0 279 135h114l-163 -766h-172l110 520h-192z" />
<glyph unicode="&#xba;" horiz-adv-x="747" d="M106 537l35 163h617l-35 -163h-617zM205 1036q0 193 114.5 325t292.5 132q127 0 199 -65.5t72 -178.5q0 -199 -117 -328.5t-297 -129.5q-121 0 -192.5 66t-71.5 179zM383 1065q0 -66 33 -105.5t86 -39.5q82 0 142.5 86t60.5 202q0 66 -33 106t-86 40q-84 0 -143.5 -85 t-59.5 -204z" />
<glyph unicode="&#xbb;" d="M129 147l51 240l246 182l-168 183l49 233l279 -299l-49 -235zM553 147l51 240l246 182l-168 183l49 233l279 -299l-49 -235z" />
<glyph unicode="&#xbc;" horiz-adv-x="1708" d="M236 -51l1187 1515h179l-1188 -1515h-178zM305 1206l25 111q207 0 278 135h115l-164 -766h-172l111 520h-193zM928 168l28 133l398 465h196l-98 -463h82l-29 -135h-82l-34 -168h-172l34 168h-323zM1090 303h190l63 295z" />
<glyph unicode="&#xbd;" horiz-adv-x="1708" d="M182 -51l1188 1515h178l-1188 -1515h-178zM305 1206l25 111q207 0 278 135h115l-164 -766h-172l111 520h-193zM942 0q27 109 79 172.5t173 132.5q150 86 195 127t57 100q12 55 -10.5 86t-75.5 31q-109 0 -135 -129l-2 -28h-166q4 29 4 32q27 125 115 191.5t223 66.5 q131 0 187 -62.5t32 -178.5q-16 -82 -65.5 -135.5t-172.5 -126.5q-102 -61 -119.5 -73.5t-66.5 -60.5h338l-31 -145h-559z" />
<glyph unicode="&#xbe;" horiz-adv-x="1708" d="M244 922h166q-18 -119 90 -119q49 0 88 30.5t49 77.5q10 53 -22.5 83t-106.5 30h-29l25 113h20q135 0 158 104q8 45 -12.5 71.5t-63.5 26.5q-55 0 -84.5 -31.5t-46.5 -103.5h-160q68 266 326 266q119 0 177.5 -57t37.5 -153q-25 -104 -129 -160q111 -59 82 -187 q-25 -113 -118 -181t-222 -68q-133 0 -191.5 67.5t-33.5 190.5zM301 -51l1188 1515h178l-1188 -1515h-178zM928 168l28 133l398 465h196l-98 -463h82l-29 -135h-82l-34 -168h-172l34 168h-323zM1090 303h190l63 295z" />
<glyph unicode="&#xbf;" horiz-adv-x="1251" d="M41 -53q0 178 104 313q68 86 238 191q104 66 135 104.5t51 138.5h250q-10 -117 -76.5 -211t-210.5 -194q-90 -63 -135 -112.5t-54 -81.5t-9 -81q0 -78 52 -128t134 -50q104 0 176 75t99 210h278q-121 -539 -590 -539q-209 0 -325.5 100.5t-116.5 264.5zM561 807l64 299 h307l-64 -299h-307z" />
<glyph unicode="&#xc0;" horiz-adv-x="1478" d="M-29 0l834 1493h354l199 -1493h-314l-36 301h-557l-166 -301h-314zM592 557h387l-72 580zM631 1886h352l131 -276h-213z" />
<glyph unicode="&#xc1;" horiz-adv-x="1478" d="M-29 0l834 1493h354l199 -1493h-314l-36 301h-557l-166 -301h-314zM592 557h387l-72 580zM899 1610l250 276h352l-389 -276h-213z" />
<glyph unicode="&#xc2;" horiz-adv-x="1478" d="M-29 0l834 1493h354l199 -1493h-314l-36 301h-557l-166 -301h-314zM592 557h387l-72 580zM616 1614l342 270h265l176 -270h-176l-168 108l-252 -108h-187z" />
<glyph unicode="&#xc3;" horiz-adv-x="1478" d="M-29 0l834 1493h354l199 -1493h-314l-36 301h-557l-166 -301h-314zM592 557h387l-72 580zM639 1628q35 115 99.5 177.5t148.5 62.5q63 0 145 -35l103 -43q51 -23 67 -21q68 0 111 105h110q-35 -127 -107.5 -188.5t-164.5 -61.5q-66 0 -104 23l-103 51q-61 29 -90 28 q-53 0 -104 -98h-111z" />
<glyph unicode="&#xc4;" horiz-adv-x="1478" d="M-29 0l834 1493h354l199 -1493h-314l-36 301h-557l-166 -301h-314zM592 557h387l-72 580zM684 1632l51 236h258l-51 -236h-258zM1083 1632l52 236h258l-52 -236h-258z" />
<glyph unicode="&#xc5;" horiz-adv-x="1478" d="M-29 0l834 1493h354l199 -1493h-314l-36 301h-557l-166 -301h-314zM592 557h387l-72 580zM836 1724q0 96 76.5 171t174.5 75q70 0 116 -45t46 -115q0 -96 -76.5 -170.5t-175.5 -74.5q-70 0 -115.5 44.5t-45.5 114.5zM944 1749q0 -31 22.5 -51.5t55.5 -20.5q45 0 81 34 t36 77q0 31 -20.5 50.5t-53.5 19.5q-47 0 -84 -33t-37 -76z" />
<glyph unicode="&#xc6;" horiz-adv-x="2048" d="M-80 0l860 1493h1399l-53 -256h-752l-74 -338h695l-53 -256h-695l-82 -387h791l-55 -256h-1098l65 311h-448l-174 -311h-326zM553 567h371l143 670h-135z" />
<glyph unicode="&#xc7;" horiz-adv-x="1478" d="M139 494q0 440 252 732t619 292q238 0 385 -119t147 -309q0 -27 -8 -103h-289q0 268 -270 268q-246 0 -387 -223q-143 -223 -144 -479q0 -315 304 -315q311 0 397 272h293q-61 -242 -232.5 -378t-425.5 -155l-57 -92h68q59 0 95 -40t36 -97q0 -100 -84 -159.5t-224 -59.5 q-121 0 -272 59l61 105q104 -51 201 -51q59 0 99 21.5t40 57.5q0 33 -25.5 56.5t-64.5 23.5h-102l106 176q-244 12 -381 148t-137 369z" />
<glyph unicode="&#xc8;" horiz-adv-x="1366" d="M80 0l317 1493h1082l-56 -256h-774l-71 -338h714l-53 -256h-715l-82 -387h809l-55 -256h-1116zM586 1886h352l131 -276h-213z" />
<glyph unicode="&#xc9;" horiz-adv-x="1366" d="M80 0l317 1493h1082l-56 -256h-774l-71 -338h714l-53 -256h-715l-82 -387h809l-55 -256h-1116zM854 1610l250 276h352l-389 -276h-213z" />
<glyph unicode="&#xca;" horiz-adv-x="1366" d="M80 0l317 1493h1082l-56 -256h-774l-71 -338h714l-53 -256h-715l-82 -387h809l-55 -256h-1116zM571 1614l342 270h265l176 -270h-176l-168 108l-252 -108h-187z" />
<glyph unicode="&#xcb;" horiz-adv-x="1366" d="M80 0l317 1493h1082l-56 -256h-774l-71 -338h714l-53 -256h-715l-82 -387h809l-55 -256h-1116zM639 1632l51 236h258l-51 -236h-258zM1038 1632l52 236h258l-52 -236h-258z" />
<glyph unicode="&#xcc;" horiz-adv-x="569" d="M47 0l318 1493h307l-318 -1493h-307zM213 1886h352l131 -276h-213z" />
<glyph unicode="&#xcd;" horiz-adv-x="569" d="M47 0l318 1493h307l-318 -1493h-307zM389 1610l250 276h352l-389 -276h-213z" />
<glyph unicode="&#xce;" horiz-adv-x="569" d="M47 0l318 1493h307l-318 -1493h-307zM152 1614l342 270h264l176 -270h-176l-168 108l-252 -108h-186z" />
<glyph unicode="&#xcf;" horiz-adv-x="569" d="M47 0l318 1493h307l-318 -1493h-307zM219 1632l51 236h258l-51 -236h-258zM618 1632l52 236h258l-51 -236h-259z" />
<glyph unicode="&#xd0;" horiz-adv-x="1478" d="M68 698l34 164h156l135 631h584q279 0 404.5 -122t125.5 -390q0 -377 -229 -694q-113 -156 -254 -221.5t-365 -65.5h-583l149 698h-157zM438 256h275q133 0 217 48t149 163q53 90 88 231.5t35 262.5q0 276 -280 276h-277l-80 -375h357l-35 -164h-355z" />
<glyph unicode="&#xd1;" horiz-adv-x="1478" d="M57 0l318 1493h307l393 -1055l223 1055h291l-317 -1493h-303l-394 1071l-227 -1071h-291zM639 1628q35 115 99.5 177.5t148.5 62.5q63 0 145 -35l103 -43q51 -23 67 -21q68 0 111 105h110q-35 -127 -107.5 -188.5t-164.5 -61.5q-66 0 -104 23l-103 51q-61 29 -90 28 q-53 0 -104 -98h-111z" />
<glyph unicode="&#xd2;" horiz-adv-x="1593" d="M137 547q0 176 66.5 351t187.5 319q252 301 629 301q281 0 437.5 -155t156.5 -431q0 -371 -250 -666q-131 -156 -282.5 -223.5t-350.5 -67.5q-274 0 -434 152t-160 420zM442 590q0 -166 91.5 -259t246.5 -93q223 0 376 191.5t153 465.5q0 170 -87 265t-241 95 q-225 0 -382 -197.5t-157 -467.5zM662 1886h352l131 -276h-213z" />
<glyph unicode="&#xd3;" horiz-adv-x="1593" d="M137 547q0 176 66.5 351t187.5 319q252 301 629 301q281 0 437.5 -155t156.5 -431q0 -371 -250 -666q-131 -156 -282.5 -223.5t-350.5 -67.5q-274 0 -434 152t-160 420zM442 590q0 -166 91.5 -259t246.5 -93q223 0 376 191.5t153 465.5q0 170 -87 265t-241 95 q-225 0 -382 -197.5t-157 -467.5zM932 1610l250 276h352l-389 -276h-213z" />
<glyph unicode="&#xd4;" horiz-adv-x="1593" d="M137 547q0 176 66.5 351t187.5 319q252 301 629 301q281 0 437.5 -155t156.5 -431q0 -371 -250 -666q-131 -156 -282.5 -223.5t-350.5 -67.5q-274 0 -434 152t-160 420zM442 590q0 -166 91.5 -259t246.5 -93q223 0 376 191.5t153 465.5q0 170 -87 265t-241 95 q-225 0 -382 -197.5t-157 -467.5zM649 1614l342 270h264l177 -270h-177l-168 108l-251 -108h-187z" />
<glyph unicode="&#xd5;" horiz-adv-x="1593" d="M137 547q0 176 66.5 351t187.5 319q252 301 629 301q281 0 437.5 -155t156.5 -431q0 -371 -250 -666q-131 -156 -282.5 -223.5t-350.5 -67.5q-274 0 -434 152t-160 420zM442 590q0 -166 91.5 -259t246.5 -93q223 0 376 191.5t153 465.5q0 170 -87 265t-241 95 q-225 0 -382 -197.5t-157 -467.5zM670 1628q35 115 99.5 177.5t148.5 62.5q63 0 145 -35l102 -43q51 -23 68 -21q68 0 110 105h111q-35 -127 -107.5 -188.5t-164.5 -61.5q-66 0 -105 23l-102 51q-61 29 -90 28q-53 0 -105 -98h-110z" />
<glyph unicode="&#xd6;" horiz-adv-x="1593" d="M137 547q0 176 66.5 351t187.5 319q252 301 629 301q281 0 437.5 -155t156.5 -431q0 -371 -250 -666q-131 -156 -282.5 -223.5t-350.5 -67.5q-274 0 -434 152t-160 420zM442 590q0 -166 91.5 -259t246.5 -93q223 0 376 191.5t153 465.5q0 170 -87 265t-241 95 q-225 0 -382 -197.5t-157 -467.5zM715 1632l51 236h258l-51 -236h-258zM1114 1632l51 236h258l-51 -236h-258z" />
<glyph unicode="&#xd7;" horiz-adv-x="1196" d="M219 248l262 264l-262 264l143 144l265 -263l264 263l143 -144l-262 -264l262 -264l-143 -144l-264 263l-265 -263z" />
<glyph unicode="&#xd8;" horiz-adv-x="1593" d="M27 113l172 151q-61 127 -62 283q0 176 66.5 351t187.5 319q252 301 629 301q276 0 434 -152l162 145l113 -131l-175 -153q59 -129 60 -295q0 -371 -250 -666q-131 -156 -282.5 -223.5t-350.5 -67.5q-270 0 -430 150l-162 -143zM442 590q0 -51 11 -103l768 674 q-88 94 -240 94q-225 0 -382 -197.5t-157 -467.5zM535 330q92 -92 245 -92q223 0 376 191.5t153 465.5q0 51 -11 106z" />
<glyph unicode="&#xd9;" horiz-adv-x="1478" d="M166 365q0 74 22 180l203 948h307l-211 -989q-10 -41 -10 -92q0 -82 66.5 -128t185.5 -46q139 0 219 64.5t109 201.5l211 989h307l-211 -989q-55 -256 -240.5 -392.5t-451.5 -136.5q-231 0 -368.5 106t-137.5 284zM631 1886h352l131 -276h-213z" />
<glyph unicode="&#xda;" horiz-adv-x="1478" d="M166 365q0 74 22 180l203 948h307l-211 -989q-10 -41 -10 -92q0 -82 66.5 -128t185.5 -46q139 0 219 64.5t109 201.5l211 989h307l-211 -989q-55 -256 -240.5 -392.5t-451.5 -136.5q-231 0 -368.5 106t-137.5 284zM899 1610l250 276h352l-389 -276h-213z" />
<glyph unicode="&#xdb;" horiz-adv-x="1478" d="M166 365q0 74 22 180l203 948h307l-211 -989q-10 -41 -10 -92q0 -82 66.5 -128t185.5 -46q139 0 219 64.5t109 201.5l211 989h307l-211 -989q-55 -256 -240.5 -392.5t-451.5 -136.5q-231 0 -368.5 106t-137.5 284zM616 1614l342 270h265l176 -270h-176l-168 108 l-252 -108h-187z" />
<glyph unicode="&#xdc;" horiz-adv-x="1478" d="M166 365q0 74 22 180l203 948h307l-211 -989q-10 -41 -10 -92q0 -82 66.5 -128t185.5 -46q139 0 219 64.5t109 201.5l211 989h307l-211 -989q-55 -256 -240.5 -392.5t-451.5 -136.5q-231 0 -368.5 106t-137.5 284zM684 1632l51 236h258l-51 -236h-258zM1083 1632l52 236 h258l-52 -236h-258z" />
<glyph unicode="&#xdd;" horiz-adv-x="1366" d="M291 1493h342l168 -645l424 645h342l-672 -940l-119 -553h-307l119 553zM858 1610l250 276h352l-389 -276h-213z" />
<glyph unicode="&#xde;" horiz-adv-x="1366" d="M74 0l317 1493h307l-53 -246h326q203 0 313.5 -96t110.5 -250q0 -246 -166 -430t-404 -184h-383l-61 -287h-307zM496 543h313q131 0 206 76.5t75 209.5q0 72 -51.5 117t-133.5 45h-313z" />
<glyph unicode="&#xdf;" horiz-adv-x="1251" d="M55 0l244 1143q35 160 182.5 255t362.5 95q186 0 299.5 -83t113.5 -218q0 -119 -67.5 -214t-181.5 -136q96 -23 148 -94.5t52 -180.5q0 -246 -176 -430t-399 -184q-47 0 -139 14l49 230h28q162 0 253 93t91 224q0 201 -231 201h-31l41 194q127 0 199 63.5t72 157.5 q0 63 -49.5 98.5t-133.5 35.5q-172 0 -207 -164l-233 -1100h-287z" />
<glyph unicode="&#xe0;" d="M23 236q0 152 109.5 261t301.5 140l119 18l105 16q36 5 49.5 10t33.5 17q70 35 70 109q0 88 -149 88q-98 0 -150.5 -35t-79.5 -119h-268q43 201 173 292t372 91q190 0 291.5 -65.5t101.5 -181.5q0 -37 -12 -93l-129 -614q-6 -25 -7 -43q0 -43 43 -92l-8 -35h-313 q-14 31 -14 55q0 29 8 70q-88 -80 -167 -111.5t-171 -31.5q-143 0 -226 69.5t-83 184.5zM315 299q0 -88 154 -88q104 0 176 68.5t98 193.5l11 49q-29 -16 -38 -18t-59 -10l-135 -23q-207 -35 -207 -172zM438 1540h320l76 -315h-205z" />
<glyph unicode="&#xe1;" d="M23 236q0 152 109.5 261t301.5 140l119 18l105 16q36 5 49.5 10t33.5 17q70 35 70 109q0 88 -149 88q-98 0 -150.5 -35t-79.5 -119h-268q43 201 173 292t372 91q190 0 291.5 -65.5t101.5 -181.5q0 -37 -12 -93l-129 -614q-6 -25 -7 -43q0 -43 43 -92l-8 -35h-313 q-14 31 -14 55q0 29 8 70q-88 -80 -167 -111.5t-171 -31.5q-143 0 -226 69.5t-83 184.5zM315 299q0 -88 154 -88q104 0 176 68.5t98 193.5l11 49q-29 -16 -38 -18t-59 -10l-135 -23q-207 -35 -207 -172zM627 1225l209 315h319l-324 -315h-204z" />
<glyph unicode="&#xe2;" d="M23 236q0 152 109.5 261t301.5 140l119 18l105 16q36 5 49.5 10t33.5 17q70 35 70 109q0 88 -149 88q-98 0 -150.5 -35t-79.5 -119h-268q43 201 173 292t372 91q190 0 291.5 -65.5t101.5 -181.5q0 -37 -12 -93l-129 -614q-6 -25 -7 -43q0 -43 43 -92l-8 -35h-313 q-14 31 -14 55q0 29 8 70q-88 -80 -167 -111.5t-171 -31.5q-143 0 -226 69.5t-83 184.5zM315 299q0 -88 154 -88q104 0 176 68.5t98 193.5l11 49q-29 -16 -38 -18t-59 -10l-135 -23q-207 -35 -207 -172zM383 1225l287 315h260l145 -315h-180l-135 157l-201 -157h-176z" />
<glyph unicode="&#xe3;" d="M23 236q0 152 109.5 261t301.5 140l119 18l105 16q36 5 49.5 10t33.5 17q70 35 70 109q0 88 -149 88q-98 0 -150.5 -35t-79.5 -119h-268q43 201 173 292t372 91q190 0 291.5 -65.5t101.5 -181.5q0 -37 -12 -93l-129 -614q-6 -25 -7 -43q0 -43 43 -92l-8 -35h-313 q-14 31 -14 55q0 29 8 70q-88 -80 -167 -111.5t-171 -31.5q-143 0 -226 69.5t-83 184.5zM315 299q0 -88 154 -88q104 0 176 68.5t98 193.5l11 49q-29 -16 -38 -18t-59 -10l-135 -23q-207 -35 -207 -172zM362 1262q35 115 99.5 177t148.5 62q63 0 146 -35l102 -43 q51 -23 68 -20q68 0 110 104h111q-35 -127 -107.5 -188.5t-165.5 -61.5q-66 0 -104 23l-102 51q-61 29 -90 29q-53 0 -105 -98h-111z" />
<glyph unicode="&#xe4;" d="M23 236q0 152 109.5 261t301.5 140l119 18l105 16q36 5 49.5 10t33.5 17q70 35 70 109q0 88 -149 88q-98 0 -150.5 -35t-79.5 -119h-268q43 201 173 292t372 91q190 0 291.5 -65.5t101.5 -181.5q0 -37 -12 -93l-129 -614q-6 -25 -7 -43q0 -43 43 -92l-8 -35h-313 q-14 31 -14 55q0 29 8 70q-88 -80 -167 -111.5t-171 -31.5q-143 0 -226 69.5t-83 184.5zM315 299q0 -88 154 -88q104 0 176 68.5t98 193.5l11 49q-29 -16 -38 -18t-59 -10l-135 -23q-207 -35 -207 -172zM408 1266l51 235h258l-51 -235h-258zM807 1266l51 235h258l-51 -235 h-258z" />
<glyph unicode="&#xe5;" d="M23 236q0 152 109.5 261t301.5 140l119 18l105 16q36 5 49.5 10t33.5 17q70 35 70 109q0 88 -149 88q-98 0 -150.5 -35t-79.5 -119h-268q43 201 173 292t372 91q190 0 291.5 -65.5t101.5 -181.5q0 -37 -12 -93l-129 -614q-6 -25 -7 -43q0 -43 43 -92l-8 -35h-313 q-14 31 -14 55q0 29 8 70q-88 -80 -167 -111.5t-171 -31.5q-143 0 -226 69.5t-83 184.5zM315 299q0 -88 154 -88q104 0 176 68.5t98 193.5l11 49q-29 -16 -38 -18t-59 -10l-135 -23q-207 -35 -207 -172zM555 1339q0 96 77 171t175 75q70 0 116 -45t46 -115q0 -96 -77 -170.5 t-175 -74.5q-70 0 -116 44.5t-46 114.5zM666 1364q0 -31 21.5 -51.5t53.5 -20.5q45 0 81 34t36 77q0 31 -20.5 50.5t-53.5 19.5q-47 0 -82.5 -33t-35.5 -76z" />
<glyph unicode="&#xe6;" horiz-adv-x="1820" d="M31 231q0 156 109.5 265.5t301.5 140.5l117 18l106 16q36 5 49 10t36 17q70 35 69 109q0 88 -149 88q-98 0 -150.5 -35t-79.5 -119h-268q43 207 175 295t374 88q231 0 330 -100q150 100 338 100q193 0 310.5 -116.5t117.5 -288.5q0 -117 -37 -256h-742q-14 -61 -14 -105 q4 -59 61.5 -103t141.5 -44q72 0 135 30.5t92 69.5h283q-78 -145 -234.5 -237t-337.5 -92q-281 0 -370 204q-106 -115 -203.5 -159.5t-239.5 -44.5q-152 0 -236.5 63t-84.5 186zM324 299q0 -88 149 -88q106 0 179 67.5t100 192.5l10 49q-45 -23 -96 -26l-136 -23 q-206 -35 -206 -172zM1081 653h443v56q0 88 -45 137t-129 49q-203 0 -269 -242z" />
<glyph unicode="&#xe7;" d="M78 367q0 145 56 298.5t149 264.5q160 195 450 194q180 0 294 -98t114 -246q0 -23 -8 -88h-275q-2 119 -41 161t-127 42q-145 0 -232 -146.5t-87 -340.5q0 -104 46 -150.5t140 -46.5q88 0 139.5 34t96.5 138h274q-115 -362 -467 -397l-61 -101h67q59 0 95 -40t36 -97 q0 -100 -84 -159.5t-223 -59.5q-121 0 -272 59l61 105q104 -51 201 -51q59 0 99 21.5t40 57.5q0 33 -25.5 56.5t-64.5 23.5h-102l110 183q-190 12 -294.5 115.5t-104.5 267.5z" />
<glyph unicode="&#xe8;" d="M51 393q0 195 75 358.5t224.5 268t343.5 104.5q201 0 317.5 -115.5t116.5 -289.5q0 -111 -34 -242h-744q-2 -18 -2 -78q0 -84 53.5 -136t141.5 -52q70 0 132 30.5t91 69.5h283q-82 -152 -230.5 -240.5t-331.5 -88.5q-195 0 -315.5 111.5t-120.5 299.5zM387 668h451v30 q0 104 -45 150.5t-134 46.5q-209 0 -272 -227zM457 1540h319l76 -315h-205z" />
<glyph unicode="&#xe9;" d="M51 393q0 195 75 358.5t224.5 268t343.5 104.5q201 0 317.5 -115.5t116.5 -289.5q0 -111 -34 -242h-744q-2 -18 -2 -78q0 -84 53.5 -136t141.5 -52q70 0 132 30.5t91 69.5h283q-82 -152 -230.5 -240.5t-331.5 -88.5q-195 0 -315.5 111.5t-120.5 299.5zM387 668h451v30 q0 104 -45 150.5t-134 46.5q-209 0 -272 -227zM645 1225l209 315h320l-324 -315h-205z" />
<glyph unicode="&#xea;" d="M51 393q0 195 75 358.5t224.5 268t343.5 104.5q201 0 317.5 -115.5t116.5 -289.5q0 -111 -34 -242h-744q-2 -18 -2 -78q0 -84 53.5 -136t141.5 -52q70 0 132 30.5t91 69.5h283q-82 -152 -230.5 -240.5t-331.5 -88.5q-195 0 -315.5 111.5t-120.5 299.5zM387 668h451v30 q0 104 -45 150.5t-134 46.5q-209 0 -272 -227zM401 1225l287 315h260l146 -315h-181l-135 157l-200 -157h-177z" />
<glyph unicode="&#xeb;" d="M51 393q0 195 75 358.5t224.5 268t343.5 104.5q201 0 317.5 -115.5t116.5 -289.5q0 -111 -34 -242h-744q-2 -18 -2 -78q0 -84 53.5 -136t141.5 -52q70 0 132 30.5t91 69.5h283q-82 -152 -230.5 -240.5t-331.5 -88.5q-195 0 -315.5 111.5t-120.5 299.5zM387 668h451v30 q0 104 -45 150.5t-134 46.5q-209 0 -272 -227zM426 1266l51 235h258l-51 -235h-258zM825 1266l52 235h258l-52 -235h-258z" />
<glyph unicode="&#xec;" horiz-adv-x="569" d="M55 0l236 1106h287l-236 -1106h-287zM209 1540h319l76 -315h-205z" />
<glyph unicode="&#xed;" horiz-adv-x="569" d="M55 0l236 1106h287l-236 -1106h-287zM317 1225l209 315h320l-324 -315h-205z" />
<glyph unicode="&#xee;" horiz-adv-x="569" d="M55 0l236 1106h287l-236 -1106h-287zM113 1225l286 315h260l146 -315h-180l-136 157l-200 -157h-176z" />
<glyph unicode="&#xef;" horiz-adv-x="569" d="M55 0l236 1106h287l-236 -1106h-287zM137 1266l51 235h258l-51 -235h-258zM537 1266l51 235h258l-51 -235h-258z" />
<glyph unicode="&#xf0;" horiz-adv-x="1251" d="M94 393q-4 170 62.5 327t201 261t301.5 104q84 0 185 -55q-76 129 -199 217l-199 -92l-84 88l181 84l-144 94l144 103q45 -16 82 -36t112 -69l213 92l88 -88l-190 -84q199 -147 282.5 -291.5t83.5 -340.5q0 -311 -182 -518t-483 -207q-213 0 -334 109t-121 302zM389 451 q0 -123 56.5 -181.5t146.5 -58.5q145 0 238.5 125t93.5 332q0 106 -61.5 160.5t-151.5 54.5q-143 0 -232.5 -125t-89.5 -307z" />
<glyph unicode="&#xf1;" horiz-adv-x="1251" d="M47 0l236 1106h286l-37 -168q82 98 170.5 142t202.5 44q137 0 219 -73.5t82 -196.5q0 -55 -12 -113l-158 -741h-286l137 641q6 31 12 100q0 154 -151 154q-104 0 -179 -72.5t-102 -199.5l-133 -623h-287zM438 1262q35 115 99.5 177t148.5 62q63 0 145 -35l103 -43 q51 -23 67 -20q68 0 111 104h111q-35 -127 -108 -188.5t-165 -61.5q-66 0 -104 23l-103 51q-61 29 -90 29q-53 0 -104 -98h-111z" />
<glyph unicode="&#xf2;" horiz-adv-x="1251" d="M88 377q0 322 189.5 534.5t486.5 212.5q211 0 332 -109.5t121 -299.5q0 -326 -188.5 -529.5t-491.5 -203.5q-205 0 -327 105.5t-122 289.5zM381 434q0 -106 56.5 -164.5t150.5 -58.5q141 0 238.5 129t97.5 315q0 109 -55.5 174.5t-149.5 65.5q-139 0 -238.5 -133 t-99.5 -328zM512 1540h319l76 -315h-205z" />
<glyph unicode="&#xf3;" horiz-adv-x="1251" d="M88 377q0 322 189.5 534.5t486.5 212.5q211 0 332 -109.5t121 -299.5q0 -326 -188.5 -529.5t-491.5 -203.5q-205 0 -327 105.5t-122 289.5zM381 434q0 -106 56.5 -164.5t150.5 -58.5q141 0 238.5 129t97.5 315q0 109 -55.5 174.5t-149.5 65.5q-139 0 -238.5 -133 t-99.5 -328zM702 1225l209 315h320l-324 -315h-205z" />
<glyph unicode="&#xf4;" horiz-adv-x="1251" d="M88 377q0 322 189.5 534.5t486.5 212.5q211 0 332 -109.5t121 -299.5q0 -326 -188.5 -529.5t-491.5 -203.5q-205 0 -327 105.5t-122 289.5zM381 434q0 -106 56.5 -164.5t150.5 -58.5q141 0 238.5 129t97.5 315q0 109 -55.5 174.5t-149.5 65.5q-139 0 -238.5 -133 t-99.5 -328zM459 1225l286 315h261l145 -315h-180l-135 157l-201 -157h-176z" />
<glyph unicode="&#xf5;" horiz-adv-x="1251" d="M88 377q0 322 189.5 534.5t486.5 212.5q211 0 332 -109.5t121 -299.5q0 -326 -188.5 -529.5t-491.5 -203.5q-205 0 -327 105.5t-122 289.5zM381 434q0 -106 56.5 -164.5t150.5 -58.5q141 0 238.5 129t97.5 315q0 109 -55.5 174.5t-149.5 65.5q-139 0 -238.5 -133 t-99.5 -328zM438 1262q35 115 99.5 177t148.5 62q63 0 145 -35l103 -43q51 -23 67 -20q68 0 111 104h111q-35 -127 -108 -188.5t-165 -61.5q-66 0 -104 23l-103 51q-61 29 -90 29q-53 0 -104 -98h-111z" />
<glyph unicode="&#xf6;" horiz-adv-x="1251" d="M88 377q0 322 189.5 534.5t486.5 212.5q211 0 332 -109.5t121 -299.5q0 -326 -188.5 -529.5t-491.5 -203.5q-205 0 -327 105.5t-122 289.5zM381 434q0 -106 56.5 -164.5t150.5 -58.5q141 0 238.5 129t97.5 315q0 109 -55.5 174.5t-149.5 65.5q-139 0 -238.5 -133 t-99.5 -328zM483 1266l52 235h258l-52 -235h-258zM883 1266l51 235h258l-51 -235h-258z" />
<glyph unicode="&#xf7;" horiz-adv-x="1196" d="M152 410v204h950v-204h-950zM473 139.5q0 63.5 45 108.5t108.5 45t108.5 -45t45 -108.5t-45 -108.5t-108.5 -45t-108.5 45t-45 108.5zM473 884.5q0 63.5 45 108.5t108.5 45t108.5 -45t45 -108.5t-45 -108.5t-108.5 -45t-108.5 45t-45 108.5z" />
<glyph unicode="&#xf8;" horiz-adv-x="1251" d="M20 113l105 88q-37 84 -37 176q0 322 189.5 534.5t486.5 212.5q203 0 321 -100l103 88l100 -119l-108 -92q37 -84 37 -186q0 -326 -188.5 -529.5t-491.5 -203.5q-195 0 -318 96l-98 -84zM381 434l2 -12l481 412q-55 61 -145 61q-139 0 -238.5 -133t-99.5 -328zM440 266 q51 -55 148 -55q141 0 238.5 129t97.5 315v25z" />
<glyph unicode="&#xf9;" horiz-adv-x="1251" d="M104 252q0 55 13 113l157 741h287l-137 -641q-8 -35 -12 -100q0 -154 155 -154q100 0 174 73.5t101 198.5l133 623h287l-236 -1106h-287l33 154q-158 -172 -369 -172q-135 0 -217 73.5t-82 196.5zM512 1540h319l76 -315h-205z" />
<glyph unicode="&#xfa;" horiz-adv-x="1251" d="M104 252q0 55 13 113l157 741h287l-137 -641q-8 -35 -12 -100q0 -154 155 -154q100 0 174 73.5t101 198.5l133 623h287l-236 -1106h-287l33 154q-158 -172 -369 -172q-135 0 -217 73.5t-82 196.5zM702 1225l209 315h320l-324 -315h-205z" />
<glyph unicode="&#xfb;" horiz-adv-x="1251" d="M104 252q0 55 13 113l157 741h287l-137 -641q-8 -35 -12 -100q0 -154 155 -154q100 0 174 73.5t101 198.5l133 623h287l-236 -1106h-287l33 154q-158 -172 -369 -172q-135 0 -217 73.5t-82 196.5zM459 1225l286 315h261l145 -315h-180l-135 157l-201 -157h-176z" />
<glyph unicode="&#xfc;" horiz-adv-x="1251" d="M104 252q0 55 13 113l157 741h287l-137 -641q-8 -35 -12 -100q0 -154 155 -154q100 0 174 73.5t101 198.5l133 623h287l-236 -1106h-287l33 154q-158 -172 -369 -172q-135 0 -217 73.5t-82 196.5zM483 1266l52 235h258l-52 -235h-258zM883 1266l51 235h258l-51 -235h-258 z" />
<glyph unicode="&#xfd;" d="M-6 -440l47 223q23 -4 57 -4q106 0 169 51t63 139l-158 1137h315l74 -805l400 805h294l-733 -1307q-86 -154 -176 -201t-262 -47q-55 1 -90 9zM645 1225l209 315h320l-324 -315h-205z" />
<glyph unicode="&#xfe;" horiz-adv-x="1251" d="M-59 -446l411 1939h287l-117 -551q141 182 346 182q162 0 258.5 -114.5t96.5 -307.5q4 -289 -172.5 -504.5t-421.5 -215.5q-209 0 -273 178l-129 -606h-286zM428 442q0 -104 49 -167.5t131 -63.5q131 0 228.5 138t93.5 313q0 106 -49.5 169.5t-130.5 63.5 q-133 0 -227.5 -131.5t-94.5 -321.5z" />
<glyph unicode="&#xff;" d="M-6 -440l47 223q23 -4 57 -4q106 0 169 51t63 139l-158 1137h315l74 -805l400 805h294l-733 -1307q-86 -154 -176 -201t-262 -47q-55 1 -90 9zM426 1266l51 235h258l-51 -235h-258zM825 1266l52 235h258l-52 -235h-258z" />
<glyph unicode="&#x100;" horiz-adv-x="1478" d="M-29 0l834 1493h354l199 -1493h-314l-36 301h-557l-166 -301h-314zM592 557h387l-72 580zM707 1667l34 164h615l-35 -164h-614z" />
<glyph unicode="&#x101;" d="M23 236q0 152 109.5 261t301.5 140l119 18l105 16q36 5 49.5 10t33.5 17q70 35 70 109q0 88 -149 88q-98 0 -150.5 -35t-79.5 -119h-268q43 201 173 292t372 91q190 0 291.5 -65.5t101.5 -181.5q0 -37 -12 -93l-129 -614q-6 -25 -7 -43q0 -43 43 -92l-8 -35h-313 q-14 31 -14 55q0 29 8 70q-88 -80 -167 -111.5t-171 -31.5q-143 0 -226 69.5t-83 184.5zM315 299q0 -88 154 -88q104 0 176 68.5t98 193.5l11 49q-29 -16 -38 -18t-59 -10l-135 -23q-207 -35 -207 -172zM432 1300l35 164h614l-34 -164h-615z" />
<glyph unicode="&#x102;" horiz-adv-x="1478" d="M-29 0l834 1493h354l199 -1493h-314l-36 301h-557l-166 -301h-314zM592 557h387l-72 580zM745 1882h105q-4 -31 4 -52.5t18.5 -31.5t43 -15t50.5 -5h66q199 0 252 104h102q-25 -115 -137 -189.5t-257.5 -74.5t-218.5 80t-28 184z" />
<glyph unicode="&#x103;" d="M23 236q0 152 109.5 261t301.5 140l119 18l105 16q36 5 49.5 10t33.5 17q70 35 70 109q0 88 -149 88q-98 0 -150.5 -35t-79.5 -119h-268q43 201 173 292t372 91q190 0 291.5 -65.5t101.5 -181.5q0 -37 -12 -93l-129 -614q-6 -25 -7 -43q0 -43 43 -92l-8 -35h-313 q-14 31 -14 55q0 29 8 70q-88 -80 -167 -111.5t-171 -31.5q-143 0 -226 69.5t-83 184.5zM315 299q0 -88 154 -88q104 0 176 68.5t98 193.5l11 49q-29 -16 -38 -18t-59 -10l-135 -23q-207 -35 -207 -172zM510 1460q0 35 12 80h86v-16q0 -55 40 -86t112 -31q158 0 211 133h86 q-23 -129 -119 -221t-215 -92q-94 0 -153.5 67.5t-59.5 165.5z" />
<glyph unicode="&#x104;" horiz-adv-x="1478" d="M-29 0l834 1493h354l199 -1493q-127 0 -238 -106q-57 -57 -57 -107q0 -74 96 -74h129l-31 -184h-137q-262 0 -262 164q0 88 51.5 171t134.5 136l-36 301h-557l-166 -301h-314zM592 557h387l-72 580z" />
<glyph unicode="&#x105;" d="M23 236q0 152 109.5 261t301.5 140l119 18l105 16q36 5 49.5 10t33.5 17q70 35 70 109q0 88 -149 88q-98 0 -150.5 -35t-79.5 -119h-268q43 201 173 292t372 91q190 0 291.5 -65.5t101.5 -181.5q0 -37 -12 -93l-129 -614q-6 -25 -7 -43q0 -43 43 -92l-8 -35 q-115 -4 -213 -86q-82 -70 -82 -127q0 -74 97 -74h129l-31 -184h-137q-262 0 -263 164q0 88 51.5 171t135.5 136q-14 31 -14 55q0 29 8 70q-88 -80 -167 -111.5t-171 -31.5q-143 0 -226 69.5t-83 184.5zM315 299q0 -88 154 -88q104 0 176 68.5t98 193.5l11 49 q-29 -16 -38 -18t-59 -10l-135 -23q-207 -35 -207 -172z" />
<glyph unicode="&#x106;" horiz-adv-x="1478" d="M139 494q0 440 252 732t619 292q238 0 385 -119t147 -309q0 -27 -8 -103h-289q0 268 -270 268q-246 0 -387 -223q-143 -223 -144 -479q0 -315 304 -315q311 0 397 272h293q-68 -260 -259.5 -397.5t-473.5 -137.5q-264 0 -415 137.5t-151 381.5zM922 1610l249 276h353 l-389 -276h-213z" />
<glyph unicode="&#x107;" d="M78 367q0 145 56 298.5t149 264.5q160 195 450 194q180 0 294 -98t114 -246q0 -23 -8 -88h-275q-2 119 -41 161t-127 42q-145 0 -232 -146.5t-87 -340.5q0 -104 46 -150.5t140 -46.5q88 0 139.5 34t96.5 138h274q-125 -401 -545 -401q-211 0 -327.5 105.5t-116.5 279.5z M645 1225l209 315h320l-324 -315h-205z" />
<glyph unicode="&#x108;" horiz-adv-x="1478" d="M139 494q0 440 252 732t619 292q238 0 385 -119t147 -309q0 -27 -8 -103h-289q0 268 -270 268q-246 0 -387 -223q-143 -223 -144 -479q0 -315 304 -315q311 0 397 272h293q-68 -260 -259.5 -397.5t-473.5 -137.5q-264 0 -415 137.5t-151 381.5zM639 1614l342 270h264 l176 -270h-176l-168 108l-252 -108h-186z" />
<glyph unicode="&#x109;" d="M78 367q0 145 56 298.5t149 264.5q160 195 450 194q180 0 294 -98t114 -246q0 -23 -8 -88h-275q-2 119 -41 161t-127 42q-145 0 -232 -146.5t-87 -340.5q0 -104 46 -150.5t140 -46.5q88 0 139.5 34t96.5 138h274q-125 -401 -545 -401q-211 0 -327.5 105.5t-116.5 279.5z M401 1225l287 315h260l146 -315h-181l-135 157l-200 -157h-177z" />
<glyph unicode="&#x10a;" horiz-adv-x="1478" d="M139 494q0 440 252 732t619 292q238 0 385 -119t147 -309q0 -27 -8 -103h-289q0 268 -270 268q-246 0 -387 -223q-143 -223 -144 -479q0 -315 304 -315q311 0 397 272h293q-68 -260 -259.5 -397.5t-473.5 -137.5q-264 0 -415 137.5t-151 381.5zM889 1616l55 268h287 l-55 -268h-287z" />
<glyph unicode="&#x10b;" d="M78 367q0 145 56 298.5t149 264.5q160 195 450 194q180 0 294 -98t114 -246q0 -23 -8 -88h-275q-2 119 -41 161t-127 42q-145 0 -232 -146.5t-87 -340.5q0 -104 46 -150.5t140 -46.5q88 0 139.5 34t96.5 138h274q-125 -401 -545 -401q-211 0 -327.5 105.5t-116.5 279.5z M610 1249l56 269h286l-55 -269h-287z" />
<glyph unicode="&#x10c;" horiz-adv-x="1478" d="M139 494q0 440 252 732t619 292q238 0 385 -119t147 -309q0 -27 -8 -103h-289q0 268 -270 268q-246 0 -387 -223q-143 -223 -144 -479q0 -315 304 -315q311 0 397 272h293q-68 -260 -259.5 -397.5t-473.5 -137.5q-264 0 -415 137.5t-151 381.5zM696 1884h176l168 -108 l252 108h187l-342 -270h-265z" />
<glyph unicode="&#x10d;" d="M78 367q0 145 56 298.5t149 264.5q160 195 450 194q180 0 294 -98t114 -246q0 -23 -8 -88h-275q-2 119 -41 161t-127 42q-145 0 -232 -146.5t-87 -340.5q0 -104 46 -150.5t140 -46.5q88 0 139.5 34t96.5 138h274q-125 -401 -545 -401q-211 0 -327.5 105.5t-116.5 279.5z M467 1540h180l135 -158l201 158h176l-287 -315h-260z" />
<glyph unicode="&#x10e;" horiz-adv-x="1478" d="M76 0l317 1493h584q279 0 404.5 -122t125.5 -390q0 -377 -229 -694q-113 -156 -254 -221.5t-365 -65.5h-583zM438 256h275q133 0 217 48t149 163q53 90 88 231.5t35 262.5q0 276 -280 276h-277zM668 1884h176l168 -108l252 108h186l-342 -270h-264z" />
<glyph unicode="&#x10f;" horiz-adv-x="1251" d="M82 393q0 281 174 506t424 225q203 0 272 -161l113 530h287l-318 -1493h-286l26 127q-139 -145 -336 -145q-162 0 -259 110.5t-97 300.5zM375 436q0 -109 49 -167t133 -58q133 0 226.5 130t93.5 321q0 106 -48.5 169.5t-132.5 63.5q-129 0 -225 -137.5t-96 -321.5z M1368 987l21 94q68 12 116.5 62.5t57.5 120.5h-138l50 229h249l-43 -197q-16 -121 -106 -211t-207 -98z" />
<glyph unicode="&#x110;" horiz-adv-x="1478" d="M68 698l34 164h156l135 631h584q279 0 404.5 -122t125.5 -390q0 -377 -229 -694q-113 -156 -254 -221.5t-365 -65.5h-583l149 698h-157zM438 256h275q133 0 217 48t149 163q53 90 88 231.5t35 262.5q0 276 -280 276h-277l-80 -375h357l-35 -164h-355z" />
<glyph unicode="&#x111;" horiz-adv-x="1251" d="M82 393q0 254 158 484q82 115 198.5 181t241.5 66q203 0 272 -161l56 258h-287l29 137h286l29 135h287l-29 -135h123l-29 -137h-123l-260 -1221h-286l30 141q-139 -160 -340 -159q-162 0 -259 110.5t-97 300.5zM375 436q0 -109 49 -167t133 -58q133 0 226.5 130t93.5 321 q0 106 -49.5 169.5t-131.5 63.5q-129 0 -225 -137.5t-96 -321.5z" />
<glyph unicode="&#x112;" horiz-adv-x="1366" d="M80 0l317 1493h1082l-56 -256h-774l-71 -338h714l-53 -256h-715l-82 -387h809l-55 -256h-1116zM662 1667l34 164h615l-35 -164h-614z" />
<glyph unicode="&#x113;" d="M51 393q0 195 75 358.5t224.5 268t343.5 104.5q201 0 317.5 -115.5t116.5 -289.5q0 -111 -34 -242h-744q-2 -18 -2 -78q0 -84 53.5 -136t141.5 -52q70 0 132 30.5t91 69.5h283q-82 -152 -230.5 -240.5t-331.5 -88.5q-195 0 -315.5 111.5t-120.5 299.5zM387 668h451v30 q0 104 -45 150.5t-134 46.5q-209 0 -272 -227zM451 1300l34 164h615l-35 -164h-614z" />
<glyph unicode="&#x114;" horiz-adv-x="1366" d="M80 0l317 1493h1082l-56 -256h-774l-71 -338h714l-53 -256h-715l-82 -387h809l-55 -256h-1116zM700 1882h105q-4 -31 4 -52.5t18.5 -31.5t43 -15t50.5 -5h66q199 0 252 104h102q-25 -115 -137 -189.5t-257.5 -74.5t-218.5 80t-28 184z" />
<glyph unicode="&#x115;" d="M51 393q0 195 75 358.5t224.5 268t343.5 104.5q201 0 317.5 -115.5t116.5 -289.5q0 -111 -34 -242h-744q-2 -18 -2 -78q0 -84 53.5 -136t141.5 -52q70 0 132 30.5t91 69.5h283q-82 -152 -230.5 -240.5t-331.5 -88.5q-195 0 -315.5 111.5t-120.5 299.5zM387 668h451v30 q0 104 -45 150.5t-134 46.5q-209 0 -272 -227zM528 1460q0 35 13 80h86v-16q0 -55 40 -86t111 -31q158 0 211 133h86q-23 -129 -119 -221t-215 -92q-94 0 -153.5 67.5t-59.5 165.5z" />
<glyph unicode="&#x116;" horiz-adv-x="1366" d="M80 0l317 1493h1082l-56 -256h-774l-71 -338h714l-53 -256h-715l-82 -387h809l-55 -256h-1116zM823 1616l56 268h286l-55 -268h-287z" />
<glyph unicode="&#x117;" d="M51 393q0 195 75 358.5t224.5 268t343.5 104.5q201 0 317.5 -115.5t116.5 -289.5q0 -111 -34 -242h-744q-2 -18 -2 -78q0 -84 53.5 -136t141.5 -52q70 0 132 30.5t91 69.5h283q-82 -152 -230.5 -240.5t-331.5 -88.5q-195 0 -315.5 111.5t-120.5 299.5zM387 668h451v30 q0 104 -45 150.5t-134 46.5q-209 0 -272 -227zM610 1249l56 269h286l-55 -269h-287z" />
<glyph unicode="&#x118;" horiz-adv-x="1366" d="M80 0l317 1493h1082l-56 -256h-774l-71 -338h714l-53 -256h-715l-82 -387h809l-55 -256q-125 0 -235 -106q-57 -57 -58 -107q0 -74 96 -74h129l-30 -184h-137q-262 0 -263 164q0 166 222 307h-840z" />
<glyph unicode="&#x119;" d="M51 393q0 195 75 358.5t224.5 268t343.5 104.5q201 0 317.5 -115.5t116.5 -289.5q0 -111 -34 -242h-744q-2 -18 -2 -78q0 -84 53.5 -136t141.5 -52q70 0 132 30.5t91 69.5h283q-100 -186 -287 -270q-98 -47 -164 -112.5t-66 -141.5q0 -74 97 -74h129l-31 -184h-137 q-262 0 -262 164q0 156 194 289h-35q-195 0 -315.5 111.5t-120.5 299.5zM387 668h451v30q0 104 -45 150.5t-134 46.5q-209 0 -272 -227z" />
<glyph unicode="&#x11a;" horiz-adv-x="1366" d="M80 0l317 1493h1082l-56 -256h-774l-71 -338h714l-53 -256h-715l-82 -387h809l-55 -256h-1116zM631 1884h176l168 -108l252 108h186l-342 -270h-264z" />
<glyph unicode="&#x11b;" d="M51 393q0 195 75 358.5t224.5 268t343.5 104.5q201 0 317.5 -115.5t116.5 -289.5q0 -111 -34 -242h-744q-2 -18 -2 -78q0 -84 53.5 -136t141.5 -52q70 0 132 30.5t91 69.5h283q-82 -152 -230.5 -240.5t-331.5 -88.5q-195 0 -315.5 111.5t-120.5 299.5zM387 668h451v30 q0 104 -45 150.5t-134 46.5q-209 0 -272 -227zM467 1540h180l135 -158l201 158h176l-287 -315h-260z" />
<glyph unicode="&#x11c;" horiz-adv-x="1593" d="M139 549q0 250 117 472t326 359.5t456 137.5q250 0 403.5 -120t153.5 -315q0 -10 -4 -67h-282q-12 115 -97.5 177t-230.5 62q-233 0 -385 -190.5t-152 -470.5q0 -158 99.5 -257t251.5 -99q147 0 269 78.5t169 230.5h-340l55 256h598l-172 -803h-184l16 193 q-113 -119 -221 -168.5t-254 -49.5q-272 0 -432 154t-160 420zM668 1614l342 270h264l176 -270h-176l-168 108l-252 -108h-186z" />
<glyph unicode="&#x11d;" horiz-adv-x="1251" d="M-29 -197q0 27 6 64h295l-2 -25q0 -45 50.5 -74.5t125.5 -29.5q113 0 195 62.5t104 162.5l35 164q-96 -82 -168.5 -113.5t-167.5 -31.5q-158 0 -260 103t-102 271q0 199 79 375t220 284.5t311 108.5q178 0 260 -188l37 170h273l-244 -1143q-41 -197 -202 -303t-417 -106 q-201 0 -314.5 66t-113.5 183zM375 426q0 -104 47 -159.5t129 -55.5q137 0 234.5 124t97.5 310q0 115 -51.5 182.5t-137.5 67.5q-127 0 -223 -140.5t-96 -328.5zM459 1225l286 315h261l145 -315h-180l-135 157l-201 -157h-176z" />
<glyph unicode="&#x11e;" horiz-adv-x="1593" d="M139 549q0 250 117 472t326 359.5t456 137.5q250 0 403.5 -120t153.5 -315q0 -10 -4 -67h-282q-12 115 -97.5 177t-230.5 62q-233 0 -385 -190.5t-152 -470.5q0 -158 99.5 -257t251.5 -99q147 0 269 78.5t169 230.5h-340l55 256h598l-172 -803h-184l16 193 q-113 -119 -221 -168.5t-254 -49.5q-272 0 -432 154t-160 420zM797 1882h104q-4 -31 4 -52.5t18.5 -31.5t43 -15t50.5 -5h66q199 0 252 104h103q-25 -115 -137.5 -189.5t-258 -74.5t-218 80t-27.5 184z" />
<glyph unicode="&#x11f;" horiz-adv-x="1251" d="M-29 -197q0 27 6 64h295l-2 -25q0 -45 50.5 -74.5t125.5 -29.5q113 0 195 62.5t104 162.5l35 164q-96 -82 -168.5 -113.5t-167.5 -31.5q-158 0 -260 103t-102 271q0 199 79 375t220 284.5t311 108.5q178 0 260 -188l37 170h273l-244 -1143q-41 -197 -202 -303t-417 -106 q-201 0 -314.5 66t-113.5 183zM375 426q0 -104 47 -159.5t129 -55.5q137 0 234.5 124t97.5 310q0 115 -51.5 182.5t-137.5 67.5q-127 0 -223 -140.5t-96 -328.5zM586 1460q0 35 12 80h86v-16q0 -55 40 -86t112 -31q158 0 211 133h86q-23 -129 -119 -221t-215 -92 q-94 0 -153.5 67.5t-59.5 165.5z" />
<glyph unicode="&#x120;" horiz-adv-x="1593" d="M139 549q0 250 117 472t326 359.5t456 137.5q250 0 403.5 -120t153.5 -315q0 -10 -4 -67h-282q-12 115 -97.5 177t-230.5 62q-233 0 -385 -190.5t-152 -470.5q0 -158 99.5 -257t251.5 -99q147 0 269 78.5t169 230.5h-340l55 256h598l-172 -803h-184l16 193 q-113 -119 -221 -168.5t-254 -49.5q-272 0 -432 154t-160 420zM918 1616l55 268h287l-56 -268h-286z" />
<glyph unicode="&#x121;" horiz-adv-x="1251" d="M-29 -197q0 27 6 64h295l-2 -25q0 -45 50.5 -74.5t125.5 -29.5q113 0 195 62.5t104 162.5l35 164q-96 -82 -168.5 -113.5t-167.5 -31.5q-158 0 -260 103t-102 271q0 199 79 375t220 284.5t311 108.5q178 0 260 -188l37 170h273l-244 -1143q-41 -197 -202 -303t-417 -106 q-201 0 -314.5 66t-113.5 183zM375 426q0 -104 47 -159.5t129 -55.5q137 0 234.5 124t97.5 310q0 115 -51.5 182.5t-137.5 67.5q-127 0 -223 -140.5t-96 -328.5zM668 1249l55 269h287l-56 -269h-286z" />
<glyph unicode="&#x122;" horiz-adv-x="1593" d="M139 549q0 250 117 472t326 359.5t456 137.5q250 0 403.5 -120t153.5 -315q0 -10 -4 -67h-282q-12 115 -97.5 177t-230.5 62q-233 0 -385 -190.5t-152 -470.5q0 -158 99.5 -257t251.5 -99q147 0 269 78.5t169 230.5h-340l55 256h598l-172 -803h-184l16 193 q-113 -119 -221 -168.5t-254 -49.5q-272 0 -432 154t-160 420zM453 -629l20 94q68 12 117 62.5t57 120.5h-137l49 229h250l-43 -196q-16 -121 -106 -211.5t-207 -98.5z" />
<glyph unicode="&#x123;" horiz-adv-x="1251" d="M-29 -197q0 27 6 64h295l-2 -25q0 -45 50.5 -74.5t125.5 -29.5q113 0 195 62.5t104 162.5l35 164q-96 -82 -168.5 -113.5t-167.5 -31.5q-158 0 -260 103t-102 271q0 199 79 375t220 284.5t311 108.5q178 0 260 -188l37 170h273l-244 -1143q-41 -197 -202 -303t-417 -106 q-201 0 -314.5 66t-113.5 183zM375 426q0 -104 47 -159.5t129 -55.5q137 0 234.5 124t97.5 310q0 115 -51.5 182.5t-137.5 67.5q-127 0 -223 -140.5t-96 -328.5zM674 1192l43 197q16 121 106 211t207 98l-20 -94q-68 -12 -117 -62.5t-57 -120.5h137l-49 -229h-250z" />
<glyph unicode="&#x124;" horiz-adv-x="1478" d="M57 0l318 1493h307l-119 -559h590l119 559h309l-317 -1493h-308l144 678h-592l-143 -678h-308zM612 1614l342 270h265l176 -270h-176l-168 108l-252 -108h-187z" />
<glyph unicode="&#x125;" horiz-adv-x="1251" d="M55 0l318 1493h286l-118 -555q158 186 368 186q133 0 215 -74.5t82 -195.5q0 -55 -12 -113l-158 -741h-286l137 641q8 41 12 98q0 156 -149 156q-98 0 -173 -73.5t-102 -198.5l-133 -623h-287zM496 1614l342 270h264l176 -270h-176l-168 108l-252 -108h-186z" />
<glyph unicode="&#x126;" horiz-adv-x="1478" d="M57 0l240 1124h-154l29 140h154l49 229h307l-49 -229h590l49 229h309l-49 -229h154l-29 -140h-154l-239 -1124h-308l144 678h-592l-143 -678h-308zM563 934h590l41 190h-590z" />
<glyph unicode="&#x127;" horiz-adv-x="1370" d="M184 0l230 1077l-154 -45l31 148l153 43l58 270h286l-38 -182l215 61l-31 -145l-215 -64l-49 -225q158 186 368 186q133 0 215 -74.5t82 -195.5q0 -55 -12 -113l-158 -741h-286l137 641q8 41 12 98q0 156 -149 156q-98 0 -173 -73.5t-102 -198.5l-133 -623h-287z" />
<glyph unicode="&#x128;" horiz-adv-x="569" d="M47 0l318 1493h307l-318 -1493h-307zM174 1628q35 115 99.5 177.5t148.5 62.5q63 0 145 -35l103 -43q51 -23 67 -21q68 0 111 105h110q-35 -127 -107.5 -188.5t-164.5 -61.5q-66 0 -104 23l-103 51q-61 29 -90 28q-53 0 -104 -98h-111z" />
<glyph unicode="&#x129;" horiz-adv-x="569" d="M55 0l236 1106h287l-236 -1106h-287zM92 1262q35 115 99.5 177t148.5 62q63 0 145 -35l103 -43q51 -23 67 -20q68 0 111 104h111q-35 -127 -108 -188.5t-165 -61.5q-66 0 -104 23l-103 51q-61 29 -90 29q-53 0 -104 -98h-111z" />
<glyph unicode="&#x12a;" horiz-adv-x="569" d="M47 0l318 1493h307l-318 -1493h-307zM242 1667l34 164h615l-35 -164h-614z" />
<glyph unicode="&#x12b;" horiz-adv-x="569" d="M55 0l236 1106h287l-236 -1106h-287zM162 1300l35 164h614l-35 -164h-614z" />
<glyph unicode="&#x12c;" horiz-adv-x="569" d="M47 0l318 1493h307l-318 -1493h-307zM281 1882h104q-4 -31 4 -52.5t18.5 -31.5t43 -15t50.5 -5h66q199 0 252 104h103q-25 -115 -137.5 -189.5t-258 -74.5t-218 80t-27.5 184z" />
<glyph unicode="&#x12d;" horiz-adv-x="569" d="M55 0l236 1106h287l-236 -1106h-287zM240 1460q0 35 12 80h86v-16q0 -55 40 -86t111 -31q158 0 211 133h86q-23 -129 -119 -221t-214 -92q-94 0 -153.5 67.5t-59.5 165.5z" />
<glyph unicode="&#x12e;" horiz-adv-x="569" d="M-104 -307q0 166 221 307h-70l318 1493h307l-318 -1493q-109 -23 -196 -106q-57 -57 -58 -107q0 -74 97 -74h129l-31 -184h-137q-262 0 -262 164z" />
<glyph unicode="&#x12f;" horiz-adv-x="569" d="M-96 -307q0 166 221 307h-70l236 1106h287l-236 -1106q-100 -33 -174 -106q-59 -59 -59 -107q0 -74 96 -74h129l-31 -184h-137q-262 0 -262 164zM326 1249l55 269h287l-56 -269h-286z" />
<glyph unicode="&#x130;" horiz-adv-x="569" d="M47 0l318 1493h307l-318 -1493h-307zM403 1616l56 268h286l-55 -268h-287z" />
<glyph unicode="&#x131;" horiz-adv-x="569" d="M55 0l236 1106h287l-236 -1106h-287z" />
<glyph unicode="&#x134;" d="M43 295q0 70 14 133l27 125h307l-29 -135q-8 -35 -8 -70q0 -49 38 -79.5t97 -30.5q164 0 203 174l232 1081h307l-232 -1081q-92 -436 -571 -437q-180 0 -282.5 85t-102.5 235zM711 1614l342 270h264l176 -270h-176l-168 108l-252 -108h-186z" />
<glyph unicode="&#x135;" horiz-adv-x="569" d="M-170 -436l49 227q10 -8 51 -8q47 0 71 20.5t34 69.5l262 1233h287l-277 -1299q-29 -133 -120 -193t-265 -60q-57 0 -92 10zM119 1225l287 315h260l145 -315h-180l-135 157l-201 -157h-176z" />
<glyph unicode="&#x136;" horiz-adv-x="1478" d="M70 0l317 1493h307l-139 -655l725 655h365l-740 -653l481 -840h-366l-354 643l-187 -164l-102 -479h-307zM367 -629l20 94q68 12 117 62.5t57 120.5h-137l49 229h250l-43 -196q-16 -121 -106 -211.5t-207 -98.5z" />
<glyph unicode="&#x137;" d="M39 0l317 1493h287l-174 -817l457 430h325l-475 -422l264 -684h-335l-162 489l-140 -127l-77 -362h-287zM225 -629l21 94q68 12 117 62.5t57 120.5h-137l49 229h250l-43 -196q-16 -121 -106.5 -211.5t-207.5 -98.5z" />
<glyph unicode="&#x139;" horiz-adv-x="1251" d="M82 0l317 1493h308l-263 -1237h715l-55 -256h-1022zM424 1610l250 276h352l-389 -276h-213z" />
<glyph unicode="&#x13a;" horiz-adv-x="569" d="M55 0l318 1493h286l-317 -1493h-287zM397 1610l250 276h352l-389 -276h-213z" />
<glyph unicode="&#x13b;" horiz-adv-x="1251" d="M82 0l317 1493h308l-263 -1237h715l-55 -256h-1022zM332 -629l20 94q68 12 117 62.5t57 120.5h-137l49 229h250l-43 -196q-16 -121 -106 -211.5t-207 -98.5z" />
<glyph unicode="&#x13c;" horiz-adv-x="569" d="M-59 -629l20 94q68 12 117 62.5t57 120.5h-137l49 229h250l-43 -196q-16 -121 -106 -211.5t-207 -98.5zM55 0l318 1493h286l-317 -1493h-287z" />
<glyph unicode="&#x13d;" horiz-adv-x="1251" d="M82 0l317 1493h308l-263 -1237h715l-55 -256h-1022zM723 987l20 94q68 12 117 62.5t58 120.5h-138l49 229h250l-43 -197q-16 -121 -106 -211t-207 -98z" />
<glyph unicode="&#x13e;" horiz-adv-x="569" d="M55 0l318 1493h286l-317 -1493h-287zM676 987l20 94q68 12 117 62.5t57 120.5h-137l49 229h250l-43 -197q-16 -121 -106 -211t-207 -98z" />
<glyph unicode="&#x13f;" horiz-adv-x="1251" d="M82 0l317 1493h308l-263 -1237h715l-55 -256h-1022zM854 633l55 268h287l-55 -268h-287z" />
<glyph unicode="&#x140;" horiz-adv-x="821" d="M55 0l318 1493h286l-317 -1493h-287zM600 633l55 268h287l-55 -268h-287z" />
<glyph unicode="&#x141;" horiz-adv-x="1466" d="M51 301l60 272l268 146l164 774h307l-129 -608l485 262l-57 -275l-485 -260l-76 -356h715l-56 -256h-1022l94 444z" />
<glyph unicode="&#x142;" horiz-adv-x="856" d="M68 393l53 252l248 158l147 690h287l-98 -459l266 168l-53 -252l-267 -168l-166 -782h-286l116 551z" />
<glyph unicode="&#x143;" horiz-adv-x="1478" d="M57 0l318 1493h307l393 -1055l223 1055h291l-317 -1493h-303l-394 1071l-227 -1071h-291zM899 1610l250 276h352l-389 -276h-213z" />
<glyph unicode="&#x144;" horiz-adv-x="1251" d="M47 0l236 1106h286l-37 -168q82 98 170.5 142t202.5 44q137 0 219 -73.5t82 -196.5q0 -55 -12 -113l-158 -741h-286l137 641q6 31 12 100q0 154 -151 154q-104 0 -179 -72.5t-102 -199.5l-133 -623h-287zM702 1225l209 315h320l-324 -315h-205z" />
<glyph unicode="&#x145;" horiz-adv-x="1478" d="M57 0l318 1493h307l393 -1055l223 1055h291l-317 -1493h-303l-394 1071l-227 -1071h-291zM403 -629l21 94q68 12 117 62.5t57 120.5h-137l49 229h250l-43 -196q-16 -121 -106.5 -211.5t-207.5 -98.5z" />
<glyph unicode="&#x146;" horiz-adv-x="1251" d="M47 0l236 1106h286l-37 -168q82 98 170.5 142t202.5 44q137 0 219 -73.5t82 -196.5q0 -55 -12 -113l-158 -741h-286l137 641q6 31 12 100q0 154 -151 154q-104 0 -179 -72.5t-102 -199.5l-133 -623h-287zM283 -629l20 94q68 12 117 62.5t57 120.5h-137l49 229h250 l-43 -196q-16 -121 -106 -211.5t-207 -98.5z" />
<glyph unicode="&#x147;" horiz-adv-x="1478" d="M57 0l318 1493h307l393 -1055l223 1055h291l-317 -1493h-303l-394 1071l-227 -1071h-291zM676 1884h176l168 -108l252 108h186l-342 -270h-264z" />
<glyph unicode="&#x148;" horiz-adv-x="1251" d="M47 0l236 1106h286l-37 -168q82 98 170.5 142t202.5 44q137 0 219 -73.5t82 -196.5q0 -55 -12 -113l-158 -741h-286l137 641q6 31 12 100q0 154 -151 154q-104 0 -179 -72.5t-102 -199.5l-133 -623h-287zM524 1540h181l135 -158l200 158h177l-287 -315h-260z" />
<glyph unicode="&#x14a;" horiz-adv-x="1478" d="M57 0l318 1493h307l393 -1055l223 1055h291l-334 -1575q-92 -436 -571 -436q-180 0 -282.5 85t-102.5 234l311 54q0 -49 38 -80t97 -31q76 0 135.5 28.5t71.5 84.5l25 118l-402 1096l-227 -1071h-291z" />
<glyph unicode="&#x14b;" horiz-adv-x="1251" d="M47 0l236 1106h286l-37 -168q82 98 170.5 142t202.5 44q137 0 219 -73.5t82 -196.5q0 -55 -12 -113l-199 -934q-29 -133 -120 -193t-265 -60q-57 0 -92 10l49 227q10 -8 51 -8q47 0 71 20.5t34 69.5l164 768q6 31 12 100q0 154 -151 154q-104 0 -179 -72.5t-102 -199.5 l-133 -623h-287z" />
<glyph unicode="&#x14c;" horiz-adv-x="1593" d="M137 547q0 176 66.5 351t187.5 319q252 301 629 301q281 0 437.5 -155t156.5 -431q0 -371 -250 -666q-131 -156 -282.5 -223.5t-350.5 -67.5q-274 0 -434 152t-160 420zM442 590q0 -166 91.5 -259t246.5 -93q223 0 376 191.5t153 465.5q0 170 -87 265t-241 95 q-225 0 -382 -197.5t-157 -467.5zM737 1667l35 164h614l-34 -164h-615z" />
<glyph unicode="&#x14d;" horiz-adv-x="1251" d="M88 377q0 322 189.5 534.5t486.5 212.5q211 0 332 -109.5t121 -299.5q0 -326 -188.5 -529.5t-491.5 -203.5q-205 0 -327 105.5t-122 289.5zM381 434q0 -106 56.5 -164.5t150.5 -58.5q141 0 238.5 129t97.5 315q0 109 -55.5 174.5t-149.5 65.5q-139 0 -238.5 -133 t-99.5 -328zM508 1300l35 164h614l-35 -164h-614z" />
<glyph unicode="&#x14e;" horiz-adv-x="1593" d="M137 547q0 176 66.5 351t187.5 319q252 301 629 301q281 0 437.5 -155t156.5 -431q0 -371 -250 -666q-131 -156 -282.5 -223.5t-350.5 -67.5q-274 0 -434 152t-160 420zM442 590q0 -166 91.5 -259t246.5 -93q223 0 376 191.5t153 465.5q0 170 -87 265t-241 95 q-225 0 -382 -197.5t-157 -467.5zM778 1882h105q-4 -31 4 -52.5t18 -31.5t43 -15t50 -5h67q199 0 252 104h102q-25 -115 -137.5 -189.5t-257.5 -74.5t-218 80t-28 184z" />
<glyph unicode="&#x14f;" horiz-adv-x="1251" d="M88 377q0 322 189.5 534.5t486.5 212.5q211 0 332 -109.5t121 -299.5q0 -326 -188.5 -529.5t-491.5 -203.5q-205 0 -327 105.5t-122 289.5zM381 434q0 -106 56.5 -164.5t150.5 -58.5q141 0 238.5 129t97.5 315q0 109 -55.5 174.5t-149.5 65.5q-139 0 -238.5 -133 t-99.5 -328zM586 1460q0 35 12 80h86v-16q0 -55 40 -86t112 -31q158 0 211 133h86q-23 -129 -119 -221t-215 -92q-94 0 -153.5 67.5t-59.5 165.5z" />
<glyph unicode="&#x150;" horiz-adv-x="1593" d="M137 547q0 176 66.5 351t187.5 319q252 301 629 301q281 0 437.5 -155t156.5 -431q0 -371 -250 -666q-131 -156 -282.5 -223.5t-350.5 -67.5q-274 0 -434 152t-160 420zM442 590q0 -166 91.5 -259t246.5 -93q223 0 376 191.5t153 465.5q0 170 -87 265t-241 95 q-225 0 -382 -197.5t-157 -467.5zM743 1612l211 315h258l-294 -315h-175zM1149 1612l211 315h258l-295 -315h-174z" />
<glyph unicode="&#x151;" horiz-adv-x="1251" d="M88 377q0 322 189.5 534.5t486.5 212.5q211 0 332 -109.5t121 -299.5q0 -326 -188.5 -529.5t-491.5 -203.5q-205 0 -327 105.5t-122 289.5zM381 434q0 -106 56.5 -164.5t150.5 -58.5q141 0 238.5 129t97.5 315q0 109 -55.5 174.5t-149.5 65.5q-139 0 -238.5 -133 t-99.5 -328zM508 1225l211 315h258l-295 -315h-174zM913 1225l211 315h258l-295 -315h-174z" />
<glyph unicode="&#x152;" horiz-adv-x="2048" d="M102 502q0 258 110 492.5t296 379t397 144.5q100 0 168 -30t125 -102l23 107h964l-55 -256h-668l-71 -338h610l-55 -256h-611l-82 -387h707l-53 -256h-1004l31 150q-86 -92 -163 -130t-179 -38q-221 0 -355.5 138t-134.5 382zM408 561q0 -160 78.5 -238.5t222.5 -78.5 q154 0 266 149l151 713q-55 150 -221 149q-201 0 -349 -210t-148 -484z" />
<glyph unicode="&#x153;" horiz-adv-x="1933" d="M70 389q-4 305 189.5 520t483.5 215q121 0 218.5 -38.5t150.5 -108.5q152 147 399 147q193 0 309.5 -116.5t116.5 -288.5q0 -117 -36 -256h-742q-14 -61 -14 -107q4 -57 61.5 -101t141.5 -44q72 0 135 30.5t92 69.5h283q-78 -145 -234 -237t-336 -92q-113 0 -207 40.5 t-137 108.5q-170 -150 -430 -149q-207 0 -325.5 109.5t-118.5 297.5zM362 449q0 -109 55.5 -173.5t147.5 -64.5q141 0 238.5 129t97.5 315q0 109 -55 174.5t-150 65.5q-139 0 -236.5 -126.5t-97.5 -319.5zM1202 653h443v58q0 88 -46.5 136t-128.5 48q-202 0 -268 -242z" />
<glyph unicode="&#x154;" horiz-adv-x="1478" d="M82 0l317 1493h772q160 0 257.5 -86t97.5 -221q0 -154 -81 -265.5t-261 -199.5q160 -53 159 -168q0 -68 -57 -375q-6 -31 -6 -53q0 -41 37 -70l-12 -55h-326q-16 51 -16 84q-2 68 53 270q25 98 24 125q0 113 -174 113h-352l-125 -592h-307zM569 848h371q127 0 204 67.5 t77 178.5q0 143 -226 143h-344zM852 1610l250 276h352l-389 -276h-213z" />
<glyph unicode="&#x155;" horiz-adv-x="796" d="M47 0l236 1106h286l-47 -217q72 113 166 174t193 61q18 0 34 -2l-61 -291q-49 8 -88 9q-254 0 -307 -252l-125 -588h-287zM492 1225l208 315h320l-324 -315h-204z" />
<glyph unicode="&#x156;" horiz-adv-x="1478" d="M82 0l317 1493h772q160 0 257.5 -86t97.5 -221q0 -154 -81 -265.5t-261 -199.5q160 -53 159 -168q0 -68 -57 -375q-6 -31 -6 -53q0 -41 37 -70l-12 -55h-326q-16 51 -16 84q-2 68 53 270q25 98 24 125q0 113 -174 113h-352l-125 -592h-307zM356 -629l21 94 q68 12 117 62.5t57 120.5h-137l49 229h250l-43 -196q-16 -121 -106.5 -211.5t-207.5 -98.5zM569 848h371q127 0 204 67.5t77 178.5q0 143 -226 143h-344z" />
<glyph unicode="&#x157;" horiz-adv-x="796" d="M-72 -629l21 94q68 12 117 62.5t57 120.5h-137l49 229h250l-43 -196q-16 -121 -106.5 -211.5t-207.5 -98.5zM47 0l236 1106h286l-47 -217q72 113 166 174t193 61q18 0 34 -2l-61 -291q-49 8 -88 9q-254 0 -307 -252l-125 -588h-287z" />
<glyph unicode="&#x158;" horiz-adv-x="1478" d="M82 0l317 1493h772q160 0 257.5 -86t97.5 -221q0 -154 -81 -265.5t-261 -199.5q160 -53 159 -168q0 -68 -57 -375q-6 -31 -6 -53q0 -41 37 -70l-12 -55h-326q-16 51 -16 84q-2 68 53 270q25 98 24 125q0 113 -174 113h-352l-125 -592h-307zM569 848h371q127 0 204 67.5 t77 178.5q0 143 -226 143h-344zM629 1884h176l168 -108l252 108h186l-342 -270h-264z" />
<glyph unicode="&#x159;" horiz-adv-x="796" d="M47 0l236 1106h286l-47 -217q72 113 166 174t193 61q18 0 34 -2l-61 -291q-49 8 -88 9q-254 0 -307 -252l-125 -588h-287zM313 1540h181l135 -158l200 158h177l-287 -315h-260z" />
<glyph unicode="&#x15a;" horiz-adv-x="1366" d="M78 379q0 35 8 90h299q-4 -37 -4 -47q0 -88 77 -136t216 -48q162 0 255 57t93 160q0 70 -50 100.5t-198 60.5l-201 41q-182 37 -264 110t-82 200q0 233 182.5 392t477.5 159q244 0 380 -93.5t136 -259.5q0 -51 -17 -127h-286q4 37 4 47q0 170 -270 170q-139 0 -220.5 -57 t-81.5 -156q0 -57 51.5 -88.5t196.5 -60.5l224 -45q324 -68 323 -293q0 -262 -186.5 -421t-511.5 -159q-256 0 -403.5 107t-147.5 297zM799 1610l250 276h352l-389 -276h-213z" />
<glyph unicode="&#x15b;" d="M47 289q0 20 8 61h281q6 -139 217 -139q209 0 209 98q-2 25 -33 43.5t-125 48.5l-162 52q-264 84 -264 254q0 172 144.5 294.5t388.5 122.5q193 0 303 -78.5t110 -218.5q0 -33 -10 -77h-276q6 29 6 38q0 49 -48 78t-132 29q-82 0 -131.5 -29.5t-49.5 -79.5q0 -31 28 -50 t105 -42l197 -57q129 -37 190.5 -94.5t61.5 -145.5q0 -195 -151.5 -305t-413.5 -110q-203 0 -328 84t-125 223zM645 1225l209 315h320l-324 -315h-205z" />
<glyph unicode="&#x15c;" horiz-adv-x="1366" d="M78 379q0 35 8 90h299q-4 -37 -4 -47q0 -88 77 -136t216 -48q162 0 255 57t93 160q0 70 -50 100.5t-198 60.5l-201 41q-182 37 -264 110t-82 200q0 233 182.5 392t477.5 159q244 0 380 -93.5t136 -259.5q0 -51 -17 -127h-286q4 37 4 47q0 170 -270 170q-139 0 -220.5 -57 t-81.5 -156q0 -57 51.5 -88.5t196.5 -60.5l224 -45q324 -68 323 -293q0 -262 -186.5 -421t-511.5 -159q-256 0 -403.5 107t-147.5 297zM516 1614l342 270h264l176 -270h-176l-168 108l-252 -108h-186z" />
<glyph unicode="&#x15d;" d="M47 289q0 20 8 61h281q6 -139 217 -139q209 0 209 98q-2 25 -33 43.5t-125 48.5l-162 52q-264 84 -264 254q0 172 144.5 294.5t388.5 122.5q193 0 303 -78.5t110 -218.5q0 -33 -10 -77h-276q6 29 6 38q0 49 -48 78t-132 29q-82 0 -131.5 -29.5t-49.5 -79.5q0 -31 28 -50 t105 -42l197 -57q129 -37 190.5 -94.5t61.5 -145.5q0 -195 -151.5 -305t-413.5 -110q-203 0 -328 84t-125 223zM401 1225l287 315h260l146 -315h-181l-135 157l-200 -157h-177z" />
<glyph unicode="&#x15e;" horiz-adv-x="1366" d="M78 379q0 35 8 90h299q-4 -37 -4 -47q0 -88 77 -136t216 -48q162 0 255 57t93 160q0 70 -50 100.5t-198 60.5l-201 41q-182 37 -264 110t-82 200q0 233 182.5 392t477.5 159q244 0 380 -93.5t136 -259.5q0 -51 -17 -127h-286q4 37 4 47q0 170 -270 170q-139 0 -220.5 -57 t-81.5 -156q0 -57 51.5 -88.5t196.5 -60.5l224 -45q324 -68 323 -293q0 -248 -167 -404.5t-462 -173.5l-57 -92h68q59 0 95 -40t36 -97q0 -100 -84 -159.5t-224 -59.5q-121 0 -272 59l62 105q104 -51 200 -51q59 0 99.5 21.5t40.5 57.5q0 33 -26 56.5t-65 23.5h-102l106 176 q-233 10 -365 116t-132 286z" />
<glyph unicode="&#x15f;" d="M47 289q0 20 8 61h281q6 -139 217 -139q209 0 209 98q-2 25 -33 43.5t-125 48.5l-162 52q-264 84 -264 254q0 172 144.5 294.5t388.5 122.5q193 0 303 -78.5t110 -218.5q0 -33 -10 -77h-276q6 29 6 38q0 49 -48 78t-132 29q-82 0 -131.5 -29.5t-49.5 -79.5q0 -31 28 -50 t105 -42l197 -57q129 -37 190.5 -94.5t61.5 -145.5q0 -182 -132 -290.5t-364 -122.5l-61 -99h67q59 0 95.5 -40t36.5 -97q0 -100 -84 -159.5t-224 -59.5q-121 0 -272 59l61 105q104 -51 201 -51q59 0 99 21.5t40 57.5q0 33 -25.5 56.5t-64.5 23.5h-102l110 183 q-182 10 -290.5 93t-108.5 212z" />
<glyph unicode="&#x160;" horiz-adv-x="1366" d="M78 379q0 35 8 90h299q-4 -37 -4 -47q0 -88 77 -136t216 -48q162 0 255 57t93 160q0 70 -50 100.5t-198 60.5l-201 41q-182 37 -264 110t-82 200q0 233 182.5 392t477.5 159q244 0 380 -93.5t136 -259.5q0 -51 -17 -127h-286q4 37 4 47q0 170 -270 170q-139 0 -220.5 -57 t-81.5 -156q0 -57 51.5 -88.5t196.5 -60.5l224 -45q324 -68 323 -293q0 -262 -186.5 -421t-511.5 -159q-256 0 -403.5 107t-147.5 297zM573 1884h177l168 -108l251 108h187l-342 -270h-264z" />
<glyph unicode="&#x161;" d="M47 289q0 20 8 61h281q6 -139 217 -139q209 0 209 98q-2 25 -33 43.5t-125 48.5l-162 52q-264 84 -264 254q0 172 144.5 294.5t388.5 122.5q193 0 303 -78.5t110 -218.5q0 -33 -10 -77h-276q6 29 6 38q0 49 -48 78t-132 29q-82 0 -131.5 -29.5t-49.5 -79.5q0 -31 28 -50 t105 -42l197 -57q129 -37 190.5 -94.5t61.5 -145.5q0 -195 -151.5 -305t-413.5 -110q-203 0 -328 84t-125 223zM467 1540h180l135 -158l201 158h176l-287 -315h-260z" />
<glyph unicode="&#x162;" horiz-adv-x="1251" d="M158 -412l61 105q104 -51 201 -51q59 0 99 21.5t40 57.5q0 33 -25.5 56.5t-64.5 23.5h-102l120 199h-88l265 1237h-455l55 256h1196l-55 -256h-434l-264 -1237h-97l-71 -115h67q59 0 95 -40t36 -97q0 -100 -84 -159.5t-223 -59.5q-120 0 -272 59z" />
<glyph unicode="&#x163;" horiz-adv-x="681" d="M-68 -412l62 105q104 -51 201 -51q59 0 99 21.5t40 57.5q0 33 -25.5 56.5t-64.5 23.5h-103l121 201q-131 29 -131 152q0 37 10 84l138 655h-142l41 190h141l64 297h287l-64 -297h160l-41 -190h-160l-121 -578q-12 -53 -12 -69q0 -51 78 -51q25 0 68 6l-41 -201 q-102 -8 -158 -8l-66 -107h68q59 0 95 -40t36 -97q0 -100 -84 -159.5t-223 -59.5q-121 0 -273 59z" />
<glyph unicode="&#x164;" horiz-adv-x="1251" d="M209 1237l55 256h1196l-55 -256h-434l-264 -1237h-308l265 1237h-455zM563 1884h176l168 -108l252 108h187l-342 -270h-265z" />
<glyph unicode="&#x165;" horiz-adv-x="681" d="M131 154q0 37 10 84l138 655h-142l41 190h141l64 297h287l-64 -297h160l-41 -190h-160l-121 -578q-12 -53 -12 -69q0 -51 78 -51q25 0 68 6l-41 -201q-111 -8 -172 -8q-234 0 -234 162zM688 1167l21 95q68 12 116.5 62t57.5 120h-138l50 229h249l-43 -196 q-16 -121 -106 -211.5t-207 -98.5z" />
<glyph unicode="&#x168;" horiz-adv-x="1478" d="M166 365q0 74 22 180l203 948h307l-211 -989q-10 -41 -10 -92q0 -82 66.5 -128t185.5 -46q139 0 219 64.5t109 201.5l211 989h307l-211 -989q-55 -256 -240.5 -392.5t-451.5 -136.5q-231 0 -368.5 106t-137.5 284zM639 1628q35 115 99.5 177.5t148.5 62.5q63 0 145 -35 l103 -43q51 -23 67 -21q68 0 111 105h110q-35 -127 -107.5 -188.5t-164.5 -61.5q-66 0 -104 23l-103 51q-61 29 -90 28q-53 0 -104 -98h-111z" />
<glyph unicode="&#x169;" horiz-adv-x="1251" d="M104 252q0 55 13 113l157 741h287l-137 -641q-8 -35 -12 -100q0 -154 155 -154q100 0 174 73.5t101 198.5l133 623h287l-236 -1106h-287l33 154q-158 -172 -369 -172q-135 0 -217 73.5t-82 196.5zM438 1262q35 115 99.5 177t148.5 62q63 0 145 -35l103 -43q51 -23 67 -20 q68 0 111 104h111q-35 -127 -108 -188.5t-165 -61.5q-66 0 -104 23l-103 51q-61 29 -90 29q-53 0 -104 -98h-111z" />
<glyph unicode="&#x16a;" horiz-adv-x="1478" d="M166 365q0 74 22 180l203 948h307l-211 -989q-10 -41 -10 -92q0 -82 66.5 -128t185.5 -46q139 0 219 64.5t109 201.5l211 989h307l-211 -989q-55 -256 -240.5 -392.5t-451.5 -136.5q-231 0 -368.5 106t-137.5 284zM707 1667l34 164h615l-35 -164h-614z" />
<glyph unicode="&#x16b;" horiz-adv-x="1251" d="M104 252q0 55 13 113l157 741h287l-137 -641q-8 -35 -12 -100q0 -154 155 -154q100 0 174 73.5t101 198.5l133 623h287l-236 -1106h-287l33 154q-158 -172 -369 -172q-135 0 -217 73.5t-82 196.5zM508 1300l35 164h614l-35 -164h-614z" />
<glyph unicode="&#x16c;" horiz-adv-x="1478" d="M166 365q0 74 22 180l203 948h307l-211 -989q-10 -41 -10 -92q0 -82 66.5 -128t185.5 -46q139 0 219 64.5t109 201.5l211 989h307l-211 -989q-55 -256 -240.5 -392.5t-451.5 -136.5q-231 0 -368.5 106t-137.5 284zM745 1882h105q-4 -31 4 -52.5t18.5 -31.5t43 -15 t50.5 -5h66q199 0 252 104h102q-25 -115 -137 -189.5t-257.5 -74.5t-218.5 80t-28 184z" />
<glyph unicode="&#x16d;" horiz-adv-x="1251" d="M104 252q0 55 13 113l157 741h287l-137 -641q-8 -35 -12 -100q0 -154 155 -154q100 0 174 73.5t101 198.5l133 623h287l-236 -1106h-287l33 154q-158 -172 -369 -172q-135 0 -217 73.5t-82 196.5zM586 1460q0 35 12 80h86v-16q0 -55 40 -86t112 -31q158 0 211 133h86 q-23 -129 -119 -221t-215 -92q-94 0 -153.5 67.5t-59.5 165.5z" />
<glyph unicode="&#x16e;" horiz-adv-x="1478" d="M166 365q0 74 22 180l203 948h307l-211 -989q-10 -41 -10 -92q0 -82 66.5 -128t185.5 -46q139 0 219 64.5t109 201.5l211 989h307l-211 -989q-55 -256 -240.5 -392.5t-451.5 -136.5q-231 0 -368.5 106t-137.5 284zM836 1724q0 96 76.5 171t174.5 75q70 0 116 -45t46 -115 q0 -96 -76.5 -170.5t-175.5 -74.5q-70 0 -115.5 44.5t-45.5 114.5zM944 1749q0 -31 22.5 -51.5t55.5 -20.5q45 0 81 34t36 77q0 31 -20.5 50.5t-53.5 19.5q-47 0 -84 -33t-37 -76z" />
<glyph unicode="&#x16f;" horiz-adv-x="1251" d="M104 252q0 55 13 113l157 741h287l-137 -641q-8 -35 -12 -100q0 -154 155 -154q100 0 174 73.5t101 198.5l133 623h287l-236 -1106h-287l33 154q-158 -172 -369 -172q-135 0 -217 73.5t-82 196.5zM631 1339q0 96 76.5 171t175.5 75q70 0 115.5 -45t45.5 -115 q0 -96 -76.5 -170.5t-174.5 -74.5q-70 0 -116 44.5t-46 114.5zM741 1364q0 -31 21.5 -51.5t54.5 -20.5q45 0 81 34t36 77q0 31 -20.5 50.5t-53.5 19.5q-47 0 -83 -33t-36 -76z" />
<glyph unicode="&#x170;" horiz-adv-x="1478" d="M166 365q0 74 22 180l203 948h307l-211 -989q-10 -41 -10 -92q0 -82 66.5 -128t185.5 -46q139 0 219 64.5t109 201.5l211 989h307l-211 -989q-55 -256 -240.5 -392.5t-451.5 -136.5q-231 0 -368.5 106t-137.5 284zM711 1612l211 315h258l-295 -315h-174zM1116 1612 l211 315h258l-295 -315h-174z" />
<glyph unicode="&#x171;" horiz-adv-x="1251" d="M104 252q0 55 13 113l157 741h287l-137 -641q-8 -35 -12 -100q0 -154 155 -154q100 0 174 73.5t101 198.5l133 623h287l-236 -1106h-287l33 154q-158 -172 -369 -172q-135 0 -217 73.5t-82 196.5zM508 1225l211 315h258l-295 -315h-174zM913 1225l211 315h258l-295 -315 h-174z" />
<glyph unicode="&#x172;" horiz-adv-x="1478" d="M166 365q0 74 22 180l203 948h307l-211 -989q-10 -41 -10 -92q0 -82 66.5 -128t185.5 -46q139 0 219 64.5t109 201.5l211 989h307l-211 -989q-41 -193 -157.5 -319t-291.5 -177q-84 -25 -144 -86t-60 -135t96 -74h129l-31 -184h-137q-262 0 -262 164q0 152 184 282h-18 q-231 0 -368.5 106t-137.5 284z" />
<glyph unicode="&#x173;" horiz-adv-x="1251" d="M104 252q0 55 13 113l157 741h287l-137 -641q-8 -35 -12 -100q0 -154 155 -154q100 0 174 73.5t101 198.5l133 623h287l-236 -1106q-125 -16 -215 -106q-59 -59 -59 -107q0 -74 96 -74h129l-31 -184h-137q-262 0 -262 164q0 74 47 143q59 92 145 164l33 154 q-158 -172 -369 -172q-135 0 -217 73.5t-82 196.5z" />
<glyph unicode="&#x174;" horiz-adv-x="1933" d="M262 1493h320v-1118l458 1118h318v-1122l461 1122h325l-731 -1493h-285v1137l-485 -1137h-276zM834 1614l342 270h264l176 -270h-176l-168 108l-252 -108h-186z" />
<glyph unicode="&#x175;" horiz-adv-x="1593" d="M164 1106h307v-774l326 774h295v-774l333 774h297l-540 -1106h-308v778l-339 -778h-295zM629 1225l286 315h261l145 -315h-180l-135 157l-201 -157h-176z" />
<glyph unicode="&#x176;" horiz-adv-x="1366" d="M291 1493h342l168 -645l424 645h342l-672 -940l-119 -553h-307l119 553zM575 1614l343 270h264l176 -270h-176l-168 108l-252 -108h-187z" />
<glyph unicode="&#x177;" d="M-6 -440l47 223q23 -4 57 -4q106 0 169 51t63 139l-158 1137h315l74 -805l400 805h294l-733 -1307q-86 -154 -176 -201t-262 -47q-55 1 -90 9zM401 1225l287 315h260l146 -315h-181l-135 157l-200 -157h-177z" />
<glyph unicode="&#x178;" horiz-adv-x="1366" d="M291 1493h342l168 -645l424 645h342l-672 -940l-119 -553h-307l119 553zM643 1632l51 236h258l-51 -236h-258zM1042 1632l52 236h258l-52 -236h-258z" />
<glyph unicode="&#x179;" horiz-adv-x="1251" d="M-20 0l55 256l971 981h-764l55 256h1122l-55 -256l-971 -981h764l-55 -256h-1122zM774 1610l250 276h352l-389 -276h-213z" />
<glyph unicode="&#x17a;" horiz-adv-x="1024" d="M-39 0l49 231l684 643h-510l49 232h863l-49 -232l-680 -643h561l-49 -231h-918zM588 1225l209 315h319l-323 -315h-205z" />
<glyph unicode="&#x17b;" horiz-adv-x="1251" d="M-20 0l55 256l971 981h-764l55 256h1122l-55 -256l-971 -981h764l-55 -256h-1122zM743 1616l56 268h286l-55 -268h-287z" />
<glyph unicode="&#x17c;" horiz-adv-x="1024" d="M-39 0l49 231l684 643h-510l49 232h863l-49 -232l-680 -643h561l-49 -231h-918zM553 1249l55 269h287l-55 -269h-287z" />
<glyph unicode="&#x17d;" horiz-adv-x="1251" d="M-20 0l55 256l971 981h-764l55 256h1122l-55 -256l-971 -981h764l-55 -256h-1122zM551 1884h176l168 -108l252 108h186l-342 -270h-264z" />
<glyph unicode="&#x17e;" horiz-adv-x="1024" d="M-39 0l49 231l684 643h-510l49 232h863l-49 -232l-680 -643h561l-49 -231h-918zM410 1540h180l135 -158l201 158h176l-287 -315h-260z" />
<glyph unicode="&#x17f;" horiz-adv-x="681" d="M102 0l258 1217q31 143 116 209.5t235 66.5l157 -6l-45 -215q-74 8 -86 8q-76 0 -94 -88l-254 -1192h-287z" />
<glyph unicode="&#x18e;" horiz-adv-x="1366" d="M80 0l55 256h809l82 387h-715l56 256h714l72 338h-774l53 256h1081l-317 -1493h-1116z" />
<glyph unicode="&#x192;" d="M-125 -406l100 236q55 -43 107 -43q55 0 96 50t88 177l285 770h-252l43 205h283l47 121q84 213 196.5 313.5t274.5 100.5q82 0 188 -35l-90 -234q-63 33 -106 33q-123 0 -203 -215l-31 -84h252l-43 -205h-281l-286 -782q-88 -240 -205 -346.5t-287 -106.5q-94 0 -176 45z " />
<glyph unicode="&#x1a0;" horiz-adv-x="1638" d="M141 563q-4 156 63.5 334t186.5 320q250 301 629 301q348 0 500 -232q129 68 168 207h-144l55 256h279l-47 -223q-53 -246 -260 -344q43 -109 43 -250q0 -362 -246 -649q-131 -156 -284.5 -228.5t-350.5 -72.5q-274 0 -433 156.5t-159 424.5zM446 606q0 -168 90.5 -265 t245.5 -97q236 0 389 215q137 190 138 436q0 170 -87 265t-241 95q-238 0 -393 -213q-68 -94 -107 -216t-35 -220z" />
<glyph unicode="&#x1a1;" horiz-adv-x="1388" d="M92 391q-4 113 39 249t117 232q188 252 516 252q311 0 416 -227q131 72 168 209h-144l56 256h278l-47 -223q-57 -258 -281 -353q6 -37 7 -71q0 -272 -156 -482q-190 -252 -524 -251q-203 0 -324 111.5t-121 297.5zM385 449q0 -109 55.5 -173.5t147.5 -64.5q166 0 264 178 q72 125 72 266q0 109 -55.5 174.5t-149.5 65.5q-137 0 -237.5 -136t-96.5 -310z" />
<glyph unicode="&#x1af;" horiz-adv-x="1712" d="M168 371q0 74 22 180l201 942h307l-209 -983q-10 -55 -10 -92q0 -82 66.5 -128t185.5 -46q139 0 219 64.5t109 201.5l209 983h307l-51 -242q201 61 250 242h-144l56 256h278l-47 -223q-70 -324 -420 -396l-131 -620q-53 -246 -219 -377q-193 -152 -473 -151 q-231 0 -368.5 105.5t-137.5 283.5z" />
<glyph unicode="&#x1b0;" horiz-adv-x="1478" d="M104 252q0 55 13 113l157 741h287l-137 -641q-12 -72 -12 -100q0 -154 155 -154q100 0 174 73.5t101 198.5l133 623h287l-52 -240q193 59 242 240h-143l55 256h278l-47 -223q-72 -322 -411 -394l-158 -745h-287l37 168q-84 -98 -172 -142t-201 -44q-135 0 -217 73.5 t-82 196.5z" />
<glyph unicode="&#x1dd;" d="M49 387q0 111 35 242h743q2 18 2 78q0 84 -53 136t-141 52q-70 0 -132.5 -30.5t-90.5 -69.5h-283q82 152 230.5 240.5t330.5 88.5q195 0 315.5 -111.5t120.5 -299.5q0 -195 -74.5 -359t-224 -268t-344.5 -104q-201 0 -317.5 115.5t-116.5 289.5zM340 408 q0 -104 45 -150.5t133 -46.5q209 0 273 227h-451v-30z" />
<glyph unicode="&#x1e6;" horiz-adv-x="1593" d="M139 549q0 250 117 472t326 359.5t456 137.5q250 0 403.5 -120t153.5 -315q0 -10 -4 -67h-282q-12 115 -97.5 177t-230.5 62q-233 0 -385 -190.5t-152 -470.5q0 -158 99.5 -257t251.5 -99q147 0 269 78.5t169 230.5h-340l55 256h598l-172 -803h-184l16 193 q-113 -119 -221 -168.5t-254 -49.5q-272 0 -432 154t-160 420zM725 1884h176l168 -108l252 108h186l-342 -270h-264z" />
<glyph unicode="&#x1e7;" horiz-adv-x="1251" d="M-29 -197q0 27 6 64h295l-2 -25q0 -45 50.5 -74.5t125.5 -29.5q113 0 195 62.5t104 162.5l35 164q-96 -82 -168.5 -113.5t-167.5 -31.5q-158 0 -260 103t-102 271q0 199 79 375t220 284.5t311 108.5q178 0 260 -188l37 170h273l-244 -1143q-41 -197 -202 -303t-417 -106 q-201 0 -314.5 66t-113.5 183zM375 426q0 -104 47 -159.5t129 -55.5q137 0 234.5 124t97.5 310q0 115 -51.5 182.5t-137.5 67.5q-127 0 -223 -140.5t-96 -328.5zM524 1540h181l135 -158l200 158h177l-287 -315h-260z" />
<glyph unicode="&#x1ea;" horiz-adv-x="1593" d="M137 547q0 176 66.5 351t187.5 319q252 301 629 301q281 0 437.5 -155t156.5 -431q0 -371 -250 -666q-168 -197 -381 -258q-88 -27 -150.5 -88t-62.5 -133q0 -74 96 -74h129l-30 -184h-138q-262 0 -262 164q0 154 187 282h-21q-274 0 -434 152t-160 420zM442 590 q0 -166 91.5 -259t246.5 -93q223 0 376 191.5t153 465.5q0 170 -87 265t-241 95q-225 0 -382 -197.5t-157 -467.5z" />
<glyph unicode="&#x1eb;" horiz-adv-x="1251" d="M88 377q0 322 189.5 534.5t486.5 212.5q211 0 332 -109.5t121 -299.5q0 -225 -94.5 -397.5t-260.5 -260.5q-121 -63 -193.5 -125.5t-72.5 -144.5q0 -74 96 -74h129l-30 -184h-138q-262 0 -262 164q0 156 197 291q-16 -2 -51 -2q-205 0 -327 105.5t-122 289.5zM381 434 q0 -106 56.5 -164.5t150.5 -58.5q141 0 238.5 129t97.5 315q0 109 -55.5 174.5t-149.5 65.5q-139 0 -238.5 -133t-99.5 -328z" />
<glyph unicode="&#x1f4;" horiz-adv-x="1593" d="M139 549q0 250 117 472t326 359.5t456 137.5q250 0 403.5 -120t153.5 -315q0 -10 -4 -67h-282q-12 115 -97.5 177t-230.5 62q-233 0 -385 -190.5t-152 -470.5q0 -158 99.5 -257t251.5 -99q147 0 269 78.5t169 230.5h-340l55 256h598l-172 -803h-184l16 193 q-113 -119 -221 -168.5t-254 -49.5q-272 0 -432 154t-160 420zM950 1610l250 276h352l-389 -276h-213z" />
<glyph unicode="&#x1f5;" horiz-adv-x="1251" d="M-29 -197q0 27 6 64h295l-2 -25q0 -45 50.5 -74.5t125.5 -29.5q113 0 195 62.5t104 162.5l35 164q-96 -82 -168.5 -113.5t-167.5 -31.5q-158 0 -260 103t-102 271q0 199 79 375t220 284.5t311 108.5q178 0 260 -188l37 170h273l-244 -1143q-41 -197 -202 -303t-417 -106 q-201 0 -314.5 66t-113.5 183zM375 426q0 -104 47 -159.5t129 -55.5q137 0 234.5 124t97.5 310q0 115 -51.5 182.5t-137.5 67.5q-127 0 -223 -140.5t-96 -328.5zM702 1225l209 315h320l-324 -315h-205z" />
<glyph unicode="&#x1fa;" horiz-adv-x="1478" d="M-29 0l834 1493h354l199 -1493h-314l-36 301h-557l-166 -301h-314zM592 557h387l-72 580zM836 1724q0 96 76.5 171t174.5 75q70 0 116 -45t46 -115q0 -96 -76.5 -170.5t-175.5 -74.5q-70 0 -115.5 44.5t-45.5 114.5zM944 1749q0 -31 22.5 -51.5t55.5 -20.5q45 0 81 34 t36 77q0 31 -20.5 50.5t-53.5 19.5q-47 0 -84 -33t-37 -76zM987 2011l250 277h352l-389 -277h-213z" />
<glyph unicode="&#x1fb;" d="M23 236q0 152 109.5 261t301.5 140l119 18l105 16q36 5 49.5 10t33.5 17q70 35 70 109q0 88 -149 88q-98 0 -150.5 -35t-79.5 -119h-268q43 201 173 292t372 91q190 0 291.5 -65.5t101.5 -181.5q0 -37 -12 -93l-129 -614q-6 -25 -7 -43q0 -43 43 -92l-8 -35h-313 q-14 31 -14 55q0 29 8 70q-88 -80 -167 -111.5t-171 -31.5q-143 0 -226 69.5t-83 184.5zM315 299q0 -88 154 -88q104 0 176 68.5t98 193.5l11 49q-29 -16 -38 -18t-59 -10l-135 -23q-207 -35 -207 -172zM557 1337q0 96 77 171t175 75q70 0 116 -45t46 -115q0 -96 -77 -170.5 t-175 -74.5q-70 0 -116 44.5t-46 114.5zM666 1362q0 -31 22.5 -51.5t54.5 -20.5q45 0 81 34t36 77q0 31 -20.5 50t-53.5 19q-47 0 -83.5 -32.5t-36.5 -75.5zM709 1624l249 277h353l-389 -277h-213z" />
<glyph unicode="&#x1fc;" horiz-adv-x="2048" d="M-80 0l860 1493h1399l-53 -256h-752l-74 -338h695l-53 -256h-695l-82 -387h791l-55 -256h-1098l65 311h-448l-174 -311h-326zM553 567h371l143 670h-135zM1190 1610l250 276h352l-389 -276h-213z" />
<glyph unicode="&#x1fd;" horiz-adv-x="1820" d="M31 231q0 156 109.5 265.5t301.5 140.5l117 18l106 16q36 5 49 10t36 17q70 35 69 109q0 88 -149 88q-98 0 -150.5 -35t-79.5 -119h-268q43 207 175 295t374 88q231 0 330 -100q150 100 338 100q193 0 310.5 -116.5t117.5 -288.5q0 -117 -37 -256h-742q-14 -61 -14 -105 q4 -59 61.5 -103t141.5 -44q72 0 135 30.5t92 69.5h283q-78 -145 -234.5 -237t-337.5 -92q-281 0 -370 204q-106 -115 -203.5 -159.5t-239.5 -44.5q-152 0 -236.5 63t-84.5 186zM324 299q0 -88 149 -88q106 0 179 67.5t100 192.5l10 49q-45 -23 -96 -26l-136 -23 q-206 -35 -206 -172zM987 1225l209 315h320l-324 -315h-205zM1081 653h443v56q0 88 -45 137t-129 49q-203 0 -269 -242z" />
<glyph unicode="&#x1fe;" horiz-adv-x="1593" d="M27 113l172 151q-61 127 -62 283q0 176 66.5 351t187.5 319q252 301 629 301q276 0 434 -152l162 145l113 -131l-175 -153q59 -129 60 -295q0 -371 -250 -666q-131 -156 -282.5 -223.5t-350.5 -67.5q-270 0 -430 150l-162 -143zM442 590q0 -51 11 -103l768 674 q-88 94 -240 94q-225 0 -382 -197.5t-157 -467.5zM535 330q92 -92 245 -92q223 0 376 191.5t153 465.5q0 51 -11 106zM948 1610l250 276h352l-389 -276h-213z" />
<glyph unicode="&#x1ff;" horiz-adv-x="1251" d="M20 113l105 88q-37 84 -37 176q0 322 189.5 534.5t486.5 212.5q203 0 321 -100l103 88l100 -119l-108 -92q37 -84 37 -186q0 -326 -188.5 -529.5t-491.5 -203.5q-195 0 -318 96l-98 -84zM381 434l2 -12l481 412q-55 61 -145 61q-139 0 -238.5 -133t-99.5 -328zM440 266 q51 -55 148 -55q141 0 238.5 129t97.5 315v25zM702 1225l209 315h320l-324 -315h-205z" />
<glyph unicode="&#x200;" horiz-adv-x="1478" d="M-29 0l834 1493h354l199 -1493h-314l-36 301h-557l-166 -301h-314zM563 1927h258l78 -315h-174zM592 557h387l-72 580zM969 1927h258l78 -315h-175z" />
<glyph unicode="&#x201;" d="M23 236q0 152 109.5 261t301.5 140l119 18l105 16q36 5 49.5 10t33.5 17q70 35 70 109q0 88 -149 88q-98 0 -150.5 -35t-79.5 -119h-268q43 201 173 292t372 91q190 0 291.5 -65.5t101.5 -181.5q0 -37 -12 -93l-129 -614q-6 -25 -7 -43q0 -43 43 -92l-8 -35h-313 q-14 31 -14 55q0 29 8 70q-88 -80 -167 -111.5t-171 -31.5q-143 0 -226 69.5t-83 184.5zM285 1540h258l78 -315h-175zM315 299q0 -88 154 -88q104 0 176 68.5t98 193.5l11 49q-29 -16 -38 -18t-59 -10l-135 -23q-207 -35 -207 -172zM690 1540h258l78 -315h-174z" />
<glyph unicode="&#x204;" horiz-adv-x="1366" d="M80 0l317 1493h1082l-56 -256h-774l-71 -338h714l-53 -256h-715l-82 -387h809l-55 -256h-1116zM518 1927h258l78 -315h-174zM924 1927h258l78 -315h-175z" />
<glyph unicode="&#x205;" d="M51 393q0 195 75 358.5t224.5 268t343.5 104.5q201 0 317.5 -115.5t116.5 -289.5q0 -111 -34 -242h-744q-2 -18 -2 -78q0 -84 53.5 -136t141.5 -52q70 0 132 30.5t91 69.5h283q-82 -152 -230.5 -240.5t-331.5 -88.5q-195 0 -315.5 111.5t-120.5 299.5zM303 1540h258 l78 -315h-174zM387 668h451v30q0 104 -45 150.5t-134 46.5q-209 0 -272 -227zM709 1540h258l77 -315h-174z" />
<glyph unicode="&#x208;" horiz-adv-x="569" d="M47 0l318 1493h307l-318 -1493h-307zM98 1927h258l78 -315h-174zM504 1927h258l78 -315h-174z" />
<glyph unicode="&#x209;" horiz-adv-x="569" d="M14 1540h258l78 -315h-174zM55 0l236 1106h287l-236 -1106h-287zM420 1540h258l78 -315h-174z" />
<glyph unicode="&#x20c;" horiz-adv-x="1593" d="M137 547q0 176 66.5 351t187.5 319q252 301 629 301q281 0 437.5 -155t156.5 -431q0 -371 -250 -666q-131 -156 -282.5 -223.5t-350.5 -67.5q-274 0 -434 152t-160 420zM442 590q0 -166 91.5 -259t246.5 -93q223 0 376 191.5t153 465.5q0 170 -87 265t-241 95 q-225 0 -382 -197.5t-157 -467.5zM594 1927h258l78 -315h-174zM999 1927h258l78 -315h-174z" />
<glyph unicode="&#x20d;" horiz-adv-x="1251" d="M88 377q0 322 189.5 534.5t486.5 212.5q211 0 332 -109.5t121 -299.5q0 -326 -188.5 -529.5t-491.5 -203.5q-205 0 -327 105.5t-122 289.5zM358 1540h258l78 -315h-174zM381 434q0 -106 56.5 -164.5t150.5 -58.5q141 0 238.5 129t97.5 315q0 109 -55.5 174.5t-149.5 65.5 q-139 0 -238.5 -133t-99.5 -328zM764 1540h258l78 -315h-174z" />
<glyph unicode="&#x210;" horiz-adv-x="1478" d="M82 0l317 1493h772q160 0 257.5 -86t97.5 -221q0 -154 -81 -265.5t-261 -199.5q160 -53 159 -168q0 -68 -57 -375q-6 -31 -6 -53q0 -41 37 -70l-12 -55h-326q-16 51 -16 84q-2 68 53 270q25 98 24 125q0 113 -174 113h-352l-125 -592h-307zM516 1927h258l78 -315h-174z M569 848h371q127 0 204 67.5t77 178.5q0 143 -226 143h-344zM922 1927h258l77 -315h-174z" />
<glyph unicode="&#x211;" horiz-adv-x="796" d="M47 0l236 1106h286l-47 -217q72 113 166 174t193 61q18 0 34 -2l-61 -291q-49 8 -88 9q-254 0 -307 -252l-125 -588h-287zM147 1540h259l77 -315h-174zM553 1540h258l78 -315h-174z" />
<glyph unicode="&#x214;" horiz-adv-x="1478" d="M166 365q0 74 22 180l203 948h307l-211 -989q-10 -41 -10 -92q0 -82 66.5 -128t185.5 -46q139 0 219 64.5t109 201.5l211 989h307l-211 -989q-55 -256 -240.5 -392.5t-451.5 -136.5q-231 0 -368.5 106t-137.5 284zM563 1927h258l78 -315h-174zM969 1927h258l78 -315h-175 z" />
<glyph unicode="&#x215;" horiz-adv-x="1251" d="M104 252q0 55 13 113l157 741h287l-137 -641q-8 -35 -12 -100q0 -154 155 -154q100 0 174 73.5t101 198.5l133 623h287l-236 -1106h-287l33 154q-158 -172 -369 -172q-135 0 -217 73.5t-82 196.5zM358 1540h258l78 -315h-174zM764 1540h258l78 -315h-174z" />
<glyph unicode="&#x218;" horiz-adv-x="1366" d="M78 379q0 35 8 90h299q-4 -37 -4 -47q0 -88 77 -136t216 -48q162 0 255 57t93 160q0 70 -50 100.5t-198 60.5l-201 41q-182 37 -264 110t-82 200q0 233 182.5 392t477.5 159q244 0 380 -93.5t136 -259.5q0 -51 -17 -127h-286q4 37 4 47q0 170 -270 170q-139 0 -220.5 -57 t-81.5 -156q0 -57 51.5 -88.5t196.5 -60.5l224 -45q324 -68 323 -293q0 -262 -186.5 -421t-511.5 -159q-256 0 -403.5 107t-147.5 297zM301 -629l21 94q68 12 116.5 62.5t57.5 120.5h-138l50 229h249l-43 -196q-16 -121 -106 -211.5t-207 -98.5z" />
<glyph unicode="&#x219;" d="M47 289q0 20 8 61h281q6 -139 217 -139q209 0 209 98q-2 25 -33 43.5t-125 48.5l-162 52q-264 84 -264 254q0 172 144.5 294.5t388.5 122.5q193 0 303 -78.5t110 -218.5q0 -33 -10 -77h-276q6 29 6 38q0 49 -48 78t-132 29q-82 0 -131.5 -29.5t-49.5 -79.5q0 -31 28 -50 t105 -42l197 -57q129 -37 190.5 -94.5t61.5 -145.5q0 -195 -151.5 -305t-413.5 -110q-203 0 -328 84t-125 223zM225 -629l21 94q68 12 117 62.5t57 120.5h-137l49 229h250l-43 -196q-16 -121 -106.5 -211.5t-207.5 -98.5z" />
<glyph unicode="&#x21a;" horiz-adv-x="1251" d="M209 1237l55 256h1196l-55 -256h-434l-264 -1237h-308l265 1237h-455zM291 -629l20 94q68 12 117 62.5t57 120.5h-137l49 229h250l-43 -196q-16 -121 -106 -211.5t-207 -98.5z" />
<glyph unicode="&#x21b;" horiz-adv-x="681" d="M104 -629l21 94q68 12 117 62.5t57 120.5h-137l49 229h250l-43 -196q-16 -121 -106.5 -211.5t-207.5 -98.5zM131 154q0 37 10 84l138 655h-142l41 190h141l64 297h287l-64 -297h160l-41 -190h-160l-121 -578q-12 -53 -12 -69q0 -51 78 -51q25 0 68 6l-41 -201 q-111 -8 -172 -8q-234 0 -234 162z" />
<glyph unicode="&#x258;" d="M27 311h282q12 -39 61.5 -69.5t118.5 -30.5q88 0 164 52t113 136q2 4 10 23.5t19 54.5h-744q18 121 70 242q74 174 239.5 289.5t366.5 115.5q147 0 244.5 -60t134.5 -162.5t25.5 -233.5t-72.5 -275q-80 -188 -248 -299.5t-362 -111.5q-182 0 -294 88.5t-128 240.5z M389 668h451q35 227 -176 227q-178 0 -263 -197z" />
<glyph unicode="&#x259;" d="M49 387q0 111 35 242h743q2 18 2 78q0 84 -53 136t-141 52q-70 0 -132.5 -30.5t-90.5 -69.5h-283q82 152 230.5 240.5t330.5 88.5q195 0 315.5 -111.5t120.5 -299.5q0 -195 -74.5 -359t-224 -268t-344.5 -104q-201 0 -317.5 115.5t-116.5 289.5zM340 408 q0 -104 45 -150.5t133 -46.5q209 0 273 227h-451v-30z" />
<glyph unicode="&#x2be;" horiz-adv-x="946" d="M240 895q0 27 6 61q4 18 20 19h183q12 0 12 -12q2 -72 23.5 -97.5t74.5 -25.5q90 0 141.5 91t51.5 214q0 117 -111 117q-51 0 -81 -20.5t-56 -80.5q-8 -14 -21 -14h-182q-20 0 -12 18q88 283 383 283q147 0 228 -74t81 -196q0 -98 -39 -205t-102 -182 q-113 -137 -316 -138q-125 0 -204.5 70t-79.5 172z" />
<glyph unicode="&#x2bf;" horiz-adv-x="946" d="M250 924q0 98 39 204.5t100 182.5q113 137 316 137q125 0 204.5 -69.5t79.5 -172.5q2 -12 -4 -61q-4 -18 -20 -19h-183q-10 0 -14 13q-2 72 -23.5 97.5t-74.5 25.5q-90 0 -141.5 -91.5t-51.5 -214.5q2 -61 28.5 -88.5t82.5 -27.5q51 0 81.5 20.5t57.5 79.5q4 14 18 14 h183q20 0 12 -18q-88 -283 -381 -283q-150 0 -230.5 75t-78.5 196z" />
<glyph unicode="&#x2c6;" horiz-adv-x="681" d="M174 1225l287 315h260l145 -315h-180l-135 157l-201 -157h-176z" />
<glyph unicode="&#x2c7;" horiz-adv-x="681" d="M240 1540h180l135 -158l201 158h176l-287 -315h-260z" />
<glyph unicode="&#x2d8;" horiz-adv-x="681" d="M301 1460q0 35 12 80h86v-16q0 -55 40 -86t112 -31q158 0 211 133h86q-23 -129 -119 -221t-215 -92q-94 0 -153.5 67.5t-59.5 165.5z" />
<glyph unicode="&#x2d9;" horiz-adv-x="681" d="M383 1249l55 269h287l-55 -269h-287z" />
<glyph unicode="&#x2da;" horiz-adv-x="681" d="M346 1339q0 96 77 171t175 75q70 0 116 -45t46 -115q0 -96 -77 -170.5t-175 -74.5q-70 0 -116 44.5t-46 114.5zM457 1364q0 -31 21.5 -51.5t53.5 -20.5q45 0 81 34t36 77q0 31 -20.5 50.5t-53.5 19.5q-47 0 -82.5 -33t-35.5 -76z" />
<glyph unicode="&#x2db;" horiz-adv-x="681" d="M92 -307q0 166 221 307h195q-211 -115 -211 -213q0 -74 96 -74h129l-30 -184h-138q-262 0 -262 164z" />
<glyph unicode="&#x2dc;" horiz-adv-x="681" d="M154 1262q35 115 99 177t148 62q63 0 146 -35l102 -43q51 -23 68 -20q68 0 110 104h111q-35 -127 -107.5 -188.5t-164.5 -61.5q-66 0 -105 23l-102 51q-61 29 -90 29q-53 0 -105 -98h-110z" />
<glyph unicode="&#x2dd;" horiz-adv-x="681" d="M223 1225l211 315h258l-295 -315h-174zM629 1225l211 315h258l-295 -315h-174z" />
<glyph unicode="&#x300;" horiz-adv-x="0" d="M-682 1540h320l75 -315h-205z" />
<glyph unicode="&#x301;" horiz-adv-x="0" d="M-492 1225l209 315h320l-324 -315h-205z" />
<glyph unicode="&#x302;" horiz-adv-x="0" d="M-735 1225l286 315h261l145 -315h-180l-135 157l-201 -157h-176z" />
<glyph unicode="&#x303;" horiz-adv-x="0" d="M-756 1262q35 115 99.5 177t148.5 62q63 0 146 -35l102 -43q51 -23 67 -20q68 0 111 104h111q-35 -127 -108 -188.5t-165 -61.5q-66 0 -104 23l-103 51q-61 29 -90 29q-53 0 -104 -98h-111z" />
<glyph unicode="&#x304;" horiz-adv-x="0" d="M-686 1300l35 164h614l-35 -164h-614z" />
<glyph unicode="&#x306;" horiz-adv-x="0" d="M-608 1460q0 35 12 80h86v-16q0 -55 40 -86t112 -31q158 0 211 133h86q-23 -129 -119 -221t-215 -92q-94 0 -153.5 67.5t-59.5 165.5z" />
<glyph unicode="&#x307;" horiz-adv-x="0" d="M-526 1249l55 269h287l-56 -269h-286z" />
<glyph unicode="&#x308;" horiz-adv-x="0" d="M-711 1266l52 235h258l-52 -235h-258zM-311 1266l51 235h258l-51 -235h-258z" />
<glyph unicode="&#x309;" horiz-adv-x="0" d="M-582 1419q33 115 99.5 164t173.5 49q92 0 147.5 -39t55.5 -102q0 -66 -48 -117q-31 -33 -108 -69q-45 -23 -58.5 -36.5t-21.5 -51.5h-123q8 90 131 161q37 18 56.5 36t22.5 28t3 24q0 55 -74 56q-92 0 -116 -103h-140z" />
<glyph unicode="&#x30a;" horiz-adv-x="0" d="M-563 1339q0 96 76.5 171t175.5 75q70 0 115.5 -45t45.5 -115q0 -96 -76.5 -170.5t-174.5 -74.5q-70 0 -116 44.5t-46 114.5zM-453 1364q0 -31 21.5 -51.5t54.5 -20.5q45 0 81 34t36 77q0 31 -20.5 50.5t-53.5 19.5q-47 0 -83 -33t-36 -76z" />
<glyph unicode="&#x30b;" horiz-adv-x="0" d="M-686 1225l211 315h258l-295 -315h-174zM-281 1225l211 315h258l-294 -315h-175z" />
<glyph unicode="&#x30c;" horiz-adv-x="0" d="M-670 1540h181l135 -158l200 158h177l-287 -315h-260z" />
<glyph unicode="&#x30f;" horiz-adv-x="0" d="M-836 1540h258l78 -315h-174zM-430 1540h258l78 -315h-174z" />
<glyph unicode="&#x311;" horiz-adv-x="0" d="M-662 1227q23 129 119.5 221t214.5 92q94 0 153.5 -67.5t59.5 -165.5q0 -35 -12 -80h-86v16q0 55 -40 86t-112 31q-158 0 -210 -133h-87z" />
<glyph unicode="&#x323;" horiz-adv-x="0" d="M-879 -410l56 269h286l-55 -269h-287z" />
<glyph unicode="&#x326;" horiz-adv-x="0" d="M-907 -629l20 94q68 12 117 62.5t57 120.5h-137l49 229h250l-43 -196q-16 -121 -106 -211.5t-207 -98.5z" />
<glyph unicode="&#x32e;" horiz-adv-x="0" d="M-999 -143h104q-4 -31 4 -52.5t18.5 -32t43 -15.5t50.5 -5h66q199 0 252 105h103q-25 -115 -137.5 -190t-258 -75t-218 80.5t-27.5 184.5z" />
<glyph unicode="&#x32f;" horiz-adv-x="0" d="M-1059 -408q25 115 137.5 190t258 75t218 -80t27.5 -185h-104q4 31 -4.5 52.5t-18.5 32t-44 15.5t-51 5h-67q-197 0 -249 -105h-103z" />
<glyph unicode="&#x330;" horiz-adv-x="0" d="M-1108 -397q35 115 99.5 177t148.5 62q63 0 145 -35l103 -43q51 -23 67 -20q68 0 111 104h110q-35 -127 -107.5 -188t-164.5 -61q-66 0 -104 22l-103 51q-61 29 -90 29q-53 0 -104 -98h-111z" />
<glyph unicode="&#x331;" horiz-adv-x="0" d="M-1040 -358l34 163h615l-35 -163h-614z" />
<glyph unicode="&#x332;" horiz-adv-x="0" d="M-1040 -358l34 163h615l-35 -163h-614z" />
<glyph unicode="&#x391;" horiz-adv-x="1478" d="M-29 0l834 1493h354l199 -1493h-314l-36 301h-557l-166 -301h-314zM592 557h387l-72 580z" />
<glyph unicode="&#x392;" horiz-adv-x="1478" d="M86 0l317 1493h666q195 0 302.5 -87t107.5 -237q0 -217 -240 -374q78 -61 111.5 -125t33.5 -148q0 -90 -45 -189.5t-120 -172.5q-166 -160 -461 -160h-672zM449 256h364q131 0 199.5 67.5t68.5 178.5q0 141 -186 141h-365zM584 899h336q129 0 191.5 59.5t62.5 151.5 q0 66 -44.5 96.5t-138.5 30.5h-336z" />
<glyph unicode="&#x393;" horiz-adv-x="1251" d="M70 0l317 1493h1049l-56 -256h-741l-262 -1237h-307z" />
<glyph unicode="&#x394;" horiz-adv-x="1492" d="M-96 0l938 1448h262l321 -1448h-1521zM401 287h648l-166 743z" />
<glyph unicode="&#x395;" horiz-adv-x="1366" d="M80 0l317 1493h1082l-56 -256h-774l-71 -338h714l-53 -256h-715l-82 -387h809l-55 -256h-1116z" />
<glyph unicode="&#x396;" horiz-adv-x="1251" d="M-20 0l55 256l971 981h-764l55 256h1122l-55 -256l-971 -981h764l-55 -256h-1122z" />
<glyph unicode="&#x397;" horiz-adv-x="1478" d="M57 0l318 1493h307l-119 -559h590l119 559h309l-317 -1493h-308l144 678h-592l-143 -678h-308z" />
<glyph unicode="&#x398;" horiz-adv-x="1593" d="M137 547q0 176 66.5 351t187.5 319q252 301 629 301q281 0 437.5 -155t156.5 -431q0 -371 -250 -666q-131 -156 -282.5 -223.5t-350.5 -67.5q-274 0 -434 152t-160 420zM442 590q0 -166 91.5 -259t246.5 -93q223 0 376 191.5t153 465.5q0 170 -87 265t-241 95 q-225 0 -382 -197.5t-157 -467.5zM575 604l62 287h543l-62 -287h-543z" />
<glyph unicode="&#x399;" horiz-adv-x="569" d="M47 0l318 1493h307l-318 -1493h-307z" />
<glyph unicode="&#x39a;" horiz-adv-x="1478" d="M70 0l317 1493h307l-139 -655l725 655h365l-740 -653l481 -840h-366l-354 643l-187 -164l-102 -479h-307z" />
<glyph unicode="&#x39b;" horiz-adv-x="1478" d="M-29 0l834 1493h354l199 -1493h-314l-137 1137l-622 -1137h-314z" />
<glyph unicode="&#x39c;" horiz-adv-x="1705" d="M53 0l318 1493h485v-1147l520 1147h449l-318 -1493h-290l270 1268l-551 -1268h-322v1268l-270 -1268h-291z" />
<glyph unicode="&#x39d;" horiz-adv-x="1478" d="M57 0l318 1493h307l393 -1055l223 1055h291l-317 -1493h-303l-394 1071l-227 -1071h-291z" />
<glyph unicode="&#x39e;" horiz-adv-x="1478" d="M59 0l64 307h1198l-66 -307h-1196zM311 1186l66 307h1196l-66 -307h-1196zM502 604l59 287h569l-59 -287h-569z" />
<glyph unicode="&#x39f;" horiz-adv-x="1593" d="M137 547q0 176 66.5 351t187.5 319q252 301 629 301q281 0 437.5 -155t156.5 -431q0 -371 -250 -666q-131 -156 -282.5 -223.5t-350.5 -67.5q-274 0 -434 152t-160 420zM442 590q0 -166 91.5 -259t246.5 -93q223 0 376 191.5t153 465.5q0 170 -87 265t-241 95 q-225 0 -382 -197.5t-157 -467.5z" />
<glyph unicode="&#x3a0;" horiz-adv-x="1349" d="M-10 0l317 1493h1206l-317 -1493h-307l262 1237h-592l-262 -1237h-307z" />
<glyph unicode="&#x3a1;" horiz-adv-x="1366" d="M74 0l317 1493h631q207 0 316.5 -96.5t109.5 -249.5q0 -246 -166 -430.5t-405 -184.5h-383l-113 -532h-307zM549 788h313q131 0 206 78t75 209q0 72 -51.5 117t-133.5 45h-315z" />
<glyph unicode="&#x3a3;" horiz-adv-x="1253" d="M-10 0l59 276l569 472l-370 469l59 276h1108l-53 -256h-768l387 -489l-596 -492h768l-53 -256h-1110z" />
<glyph unicode="&#x3a4;" horiz-adv-x="1251" d="M209 1237l55 256h1196l-55 -256h-434l-264 -1237h-308l265 1237h-455z" />
<glyph unicode="&#x3a5;" horiz-adv-x="1366" d="M291 1493h342l168 -645l424 645h342l-672 -940l-119 -553h-307l119 553z" />
<glyph unicode="&#x3a6;" horiz-adv-x="1558" d="M201 747.5q39 186.5 210 313.5t394 162l57 270h307l-57 -270q209 -35 324.5 -162t76.5 -313q-27 -125 -117.5 -227.5t-215.5 -165t-271 -85.5l-57 -270h-307l57 270q-209 35 -324.5 163t-76.5 314.5zM487.5 748q-18.5 -86 27.5 -146.5t138 -89.5l101 469 q-102 -29 -175 -88t-91.5 -145zM961 512q102 29 174.5 89.5t91 146.5t-27.5 145t-138 88z" />
<glyph unicode="&#x3a7;" horiz-adv-x="1366" d="M-37 0l635 752l-297 741h365l161 -483l375 483h359l-621 -731l320 -762h-367l-184 510l-387 -510h-359z" />
<glyph unicode="&#x3a8;" horiz-adv-x="1523" d="M276 1106l82 387h287l-82 -387q-29 -125 3 -233.5t112 -161.5l166 782h307l-166 -782q102 53 179 161.5t104 233.5l82 387h286l-82 -387q-49 -231 -224 -413.5t-400 -237.5l-96 -455h-308l97 455q-201 55 -299.5 237.5t-47.5 413.5z" />
<glyph unicode="&#x3a9;" horiz-adv-x="1576" d="M-10 0l55 256h289l28 131q-129 141 -129 348q0 201 116 384.5t299 291t380 107.5q229 0 376.5 -146.5t147.5 -365.5q0 -178 -92 -341t-243 -278l-29 -131h291l-56 -256h-598l109 506q129 51 218 182t89 275q0 129 -72.5 214t-193.5 85q-168 0 -299 -152t-131 -332 q0 -94 39 -166.5t110 -105.5l-106 -506h-598z" />
<glyph unicode="&#x3b1;" horiz-adv-x="1589" d="M145 492q53 250 263 428t456 178q238 0 359 -236q92 213 184 318l197 -148q-82 -96 -175.5 -304t-111.5 -241q25 -274 84 -413l-260 -148q-39 90 -60 269q-221 -186 -448 -187q-238 0 -385.5 136.5t-102.5 347.5zM432 492q-25 -109 51 -179.5t199 -70.5q102 0 198.5 70.5 t168.5 181.5q-6 78 -18.5 136t-37 115.5t-69.5 88t-109 30.5q-133 0 -241.5 -110t-141.5 -262z" />
<glyph unicode="&#x3b2;" horiz-adv-x="1394" d="M27 -471l344 1614q35 160 182 255t362 95q186 0 300 -83t114 -218q0 -119 -67.5 -214t-182.5 -136q96 -23 148.5 -94.5t52.5 -180.5q0 -244 -172 -414.5t-397 -170.5q-164 0 -281 94l-117 -547h-286zM492 362q4 -59 47 -98t106 -39q166 0 254 80t88 209q0 201 -231 201 h-31l41 194q127 0 198.5 63.5t71.5 157.5q0 63 -49 98.5t-133 35.5q-172 0 -207 -164z" />
<glyph unicode="&#x3b3;" horiz-adv-x="1398" d="M274 1106h301l123 -715l428 715h301l-671 -1124l-97 -453h-286l96 453z" />
<glyph unicode="&#x3b4;" horiz-adv-x="1245" d="M74 354q0 172 113.5 296t297.5 194q-102 106 -102 246q0 180 161 291.5t369 111.5q227 0 351 -170l-172 -156q-84 94 -228 95q-190 0 -190 -129q0 -57 44 -100.5t104.5 -67t123.5 -54.5q115 -51 182.5 -149t67.5 -219q0 -37 -8 -80q-43 -209 -233.5 -345t-417.5 -136 q-203 0 -333 100t-130 272zM397 422q0 -74 56.5 -114t144.5 -40q98 0 178 53.5t98 141.5q2 8 3 35q0 113 -84 168q-74 0 -140.5 -13.5t-126 -41t-94.5 -75.5t-35 -114z" />
<glyph unicode="&#x3b5;" horiz-adv-x="1150" d="M115 348q35 156 202 244q-115 78 -86 219q33 154 180.5 256t319.5 102q152 0 430 -82l-90 -184q-111 33 -391 33q-55 0 -102.5 -36t-59.5 -89q-6 -29 3 -50.5t36 -34.5t52.5 -20.5t72.5 -10.5t75.5 -4t82.5 -1l-39 -186q-80 0 -133.5 -4t-117 -18.5t-101 -47.5t-48.5 -86 q-14 -74 31 -126t123 -52q276 0 385 27l10 -183q-315 -78 -444 -77q-195 0 -311.5 116.5t-79.5 294.5z" />
<glyph unicode="&#x3b6;" horiz-adv-x="1189" d="M158 553q47 221 195.5 412.5t359.5 318.5h-400l41 189h1006l-41 -189h-195q-246 -55 -434 -262t-246 -469q-25 -119 28.5 -206t162.5 -87h80q158 0 251 -102.5t60 -249.5q-31 -145 -166 -242.5t-293 -97.5l45 209q45 0 80 39t47 92q10 49 -11 84t-64 35h-78 q-221 0 -347 153.5t-81 372.5z" />
<glyph unicode="&#x3b7;" horiz-adv-x="1251" d="M41 0l235 1106h287l-16 -78q133 70 266 70q188 0 306 -100.5t85 -260.5l-258 -1208h-287l259 1208q12 59 -35 93t-119 34q-164 0 -281 -133l-155 -731h-287z" />
<glyph unicode="&#x3b8;" horiz-adv-x="1157" d="M163 435q-7 122 23 249q33 156 86.5 292t129 254t182 186.5t227.5 68.5q123 0 199.5 -68.5t102.5 -186.5t21.5 -254t-36.5 -292q-57 -274 -221 -475t-379 -201q-109 0 -185.5 57.5t-109.5 152.5t-40 217zM432 444.5q-4 -51.5 2 -101.5t35 -75.5t78 -25.5q94 0 147.5 87 t89.5 238h-335q-13 -71 -17 -122.5zM498 801h338q20 98 28 167.5t6 139.5t-29.5 106.5t-78.5 36.5t-93 -36.5t-74 -106.5t-53 -139.5t-44 -167.5z" />
<glyph unicode="&#x3b9;" horiz-adv-x="894" d="M233 332l166 774h287l-166 -774q-6 -33 9.5 -52.5t55.5 -26.5t69.5 -9t86.5 -2l-49 -234q-137 0 -245.5 32t-172.5 107.5t-41 184.5z" />
<glyph unicode="&#x3ba;" d="M39 0l235 1106h287l-92 -430l457 430h325l-475 -422l264 -684h-335l-162 489l-140 -127l-77 -362h-287z" />
<glyph unicode="&#x3bb;" horiz-adv-x="1550" d="M41 0l805 1004l-15 65q-16 80 -76.5 128t-146.5 48l45 209q178 0 308.5 -81t158.5 -230l228 -1143h-304l-137 686l-547 -686h-319z" />
<glyph unicode="&#x3bc;" horiz-adv-x="1497" d="M63 -471l336 1577h287l-149 -700q14 -74 61 -119t121 -45q147 0 250 164l149 700h287l-236 -1106h-286l14 66q-111 -57 -229 -58q-117 0 -203 58l-115 -537h-287z" />
<glyph unicode="&#x3bd;" horiz-adv-x="1267" d="M213 1106h301l152 -830q127 82 214 203t115 258q39 197 60 369h286q-20 -172 -59 -369q-57 -262 -249.5 -480t-459.5 -318l-170 81z" />
<glyph unicode="&#x3be;" horiz-adv-x="1251" d="M143 487q47 209 271 334q-160 104 -119 283q20 106 104 180h-86l41 189h1006l-41 -189h-483q-223 -37 -254 -180q-20 -90 62.5 -130t213.5 -40l-45 -209q-133 0 -246.5 -64.5t-136.5 -173.5q-20 -96 41 -161.5t164 -65.5h80q158 0 251 -102.5t60 -249.5 q-31 -145 -166 -242.5t-293 -97.5l45 209q45 0 80 39t47 92q10 49 -11 84t-64 35h-78q-219 0 -351.5 130.5t-91.5 329.5z" />
<glyph unicode="&#x3bf;" horiz-adv-x="1251" d="M88 377q0 322 189.5 534.5t486.5 212.5q211 0 332 -109.5t121 -299.5q0 -326 -188.5 -529.5t-491.5 -203.5q-205 0 -327 105.5t-122 289.5zM381 434q0 -106 56.5 -164.5t150.5 -58.5q141 0 238.5 129t97.5 315q0 109 -55.5 174.5t-149.5 65.5q-139 0 -238.5 -133 t-99.5 -328z" />
<glyph unicode="&#x3c0;" horiz-adv-x="1519" d="M129 655q53 256 191.5 353.5t416.5 97.5h865l-50 -232h-204l-187 -874h-287l187 874h-230l-186 -874h-287l187 874q-84 0 -122 -53t-63 -166h-231z" />
<glyph unicode="&#x3c1;" horiz-adv-x="1372" d="M-59 -471l217 1024q49 227 248.5 386t431 159t363.5 -159t83 -386q-47 -227 -246.5 -386t-431.5 -159q-143 0 -262 68l-117 -547h-286zM399 340q94 -98 256 -98q117 0 216.5 92t125.5 219q29 127 -31.5 219t-177 92t-216 -92t-128.5 -219z" />
<glyph unicode="&#x3c2;" horiz-adv-x="1251" d="M160 563q47 221 238.5 378t414.5 157q156 0 261.5 -90t115.5 -238l-260 -70q-4 72 -50 118t-116 46q-109 0 -200 -89t-118 -212q-25 -123 27.5 -213t161.5 -90h80q158 0 251 -102.5t60 -249.5q-31 -145 -166 -242.5t-293 -97.5l45 209q45 0 80 39t47 92q10 49 -11 84 t-64 35h-78q-223 0 -347 156.5t-79 379.5z" />
<glyph unicode="&#x3c3;" horiz-adv-x="1435" d="M141 377q0 322 189.5 534.5t486.5 212.5q111 0 197 -30q188 35 438 141l55 -221q-123 -53 -288 -88q51 -92 51 -211q0 -326 -188.5 -529.5t-491.5 -203.5q-205 0 -327 105.5t-122 289.5zM434 434q0 -106 56.5 -164.5t150.5 -58.5q141 0 238.5 129t97.5 315 q0 109 -55.5 174.5t-149.5 65.5q-139 0 -238.5 -133t-99.5 -328z" />
<glyph unicode="&#x3c4;" horiz-adv-x="985" d="M221 846l49 233h715l-49 -233h-215l-109 -514q-6 -27 5.5 -44.5t30 -26.5t55 -13t60 -5t68.5 -1l-49 -234q-137 0 -245.5 32t-171 107.5t-39.5 184.5l108 514h-213z" />
<glyph unicode="&#x3c5;" horiz-adv-x="1251" d="M119 369l157 737h287l-157 -737q-12 -61 40 -94t132 -33q100 0 184 79.5t106 190.5q63 289 88 594h289q-25 -289 -90 -594q-45 -209 -229.5 -356.5t-399.5 -147.5q-197 0 -319.5 99.5t-87.5 261.5z" />
<glyph unicode="&#x3c6;" horiz-adv-x="1839" d="M158 553q41 186 196.5 332.5t358.5 197.5l12 -204q-104 -29 -179 -120t-102 -206q-27 -125 60.5 -202t243.5 -99l55 260q51 238 220 412t374 174q201 0 301 -162t53 -383q-47 -225 -264 -365.5t-502 -171.5l-104 -487h-287l104 487q-272 31 -429.5 171.5t-110.5 365.5z M1034 252q166 23 285 98.5t145 202.5q31 115 3.5 213t-119.5 98q-182 0 -258 -352z" />
<glyph unicode="&#x3c7;" horiz-adv-x="1411" d="M-59 -471l591 788l-258 789h314l164 -498l374 498h314l-594 -789l260 -788h-313l-164 498l-375 -498h-313z" />
<glyph unicode="&#x3c8;" horiz-adv-x="1593" d="M119 369l157 737h287l-157 -737q-12 -63 48 -91t169 -34l266 1249h287l-267 -1249q248 12 271 125l157 737h287l-158 -737q-25 -115 -119 -193t-213.5 -113.5t-273.5 -48.5l-102 -485h-287l102 485q-229 18 -359 103.5t-95 251.5z" />
<glyph unicode="&#x3c9;" horiz-adv-x="1615" d="M155.5 321.5q-12.5 135.5 16.5 294.5q55 264 313 490h250q-211 -188 -276 -490l-18.5 -88.5t-14.5 -83t-6 -81t9 -61.5t26.5 -46t50.5 -14q127 0 199 184q0 150 34 311h287l-28.5 -138t-19.5 -129t-6 -120t21.5 -75.5t55 -32.5t67.5 24.5t49.5 55t38 91t28.5 96.5t23 107 q66 299 -69 490h252q160 -229 104 -490q-53 -248 -200.5 -428t-342.5 -180q-174 0 -247 154q-133 -154 -295 -154q-131 0 -210 89t-91.5 224.5z" />
<glyph unicode="&#x3d1;" horiz-adv-x="1374" d="M119 369l80 368h286l-79 -368q-12 -59 43 -80t151 -21q217 0 238 101l92 430q-145 10 -253 30.5t-197 63.5t-126 117.5t-14 179.5q37 168 196.5 282.5t344.5 114.5q207 0 325.5 -140t75.5 -341l-27 -127h123l-41 -188l-123 2l-90 -424q-35 -172 -208 -279.5 t-375.5 -107.5t-329.5 107.5t-92 279.5zM569 1190q-37 -172 400 -203l26 119q25 119 -16 206t-137 87q-92 0 -172.5 -60.5t-100.5 -148.5z" />
<glyph unicode="&#x3d5;" horiz-adv-x="1495" d="M158 553q43 203 212 356.5t384 198.5l82 385h294l-81 -385q197 -45 299 -198.5t59 -356.5t-211 -356.5t-385 -198.5l-98 -469h-293l98 469q-197 45 -300 198.5t-60 356.5zM444.5 553q-18.5 -86 20.5 -154.5t117 -101.5l108 512q-92 -33 -159.5 -101.5t-86 -154.5z M874 297q94 33 161 101.5t85.5 154.5t-19.5 154.5t-116 101.5z" />
<glyph unicode="&#x3d6;" horiz-adv-x="1615" d="M155.5 321.5q-12.5 135.5 16.5 294.5q55 264 313 490h250q-211 -188 -276 -490l-18.5 -88.5t-14.5 -83t-6 -81t9 -61.5t26.5 -46t50.5 -14q127 0 199 184q0 150 34 311h287l-28.5 -138t-19.5 -129t-6 -120t21.5 -75.5t55 -32.5t67.5 24.5t49.5 55t38 91t28.5 96.5t23 107 q27 125 41.5 215.5t17.5 197t-16.5 174t-73 113.5t-141.5 46q-248 0 -510 -137l-55 149q281 150 600 150q147 0 252 -78t150 -205t54 -291t-32 -334q-53 -248 -200.5 -428t-342.5 -180q-174 0 -247 154q-133 -154 -295 -154q-131 0 -210 89t-91.5 224.5z" />
<glyph unicode="&#x3f5;" d="M78 367q0 145 56 298.5t149 264.5q160 195 450 194q164 0 274.5 -83t129.5 -212h-306q-31 66 -141 66q-94 0 -164.5 -64.5t-111.5 -173.5h403l-45 -208h-399l-2 -41q0 -104 46 -150.5t140 -46.5q117 0 174 65h293q-145 -295 -502 -294q-211 0 -327.5 105.5t-116.5 279.5z " />
<glyph unicode="&#x400;" horiz-adv-x="1363" d="M80 0l317 1493h1080l-56 -256h-772l-71 -338h714l-53 -256h-715l-82 -387h809l-55 -256h-1116zM698 1948h244l92 -308h-129z" />
<glyph unicode="&#x401;" horiz-adv-x="1363" d="M80 0l317 1493h1080l-56 -256h-772l-71 -338h714l-53 -256h-715l-82 -387h809l-55 -256h-1116zM670 1638l53 250h225l-53 -250h-225zM1051 1638l53 250h225l-53 -250h-225z" />
<glyph unicode="&#x402;" horiz-adv-x="1652" d="M209 1237l55 256h1032l-55 -256h-354l-66 -305h336q428 0 428 -340q0 -66 -16 -152l-94 -440q-16 -80 -41 -134t-71 -105.5t-125 -76t-191 -24.5h-213l45 219h112q94 0 129 30t47 91l99 459q12 70 12 96q0 59 -39 90t-137 31h-334l-143 -676h-308l263 1237h-371z" />
<glyph unicode="&#x403;" horiz-adv-x="1251" d="M70 0l317 1493h1049l-56 -256h-741l-262 -1237h-307zM872 1640l209 308h258l-323 -308h-144z" />
<glyph unicode="&#x404;" horiz-adv-x="1509" d="M135 502q0 270 116 503.5t316.5 373t436.5 139.5q246 0 386 -121t140 -330q0 -57 -8 -106h-299q4 37 4 51q0 119 -71 183.5t-200 64.5q-160 0 -280.5 -112t-181.5 -314h598l-56 -256h-596v-19q0 -162 80 -253t225 -91q166 0 275 109q53 53 102 159h293 q-55 -184 -164 -295q-229 -236 -571 -235q-260 0 -402.5 144.5t-142.5 404.5z" />
<glyph unicode="&#x405;" horiz-adv-x="1366" d="M-78 446h299q-18 -121 54.5 -184t228.5 -63q139 0 231 53t113 147q20 90 -33 139.5t-201 77.5l-200 41q-217 43 -294 135.5t-40 266.5q47 219 220 339t441 120q328 0 447 -170q80 -119 37 -310h-287q16 115 -50.5 174.5t-211.5 59.5q-119 0 -200 -50.5t-97 -134.5 q-18 -82 32 -121.5t207 -72.5l226 -45q199 -41 271.5 -138.5t35.5 -273.5q-47 -227 -236.5 -355t-478.5 -128q-287 0 -419 126.5t-95 366.5z" />
<glyph unicode="&#x406;" horiz-adv-x="569" d="M-111 0l316 1493h307l-315 -1493h-308z" />
<glyph unicode="&#x407;" horiz-adv-x="569" d="M-111 0l316 1493h307l-315 -1493h-308zM86 1640l53 246h226l-54 -246h-225zM467 1640l53 246h225l-53 -246h-225z" />
<glyph unicode="&#x408;" d="M-100 406l30 147h308l-31 -143q-20 -102 8.5 -148.5t116.5 -46.5q168 0 203 174l235 1104h307l-235 -1104q-45 -209 -193.5 -322.5t-378.5 -113.5q-211 0 -317 119q-98 117 -53 334z" />
<glyph unicode="&#x409;" horiz-adv-x="2111" d="M-145 0l61 297q104 -2 179 157.5t143 489.5l114 549h1071l-112 -532h383q170 0 265 -94.5t95 -260.5q0 -262 -166 -434t-430 -172h-659l262 1237h-455l-82 -389q-180 -848 -669 -848zM1161 256h287q139 0 217 83t78 214q0 152 -201 152h-287z" />
<glyph unicode="&#x40a;" horiz-adv-x="2228" d="M-100 0l315 1493h307l-112 -537h589l113 537h309l-112 -532h383q172 0 267 -95.5t95 -263.5q0 -262 -166 -432t-430 -170h-659l149 700h-592l-149 -700h-307zM1159 256h287q139 0 217 83t78 214q0 152 -199 152h-287z" />
<glyph unicode="&#x40b;" horiz-adv-x="1611" d="M209 1237l55 256h1032l-55 -256h-354l-66 -305h295q428 0 428 -340q0 -66 -16 -152l-94 -440h-308l99 459q12 70 12 96q0 59 -39 90t-137 31h-293l-143 -676h-308l263 1237h-371z" />
<glyph unicode="&#x40c;" horiz-adv-x="1474" d="M70 0l317 1493h307l-121 -571l705 571h362l-903 -719l666 -774h-383l-518 584l-125 -584h-307zM975 1640l209 308h258l-324 -308h-143z" />
<glyph unicode="&#x40d;" horiz-adv-x="1478" d="M57 0l318 1493h307l-215 -1016l807 1016h315l-317 -1493h-307l219 1032l-819 -1032h-308zM743 1948h244l92 -308h-129z" />
<glyph unicode="&#x40e;" horiz-adv-x="1429" d="M197 0l331 463l-299 1030h334l203 -707l502 707h356l-1071 -1493h-356zM741 1853q0 35 13 80h86v-16q0 -55 40 -86t111 -31q158 0 211 133h86q-23 -127 -116 -210t-214 -83q-96 0 -156.5 59.5t-60.5 153.5z" />
<glyph unicode="&#x40f;" horiz-adv-x="1478" d="M-70 0l318 1493h307l-262 -1237h594l262 1237h307l-317 -1493h-471l-64 -307h-266l63 307h-471z" />
<glyph unicode="&#x410;" horiz-adv-x="1478" d="M-29 0l848 1493h340l199 -1493h-314l-36 301h-559l-164 -301h-314zM590 557h389l-72 584z" />
<glyph unicode="&#x411;" horiz-adv-x="1478" d="M86 0l317 1493h1049l-55 -256h-742l-71 -338h334q109 0 193.5 -24.5t134.5 -63.5t82 -91t43 -101.5t11 -102.5q0 -248 -225 -407q-152 -109 -399 -109h-672zM449 256h366q123 0 199 67.5t76 178.5q0 141 -193 141h-367z" />
<glyph unicode="&#x412;" horiz-adv-x="1480" d="M86 0l317 1493h666q227 0 330 -109q82 -88 82 -215q0 -129 -75 -232t-202 -144q178 -72 178 -287q0 -117 -63.5 -222.5t-159.5 -174.5q-152 -109 -401 -109h-672zM449 256h366q123 0 199 67.5t76 178.5q0 141 -193 141h-367zM586 899h334q117 0 187.5 58.5t70.5 152.5 q0 127 -187 127h-334z" />
<glyph unicode="&#x413;" horiz-adv-x="1251" d="M70 0l317 1493h1049l-56 -256h-741l-262 -1237h-307z" />
<glyph unicode="&#x414;" horiz-adv-x="1880" d="M-184 -307l110 528h209q82 0 178.5 204t161.5 519l117 549h1069l-270 -1272h235l-110 -528h-267l64 307h-1168l-63 -307h-266zM541 256h551l208 981h-454l-84 -389q-82 -391 -221 -592z" />
<glyph unicode="&#x415;" horiz-adv-x="1363" d="M80 0l317 1493h1080l-56 -256h-772l-71 -338h714l-53 -256h-715l-82 -387h809l-55 -256h-1116z" />
<glyph unicode="&#x416;" horiz-adv-x="2158" d="M-37 0l895 774l-487 719h336l380 -571l121 571h308l-121 -571l622 571h336l-794 -719l567 -774h-367l-436 584l-125 -584h-307l125 584l-686 -584h-367z" />
<glyph unicode="&#x417;" horiz-adv-x="1349" d="M55 348q0 51 8 98h299q-4 -29 -4 -43q0 -98 76 -151t213 -53q156 0 252 68.5t96 189.5q0 174 -235 174h-209l51 246h156q162 0 247 67.5t85 165.5q0 70 -60.5 116t-163.5 46q-297 0 -362 -234h-287q41 195 170 310q188 170 518 170q231 0 355 -90.5t124 -258.5 q0 -127 -56 -233.5t-146 -163.5q123 -76 123 -223q0 -307 -200 -451.5t-527 -144.5q-254 0 -388.5 102.5t-134.5 292.5z" />
<glyph unicode="&#x418;" horiz-adv-x="1478" d="M57 0l318 1493h307l-215 -1016l807 1016h315l-317 -1493h-307l219 1032l-819 -1032h-308z" />
<glyph unicode="&#x419;" horiz-adv-x="1478" d="M57 0l318 1493h307l-215 -1016l807 1016h315l-317 -1493h-307l219 1032l-819 -1032h-308zM797 1853q0 35 12 80h86v-16q0 -55 40 -86t112 -31q158 0 210 133h86q-23 -127 -115.5 -210t-213.5 -83q-96 0 -156.5 59.5t-60.5 153.5z" />
<glyph unicode="&#x41a;" horiz-adv-x="1474" d="M70 0l317 1493h307l-121 -571l705 571h362l-903 -719l666 -774h-383l-518 584l-125 -584h-307z" />
<glyph unicode="&#x41b;" horiz-adv-x="1478" d="M-145 0l61 297q104 -2 179 157.5t143 489.5l114 549h1069l-315 -1493h-307l262 1237h-455l-82 -389q-180 -848 -669 -848z" />
<glyph unicode="&#x41c;" horiz-adv-x="1726" d="M57 0l318 1493h459l18 -1188l514 1188h463l-318 -1493h-307l248 1163l-512 -1163h-307l-21 1163l-247 -1163h-308z" />
<glyph unicode="&#x41d;" horiz-adv-x="1478" d="M57 0l318 1493h307l-127 -600h590l127 600h309l-317 -1493h-308l136 637h-592l-135 -637h-308z" />
<glyph unicode="&#x41e;" horiz-adv-x="1593" d="M135 535q0 469 352 776q238 207 553 207q319 0 467 -207q109 -152 109 -379q0 -465 -352 -772q-238 -207 -555 -207q-319 0 -465 207q-109 150 -109 375zM446 573q0 -168 84 -263t236 -95q213 0 376 205t163 477q0 168 -83 263t-235 95q-217 0 -379 -205t-162 -477z" />
<glyph unicode="&#x41f;" horiz-adv-x="1478" d="M57 0l318 1493h1206l-317 -1493h-308l263 1237h-592l-262 -1237h-308z" />
<glyph unicode="&#x420;" horiz-adv-x="1329" d="M57 0l318 1493h659q195 0 296.5 -84t101.5 -246q0 -256 -170 -443.5t-402 -187.5h-383l-112 -532h-308zM530 788h287q139 0 218 83t79 212q0 154 -201 154h-286z" />
<glyph unicode="&#x421;" horiz-adv-x="1714" d="M135 498q0 428 255 724t622 296q342 0 473 -236q45 -84 45 -186q0 -31 -8 -109h-293q-2 104 -33 160q-66 109 -229 108q-219 0 -371 -210.5t-152 -503.5q0 -158 75 -244t214 -86q143 0 246.5 78t148.5 221h299q-70 -256 -273.5 -406.5t-481.5 -150.5q-256 0 -396.5 144.5 t-140.5 400.5z" />
<glyph unicode="&#x422;" horiz-adv-x="1251" d="M209 1237l55 256h1196l-55 -256h-436l-262 -1237h-308l263 1237h-453z" />
<glyph unicode="&#x423;" horiz-adv-x="1429" d="M197 0l331 463l-299 1030h334l203 -707l502 707h356l-1071 -1493h-356z" />
<glyph unicode="&#x424;" horiz-adv-x="1847" d="M-35 598q0 709 832 709l41 186h307l-41 -186q84 0 140 -3.5t135 -14.5t130.5 -36.5t100.5 -66.5t72.5 -108.5t23.5 -157.5q0 -203 -68.5 -349.5t-190.5 -226.5t-264.5 -115.5t-314.5 -35.5l-41 -193h-307l41 193q-74 0 -124 2t-117.5 11t-113.5 24.5t-95.5 45t-78 72.5 t-48 106.5t-19.5 143.5zM240 625q0 -45 7 -81t25.5 -60.5t34 -42t50 -29l52 -17.5t63.5 -8t63 -2h67l152 721q-514 0 -514 -481zM909 385q246 0 380 109.5t134 369.5q0 57 -14 100.5t-46 69t-60.5 41t-78.5 22.5t-80 8t-83 1z" />
<glyph unicode="&#x425;" horiz-adv-x="1359" d="M-37 0l592 758l-283 735h365l156 -451l368 451h342l-602 -741l291 -752h-344l-172 457l-357 -457h-356z" />
<glyph unicode="&#x426;" horiz-adv-x="1495" d="M57 0l318 1493h307l-262 -1237h592l262 1237h307l-270 -1272h286l-112 -528h-266l65 307h-1227z" />
<glyph unicode="&#x427;" horiz-adv-x="1374" d="M248 901q0 66 16 152l94 440h308l-99 -459q-12 -70 -12 -96q0 -59 39 -90t137 -31h293l143 676h310l-318 -1493h-307l119 561h-295q-428 0 -428 340z" />
<glyph unicode="&#x428;" horiz-adv-x="2254" d="M57 0l318 1493h307l-262 -1237h530l262 1237h308l-263 -1237h531l262 1237h307l-317 -1493h-1983z" />
<glyph unicode="&#x429;" horiz-adv-x="2414" d="M57 0l318 1493h307l-262 -1237h530l262 1237h308l-263 -1237h531l262 1237h307l-270 -1272h287l-113 -528h-266l65 307h-2003z" />
<glyph unicode="&#x42a;" horiz-adv-x="1671" d="M209 1237l53 256h778l-112 -532h383q170 0 265 -94.5t95 -260.5q0 -262 -166 -434t-430 -172h-659l264 1237h-471zM778 256h287q139 0 217 83t78 214q0 152 -201 152h-287z" />
<glyph unicode="&#x42b;" horiz-adv-x="1923" d="M53 0l318 1493h307l-113 -532h383q170 0 265.5 -94.5t95.5 -260.5q0 -262 -166 -434t-430 -172h-660zM416 256h286q139 0 217 83t78 214q0 152 -200 152h-287zM1417 0l318 1493h307l-318 -1493h-307z" />
<glyph unicode="&#x42c;" horiz-adv-x="1308" d="M53 0l318 1493h307l-113 -532h383q170 0 265.5 -94.5t95.5 -260.5q0 -262 -166 -434t-430 -172h-660zM416 256h286q139 0 217 83t78 214q0 152 -200 152h-287z" />
<glyph unicode="&#x42d;" horiz-adv-x="1509" d="M135 403q0 57 8 107h299q-4 -37 -4 -51q0 -119 71 -183.5t200 -64.5q160 0 280.5 111.5t181.5 314.5h-598l56 256h596v18q0 162 -80 253t-225 91q-166 0 -275 -108q-53 -53 -102 -160h-293q55 184 164 295q229 236 571 236q260 0 402.5 -144.5t142.5 -404.5 q0 -270 -116 -504t-316.5 -373t-435.5 -139q-246 0 -386.5 120.5t-140.5 329.5z" />
<glyph unicode="&#x42e;" horiz-adv-x="2226" d="M53 0l318 1493h307l-127 -600h285q96 252 286 418q236 207 551 207q319 0 469 -207q106 -150 107 -375q0 -471 -353 -776q-233 -207 -553 -207q-317 0 -466 207q-106 147 -107 368q0 53 6 109h-278l-138 -637h-307zM1079 573q0 -168 84 -263t236 -95q219 0 379.5 205 t160.5 479q0 168 -83.5 262t-235.5 94q-217 0 -379 -205t-162 -477z" />
<glyph unicode="&#x42f;" horiz-adv-x="1413" d="M-37 0l617 535q-143 14 -223.5 105t-80.5 251q0 260 166 431t430 171h660l-318 -1493h-307l113 532h-68l-622 -532h-367zM588 940q0 -152 200 -152h287l94 449h-286q-139 0 -217 -83t-78 -214z" />
<glyph unicode="&#x430;" horiz-adv-x="1134" d="M23 199q0 176 107.5 287.5t301.5 146.5l119 20q147 25 203.5 55.5t56.5 100.5q0 84 -145 84q-106 0 -156.5 -33t-79.5 -119h-276q106 383 555 383q389 0 389 -252q0 -37 -11 -88l-131 -614q-4 -33 -4 -41q0 -47 41 -94l-6 -35h-311q-18 31 -19 55q0 10 9 56 q-186 -158 -369 -158q-117 0 -195.5 63.5t-78.5 182.5zM322 285q0 -47 34.5 -74t96.5 -27q104 0 180 69t102 191l17 78q-43 -20 -129 -35l-101 -18q-200 -41 -200 -184z" />
<glyph unicode="&#x431;" horiz-adv-x="1251" d="M74 360q0 164 56 366t175 396.5t270 278.5q68 37 192 56.5t216 25.5q43 6 76 32.5t43 49.5l10 24l213 2q-12 -57 -21.5 -87.5t-34 -74t-61.5 -65.5q-96 -61 -266 -73.5t-268 -78.5q-49 -33 -100.5 -95t-77.5 -109l-27 -45q135 162 338 161q100 0 184 -48t125 -130 q49 -102 49 -246q0 -311 -194.5 -529t-478.5 -218q-418 -1 -418 407zM365 422q0 -106 48 -167.5t134 -61.5q129 0 228 142t99 318q0 106 -48 169t-132 63q-129 0 -229 -141.5t-100 -321.5z" />
<glyph unicode="&#x432;" horiz-adv-x="1261" d="M41 0l235 1106h570q147 0 226 -61.5t79 -178.5q0 -215 -184 -280q131 -63 131 -213q0 -160 -132 -266.5t-329 -106.5h-596zM375 225h250q193 0 192 150q0 82 -143 82h-250zM473 682h217q90 0 133 28.5t43 94.5q0 76 -135 76h-217z" />
<glyph unicode="&#x433;" horiz-adv-x="972" d="M41 0l235 1106h713l-49 -232h-426l-186 -874h-287z" />
<glyph unicode="&#x434;" horiz-adv-x="1646" d="M-127 -256l98 463h197q74 2 147.5 150.5t100.5 273.5l102 475h899l-192 -899h188l-98 -463h-225l55 256h-991l-56 -256h-225zM539 231h405l137 643h-325l-58 -268q-59 -264 -159 -375z" />
<glyph unicode="&#x435;" horiz-adv-x="1130" d="M49 352q0 311 193.5 541.5t466.5 230.5q188 0 299.5 -103t111.5 -296q0 -98 -24 -213q-2 -23 -13 -49h-741q-12 -80 -12 -123q0 -82 50 -125t130 -43q162 0 250 139h282q-84 -164 -243.5 -261t-345.5 -97q-193 0 -298.5 104.5t-105.5 294.5zM387 653h440q4 45 4 62 q0 190 -174 190q-186 0 -270 -252z" />
<glyph unicode="&#x436;" horiz-adv-x="1587" d="M-49 0l565 606l-256 500h303l189 -387l82 387h286l-82 -387l353 387h303l-469 -500l307 -606h-367l-194 406l-86 -406h-287l86 406l-367 -406h-366z" />
<glyph unicode="&#x437;" d="M33 244q0 39 8 78h281v-17q0 -55 31.5 -85t68.5 -36t94 -6q242 0 242 156q0 92 -146 92h-188l49 225h182q166 0 166 150q0 41 -41 69.5t-106 28.5q-195 0 -228 -149h-276q41 176 185.5 275t365.5 99q182 0 283.5 -75.5t101.5 -210.5q0 -94 -35 -169t-96 -114 q80 -59 80 -154q0 -199 -164 -323.5t-408 -124.5q-221 0 -335.5 75t-114.5 216z" />
<glyph unicode="&#x438;" horiz-adv-x="1302" d="M41 0l235 1106h287l-149 -703l534 703h318l-236 -1106h-287l150 702l-535 -702h-317z" />
<glyph unicode="&#x439;" horiz-adv-x="1302" d="M41 0l235 1106h287l-149 -703l534 703h318l-236 -1106h-287l150 702l-535 -702h-317zM582 1464q0 35 12 80h86v-16q0 -55 40 -86t111 -31q158 0 211 133h86q-23 -127 -115.5 -210t-213.5 -83q-96 0 -156.5 59.5t-60.5 153.5z" />
<glyph unicode="&#x43a;" horiz-adv-x="1083" d="M39 0l235 1106h287l-82 -387l414 387h303l-545 -500l389 -606h-372l-256 406l-86 -406h-287z" />
<glyph unicode="&#x43b;" horiz-adv-x="1245" d="M-139 0l57 276q43 0 79 23t57.5 51.5t41 83.5t28.5 92t23 105l101 475h899l-234 -1106h-286l184 874h-326l-55 -268q-55 -268 -200.5 -437t-368.5 -169z" />
<glyph unicode="&#x43c;" horiz-adv-x="1427" d="M41 0l235 1106h287l150 -569l391 569h287l-236 -1106h-287l113 526l-279 -374h-143l-119 374l-112 -526h-287z" />
<glyph unicode="&#x43d;" horiz-adv-x="1302" d="M41 0l235 1106h287l-82 -385h416l82 385h287l-236 -1106h-287l109 485h-416l-108 -485h-287z" />
<glyph unicode="&#x43e;" horiz-adv-x="1251" d="M86 371q0 313 200.5 533t487.5 220q215 0 330 -108.5t115 -308.5q0 -315 -200 -534.5t-491 -219.5q-213 0 -327.5 109.5t-114.5 308.5zM379 424q0 -111 53 -175.5t146 -64.5q137 0 241.5 142.5t104.5 326.5q0 113 -51.5 176.5t-145.5 63.5q-137 0 -242.5 -142.5 t-105.5 -326.5z" />
<glyph unicode="&#x43f;" horiz-adv-x="1302" d="M41 0l235 1106h990l-236 -1106h-287l187 874h-416l-186 -874h-287z" />
<glyph unicode="&#x440;" horiz-adv-x="1251" d="M-131 -446l332 1552h286l-34 -164q139 182 346 182q100 0 183 -48t122 -126q51 -102 51 -243q0 -301 -186.5 -528.5t-419.5 -227.5q-205 0 -270 180l-123 -577h-287zM352 420q0 -106 48.5 -168t134.5 -62q127 0 227 142.5t100 322.5q0 106 -47 168t-133 62 q-129 0 -229.5 -143.5t-100.5 -321.5z" />
<glyph unicode="&#x441;" horiz-adv-x="1134" d="M76 354q0 315 193.5 542.5t475.5 227.5q186 0 289 -93t103 -259q0 -37 -7 -80h-274q-2 109 -38 155t-124 46q-127 0 -198 -94q-53 -70 -90 -178.5t-37 -217.5q0 -219 176 -219q82 0 138 45t108 154h274q-61 -199 -216 -314.5t-355.5 -115.5t-309 106.5t-108.5 294.5z" />
<glyph unicode="&#x442;" horiz-adv-x="929" d="M125 874l49 232h840l-49 -232h-277l-186 -874h-287l186 874h-276z" />
<glyph unicode="&#x443;" horiz-adv-x="1130" d="M-6 -440l45 215q41 -12 74 -13q76 0 148.5 55.5t72.5 123.5l-2 14l-168 1151h313l92 -764l387 764h271l-684 -1313q-51 -90 -105.5 -134t-130.5 -73q-90 -35 -213 -35q-45 1 -100 9z" />
<glyph unicode="&#x444;" horiz-adv-x="2025" d="M66 371q0 193 79.5 365.5t221 280t305.5 107.5q205 0 268 -182l113 531h286l-112 -531q143 182 346 182q100 0 184 -48t123 -126q49 -94 49 -241q0 -303 -186.5 -530.5t-419.5 -227.5q-205 0 -268 180l-123 -577h-287l123 577q-141 -180 -346 -180q-162 0 -259 120 t-97 300zM358 420q0 -104 48.5 -167t132.5 -63q129 0 228 140.5t99 322.5q0 106 -47 169t-133 63q-129 0 -228.5 -142.5t-99.5 -322.5zM1128 420q0 -106 47.5 -168t133.5 -62q129 0 228 139.5t99 321.5q0 109 -47 171.5t-133 62.5q-129 0 -228.5 -142.5t-99.5 -322.5z" />
<glyph unicode="&#x445;" horiz-adv-x="1134" d="M-49 0l479 553l-235 553h329l123 -297l242 297h342l-475 -559l227 -547h-332l-114 303l-242 -303h-344z" />
<glyph unicode="&#x446;" horiz-adv-x="1355" d="M41 0l235 1106h287l-186 -875h416l186 875h287l-193 -899h246l-98 -463h-226l56 256h-1010z" />
<glyph unicode="&#x447;" horiz-adv-x="1241" d="M178 633q0 59 15 123l73 350h287l-78 -363q-10 -47 -10 -75q0 -49 32.5 -74t114.5 -25h191l115 537h286l-235 -1106h-287l72 338h-174q-402 0 -402 295z" />
<glyph unicode="&#x448;" horiz-adv-x="1912" d="M41 0l235 1106h287l-186 -875h366l187 875h287l-187 -875h373l186 875h287l-236 -1106h-1599z" />
<glyph unicode="&#x449;" horiz-adv-x="1966" d="M41 0l233 1106h287l-184 -875h366l185 875h286l-184 -875h373l184 875h287l-191 -899h246l-98 -463h-225l55 256h-1620z" />
<glyph unicode="&#x44a;" horiz-adv-x="1380" d="M123 874l49 232h637l-90 -424h207q393 0 393 -268q0 -186 -125 -300t-340 -114h-565l184 874h-350zM623 225h231q180 0 180 146q0 86 -162 86h-200z" />
<glyph unicode="&#x44b;" horiz-adv-x="1667" d="M41 0l235 1106h287l-90 -424h186q389 0 390 -281q0 -184 -126 -292.5t-337 -108.5h-545zM377 225h198q92 0 141.5 43t49.5 117q0 43 -33 57.5t-108 14.5h-199zM1108 0l235 1106h287l-235 -1106h-287z" />
<glyph unicode="&#x44c;" horiz-adv-x="1140" d="M41 0l235 1106h287l-90 -424h217q389 0 389 -281q0 -182 -128 -291.5t-335 -109.5h-575zM375 225h229q193 0 193 152q0 45 -35 62.5t-109 17.5h-229z" />
<glyph unicode="&#x44d;" horiz-adv-x="1177" d="M86 317q0 20 4 66h275q4 -106 40.5 -152.5t120.5 -46.5q90 0 163 62.5t116 177.5h-361l50 231h356q4 88 -14 144q-31 94 -158 94q-88 0 -144.5 -46t-103.5 -155h-274q57 203 209.5 317.5t359.5 114.5q203 0 309.5 -104.5t106.5 -300.5q0 -319 -185.5 -542.5 t-476.5 -223.5q-184 0 -288.5 96t-104.5 268z" />
<glyph unicode="&#x44e;" horiz-adv-x="1818" d="M41 0l235 1106h287l-96 -451h238q78 221 244.5 345t391.5 124q215 0 329 -107.5t114 -305.5q0 -315 -200 -536.5t-490 -221.5q-213 0 -327 109.5t-114 308.5q0 35 2 53h-237l-90 -424h-287zM946 424q0 -111 52.5 -175.5t144.5 -64.5q137 0 242.5 144.5t105.5 328.5 q0 111 -52.5 173.5t-144.5 62.5q-137 0 -242.5 -142.5t-105.5 -326.5z" />
<glyph unicode="&#x44f;" horiz-adv-x="1302" d="M-6 0l414 446q-98 29 -150.5 96.5t-52.5 162.5q0 180 127 290.5t338 110.5h596l-236 -1106h-287l91 424h-91l-383 -424h-366zM489 741q0 -92 144 -92h250l49 232h-250q-193 -1 -193 -140z" />
<glyph unicode="&#x450;" horiz-adv-x="1130" d="M49 352q0 311 193.5 541.5t466.5 230.5q188 0 299.5 -103t111.5 -296q0 -98 -24 -213q-2 -23 -13 -49h-741q-12 -80 -12 -123q0 -82 50 -125t130 -43q162 0 250 139h282q-84 -164 -243.5 -261t-345.5 -97q-193 0 -298.5 104.5t-105.5 294.5zM387 653h440q4 45 4 62 q0 190 -174 190q-186 0 -270 -252zM463 1554h244l92 -307h-129z" />
<glyph unicode="&#x451;" horiz-adv-x="1130" d="M49 352q0 311 193.5 541.5t466.5 230.5q188 0 299.5 -103t111.5 -296q0 -98 -24 -213q-2 -23 -13 -49h-741q-12 -80 -12 -123q0 -82 50 -125t130 -43q162 0 250 139h282q-84 -164 -243.5 -261t-345.5 -97q-193 0 -298.5 104.5t-105.5 294.5zM387 653h440q4 45 4 62 q0 190 -174 190q-186 0 -270 -252zM432 1247l53 246h226l-54 -246h-225zM813 1247l53 246h226l-54 -246h-225z" />
<glyph unicode="&#x452;" horiz-adv-x="1251" d="M55 0l254 1192h-133l35 164h133l29 137h286l-28 -137h297l-35 -164h-297l-64 -295q158 186 369 186q133 0 215 -74.5t82 -195.5q0 -55 -12 -113l-150 -700q-57 -270 -297 -270h-166l25 118q68 0 100.5 38t49.5 118l131 596q12 66 12 98q0 156 -150 156 q-98 0 -172.5 -73.5t-101.5 -198.5l-125 -582h-287z" />
<glyph unicode="&#x453;" horiz-adv-x="972" d="M41 0l235 1106h713l-49 -232h-426l-186 -874h-287zM592 1247l209 307h258l-324 -307h-143z" />
<glyph unicode="&#x454;" horiz-adv-x="1177" d="M86 358q0 319 185.5 542.5t476.5 223.5q184 0 288.5 -96t104.5 -268q0 -20 -4 -66h-275q-4 106 -41 152.5t-121 46.5q-90 0 -162.5 -62.5t-115.5 -177.5h360l-49 -231h-356q-4 -88 14 -143q31 -94 158 -95q88 0 144.5 46t103.5 155h274q-57 -203 -209.5 -317.5 t-359.5 -114.5q-203 0 -309.5 104t-106.5 301z" />
<glyph unicode="&#x455;" d="M-70 322h281q0 -76 35 -105q49 -39 162 -39q100 0 162.5 29t72.5 80q8 33 -9.5 53t-68.5 37l-319 106q-121 43 -160 92q-47 68 -23 181q35 170 178.5 269t354.5 99q223 0 329.5 -99t71.5 -275h-276q14 76 -30 112.5t-146 36.5q-76 0 -126 -27.5t-61 -74.5 q-8 -33 8.5 -50.5t73.5 -35.5l340 -105q203 -63 158 -278q-35 -170 -190 -277q-141 -98 -373 -98q-252 0 -365 93.5t-80 275.5z" />
<glyph unicode="&#x456;" horiz-adv-x="569" d="M55 0l236 1106h287l-236 -1106h-287zM317 1237l56 256h286l-55 -256h-287z" />
<glyph unicode="&#x457;" horiz-adv-x="569" d="M55 0l236 1106h287l-236 -1106h-287zM137 1241l49 236h258l-49 -236h-258zM537 1241l49 236h258l-49 -236h-258z" />
<glyph unicode="&#x458;" horiz-adv-x="569" d="M-170 -436l49 227q10 -8 51 -8q47 0 71 20.5t34 69.5l262 1233h287l-277 -1299q-29 -133 -120 -193t-265 -60q-57 0 -92 10zM324 1237l55 256h287l-56 -256h-286z" />
<glyph unicode="&#x459;" horiz-adv-x="1761" d="M-139 0l57 276q43 0 79 23t57.5 51.5t41 83.5t28.5 92t23 105l101 475h901l-90 -424h237q389 0 390 -281q0 -182 -128 -291.5t-335 -109.5h-596l184 874h-326l-55 -268q-55 -268 -200.5 -437t-368.5 -169zM961 225h249q193 0 193 152q0 45 -35 62.5t-108 17.5h-250z" />
<glyph unicode="&#x45a;" horiz-adv-x="1685" d="M-70 0l234 1106h287l-91 -428h416l90 428h289l-90 -424h184q389 0 389 -281q0 -182 -128 -291.5t-334 -109.5h-543l96 457h-416l-96 -457h-287zM967 225h196q193 0 193 152q0 45 -35 62.5t-109 17.5h-196z" />
<glyph unicode="&#x45b;" horiz-adv-x="1251" d="M55 0l254 1192h-133l35 164h133l29 137h286l-28 -137h297l-35 -164h-297l-64 -295q158 186 369 186q133 0 215 -74.5t82 -195.5q0 -55 -12 -113l-150 -700h-286l129 600q12 66 12 98q0 156 -150 156q-98 0 -172.5 -73.5t-101.5 -198.5l-125 -582h-287z" />
<glyph unicode="&#x45c;" horiz-adv-x="1083" d="M39 0l235 1106h287l-82 -387l414 387h303l-545 -500l389 -606h-372l-256 406l-86 -406h-287zM694 1247l209 307h258l-323 -307h-144z" />
<glyph unicode="&#x45d;" horiz-adv-x="1302" d="M41 0l235 1106h287l-149 -703l534 703h318l-236 -1106h-287l150 702l-535 -702h-317zM530 1554h244l92 -307h-129z" />
<glyph unicode="&#x45e;" horiz-adv-x="1130" d="M-6 -440l45 215q41 -12 74 -13q76 0 148.5 55.5t72.5 123.5l-2 14l-168 1151h313l92 -764l387 764h271l-684 -1313q-51 -90 -105.5 -134t-130.5 -73q-90 -35 -213 -35q-45 1 -100 9zM518 1460q0 35 12 80h86v-16q0 -55 40 -86t112 -31q158 0 211 133h86 q-23 -127 -116 -210t-214 -83q-96 0 -156.5 59.5t-60.5 153.5z" />
<glyph unicode="&#x45f;" horiz-adv-x="1245" d="M-49 0l235 1106h287l-186 -875h418l186 875h287l-236 -1106h-383l-55 -256h-225l55 256h-383z" />
<glyph unicode="&#x48c;" horiz-adv-x="1308" d="M53 0l240 1128h-154l35 164h154l43 201h307l-43 -201h153l-34 -164h-154l-35 -167h383q170 0 265.5 -94.5t95.5 -260.5q0 -262 -166 -434t-430 -172h-660zM416 256h286q139 0 217 83t78 214q0 152 -200 152h-287z" />
<glyph unicode="&#x48d;" horiz-adv-x="1267" d="M41 0l174 815h-149l30 164h154l26 127h287l-26 -127h170l-31 -164h-174l-29 -133h186q389 0 390 -281q0 -182 -128 -291.5t-335 -109.5h-545zM375 225h198q94 0 143.5 42t49.5 118q0 43 -33 57.5t-110 14.5h-199z" />
<glyph unicode="&#x48e;" horiz-adv-x="1329" d="M57 0l318 1493h659q233 0 331.5 -119t51.5 -344q-43 -199 -162 -323l127 -127l-141 -91l-113 113q-123 -70 -268 -70h-383l-112 -532h-308zM530 788h287q66 0 111 15l-121 121l141 90l115 -115q27 45 43 113q25 115 -22.5 170t-170.5 55h-286z" />
<glyph unicode="&#x48f;" horiz-adv-x="1251" d="M-131 -446l332 1552h286l-34 -164q139 182 346 182q100 0 183 -48t122 -126q86 -164 33 -413q-37 -170 -133 -314l149 -149l-141 -90l-115 114q-164 -147 -348 -147q-205 0 -270 180l-123 -577h-287zM367 537q-33 -154 13 -250.5t155 -96.5q102 0 184 86l-141 142l141 90 l92 -92q29 72 37 116q35 158 -11 255.5t-155 97.5t-195.5 -96t-119.5 -252z" />
<glyph unicode="&#x490;" horiz-adv-x="1251" d="M-119 0l318 1493l741 -2l59 278h308l-113 -532h-741l-265 -1237h-307z" />
<glyph unicode="&#x491;" horiz-adv-x="929" d="M-96 0l235 1106h451l55 258h262l-104 -490h-426l-187 -874h-286z" />
<glyph unicode="&#x492;" horiz-adv-x="1251" d="M70 0l170 797h-158l35 164h157l113 532h1049l-56 -256h-741l-59 -276h151l-35 -164h-151l-168 -797h-307z" />
<glyph unicode="&#x493;" horiz-adv-x="972" d="M-12 541l35 164h167l86 401h713l-49 -232h-426l-37 -169h160l-35 -164h-160l-114 -541h-287l115 541h-168z" />
<glyph unicode="&#x494;" horiz-adv-x="1251" d="M70 0l317 1493h1049l-56 -256h-741l-66 -305h295q428 0 428 -340q0 -66 -16 -152l-94 -440q-16 -80 -41 -134t-71 -105.5t-125 -76t-191 -24.5h-213l45 219h112q94 0 129 30t48 91l98 459q12 70 12 96q0 59 -39 90t-137 31h-293l-143 -676h-307z" />
<glyph unicode="&#x495;" horiz-adv-x="972" d="M41 0l235 1106h713l-49 -232h-426l-51 -262h221q133 0 215 -74.5t82 -195.5q0 -55 -12 -113l-49 -229q-57 -270 -297 -270h-166l37 180q70 0 99.5 29.5t45.5 105.5l37 148q10 53 10 69q0 121 -125 121h-151l-82 -383h-287z" />
<glyph unicode="&#x496;" horiz-adv-x="2158" d="M-37 0l895 774l-487 719h336l380 -571l121 571h308l-121 -571l622 571h336l-794 -719l405 -553h209l-113 -528h-266l66 307h-101l-436 584l-125 -584h-307l125 584l-686 -584h-367z" />
<glyph unicode="&#x497;" horiz-adv-x="1587" d="M-49 0l565 606l-256 500h303l189 -387l82 387h286l-82 -387l353 387h303l-469 -500l202 -399h148l-98 -463h-226l56 256h-142l-194 406l-86 -406h-287l86 406l-367 -406h-366z" />
<glyph unicode="&#x498;" horiz-adv-x="1349" d="M55 348q0 51 8 98h299q-4 -29 -4 -43q0 -98 76 -151t213 -53q156 0 252 68.5t96 189.5q0 174 -235 174h-209l51 246h156q162 0 247 67.5t85 165.5q0 70 -60.5 116t-163.5 46q-297 0 -362 -234h-287q41 195 170 310q188 170 518 170q231 0 355 -90.5t124 -258.5 q0 -127 -56 -233.5t-146 -163.5q123 -76 123 -223q0 -289 -177.5 -433.5t-472.5 -160.5q23 -10 72 -43q137 -94 137 -234q0 -72 -73.5 -113.5t-200.5 -41.5q-59 0 -158 18l-20 107q63 -23 145 -23q102 0 102 82q0 70 -69 158q-23 29 -43.5 45t-69.5 47q-207 20 -314.5 120.5 t-107.5 270.5z" />
<glyph unicode="&#x499;" d="M33 244q0 39 8 78h281v-17q0 -55 31.5 -85t68.5 -36t94 -6q242 0 242 156q0 92 -146 92h-188l49 225h182q166 0 166 150q0 41 -41 69.5t-106 28.5q-195 0 -228 -149h-276q41 176 185.5 275t365.5 99q182 0 283.5 -75.5t101.5 -210.5q0 -94 -35 -169t-96 -114 q80 -59 80 -154q0 -182 -138.5 -303t-351.5 -141q49 -27 74 -45q137 -94 137 -234q0 -72 -73.5 -113.5t-200.5 -41.5q-59 0 -158 18l-20 107q63 -23 145 -23q102 0 102 82q0 70 -69 158q-23 29 -43.5 45t-69.5 47q-356 31 -356 287z" />
<glyph unicode="&#x49a;" horiz-adv-x="1474" d="M70 0l317 1493h307l-121 -571l705 571h362l-903 -719l463 -553h225l-112 -528h-266l65 307h-100l-510 584l-125 -584h-307z" />
<glyph unicode="&#x49b;" horiz-adv-x="1083" d="M39 0l235 1106h287l-82 -387l414 387h303l-545 -500l256 -399h176l-98 -463h-225l55 256h-147l-256 406l-86 -406h-287z" />
<glyph unicode="&#x49c;" horiz-adv-x="1474" d="M70 0l317 1493h307l-121 -571l78 63l70 326h225l-22 -105l354 287h362l-788 -629l-39 -178l590 -686h-383l-285 322l-24 -117h-226l68 319l-51 60l-125 -584h-307z" />
<glyph unicode="&#x49d;" horiz-adv-x="1083" d="M39 0l235 1106h287l-82 -387l68 63l57 265h184l-10 -50l115 109h303l-491 -451l-21 -100l356 -555h-372l-76 121l-10 -43h-185l56 262l-41 66l-86 -406h-287z" />
<glyph unicode="&#x49e;" horiz-adv-x="1474" d="M70 0l254 1192h-150l35 164h149l29 137h307l-28 -137h157l-35 -164h-157l-58 -270l705 571h362l-903 -719l666 -774h-383l-518 584l-125 -584h-307z" />
<glyph unicode="&#x49f;" horiz-adv-x="1083" d="M39 0l184 864h-102l35 164h102l16 78h287l-16 -78h84l-35 -164h-84l-31 -145l414 387h303l-545 -500l389 -606h-372l-256 406l-86 -406h-287z" />
<glyph unicode="&#x4a0;" horiz-adv-x="1820" d="M209 1237l53 256h778l-120 -571l704 571h363l-904 -719l666 -774h-383l-518 584l-125 -584h-307l262 1237h-469z" />
<glyph unicode="&#x4a1;" horiz-adv-x="1331" d="M123 874l49 232h637l-82 -387l414 387h303l-545 -500l389 -606h-373l-256 406l-86 -406h-284l184 874h-350z" />
<glyph unicode="&#x4a2;" horiz-adv-x="1478" d="M57 0l318 1493h307l-127 -600h590l127 600h309l-272 -1272h268l-113 -528h-266l66 307h-308l136 637h-592l-135 -637h-308z" />
<glyph unicode="&#x4a3;" horiz-adv-x="1302" d="M41 0l235 1106h287l-82 -385h416l82 385h287l-193 -899h225l-98 -463h-225l55 256h-287l109 485h-416l-108 -485h-287z" />
<glyph unicode="&#x4a4;" horiz-adv-x="2031" d="M57 0l318 1493h307l-127 -600h590l125 600h946l-55 -256h-639l-262 -1237h-304l136 637h-592l-135 -637h-308z" />
<glyph unicode="&#x4a5;" horiz-adv-x="1652" d="M41 0l235 1106h287l-82 -385h416l80 385h692l-49 -232h-406l-186 -874h-285l109 485h-416l-108 -485h-287z" />
<glyph unicode="&#x4a6;" horiz-adv-x="2185" d="M57 0l318 1493h1206l-119 -561h295q428 0 428 -340q0 -66 -16 -152l-94 -440q-16 -80 -41 -134t-71 -105.5t-125 -76t-191 -24.5h-213l45 219h112q94 0 129 30t47 91l99 459q12 70 12 96q0 59 -39 90t-137 31h-293l-143 -676h-310l263 1237h-592l-262 -1237h-308z" />
<glyph unicode="&#x4a7;" horiz-adv-x="1794" d="M41 0l235 1106h990l-101 -494h221q133 0 215 -74.5t82 -195.5q0 -55 -12 -113l-49 -229q-57 -270 -297 -270h-166l37 180q70 0 99.5 29.5t45.5 105.5l37 148q10 53 11 69q0 121 -125 121h-152l-82 -383h-287l187 874h-416l-186 -874h-287z" />
<glyph unicode="&#x4a8;" horiz-adv-x="1714" d="M135 498q0 428 255 724t622 296q342 0 473 -236q45 -84 45 -186q0 -31 -8 -109h-293q-2 104 -33 160q-66 109 -229 108q-219 0 -371 -210.5t-152 -503.5q0 -158 75 -244t214 -86q143 0 246.5 78t148.5 221h299q-70 -256 -273.5 -406.5t-481.5 -150.5q-256 0 -396.5 144.5 t-140.5 400.5z" />
<glyph unicode="&#x4a9;" horiz-adv-x="1134" d="M76 354q0 315 193.5 542.5t475.5 227.5q186 0 289 -93t103 -259q0 -37 -7 -80h-274q-2 109 -38 155t-124 46q-127 0 -198 -94q-53 -70 -90 -178.5t-37 -217.5q0 -219 176 -219q82 0 138 45t108 154h274q-61 -199 -216 -314.5t-355.5 -115.5t-309 106.5t-108.5 294.5z" />
<glyph unicode="&#x4aa;" horiz-adv-x="1714" d="M135 498q0 428 255 724t622 296q342 0 473 -236q45 -84 45 -186q0 -31 -8 -109h-293q-2 104 -33 160q-66 109 -229 108q-219 0 -371 -210.5t-152 -503.5q0 -158 75 -244t214 -86q143 0 246.5 78t148.5 221h299q-63 -236 -243 -383t-428 -170q49 -27 73 -45 q137 -94 138 -234q0 -72 -74 -113.5t-201 -41.5q-59 0 -157 18l-21 107q63 -23 145 -23q102 0 103 82q0 70 -70 158q-23 29 -43 45t-71 49q-211 27 -327 167.5t-116 371.5z" />
<glyph unicode="&#x4ab;" horiz-adv-x="1134" d="M76 354q0 315 193.5 542.5t475.5 227.5q186 0 289 -93t103 -259q0 -37 -7 -80h-274q-2 109 -38 155t-124 46q-127 0 -198 -94q-53 -70 -90 -178.5t-37 -217.5q0 -219 176 -219q82 0 138 45t108 154h274q-55 -176 -185 -288.5t-302 -135.5q35 -18 77 -47q137 -94 138 -234 q0 -72 -74 -113.5t-201 -41.5q-59 0 -158 18l-20 107q63 -23 145 -23q102 0 103 82q0 70 -70 158q-23 29 -43 45t-74 49q-158 25 -241.5 128t-83.5 267z" />
<glyph unicode="&#x4ac;" horiz-adv-x="1251" d="M209 1237l55 256h1196l-55 -256h-436l-217 -1016h268l-113 -528h-266l66 307h-308l263 1237h-453z" />
<glyph unicode="&#x4ad;" horiz-adv-x="929" d="M125 874l49 232h840l-49 -232h-277l-143 -667h225l-98 -463h-226l56 256h-287l186 874h-276z" />
<glyph unicode="&#x4ae;" horiz-adv-x="1366" d="M291 1493h342l168 -645l424 645h342l-672 -940l-119 -553h-307l119 553z" />
<glyph unicode="&#x4af;" horiz-adv-x="1366" d="M246 1106h342l151 -660l316 660h344l-545 -940l-78 -553h-307l78 553z" />
<glyph unicode="&#x4b0;" horiz-adv-x="1366" d="M127 297l45 213h410l8 43l-299 940h342l168 -659l422 659h344l-670 -940l-8 -43h409l-45 -213h-409l-62 -297h-307l62 297h-410z" />
<glyph unicode="&#x4b1;" horiz-adv-x="1366" d="M111 -47l28 213h410l-303 940h342l151 -660l316 660h344l-543 -940h410l-29 -213h-410l-49 -340h-307l49 340h-409z" />
<glyph unicode="&#x4b2;" horiz-adv-x="1359" d="M-37 0l631 752l-297 741h365l157 -492l379 492h356l-616 -731l225 -541h140l-113 -528h-266l65 307h-98l-176 518l-396 -518h-356z" />
<glyph unicode="&#x4b3;" horiz-adv-x="1134" d="M-49 0l487 557l-243 549h344l108 -334l250 334h344l-477 -549l156 -350h139l-98 -463h-226l56 256h-121l-113 344l-262 -344h-344z" />
<glyph unicode="&#x4b4;" horiz-adv-x="1769" d="M209 1237l51 256h1069l-51 -256h-375l-209 -981h592l262 1237h307l-270 -1272h287l-113 -528h-266l66 307h-1225l262 1237h-387z" />
<glyph unicode="&#x4b5;" horiz-adv-x="1488" d="M125 874l49 232h758l-49 -232h-236l-137 -643h416l186 875h287l-193 -899h246l-98 -463h-226l56 256h-1010l186 874h-235z" />
<glyph unicode="&#x4b6;" horiz-adv-x="1521" d="M248 901q0 66 16 152l94 440h308l-99 -459q-12 -70 -12 -96q0 -59 39 -90t137 -31h293l143 676h310l-271 -1272h287l-113 -528h-266l66 307h-328l119 561h-295q-428 0 -428 340z" />
<glyph unicode="&#x4b7;" horiz-adv-x="1241" d="M178 633q0 59 15 123l73 350h287l-78 -363q-10 -47 -10 -75q0 -49 32.5 -74t114.5 -25h191l115 537h286l-190 -899h243l-98 -463h-225l55 256h-307l72 338h-174q-402 0 -402 295z" />
<glyph unicode="&#x4b8;" horiz-adv-x="1374" d="M248 901q0 66 16 152l94 440h308l-99 -459q-12 -70 -12 -96q0 -106 133 -119l64 307h202l-65 -309h135l143 676h310l-318 -1493h-307l119 561h-135l-64 -295h-203l64 295q-385 16 -385 340z" />
<glyph unicode="&#x4b9;" horiz-adv-x="1241" d="M178 633q0 59 15 123l73 350h287l-78 -363q-10 -47 -10 -75q0 -76 78 -93l39 183h161l-41 -189h101l115 537h286l-235 -1106h-287l72 338h-101l-41 -195h-161l43 199q-316 31 -316 291z" />
<glyph unicode="&#x4ba;" horiz-adv-x="1374" d="M248 0l317 1493h307l-118 -561h295q428 0 428 -340q0 -72 -19 -152l-92 -440h-307l96 459q12 51 12 96q0 59 -37.5 90t-136.5 31h-293l-143 -676h-309z" />
<glyph unicode="&#x4bb;" horiz-adv-x="1241" d="M178 0l236 1106h286l-71 -338h174q401 0 401 -295q0 -59 -14 -123l-74 -350h-287l78 362q10 47 11 76q0 49 -33 74t-115 25h-190l-115 -537h-287z" />
<glyph unicode="&#x4bc;" horiz-adv-x="1714" d="M-244 1090q0 190 116 326t286 136q111 0 172 -56t61 -157q0 -31 -2 -47h-166q0 66 -21.5 93.5t-74.5 27.5q-78 0 -119 -57q-78 -96 -78 -238q0 -131 109 -131h190q113 242 319 386.5t453 144.5q342 0 474 -236q55 -102 55 -221q0 -203 -27 -313h-1046q-23 -102 -23 -207 q0 -158 75 -244t214 -86q143 0 246.5 78t148.5 221h299q-70 -256 -273.5 -406.5t-481.5 -150.5q-256 0 -396.5 144.5t-140.5 400.5q0 135 27 250q-100 4 -179 36.5t-124.5 84t-69 108t-23.5 113.5zM549 987h670q-2 104 -33 160q-66 109 -230 108q-123 0 -229 -71.5 t-178 -196.5z" />
<glyph unicode="&#x4bd;" horiz-adv-x="1130" d="M-209 762q0 125 78 216t190 91q76 0 117 -37t41 -102q0 -8 -4 -33h-109q-2 43 -16 61.5t-49 18.5q-49 0 -80 -37q-49 -70 -49 -158t72 -88h139q82 193 239.5 311.5t348.5 118.5q188 0 299.5 -103t111.5 -296q0 -86 -18 -172q-4 -23 -12 -49h-742q-18 -43 -18 -164 q0 -82 50 -125t130 -43q162 0 250 139h282q-84 -164 -243.5 -261t-345.5 -97q-193 0 -298.5 104.5t-105.5 294.5q0 84 14 154q-131 16 -201.5 96t-70.5 160zM399 694h428l2 13q2 0 2 8q0 190 -174 190q-90 0 -150.5 -53.5t-107.5 -157.5z" />
<glyph unicode="&#x4be;" horiz-adv-x="1714" d="M-244 1090q0 190 116 326t286 136q111 0 172 -56t61 -157q0 -31 -2 -47h-166q0 66 -21.5 93.5t-74.5 27.5q-78 0 -119 -57q-78 -96 -78 -238q0 -131 109 -131h190q113 242 319 386.5t453 144.5q342 0 474 -236q55 -102 55 -221q0 -203 -27 -313h-1046q-23 -102 -23 -207 q0 -158 75 -244t214 -86q143 0 246.5 78t148.5 221h299q-63 -236 -243.5 -383t-428.5 -170q49 -27 74 -45q137 -94 137 -234q0 -72 -73.5 -113.5t-200.5 -41.5q-59 0 -158 18l-20 107q63 -23 145 -23q102 0 103 82q0 70 -70 158q-23 29 -43.5 45t-71.5 49 q-211 27 -326.5 167t-115.5 372q0 135 27 250q-100 4 -179 36.5t-124.5 84t-69 108t-23.5 113.5zM549 987h670q-2 104 -33 160q-66 109 -230 108q-123 0 -229 -71.5t-178 -196.5z" />
<glyph unicode="&#x4bf;" horiz-adv-x="1130" d="M-209 762q0 125 78 216t190 91q76 0 117 -37t41 -102q0 -8 -4 -33h-109q-2 43 -16 61.5t-49 18.5q-49 0 -80 -37q-49 -70 -49 -158t72 -88h139q82 193 239.5 311.5t348.5 118.5q188 0 299.5 -103t111.5 -296q0 -86 -18 -172q-4 -23 -12 -49h-742q-18 -43 -18 -164 q0 -82 50 -125t130 -43q162 0 250 139h282q-74 -145 -211 -239.5t-303 -114.5q47 -23 76 -45q137 -94 137 -234q0 -72 -73.5 -113.5t-200.5 -41.5q-59 0 -158 18l-20 107q63 -23 145 -23q102 0 103 82q0 70 -70 158q-39 49 -121 98q-143 27 -220 127t-77 262q0 84 14 154 q-131 16 -201.5 96t-70.5 160zM399 694h428l2 13q2 0 2 8q0 190 -174 190q-90 0 -150.5 -53.5t-107.5 -157.5z" />
<glyph unicode="&#x4c0;" horiz-adv-x="569" d="M47 0l318 1493h307l-318 -1493h-307z" />
<glyph unicode="&#x4c1;" horiz-adv-x="2158" d="M-37 0l895 774l-487 719h336l380 -571l121 571h308l-121 -571l622 571h336l-794 -719l567 -774h-367l-436 584l-125 -584h-307l125 584l-686 -584h-367zM1176 1853q0 35 12 80h86v-16q0 -55 40 -86t111 -31q158 0 211 133h86q-23 -127 -116 -210t-213 -83 q-96 0 -156.5 59.5t-60.5 153.5z" />
<glyph unicode="&#x4c2;" horiz-adv-x="1587" d="M-49 0l565 606l-256 500h303l189 -387l82 387h286l-82 -387l353 387h303l-469 -500l307 -606h-367l-194 406l-86 -406h-287l86 406l-367 -406h-366zM791 1460q0 35 12 80h86v-16q0 -55 40 -86t111 -31q158 0 211 133h86q-23 -127 -116 -210t-213 -83q-96 0 -156.5 59.5 t-60.5 153.5z" />
<glyph unicode="&#x4c3;" horiz-adv-x="1474" d="M70 0l317 1493h307l-121 -571l705 571h362l-903 -719h230q428 0 428 -340q0 -66 -17 -151l-59 -277q-16 -80 -41 -134t-71 -105.5t-124.5 -76t-191.5 -24.5h-213l45 219h113q94 0 128.5 30t47.5 91l63 295q12 70 12 96q0 59 -38.5 90t-137.5 31h-424l-110 -518h-307z" />
<glyph unicode="&#x4c4;" horiz-adv-x="1083" d="M39 0l235 1106h287l-82 -387l414 387h303l-545 -500l33 2q133 0 215 -72.5t82 -193.5q0 -55 -12 -113l-49 -229q-57 -270 -297 -270h-166l37 180q70 0 99.5 29.5t45.5 105.5l37 148q10 53 10 69q0 121 -125 121h-151l-82 -383h-289z" />
<glyph unicode="&#x4c7;" horiz-adv-x="1478" d="M57 0l318 1493h307l-127 -600h590l127 600h309l-317 -1493q-16 -80 -41 -134t-71 -105.5t-125 -76t-191 -24.5h-213l45 219h112q94 0 129 30t47 91l136 637h-592l-135 -637h-308z" />
<glyph unicode="&#x4c8;" horiz-adv-x="1302" d="M41 0l235 1106h287l-82 -385h416l82 385h287l-236 -1106q-57 -270 -293 -270h-166l37 180q115 0 135 90l109 485h-416l-108 -485h-287z" />
<glyph unicode="&#x4cb;" horiz-adv-x="1374" d="M248 901q0 66 16 152l94 440h308l-99 -459q-12 -70 -12 -96q0 -59 39 -90t137 -31h293l143 676h310l-318 -1493h-328l-65 -307h-266l112 528h287l72 340h-295q-428 0 -428 340z" />
<glyph unicode="&#x4cc;" horiz-adv-x="1241" d="M178 633q0 59 15 123l73 350h287l-78 -363q-10 -47 -10 -75q0 -49 32.5 -74t114.5 -25h191l115 537h286l-235 -1106h-307l-56 -256h-225l98 463h246l29 131h-174q-402 0 -402 295z" />
<glyph unicode="&#x4d0;" horiz-adv-x="1478" d="M-29 0l848 1493h340l199 -1493h-314l-36 301h-559l-164 -301h-314zM590 557h389l-72 584zM803 1853q0 35 12 80h86v-16q0 -55 40 -86t112 -31q158 0 211 133h86q-23 -127 -116 -210t-214 -83q-96 0 -156.5 59.5t-60.5 153.5z" />
<glyph unicode="&#x4d1;" horiz-adv-x="1134" d="M23 199q0 176 107.5 287.5t301.5 146.5l119 20q147 25 203.5 55.5t56.5 100.5q0 84 -145 84q-106 0 -156.5 -33t-79.5 -119h-276q106 383 555 383q389 0 389 -252q0 -37 -11 -88l-131 -614q-4 -33 -4 -41q0 -47 41 -94l-6 -35h-311q-18 31 -19 55q0 10 9 56 q-186 -158 -369 -158q-117 0 -195.5 63.5t-78.5 182.5zM322 285q0 -47 34.5 -74t96.5 -27q104 0 180 69t102 191l17 78q-43 -20 -129 -35l-101 -18q-200 -41 -200 -184zM518 1460q0 35 12 80h86v-16q0 -55 40 -86t112 -31q158 0 211 133h86q-23 -127 -116 -210t-214 -83 q-96 0 -156.5 59.5t-60.5 153.5z" />
<glyph unicode="&#x4d2;" horiz-adv-x="1478" d="M-29 0l848 1493h340l199 -1493h-314l-36 301h-559l-164 -301h-314zM590 557h389l-72 584zM717 1640l53 246h225l-53 -246h-225zM1098 1640l53 246h225l-53 -246h-225z" />
<glyph unicode="&#x4d3;" horiz-adv-x="1134" d="M23 199q0 176 107.5 287.5t301.5 146.5l119 20q147 25 203.5 55.5t56.5 100.5q0 84 -145 84q-106 0 -156.5 -33t-79.5 -119h-276q106 383 555 383q389 0 389 -252q0 -37 -11 -88l-131 -614q-4 -33 -4 -41q0 -47 41 -94l-6 -35h-311q-18 31 -19 55q0 10 9 56 q-186 -158 -369 -158q-117 0 -195.5 63.5t-78.5 182.5zM322 285q0 -47 34.5 -74t96.5 -27q104 0 180 69t102 191l17 78q-43 -20 -129 -35l-101 -18q-200 -41 -200 -184zM432 1247l53 246h226l-54 -246h-225zM813 1247l53 246h226l-54 -246h-225z" />
<glyph unicode="&#x4d4;" horiz-adv-x="2048" d="M-80 0l860 1493h1399l-53 -256h-752l-74 -338h695l-53 -256h-695l-82 -387h791l-55 -256h-1098l65 311h-448l-174 -311h-326zM553 567h371l143 670h-135z" />
<glyph unicode="&#x4d5;" horiz-adv-x="1820" d="M29 217q0 94 46 181t128 147q94 68 239 92l117 18q111 16 134.5 21.5t56.5 21.5q70 35 69 109q0 88 -149 88q-98 0 -150.5 -35t-79.5 -119h-268q37 176 129 258q141 125 420 125q231 0 330 -100q150 100 338 100q221 0 333 -141q94 -115 95 -264q0 -117 -37 -256h-742 q-14 -61 -14 -105q0 -78 54.5 -127t142.5 -49q76 0 139 35t94 94h283q-82 -164 -238 -261t-340 -97q-281 0 -371 205q-106 -115 -203.5 -160t-238.5 -45q-150 0 -233.5 69.5t-83.5 194.5zM322 285q0 -102 145 -103q106 0 178 66.5t100 193.5l17 78q-27 -12 -53 -20 q-4 0 -18.5 -2t-24.5 -4l-33 -7l-103 -16q-100 -16 -154 -65t-54 -121zM1081 653h443v56q0 88 -45 137t-129 49q-203 0 -269 -242z" />
<glyph unicode="&#x4d6;" horiz-adv-x="1363" d="M80 0l317 1493h1080l-56 -256h-772l-71 -338h714l-53 -256h-715l-82 -387h809l-55 -256h-1116zM752 1853q0 35 12 80h86v-16q0 -55 40 -86t111 -31q158 0 211 133h86q-23 -127 -115.5 -210t-213.5 -83q-96 0 -156.5 59.5t-60.5 153.5z" />
<glyph unicode="&#x4d7;" horiz-adv-x="1130" d="M49 352q0 311 193.5 541.5t466.5 230.5q188 0 299.5 -103t111.5 -296q0 -98 -24 -213q-2 -23 -13 -49h-741q-12 -80 -12 -123q0 -82 50 -125t130 -43q162 0 250 139h282q-84 -164 -243.5 -261t-345.5 -97q-193 0 -298.5 104.5t-105.5 294.5zM387 653h440q4 45 4 62 q0 190 -174 190q-186 0 -270 -252zM518 1460q0 35 12 80h86v-16q0 -55 40 -86t112 -31q158 0 211 133h86q-23 -127 -116 -210t-214 -83q-96 0 -156.5 59.5t-60.5 153.5z" />
<glyph unicode="&#x4d8;" horiz-adv-x="1714" d="M125 410q0 203 27 313h1046q23 102 23 207q0 158 -75 244t-214 86q-143 0 -246.5 -78t-148.5 -221h-299q70 256 273.5 406.5t481.5 150.5q256 0 396.5 -144.5t140.5 -400.5q0 -428 -255 -724t-622 -296q-342 0 -473 235q-55 103 -55 222zM436 483q2 -104 33 -159 q66 -109 229 -109q123 0 229.5 71.5t178.5 196.5h-670z" />
<glyph unicode="&#x4d9;" horiz-adv-x="1130" d="M49 352q0 86 19 172q2 20 12 49h741q18 43 19 164q0 82 -50.5 125t-130.5 43q-162 0 -249 -139h-283q84 164 243.5 261t346.5 97q193 0 298 -104.5t105 -294.5q0 -311 -193.5 -541.5t-465.5 -230.5q-188 0 -300 103t-112 296zM338 362q0 -190 174 -190q90 0 150.5 53.5 t107.5 157.5h-428l-2 -12q-2 -1 -2 -9z" />
<glyph unicode="&#x4da;" horiz-adv-x="1714" d="M125 410q0 203 27 313h1046q23 102 23 207q0 158 -75 244t-214 86q-143 0 -246.5 -78t-148.5 -221h-299q70 256 273.5 406.5t481.5 150.5q256 0 396.5 -144.5t140.5 -400.5q0 -428 -255 -724t-622 -296q-342 0 -473 235q-55 103 -55 222zM436 483q2 -104 33 -159 q66 -109 229 -109q123 0 229.5 71.5t178.5 196.5h-670zM717 1640l53 246h225l-53 -246h-225zM1098 1640l53 246h225l-53 -246h-225z" />
<glyph unicode="&#x4db;" horiz-adv-x="1130" d="M49 352q0 86 19 172q2 20 12 49h741q18 43 19 164q0 82 -50.5 125t-130.5 43q-162 0 -249 -139h-283q84 164 243.5 261t346.5 97q193 0 298 -104.5t105 -294.5q0 -311 -193.5 -541.5t-465.5 -230.5q-188 0 -300 103t-112 296zM338 362q0 -190 174 -190q90 0 150.5 53.5 t107.5 157.5h-428l-2 -12q-2 -1 -2 -9zM440 1247l54 246h225l-53 -246h-226zM821 1247l53 246h226l-53 -246h-226z" />
<glyph unicode="&#x4dc;" horiz-adv-x="2158" d="M-37 0l895 774l-487 719h336l380 -571l121 571h308l-121 -571l622 571h336l-794 -719l567 -774h-367l-436 584l-125 -584h-307l125 584l-686 -584h-367zM1090 1640l53 246h225l-53 -246h-225zM1470 1640l54 246h225l-53 -246h-226z" />
<glyph unicode="&#x4dd;" horiz-adv-x="1587" d="M-49 0l565 606l-256 500h303l189 -387l82 387h286l-82 -387l353 387h303l-469 -500l307 -606h-367l-194 406l-86 -406h-287l86 406l-367 -406h-366zM705 1247l53 246h225l-53 -246h-225zM1085 1247l54 246h225l-53 -246h-226z" />
<glyph unicode="&#x4de;" horiz-adv-x="1349" d="M55 348q0 51 8 98h299q-4 -29 -4 -43q0 -98 76 -151t213 -53q156 0 252 68.5t96 189.5q0 174 -235 174h-209l51 246h156q162 0 247 67.5t85 165.5q0 70 -60.5 116t-163.5 46q-297 0 -362 -234h-287q41 195 170 310q188 170 518 170q231 0 355 -90.5t124 -258.5 q0 -127 -56 -233.5t-146 -163.5q123 -76 123 -223q0 -307 -200 -451.5t-527 -144.5q-254 0 -388.5 102.5t-134.5 292.5zM629 1640l53 246h225l-53 -246h-225zM1010 1640l53 246h225l-53 -246h-225z" />
<glyph unicode="&#x4df;" d="M33 244q0 39 8 78h281v-17q0 -55 31.5 -85t68.5 -36t94 -6q242 0 242 156q0 92 -146 92h-188l49 225h182q166 0 166 150q0 41 -41 69.5t-106 28.5q-195 0 -228 -149h-276q41 176 185.5 275t365.5 99q182 0 283.5 -75.5t101.5 -210.5q0 -94 -35 -169t-96 -114 q80 -59 80 -154q0 -199 -164 -323.5t-408 -124.5q-221 0 -335.5 75t-114.5 216zM455 1247l53 246h225l-53 -246h-225zM836 1247l53 246h225l-53 -246h-225z" />
<glyph unicode="&#x4e0;" horiz-adv-x="1349" d="M55 348q0 51 8 98h299q-4 -29 -4 -43q0 -98 76 -151t213 -53q156 0 252 68.5t96 189.5q0 174 -235 174h-209l51 246h156q162 0 247 67.5t85 165.5q0 70 -60.5 116t-163.5 46q-297 0 -362 -234h-287q41 195 170 310q188 170 518 170q231 0 355 -90.5t124 -258.5 q0 -127 -56 -233.5t-146 -163.5q123 -76 123 -223q0 -307 -200 -451.5t-527 -144.5q-254 0 -388.5 102.5t-134.5 292.5z" />
<glyph unicode="&#x4e1;" d="M33 244q0 39 8 78h281v-17q0 -55 31.5 -85t68.5 -36t94 -6q242 0 242 156q0 92 -146 92h-188l49 225h182q166 0 166 150q0 41 -41 69.5t-106 28.5q-195 0 -228 -149h-276q41 176 185.5 275t365.5 99q182 0 283.5 -75.5t101.5 -210.5q0 -94 -35 -169t-96 -114 q80 -59 80 -154q0 -199 -164 -323.5t-408 -124.5q-221 0 -335.5 75t-114.5 216z" />
<glyph unicode="&#x4e2;" horiz-adv-x="1478" d="M57 0l318 1493h307l-215 -1016l807 1016h315l-317 -1493h-307l219 1032l-819 -1032h-308zM707 1640l34 164h615l-35 -164h-614z" />
<glyph unicode="&#x4e3;" horiz-adv-x="1302" d="M41 0l235 1106h287l-149 -703l534 703h318l-236 -1106h-287l150 702l-535 -702h-317zM494 1247l34 164h615l-35 -164h-614z" />
<glyph unicode="&#x4e4;" horiz-adv-x="1478" d="M57 0l318 1493h307l-215 -1016l807 1016h315l-317 -1493h-307l219 1032l-819 -1032h-308zM711 1640l53 246h225l-53 -246h-225zM1092 1640l53 246h225l-53 -246h-225z" />
<glyph unicode="&#x4e5;" horiz-adv-x="1302" d="M41 0l235 1106h287l-149 -703l534 703h318l-236 -1106h-287l150 702l-535 -702h-317zM498 1247l53 246h225l-53 -246h-225zM879 1247l53 246h225l-53 -246h-225z" />
<glyph unicode="&#x4e6;" horiz-adv-x="1593" d="M135 535q0 469 352 776q238 207 553 207q319 0 467 -207q109 -152 109 -379q0 -465 -352 -772q-238 -207 -555 -207q-319 0 -465 207q-109 150 -109 375zM446 573q0 -168 84 -263t236 -95q213 0 376 205t163 477q0 168 -83 263t-235 95q-217 0 -379 -205t-162 -477z M764 1640l53 246h225l-53 -246h-225zM1145 1640l53 246h225l-53 -246h-225z" />
<glyph unicode="&#x4e7;" horiz-adv-x="1251" d="M86 371q0 313 200.5 533t487.5 220q215 0 330 -108.5t115 -308.5q0 -315 -200 -534.5t-491 -219.5q-213 0 -327.5 109.5t-114.5 308.5zM379 424q0 -111 53 -175.5t146 -64.5q137 0 241.5 142.5t104.5 326.5q0 113 -51.5 176.5t-145.5 63.5q-137 0 -242.5 -142.5 t-105.5 -326.5zM498 1247l53 246h225l-53 -246h-225zM879 1247l53 246h225l-53 -246h-225z" />
<glyph unicode="&#x4e8;" horiz-adv-x="1593" d="M143.5 416.5q-22.5 150.5 14.5 318.5q35 168 121 318.5t208 257.5q238 207 553 207q319 0 467 -207q162 -227 86 -586q-33 -158 -122 -310.5t-207 -254.5q-238 -207 -555 -207q-319 0 -465 207q-78 106 -100.5 256.5zM453 662q-27 -205 58 -326t255 -121t307 122t197 325 h-817zM489 825h811q20 201 -62.5 315.5t-250.5 114.5t-302.5 -116.5t-195.5 -313.5z" />
<glyph unicode="&#x4e9;" horiz-adv-x="1251" d="M104 539q59 272 237.5 428.5t432.5 156.5q260 0 371.5 -156.5t52.5 -437.5q-57 -266 -237.5 -421.5t-432.5 -155.5q-254 0 -367.5 156t-56.5 430zM379 455q-8 -123 45 -197t154 -74q98 0 182 74t129 197h-510zM414 618h510q10 127 -42.5 201t-154.5 74q-100 0 -184 -75 t-129 -200z" />
<glyph unicode="&#x4ea;" horiz-adv-x="1593" d="M143.5 416.5q-22.5 150.5 14.5 318.5q35 168 121 318.5t208 257.5q238 207 553 207q319 0 467 -207q162 -227 86 -586q-33 -158 -122 -310.5t-207 -254.5q-238 -207 -555 -207q-319 0 -465 207q-78 106 -100.5 256.5zM453 662q-27 -205 58 -326t255 -121t307 122t197 325 h-817zM489 825h811q20 201 -62.5 315.5t-250.5 114.5t-302.5 -116.5t-195.5 -313.5zM764 1640l53 246h225l-53 -246h-225zM1145 1640l53 246h225l-53 -246h-225z" />
<glyph unicode="&#x4eb;" horiz-adv-x="1251" d="M104 539q59 272 237.5 428.5t432.5 156.5q260 0 371.5 -156.5t52.5 -437.5q-57 -266 -237.5 -421.5t-432.5 -155.5q-254 0 -367.5 156t-56.5 430zM379 455q-8 -123 45 -197t154 -74q98 0 182 74t129 197h-510zM414 618h510q10 127 -42.5 201t-154.5 74q-100 0 -184 -75 t-129 -200zM498 1247l53 246h225l-53 -246h-225zM879 1247l53 246h225l-53 -246h-225z" />
<glyph unicode="&#x4ec;" horiz-adv-x="1509" d="M135 403q0 57 8 107h299q-4 -37 -4 -51q0 -119 71 -183.5t200 -64.5q160 0 280.5 111.5t181.5 314.5h-598l56 256h596v18q0 162 -80 253t-225 91q-166 0 -275 -108q-53 -53 -102 -160h-293q55 184 164 295q229 236 571 236q260 0 402.5 -144.5t142.5 -404.5 q0 -270 -116 -504t-316.5 -373t-435.5 -139q-246 0 -386.5 120.5t-140.5 329.5zM709 1640l53 246h225l-53 -246h-225zM1090 1640l53 246h225l-53 -246h-225z" />
<glyph unicode="&#x4ed;" horiz-adv-x="1177" d="M86 317q0 20 4 66h275q4 -106 40.5 -152.5t120.5 -46.5q90 0 163 62.5t116 177.5h-361l50 231h356q4 88 -14 144q-31 94 -158 94q-88 0 -144.5 -46t-103.5 -155h-274q57 203 209.5 317.5t359.5 114.5q203 0 309.5 -104.5t106.5 -300.5q0 -319 -185.5 -542.5 t-476.5 -223.5q-184 0 -288.5 96t-104.5 268zM449 1247l53 246h225l-53 -246h-225zM829 1247l54 246h225l-53 -246h-226z" />
<glyph unicode="&#x4ee;" horiz-adv-x="1429" d="M197 0l331 463l-299 1030h334l203 -707l502 707h356l-1071 -1493h-356zM651 1640l35 164h614l-34 -164h-615z" />
<glyph unicode="&#x4ef;" horiz-adv-x="1130" d="M-6 -440l45 215q41 -12 74 -13q76 0 148.5 55.5t72.5 123.5l-2 14l-168 1151h313l92 -764l387 764h271l-684 -1313q-51 -90 -105.5 -134t-130.5 -73q-90 -35 -213 -35q-45 1 -100 9zM428 1247l35 164h614l-35 -164h-614z" />
<glyph unicode="&#x4f0;" horiz-adv-x="1429" d="M197 0l331 463l-299 1030h334l203 -707l502 707h356l-1071 -1493h-356zM655 1640l54 246h225l-53 -246h-226zM1036 1640l54 246h225l-53 -246h-226z" />
<glyph unicode="&#x4f1;" horiz-adv-x="1130" d="M-6 -440l45 215q41 -12 74 -13q76 0 148.5 55.5t72.5 123.5l-2 14l-168 1151h313l92 -764l387 764h271l-684 -1313q-51 -90 -105.5 -134t-130.5 -73q-90 -35 -213 -35q-45 1 -100 9zM432 1247l53 246h226l-54 -246h-225zM813 1247l53 246h226l-54 -246h-225z" />
<glyph unicode="&#x4f2;" horiz-adv-x="1429" d="M197 0l331 463l-299 1030h334l203 -707l502 707h356l-1071 -1493h-356zM694 1640l209 302h258l-323 -302h-144zM1079 1640l209 302h258l-323 -302h-144z" />
<glyph unicode="&#x4f3;" horiz-adv-x="1130" d="M-6 -440l45 215q41 -12 74 -13q76 0 148.5 55.5t72.5 123.5l-2 14l-168 1151h313l92 -764l387 764h271l-684 -1313q-51 -90 -105.5 -134t-130.5 -73q-90 -35 -213 -35q-45 1 -100 9zM471 1247l209 301h258l-324 -301h-143zM856 1247l209 301h258l-324 -301h-143z" />
<glyph unicode="&#x4f4;" horiz-adv-x="1374" d="M248 901q0 66 16 152l94 440h308l-99 -459q-12 -70 -12 -96q0 -59 39 -90t137 -31h293l143 676h310l-318 -1493h-307l119 561h-295q-428 0 -428 340zM645 1640l53 246h226l-54 -246h-225zM1026 1640l53 246h226l-54 -246h-225z" />
<glyph unicode="&#x4f5;" horiz-adv-x="1241" d="M178 633q0 59 15 123l73 350h287l-78 -363q-10 -47 -10 -75q0 -49 32.5 -74t114.5 -25h191l115 537h286l-235 -1106h-287l72 338h-174q-402 0 -402 295zM463 1247l53 246h225l-53 -246h-225zM844 1247l53 246h225l-53 -246h-225z" />
<glyph unicode="&#x4f8;" horiz-adv-x="1923" d="M53 0l318 1493h307l-113 -532h383q170 0 265.5 -94.5t95.5 -260.5q0 -262 -166 -434t-430 -172h-660zM416 256h286q139 0 217 83t78 214q0 152 -200 152h-287zM934 1640l53 246h225l-53 -246h-225zM1315 1640l53 246h225l-53 -246h-225zM1417 0l318 1493h307l-318 -1493 h-307z" />
<glyph unicode="&#x4f9;" horiz-adv-x="1667" d="M41 0l235 1106h287l-90 -424h186q389 0 390 -281q0 -184 -126 -292.5t-337 -108.5h-545zM377 225h198q92 0 141.5 43t49.5 117q0 43 -33 57.5t-108 14.5h-199zM707 1247l53 246h225l-53 -246h-225zM1087 1247l54 246h225l-53 -246h-226zM1108 0l235 1106h287l-235 -1106 h-287z" />
<glyph unicode="&#xe3f;" horiz-adv-x="1478" d="M86 0l317 1493h480l37 170h161l-34 -170h22q195 0 302.5 -87t107.5 -237q0 -217 -240 -374q78 -61 111.5 -125t33.5 -148q0 -90 -45 -189.5t-120 -172.5q-166 -160 -461 -160h-29l-37 -170h-164l37 170h-479zM449 256h172l81 387h-172zM584 899h172l71 338h-172zM782 256 h31q131 0 199.5 67.5t68.5 178.5q0 141 -186 141h-31zM920 899q129 0 191.5 59.5t62.5 151.5q0 66 -44.5 96.5t-138.5 30.5z" />
<glyph unicode="&#x1e0c;" horiz-adv-x="1478" d="M76 0l317 1493h584q279 0 404.5 -122t125.5 -390q0 -377 -229 -694q-113 -156 -254 -221.5t-365 -65.5h-583zM428 -410l55 269h287l-55 -269h-287zM438 256h275q133 0 217 48t149 163q53 90 88 231.5t35 262.5q0 276 -280 276h-277z" />
<glyph unicode="&#x1e0d;" horiz-adv-x="1251" d="M82 393q0 281 174 506t424 225q203 0 272 -161l113 530h287l-318 -1493h-286l26 127q-139 -145 -336 -145q-162 0 -259 110.5t-97 300.5zM315 -410l56 269h286l-55 -269h-287zM375 436q0 -109 49 -167t133 -58q133 0 226.5 130t93.5 321q0 106 -48.5 169.5t-132.5 63.5 q-129 0 -225 -137.5t-96 -321.5z" />
<glyph unicode="&#x1e0e;" horiz-adv-x="1478" d="M76 0l317 1493h584q279 0 404.5 -122t125.5 -390q0 -377 -229 -694q-113 -156 -254 -221.5t-365 -65.5h-583zM268 -358l35 163h615l-35 -163h-615zM438 256h275q133 0 217 48t149 163q53 90 88 231.5t35 262.5q0 276 -280 276h-277z" />
<glyph unicode="&#x1e0f;" horiz-adv-x="1251" d="M82 393q0 281 174 506t424 225q203 0 272 -161l113 530h287l-318 -1493h-286l26 127q-139 -145 -336 -145q-162 0 -259 110.5t-97 300.5zM154 -358l34 163h615l-35 -163h-614zM375 436q0 -109 49 -167t133 -58q133 0 226.5 130t93.5 321q0 106 -48.5 169.5t-132.5 63.5 q-129 0 -225 -137.5t-96 -321.5z" />
<glyph unicode="&#x1e24;" horiz-adv-x="1478" d="M57 0l318 1493h307l-119 -559h590l119 559h309l-317 -1493h-308l144 678h-592l-143 -678h-308zM432 -410l55 269h287l-55 -269h-287z" />
<glyph unicode="&#x1e25;" horiz-adv-x="1251" d="M55 0l318 1493h286l-118 -555q158 186 368 186q133 0 215 -74.5t82 -195.5q0 -55 -12 -113l-158 -741h-286l137 641q8 41 12 98q0 156 -149 156q-98 0 -173 -73.5t-102 -198.5l-133 -623h-287zM317 -410l56 269h286l-55 -269h-287z" />
<glyph unicode="&#x1e26;" horiz-adv-x="1478" d="M57 0l318 1493h307l-119 -559h590l119 559h309l-317 -1493h-308l144 678h-592l-143 -678h-308zM680 1632l51 236h258l-51 -236h-258zM1079 1632l51 236h259l-52 -236h-258z" />
<glyph unicode="&#x1e27;" horiz-adv-x="1251" d="M55 0l318 1493h286l-118 -555q158 186 368 186q133 0 215 -74.5t82 -195.5q0 -55 -12 -113l-158 -741h-286l137 641q8 41 12 98q0 156 -149 156q-98 0 -173 -73.5t-102 -198.5l-133 -623h-287zM561 1632l51 236h258l-51 -236h-258zM961 1632l51 236h258l-51 -236h-258z " />
<glyph unicode="&#x1e2a;" horiz-adv-x="1478" d="M57 0l318 1493h307l-119 -559h590l119 559h309l-317 -1493h-308l144 678h-592l-143 -678h-308zM311 -143h105q-4 -31 4 -52.5t18.5 -32t43 -15.5t49.5 -5h67q199 0 252 105h102q-25 -115 -137.5 -190t-257.5 -75t-218 80.5t-28 184.5z" />
<glyph unicode="&#x1e2b;" horiz-adv-x="1251" d="M55 0l318 1493h286l-118 -555q158 186 368 186q133 0 215 -74.5t82 -195.5q0 -55 -12 -113l-158 -741h-286l137 641q8 41 12 98q0 156 -149 156q-98 0 -173 -73.5t-102 -198.5l-133 -623h-287zM197 -143h104q-4 -31 4 -52.5t18.5 -32t43 -15.5t50.5 -5h66q199 0 252 105 h103q-25 -115 -137.5 -190t-258 -75t-218 80.5t-27.5 184.5z" />
<glyph unicode="&#x1e36;" horiz-adv-x="1251" d="M82 0l317 1493h308l-263 -1237h715l-55 -256h-1022zM365 -410l55 269h287l-56 -269h-286z" />
<glyph unicode="&#x1e37;" horiz-adv-x="569" d="M-27 -410l56 269h286l-55 -269h-287zM55 0l318 1493h286l-317 -1493h-287z" />
<glyph unicode="&#x1e38;" horiz-adv-x="1251" d="M82 0l317 1493h308l-263 -1237h715l-55 -256h-1022zM276 1667l35 164h615l-35 -164h-615zM365 -410l55 269h287l-56 -269h-286z" />
<glyph unicode="&#x1e39;" horiz-adv-x="569" d="M-27 -410l56 269h286l-55 -269h-287zM55 0l318 1493h286l-317 -1493h-287zM240 1667l34 164h615l-35 -164h-614z" />
<glyph unicode="&#x1e42;" horiz-adv-x="1705" d="M53 0l318 1493h485v-1147l520 1147h449l-318 -1493h-290l270 1268l-551 -1268h-322v1268l-270 -1268h-291zM543 -410l55 269h287l-56 -269h-286z" />
<glyph unicode="&#x1e43;" horiz-adv-x="1820" d="M41 0l235 1106h285l-35 -166q90 100 170 142t181 42q94 0 162.5 -45t90.5 -123q162 168 363 168q137 0 214 -68.5t77 -189.5q0 -45 -17 -125l-157 -741h-287l147 696q10 47 11 84q0 115 -119 115q-96 0 -162.5 -60.5t-89.5 -170.5l-141 -664h-287l152 709q6 33 6 67 q0 53 -35 86t-94 33q-90 0 -154.5 -62.5t-87.5 -168.5l-141 -664h-287zM600 -410l55 269h287l-55 -269h-287z" />
<glyph unicode="&#x1e44;" horiz-adv-x="1478" d="M57 0l318 1493h307l393 -1055l223 1055h291l-317 -1493h-303l-394 1071l-227 -1071h-291zM868 1616l56 268h286l-55 -268h-287z" />
<glyph unicode="&#x1e45;" horiz-adv-x="1251" d="M47 0l236 1106h286l-37 -168q82 98 170.5 142t202.5 44q137 0 219 -73.5t82 -196.5q0 -55 -12 -113l-158 -741h-286l137 641q6 31 12 100q0 154 -151 154q-104 0 -179 -72.5t-102 -199.5l-133 -623h-287zM668 1249l55 269h287l-56 -269h-286z" />
<glyph unicode="&#x1e46;" horiz-adv-x="1478" d="M57 0l318 1493h307l393 -1055l223 1055h291l-317 -1493h-303l-394 1071l-227 -1071h-291zM436 -410l56 269h286l-55 -269h-287z" />
<glyph unicode="&#x1e47;" horiz-adv-x="1251" d="M47 0l236 1106h286l-37 -168q82 98 170.5 142t202.5 44q137 0 219 -73.5t82 -196.5q0 -55 -12 -113l-158 -741h-286l137 641q6 31 12 100q0 154 -151 154q-104 0 -179 -72.5t-102 -199.5l-133 -623h-287zM315 -410l56 269h286l-55 -269h-287z" />
<glyph unicode="&#x1e58;" horiz-adv-x="1478" d="M82 0l317 1493h772q160 0 257.5 -86t97.5 -221q0 -154 -81 -265.5t-261 -199.5q160 -53 159 -168q0 -68 -57 -375q-6 -31 -6 -53q0 -41 37 -70l-12 -55h-326q-16 51 -16 84q-2 68 53 270q25 98 24 125q0 113 -174 113h-352l-125 -592h-307zM569 848h371q127 0 204 67.5 t77 178.5q0 143 -226 143h-344zM821 1616l56 268h286l-55 -268h-287z" />
<glyph unicode="&#x1e59;" horiz-adv-x="796" d="M47 0l236 1106h286l-47 -217q72 113 166 174t193 61q18 0 34 -2l-61 -291q-49 8 -88 9q-254 0 -307 -252l-125 -588h-287zM457 1249l55 269h287l-56 -269h-286z" />
<glyph unicode="&#x1e5a;" horiz-adv-x="1478" d="M82 0l317 1493h772q160 0 257.5 -86t97.5 -221q0 -154 -81 -265.5t-261 -199.5q160 -53 159 -168q0 -68 -57 -375q-6 -31 -6 -53q0 -41 37 -70l-12 -55h-326q-16 51 -16 84q-2 68 53 270q25 98 24 125q0 113 -174 113h-352l-125 -592h-307zM389 -410l55 269h287l-55 -269 h-287zM569 848h371q127 0 204 67.5t77 178.5q0 143 -226 143h-344z" />
<glyph unicode="&#x1e5b;" horiz-adv-x="796" d="M-39 -410l55 269h287l-55 -269h-287zM47 0l236 1106h286l-47 -217q72 113 166 174t193 61q18 0 34 -2l-61 -291q-49 8 -88 9q-254 0 -307 -252l-125 -588h-287z" />
<glyph unicode="&#x1e5c;" horiz-adv-x="1478" d="M82 0l317 1493h772q160 0 257.5 -86t97.5 -221q0 -154 -81 -265.5t-261 -199.5q160 -53 159 -168q0 -68 -57 -375q-6 -31 -6 -53q0 -41 37 -70l-12 -55h-326q-16 51 -16 84q-2 68 53 270q25 98 24 125q0 113 -174 113h-352l-125 -592h-307zM389 -410l55 269h287l-55 -269 h-287zM569 848h371q127 0 204 67.5t77 178.5q0 143 -226 143h-344zM659 1667l35 164h615l-35 -164h-615z" />
<glyph unicode="&#x1e5d;" horiz-adv-x="796" d="M-39 -410l55 269h287l-55 -269h-287zM47 0l236 1106h286l-47 -217q72 113 166 174t193 61q18 0 34 -2l-61 -291q-49 8 -88 9q-254 0 -307 -252l-125 -588h-287zM301 1319l35 164h614l-35 -164h-614z" />
<glyph unicode="&#x1e62;" horiz-adv-x="1366" d="M78 379q0 35 8 90h299q-4 -37 -4 -47q0 -88 77 -136t216 -48q162 0 255 57t93 160q0 70 -50 100.5t-198 60.5l-201 41q-182 37 -264 110t-82 200q0 233 182.5 392t477.5 159q244 0 380 -93.5t136 -259.5q0 -51 -17 -127h-286q4 37 4 47q0 170 -270 170q-139 0 -220.5 -57 t-81.5 -156q0 -57 51.5 -88.5t196.5 -60.5l224 -45q324 -68 323 -293q0 -262 -186.5 -421t-511.5 -159q-256 0 -403.5 107t-147.5 297zM334 -410l55 269h287l-55 -269h-287z" />
<glyph unicode="&#x1e63;" d="M47 289q0 20 8 61h281q6 -139 217 -139q209 0 209 98q-2 25 -33 43.5t-125 48.5l-162 52q-264 84 -264 254q0 172 144.5 294.5t388.5 122.5q193 0 303 -78.5t110 -218.5q0 -33 -10 -77h-276q6 29 6 38q0 49 -48 78t-132 29q-82 0 -131.5 -29.5t-49.5 -79.5q0 -31 28 -50 t105 -42l197 -57q129 -37 190.5 -94.5t61.5 -145.5q0 -195 -151.5 -305t-413.5 -110q-203 0 -328 84t-125 223zM258 -410l55 269h287l-55 -269h-287z" />
<glyph unicode="&#x1e6c;" horiz-adv-x="1251" d="M209 1237l55 256h1196l-55 -256h-434l-264 -1237h-308l265 1237h-455zM324 -410l55 269h287l-56 -269h-286z" />
<glyph unicode="&#x1e6d;" horiz-adv-x="681" d="M131 154q0 37 10 84l138 655h-142l41 190h141l64 297h287l-64 -297h160l-41 -190h-160l-121 -578q-12 -53 -12 -69q0 -51 78 -51q25 0 68 6l-41 -201q-111 -8 -172 -8q-234 0 -234 162zM137 -410l56 269h286l-55 -269h-287z" />
<glyph unicode="&#x1e6e;" horiz-adv-x="1251" d="M164 -358l35 163h614l-35 -163h-614zM209 1237l55 256h1196l-55 -256h-434l-264 -1237h-308l265 1237h-455z" />
<glyph unicode="&#x1e6f;" horiz-adv-x="681" d="M-25 -358l35 163h615l-35 -163h-615zM131 154q0 37 10 84l138 655h-142l41 190h141l64 297h287l-64 -297h160l-41 -190h-160l-121 -578q-12 -53 -12 -69q0 -51 78 -51q25 0 68 6l-41 -201q-111 -8 -172 -8q-234 0 -234 162z" />
<glyph unicode="&#x1e80;" horiz-adv-x="1933" d="M262 1493h320v-1118l458 1118h318v-1122l461 1122h325l-731 -1493h-285v1137l-485 -1137h-276zM848 1886h352l131 -276h-213z" />
<glyph unicode="&#x1e81;" horiz-adv-x="1593" d="M164 1106h307v-774l326 774h295v-774l333 774h297l-540 -1106h-308v778l-339 -778h-295zM684 1540h320l75 -315h-205z" />
<glyph unicode="&#x1e82;" horiz-adv-x="1933" d="M262 1493h320v-1118l458 1118h318v-1122l461 1122h325l-731 -1493h-285v1137l-485 -1137h-276zM1116 1610l250 276h352l-389 -276h-213z" />
<glyph unicode="&#x1e83;" horiz-adv-x="1593" d="M164 1106h307v-774l326 774h295v-774l333 774h297l-540 -1106h-308v778l-339 -778h-295zM872 1225l209 315h320l-324 -315h-205z" />
<glyph unicode="&#x1e84;" horiz-adv-x="1933" d="M262 1493h320v-1118l458 1118h318v-1122l461 1122h325l-731 -1493h-285v1137l-485 -1137h-276zM901 1632l51 236h258l-51 -236h-258zM1300 1632l52 236h258l-51 -236h-259z" />
<glyph unicode="&#x1e85;" horiz-adv-x="1593" d="M164 1106h307v-774l326 774h295v-774l333 774h297l-540 -1106h-308v778l-339 -778h-295zM653 1266l52 235h258l-52 -235h-258zM1053 1266l51 235h258l-51 -235h-258z" />
<glyph unicode="&#x1e92;" horiz-adv-x="1251" d="M-20 0l55 256l971 981h-764l55 256h1122l-55 -256l-971 -981h764l-55 -256h-1122zM311 -410l56 269h286l-55 -269h-287z" />
<glyph unicode="&#x1e93;" horiz-adv-x="1024" d="M-39 0l49 231l684 643h-510l49 232h863l-49 -232l-680 -643h561l-49 -231h-918zM201 -410l55 269h287l-56 -269h-286z" />
<glyph unicode="&#x1e97;" horiz-adv-x="681" d="M131 154q0 37 10 84l138 655h-142l41 190h141l64 297h287l-64 -297h160l-41 -190h-160l-121 -578q-12 -53 -12 -69q0 -51 78 -51q25 0 68 6l-41 -201q-111 -8 -172 -8q-234 0 -234 162zM227 1520l52 235h258l-52 -235h-258zM627 1520l51 235h258l-51 -235h-258z" />
<glyph unicode="&#x1ea0;" horiz-adv-x="1478" d="M-29 0l834 1493h354l199 -1493h-314l-36 301h-557l-166 -301h-314zM428 -410l55 269h287l-55 -269h-287zM592 557h387l-72 580z" />
<glyph unicode="&#x1ea1;" d="M23 236q0 152 109.5 261t301.5 140l119 18l105 16q36 5 49.5 10t33.5 17q70 35 70 109q0 88 -149 88q-98 0 -150.5 -35t-79.5 -119h-268q43 201 173 292t372 91q190 0 291.5 -65.5t101.5 -181.5q0 -37 -12 -93l-129 -614q-6 -25 -7 -43q0 -43 43 -92l-8 -35h-313 q-14 31 -14 55q0 29 8 70q-88 -80 -167 -111.5t-171 -31.5q-143 0 -226 69.5t-83 184.5zM240 -410l55 269h287l-56 -269h-286zM315 299q0 -88 154 -88q104 0 176 68.5t98 193.5l11 49q-29 -16 -38 -18t-59 -10l-135 -23q-207 -35 -207 -172z" />
<glyph unicode="&#x1ea2;" horiz-adv-x="1478" d="M-29 0l834 1493h354l199 -1493h-314l-36 301h-557l-166 -301h-314zM592 557h387l-72 580zM817 1806q33 115 99.5 164t173.5 49q92 0 147 -38.5t55 -102.5q0 -66 -47 -117q-31 -33 -108 -69q-45 -23 -58.5 -36.5t-21.5 -51.5h-123q8 90 131 161q37 18 56.5 36t22.5 28 t3 24q0 55 -74 56q-90 0 -117 -103h-139z" />
<glyph unicode="&#x1ea3;" d="M23 236q0 152 109.5 261t301.5 140l119 18l105 16q36 5 49.5 10t33.5 17q70 35 70 109q0 88 -149 88q-98 0 -150.5 -35t-79.5 -119h-268q43 201 173 292t372 91q190 0 291.5 -65.5t101.5 -181.5q0 -37 -12 -93l-129 -614q-6 -25 -7 -43q0 -43 43 -92l-8 -35h-313 q-14 31 -14 55q0 29 8 70q-88 -80 -167 -111.5t-171 -31.5q-143 0 -226 69.5t-83 184.5zM315 299q0 -88 154 -88q104 0 176 68.5t98 193.5l11 49q-29 -16 -38 -18t-59 -10l-135 -23q-207 -35 -207 -172zM539 1419q33 115 99.5 164t172.5 49q92 0 147.5 -39t55.5 -102 q0 -66 -47 -117q-31 -33 -109 -69q-45 -23 -58.5 -36.5t-21.5 -51.5h-123q8 90 131 161q37 18 56.5 36t22.5 28t3 24q0 55 -73 56q-90 0 -117 -103h-139z" />
<glyph unicode="&#x1ea4;" horiz-adv-x="1478" d="M-29 0l834 1493h354l199 -1493h-314l-36 301h-557l-166 -301h-314zM592 557h387l-72 580zM618 1614l343 270h264l176 -270h-176l-168 108l-252 -108h-187zM969 1925l250 277h352l-389 -277h-213z" />
<glyph unicode="&#x1ea5;" d="M23 236q0 152 109.5 261t301.5 140l119 18l105 16q36 5 49.5 10t33.5 17q70 35 70 109q0 88 -149 88q-98 0 -150.5 -35t-79.5 -119h-268q43 201 173 292t372 91q190 0 291.5 -65.5t101.5 -181.5q0 -37 -12 -93l-129 -614q-6 -25 -7 -43q0 -43 43 -92l-8 -35h-313 q-14 31 -14 55q0 29 8 70q-88 -80 -167 -111.5t-171 -31.5q-143 0 -226 69.5t-83 184.5zM315 299q0 -88 154 -88q104 0 176 68.5t98 193.5l11 49q-29 -16 -38 -18t-59 -10l-135 -23q-207 -35 -207 -172zM340 1227l342 270h264l176 -270h-176l-168 108l-252 -108h-186z M690 1538l250 277h352l-389 -277h-213z" />
<glyph unicode="&#x1ea6;" horiz-adv-x="1478" d="M-29 0l834 1493h354l199 -1493h-314l-36 301h-557l-166 -301h-314zM592 557h387l-72 580zM618 1614l343 270h264l176 -270h-176l-168 108l-252 -108h-187zM698 2202h353l131 -277h-213z" />
<glyph unicode="&#x1ea7;" d="M23 236q0 152 109.5 261t301.5 140l119 18l105 16q36 5 49.5 10t33.5 17q70 35 70 109q0 88 -149 88q-98 0 -150.5 -35t-79.5 -119h-268q43 201 173 292t372 91q190 0 291.5 -65.5t101.5 -181.5q0 -37 -12 -93l-129 -614q-6 -25 -7 -43q0 -43 43 -92l-8 -35h-313 q-14 31 -14 55q0 29 8 70q-88 -80 -167 -111.5t-171 -31.5q-143 0 -226 69.5t-83 184.5zM315 299q0 -88 154 -88q104 0 176 68.5t98 193.5l11 49q-29 -16 -38 -18t-59 -10l-135 -23q-207 -35 -207 -172zM340 1227l342 270h264l176 -270h-176l-168 108l-252 -108h-186z M420 1815h352l131 -277h-213z" />
<glyph unicode="&#x1ea8;" horiz-adv-x="1478" d="M-29 0l834 1493h354l199 -1493h-314l-36 301h-557l-166 -301h-314zM592 557h387l-72 580zM618 1614l343 270h264l176 -270h-176l-168 108l-252 -108h-187zM1040 2107q33 104 99.5 148.5t173.5 44.5q92 0 147.5 -36t55.5 -93q0 -61 -48 -105q-31 -29 -108 -61 q-45 -20 -57.5 -33.5t-22.5 -46.5h-123q8 80 131 146q37 16 56.5 32.5t22.5 24.5t3 22q0 49 -74 50q-92 0 -116 -93h-140z" />
<glyph unicode="&#x1ea9;" d="M23 236q0 152 109.5 261t301.5 140l119 18l105 16q36 5 49.5 10t33.5 17q70 35 70 109q0 88 -149 88q-98 0 -150.5 -35t-79.5 -119h-268q43 201 173 292t372 91q190 0 291.5 -65.5t101.5 -181.5q0 -37 -12 -93l-129 -614q-6 -25 -7 -43q0 -43 43 -92l-8 -35h-313 q-14 31 -14 55q0 29 8 70q-88 -80 -167 -111.5t-171 -31.5q-143 0 -226 69.5t-83 184.5zM315 299q0 -88 154 -88q104 0 176 68.5t98 193.5l11 49q-29 -16 -38 -18t-59 -10l-135 -23q-207 -35 -207 -172zM340 1227l342 270h264l176 -270h-176l-168 108l-252 -108h-186z M762 1720q33 104 99.5 148.5t172.5 44.5q92 0 147.5 -36t55.5 -93q0 -61 -47 -105q-31 -29 -109 -61q-45 -20 -57 -32.5t-23 -47.5h-122q8 80 131 145q37 16 56 33t22.5 25t3.5 22q0 49 -74 49q-92 0 -117 -92h-139z" />
<glyph unicode="&#x1eaa;" horiz-adv-x="1478" d="M-29 0l834 1493h354l199 -1493h-314l-36 301h-557l-166 -301h-314zM592 557h387l-72 580zM618 1614l343 270h264l176 -270h-176l-168 108l-252 -108h-187zM709 1950q35 115 99 177t148 62q63 0 146 -35l102 -43q51 -23 68 -20q68 0 110 104h111q-35 -127 -107.5 -188 t-164.5 -61q-66 0 -105 22l-102 51q-61 29 -90 29q-53 0 -105 -98h-110z" />
<glyph unicode="&#x1eab;" d="M23 236q0 152 109.5 261t301.5 140l119 18l105 16q36 5 49.5 10t33.5 17q70 35 70 109q0 88 -149 88q-98 0 -150.5 -35t-79.5 -119h-268q43 201 173 292t372 91q190 0 291.5 -65.5t101.5 -181.5q0 -37 -12 -93l-129 -614q-6 -25 -7 -43q0 -43 43 -92l-8 -35h-313 q-14 31 -14 55q0 29 8 70q-88 -80 -167 -111.5t-171 -31.5q-143 0 -226 69.5t-83 184.5zM315 299q0 -88 154 -88q104 0 176 68.5t98 193.5l11 49q-29 -16 -38 -18t-59 -10l-135 -23q-207 -35 -207 -172zM340 1227l342 270h264l176 -270h-176l-168 108l-252 -108h-186z M430 1563q35 115 99.5 177t148.5 62q63 0 145 -35l103 -43q51 -23 67 -20q68 0 111 104h110q-35 -127 -107.5 -188t-164.5 -61q-66 0 -104 22l-103 51q-61 29 -90 29q-53 0 -104 -98h-111z" />
<glyph unicode="&#x1eac;" horiz-adv-x="1478" d="M-29 0l834 1493h354l199 -1493h-314l-36 301h-557l-166 -301h-314zM428 -410l55 269h287l-55 -269h-287zM592 557h387l-72 580zM616 1614l342 270h265l176 -270h-176l-168 108l-252 -108h-187z" />
<glyph unicode="&#x1ead;" d="M23 236q0 152 109.5 261t301.5 140l119 18l105 16q36 5 49.5 10t33.5 17q70 35 70 109q0 88 -149 88q-98 0 -150.5 -35t-79.5 -119h-268q43 201 173 292t372 91q190 0 291.5 -65.5t101.5 -181.5q0 -37 -12 -93l-129 -614q-6 -25 -7 -43q0 -43 43 -92l-8 -35h-313 q-14 31 -14 55q0 29 8 70q-88 -80 -167 -111.5t-171 -31.5q-143 0 -226 69.5t-83 184.5zM240 -410l55 269h287l-56 -269h-286zM315 299q0 -88 154 -88q104 0 176 68.5t98 193.5l11 49q-29 -16 -38 -18t-59 -10l-135 -23q-207 -35 -207 -172zM383 1225l287 315h260l145 -315 h-180l-135 157l-201 -157h-176z" />
<glyph unicode="&#x1eae;" horiz-adv-x="1478" d="M-29 0l834 1493h354l199 -1493h-314l-36 301h-557l-166 -301h-314zM592 557h387l-72 580zM748 1882h104q-4 -31 4 -52.5t18.5 -31.5t43 -15t50.5 -5h66q199 0 252 104h103q-25 -115 -137.5 -189.5t-258 -74.5t-218 80t-27.5 184zM971 1944l250 276h352l-389 -276h-213z " />
<glyph unicode="&#x1eaf;" d="M23 236q0 152 109.5 261t301.5 140l119 18l105 16q36 5 49.5 10t33.5 17q70 35 70 109q0 88 -149 88q-98 0 -150.5 -35t-79.5 -119h-268q43 201 173 292t372 91q190 0 291.5 -65.5t101.5 -181.5q0 -37 -12 -93l-129 -614q-6 -25 -7 -43q0 -43 43 -92l-8 -35h-313 q-14 31 -14 55q0 29 8 70q-88 -80 -167 -111.5t-171 -31.5q-143 0 -226 69.5t-83 184.5zM315 299q0 -88 154 -88q104 0 176 68.5t98 193.5l11 49q-29 -16 -38 -18t-59 -10l-135 -23q-207 -35 -207 -172zM469 1495h104q-4 -31 4.5 -52.5t18.5 -31.5t43 -15t50 -5h67 q199 0 252 104h102q-25 -115 -137.5 -189.5t-258 -74.5t-218 80t-27.5 184zM692 1556l250 277h352l-389 -277h-213z" />
<glyph unicode="&#x1eb0;" horiz-adv-x="1478" d="M-29 0l834 1493h354l199 -1493h-314l-36 301h-557l-166 -301h-314zM592 557h387l-72 580zM700 2220h353l133 -276h-213zM748 1882h104q-4 -31 4 -52.5t18.5 -31.5t43 -15t50.5 -5h66q199 0 252 104h103q-25 -115 -137.5 -189.5t-258 -74.5t-218 80t-27.5 184z" />
<glyph unicode="&#x1eb1;" d="M23 236q0 152 109.5 261t301.5 140l119 18l105 16q36 5 49.5 10t33.5 17q70 35 70 109q0 88 -149 88q-98 0 -150.5 -35t-79.5 -119h-268q43 201 173 292t372 91q190 0 291.5 -65.5t101.5 -181.5q0 -37 -12 -93l-129 -614q-6 -25 -7 -43q0 -43 43 -92l-8 -35h-313 q-14 31 -14 55q0 29 8 70q-88 -80 -167 -111.5t-171 -31.5q-143 0 -226 69.5t-83 184.5zM315 299q0 -88 154 -88q104 0 176 68.5t98 193.5l11 49q-29 -16 -38 -18t-59 -10l-135 -23q-207 -35 -207 -172zM422 1833h352l133 -277h-213zM469 1495h104q-4 -31 4.5 -52.5 t18.5 -31.5t43 -15t50 -5h67q199 0 252 104h102q-25 -115 -137.5 -189.5t-258 -74.5t-218 80t-27.5 184z" />
<glyph unicode="&#x1eb2;" horiz-adv-x="1478" d="M-29 0l834 1493h354l199 -1493h-314l-36 301h-557l-166 -301h-314zM592 557h387l-72 580zM748 1882h104q-4 -31 4 -52.5t18.5 -31.5t43 -15t50.5 -5h66q199 0 252 104h103q-25 -115 -137.5 -189.5t-258 -74.5t-218 80t-27.5 184zM868 2044q33 104 99.5 148t173.5 44 q92 0 147 -35.5t55 -93.5q0 -61 -47 -104q-25 -25 -108 -61q-45 -20 -57.5 -33t-22.5 -47h-123q8 80 131 145q37 16 56.5 32.5t22.5 25t3 22.5q0 49 -74 49q-92 0 -116 -92h-140z" />
<glyph unicode="&#x1eb3;" d="M23 236q0 152 109.5 261t301.5 140l119 18l105 16q36 5 49.5 10t33.5 17q70 35 70 109q0 88 -149 88q-98 0 -150.5 -35t-79.5 -119h-268q43 201 173 292t372 91q190 0 291.5 -65.5t101.5 -181.5q0 -37 -12 -93l-129 -614q-6 -25 -7 -43q0 -43 43 -92l-8 -35h-313 q-14 31 -14 55q0 29 8 70q-88 -80 -167 -111.5t-171 -31.5q-143 0 -226 69.5t-83 184.5zM315 299q0 -88 154 -88q104 0 176 68.5t98 193.5l11 49q-29 -16 -38 -18t-59 -10l-135 -23q-207 -35 -207 -172zM469 1495h104q-4 -31 4.5 -52.5t18.5 -31.5t43 -15t50 -5h67 q199 0 252 104h102q-25 -115 -137.5 -189.5t-258 -74.5t-218 80t-27.5 184zM590 1657q33 104 99.5 148t172.5 44q92 0 147.5 -35.5t55.5 -93.5q0 -61 -47 -104q-25 -25 -109 -62q-45 -20 -57 -33.5t-23 -45.5h-122q8 80 131 145q37 16 56 32.5t22.5 25t3.5 22.5q0 49 -74 49 q-92 0 -117 -92h-139z" />
<glyph unicode="&#x1eb4;" horiz-adv-x="1478" d="M-29 0l834 1493h354l199 -1493h-314l-36 301h-557l-166 -301h-314zM592 557h387l-72 580zM711 1968q35 115 99 177.5t148 62.5q63 0 146 -35l102 -43q51 -23 68 -21q68 0 110 105h111q-35 -127 -107.5 -188.5t-164.5 -61.5q-66 0 -105 23l-102 51q-61 29 -90 28 q-53 0 -105 -98h-110zM748 1882h104q-4 -31 4 -52.5t18.5 -31.5t43 -15t50.5 -5h66q199 0 252 104h103q-25 -115 -137.5 -189.5t-258 -74.5t-218 80t-27.5 184z" />
<glyph unicode="&#x1eb5;" d="M23 236q0 152 109.5 261t301.5 140l119 18l105 16q36 5 49.5 10t33.5 17q70 35 70 109q0 88 -149 88q-98 0 -150.5 -35t-79.5 -119h-268q43 201 173 292t372 91q190 0 291.5 -65.5t101.5 -181.5q0 -37 -12 -93l-129 -614q-6 -25 -7 -43q0 -43 43 -92l-8 -35h-313 q-14 31 -14 55q0 29 8 70q-88 -80 -167 -111.5t-171 -31.5q-143 0 -226 69.5t-83 184.5zM315 299q0 -88 154 -88q104 0 176 68.5t98 193.5l11 49q-29 -16 -38 -18t-59 -10l-135 -23q-207 -35 -207 -172zM432 1581q35 115 99.5 177.5t148.5 62.5q63 0 145 -35l103 -43 q51 -23 67 -21q68 0 111 105h111q-35 -127 -108 -188.5t-165 -61.5q-66 0 -104 22l-103 52q-61 29 -90 28q-53 0 -104 -98h-111zM469 1495h104q-4 -31 4.5 -52.5t18.5 -31.5t43 -15t50 -5h67q199 0 252 104h102q-25 -115 -137.5 -189.5t-258 -74.5t-218 80t-27.5 184z" />
<glyph unicode="&#x1eb6;" horiz-adv-x="1478" d="M-29 0l834 1493h354l199 -1493h-314l-36 301h-557l-166 -301h-314zM428 -410l55 269h287l-55 -269h-287zM592 557h387l-72 580zM745 1882h105q-4 -31 4 -52.5t18.5 -31.5t43 -15t50.5 -5h66q199 0 252 104h102q-25 -115 -137 -189.5t-257.5 -74.5t-218.5 80t-28 184z" />
<glyph unicode="&#x1eb7;" d="M23 236q0 152 109.5 261t301.5 140l119 18l105 16q36 5 49.5 10t33.5 17q70 35 70 109q0 88 -149 88q-98 0 -150.5 -35t-79.5 -119h-268q43 201 173 292t372 91q190 0 291.5 -65.5t101.5 -181.5q0 -37 -12 -93l-129 -614q-6 -25 -7 -43q0 -43 43 -92l-8 -35h-313 q-14 31 -14 55q0 29 8 70q-88 -80 -167 -111.5t-171 -31.5q-143 0 -226 69.5t-83 184.5zM240 -410l55 269h287l-56 -269h-286zM315 299q0 -88 154 -88q104 0 176 68.5t98 193.5l11 49q-29 -16 -38 -18t-59 -10l-135 -23q-207 -35 -207 -172zM510 1460q0 35 12 80h86v-16 q0 -55 40 -86t112 -31q158 0 211 133h86q-23 -129 -119 -221t-215 -92q-94 0 -153.5 67.5t-59.5 165.5z" />
<glyph unicode="&#x1eb8;" horiz-adv-x="1366" d="M80 0l317 1493h1082l-56 -256h-774l-71 -338h714l-53 -256h-715l-82 -387h809l-55 -256h-1116zM373 -410l55 269h287l-56 -269h-286z" />
<glyph unicode="&#x1eb9;" d="M51 393q0 195 75 358.5t224.5 268t343.5 104.5q201 0 317.5 -115.5t116.5 -289.5q0 -111 -34 -242h-744q-2 -18 -2 -78q0 -84 53.5 -136t141.5 -52q70 0 132 30.5t91 69.5h283q-82 -152 -230.5 -240.5t-331.5 -88.5q-195 0 -315.5 111.5t-120.5 299.5zM258 -410l55 269 h287l-55 -269h-287zM387 668h451v30q0 104 -45 150.5t-134 46.5q-209 0 -272 -227z" />
<glyph unicode="&#x1eba;" horiz-adv-x="1366" d="M80 0l317 1493h1082l-56 -256h-774l-71 -338h714l-53 -256h-715l-82 -387h809l-55 -256h-1116zM772 1806q33 115 99.5 164t172.5 49q92 0 147.5 -38.5t55.5 -102.5q0 -66 -47 -117q-31 -33 -108 -69q-45 -23 -58.5 -36.5t-21.5 -51.5h-123q8 90 131 161q37 18 56.5 36 t22.5 28t3 24q0 55 -74 56q-90 0 -117 -103h-139z" />
<glyph unicode="&#x1ebb;" d="M51 393q0 195 75 358.5t224.5 268t343.5 104.5q201 0 317.5 -115.5t116.5 -289.5q0 -111 -34 -242h-744q-2 -18 -2 -78q0 -84 53.5 -136t141.5 -52q70 0 132 30.5t91 69.5h283q-82 -152 -230.5 -240.5t-331.5 -88.5q-195 0 -315.5 111.5t-120.5 299.5zM387 668h451v30 q0 104 -45 150.5t-134 46.5q-209 0 -272 -227zM557 1419q33 115 99.5 164t172.5 49q92 0 147.5 -39t55.5 -102q0 -66 -47 -117q-31 -33 -108 -69q-45 -23 -58.5 -36.5t-21.5 -51.5h-123q8 90 131 161q37 18 56.5 36t22.5 28t3 24q0 55 -74 56q-92 0 -117 -103h-139z" />
<glyph unicode="&#x1ebc;" horiz-adv-x="1366" d="M80 0l317 1493h1082l-56 -256h-774l-71 -338h714l-53 -256h-715l-82 -387h809l-55 -256h-1116zM594 1628q35 115 99.5 177.5t148.5 62.5q63 0 145 -35l103 -43q51 -23 67 -21q68 0 111 105h110q-35 -127 -107.5 -188.5t-164.5 -61.5q-66 0 -105 23l-102 51q-61 29 -90 28 q-53 0 -104 -98h-111z" />
<glyph unicode="&#x1ebd;" d="M51 393q0 195 75 358.5t224.5 268t343.5 104.5q201 0 317.5 -115.5t116.5 -289.5q0 -111 -34 -242h-744q-2 -18 -2 -78q0 -84 53.5 -136t141.5 -52q70 0 132 30.5t91 69.5h283q-82 -152 -230.5 -240.5t-331.5 -88.5q-195 0 -315.5 111.5t-120.5 299.5zM381 1262 q35 115 99.5 177t148.5 62q63 0 145 -35l103 -43q51 -23 67 -20q68 0 111 104h110q-35 -127 -107.5 -188.5t-164.5 -61.5q-66 0 -105 23l-102 51q-61 29 -90 29q-53 0 -104 -98h-111zM387 668h451v30q0 104 -45 150.5t-134 46.5q-209 0 -272 -227z" />
<glyph unicode="&#x1ebe;" horiz-adv-x="1366" d="M80 0l317 1493h1082l-56 -256h-774l-71 -338h714l-53 -256h-715l-82 -387h809l-55 -256h-1116zM573 1614l342 270h265l176 -270h-176l-168 108l-252 -108h-187zM924 1925l250 277h352l-389 -277h-213z" />
<glyph unicode="&#x1ebf;" d="M51 393q0 195 75 358.5t224.5 268t343.5 104.5q201 0 317.5 -115.5t116.5 -289.5q0 -111 -34 -242h-744q-2 -18 -2 -78q0 -84 53.5 -136t141.5 -52q70 0 132 30.5t91 69.5h283q-82 -152 -230.5 -240.5t-331.5 -88.5q-195 0 -315.5 111.5t-120.5 299.5zM358 1227l342 270 h265l176 -270h-176l-168 108l-252 -108h-187zM387 668h451v30q0 104 -45 150.5t-134 46.5q-209 0 -272 -227zM709 1538l249 277h353l-389 -277h-213z" />
<glyph unicode="&#x1ec0;" horiz-adv-x="1366" d="M80 0l317 1493h1082l-56 -256h-774l-71 -338h714l-53 -256h-715l-82 -387h809l-55 -256h-1116zM573 1614l342 270h265l176 -270h-176l-168 108l-252 -108h-187zM653 2202h353l131 -277h-213z" />
<glyph unicode="&#x1ec1;" d="M51 393q0 195 75 358.5t224.5 268t343.5 104.5q201 0 317.5 -115.5t116.5 -289.5q0 -111 -34 -242h-744q-2 -18 -2 -78q0 -84 53.5 -136t141.5 -52q70 0 132 30.5t91 69.5h283q-82 -152 -230.5 -240.5t-331.5 -88.5q-195 0 -315.5 111.5t-120.5 299.5zM358 1227l342 270 h265l176 -270h-176l-168 108l-252 -108h-187zM387 668h451v30q0 104 -45 150.5t-134 46.5q-209 0 -272 -227zM438 1815h353l131 -277h-213z" />
<glyph unicode="&#x1ec2;" horiz-adv-x="1366" d="M80 0l317 1493h1082l-56 -256h-774l-71 -338h714l-53 -256h-715l-82 -387h809l-55 -256h-1116zM573 1614l342 270h265l176 -270h-176l-168 108l-252 -108h-187zM995 2107q33 104 99.5 148.5t173.5 44.5q92 0 147 -36t55 -93q0 -61 -47 -105q-31 -29 -108 -61 q-45 -20 -57.5 -33.5t-22.5 -46.5h-123q8 80 131 146q37 16 56.5 32.5t22.5 24.5t3 22q0 49 -74 50q-92 0 -116 -93h-140z" />
<glyph unicode="&#x1ec3;" d="M51 393q0 195 75 358.5t224.5 268t343.5 104.5q201 0 317.5 -115.5t116.5 -289.5q0 -111 -34 -242h-744q-2 -18 -2 -78q0 -84 53.5 -136t141.5 -52q70 0 132 30.5t91 69.5h283q-82 -152 -230.5 -240.5t-331.5 -88.5q-195 0 -315.5 111.5t-120.5 299.5zM358 1227l342 270 h265l176 -270h-176l-168 108l-252 -108h-187zM387 668h451v30q0 104 -45 150.5t-134 46.5q-209 0 -272 -227zM780 1720q33 104 99.5 148.5t173.5 44.5q92 0 147 -36t55 -93q0 -61 -47 -105q-31 -29 -108 -61q-45 -20 -58.5 -32.5t-21.5 -47.5h-123q8 80 131 145 q37 16 56.5 33t22.5 25t3 22q0 49 -74 49q-92 0 -116 -92h-140z" />
<glyph unicode="&#x1ec4;" horiz-adv-x="1366" d="M80 0l317 1493h1082l-56 -256h-774l-71 -338h714l-53 -256h-715l-82 -387h809l-55 -256h-1116zM573 1614l342 270h265l176 -270h-176l-168 108l-252 -108h-187zM664 1950q35 115 99 177t148 62q63 0 146 -35l102 -43q51 -23 68 -20q68 0 110 104h111 q-35 -127 -107.5 -188t-164.5 -61q-66 0 -105 22l-102 51q-61 29 -90 29q-53 0 -105 -98h-110z" />
<glyph unicode="&#x1ec5;" d="M51 393q0 195 75 358.5t224.5 268t343.5 104.5q201 0 317.5 -115.5t116.5 -289.5q0 -111 -34 -242h-744q-2 -18 -2 -78q0 -84 53.5 -136t141.5 -52q70 0 132 30.5t91 69.5h283q-82 -152 -230.5 -240.5t-331.5 -88.5q-195 0 -315.5 111.5t-120.5 299.5zM358 1227l342 270 h265l176 -270h-176l-168 108l-252 -108h-187zM387 668h451v30q0 104 -45 150.5t-134 46.5q-209 0 -272 -227zM449 1563q35 115 99 177t148 62q63 0 146 -35l102 -43q51 -23 68 -20q68 0 110 104h111q-35 -127 -107.5 -188t-164.5 -61q-66 0 -105 22l-102 51q-61 29 -90 29 q-53 0 -105 -98h-110z" />
<glyph unicode="&#x1ec6;" horiz-adv-x="1366" d="M80 0l317 1493h1082l-56 -256h-774l-71 -338h714l-53 -256h-715l-82 -387h809l-55 -256h-1116zM373 -410l55 269h287l-56 -269h-286zM571 1614l342 270h265l176 -270h-176l-168 108l-252 -108h-187z" />
<glyph unicode="&#x1ec7;" d="M51 393q0 195 75 358.5t224.5 268t343.5 104.5q201 0 317.5 -115.5t116.5 -289.5q0 -111 -34 -242h-744q-2 -18 -2 -78q0 -84 53.5 -136t141.5 -52q70 0 132 30.5t91 69.5h283q-82 -152 -230.5 -240.5t-331.5 -88.5q-195 0 -315.5 111.5t-120.5 299.5zM258 -410l55 269 h287l-55 -269h-287zM387 668h451v30q0 104 -45 150.5t-134 46.5q-209 0 -272 -227zM401 1225l287 315h260l146 -315h-181l-135 157l-200 -157h-177z" />
<glyph unicode="&#x1ec8;" horiz-adv-x="569" d="M47 0l318 1493h307l-318 -1493h-307zM352 1806q33 115 99.5 164t173.5 49q92 0 147 -38.5t55 -102.5q0 -66 -47 -117q-31 -33 -108 -69q-45 -23 -58.5 -36.5t-21.5 -51.5h-123q8 90 131 161q37 18 56.5 36t22.5 28t3 24q0 55 -74 56q-92 0 -116 -103h-140z" />
<glyph unicode="&#x1ec9;" horiz-adv-x="569" d="M55 0l236 1106h287l-236 -1106h-287zM268 1419q33 115 99.5 164t173.5 49q92 0 147 -39t55 -102q0 -66 -47 -117q-31 -33 -108 -69q-45 -23 -58.5 -36.5t-21.5 -51.5h-123q8 90 131 161q37 18 56.5 36t22.5 28t3 24q0 55 -74 56q-90 0 -116 -103h-140z" />
</font>
</defs>
</svg>
