<?xml version="1.0" encoding="utf-8"?>
<!-- Generator: Adobe Illustrator 17.1.0, SVG Export Plug-In . SVG Version: 6.00 Build 0)  -->
<!DOCTYPE svg PUBLIC "-//W3C//DTD SVG 1.1//EN" "http://www.w3.org/Graphics/SVG/1.1/DTD/svg11.dtd">
<svg version="1.1" id="Layer_1" xmlns="http://www.w3.org/2000/svg" xmlns:xlink="http://www.w3.org/1999/xlink" x="0px" y="0px"
	 viewBox="0 0 206.5 45.2" enable-background="new 0 0 206.5 45.2" xml:space="preserve">
<g>
	<path fill="#FFFFFF" d="M0,2.1h26.6l0.2,6.5L25,9L23.6,5l-8.5-0.4v27l5.5,0.7v2H6v-2l5.1-0.7v-27L3,5L1.9,8.4L0,8.5L0,2.1z"/>
	<path fill="#FFFFFF" d="M28.9,2.5V0.5L36.1,0L37,0.3v13.1c0.5-0.4,0.9-0.8,1.4-1.1c0.3-0.2,0.9-0.5,1.9-1.1
		c0.7-0.4,1.5-0.7,2.2-0.9c0.8-0.2,1.6-0.3,2.3-0.3c1.5,0,2.8,0.2,3.7,0.7c1,0.5,1.8,1.1,2.3,2c0.6,0.9,1,2.1,1.2,3.4
		c0.2,1.1,0.3,2.8,0.3,5v10.6l3.6,0.5v2H44.6v-2l3.6-0.5v-8.9c0-1.6,0-3.1-0.1-4.2c-0.1-1.2-0.3-2.3-0.7-3.1
		c-0.4-0.9-0.9-1.5-1.5-1.8c-0.7-0.4-1.6-0.6-2.7-0.6c-0.3,0-0.8,0-1.3,0.1c-0.4,0.1-0.9,0.2-1.6,0.4c-0.5,0.1-1.1,0.4-1.7,0.7
		c-0.6,0.2-1.1,0.5-1.6,0.9v16.5l3.5,0.5v2H29.7v-2l3.2-0.5V3.1L28.9,2.5z"/>
	<path fill="#FFFFFF" d="M57.8,23.2c0-0.2,0-0.3,0-0.5c0-0.9,0.1-1.7,0.3-2.6c0.2-1,0.5-2,1-3c0.3-0.7,0.9-1.6,1.7-2.7
		c0.6-0.8,1.4-1.6,2.3-2.2c0.9-0.6,1.9-1.2,2.9-1.5c1.1-0.4,2.3-0.6,3.5-0.7c0.1,0,0.2,0,0.3,0c0.9,0,1.8,0.2,2.5,0.5
		c0.8,0.4,1.5,0.8,2.1,1.4c0.5,0.6,1.1,1.3,1.5,2.2c0.4,0.8,0.7,1.7,0.9,2.7c0.2,1,0.3,2,0.3,3.1c0,1.2-0.1,2.1-0.2,3H61.7
		c0,1.6,0.3,2.9,0.7,4.1c0.5,1.2,1,2.2,1.7,2.9c0.7,0.7,1.6,1.3,2.6,1.7c1,0.4,2.1,0.6,3.2,0.6c0.5,0,1,0,1.6-0.1
		c0.4-0.1,1-0.2,1.6-0.3c0.6-0.1,1-0.3,1.3-0.4c0.4-0.1,0.7-0.3,0.9-0.4l0.5,1.6c-0.2,0.3-0.6,0.6-1.1,0.9c-0.6,0.4-1.2,0.7-1.8,0.8
		c-0.9,0.3-1.6,0.5-2.2,0.6C70,34.9,69.2,35,68.4,35c-1.6,0-3.1-0.2-4.3-0.7c-1.3-0.5-2.5-1.3-3.4-2.3c-0.9-1-1.6-2.1-2.1-3.6
		C58.1,26.9,57.8,25.2,57.8,23.2z M61.8,20.5h11.3c0-0.3,0-0.6,0-0.9c0-0.8,0-1.6-0.1-2.4c-0.1-1-0.3-1.9-0.7-2.7
		c-0.3-0.7-0.8-1.3-1.5-1.8c-0.7-0.4-1.5-0.7-2.5-0.7c-1,0-1.9,0.3-2.7,0.8c-0.9,0.5-1.6,1.1-2.1,1.9c-0.6,0.8-1,1.7-1.3,2.7
		c-0.3,0.9-0.4,1.8-0.4,2.7C61.8,20.2,61.8,20.4,61.8,20.5z"/>
	<path fill="#FFFFFF" d="M92.2,33.4v-6.9H94c0.2,1.1,0.5,1.9,0.8,2.5c0.4,0.7,0.8,1.3,1.2,1.7c0.5,0.5,0.9,0.8,1.5,1.1
		c0.7,0.4,1.3,0.6,1.7,0.7c0.6,0.1,1.2,0.2,1.7,0.3c0.8,0.1,1.4,0.1,1.7,0.1c0.8,0,1.6-0.1,2.3-0.3s1.4-0.5,2.1-1
		c0.6-0.4,1.2-1,1.6-1.8c0.4-0.7,0.6-1.5,0.6-2.5c0-1-0.2-1.8-0.7-2.5c-0.5-0.8-1.1-1.4-1.8-2.1c-0.8-0.6-1.6-1.2-2.5-1.7l-3-1.6
		c-0.3-0.1-1.3-0.7-3-1.6c-1-0.5-1.9-1.2-2.7-1.9c-0.7-0.6-1.4-1.4-1.8-2.3c-0.5-0.9-0.7-1.9-0.7-3c0-1,0.1-2,0.4-2.7
		C93.6,6.8,94,6,94.4,5.5c0.5-0.6,1.1-1.2,1.7-1.7c0.6-0.4,1.3-0.8,2.1-1.1c0.9-0.4,1.7-0.6,2.4-0.7c0.9-0.1,1.8-0.2,2.5-0.2
		c1.1,0,1.9,0,2.5,0.1c0.6,0.1,1.4,0.2,2.5,0.3c0.7,0.1,1.5,0.3,2.2,0.5c0.5,0.1,1,0.3,1.5,0.6v5.8h-1.8c-0.2-1.1-0.5-2-1-2.6
		c-0.5-0.6-1.1-1.1-1.8-1.5c-0.7-0.4-1.4-0.6-2.3-0.8c-0.7-0.1-1.5-0.2-2.4-0.2c-0.6,0-1.2,0.1-1.9,0.2c-0.7,0.2-1.4,0.5-1.9,0.9
		c-0.6,0.4-1.1,1-1.5,1.6c-0.4,0.7-0.6,1.6-0.6,2.6c0,0.9,0.2,1.7,0.7,2.4c0.5,0.7,1.1,1.3,2,1.9c0.8,0.6,1.8,1.2,2.7,1.7l3,1.6
		c0.7,0.3,1.7,0.9,3,1.6c0.9,0.6,1.7,1.2,2.5,1.9c0.7,0.6,1.2,1.5,1.7,2.4c0.4,0.8,0.6,1.8,0.6,3c0,1.5-0.3,2.9-0.9,4
		c-0.6,1.2-1.4,2.2-2.4,2.9c-1,0.7-2.2,1.3-3.6,1.7c-1.4,0.4-2.9,0.6-4.3,0.6c-0.3,0-0.9,0-1.8-0.1c-0.3,0-1-0.1-1.9-0.2
		c-0.5-0.1-1.2-0.2-2-0.3c-0.1,0-0.4-0.1-0.8-0.1c-0.4-0.1-0.7-0.1-0.9-0.2c-0.6-0.1-1.1-0.3-1.5-0.4C92.7,33.6,92.4,33.5,92.2,33.4
		z"/>
	<path fill="#FFFFFF" d="M116.1,43l3.5-0.6V14.9l-2.9-1.5v-1.9l5.5-1.5l0.9,0.4v2.1c0.3-0.2,0.7-0.5,1.3-0.8
		c0.3-0.1,0.8-0.4,1.8-0.8c0.4-0.2,1.1-0.4,2.1-0.6c0.7-0.2,1.5-0.3,2.3-0.3c1.4,0,2.7,0.3,3.8,0.8c1,0.5,2,1.2,2.7,2.2
		c0.7,1,1.3,2.1,1.6,3.4c0.4,1.4,0.6,2.9,0.6,4.5c0,2.2-0.3,4.1-0.9,5.8c-0.6,1.6-1.4,3.1-2.6,4.3c-1.1,1.2-2.4,2.1-3.9,2.7
		c-1.6,0.6-3.3,0.9-5.1,0.9c-0.3,0-0.7,0-1.4-0.1c-0.7-0.1-1.3-0.1-1.7-0.2v7.9l4.6,0.6v2.2h-12.2V43z M123.7,30.9
		c0.8,0.4,1.4,0.6,2,0.8c0.7,0.2,1.3,0.3,2,0.3c1.1,0,2.1-0.1,3-0.3c1-0.2,1.7-0.7,2.4-1.3c0.6-0.6,1.1-1.6,1.6-2.9
		c0.4-1.1,0.6-2.8,0.5-4.9c0-1.3-0.1-2.6-0.4-3.7c-0.3-1.2-0.6-2.2-1.2-3.1c-0.5-0.9-1.2-1.6-2-2.1c-0.8-0.5-1.8-0.8-3-0.8
		c-0.4,0-0.9,0-1.3,0.1c-0.6,0.1-1.1,0.2-1.4,0.3c-0.5,0.1-1,0.3-1.3,0.4c-0.4,0.2-0.8,0.4-1,0.5V30.9z"/>
	<path fill="#FFFFFF" d="M142.2,28.1c0-1,0.2-1.8,0.7-2.6c0.4-0.7,1.1-1.3,1.9-1.9c0.7-0.5,1.6-1,2.6-1.4c1-0.4,2-0.7,2.9-0.9
		c1.1-0.3,2-0.4,2.8-0.5c1.2-0.1,1.9-0.2,2.2-0.2v-2.6c0-1-0.1-1.8-0.4-2.5c-0.3-0.6-0.6-1.2-1.1-1.6c-0.5-0.4-1.1-0.7-1.8-0.9
		c-0.8-0.2-1.6-0.3-2.3-0.3c-0.5,0-1.2,0.1-1.9,0.2c-0.5,0.1-1.1,0.3-1.8,0.5l-1.5,0.6c-0.5,0.2-0.8,0.3-0.9,0.4l-0.6-1.7
		c0.3-0.3,0.7-0.6,1.2-0.9c0.7-0.4,1.4-0.7,2-0.9c1-0.4,1.8-0.6,2.4-0.7c0.8-0.2,1.7-0.3,2.6-0.3c1.1,0,2.2,0.1,3.2,0.4
		c1.1,0.3,1.9,0.7,2.5,1.3c0.7,0.6,1.3,1.4,1.6,2.3c0.4,1,0.6,2.1,0.6,3.5l0,14.3h3.2v1.8c-0.1,0.1-0.4,0.2-0.9,0.4
		c-0.3,0.1-0.7,0.2-1.2,0.3c-0.2,0-0.4,0.1-0.8,0.2c-0.3,0-0.5,0.1-0.6,0.1c-0.4,0.1-0.8,0.1-1.2,0.1c-0.5,0-0.9-0.1-1.2-0.3
		c-0.3-0.2-0.5-0.4-0.7-0.7c-0.1-0.2-0.2-0.5-0.3-0.9c-0.1-0.5-0.1-0.8-0.1-1l-1.3,0.9c-0.6,0.4-1.2,0.7-1.8,1
		c-0.8,0.4-1.5,0.6-2.3,0.7c-0.8,0.2-1.5,0.2-2.2,0.2c-0.2,0-0.3,0-0.5,0c-0.9-0.1-1.7-0.2-2.4-0.5c-0.7-0.4-1.2-0.8-1.7-1.3
		c-0.5-0.5-0.8-1.2-1-2C142.3,29.8,142.2,28.9,142.2,28.1z M146.2,27.4c0,0.5,0.1,1,0.2,1.6c0.1,0.6,0.3,1,0.6,1.4
		c0.3,0.4,0.6,0.7,0.9,0.9c0.4,0.3,0.9,0.4,1.3,0.4c0.3,0,0.8,0,1.3-0.1l1.7-0.3c0.7-0.2,1.3-0.3,1.6-0.4c0.5-0.1,0.9-0.3,1.3-0.6
		l0-7.5c-1.4,0.1-2.6,0.2-3.7,0.4c-1.1,0.3-2.1,0.6-2.8,1c-0.9,0.5-1.5,1-1.9,1.4C146.5,26.2,146.2,26.8,146.2,27.4z"/>
	<path fill="#FFFFFF" d="M164.5,34.3v-2l3.6-0.5V15l-2.9-1.5v-1.9l5.5-1.5l1,0.4v2.8c1.1-1,2.1-1.8,3.1-2.2c1.2-0.5,2.3-0.8,3.2-0.8
		c0.1,0,0.2,0,0.3,0c0.1,0,0.3,0,0.4,0c0.1,0,0.3,0,0.6,0.1c0.2,0,0.4,0.1,0.5,0.1l0.3,0.2l-0.2,3.7c0,0-0.1,0-0.2-0.1
		s-0.2-0.1-0.2-0.1c-0.1,0-0.2-0.1-0.3-0.1c-0.2,0-0.3-0.1-0.3-0.1c-0.2-0.1-0.5-0.1-0.8-0.2c-0.4-0.1-0.7-0.1-0.9-0.1
		c-0.1,0-0.3,0-0.7-0.1c-0.3,0-0.6,0-1,0c-0.4,0.1-0.9,0.2-1.4,0.3c-0.5,0.2-1.2,0.5-1.8,0.9v16.9l5.8,0.5v2H164.5z"/>
	<path fill="#FFFFFF" d="M181.4,2.5V0.5l6.9-0.5l0.8,0.3v22.2l9-8.9l-3.3-0.4v-2.7h10.5v2.7l-3.4,0.4l-7.4,6.8l9,11.4l2.8,0.5v2
		h-10.6v-2l2.9-0.5l-6.6-9.3l-2.9,3v6.3l3.6,0.5v2h-11.1v-2l3.5-0.5V3.1L181.4,2.5z"/>
</g>
</svg>
