<?xml version="1.0" encoding="utf-8"?>
<!-- Generator: Adobe Illustrator 17.0.0, SVG Export Plug-In . SVG Version: 6.00 Build 0)  -->
<!DOCTYPE svg PUBLIC "-//W3C//DTD SVG 1.1//EN" "http://www.w3.org/Graphics/SVG/1.1/DTD/svg11.dtd">
<svg version="1.1" id="Layer_1" xmlns="http://www.w3.org/2000/svg" xmlns:xlink="http://www.w3.org/1999/xlink" x="0px" y="0px"
	 width="20px" height="20px" viewBox="0 0 20 20" enable-background="new 0 0 20 20" xml:space="preserve">
<g>
	<path d="M10.959,8.824V8.791c-0.006,0.012-0.015,0.023-0.023,0.033H10.959z"/>
	<path d="M5.633,17.646H2.202V7.33h3.431V17.646z M3.917,5.922H3.895C2.744,5.922,2,5.127,2,4.139c0-1.014,0.768-1.785,1.939-1.785
		c1.174,0,1.897,0.772,1.918,1.785C5.857,5.127,5.113,5.922,3.917,5.922z M18,17.646h-3.43v-5.52c0-1.387-0.496-2.334-1.738-2.334
		c-0.946,0-1.512,0.641-1.76,1.256c-0.091,0.221-0.113,0.527-0.113,0.836v5.762H7.53c0,0,0.044-9.35,0-10.316h3.429v1.461
		c0.457-0.703,1.272-1.703,3.092-1.703c2.256,0,3.949,1.475,3.949,4.644V17.646z"/>
</g>
</svg>
