<?xml version="1.0" encoding="utf-8"?>
<!-- Generator: Adobe Illustrator 17.0.0, SVG Export Plug-In . SVG Version: 6.00 Build 0)  -->
<!DOCTYPE svg PUBLIC "-//W3C//DTD SVG 1.1//EN" "http://www.w3.org/Graphics/SVG/1.1/DTD/svg11.dtd">
<svg version="1.1" id="Layer_1" xmlns="http://www.w3.org/2000/svg" xmlns:xlink="http://www.w3.org/1999/xlink" x="0px" y="0px"
	 width="20px" height="20px" viewBox="0 0 20 20" enable-background="new 0 0 20 20" xml:space="preserve">
<g>
	<polygon points="16.546,3.692 16.546,1.244 15.322,1.244 15.322,3.692 12.875,3.692 12.875,4.916 15.322,4.916 15.322,7.363 
		16.546,7.363 16.546,4.916 18.993,4.916 18.993,3.692 	"/>
	<path d="M10.305,11.301c-0.492-0.369-1.562-1.127-1.562-1.635c0-0.593,0.169-0.888,1.066-1.586
		c0.917-0.719,1.567-1.663,1.567-2.837c0-1.277-0.522-2.437-1.505-2.999h1.393L12.449,1c0,0-3.918,0-5.305,0
		C4.452,1,2.207,2.984,2.207,5.168c0,2.232,1.474,4.01,4.007,4.01c0.176,0,0.347-0.009,0.514-0.022
		c-0.165,0.316-0.281,0.668-0.281,1.035c0,0.62,0.341,0.973,0.762,1.384c-0.319,0-0.626,0.009-0.962,0.009
		c-3.083,0-5.24,2.12-5.24,4.157C1.007,17.745,3.608,19,6.691,19c3.513,0,5.674-1.995,5.674-3.999
		C12.365,13.393,12.018,12.584,10.305,11.301z M4.204,5.135C3.955,3.257,4.916,1.82,6.345,1.861
		c1.429,0.044,2.653,1.584,2.899,3.463C9.49,7.201,8.668,8.409,7.239,8.368C5.809,8.324,4.45,7.012,4.204,5.135z M6.679,18.112
		c-2.13,0-3.669-1.347-3.669-2.969c0-1.586,1.805-2.958,3.936-2.933c0.497,0.004,0.96,0.086,1.38,0.222
		c1.158,0.804,2.09,1.305,2.325,2.224c0.044,0.185,0.068,0.376,0.068,0.571C10.719,16.847,9.675,18.112,6.679,18.112z"/>
</g>
</svg>
