<?xml version="1.0" encoding="utf-8"?>
<!-- Generator: Adobe Illustrator 17.0.0, SVG Export Plug-In . SVG Version: 6.00 Build 0)  -->
<!DOCTYPE svg PUBLIC "-//W3C//DTD SVG 1.1//EN" "http://www.w3.org/Graphics/SVG/1.1/DTD/svg11.dtd">
<svg version="1.1" id="Layer_1" xmlns="http://www.w3.org/2000/svg" xmlns:xlink="http://www.w3.org/1999/xlink" x="0px" y="0px"
	 width="20px" height="20px" viewBox="0 0 20 20" enable-background="new 0 0 20 20" xml:space="preserve">
<path d="M17.158,6.329c0.008,0.158,0.011,0.317,0.011,0.478c0,4.88-3.715,10.507-10.507,10.507c-2.086,0-4.026-0.612-5.661-1.659
	c0.29,0.033,0.583,0.051,0.881,0.051c1.731,0,3.322-0.59,4.586-1.58c-1.615-0.031-2.98-1.099-3.449-2.565
	c0.225,0.043,0.456,0.067,0.694,0.067c0.337,0,0.664-0.046,0.972-0.13c-1.688-0.339-2.962-1.832-2.962-3.621
	c0-0.015,0-0.031,0-0.047c0.499,0.277,1.068,0.443,1.673,0.462C2.405,7.63,1.754,6.499,1.754,5.218c0-0.677,0.182-1.311,0.5-1.857
	c1.82,2.235,4.543,3.705,7.611,3.858C9.802,6.95,9.769,6.668,9.769,6.378c0-2.04,1.654-3.692,3.694-3.692
	c1.061,0,2.022,0.448,2.695,1.166c0.84-0.165,1.631-0.472,2.346-0.896c-0.277,0.862-0.861,1.586-1.624,2.043
	C17.627,4.91,18.339,4.711,19,4.417C18.506,5.158,17.879,5.808,17.158,6.329z"/>
</svg>
