<?xml version="1.0" encoding="utf-8"?>
<!-- Generator: Adobe Illustrator 16.0.0, SVG Export Plug-In . SVG Version: 6.00 Build 0)  -->
<!DOCTYPE svg PUBLIC "-//W3C//DTD SVG 1.1//EN" "http://www.w3.org/Graphics/SVG/1.1/DTD/svg11.dtd">
<svg version="1.1" id="Layer_1" xmlns="http://www.w3.org/2000/svg" xmlns:xlink="http://www.w3.org/1999/xlink" x="0px" y="0px"
	 width="682px" height="158.911px" viewBox="0 0 682 158.911" enable-background="new 0 0 682 158.911" xml:space="preserve">
<g>
	<g>
		<path d="M22.043,157.454l1.657-0.386V143.91l-1.76-0.354v-1.062h2.78c0.312,0,0.611-0.01,0.896-0.032
			c0.285-0.019,0.568-0.041,0.848-0.059c0.28-0.024,0.572-0.043,0.871-0.065c0.296-0.019,0.62-0.031,0.967-0.031
			c0.535,0,1.043,0.026,1.525,0.078c0.483,0.054,0.928,0.146,1.34,0.271c0.409,0.128,0.779,0.308,1.112,0.532
			c0.335,0.227,0.618,0.511,0.855,0.855c0.236,0.345,0.416,0.754,0.542,1.231c0.124,0.482,0.186,1.039,0.186,1.677
			c0,0.553-0.078,1.062-0.239,1.545c-0.158,0.479-0.378,0.914-0.655,1.31c-0.277,0.396-0.606,0.749-0.986,1.062
			c-0.376,0.312-0.788,0.579-1.229,0.79c-0.438,0.216-0.9,0.381-1.379,0.492c-0.48,0.109-0.958,0.165-1.438,0.165
			c-0.659-0.047-1.183-0.078-1.572-0.092c-0.223-0.01-0.416-0.01-0.583-0.01v4.895l2.521,0.345v0.988h-6.259V157.454z
			 M25.782,150.639c0.375,0.105,0.729,0.184,1.057,0.229c0.331,0.05,0.652,0.072,0.965,0.072c0.63,0,1.193-0.05,1.68-0.151
			c0.492-0.101,0.903-0.294,1.236-0.588c0.331-0.29,0.585-0.703,0.761-1.232c0.172-0.532,0.259-1.226,0.259-2.09
			c0-0.653-0.105-1.204-0.312-1.654c-0.209-0.451-0.496-0.814-0.864-1.089c-0.37-0.271-0.804-0.466-1.308-0.571
			c-0.502-0.109-1.05-0.15-1.641-0.132c-0.167,0.009-0.317,0.013-0.452,0.017c-0.136,0.006-0.271,0.01-0.407,0.019
			c-0.136,0.01-0.281,0.028-0.432,0.052c-0.154,0.027-0.333,0.063-0.542,0.109V150.639z"/>
		<path d="M34.854,157.454l1.654-0.386V143.91l-1.76-0.354v-1.062h2.783c0.312,0,0.611-0.01,0.893-0.032
			c0.286-0.019,0.567-0.041,0.851-0.059c0.28-0.024,0.57-0.043,0.869-0.065c0.299-0.019,0.623-0.031,0.969-0.031
			c0.77,0,1.483,0.06,2.135,0.174c0.653,0.115,1.218,0.331,1.691,0.644c0.476,0.317,0.851,0.758,1.122,1.323
			s0.407,1.296,0.407,2.192c0,0.528-0.081,1.02-0.242,1.479c-0.159,0.46-0.376,0.878-0.655,1.255
			c-0.278,0.376-0.604,0.717-0.979,1.011c-0.377,0.294-0.782,0.537-1.22,0.735l4.136,6.021l1.217,0.312v0.988h-3.063l-4.143-6.792
			c-0.134,0.013-0.262,0.027-0.391,0.031c-0.129,0.01-0.255,0.01-0.382,0.01c-0.66-0.047-1.184-0.078-1.571-0.093
			c-0.223-0.004-0.417-0.008-0.584-0.008v5.519l2.521,0.345v0.988h-6.259V157.454z M38.592,150.086
			c0.375,0.105,0.729,0.184,1.057,0.229c0.328,0.051,0.65,0.074,0.962,0.074c0.605,0,1.14-0.046,1.604-0.146
			c0.466-0.097,0.854-0.285,1.167-0.562c0.312-0.275,0.55-0.666,0.712-1.163c0.164-0.495,0.247-1.145,0.247-1.953
			c0-0.588-0.099-1.089-0.296-1.497c-0.198-0.41-0.473-0.74-0.823-0.988c-0.352-0.253-0.765-0.427-1.241-0.529
			c-0.476-0.096-0.995-0.137-1.556-0.118c-0.167,0.009-0.32,0.013-0.455,0.017c-0.133,0.006-0.269,0.01-0.404,0.019
			c-0.136,0.01-0.28,0.028-0.432,0.052c-0.154,0.027-0.333,0.063-0.542,0.109V150.086z"/>
		<path d="M55.819,158.772c-1.071,0.037-2.029-0.146-2.875-0.551c-0.848-0.4-1.564-0.965-2.15-1.687
			c-0.588-0.721-1.031-1.581-1.333-2.578c-0.304-0.997-0.443-2.077-0.423-3.245c0.027-1.31,0.231-2.481,0.616-3.511
			c0.381-1.034,0.898-1.911,1.551-2.633c0.652-0.722,1.415-1.277,2.286-1.664c0.871-0.391,1.811-0.597,2.817-0.625
			c1.068-0.027,2.026,0.156,2.874,0.556c0.846,0.4,1.562,0.96,2.151,1.688c0.586,0.726,1.029,1.585,1.333,2.578
			c0.301,0.992,0.441,2.071,0.421,3.24c-0.028,1.31-0.232,2.485-0.614,3.524c-0.381,1.038-0.898,1.916-1.551,2.638
			c-0.655,0.721-1.415,1.277-2.286,1.669C57.763,158.561,56.826,158.759,55.819,158.772z M56.173,143.381
			c-0.786,0-1.479,0.166-2.084,0.501c-0.602,0.331-1.115,0.813-1.53,1.448c-0.416,0.629-0.732,1.396-0.947,2.298
			c-0.216,0.905-0.324,1.93-0.324,3.073c0,0.598,0.045,1.188,0.14,1.761c0.094,0.579,0.232,1.122,0.411,1.636
			c0.182,0.516,0.407,0.988,0.678,1.425c0.271,0.441,0.584,0.819,0.938,1.137c0.354,0.32,0.748,0.569,1.182,0.743
			c0.434,0.179,0.912,0.268,1.431,0.268c0.779,0,1.466-0.167,2.063-0.501c0.598-0.332,1.094-0.814,1.494-1.448
			c0.4-0.629,0.703-1.396,0.908-2.302c0.204-0.901,0.306-1.927,0.306-3.07c0-0.599-0.041-1.187-0.129-1.76
			c-0.087-0.575-0.218-1.122-0.391-1.638c-0.174-0.514-0.391-0.987-0.652-1.425c-0.259-0.436-0.561-0.817-0.906-1.135
			c-0.342-0.321-0.733-0.569-1.165-0.744C57.161,143.468,56.686,143.381,56.173,143.381z"/>
		<path d="M64.599,157.454l1.655-0.408v-12.979l-1.655-0.33v-1.241h2.574c0.457-0.014,1.002-0.051,1.631-0.119
			c0.627-0.064,1.363-0.097,2.204-0.097c0.758,0,1.459,0.06,2.1,0.184c0.644,0.129,1.195,0.331,1.662,0.607
			c0.466,0.274,0.829,0.638,1.089,1.084c0.262,0.44,0.393,0.979,0.393,1.612c0,0.488-0.081,0.961-0.237,1.435
			c-0.156,0.465-0.393,0.878-0.713,1.231c-0.264,0.354-0.585,0.648-0.962,0.879c-0.379,0.233-0.806,0.39-1.285,0.477
			c0.597,0.005,1.147,0.102,1.654,0.289c0.506,0.189,0.945,0.451,1.314,0.792c0.37,0.34,0.66,0.748,0.864,1.227
			c0.207,0.473,0.311,1.007,0.311,1.595c0,0.703-0.138,1.351-0.412,1.944c-0.275,0.593-0.692,1.106-1.25,1.539
			c-0.559,0.437-1.262,0.777-2.103,1.024c-0.843,0.244-1.836,0.378-2.982,0.391c-0.299,0-0.605-0.004-0.917-0.019
			c-0.312-0.009-0.613-0.022-0.905-0.037c-0.292-0.013-0.568-0.026-0.823-0.045c-0.257-0.019-0.476-0.032-0.658-0.046h-2.55V157.454
			z M68.285,149.222c0.175,0.037,0.37,0.064,0.589,0.079c0.218,0.019,0.44,0.032,0.666,0.036c0.225,0.009,0.449,0.015,0.667,0.015
			c0.221,0.004,0.416,0.009,0.588,0.009c0.972,0,1.765-0.243,2.376-0.73c0.333-0.249,0.59-0.584,0.774-1.002
			c0.182-0.419,0.276-0.91,0.276-1.471c0-0.46-0.089-0.859-0.264-1.2c-0.177-0.34-0.428-0.625-0.75-0.85
			c-0.324-0.229-0.717-0.395-1.177-0.506c-0.462-0.115-0.979-0.169-1.549-0.169c-0.13,0-0.296,0.004-0.493,0.004
			c-0.198,0.005-0.4,0.013-0.609,0.022c-0.209,0.009-0.409,0.027-0.604,0.052c-0.195,0.021-0.352,0.059-0.469,0.109L68.285,149.222z
			 M68.285,157.036c0.09,0.055,0.239,0.106,0.444,0.156c0.205,0.046,0.432,0.091,0.683,0.128c0.248,0.042,0.508,0.069,0.774,0.093
			c0.267,0.019,0.512,0.027,0.735,0.027c0.567,0,1.104-0.056,1.604-0.174c0.499-0.12,0.935-0.313,1.308-0.575
			c0.368-0.262,0.662-0.611,0.877-1.034c0.214-0.428,0.322-0.952,0.322-1.567c0-1.204-0.328-2.082-0.983-2.633
			c-0.655-0.552-1.637-0.827-2.941-0.827c-0.241,0-0.49,0.004-0.745,0.01c-0.252,0.009-0.503,0.018-0.749,0.026
			c-0.246,0.01-0.483,0.023-0.708,0.036c-0.225,0.015-0.432,0.033-0.621,0.052V157.036z"/>
		<path d="M78.761,157.462l1.602-0.32v-13.186l-1.622-0.221v-1.227h5.747v1.227l-2.073,0.221l-0.019,13.213l5.936-0.239l1.562-1.958
			l0.905,0.45l-0.988,3.028H78.761V157.462z"/>
		<path d="M91.872,157.462l1.604-0.326v-13.193l-1.625-0.207v-1.241l10.372-0.01l0.407,2.689l-1.041,0.312l-0.688-1.595
			l-5.396-0.146v5.583l4.228-0.138l0.522-1.359h0.999l0.009,4.375h-1.155l-0.375-1.636l-4.228-0.124v6.714l5.936-0.238l1.562-1.959
			l0.908,0.446l-0.99,3.042H91.872V157.462z"/>
		<path d="M104.736,157.454l1.79-0.271l0.896-13.176l-2.031-0.271v-1.241h4.989l3.917,11.127l0.363,1.489l0.437-1.532l3.979-11.069
			h4.624v1.227l-1.946,0.271l0.905,13.176l1.781,0.271v0.988h-5.581v-0.988l1.728-0.271l-0.593-9.448l-0.104-3.626l-0.427,1.718
			l-4.729,12.772h-0.719l-4.281-11.168l-1.135-3.322l-0.083,3.479l-0.374,9.596l1.99,0.271v0.988h-5.395V157.454z"/>
		<path d="M126.929,157.891c-0.062-0.189-0.085-0.41-0.071-0.658c0.02-0.23,0.078-0.445,0.169-0.653
			c0.095-0.202,0.213-0.38,0.361-0.532c0.145-0.156,0.312-0.276,0.505-0.358c0.191-0.087,0.398-0.133,0.619-0.133
			c0.216,0,0.416,0.046,0.599,0.133c0.185,0.082,0.343,0.202,0.474,0.358c0.131,0.152,0.232,0.33,0.304,0.532
			c0.068,0.208,0.096,0.423,0.083,0.653c-0.014,0.229-0.069,0.446-0.161,0.652c-0.095,0.202-0.219,0.382-0.37,0.533
			c-0.154,0.157-0.329,0.275-0.522,0.363c-0.195,0.083-0.4,0.129-0.613,0.129c-0.333,0-0.62-0.092-0.859-0.275
			C127.206,158.451,127.034,158.203,126.929,157.891z"/>
	</g>
	<g>
		<path d="M144.32,158.796c-0.257,0-0.542-0.015-0.859-0.043c-0.315-0.027-0.642-0.063-0.975-0.109
			c-0.333-0.041-0.662-0.097-0.988-0.152c-0.327-0.059-0.63-0.118-0.913-0.184c-0.28-0.06-0.528-0.124-0.745-0.188
			c-0.216-0.069-0.375-0.128-0.478-0.193v-3.35h0.894c0.098,0.464,0.232,0.864,0.406,1.19c0.175,0.33,0.375,0.61,0.6,0.837
			c0.225,0.225,0.473,0.404,0.745,0.538c0.271,0.128,0.549,0.233,0.838,0.308c0.287,0.068,0.581,0.115,0.88,0.138
			s0.588,0.031,0.874,0.031c0.383,0,0.767-0.054,1.151-0.156c0.386-0.105,0.735-0.267,1.048-0.487
			c0.312-0.216,0.565-0.495,0.761-0.841c0.193-0.345,0.292-0.758,0.292-1.244c0-0.47-0.12-0.883-0.356-1.241
			c-0.235-0.363-0.545-0.695-0.926-0.998c-0.381-0.304-0.82-0.584-1.312-0.842c-0.494-0.261-0.995-0.522-1.505-0.79
			c-0.51-0.262-1.011-0.537-1.505-0.821c-0.492-0.286-0.93-0.598-1.312-0.942c-0.382-0.345-0.692-0.731-0.926-1.163
			c-0.237-0.433-0.356-0.924-0.356-1.48c0-0.5,0.074-0.951,0.214-1.355c0.142-0.399,0.337-0.763,0.583-1.075
			c0.246-0.316,0.538-0.593,0.871-0.818c0.333-0.229,0.694-0.418,1.083-0.564c0.388-0.147,0.793-0.254,1.213-0.326
			c0.421-0.074,0.841-0.111,1.266-0.111c0.388-0.009,0.805,0.01,1.25,0.047c0.444,0.036,0.869,0.092,1.275,0.161
			c0.407,0.068,0.774,0.151,1.103,0.239c0.331,0.091,0.579,0.184,0.744,0.271v2.886h-0.884c-0.076-0.533-0.237-0.97-0.485-1.3
			c-0.246-0.336-0.54-0.594-0.88-0.777c-0.34-0.184-0.71-0.308-1.115-0.372c-0.402-0.06-0.797-0.092-1.185-0.092
			c-0.299,0-0.621,0.041-0.965,0.119c-0.342,0.078-0.66,0.221-0.952,0.428c-0.292,0.207-0.535,0.478-0.728,0.817
			c-0.196,0.341-0.292,0.768-0.292,1.292c0,0.437,0.115,0.827,0.347,1.172c0.234,0.34,0.542,0.661,0.928,0.95
			c0.384,0.295,0.823,0.565,1.312,0.823c0.489,0.258,0.988,0.515,1.5,0.777c0.51,0.262,1.009,0.532,1.498,0.818
			c0.49,0.284,0.929,0.597,1.312,0.941c0.386,0.346,0.696,0.731,0.928,1.158c0.232,0.423,0.35,0.91,0.35,1.452
			c0,0.777-0.149,1.456-0.448,2.036c-0.298,0.579-0.703,1.062-1.213,1.443c-0.51,0.381-1.105,0.666-1.788,0.858
			C145.816,158.7,145.09,158.796,144.32,158.796z"/>
		<path d="M158.192,158.772c-1.068,0.037-2.026-0.146-2.874-0.551c-0.846-0.4-1.563-0.965-2.149-1.687
			c-0.588-0.721-1.031-1.581-1.335-2.578c-0.3-0.997-0.44-2.077-0.42-3.245c0.027-1.31,0.232-2.481,0.614-3.511
			c0.381-1.034,0.898-1.911,1.553-2.633c0.65-0.722,1.413-1.277,2.284-1.664c0.871-0.391,1.811-0.597,2.817-0.625
			c1.071-0.027,2.029,0.156,2.875,0.556c0.848,0.4,1.565,0.96,2.151,1.688c0.586,0.726,1.031,1.585,1.333,2.578
			c0.303,0.992,0.443,2.071,0.423,3.24c-0.028,1.31-0.232,2.485-0.614,3.524c-0.383,1.038-0.9,1.916-1.553,2.638
			c-0.652,0.721-1.413,1.277-2.286,1.669C160.139,158.561,159.199,158.759,158.192,158.772z M158.546,143.381
			c-0.784,0-1.478,0.166-2.082,0.501c-0.604,0.331-1.115,0.813-1.53,1.448c-0.418,0.629-0.732,1.396-0.949,2.298
			c-0.216,0.905-0.322,1.93-0.322,3.073c0,0.598,0.046,1.188,0.14,1.761c0.095,0.579,0.23,1.122,0.411,1.636
			c0.18,0.516,0.407,0.988,0.678,1.425c0.269,0.441,0.582,0.819,0.936,1.137c0.356,0.32,0.75,0.569,1.184,0.743
			c0.434,0.179,0.91,0.268,1.431,0.268c0.777,0,1.466-0.167,2.062-0.501c0.597-0.332,1.096-0.814,1.496-1.448
			c0.4-0.629,0.701-1.396,0.905-2.302c0.205-0.901,0.308-1.927,0.308-3.07c0-0.599-0.044-1.187-0.131-1.76
			c-0.087-0.575-0.216-1.122-0.391-1.638c-0.172-0.514-0.391-0.987-0.65-1.425c-0.259-0.436-0.562-0.817-0.906-1.135
			c-0.344-0.321-0.732-0.569-1.167-0.744C159.534,143.468,159.061,143.381,158.546,143.381z"/>
		<path d="M167.025,157.462l1.604-0.32v-13.186l-1.625-0.221v-1.227h5.747v1.227l-2.07,0.221l-0.021,13.213l5.933-0.239l1.562-1.958
			l0.905,0.45l-0.988,3.028h-11.048V157.462z"/>
		<path d="M187.014,158.69c-1.188,0-2.171-0.17-2.946-0.515s-1.39-0.831-1.845-1.462c-0.455-0.634-0.77-1.393-0.946-2.283
			c-0.18-0.887-0.267-1.881-0.267-2.979l0.009-7.551l-1.604-0.345v-1.062h5.905v1.062l-2.218,0.345v7.61
			c0,1.012,0.095,1.89,0.286,2.624c0.193,0.74,0.475,1.343,0.85,1.815c0.375,0.474,0.841,0.822,1.395,1.048
			c0.556,0.225,1.2,0.34,1.928,0.34c0.735,0,1.349-0.146,1.838-0.441c0.489-0.289,0.878-0.716,1.166-1.285
			c0.289-0.566,0.491-1.265,0.611-2.097c0.117-0.827,0.177-1.778,0.177-2.85v-6.765l-1.719-0.345v-1.062h5.071v1.062l-1.708,0.345
			v6.751c0,1.31-0.135,2.469-0.406,3.475c-0.271,1.001-0.662,1.843-1.174,2.519c-0.51,0.675-1.135,1.186-1.875,1.53
			S187.959,158.69,187.014,158.69z"/>
		<path d="M198.393,157.454l2.342-0.303v-13.392l-3.998,0.206l-0.522,1.677l-0.947,0.019l-0.021-3.151h13.173l0.085,3.185
			l-0.823,0.197l-0.678-1.935l-4.104-0.207v13.401l2.583,0.303v0.979h-7.091V157.454z"/>
		<path d="M209.975,157.454l1.675-0.303V143.91l-1.695-0.174v-1.227h5.528v1.227l-1.802,0.174v13.25l1.792,0.294v0.988h-5.499
			V157.454z"/>
		<path d="M223.764,158.772c-1.071,0.037-2.029-0.146-2.875-0.551c-0.848-0.4-1.565-0.965-2.151-1.687
			c-0.588-0.721-1.032-1.581-1.335-2.578c-0.3-0.997-0.44-2.077-0.42-3.245c0.028-1.31,0.232-2.481,0.614-3.511
			c0.381-1.034,0.9-1.911,1.553-2.633c0.653-0.722,1.413-1.277,2.287-1.664c0.871-0.391,1.809-0.597,2.815-0.625
			c1.071-0.027,2.029,0.156,2.876,0.556c0.846,0.4,1.563,0.96,2.149,1.688c0.588,0.726,1.031,1.585,1.334,2.578
			c0.301,0.992,0.441,2.071,0.421,3.24c-0.028,1.31-0.232,2.485-0.614,3.524c-0.381,1.038-0.9,1.916-1.553,2.638
			c-0.652,0.721-1.414,1.277-2.284,1.669C225.708,158.561,224.77,158.759,223.764,158.772z M224.115,143.381
			c-0.784,0-1.477,0.166-2.082,0.501c-0.604,0.331-1.114,0.813-1.53,1.448c-0.416,0.629-0.733,1.396-0.949,2.298
			c-0.213,0.905-0.321,1.93-0.321,3.073c0,0.598,0.046,1.188,0.14,1.761c0.094,0.579,0.23,1.122,0.411,1.636
			c0.182,0.516,0.407,0.988,0.678,1.425c0.271,0.441,0.582,0.819,0.938,1.137c0.354,0.32,0.747,0.569,1.182,0.743
			c0.434,0.179,0.912,0.268,1.431,0.268c0.779,0,1.466-0.167,2.063-0.501c0.597-0.332,1.094-0.814,1.494-1.448
			c0.4-0.629,0.701-1.396,0.908-2.302c0.202-0.901,0.305-1.927,0.305-3.07c0-0.599-0.044-1.187-0.131-1.76
			c-0.085-0.575-0.216-1.122-0.389-1.638c-0.174-0.514-0.391-0.987-0.653-1.425c-0.26-0.436-0.563-0.817-0.905-1.135
			c-0.344-0.321-0.732-0.569-1.167-0.744C225.103,143.468,224.63,143.381,224.115,143.381z"/>
		<path d="M232.417,157.454l1.781-0.303v-13.085l-1.551-0.33v-1.241h3.624l7.291,11.177l1.333,2.73V144.03l-1.917-0.294v-1.227
			h5.092v1.227l-1.728,0.294v14.412h-2.02l-7.208-10.832l-1.415-2.717v12.258l2.02,0.303v0.988h-5.301V157.454z"/>
		<path d="M249.706,157.891c-0.062-0.189-0.084-0.41-0.071-0.658c0.021-0.23,0.079-0.445,0.17-0.653
			c0.094-0.202,0.213-0.38,0.361-0.532c0.145-0.156,0.314-0.276,0.505-0.358c0.19-0.087,0.398-0.133,0.618-0.133
			c0.216,0,0.417,0.046,0.6,0.133c0.184,0.082,0.342,0.202,0.474,0.358c0.133,0.152,0.232,0.33,0.303,0.532
			c0.069,0.208,0.097,0.423,0.083,0.653c-0.014,0.229-0.067,0.446-0.162,0.652c-0.094,0.202-0.218,0.382-0.37,0.533
			c-0.154,0.157-0.326,0.275-0.521,0.363c-0.193,0.083-0.4,0.129-0.614,0.129c-0.333,0-0.621-0.092-0.859-0.275
			C249.984,158.451,249.812,158.203,249.706,157.891z"/>
	</g>
	<g>
		<path d="M260.83,157.454l1.354-0.386l5.561-14.674h1.967l4.948,14.692l1.562,0.367v0.988h-5.77v-0.988l1.884-0.354l-1.073-3.409
			h-6.133l-1.207,3.387l1.781,0.377v0.988h-4.874V157.454z M270.855,152.462l-1.938-6.103l-0.581-1.875l-2.78,7.978H270.855z"/>
		<path d="M284.084,158.671c-1.105,0-2.103-0.188-2.994-0.565c-0.894-0.372-1.652-0.905-2.28-1.585
			c-0.625-0.685-1.11-1.503-1.448-2.454c-0.337-0.952-0.507-2.009-0.507-3.167c0-0.854,0.103-1.659,0.312-2.416
			c0.209-0.755,0.498-1.453,0.871-2.087c0.37-0.635,0.813-1.204,1.325-1.714c0.515-0.506,1.081-0.934,1.698-1.287
			c0.618-0.351,1.278-0.621,1.979-0.805c0.703-0.188,1.424-0.284,2.167-0.284c0.478,0,0.958,0.026,1.438,0.082
			c0.478,0.05,0.926,0.114,1.342,0.188c0.418,0.073,0.786,0.146,1.105,0.221c0.319,0.073,0.554,0.134,0.708,0.184l-0.168,3.337
			h-1.103l-0.542-1.949c-0.542-0.289-1.117-0.501-1.721-0.634c-0.604-0.134-1.176-0.197-1.719-0.197
			c-0.745,0-1.448,0.146-2.112,0.44s-1.245,0.727-1.742,1.296c-0.496,0.569-0.892,1.269-1.183,2.092
			c-0.292,0.827-0.437,1.773-0.437,2.84c0,0.51,0.046,1.043,0.14,1.599c0.092,0.561,0.239,1.107,0.437,1.651
			c0.197,0.541,0.446,1.056,0.745,1.543c0.298,0.491,0.65,0.924,1.057,1.296c0.407,0.377,0.869,0.671,1.385,0.892
			c0.518,0.216,1.092,0.326,1.724,0.326c0.5,0,0.972-0.051,1.415-0.151c0.446-0.102,0.843-0.248,1.193-0.44
			c0.351-0.193,0.644-0.433,0.875-0.709c0.231-0.274,0.384-0.588,0.452-0.937l0.782,0.009v2.573c-0.255,0-0.541,0.041-0.853,0.124
			s-0.675,0.18-1.084,0.28c-0.409,0.105-0.883,0.198-1.416,0.285C285.392,158.629,284.778,158.671,284.084,158.671z"/>
		<path d="M294.758,157.454l2.344-0.303v-13.392l-3.998,0.206l-0.522,1.677l-0.947,0.019l-0.021-3.151h13.174l0.084,3.185
			l-0.823,0.197l-0.677-1.935l-4.104-0.207v13.401l2.583,0.303v0.979h-7.093V157.454z"/>
		<path d="M306.341,157.454l1.675-0.303V143.91l-1.696-0.174v-1.227h5.529v1.227l-1.802,0.174v13.25l1.792,0.294v0.988h-5.499
			V157.454z"/>
		<path d="M320.128,158.772c-1.068,0.037-2.026-0.146-2.875-0.551c-0.845-0.4-1.562-0.965-2.148-1.687
			c-0.589-0.721-1.032-1.581-1.335-2.578c-0.301-0.997-0.441-2.077-0.42-3.245c0.028-1.31,0.232-2.481,0.613-3.511
			c0.382-1.034,0.898-1.911,1.553-2.633c0.653-0.722,1.414-1.277,2.284-1.664c0.871-0.391,1.811-0.597,2.817-0.625
			c1.07-0.027,2.029,0.156,2.874,0.556c0.849,0.4,1.565,0.96,2.151,1.688c0.588,0.726,1.032,1.585,1.333,2.578
			c0.303,0.992,0.443,2.071,0.422,3.24c-0.027,1.31-0.232,2.485-0.613,3.524c-0.384,1.038-0.901,1.916-1.554,2.638
			c-0.653,0.721-1.413,1.277-2.286,1.669C322.075,158.561,321.134,158.759,320.128,158.772z M320.482,143.381
			c-0.784,0-1.478,0.166-2.082,0.501c-0.604,0.331-1.115,0.813-1.53,1.448c-0.417,0.629-0.733,1.396-0.95,2.298
			c-0.213,0.905-0.322,1.93-0.322,3.073c0,0.598,0.046,1.188,0.141,1.761c0.094,0.579,0.229,1.122,0.411,1.636
			c0.179,0.516,0.407,0.988,0.678,1.425c0.269,0.441,0.581,0.819,0.938,1.137c0.354,0.32,0.747,0.569,1.181,0.743
			c0.434,0.179,0.91,0.268,1.431,0.268c0.777,0,1.466-0.167,2.063-0.501c0.595-0.332,1.094-0.814,1.494-1.448
			c0.399-0.629,0.7-1.396,0.905-2.302c0.204-0.901,0.308-1.927,0.308-3.07c0-0.599-0.043-1.187-0.131-1.76
			c-0.087-0.575-0.216-1.122-0.388-1.638c-0.175-0.514-0.394-0.987-0.653-1.425c-0.26-0.436-0.563-0.817-0.905-1.135
			c-0.345-0.321-0.733-0.569-1.167-0.744C321.47,143.468,320.997,143.381,320.482,143.381z"/>
		<path d="M328.784,157.454l1.781-0.303v-13.085l-1.551-0.33v-1.241h3.624l7.291,11.177l1.333,2.73V144.03l-1.917-0.294v-1.227
			h5.093v1.227l-1.729,0.294v14.412h-2.02l-7.208-10.832l-1.416-2.717v12.258l2.02,0.303v0.988h-5.301V157.454z"/>
		<path d="M345.647,157.891c-0.063-0.189-0.087-0.41-0.072-0.658c0.02-0.23,0.077-0.445,0.171-0.653
			c0.093-0.202,0.212-0.38,0.358-0.532c0.146-0.156,0.316-0.276,0.507-0.358c0.189-0.087,0.397-0.133,0.619-0.133
			c0.214,0,0.414,0.046,0.599,0.133c0.184,0.082,0.343,0.202,0.474,0.358c0.133,0.152,0.233,0.33,0.302,0.532
			c0.069,0.208,0.097,0.423,0.084,0.653c-0.015,0.229-0.067,0.446-0.161,0.652c-0.094,0.202-0.219,0.382-0.37,0.533
			c-0.153,0.157-0.327,0.275-0.522,0.363c-0.192,0.083-0.396,0.129-0.613,0.129c-0.333,0-0.619-0.092-0.858-0.275
			C345.924,158.451,345.752,158.203,345.647,157.891z"/>
	</g>
	<path d="M22.221,113.011l16.553-2.137V16.271l-28.254,1.46L6.841,29.576l-6.693,0.147L0,7.43h93.069l0.589,22.514l-5.812,1.398
		l-4.782-13.685l-28.987-1.462v94.679l18.247,2.137v6.917H22.221V113.011z"/>
	<path d="M101.091,113.011l11.257-1.549V11.109L98.366,8.608V2.061L123.53,0l2.943,1.251v45.762c1.372-1.177,3.054-2.439,5.042-3.79
		c1.985-1.348,4.18-2.599,6.583-3.751c2.403-1.152,4.954-2.121,7.652-2.905c2.697-0.785,5.418-1.179,8.169-1.179
		c5.245,0,9.563,0.736,12.945,2.208c3.387,1.473,6.058,3.777,8.02,6.917c1.96,3.139,3.297,7.163,4.009,12.066
		c0.71,4.904,1.042,10.765,0.993,17.583v37.301l12.728,1.549V120h-39.58v-6.989l12.728-1.549V80.414
		c0-5.688-0.147-10.678-0.441-14.971c-0.294-4.29-1.018-7.859-2.169-10.705c-1.153-2.842-2.895-4.977-5.225-6.401
		c-2.33-1.421-5.531-2.132-9.601-2.132c-1.227,0-2.737,0.161-4.525,0.478c-1.792,0.32-3.692,0.785-5.703,1.399
		c-2.011,0.613-4.035,1.373-6.071,2.28c-2.036,0.909-3.886,1.95-5.554,3.126v57.974l12.213,1.549V120h-37.595V113.011z"/>
	<path d="M204.329,111.908c-3.289-3.533-5.765-7.738-7.431-12.62c-1.668-4.88-2.602-10.877-2.796-17.988
		c-0.147-3.63,0.159-7.296,0.921-11c0.759-3.704,1.923-7.261,3.496-10.669c1.567-3.408,3.518-6.609,5.848-9.601
		c2.328-2.991,5.039-5.604,8.13-7.835c3.088-2.231,6.521-4.021,10.301-5.372c3.775-1.347,7.895-2.097,12.36-2.244
		c3.973-0.097,7.491,0.441,10.559,1.618c3.063,1.179,5.712,2.847,7.946,5.004c2.231,2.159,4.069,4.699,5.52,7.616
		c1.443,2.918,2.537,6.059,3.272,9.417c0.735,3.36,1.129,6.879,1.179,10.559c0.048,3.678-0.197,7.308-0.737,10.887h-54.739
		c0.195,5.547,1.029,10.363,2.502,14.458c1.47,4.094,3.481,7.495,6.029,10.192c2.551,2.698,5.556,4.72,9.017,6.066
		c3.456,1.351,7.245,2.027,11.365,2.027c1.815,0,3.727-0.161,5.74-0.479c2.011-0.321,3.911-0.699,5.701-1.145
		c1.79-0.441,3.396-0.905,4.821-1.396c1.422-0.487,2.475-0.929,3.162-1.324l2.135,5.373c-0.933,1.176-2.307,2.315-4.12,3.419
		c-1.815,1.107-3.927,2.063-6.328,2.873c-2.404,0.809-5.028,1.456-7.873,1.947c-2.845,0.488-5.763,0.736-8.754,0.736
		c-5.495,0-10.559-0.869-15.193-2.611C211.723,118.076,207.711,115.438,204.329,111.908z M248.179,71.366
		c0.195-4.071,0.11-7.861-0.258-11.367c-0.367-3.506-1.177-6.548-2.426-9.124c-1.253-2.574-3.018-4.597-5.299-6.069
		c-2.28-1.47-5.26-2.207-8.941-2.207c-3.433,0-6.583,0.836-9.453,2.503c-2.867,1.666-5.308,3.861-7.321,6.583
		c-2.01,2.722-3.555,5.801-4.635,9.234c-1.078,3.433-1.521,6.915-1.324,10.447H248.179z"/>
	<path d="M332.132,122.5c-1.816,0-3.837-0.096-6.072-0.293c-2.233-0.193-4.526-0.45-6.879-0.764c-2.353-0.317-4.683-0.68-6.99-1.093
		c-2.305-0.414-4.449-0.842-6.439-1.278c-1.985-0.436-3.738-0.887-5.259-1.347c-1.519-0.464-2.647-0.914-3.385-1.351V92.704h6.328
		c0.688,3.285,1.643,6.098,2.87,8.423c1.225,2.331,2.634,4.293,4.231,5.887c1.592,1.595,3.348,2.858,5.26,3.787
		c1.912,0.934,3.888,1.659,5.924,2.174c2.034,0.516,4.106,0.846,6.215,0.993c2.11,0.146,4.17,0.221,6.184,0.221
		c2.695,0,5.407-0.368,8.127-1.104c2.723-0.735,5.186-1.88,7.396-3.423c2.205-1.549,3.996-3.535,5.37-5.967
		c1.372-2.426,2.06-5.362,2.06-8.799c0-3.287-0.834-6.21-2.501-8.761c-1.667-2.55-3.851-4.895-6.549-7.033
		c-2.699-2.133-5.788-4.121-9.271-5.962c-3.481-1.839-7.027-3.693-10.632-5.557c-3.605-1.865-7.148-3.804-10.632-5.816
		c-3.481-2.013-6.572-4.235-9.267-6.664c-2.701-2.429-4.886-5.166-6.549-8.209c-1.67-3.043-2.5-6.528-2.5-10.454
		c0-3.534,0.499-6.724,1.505-9.57c1.004-2.847,2.379-5.388,4.123-7.622c1.74-2.233,3.787-4.16,6.14-5.778
		c2.357-1.621,4.908-2.944,7.654-3.978c2.748-1.03,5.602-1.804,8.573-2.317c2.967-0.515,5.945-0.774,8.939-0.774
		c2.746-0.048,5.688,0.062,8.828,0.331c3.139,0.269,6.141,0.649,9.012,1.141c2.87,0.49,5.472,1.055,7.802,1.692
		c2.325,0.638,4.08,1.274,5.257,1.911v20.38h-6.252c-0.541-3.775-1.677-6.842-3.422-9.195c-1.741-2.355-3.814-4.183-6.216-5.483
		c-2.405-1.299-5.029-2.169-7.872-2.611c-2.845-0.441-5.641-0.662-8.39-0.662c-2.109,0-4.375,0.283-6.806,0.847
		c-2.426,0.562-4.669,1.57-6.732,3.015c-2.059,1.447-3.775,3.373-5.149,5.776c-1.372,2.403-2.059,5.443-2.059,9.122
		c0,3.091,0.821,5.851,2.466,8.278c1.643,2.429,3.826,4.671,6.546,6.733c2.723,2.059,5.813,3.998,9.271,5.811
		c3.458,1.815,6.99,3.641,10.595,5.481c3.605,1.838,7.135,3.765,10.593,5.774c3.459,2.013,6.55,4.231,9.271,6.66
		c2.725,2.429,4.905,5.15,6.547,8.166c1.643,3.018,2.463,6.438,2.463,10.266c0,5.492-1.055,10.285-3.16,14.385
		c-2.108,4.095-4.966,7.491-8.57,10.188c-3.604,2.697-7.812,4.721-12.62,6.071C342.699,121.826,337.575,122.5,332.132,122.5z"/>
	<path d="M397.852,149.062l16.262,1.912v7.505h-42.747v-7.505l12.288-1.839V52.312l-10.229-5.15v-6.623l19.424-5.15l3.238,1.471
		v7.286c1.179-0.885,2.687-1.813,4.524-2.796c1.841-0.98,3.899-1.889,6.179-2.723c2.284-0.833,4.734-1.533,7.359-2.097
		c2.625-0.563,5.309-0.845,8.055-0.845c4.954,0,9.311,0.907,13.062,2.723c3.751,1.815,6.904,4.391,9.455,7.724
		c2.548,3.337,4.462,7.358,5.74,12.065c1.27,4.708,1.911,9.933,1.911,15.672c0,7.604-1.057,14.382-3.164,20.342
		c-2.109,5.961-5.076,10.989-8.901,15.083c-3.828,4.1-8.424,7.225-13.796,9.38c-5.37,2.161-11.319,3.24-17.844,3.24
		c-1.468,0-3.125-0.064-4.964-0.184c-1.842-0.124-3.792-0.358-5.853-0.699V149.062z M397.852,108.447
		c2.552,1.228,4.932,2.124,7.138,2.685c2.211,0.565,4.564,0.851,7.062,0.851c3.876,0,7.434-0.382,10.674-1.145
		c3.233-0.758,6.005-2.288,8.311-4.596c2.307-2.308,4.108-5.602,5.407-9.894c1.301-4.294,1.953-9.974,1.953-17.036
		c0-4.561-0.432-8.89-1.288-12.986c-0.858-4.096-2.207-7.712-4.049-10.851c-1.841-3.14-4.205-5.629-7.101-7.468
		c-2.895-1.84-6.353-2.759-10.375-2.759c-1.47,0-3.05,0.147-4.742,0.441c-1.691,0.295-3.349,0.663-4.967,1.104
		c-1.62,0.441-3.128,0.958-4.527,1.544c-1.399,0.59-2.563,1.179-3.495,1.767V108.447z"/>
	<path d="M486.585,44.732c-2.205,0-4.438,0.233-6.695,0.7c-2.256,0.468-4.365,1.029-6.326,1.692
		c-1.962,0.663-3.704,1.325-5.223,1.985c-1.523,0.663-2.624,1.19-3.312,1.583l-2.133-6.18c0.932-0.982,2.413-2.023,4.449-3.127
		c2.037-1.104,4.389-2.134,7.061-3.091c2.675-0.955,5.545-1.741,8.611-2.354c3.062-0.612,6.093-0.92,9.088-0.92
		c4.166,0,7.982,0.456,11.438,1.362c3.461,0.908,6.413,2.379,8.868,4.415c2.451,2.037,4.364,4.697,5.739,7.983
		c1.371,3.286,2.059,7.332,2.059,12.14l-0.145,50.176h11.182v6.327c-0.736,0.396-1.765,0.809-3.091,1.25
		c-1.322,0.447-2.771,0.86-4.342,1.256c-1.571,0.39-3.126,0.722-4.671,0.992c-1.546,0.267-2.909,0.404-4.083,0.404
		c-1.719,0-3.09-0.308-4.122-0.92c-1.026-0.615-1.838-1.4-2.426-2.352c-0.589-0.961-0.982-2.037-1.179-3.24
		c-0.196-1.2-0.295-2.39-0.295-3.567c-1.129,0.883-2.6,1.912-4.412,3.089c-1.814,1.177-3.925,2.294-6.328,3.346
		c-2.403,1.058-5.078,1.916-8.022,2.578c-2.941,0.662-6.056,0.92-9.343,0.771c-3.187-0.146-5.983-0.799-8.387-1.947
		c-2.404-1.154-4.411-2.712-6.031-4.675c-1.619-1.962-2.832-4.301-3.641-7.025c-0.812-2.727-1.216-5.728-1.216-9.013
		c0-3.387,0.846-6.365,2.537-8.938c1.691-2.578,3.902-4.808,6.62-6.695c2.726-1.89,5.788-3.483,9.196-4.784
		c3.412-1.299,6.833-2.344,10.264-3.127c3.437-0.785,6.711-1.349,9.824-1.692c3.113-0.342,5.751-0.539,7.911-0.589v-9.344
		c0-3.532-0.457-6.474-1.362-8.829c-0.907-2.353-2.208-4.239-3.902-5.663c-1.688-1.423-3.725-2.441-6.104-3.054
		C492.264,45.04,489.576,44.732,486.585,44.732z M474.371,96.012c0,1.916,0.233,3.782,0.703,5.593
		c0.461,1.815,1.137,3.424,2.021,4.82c0.88,1.396,1.985,2.528,3.312,3.383c1.325,0.859,2.868,1.287,4.632,1.287
		c1.275,0,2.858-0.12,4.748-0.368c1.889-0.243,3.823-0.574,5.813-0.993c1.987-0.413,3.899-0.928,5.737-1.543
		c1.841-0.612,3.348-1.287,4.524-2.023l0.149-26.194c-4.758,0.101-9.077,0.602-12.95,1.51c-3.877,0.907-7.199,2.084-9.97,3.532
		c-2.771,1.447-4.919,3.114-6.438,5.004C475.134,91.908,474.371,93.907,474.371,96.012z"/>
	<path d="M537.722,113.011l12.801-1.549v-58.93l-10.227-5.445v-6.622l19.205-5.077l3.455,1.471l-0.072,9.934
		c3.432-3.384,7.086-6.007,10.963-7.873c3.873-1.863,7.601-2.796,11.181-2.796c0.786,0,1.583,0.037,2.395,0.109
		c0.807,0.075,1.556,0.175,2.242,0.295c0.688,0.123,1.287,0.271,1.802,0.441c0.516,0.174,0.896,0.359,1.143,0.553l-0.738,13.17
		c-0.294-0.147-0.771-0.342-1.436-0.589c-0.659-0.244-1.433-0.502-2.316-0.772c-0.88-0.27-1.838-0.489-2.87-0.662
		c-1.026-0.172-2.059-0.258-3.088-0.258c-0.591,0-1.397-0.085-2.429-0.256c-1.03-0.172-2.271-0.196-3.717-0.073
		c-1.446,0.123-3.113,0.489-5.004,1.103c-1.889,0.613-4.008,1.68-6.36,3.201v59.078l20.23,1.549V120h-47.159V113.011z"/>
	<path d="M595.185,113.011l12.067-1.549V11.109l-13.246-2.501V2.061L618.434,0l2.943,1.251v77.693l31.783-31.121l-11.549-1.472
		v-9.492h36.713v9.492l-11.848,1.545l-25.75,23.543l31.561,40.023l9.713,1.549V120h-37.15v-6.989l10.078-1.549l-23.176-32.518
		l-10.375,10.449v22.068l12.801,1.549V120h-38.993V113.011z"/>
</g>
</svg>
